#N canvas 105 50 673 500 10;
#X obj 137 157 route add remove;
#X msg 143 282 \$1 1;
#X obj 144 213 tabread \$0-mapping;
#X obj 143 233 select 0;
#X obj 145 182 t f f;
#X obj 143 255 f;
#X obj 134 390 tabwrite \$0-mapping;
#X obj 284 183 tabread \$0-mapping;
#X obj 283 203 select 0;
#X obj 285 152 t f f;
#X obj 285 251 f;
#X msg 283 278 \$1 0;
#X obj 282 224 t b;
#X obj 135 353 *;
#X obj 170 335 != 0;
#X obj 79 332 t f f;
#X obj 93 424 pack f f;
#X obj 94 467 route 0;
#X msg 94 502 \$1 remove;
#X msg 194 502 \$2 add;
#X msg 93 446 \$2 \$1;
#X obj 145 5 list split 2;
#X obj 139 33 list split 1;
#X obj 134 116 list prepend;
#X obj 134 138 list trim;
#X obj 430 286 list append;
#X obj 410 84 list split 1;
#X obj 464 173 tabread \$0-mapping;
#X obj 464 148 t f f;
#X obj 384 232 list prepend;
#X obj 388 254 route 0;
#X obj 296 487 outlet;
#X obj 378 304 f;
#X obj 384 276 t b a;
#X obj 359 326 t f f;
#X obj 340 375 list prepend;
#X obj 85 19 inlet;
#X obj 5 82 route stop clear;
#X msg 28 118 stop;
#X msg 69 107 clear;
#X obj 127 91 mod 100000;
#X obj 376 36 table \$0-mapping 100000;
#X obj 144 305 poly \$1 1;
#X text 217 308 shoud be poly \$1 \$2 but there is a bug, f 12;
#X connect 0 0 4 0;
#X connect 0 1 9 0;
#X connect 0 2 26 0;
#X connect 1 0 42 0;
#X connect 2 0 3 0;
#X connect 3 0 5 0;
#X connect 4 0 2 0;
#X connect 4 1 5 1;
#X connect 5 0 1 0;
#X connect 7 0 8 0;
#X connect 8 1 12 0;
#X connect 9 0 7 0;
#X connect 9 1 10 1;
#X connect 10 0 11 0;
#X connect 11 0 42 0;
#X connect 12 0 10 0;
#X connect 13 0 6 0;
#X connect 14 0 13 1;
#X connect 15 0 16 0;
#X connect 15 1 13 0;
#X connect 16 0 20 0;
#X connect 17 0 18 0;
#X connect 17 1 19 0;
#X connect 18 0 31 0;
#X connect 19 0 31 0;
#X connect 20 0 17 0;
#X connect 21 0 22 0;
#X connect 21 1 25 1;
#X connect 22 0 40 0;
#X connect 22 1 23 1;
#X connect 23 0 24 0;
#X connect 24 0 0 0;
#X connect 25 0 31 0;
#X connect 26 0 29 0;
#X connect 26 1 28 0;
#X connect 27 0 29 1;
#X connect 28 0 27 0;
#X connect 28 1 32 1;
#X connect 29 0 30 0;
#X connect 30 0 33 0;
#X connect 30 1 25 0;
#X connect 32 0 34 0;
#X connect 33 0 32 0;
#X connect 33 1 35 1;
#X connect 34 0 35 0;
#X connect 34 1 1 0;
#X connect 35 0 26 0;
#X connect 36 0 37 0;
#X connect 37 0 38 0;
#X connect 37 1 39 0;
#X connect 37 2 21 0;
#X connect 38 0 42 0;
#X connect 39 0 42 0;
#X connect 40 0 23 0;
#X connect 42 0 15 0;
#X connect 42 1 6 1;
#X connect 42 2 14 0;
#X connect 42 2 16 1;
