#N canvas 0 50 778 562 10;
#X obj 177 14 inlet;
#X obj 218 394 tabwrite FID_ALLOC;
#X obj 218 371 *;
#X msg 257 269 \$1 1;
#X obj 268 354 != 0;
#X obj 258 442 spigot;
#X obj 319 421 == 0;
#X obj 257 162 tabread FID_ALLOC;
#X obj 257 184 select 0;
#X obj 257 142 t f f;
#X obj 258 248 f;
#X msg 429 294 \$1 0;
#X msg 258 465 \$1 clear;
#X obj 258 323 poly \$1 1;
#X obj 431 211 tabread FID_ALLOC;
#X obj 431 231 select 0;
#X obj 431 189 t f f;
#X obj 429 252 t b;
#X obj 429 274 f;
#X obj 156 509 outlet;
#N canvas 624 50 450 300 addCursor 0;
#X obj 156 50 inlet;
#X obj 156 72 list split 1;
#X obj 92 138 list append;
#X obj 244 204 outlet;
#X obj 92 160 unpack f f f;
#X obj 92 100 t b f f f f;
#X obj 94 231 fid_set x;
#X obj 94 261 fid_set y;
#X obj 95 203 fid_set cursor_id;
#X connect 0 0 1 0;
#X connect 1 0 5 0;
#X connect 1 1 2 1;
#X connect 2 0 4 0;
#X connect 4 0 8 0;
#X connect 4 1 6 0;
#X connect 4 2 7 0;
#X connect 5 0 2 0;
#X connect 5 1 7 1;
#X connect 5 2 6 1;
#X connect 5 3 8 1;
#X connect 5 4 3 0;
#X restore 258 108 pd addCursor;
#N canvas 423 53 644 503 addObject 0;
#X obj 88 187 unpack f f f f;
#X obj 91 23 inlet;
#X obj 92 44 list split 1;
#X obj 92 138 list append;
#X obj 218 133 outlet;
#X obj 91 68 t b f f f f f;
#X obj 93 303 fid_set fid;
#X obj 122 264 fid_set x;
#X obj 139 235 fid_set y;
#X obj 177 211 fid_set alpha;
#X connect 0 0 6 0;
#X connect 0 1 7 0;
#X connect 0 2 8 0;
#X connect 0 3 9 0;
#X connect 1 0 2 0;
#X connect 2 0 5 0;
#X connect 2 1 3 1;
#X connect 3 0 0 0;
#X connect 5 0 3 0;
#X connect 5 1 6 1;
#X connect 5 2 7 1;
#X connect 5 3 8 1;
#X connect 5 4 9 1;
#X connect 5 5 4 0;
#X restore 355 108 pd addObject;
#X obj 231 39 route addCursor addObject updateCursor updateObject removeCursor
removeObject;
#X obj 329 9 table FID_ALLOC 100000;
#X obj 227 79 t l l;
#X msg 97 416 create \$1;
#X obj 321 79 t l l;
#N canvas 0 50 1185 556 updateObject 0;
#X obj 307 54 inlet;
#X obj 302 94 list split 1;
#X obj 302 188 list append;
#X obj 300 232 unpack f f f f f f f f f, f 26;
#X obj 159 517 fid_set x;
#X obj 299 528 fid_set y;
#X obj 384 369 fid_set Vx;
#X obj 402 346 fid_set Vy;
#X obj 429 517 fid_set alpha;
#X obj 413 316 fid_set Valpha;
#X obj 441 285 fid_set accel;
#X obj 474 261 fid_set raccel;
#X text 506 392 reactivision bug fix;
#N canvas 0 50 450 300 ReactivisionBugFix 0;
#X obj 156 22 inlet;
#X obj 137 209 outlet;
#X obj 136 91 moses 3.1416;
#X obj 142 138 moses 3.14158;
#X obj 274 179 print bugfix;
#X connect 0 0 2 0;
#X connect 2 0 3 0;
#X connect 2 1 1 0;
#X connect 3 0 1 0;
#X restore 427 419 pd ReactivisionBugFix;
#X obj 279 140 t f b f;
#X obj 188 280 fid_get classes;
#N canvas 0 50 450 300 list-drip 0;
#X obj 87 10 inlet;
#X obj 104 247 outlet;
#X obj 87 84 list split 1;
#X obj 141 132 list, f 13;
#X connect 0 0 2 0;
#X connect 2 0 1 0;
#X connect 2 1 3 0;
#X connect 3 0 2 0;
#X restore 186 307 pd list-drip;
#X obj 154 400 send;
#X msg 196 370 symbol \$1.update;
#X obj 180 338 t b s;
#X obj 157 371 f;
#X obj 732 338 fid_get alpha;
#X obj 787 382 t f f;
#X obj 787 403 sin;
#X obj 825 405 cos;
#X obj 662 381 t f f;
#X obj 662 402 sin;
#X obj 700 404 cos;
#X obj 662 423 * 1;
#X obj 700 425 * 1;
#X obj 427 440 list prepend \$2;
#X obj 427 461 route 0;
#X msg 502 483 \$2;
#X obj 697 298 spigot \$2;
#X obj 1046 153 r \$0-smooth;
#X obj 787 424 * 0;
#X obj 825 426 * 0;
#X obj 662 464 +;
#X obj 700 466 +;
#X obj 1046 174 * -1;
#X obj 853 249 + 1;
#X obj 662 485 atan2;
#X obj 181 448 list prepend \$2;
#X obj 181 469 route 0;
#X msg 229 496 \$2;
#X obj 824 494 fid_get x;
#X obj 770 465 * 1;
#X obj 770 506 +;
#X obj 827 521 * 0;
#X obj 291 448 list prepend \$2;
#X obj 291 469 route 0;
#X msg 339 496 \$2;
#X obj 890 465 * 1;
#X obj 890 506 +;
#X obj 947 521 * 0;
#X obj 944 459 fid_get y;
#X obj 760 194 r \$0-smooth;
#X connect 0 0 1 0;
#X connect 1 0 14 0;
#X connect 1 1 2 1;
#X connect 2 0 3 0;
#X connect 3 1 42 0;
#X connect 3 2 49 0;
#X connect 3 3 13 0;
#X connect 3 4 6 0;
#X connect 3 5 7 0;
#X connect 3 6 9 0;
#X connect 3 7 10 0;
#X connect 3 8 11 0;
#X connect 13 0 30 0;
#X connect 14 0 15 0;
#X connect 14 1 2 0;
#X connect 14 2 11 1;
#X connect 14 2 10 1;
#X connect 14 2 9 1;
#X connect 14 2 7 1;
#X connect 14 2 6 1;
#X connect 14 2 8 1;
#X connect 14 2 5 1;
#X connect 14 2 4 1;
#X connect 14 2 20 1;
#X connect 14 2 33 0;
#X connect 15 0 16 0;
#X connect 16 0 19 0;
#X connect 18 0 17 1;
#X connect 19 0 20 0;
#X connect 19 1 18 0;
#X connect 20 0 17 0;
#X connect 21 0 22 0;
#X connect 22 0 23 0;
#X connect 22 1 24 0;
#X connect 23 0 35 0;
#X connect 24 0 36 0;
#X connect 25 0 26 0;
#X connect 25 1 27 0;
#X connect 26 0 28 0;
#X connect 27 0 29 0;
#X connect 28 0 37 0;
#X connect 29 0 38 0;
#X connect 30 0 31 0;
#X connect 31 0 8 0;
#X connect 31 1 32 0;
#X connect 32 0 25 0;
#X connect 33 0 21 0;
#X connect 33 0 45 0;
#X connect 33 0 55 0;
#X connect 34 0 39 0;
#X connect 34 0 35 1;
#X connect 34 0 36 1;
#X connect 34 0 48 1;
#X connect 34 0 54 1;
#X connect 35 0 37 1;
#X connect 36 0 38 1;
#X connect 37 0 41 0;
#X connect 38 0 41 1;
#X connect 39 0 40 0;
#X connect 40 0 28 1;
#X connect 40 0 29 1;
#X connect 40 0 46 1;
#X connect 40 0 52 1;
#X connect 41 0 8 0;
#X connect 42 0 43 0;
#X connect 43 0 4 0;
#X connect 43 1 44 0;
#X connect 44 0 46 0;
#X connect 45 0 48 0;
#X connect 46 0 47 0;
#X connect 47 0 4 0;
#X connect 48 0 47 1;
#X connect 49 0 50 0;
#X connect 50 0 5 0;
#X connect 50 1 51 0;
#X connect 51 0 52 0;
#X connect 52 0 53 0;
#X connect 53 0 5 0;
#X connect 54 0 53 1;
#X connect 55 0 54 0;
#X connect 56 0 33 1;
#X connect 56 0 42 1;
#X connect 56 0 49 1;
#X connect 56 0 30 1;
#X restore 453 86 pd updateObject;
#N canvas 0 50 912 556 updatecursor 0;
#X obj 307 54 inlet;
#X obj 302 94 list split 1;
#X obj 302 188 list append;
#X obj 300 468 fid_set x;
#X obj 328 438 fid_set y;
#X obj 384 369 fid_set Vx;
#X obj 402 346 fid_set Vy;
#X obj 441 285 fid_set accel;
#X obj 279 140 t f b f;
#X obj 188 280 fid_get classes;
#N canvas 0 50 450 300 list-drip 0;
#X obj 87 10 inlet;
#X obj 104 247 outlet;
#X obj 87 84 list split 1;
#X obj 141 132 list, f 13;
#X connect 0 0 2 0;
#X connect 2 0 1 0;
#X connect 2 1 3 0;
#X connect 3 0 2 0;
#X restore 186 307 pd list-drip;
#X obj 154 400 send;
#X msg 196 370 symbol \$1.update;
#X obj 180 338 t b s;
#X obj 157 371 f;
#X obj 300 232 unpack f f f f f f, f 20;
#X connect 0 0 1 0;
#X connect 1 0 8 0;
#X connect 1 1 2 1;
#X connect 2 0 15 0;
#X connect 8 0 9 0;
#X connect 8 1 2 0;
#X connect 8 2 7 1;
#X connect 8 2 6 1;
#X connect 8 2 5 1;
#X connect 8 2 4 1;
#X connect 8 2 3 1;
#X connect 8 2 14 1;
#X connect 9 0 10 0;
#X connect 10 0 13 0;
#X connect 12 0 11 1;
#X connect 13 0 14 0;
#X connect 13 1 12 0;
#X connect 14 0 11 0;
#X connect 15 1 3 0;
#X connect 15 2 4 0;
#X connect 15 3 5 0;
#X connect 15 4 6 0;
#X connect 15 5 7 0;
#X restore 453 109 pd updatecursor;
#N canvas 0 50 813 553 removeObject 0;
#X obj 316 43 inlet;
#X obj 375 123 fid_get classes;
#N canvas 0 50 450 300 list-drip 0;
#X obj 87 10 inlet;
#X obj 104 247 outlet;
#X obj 87 84 list split 1;
#X obj 141 132 list, f 13;
#X connect 0 0 2 0;
#X connect 2 0 1 0;
#X connect 2 1 3 0;
#X connect 3 0 2 0;
#X restore 373 150 pd list-drip;
#X obj 354 240 send;
#X obj 357 211 f;
#X msg 396 210 symbol \$1.remove;
#X obj 326 346 text search;
#X obj 325 368 select -1;
#X obj 384 389 text get;
#X msg 443 311 symbol 0-pool;
#X obj 367 181 t b s s;
#N canvas 0 50 450 300 list-drip 0;
#X obj 87 10 inlet;
#X obj 104 247 outlet;
#X obj 87 84 list split 1;
#X obj 141 132 list, f 13;
#X obj 48 46 t b l;
#X obj 48 68 outlet;
#X connect 0 0 4 0;
#X connect 2 0 1 0;
#X connect 2 1 3 0;
#X connect 3 0 2 0;
#X connect 4 0 5 0;
#X connect 4 1 2 0;
#X restore 425 441 pd list-drip;
#X obj 384 411 list split 1;
#X obj 453 465 select;
#X msg 461 498 add2 \$1;
#X msg 462 521 class-1025-carton;
#X obj 459 578 text set;
#X msg 450 247 symbol class-\$1;
#X obj 449 270 t s b f b s;
#X obj 342 71 t f f f f, f 24;
#X obj 301 112 outlet;
#X msg 518 467 set \$1;
#X obj 443 548 list;
#X connect 0 0 19 0;
#X connect 1 0 2 0;
#X connect 2 0 10 0;
#X connect 4 0 3 0;
#X connect 5 0 3 1;
#X connect 6 0 7 0;
#X connect 7 1 8 0;
#X connect 7 1 16 1;
#X connect 8 0 12 0;
#X connect 9 0 6 1;
#X connect 9 0 8 3;
#X connect 9 0 16 3;
#X connect 10 0 4 0;
#X connect 10 1 5 0;
#X connect 10 2 17 0;
#X connect 11 0 15 0;
#X connect 11 1 13 0;
#X connect 12 1 11 0;
#X connect 13 1 14 0;
#X connect 14 0 15 0;
#X connect 15 0 22 0;
#X connect 17 0 18 0;
#X connect 18 0 6 0;
#X connect 18 1 9 0;
#X connect 18 4 21 0;
#X connect 19 0 20 0;
#X connect 19 1 1 0;
#X connect 19 2 4 1;
#X connect 19 3 13 1;
#X connect 21 0 15 0;
#X connect 22 0 16 0;
#X restore 600 121 pd removeObject;
#X obj 258 487 clone -s 1 pool_cell \$1;
#X text 371 521 <- réservé pour les variables globales;
#X obj 86 204 spigot;
#X msg 196 232 1;
#X msg 198 263 0;
#X obj 258 521 pool_cell 0;
#X msg 437 449 vis 1 1 \, vis 2 1;
#X obj 629 331 loadbang;
#X obj 629 352 f \$2;
#X obj 611 438 s \$0-smooth;
#X obj 677 30 inlet;
#X obj 702 318 route smooth;
#X obj 629 373 min 1;
#X obj 629 394 max 0;
#X connect 0 0 22 0;
#X connect 2 0 1 0;
#X connect 3 0 13 0;
#X connect 4 0 2 1;
#X connect 5 0 12 0;
#X connect 6 0 5 1;
#X connect 7 0 8 0;
#X connect 8 0 10 0;
#X connect 8 0 33 0;
#X connect 8 1 34 0;
#X connect 9 0 7 0;
#X connect 9 1 10 1;
#X connect 10 0 3 0;
#X connect 11 0 13 0;
#X connect 12 0 30 0;
#X connect 13 0 2 0;
#X connect 13 0 5 0;
#X connect 13 1 1 1;
#X connect 13 2 4 0;
#X connect 13 2 6 0;
#X connect 14 0 15 0;
#X connect 15 1 17 0;
#X connect 16 0 14 0;
#X connect 16 1 18 1;
#X connect 17 0 18 0;
#X connect 18 0 11 0;
#X connect 20 0 9 0;
#X connect 21 0 9 0;
#X connect 22 0 24 0;
#X connect 22 1 26 0;
#X connect 22 2 28 0;
#X connect 22 3 27 0;
#X connect 22 4 29 0;
#X connect 22 5 29 0;
#X connect 24 0 32 0;
#X connect 24 1 20 0;
#X connect 25 0 19 0;
#X connect 26 0 32 0;
#X connect 26 1 21 0;
#X connect 29 0 16 0;
#X connect 32 0 25 0;
#X connect 33 0 32 1;
#X connect 34 0 32 1;
#X connect 36 0 30 0;
#X connect 37 0 38 0;
#X connect 38 0 42 0;
#X connect 40 0 41 0;
#X connect 41 0 42 0;
#X connect 42 0 43 0;
#X connect 43 0 39 0;
