#N canvas 0 0 1011 709 12;
#X msg 311 245 stop;
#X obj 97 273 * 88.2;
#X obj 111 658 outlet~;
#X obj 341 302 delay;
#X obj 446 204 t b b;
#X obj 11 207 bng 15 250 50 0 empty empty empty 0 -6 0 8 -262144 -1
-1;
#X obj 186 360 * 132.3;
#X obj 152 387 f;
#X obj 344 501 line~;
#X obj 166 629 *~;
#X msg 343 378 1 10;
#X msg 615 185 0 \, 1 10;
#X msg 233 222 stop;
#X obj 280 154 t b b b;
#X obj 221 115 bng 15 250 50 0 empty empty empty 0 -6 0 8 -262144 -1
-1;
#X msg 522 363 0 10;
#X obj 225 185 delay 10;
#X obj 179 588 +~;
#X obj 47 289 f;
#X obj 109 457 tabplay~ \$2;
#X obj 26 173 r \$1-synchro;
#X obj 89 229 r \$1-latence;
#X obj 200 330 r \$1-latence;
#X obj 429 253 r \$1-period;
#X obj 250 95 r \$1-playstop;
#X obj 405 119 r \$1-dubstart;
#X obj 437 154 r \$1-dubflush;
#X obj 590 144 r \$1-playstart;
#X obj 165 292 r \$1-playstart;
#X connect 0 0 3 0;
#X connect 1 0 18 1;
#X connect 3 0 10 0;
#X connect 4 0 3 0;
#X connect 4 1 15 0;
#X connect 6 0 7 1;
#X connect 7 0 19 0;
#X connect 8 0 9 1;
#X connect 9 0 2 0;
#X connect 10 0 8 0;
#X connect 11 0 8 0;
#X connect 12 0 19 0;
#X connect 13 0 16 0;
#X connect 13 1 15 0;
#X connect 13 2 0 0;
#X connect 15 0 8 0;
#X connect 16 0 12 0;
#X connect 17 0 9 0;
#X connect 18 0 19 0;
#X connect 19 0 17 0;
#X connect 20 0 5 0;
#X connect 20 0 18 0;
#X connect 21 0 1 0;
#X connect 22 0 6 0;
#X connect 23 0 3 1;
#X connect 24 0 13 0;
#X connect 24 0 14 0;
#X connect 25 0 3 0;
#X connect 26 0 4 0;
#X connect 27 0 11 0;
#X connect 28 0 7 0;
