#N canvas 13 57 1011 691 12;
#N canvas 0 0 1063 709 loop_controls 0;
#X obj 60 12 inlet;
#X obj 205 160 f;
#X obj 205 127 t b;
#X obj 207 186 select 0 1 2 3 4;
#X text 488 268 0=empty;
#X text 491 285 1=stop;
#X text 491 301 2=play;
#X text 492 317 3=rec;
#X text 494 330 4=overdub;
#X msg 225 233 1;
#X msg 269 232 2;
#X obj 357 159 f;
#X obj 357 126 t b;
#X obj 359 185 select 0 1 2 3 4;
#X msg 358 229 3;
#X msg 406 229 4;
#X obj 382 309 f;
#X obj 467 271 vradio 15 1 0 8 empty empty empty 0 -6 0 8 -262144 -1
-1 0;
#X msg 472 68 dubstart;
#X msg 13 55 dubstop;
#X msg 18 170 playstart;
#X msg 17 133 playstop;
#X msg 471 102 dubflush \, dubstart;
#X msg 352 88 0;
#X msg 28 419 playstop \, recstop \, dubstop \, dubflush;
#X msg 13 98 recstop \, playresume;
#X obj 236 576 s \$0-recstart;
#X obj 361 573 s \$0-dubstart;
#X obj 478 577 s \$0-recstop;
#X obj 528 618 s \$0-dubstop;
#X obj 573 597 s \$0-playstart;
#X obj 686 584 s \$0-playstop;
#X obj 799 630 s \$0-playresume;
#X obj 491 484 symbol;
#X obj 606 487 outlet;
#X obj 344 530 select recstart dubstart recstop dubstop playstart playstop
playresume dubflush;
#X obj 813 586 s \$0-dubflush;
#X msg 470 35 recstart;
#X obj 123 25 symbol;
#X obj 643 223 t b;
#X obj 736 221 t b;
#X msg 655 266 play;
#X msg 759 263 rec;
#X obj 630 170 r \$0-play-button;
#X obj 744 174 r \$0-rec-button;
#X obj 636 36 bng 15 250 50 0 empty empty empty 0 -6 0 8 -262144 -1
-1;
#N canvas 0 0 462 312 reset-loopmemory 0;
#X obj 88 93 symbol \$0-headrushloop1;
#X msg 132 149 \; \$1 const 0;
#X obj 29 29 inlet;
#X connect 0 0 1 0;
#X connect 2 0 0 0;
#X restore 636 60 pd reset-loopmemory;
#X obj 617 350 select 2;
#X msg 628 402 1;
#X msg 733 408 0;
#X obj 693 462 spigot;
#X obj 821 102 r \$0-snd-synchro;
#X obj 804 447 s \$0-resynchro;
#X obj 625 306 select \$0;
#X text 754 327 anti overload;
#X obj 144 54 select play rec init flushdub;
#X obj 321 14 route synchro;
#X connect 0 0 56 0;
#X connect 1 0 3 0;
#X connect 2 0 1 0;
#X connect 3 1 10 0;
#X connect 3 1 20 0;
#X connect 3 2 9 0;
#X connect 3 2 21 0;
#X connect 3 3 10 0;
#X connect 3 3 25 0;
#X connect 3 4 10 0;
#X connect 3 4 19 0;
#X connect 9 0 16 0;
#X connect 10 0 16 0;
#X connect 11 0 13 0;
#X connect 12 0 11 0;
#X connect 13 0 14 0;
#X connect 13 0 37 0;
#X connect 13 1 14 0;
#X connect 13 1 37 0;
#X connect 13 2 15 0;
#X connect 13 2 18 0;
#X connect 13 3 14 0;
#X connect 13 3 37 0;
#X connect 13 4 15 0;
#X connect 13 4 22 0;
#X connect 14 0 16 0;
#X connect 15 0 16 0;
#X connect 16 0 1 1;
#X connect 16 0 17 0;
#X connect 16 0 11 1;
#X connect 16 0 47 0;
#X connect 18 0 33 0;
#X connect 19 0 33 0;
#X connect 20 0 33 0;
#X connect 21 0 33 0;
#X connect 22 0 33 0;
#X connect 23 0 16 0;
#X connect 24 0 33 0;
#X connect 25 0 33 0;
#X connect 33 0 34 0;
#X connect 33 0 35 0;
#X connect 35 0 26 0;
#X connect 35 1 27 0;
#X connect 35 2 28 0;
#X connect 35 3 29 0;
#X connect 35 4 30 0;
#X connect 35 5 31 0;
#X connect 35 6 32 0;
#X connect 35 7 36 0;
#X connect 37 0 33 0;
#X connect 38 0 55 0;
#X connect 39 0 41 0;
#X connect 40 0 42 0;
#X connect 41 0 38 0;
#X connect 42 0 38 0;
#X connect 43 0 39 0;
#X connect 44 0 40 0;
#X connect 45 0 46 0;
#X connect 47 0 48 0;
#X connect 47 1 49 0;
#X connect 48 0 50 1;
#X connect 49 0 50 1;
#X connect 50 0 52 0;
#X connect 51 0 50 0;
#X connect 53 1 50 0;
#X connect 55 0 2 0;
#X connect 55 1 12 0;
#X connect 55 2 23 0;
#X connect 55 2 24 0;
#X connect 55 3 46 0;
#X connect 56 0 53 0;
#X connect 56 1 38 0;
#X restore 338 125 pd loop_controls;
#X obj 374 416 tabwrite~ \$0-headrush;
#X msg 386 386 stop;
#X obj 77 373 timer;
#N canvas 0 0 889 368 tables 0;
#X obj 25 25 table \$0-headrush 4.41e+006;
#X obj 25 56 table \$0-headrushloop1 4.41e+006;
#X restore 692 28 pd tables;
#X obj 102 294 r \$0-recstart;
#X obj 160 337 r \$0-recstop;
#X obj 339 262 r \$0-recstart;
#X obj 391 297 r \$0-recstop;
#X obj 471 334 +;
#X obj 499 305 t b f;
#X obj 389 357 delay 46;
#X obj 574 249 r \$0-crossfade_time;
#X obj 458 254 r \$0-latence;
#X obj 75 459 s \$0-period;
#X obj 361 448 loopplayer \$0 \$0-headrush;
#X obj 383 516 dubplayer \$0 \$0-headrushloop1;
#X msg 308 56 init;
#X obj 301 14 loadbang;
#N canvas 0 0 494 105 store 0;
#X obj 33 35 inlet;
#X obj 52 143 outlet;
#X floatatom 124 57 7 0 0 0 - - -;
#X obj 98 98 f;
#X msg 144 99 set \$1;
#X obj 88 57 bng 15 250 50 0 empty empty Recall 0 -6 0 8 -262144 -1
-1;
#X connect 0 0 3 0;
#X connect 2 0 1 0;
#X connect 3 0 4 0;
#X connect 3 0 1 0;
#X connect 4 0 2 0;
#X connect 5 0 3 0;
#X coords 0 0 4.60803e-006 3.69603e-005 200 40 0;
#X restore 75 405 pd store period;
#X text 173 112 rec/overdub;
#X text 82 112 play/stop;
#X text 173 130 double click=flush;
#X obj 16 531 dubrecorder \$0 \$0-headrushloop1;
#X obj 17 101 inlet~;
#X obj 222 50 inlet;
#X obj 518 659 outlet;
#N canvas 0 0 354 312 latence 0;
#X floatatom 43 228 5 0 0 1 crossfade_time(ms) - -;
#X floatatom 42 169 5 0 0 1 latence(msec) - -;
#X obj 86 93 loadbang;
#X msg 60 136 30;
#X msg 94 137 16;
#X obj 42 257 s \$0-crossfade_time;
#X obj 86 190 s \$0-latence;
#X text 47 27 latence & crossfade time adjust;
#X connect 0 0 5 0;
#X connect 1 0 6 0;
#X connect 2 0 3 0;
#X connect 2 0 4 0;
#X connect 3 0 1 0;
#X connect 4 0 0 0;
#X restore 635 79 pd latence & crossfade time adjust;
#N canvas 13 4 1011 683 leds 0;
#X obj 299 157 s \$0-led-play;
#X obj 95 235 s \$0-led-rec;
#X msg 71 172 color 13 13;
#X msg 112 123 color 20 20;
#X msg 297 95 color 16 16;
#X obj 0 0 cnv 15 100 25 empty empty empty 20 12 0 14 -233017 -66577
0;
#X msg 350 127 color 20 20;
#X obj 185 9 inlet;
#X obj 278 14 symbol;
#X obj 44 43 select recstart dubstart recstop dubstop playstart playstop
playresume;
#X obj 5 5 bng 15 250 50 0 \$0-play-button empty empty 0 -6 0 8 -262144
-1 -1;
#X obj 5 5 cnv 15 15 15 empty \$0-led-play empty 20 12 0 14 -195568
-195568 0;
#X obj 76 5 bng 15 250 50 0 \$0-rec-button empty empty 0 -6 0 8 -262144
-1 -1;
#X obj 76 5 cnv 15 15 15 empty \$0-led-rec empty 20 12 0 14 -195568
-195568 0;
#X connect 2 0 1 0;
#X connect 3 0 1 0;
#X connect 4 0 0 0;
#X connect 6 0 0 0;
#X connect 7 0 8 0;
#X connect 8 0 9 0;
#X connect 9 0 2 0;
#X connect 9 1 2 0;
#X connect 9 2 3 0;
#X connect 9 3 3 0;
#X connect 9 4 4 0;
#X connect 9 5 6 0;
#X connect 9 6 4 0;
#X coords 0 -1 1 1 100 25 1 0 0;
#X restore 3 22 pd leds;
#X obj 39 48 bng 30 50 30 0 \$0-snd-synchro empty empty 0 -6 0 8 -241291
-1 -1;
#X obj 39 48 bng 30 50 30 0 empty \$0-synchro SYNC 0 -6 0 8 -241291
-1 -1;
#X obj 3 47 cnv 5 40 15 empty empty play 3 7 0 10 -233017 -66577 0
;
#X obj 3 63 cnv 5 40 15 empty empty stop 3 7 0 10 -233017 -66577 0
;
#X obj 63 47 cnv 5 40 15 empty empty rec 3 7 0 10 -233017 -66577 0
;
#X obj 63 63 cnv 5 40 15 empty empty dub 3 7 0 10 -233017 -66577 0
;
#X obj 42 493 *~ 0.6;
#X obj 849 401 r \$0-playstart;
#X obj 723 525 r \$0-period;
#X obj 837 461 loadbang;
#X msg 843 497 0;
#N canvas 187 9 867 622 get_tableIds+Period 0;
#X obj 214 159 symbol \$0-headrushloop1;
#X obj 236 17 inlet;
#X obj 123 331 outlet;
#X obj 20 116 symbol \$0-headrush;
#X obj 176 67 t b f b f;
#X obj 68 195 pack s f;
#X obj 267 228 pack s f;
#X msg 45 260 table_id1 \$1 \$2;
#X msg 256 265 table_id2 \$1 \$2;
#X connect 0 0 6 0;
#X connect 1 0 4 0;
#X connect 3 0 5 0;
#X connect 4 0 3 0;
#X connect 4 1 5 1;
#X connect 4 2 0 0;
#X connect 4 3 6 1;
#X connect 5 0 7 0;
#X connect 6 0 8 0;
#X connect 7 0 2 0;
#X connect 8 0 2 0;
#X restore 733 572 pd get_tableIds+Period;
#X msg 523 599 synchro \$1;
#X obj 642 564 f \$0;
#X obj 650 534 t b;
#X obj 723 323 r \$0-snd-synchro;
#X obj 308 629 s~ \$1-L;
#X obj 389 627 s~ \$1-R;
#X connect 0 0 28 0;
#X connect 2 0 1 0;
#X connect 3 0 19 0;
#X connect 5 0 3 0;
#X connect 6 0 3 1;
#X connect 7 0 1 0;
#X connect 8 0 11 0;
#X connect 9 0 11 1;
#X connect 10 0 9 0;
#X connect 10 1 9 1;
#X connect 11 0 2 0;
#X connect 12 0 10 0;
#X connect 13 0 9 0;
#X connect 15 0 45 0;
#X connect 15 1 41 0;
#X connect 16 0 46 0;
#X connect 17 0 0 0;
#X connect 18 0 17 0;
#X connect 19 0 14 0;
#X connect 24 0 1 0;
#X connect 24 0 35 0;
#X connect 25 0 0 0;
#X connect 35 0 23 0;
#X connect 36 0 43 0;
#X connect 37 0 40 0;
#X connect 38 0 39 0;
#X connect 39 0 40 0;
#X connect 40 0 26 0;
#X connect 41 0 26 0;
#X connect 42 0 41 0;
#X connect 43 0 42 0;
#X connect 44 0 43 0;
#X coords 0 -1 1 1 102 80 1 2 0;
