#N canvas 173 74 1079 709 12;
#X obj 239 127 metro 1000;
#N canvas 0 0 458 308 flip-flop 0;
#X obj 147 80 inlet;
#X obj 135 218 outlet;
#X obj 221 219 outlet;
#X obj 147 142 select 0 1;
#X msg 147 182 1;
#X msg 184 182 0;
#X obj 147 116 f 1;
#X msg 239 180 0;
#X msg 288 178 1;
#X obj 231 81 inlet;
#X connect 0 0 6 0;
#X connect 3 0 4 0;
#X connect 3 0 7 0;
#X connect 3 1 5 0;
#X connect 3 1 8 0;
#X connect 4 0 6 1;
#X connect 4 0 1 0;
#X connect 5 0 6 1;
#X connect 5 0 1 0;
#X connect 6 0 3 0;
#X connect 7 0 2 0;
#X connect 8 0 2 0;
#X connect 9 0 6 1;
#X restore 257 163 pd flip-flop;
#X obj 26 486 pack f 100;
#X obj 309 477 pack f 100;
#X obj 24 512 line~;
#X obj 294 512 line~;
#X obj 4 542 *~;
#X obj 242 541 *~;
#X obj 153 588 outlet~;
#X obj 110 565 +~;
#X obj 579 336 pack f f;
#X msg 487 165 1;
#X obj 388 97 delay;
#X obj 581 62 t b b b b;
#X obj 529 554 outlet;
#X obj 221 203 select 1 0;
#X obj 115 264 f;
#N canvas 0 0 470 320 (period+crossfade)*44.1 0;
#X obj 68 246 outlet;
#X obj 172 88 t b f;
#X obj 155 146 * 44.1;
#X obj 153 120 + 12;
#X obj 31 75 r \$1-period;
#X obj 165 43 r \$1-crossfade_time;
#X connect 1 0 3 0;
#X connect 1 1 3 1;
#X connect 2 0 0 0;
#X connect 3 0 2 0;
#X connect 4 0 3 0;
#X connect 5 0 1 0;
#X restore 469 228 pd (period+crossfade)*44.1;
#X msg 605 105 0 \, 1 10;
#X obj 80 370 pack f f;
#X obj 262 267 f;
#X obj 275 370 pack f f;
#X obj 610 166 f 4410;
#X obj 627 297 -;
#X msg 160 85 stop;
#X obj 22 82 delay 10;
#X obj 83 50 t b b b;
#X msg 15 228 stop;
#X msg 62 121 0 10;
#X obj 14 431 tabplay~ \$2;
#X obj 264 423 tabplay~ \$2;
#X obj 411 436 r \$1-crossfade_time;
#X obj 669 261 r \$1-latence;
#X obj 130 169 r \$1-latence;
#X obj 292 40 r \$1-period;
#X obj 720 5 r \$1-playstart;
#X obj 710 32 r \$1-playresume;
#X obj 83 18 r \$1-playstop;
#X obj 435 25 r \$1-period;
#X obj 541 24 r \$1-latence;
#X obj 514 61 - 30;
#X obj 747 71 r \$1-latence;
#X obj 133 196 * 44.1;
#X obj 692 107 * 88.2;
#X obj 239 10 r \$1-resynchro;
#X obj 97 454 r \$1-crossfade_time;
#X obj 261 46 bng 15 250 50 0 empty empty empty 0 -6 0 8 -262144 -1
-1;
#X obj 391 349 s \$1-synchro;
#X obj 672 475 spigot;
#X msg 683 427 0;
#X obj 558 392 t b b;
#X msg 599 468 1;
#X obj 225 62 t b f b;
#X obj 637 433 f \$1;
#X connect 0 0 1 0;
#X connect 0 0 47 0;
#X connect 0 0 50 0;
#X connect 1 0 2 0;
#X connect 1 0 15 0;
#X connect 1 1 3 0;
#X connect 2 0 4 0;
#X connect 3 0 5 0;
#X connect 4 0 6 1;
#X connect 5 0 7 1;
#X connect 6 0 9 0;
#X connect 7 0 9 1;
#X connect 9 0 8 0;
#X connect 10 0 29 0;
#X connect 11 0 1 1;
#X connect 12 0 0 0;
#X connect 13 0 22 0;
#X connect 13 1 11 0;
#X connect 13 1 18 0;
#X connect 13 2 12 0;
#X connect 15 0 16 0;
#X connect 15 1 20 0;
#X connect 16 0 19 0;
#X connect 17 0 19 1;
#X connect 17 0 21 1;
#X connect 17 0 23 0;
#X connect 18 0 4 0;
#X connect 19 0 29 0;
#X connect 20 0 21 0;
#X connect 21 0 30 0;
#X connect 22 0 10 0;
#X connect 23 0 10 1;
#X connect 24 0 0 0;
#X connect 24 0 12 0;
#X connect 25 0 27 0;
#X connect 26 0 25 0;
#X connect 26 1 28 0;
#X connect 26 2 24 0;
#X connect 27 0 29 0;
#X connect 27 0 30 0;
#X connect 28 0 4 0;
#X connect 28 0 5 0;
#X connect 29 0 6 0;
#X connect 30 0 7 0;
#X connect 31 0 3 1;
#X connect 32 0 23 1;
#X connect 33 0 42 0;
#X connect 34 0 0 1;
#X connect 35 0 13 0;
#X connect 36 0 13 0;
#X connect 37 0 26 0;
#X connect 38 0 40 0;
#X connect 39 0 40 1;
#X connect 40 0 12 1;
#X connect 41 0 43 0;
#X connect 42 0 20 1;
#X connect 42 0 16 1;
#X connect 43 0 22 1;
#X connect 44 0 46 0;
#X connect 44 0 52 0;
#X connect 45 0 2 1;
#X connect 48 0 14 0;
#X connect 49 0 48 1;
#X connect 50 0 51 0;
#X connect 50 1 53 0;
#X connect 51 0 48 1;
#X connect 52 0 0 0;
#X connect 52 1 14 0;
#X connect 52 2 49 0;
#X connect 53 0 48 0;
#X coords 0 0 0.0015456 0.00152207 200 20 0;
