#N canvas 622 60 873 640 12;
#X declare -stdlib extra/Gem/gem;
#X declare -stdpath extra/iemmatrix;
#X declare -stdpath extra/rj_dj;
#X obj 434 27 declare -stdlib extra/Gem/gem;
#X obj 431 64 declare -stdpath extra/iemmatrix;
#X obj 59 120 gemwin;
#X msg 150 135 dimen 640 480 \, create \, 1;
#X obj 147 200 findHomography projection;
#X obj 281 339 t a;
#X obj 434 98 declare -stdpath extra/rj_dj;
#X msg 17 69 0 \, destroy;
#X text 353 135 <- 1;
#X text 363 165 <- 2;
#X text 372 231 <- 3;
#X obj 10 237 cnv 15 150 400 empty empty empty 20 12 0 14 -262130 -66577
0;
#X obj 40 333 gemhead;
#X obj 41 301 tgl 15 1 empty empty empty 17 7 0 10 -262144 -1 -1 1
1;
#X obj 42 395 pix_video;
#X obj 37 426 pix_texture;
#X obj 174 337 gemhead;
#X obj 174 316 tgl 15 1 empty empty empty 17 7 0 10 -262144 -1 -1 1
1;
#X msg 244 231 dimen 512 512;
#X text 21 236 chaine de rendu à mapper, f 12;
#X obj 92 368 homographic projection 1.33333;
#X msg 100 166 0.2 0.3 0.7 0.1 0.9 0.9 0.1 0.9;
#X msg 396 328 ratio 1;
#X obj 38 457 rectangle 4 3;
#X connect 3 0 2 0;
#X connect 5 0 20 2;
#X connect 7 0 2 0;
#X connect 12 0 20 0;
#X connect 13 0 12 0;
#X connect 14 0 15 0;
#X connect 15 0 23 0;
#X connect 16 0 20 1;
#X connect 17 0 16 0;
#X connect 18 0 20 0;
#X connect 20 0 14 0;
#X connect 20 1 5 0;
#X connect 21 0 4 0;
#X connect 22 0 20 0;
