#N canvas 332 50 873 640 12;
#X obj 126 194 gemframebuffer;
#X obj 125 218 translateXYZ 0 0 -4;
#X obj 414 513 pix_texture;
#X obj 172 28 loadbang;
#X obj 414 483 pix_shader mapping;
#X obj 411 422 inlet;
#X msg 603 398 coefsX \$3 \$4 \$5;
#X msg 597 365 coefsY \$6 \$7 \$8;
#X msg 597 336 coefsD \$9 \$10;
#X obj 314 444 loadbang;
#X msg 101 74 dimen 512 512 \, rectangle 1;
#N canvas 0 50 988 317 curve_geometry 1;
#X obj 135 8 inlet;
#X obj 94 300 pack f f;
#X obj 196 299 pack f f;
#X obj 292 297 pack f f;
#X obj 394 296 pack f f;
#X obj 131 37 unpack f f f f f f f f;
#X msg 93 338 set 0 0 \$1 \$2 0;
#X msg 166 368 set 1 0 \$1 \$2 0;
#X msg 286 340 set 1 1 \$1 \$2 0;
#X msg 358 371 set 0 1 \$1 \$2 0;
#X obj 107 406 outlet;
#X obj 439 12 inlet ratio;
#X obj 464 42 f \$2;
#X obj 541 8 loadbang;
#X obj 465 69 select 0;
#X msg 415 74 1;
#X obj 18 208 expr $f1*8*$f3-4*$f3 \; -$f2*8+4;
#X obj 183 150 t f f f f, f 68;
#X obj 198 208 expr $f1*8*$f3-4*$f3 \; -$f2*8+4;
#X obj 378 208 expr $f1*8*$f3-4*$f3 \; -$f2*8+4;
#X obj 558 208 expr $f1*8*$f3-4*$f3 \; -$f2*8+4;
#X connect 0 0 5 0;
#X connect 1 0 6 0;
#X connect 2 0 7 0;
#X connect 3 0 8 0;
#X connect 4 0 9 0;
#X connect 5 0 16 0;
#X connect 5 1 16 1;
#X connect 5 2 18 0;
#X connect 5 3 18 1;
#X connect 5 4 19 0;
#X connect 5 5 19 1;
#X connect 5 6 20 0;
#X connect 5 7 20 1;
#X connect 6 0 10 0;
#X connect 7 0 10 0;
#X connect 8 0 10 0;
#X connect 9 0 10 0;
#X connect 11 0 12 0;
#X connect 12 0 14 0;
#X connect 13 0 12 0;
#X connect 14 0 15 0;
#X connect 14 1 17 0;
#X connect 15 0 17 0;
#X connect 16 0 1 0;
#X connect 16 1 1 1;
#X connect 17 0 16 2;
#X connect 17 1 18 2;
#X connect 17 2 19 2;
#X connect 17 3 20 2;
#X connect 18 0 2 0;
#X connect 18 1 2 1;
#X connect 19 0 3 0;
#X connect 19 1 3 1;
#X connect 20 0 4 0;
#X connect 20 1 4 1;
#X restore 552 511 pd curve_geometry;
#X obj 412 565 curve3d 2 2;
#X obj 22 38 inlet;
#X obj 128 251 outlet;
#X obj 690 266 r \$1.mtx;
#X obj 600 478 r \$1.geometry;
#X obj 244 256 outlet;
#X obj 501 422 inlet;
#X msg 12 163 dimen \$1 \$2;
#X msg 314 474 rectangle 1;
#X obj 14 114 route dimen ratio;
#X connect 0 0 1 0;
#X connect 0 1 17 0;
#X connect 1 0 14 0;
#X connect 2 0 12 0;
#X connect 3 0 10 0;
#X connect 4 0 2 0;
#X connect 5 0 4 0;
#X connect 6 0 4 1;
#X connect 7 0 4 1;
#X connect 8 0 4 1;
#X connect 9 0 20 0;
#X connect 10 0 21 0;
#X connect 11 0 12 0;
#X connect 13 0 21 0;
#X connect 15 0 6 0;
#X connect 15 0 7 0;
#X connect 15 0 8 0;
#X connect 16 0 11 0;
#X connect 18 0 2 1;
#X connect 19 0 0 0;
#X connect 19 0 4 1;
#X connect 20 0 2 0;
#X connect 21 0 19 0;
#X connect 21 1 11 1;
#X connect 21 2 0 0;
