#N canvas 0 50 1342 664 12;
#X text 152 263 1) Raccourcis clavier;
#X obj 783 100 osc~ 440;
#X text 860 100 (objet oscillateur 440hz);
#N canvas 0 50 450 300 son 0;
#X obj 100 100 tgl 60 0 empty empty DSP 12 14 0 20 -24198 -24198 -1
0 1;
#X obj 331 145 r pd;
#X obj 331 170 route dsp;
#X msg 94 202 \; pd dsp \$1;
#X obj 295 201 select 1 0;
#X msg 335 247 color 13 13 -1;
#X msg 205 237 color 16 16 -1;
#X connect 0 0 3 0;
#X connect 1 0 2 0;
#X connect 2 0 4 0;
#X connect 4 0 6 0;
#X connect 4 1 5 0;
#X connect 5 0 0 0;
#X connect 6 0 0 0;
#X coords 0 -1 1 1 60 60 2 100 100;
#X restore 532 341 pd son;
#X obj 173 103 cnv 15 50 14 empty empty empty 20 12 0 14 -261682 -66577
0;
#X text 153 140 Ces objets sont reliés les uns aux autres au moyen
de fils, f 75;
#X obj 592 104 cnv 15 50 14 empty empty empty 20 12 0 14 -261682 -66577
0;
#X text 174 18 INITIATION AUX SYNTHETISEURS MODULAIRES AVEC LE LOGICIEL
PURE DATA, f 68;
#X text 174 47 Le logiciel Puredata permet de concevoir des instruments
électroniques en tissant des "patchs" avec le clavier et la souris.
, f 85;
#X text 667 99 -> exemple 1 :;
#X text 665 140 -> exemple 2 :;
#X text 776 292 (en mode editeur \, le curseur de la souris devient
une petite main), f 66;
#X text 797 453 - Pour pouvoir modifier des objets sur la feuille \,
ou les connecter entre eux \, il faut passer en mode éditeur.;
#X text 680 445 CONSEILS;
#X text 797 493 - On connecte deux objets entre eux en reliant une
SORTIE du premier objet à une ENTREE du second objet.;
#X text 801 534 - Quand le pointeur de la souris est au dessus d'une
SORTIE \, il prend la forme d'un anneau.;
#X obj 445 294 cnv 15 115 14 empty empty empty 20 12 0 14 -261682 -66577
0;
#X obj 645 294 cnv 15 115 14 empty empty empty 20 12 0 14 -261682 -66577
0;
#X text 158 406 2) Exercice : rétablir les connexions entre les objets
ci-dessous en prenant modèle sur l'exemple 2, f 79;
#X obj 297 448 cnv 1 250 140 empty empty empty 20 12 0 14 -204786 -66577
0;
#X obj 306 515 *~;
#X obj 306 550 dac~;
#X obj 401 474 hsl 128 15 0 1 0 0 empty empty curseur_de_volume 2 8
0 10 -262144 -1 -1 0 1;
#X floatatom 398 504 5 0 0 0 - - -, f 5;
#X obj 306 460 osc~ 660;
#X obj 780 130 cnv 1 250 140 empty empty empty 20 12 0 14 -204786 -66577
0;
#X obj 786 158 osc~ 440;
#X obj 786 213 *~;
#X obj 786 248 dac~;
#X obj 881 172 hsl 128 15 0 1 0 0 empty empty curseur_de_volume 2 8
0 10 -262144 -1 -1 2800 1;
#X floatatom 878 192 5 0 0 0 - - -, f 5;
#X text 834 250 (vers sortie carte son);
#X text 826 215 (multiplicateur);
#X obj 263 173 cnv 1 250 70 empty empty empty 20 12 0 14 -204786 -66577
0;
#X obj 451 214 *~;
#X text 290 176 entrées de l'objet;
#X text 448 179 |;
#X text 448 191 V;
#X text 468 179 |;
#X text 468 191 V;
#X text 285 223 sortie de l'objet ->;
#X text 187 601 Repasser en mode performance pour agir sur le curseur
de volume;
#X text 153 100 Un patch est une fenêtre comme celle-ci \, contenant
des objets (entourés d'un rectangle), f 63;
#X text 159 643 3) Sauver le patch \, fermer cette fenêtre et ouvrir
un autre patch : Tutoriel2.pd, f 85;
#X obj 175 294 cnv 15 90 14 empty empty empty 20 12 0 14 -261682 -66577
0;
#X obj 175 320 cnv 15 90 14 empty empty empty 20 12 0 14 -261682 -66577
0;
#X obj 175 348 cnv 15 90 14 empty empty empty 20 12 0 14 -261682 -66577
0;
#X obj 175 374 cnv 15 90 14 empty empty empty 20 12 0 14 -261682 -66577
0;
#X text 199 344 Ctrl + / pour activer le son (vert);
#X text 198 370 Ctrl + . pour désactiver le son (rouge);
#X text 197 291 Ctrl + e pour basculer entre le mode editeur et le
mode performance, f 70;
#X text 198 316 Ctrl + s pour sauver le patch courant (cette fenêtre)
, f 70;
#X obj 791 139 nbx 5 14 20 20000 1 1 empty empty empty 0 -8 0 10 -262144
-1 -1 440 256;
#X text 852 135 (changer la fréquence);
#X connect 26 0 27 0;
#X connect 27 0 28 0;
#X connect 27 0 28 1;
#X connect 29 0 27 1;
#X connect 29 0 30 0;
#X connect 52 0 26 0;
