#N canvas 163 190 905 550 10;
#X obj 546 356 s \$0-set-table;
#X obj 546 287 r \$0-table;
#X msg 546 333 set \$1;
#X obj 546 310 list;
#X obj 327 46 inlet;
#X obj 327 84 u_dispatch \$0 table;
#X obj 330 133 u_dispatch \$0 sr;
#X obj 331 152 u_dispatch \$0 chunk-size;
#X obj 335 228 r \$0-chunk-size;
#X obj 349 261 * 0.01;
#X obj 349 284 s \$0-chunk-size-sec;
#X obj 349 307 r \$0-sr;
#X obj 349 341 * 0.01;
#X obj 349 364 t b f;
#X obj 335 397 * 220.5;
#X obj 335 420 s \$0-chunk-size-samples;
#X obj 331 176 u_dispatch \$0 transposition;
#X obj 44 67 inlet~;
#X text 45 49 read-pt;
#N canvas 0 50 514 440 two-phases 0;
#X obj 87 102 pow;
#X obj 87 59 t b f;
#X msg 87 82 2;
#X obj 98 178 t b f;
#X obj 87 202 /;
#X obj 87 226 phasor~;
#X text 125 201 loop frequency;
#X obj 87 6 r \$0-transposition;
#X obj 88 327 outlet~;
#X obj 171 279 +~ 0.5;
#X obj 172 305 wrap~;
#X text 232 266 second phase signal;
#X text 232 286 out of phase from;
#X text 231 307 first one;
#X obj 172 327 outlet~;
#X obj 98 152 r \$0-chunk-size-sec;
#X obj 87 35 / 12;
#X obj 251 101 r \$0-speed;
#X obj 150 95 t b f;
#X obj 141 129 * 1;
#X connect 0 0 19 0;
#X connect 1 0 2 0;
#X connect 1 1 0 1;
#X connect 2 0 0 0;
#X connect 3 0 4 0;
#X connect 3 1 4 1;
#X connect 4 0 5 0;
#X connect 5 0 8 0;
#X connect 5 0 9 0;
#X connect 7 0 16 0;
#X connect 9 0 10 0;
#X connect 10 0 14 0;
#X connect 15 0 3 0;
#X connect 16 0 1 0;
#X connect 17 0 18 0;
#X connect 18 0 19 0;
#X connect 18 1 19 1;
#X connect 19 0 4 0;
#X restore 119 118 pd two-phases;
#X obj 45 238 hip~ 5;
#X obj 45 264 outlet~;
#N canvas 344 451 768 257 defaults 0;
#X obj 60 40 loadbang;
#X msg 60 67 0;
#X obj 60 92 s \$0-transposition;
#X obj 260 38 loadbang;
#X obj 260 90 s \$0-chunk-size;
#X msg 260 65 5;
#X connect 0 0 1 0;
#X connect 1 0 2 0;
#X connect 3 0 5 0;
#X connect 5 0 4 0;
#X restore 128 361 pd defaults;
#X obj 373 46 u_loader s_playolap-\$1 \$0;
#N canvas 228 198 627 317 LICENSE-BSD 0;
#X text 121 56 This software is copyrighted by Miller Puckette \, Reality
Jockey Ltd. and others. The terms (the "Standard Improved BSD License")
apply to all files associated with the software unless explicitly disclaimed
in individual files.;
#X text 123 148 See the file LICENSE.txt for the full license text.
;
#X restore 488 28 pd LICENSE-BSD;
#X obj 563 132 r RJLIB;
#X obj 563 153 route sf-samplerate;
#X obj 563 175 s \$0-sr;
#X text 559 111 Allow global setting of soundfile samplerate;
#X obj 327 66 u_dispatch \$0 reverse-offset;
#X obj 150 264 outlet~;
#X obj 154 240 hip~ 5;
#X obj 632 246 list;
#X obj 632 223 r \$0-table-stereo;
#X obj 632 292 s \$0-set-table-l;
#X obj 665 362 s \$0-set-table-r;
#X msg 631 269 set \$1-1;
#X msg 664 340 set \$1-2;
#X obj 328 108 u_dispatch \$0 table-stereo;
#N canvas 397 81 854 691 playsamp 0;
#X obj 195 215 +~ 1;
#X obj 181 498 *~;
#X obj 200 249 +~;
#X obj 250 243 samphold~;
#X obj 195 143 samphold~;
#X obj 195 190 *~;
#X obj 360 228 -~ 0.5;
#X obj 360 252 *~ 0.5;
#X obj 360 275 cos~;
#X obj 249 68 inlet~;
#X obj 472 106 inlet~;
#X obj 182 537 outlet~;
#X obj 195 108 r \$0-chunk-size-samples;
#X text 253 47 read-pt;
#X text 471 75 phase;
#X obj 181 474 tabread4~;
#X obj 83 244 r \$0-set-table;
#X obj 191 376 +~;
#X obj 192 281 *~ -1;
#X obj 183 446 *~;
#X obj 595 263 != 0;
#X obj 494 174 r \$0-reverse-offset;
#X obj 364 500 *~;
#X obj 365 539 outlet~;
#X obj 329 479 tabread4~;
#X obj 331 451 *~;
#X obj 10 107 r \$0-set-table-l;
#X obj 13 143 r \$0-set-table-r;
#X obj 504 204 r \$0-reverse-offset;
#X obj 506 292 sig~;
#X obj 507 314 samphold~;
#X obj 504 265 == 0;
#X obj 255 299 *~;
#X obj 596 292 sig~;
#X obj 597 314 samphold~;
#X obj 416 302 sig~;
#X obj 417 324 samphold~;
#X connect 0 0 2 0;
#X connect 1 0 11 0;
#X connect 2 0 18 0;
#X connect 2 0 32 0;
#X connect 3 0 2 1;
#X connect 4 0 5 0;
#X connect 5 0 0 0;
#X connect 6 0 7 0;
#X connect 7 0 8 0;
#X connect 8 0 1 1;
#X connect 8 0 22 1;
#X connect 9 0 3 0;
#X connect 10 0 4 1;
#X connect 10 0 5 1;
#X connect 10 0 3 1;
#X connect 10 0 6 0;
#X connect 10 0 30 1;
#X connect 10 0 34 1;
#X connect 10 0 36 1;
#X connect 12 0 4 0;
#X connect 15 0 1 0;
#X connect 16 0 15 0;
#X connect 17 0 19 0;
#X connect 17 0 25 0;
#X connect 18 0 17 0;
#X connect 19 0 15 0;
#X connect 20 0 33 0;
#X connect 21 0 20 0;
#X connect 21 0 35 0;
#X connect 22 0 23 0;
#X connect 24 0 22 0;
#X connect 25 0 24 0;
#X connect 26 0 15 0;
#X connect 27 0 24 0;
#X connect 28 0 31 0;
#X connect 29 0 30 0;
#X connect 30 0 32 1;
#X connect 31 0 29 0;
#X connect 32 0 15 0;
#X connect 32 0 24 0;
#X connect 33 0 34 0;
#X connect 34 0 25 1;
#X connect 34 0 19 1;
#X connect 35 0 36 0;
#X connect 36 0 17 1;
#X restore 142 194 pd playsamp;
#X obj 331 206 u_dispatch \$0 speed;
#N canvas 304 87 854 691 playsamp_old 0;
#X obj 195 215 +~ 1;
#X obj 135 470 *~;
#X obj 200 249 +~;
#X obj 250 243 samphold~;
#X obj 195 143 samphold~;
#X obj 195 190 *~;
#X obj 360 228 -~ 0.5;
#X obj 360 252 *~ 0.5;
#X obj 360 275 cos~;
#X obj 249 68 inlet~;
#X obj 472 106 inlet~;
#X obj 136 497 outlet~;
#X obj 195 108 r \$0-chunk-size-samples;
#X text 253 47 read-pt;
#X text 471 75 phase;
#X obj 135 434 tabread4~;
#X obj 34 242 r \$0-set-table;
#X obj 186 308 +~;
#X obj 192 281 *~ -1;
#X obj 281 266 == 0;
#X obj 137 406 *~;
#X obj 365 339 != 0;
#X obj 197 359 *~ 1;
#X obj 508 238 r \$0-reverse-offset;
#X obj 273 470 *~;
#X obj 267 503 outlet~;
#X obj 269 438 tabread4~;
#X obj 271 410 *~;
#X obj 10 107 r \$0-set-table-l;
#X obj 13 143 r \$0-set-table-r;
#X connect 0 0 2 0;
#X connect 1 0 11 0;
#X connect 2 0 18 0;
#X connect 2 0 22 0;
#X connect 3 0 2 1;
#X connect 4 0 5 0;
#X connect 5 0 0 0;
#X connect 6 0 7 0;
#X connect 7 0 8 0;
#X connect 8 0 1 1;
#X connect 8 0 24 1;
#X connect 9 0 3 0;
#X connect 10 0 4 1;
#X connect 10 0 5 1;
#X connect 10 0 3 1;
#X connect 10 0 6 0;
#X connect 12 0 4 0;
#X connect 15 0 1 0;
#X connect 16 0 15 0;
#X connect 16 0 26 0;
#X connect 17 0 20 0;
#X connect 17 0 27 0;
#X connect 18 0 17 0;
#X connect 19 0 22 1;
#X connect 20 0 15 0;
#X connect 21 0 20 1;
#X connect 21 0 27 1;
#X connect 22 0 15 0;
#X connect 22 0 26 0;
#X connect 23 0 19 0;
#X connect 23 0 17 1;
#X connect 23 0 21 0;
#X connect 24 0 25 0;
#X connect 26 0 24 0;
#X connect 27 0 26 0;
#X connect 28 0 15 0;
#X connect 29 0 26 0;
#X restore 27 313 pd playsamp_old;
#N canvas 397 81 854 691 playsamp 0;
#X obj 195 215 +~ 1;
#X obj 181 498 *~;
#X obj 200 249 +~;
#X obj 250 243 samphold~;
#X obj 195 143 samphold~;
#X obj 195 190 *~;
#X obj 360 228 -~ 0.5;
#X obj 360 252 *~ 0.5;
#X obj 360 275 cos~;
#X obj 249 68 inlet~;
#X obj 472 106 inlet~;
#X obj 182 537 outlet~;
#X obj 195 108 r \$0-chunk-size-samples;
#X text 253 47 read-pt;
#X text 471 75 phase;
#X obj 181 474 tabread4~;
#X obj 83 244 r \$0-set-table;
#X obj 191 376 +~;
#X obj 192 281 *~ -1;
#X obj 183 446 *~;
#X obj 595 263 != 0;
#X obj 494 174 r \$0-reverse-offset;
#X obj 364 500 *~;
#X obj 365 539 outlet~;
#X obj 329 479 tabread4~;
#X obj 331 451 *~;
#X obj 10 107 r \$0-set-table-l;
#X obj 13 143 r \$0-set-table-r;
#X obj 504 204 r \$0-reverse-offset;
#X obj 506 292 sig~;
#X obj 507 314 samphold~;
#X obj 504 265 == 0;
#X obj 255 299 *~;
#X obj 596 292 sig~;
#X obj 597 314 samphold~;
#X obj 416 302 sig~;
#X obj 417 324 samphold~;
#X connect 0 0 2 0;
#X connect 1 0 11 0;
#X connect 2 0 18 0;
#X connect 2 0 32 0;
#X connect 3 0 2 1;
#X connect 4 0 5 0;
#X connect 5 0 0 0;
#X connect 6 0 7 0;
#X connect 7 0 8 0;
#X connect 8 0 1 1;
#X connect 8 0 22 1;
#X connect 9 0 3 0;
#X connect 10 0 4 1;
#X connect 10 0 5 1;
#X connect 10 0 3 1;
#X connect 10 0 6 0;
#X connect 10 0 30 1;
#X connect 10 0 34 1;
#X connect 10 0 36 1;
#X connect 12 0 4 0;
#X connect 15 0 1 0;
#X connect 16 0 15 0;
#X connect 17 0 19 0;
#X connect 17 0 25 0;
#X connect 18 0 17 0;
#X connect 19 0 15 0;
#X connect 20 0 33 0;
#X connect 21 0 20 0;
#X connect 21 0 35 0;
#X connect 22 0 23 0;
#X connect 24 0 22 0;
#X connect 25 0 24 0;
#X connect 26 0 15 0;
#X connect 27 0 24 0;
#X connect 28 0 31 0;
#X connect 29 0 30 0;
#X connect 30 0 32 1;
#X connect 31 0 29 0;
#X connect 32 0 15 0;
#X connect 32 0 24 0;
#X connect 33 0 34 0;
#X connect 34 0 25 1;
#X connect 34 0 19 1;
#X connect 35 0 36 0;
#X connect 36 0 17 1;
#X restore 32 194 pd playsamp;
#X connect 1 0 3 0;
#X connect 2 0 0 0;
#X connect 3 0 2 0;
#X connect 4 0 29 0;
#X connect 5 0 38 0;
#X connect 6 0 7 0;
#X connect 7 0 16 0;
#X connect 8 0 9 0;
#X connect 8 0 14 0;
#X connect 9 0 10 0;
#X connect 11 0 12 0;
#X connect 12 0 13 0;
#X connect 13 0 14 0;
#X connect 13 1 14 1;
#X connect 14 0 15 0;
#X connect 16 0 40 0;
#X connect 17 0 39 0;
#X connect 17 0 42 0;
#X connect 19 0 42 1;
#X connect 19 1 39 1;
#X connect 20 0 21 0;
#X connect 25 0 26 0;
#X connect 26 0 27 0;
#X connect 29 0 5 0;
#X connect 31 0 30 0;
#X connect 32 0 36 0;
#X connect 32 0 37 0;
#X connect 33 0 32 0;
#X connect 36 0 34 0;
#X connect 37 0 35 0;
#X connect 38 0 6 0;
#X connect 39 0 20 0;
#X connect 39 1 31 0;
#X connect 42 0 20 0;
#X connect 42 1 31 0;
