#N struct mappings float y symbol module_name symbol param_name float
ccnum float min float max symbol mapping;
#N struct 1175-symarray float x array symbols 1175-sym;
#N struct 1175-sym symbol name float on;
#N struct 1914-symarray float x array symbols 1914-sym;
#N struct 1914-sym symbol name float on;
#N struct 5140-symarray float x array symbols 5140-sym;
#N struct 5140-sym symbol name float on;
#N struct 5302-symarray float x array symbols 5302-sym;
#N struct 5302-sym symbol name float on;
#N struct 5597-symarray float x array symbols 5597-sym;
#N struct 5597-sym symbol name float on;
#N struct 5618-symarray float x array symbols 5618-sym;
#N struct 5618-sym symbol name float on;
#N struct 6820-symarray float x array symbols 6820-sym;
#N struct 6820-sym symbol name float on;
#N struct 7217-symarray float x array symbols 7217-sym;
#N struct 7217-sym symbol name float on;
#N struct 7218-symarray float x array symbols 7218-sym;
#N struct 7218-sym symbol name float on;
#N struct 7219-symarray float x array symbols 7219-sym;
#N struct 7219-sym symbol name float on;
#N struct 7400-symarray float x array symbols 7400-sym;
#N struct 7400-sym symbol name float on;
#N struct 7401-symarray float x array symbols 7401-sym;
#N struct 7401-sym symbol name float on;
#N struct 7402-symarray float x array symbols 7402-sym;
#N struct 7402-sym symbol name float on;
#N struct 7538-symarray float x array symbols 7538-sym;
#N struct 7538-sym symbol name float on;
#N struct text-help-struct float x float y text z;
#N canvas 920 64 389 384 12;
#X declare -stdpath extra/iemguts/;
#X declare -stdpath extra/iemlib/;
#X declare -stdpath extra/zexy/;
#X declare -stdpath extra/hcs/;
#X declare -path ressources/core/;
#X declare -path ressources/modules/;
#X declare -path ressources/rj/;
#X declare -path ressources/core/fid_abs_vanilia-0.4/;
#X declare -path D:/Programs/pd-0.47-1/extra;
#X declare -path D:/Programs/pd-0.47-1/extra/iemguts;
#N canvas 0 58 1326 625 stuff 0;
#X obj 100 100 bng 100 250 50 0 \$0-save empty SAVE 17 40 0 20 -258113
-1 -1;
#X obj 207 100 tgl 60 0 \$0-rackEdit \$0-rackEdit-rcv RACK_EDIT 3 30
0 10 -232576 -1 -1 0 1;
#N canvas 137 50 1199 655 midi-learn 0;
#X msg 148 294 showLastUsed \$1;
#X msg 181 239 0;
#X obj 18 295 route lastUsed;
#X obj 148 182 select 1 0;
#X msg 70 79 set 0;
#X obj 420 404 select -1;
#X obj 394 494 list append;
#X obj 417 426 t b b;
#X obj 605 499 t b f;
#X msg 685 514 -1;
#X obj 368 460 delay 1;
#X obj 743 492 loadbang;
#X msg 519 503 1e+006;
#X obj 512 237 s MIDI_CTL_IN;
#X obj 510 197 pack f f;
#X obj 508 172 swap;
#X obj 476 351 list append -1;
#X obj 423 320 t l l;
#X obj 20 317 list;
#X obj 22 349 t b l;
#X obj 148 260 t f b;
#X msg 632 290 -1;
#X obj 18 396 delay 30;
#X obj 423 381 text search midi-mapping;
#X obj 484 555 text set midi-mapping;
#X obj 164 534 text sequence midi-mapping;
#X obj 163 432 delay 10;
#X floatatom 147 115 5 0 0 0 CTL - -, f 5;
#X obj 295 220 == 0;
#X text 293 238 ne pas transmettre les midi ctl quand on est en mode
midilearn, f 21;
#X obj 510 218 spigot 1;
#X msg 166 501 line 0 \, step;
#X obj 130 621 delay 10;
#X msg 306 503 step;
#X obj 155 130 bng 30 250 50 0 empty empty refresh -17 22 0 10 -262144
-1 -1;
#X msg 17 433 clear;
#X msg 361 650 0;
#X obj 516 110 r CTLIN;
#X obj 153 578 t b l l;
#X obj 214 610 spigot;
#X msg 252 560 \$3;
#X obj 266 588 >= 0;
#X text 252 21 1 click "midilearn";
#X text 252 41 2 move midi ctrl;
#X text 252 61 3 click gui slider;
#X text 414 20 Pour supprimer une affectation \, sauter l'etape 2,
f 17;
#X obj 100 130 tgl 30 0 empty empty midi-learn 2 7 0 10 -262144 -1
-1 0 1;
#X obj 17 266 r RACK_ADMIN;
#X obj 147 318 s RACK_ADMIN;
#X text 22 203 couleur du mode midilearn -->, f 15;
#X msg 141 215 44, f 5;
#X obj 464 267 print MIDI_CTL_IN;
#N canvas 221 227 752 256 dynamic-ctl-assign 0;
#X obj 0 0 r MIDI_CTL_IN;
#X text 185 0 param;
#X text 282 -1 cc;
#X text 344 -1 val min;
#X text 434 -1 val max;
#X text 541 -1 scale log/lin;
#X text 654 -1 f.b.out;
#X obj 0 40 ctl-assign3 1;
#X obj 0 80 ctl-assign3 3;
#X obj 0 560 ctl-assign3 27;
#X obj 0 100 ctl-assign3 4;
#X obj 0 540 ctl-assign3 26;
#X obj 0 140 ctl-assign3 6;
#X obj 0 120 ctl-assign3 5;
#X obj 0 20 ctl-assign3 0;
#X obj 0 60 ctl-assign3 2;
#X obj 0 200 ctl-assign3 9;
#X obj 0 480 ctl-assign3 23;
#X obj 0 160 ctl-assign3 7;
#X obj 0 180 ctl-assign3 8;
#X obj 0 220 ctl-assign3 10;
#X obj 0 240 ctl-assign3 11;
#X obj 0 260 ctl-assign3 12;
#X obj 0 280 ctl-assign3 13;
#X obj 0 300 ctl-assign3 14;
#X obj 0 320 ctl-assign3 15;
#X obj 0 340 ctl-assign3 16;
#X obj 0 360 ctl-assign3 17;
#X obj 0 380 ctl-assign3 18;
#X obj 0 400 ctl-assign3 19;
#X obj 0 420 ctl-assign3 20;
#X obj 0 440 ctl-assign3 21;
#X obj 0 460 ctl-assign3 22;
#X obj 0 500 ctl-assign3 24;
#X obj 0 520 ctl-assign3 25;
#X obj 0 580 ctl-assign3 28;
#X obj 0 600 ctl-assign3 29;
#X obj 0 620 ctl-assign3 30;
#X obj 0 640 ctl-assign3 31;
#X obj 0 660 ctl-assign3 32;
#X obj 0 680 ctl-assign3 33;
#X obj 0 700 ctl-assign3 34;
#X obj 0 720 ctl-assign3 35;
#X obj 0 740 ctl-assign3 36;
#X obj 0 760 ctl-assign3 37;
#X obj 0 780 ctl-assign3 38;
#X obj 0 800 ctl-assign3 39;
#X obj 0 820 ctl-assign3 40;
#X obj 0 840 ctl-assign3 41;
#X obj 0 860 ctl-assign3 42;
#X obj 0 880 ctl-assign3 43;
#X obj 0 900 ctl-assign3 44;
#X obj 0 920 ctl-assign3 45;
#X obj 0 940 ctl-assign3 46;
#X obj 0 960 ctl-assign3 47;
#X obj 0 980 ctl-assign3 48;
#X obj 0 1000 ctl-assign3 49;
#X obj 0 1020 ctl-assign3 50;
#X obj 0 1040 ctl-assign3 51;
#X obj 0 1060 ctl-assign3 52;
#X obj 0 1080 ctl-assign3 53;
#X obj 0 1100 ctl-assign3 54;
#X obj 0 1120 ctl-assign3 55;
#X obj 0 1140 ctl-assign3 56;
#X obj 0 1160 ctl-assign3 57;
#X obj 0 1180 ctl-assign3 58;
#X obj 0 1200 ctl-assign3 59;
#X obj 0 1220 ctl-assign3 60;
#X obj 0 1240 ctl-assign3 61;
#X obj 0 1260 ctl-assign3 62;
#X obj 0 1280 ctl-assign3 63;
#X obj 0 1300 ctl-assign3 64;
#X obj 0 1320 ctl-assign3 65;
#X obj 0 1340 ctl-assign3 66;
#X obj 0 1360 ctl-assign3 67;
#X obj 0 1380 ctl-assign3 68;
#X obj 0 1400 ctl-assign3 69;
#X obj 0 1420 ctl-assign3 70;
#X obj 0 1440 ctl-assign3 71;
#X obj 0 1460 ctl-assign3 72;
#X obj 0 1480 ctl-assign3 73;
#X obj 0 1500 ctl-assign3 74;
#X obj 0 1520 ctl-assign3 75;
#X obj 0 1540 ctl-assign3 76;
#X obj 0 1560 ctl-assign3 77;
#X obj 0 1580 ctl-assign3 78;
#X obj 0 1600 ctl-assign3 79;
#X obj 0 1620 ctl-assign3 80;
#X obj 0 1640 ctl-assign3 81;
#X obj 0 1660 ctl-assign3 82;
#X obj 0 1680 ctl-assign3 83;
#X obj 0 1700 ctl-assign3 84;
#X obj 0 1720 ctl-assign3 85;
#X obj 0 1740 ctl-assign3 86;
#X obj 0 1760 ctl-assign3 87;
#X obj 0 1780 ctl-assign3 88;
#X obj 0 1800 ctl-assign3 89;
#X obj 0 1820 ctl-assign3 90;
#X obj 0 1840 ctl-assign3 91;
#X obj 0 1860 ctl-assign3 92;
#X obj 0 1880 ctl-assign3 93;
#X obj 0 1900 ctl-assign3 94;
#X obj 0 1920 ctl-assign3 95;
#X obj 0 1940 ctl-assign3 96;
#X obj 0 1960 ctl-assign3 97;
#X obj 0 1980 ctl-assign3 98;
#X obj 0 2000 ctl-assign3 99;
#X connect 0 0 14 0;
#X connect 7 0 15 0;
#X connect 8 0 10 0;
#X connect 9 0 35 0;
#X connect 10 0 13 0;
#X connect 11 0 9 0;
#X connect 12 0 18 0;
#X connect 13 0 12 0;
#X connect 14 0 7 0;
#X connect 15 0 8 0;
#X connect 16 0 20 0;
#X connect 17 0 33 0;
#X connect 18 0 19 0;
#X connect 19 0 16 0;
#X connect 20 0 21 0;
#X connect 21 0 22 0;
#X connect 22 0 23 0;
#X connect 23 0 24 0;
#X connect 24 0 25 0;
#X connect 25 0 26 0;
#X connect 26 0 27 0;
#X connect 27 0 28 0;
#X connect 28 0 29 0;
#X connect 29 0 30 0;
#X connect 30 0 31 0;
#X connect 31 0 32 0;
#X connect 32 0 17 0;
#X connect 33 0 34 0;
#X connect 34 0 11 0;
#X connect 35 0 36 0;
#X connect 36 0 37 0;
#X connect 37 0 38 0;
#X connect 38 0 39 0;
#X connect 39 0 40 0;
#X connect 40 0 41 0;
#X connect 41 0 42 0;
#X connect 42 0 43 0;
#X connect 43 0 44 0;
#X connect 44 0 45 0;
#X connect 45 0 46 0;
#X connect 46 0 47 0;
#X connect 47 0 48 0;
#X connect 48 0 49 0;
#X connect 49 0 50 0;
#X connect 50 0 51 0;
#X connect 51 0 52 0;
#X connect 52 0 53 0;
#X connect 53 0 54 0;
#X connect 54 0 55 0;
#X connect 55 0 56 0;
#X connect 56 0 57 0;
#X connect 57 0 58 0;
#X connect 58 0 59 0;
#X connect 59 0 60 0;
#X connect 60 0 61 0;
#X connect 61 0 62 0;
#X connect 62 0 63 0;
#X connect 63 0 64 0;
#X connect 64 0 65 0;
#X connect 65 0 66 0;
#X connect 66 0 67 0;
#X connect 67 0 68 0;
#X connect 68 0 69 0;
#X connect 69 0 70 0;
#X connect 70 0 71 0;
#X connect 71 0 72 0;
#X connect 72 0 73 0;
#X connect 73 0 74 0;
#X connect 74 0 75 0;
#X connect 75 0 76 0;
#X connect 76 0 77 0;
#X connect 77 0 78 0;
#X connect 78 0 79 0;
#X connect 79 0 80 0;
#X connect 80 0 81 0;
#X connect 81 0 82 0;
#X connect 82 0 83 0;
#X connect 83 0 84 0;
#X connect 84 0 85 0;
#X connect 85 0 86 0;
#X connect 86 0 87 0;
#X connect 87 0 88 0;
#X connect 88 0 89 0;
#X connect 89 0 90 0;
#X connect 90 0 91 0;
#X connect 91 0 92 0;
#X connect 92 0 93 0;
#X connect 93 0 94 0;
#X connect 94 0 95 0;
#X connect 95 0 96 0;
#X connect 96 0 97 0;
#X connect 97 0 98 0;
#X connect 98 0 99 0;
#X connect 99 0 100 0;
#X connect 100 0 101 0;
#X connect 101 0 102 0;
#X connect 102 0 103 0;
#X connect 103 0 104 0;
#X connect 104 0 105 0;
#X connect 105 0 106 0;
#X restore 643 76 pd dynamic-ctl-assign;
#N canvas 0 50 998 439 dynamic-ctl-assign3-populating 0;
#X obj 132 300 s pd-dynamic-ctl-assign;
#X obj 166 124 f;
#X obj 253 138 + 1;
#X msg 203 100 0;
#X obj 153 54 t f b;
#X obj 185 194 * 20;
#X obj 136 91 until;
#X obj 128 228 + 20;
#X msg 370 166 clear \, obj 0 0 r MIDI_CTL_IN;
#X obj 187 169 t f f f;
#X obj 191 227 pack f f f;
#X obj 249 201 + 1;
#X msg 191 249 obj 0 \$1 ctl-assign3 \$2 \, connect \$2 0 \$3 0;
#X obj 94 22 inlet;
#X obj 398 303 s pd-edit_midi_mappings;
#X connect 1 0 2 0;
#X connect 1 0 9 0;
#X connect 2 0 1 1;
#X connect 3 0 1 1;
#X connect 4 0 6 0;
#X connect 4 1 3 0;
#X connect 4 1 8 0;
#X connect 5 0 7 0;
#X connect 6 0 1 0;
#X connect 7 0 10 0;
#X connect 8 0 0 0;
#X connect 9 0 5 0;
#X connect 9 1 10 1;
#X connect 9 2 11 0;
#X connect 10 0 12 0;
#X connect 11 0 10 2;
#X connect 12 0 0 0;
#X connect 13 0 4 0;
#X restore 643 41 pd dynamic-ctl-assign3-populating;
#X obj 207 726 list append;
#X obj 228 698 t b f;
#X msg 262 752 symbol ctl-assign3-\$1;
#X obj 213 738 send;
#X obj 228 669 f;
#X obj 229 640 t b a;
#X obj 269 673 + 1;
#X obj -12 477 s ctl-assign3.GLOBAL;
#X msg 643 14 100;
#X text 824 77 <- stockage dynamique des affectations midi;
#X text 690 14 <- spécifier le nombre max d'affectations midi simultanées
;
#X text 643 167 le message showLastUsed <color> envoyé sur le canal
RACK_ADMIN est reçu par les modules midi-colors (pour chaque élément
gui). Dès qu'un élément gui est activé par la souris \, il renvoie
un message lastUsed sur ce même canal RACK_ADMIN \, et la liste midi-mapping
est mise à jour.;
#N canvas 0 50 808 472 sauvegarde_affectation_midi_dans_scènes 0;
#X obj 32 168 r RJ_SCENE_LOAD;
#X obj 488 20 r RJ_SCENE_SAVE;
#X obj 28 196 list trim;
#X obj 33 228 route ctl-assign;
#X obj 37 63 r RJ_SCENE_RELOAD;
#X obj 34 107 outlet;
#X msg 33 84 clear;
#X text 17 2 Chargement d'une scène :;
#X text 19 41 1) réinitialiser l'objet text define "midi-mapping"
;
#X text 12 137 2) insérer les lignes ctl-assign;
#X msg 145 314 -1;
#X obj 145 290 loadbang;
#X msg 79 293 1e+006;
#X obj 44 345 text set midi-mapping;
#X obj 44 266 t a b;
#X obj 40 306 list;
#X text 17 385 3) valider;
#X obj 169 186 t a b;
#X obj 210 218 delay 500;
#X obj 210 408 s \$0-refresh;
#X text 463 71 se fait à l'intérieur des modules ctl-assign3;
#X text 463 48 Sauvegarde d'une scène :;
#X connect 0 0 17 0;
#X connect 2 0 3 0;
#X connect 3 0 14 0;
#X connect 4 0 6 0;
#X connect 6 0 5 0;
#X connect 10 0 13 2;
#X connect 11 0 10 0;
#X connect 12 0 13 1;
#X connect 14 0 15 0;
#X connect 14 1 12 0;
#X connect 15 0 13 0;
#X connect 17 0 2 0;
#X connect 17 1 18 0;
#X connect 18 0 19 0;
#X restore 747 256 pd sauvegarde_affectation_midi_dans_scènes;
#X obj 747 282 outlet;
#X obj 90 364 r \$0-refresh;
#X obj 149 18 r MIDI_LEARN;
#X msg 192 58 set \$1;
#X obj 214 94 s MIDI_LEARN-rcv;
#X obj 410 72 change;
#N canvas 0 50 450 300 edit_midi_mappings 0;
#X restore 667 112 pd edit_midi_mappings;
#X obj 397 290 list split 2;
#N canvas 552 70 603 300 edition_mapping(experimental) 0;
#X text 18 11 ctln;
#X text 111 12 affectation;
#X text 252 10 minvalue;
#X text 350 12 maxvalue;
#N canvas 682 50 815 534 mappings 0;
#X text 444 140 module_name;
#X text 488 202 param_name;
#X obj 243 66 struct mappings float y symbol module_name symbol param_name
float ccnum float min float max symbol mapping;
#X obj 51 129 filledpolygon 840 0 3 0 0 100 0 100 20 0 20 0 0;
#X obj 52 156 drawsymbol module_name 2 2 0;
#X obj 71 509 filledpolygon 840 0 3 500 0 600 0 600 20 500 20 500 0
;
#X obj 71 548 drawsymbol mapping 502 2 0;
#X obj 108 72 print;
#X obj 54 206 filledpolygon 640 0 3 100 0 200 0 200 20 100 20 100 0
;
#X obj 52 236 drawsymbol param_name 102 2 0;
#X obj 51 279 filledpolygon 460 0 3 200 0 300 0 300 20 200 20 200 0
;
#X obj 51 318 drawnumber ccnum 202 2 0;
#X obj 61 359 filledpolygon 246 0 3 300 0 400 0 400 20 300 20 300 0
;
#X obj 62 386 drawnumber min 302 2 0;
#X obj 61 429 filledpolygon 428 0 3 400 0 500 0 500 20 400 20 400 0
;
#X obj 61 468 drawnumber max 402 2 0;
#X connect 2 0 7 0;
#X restore 180 108 pd mappings;
#N canvas 0 50 718 219 mappings_edit 0;
#X scalar mappings 76 fx_dubdel-2 del 42 289 3023 log \;;
#X text 18 23 module param cc min max type;
#X scalar mappings 146 fx_dubdel-2 wet 53 0 100 lin \;;
#X restore 349 134 pd mappings_edit;
#X msg 84 166 traverse pd-mappings_edit \, bang;
#X obj 108 199 pointer;
#X obj 59 241 append mappings y;
#X msg 31 208 10;
#X connect 6 0 7 0;
#X connect 7 0 8 1;
#X connect 9 0 8 0;
#X restore 935 381 pd edition_mapping(experimental);
#X obj 579 457 list append;
#X obj 255 327 r MIDI_MAPPING_REFRESH;
#X obj 919 126 r \$0-mappings;
#X msg 923 102 \; pd-dynamic-ctl-assign vis 1;
#X obj 163 455 text size midi-mapping;
#X obj 165 478 select 0;
#X obj 242 388 list split 2;
#X obj 255 361 t l l;
#X obj 513 143 unpack f f;
#X obj 397 86 t f f;
#X obj 456 98 mod 128;
#X obj 397 111 div 128;
#X obj 405 155 pack f f;
#X obj 397 136 + 1;
#X msg 335 194 label midi-learn(\$1:cc\$2);
#X obj 496 702 list prepend;
#X obj 496 727 print fromMidilearn;
#X connect 0 0 48 0;
#X connect 1 0 0 0;
#X connect 1 0 28 0;
#X connect 2 0 18 0;
#X connect 3 0 50 0;
#X connect 3 1 1 0;
#X connect 4 0 46 0;
#X connect 4 0 71 0;
#X connect 5 0 7 0;
#X connect 5 1 8 0;
#X connect 6 0 24 0;
#X connect 7 0 10 0;
#X connect 7 1 12 0;
#X connect 8 0 6 0;
#X connect 8 1 24 1;
#X connect 9 0 24 2;
#X connect 10 0 6 0;
#X connect 11 0 9 0;
#X connect 12 0 24 1;
#X connect 14 0 30 0;
#X connect 15 0 14 0;
#X connect 15 0 27 0;
#X connect 15 0 72 0;
#X connect 15 1 14 1;
#X connect 16 0 76 0;
#X connect 17 0 23 0;
#X connect 17 1 16 0;
#X connect 18 0 19 0;
#X connect 19 0 1 0;
#X connect 19 0 4 0;
#X connect 19 0 22 0;
#X connect 19 1 74 0;
#X connect 20 0 0 0;
#X connect 20 0 28 0;
#X connect 20 1 21 0;
#X connect 21 0 16 1;
#X connect 21 0 27 0;
#X connect 21 0 72 0;
#X connect 22 0 35 0;
#X connect 22 0 26 0;
#X connect 22 0 36 0;
#X connect 23 0 5 0;
#X connect 25 0 38 0;
#X connect 26 0 80 0;
#X connect 28 0 30 1;
#X connect 30 0 13 0;
#X connect 31 0 25 0;
#X connect 32 0 33 0;
#X connect 33 0 25 0;
#X connect 34 0 22 0;
#X connect 35 0 61 0;
#X connect 36 0 58 1;
#X connect 37 0 84 0;
#X connect 38 0 32 0;
#X connect 38 1 39 0;
#X connect 38 2 40 0;
#X connect 39 0 59 0;
#X connect 40 0 41 0;
#X connect 41 0 39 1;
#X connect 46 0 3 0;
#X connect 46 0 70 0;
#X connect 47 0 2 0;
#X connect 50 0 20 0;
#X connect 54 0 57 0;
#X connect 54 0 91 0;
#X connect 55 0 54 0;
#X connect 55 1 56 0;
#X connect 56 0 57 1;
#X connect 56 0 91 1;
#X connect 58 0 60 0;
#X connect 58 0 55 0;
#X connect 59 0 58 0;
#X connect 59 1 54 1;
#X connect 60 0 58 1;
#X connect 62 0 53 0;
#X connect 66 0 67 0;
#X connect 68 0 22 0;
#X connect 69 0 3 0;
#X connect 69 0 70 0;
#X connect 70 0 46 0;
#X connect 70 0 71 0;
#X connect 72 0 85 0;
#X connect 74 0 17 0;
#X connect 74 1 76 1;
#X connect 76 0 6 1;
#X connect 77 0 83 0;
#X connect 78 0 79 0;
#X connect 80 0 81 0;
#X connect 81 1 31 0;
#X connect 82 0 23 0;
#X connect 83 0 82 0;
#X connect 83 1 6 1;
#X connect 84 0 15 0;
#X connect 84 1 15 1;
#X connect 84 1 16 1;
#X connect 85 0 87 0;
#X connect 85 1 86 0;
#X connect 86 0 88 1;
#X connect 87 0 89 0;
#X connect 88 0 90 0;
#X connect 89 0 88 0;
#X connect 90 0 71 0;
#X connect 91 0 92 0;
#X coords 0 -1 1 1 85 60 1 100 100;
#X restore 103 216 pd midi-learn;
#X obj 103 313 text define -k midi-mapping;
#A set;
#X obj 277 100 tgl 60 0 \$0-conduiteEdit empty CONDUITE_EDIT 3 30 0
10 -260097 -1 -1 0 1;
#X obj 291 176 bng 15 50 30 0 empty empty note_in 17 7 0 10 -262144
-1 -1;
#X msg 978 298 delete_all;
#X obj 978 344 s RACK_ADMIN;
#X msg 990 322 delete_inactive;
#X obj 264 2 notein;
#X obj 270 29 spigot;
#N canvas 0 50 607 453 declare 0;
#X obj 65 248 declare -stdpath extra/iemguts/;
#X obj 65 268 declare -stdpath extra/iemlib/;
#X obj 64 293 declare -stdpath extra/zexy/;
#X obj 60 318 declare -stdpath extra/hcs/;
#X obj 66 111 declare -path ressources/core/;
#X obj 66 131 declare -path ressources/modules/;
#X obj 65 153 declare -path ressources/rj/;
#X obj 64 175 declare -path ressources/core/fid_abs_vanilia-0.4/;
#X restore 475 130 pd declare;
#N canvas 0 50 1366 685 rack 1;
#X obj -9 70 cnv 1 808 730 empty grid empty 20 12 0 14 -228856 -66577
0;
#X obj 1224 628 s ACTION;
#N canvas 55 181 1125 537 GO 0;
#X obj 73 14 receivecanvas 1;
#X obj 80 148 unpack f f;
#X obj 83 204 / 200;
#X obj 173 176 / 80;
#X obj 105 231 int;
#X obj 249 200 int;
#X obj 125 261 * 10;
#X obj 273 249 +;
#X obj 88 88 spigot 1;
#X obj 88 119 t l b;
#X msg 300 125 0;
#X obj 73 36 route mouse mouseup;
#X msg 149 63 1;
#X obj 273 271 s GO;
#X obj 11 190 moses 801;
#X obj 205 237 > 0;
#X obj 179 278 spigot;
#N canvas 161 56 937 567 scene_recall 0;
#X obj 461 271 int;
#X msg 481 306 label p.\$1;
#X obj 488 342 s \$0-get_preset-rcv;
#X obj 212 356 r \$0-prev;
#X obj 209 394 bng 15 250 50 0 empty empty empty 17 7 0 10 -262144
-1 -1;
#X obj 302 356 r \$0-next;
#X obj 387 273 +;
#X msg 361 203 1;
#X obj 397 316 max 0;
#X msg 289 424 -1;
#X obj 410 361 * 40;
#X obj 459 209 - 15;
#X obj 465 235 / 40;
#X obj 428 399 + 15;
#X msg 440 443 set \$1;
#X obj 317 23 pgmin 17;
#X text 426 14 Gestion scenes;
#X msg 6 541 editmode 0 \, mouse 50 \$1 0 0 \, mouseup 50 \$1 0;
#X obj 42 511 f;
#X obj 29 409 delay 20;
#X obj 312 75 t b f;
#X obj -85 320 r \$0-get_preset;
#X obj -84 345 t b;
#X obj -75 376 delay 20;
#X msg 289 499 vis 1;
#X obj 358 446 delay 20;
#X obj 371 411 t b;
#X obj 400 76 r SCENE-pos;
#X obj 526 443 s SCENE-pos;
#X obj 435 483 s SCENE-pos-rcv;
#X obj 71 470 r SCENE-pos;
#X obj 542 250 + 0.5;
#X obj 700 361 * 40;
#X obj 718 399 + 15;
#X msg 692 446 pos 0 \$1;
#X obj 690 472 s ducon;
#X obj -66 443 delay 40;
#X obj 89 76 r CTLIN;
#X msg 100 142 \$2 \$1;
#X obj 85 206 select 127;
#X floatatom 51 182 5 0 0 0 - - -, f 5;
#X obj 115 174 route 2095 2090;
#X text 69 41 su10 comme switch controler;
#X obj 175 216 select 127;
#X obj 85 231 t b b;
#X obj 175 241 t b b;
#X obj -53 260 r \$0-save;
#X obj 265 153 r PREV;
#X obj 201 122 r NEXT;
#X obj 28 573 s pd-conduite;
#X connect 0 0 1 0;
#X connect 0 0 6 1;
#X connect 0 0 32 0;
#X connect 1 0 2 0;
#X connect 3 0 4 0;
#X connect 3 0 9 0;
#X connect 5 0 7 0;
#X connect 6 0 8 0;
#X connect 7 0 6 0;
#X connect 8 0 0 0;
#X connect 8 0 10 0;
#X connect 8 0 26 0;
#X connect 9 0 6 0;
#X connect 10 0 13 0;
#X connect 11 0 12 0;
#X connect 12 0 31 0;
#X connect 13 0 14 0;
#X connect 13 0 28 0;
#X connect 14 0 29 0;
#X connect 15 0 20 0;
#X connect 17 0 49 0;
#X connect 18 0 17 0;
#X connect 19 0 18 0;
#X connect 20 0 23 0;
#X connect 20 1 8 0;
#X connect 21 0 22 0;
#X connect 22 0 23 0;
#X connect 23 0 19 0;
#X connect 23 0 36 0;
#X connect 24 0 49 0;
#X connect 25 0 24 0;
#X connect 26 0 25 0;
#X connect 27 0 11 0;
#X connect 30 0 18 1;
#X connect 31 0 0 0;
#X connect 32 0 33 0;
#X connect 33 0 14 0;
#X connect 33 0 34 0;
#X connect 34 0 35 0;
#X connect 36 0 24 0;
#X connect 37 0 38 0;
#X connect 38 0 40 0;
#X connect 38 0 41 0;
#X connect 39 0 44 0;
#X connect 41 0 39 0;
#X connect 41 1 43 0;
#X connect 43 0 45 0;
#X connect 44 0 19 0;
#X connect 44 1 7 0;
#X connect 45 0 19 0;
#X connect 45 1 9 0;
#X connect 46 0 36 0;
#X connect 47 0 45 0;
#X connect 48 0 44 0;
#X restore 475 38 pd scene_recall;
#X connect 0 0 11 0;
#X connect 1 0 14 0;
#X connect 1 1 3 0;
#X connect 2 0 4 0;
#X connect 3 0 5 0;
#X connect 4 0 6 0;
#X connect 5 0 7 1;
#X connect 5 0 15 0;
#X connect 6 0 16 0;
#X connect 7 0 13 0;
#X connect 8 0 9 0;
#X connect 9 0 1 0;
#X connect 9 1 10 0;
#X connect 10 0 8 1;
#X connect 11 0 8 0;
#X connect 11 1 12 0;
#X connect 12 0 8 1;
#X connect 14 0 2 0;
#X connect 15 0 16 1;
#X connect 16 0 7 0;
#X restore 1090 506 pd GO;
#X obj 177 24 cnv 15 400 40 empty COMMAND-rcv (1:4) 2 20 0 35 -261682
-66577 0;
#X obj 1089 611 bng 30 250 50 0 empty REFRESH_CONNEXIONS Refresh_Connexions
32 7 0 10 -262144 -1 -1;
#X obj 283 2 tgl 30 1 INSERT_MODE empty INSERT_MODE 32 7 0 10 -262144
-1 -1 1 1;
#N canvas 637 72 547 472 todo 0;
#X msg 354 236 fx_graindelay;
#X msg 354 264 fx_granulator;
#X msg 359 306 fx_lop;
#X msg 347 184 fx_multiband;
#X msg 353 210 fx_reverb;
#X msg 344 155 fx_sub;
#X msg 57 406 midi_pattern;
#X text 57 287 livre;
#X text 60 310 graphics;
#X text 371 409 etc....;
#X text 92 11 stereo_inlet~ déconnexion quand switch~ == 0;
#X msg 143 286 inst_pvoc;
#X text 142 316 inst_upic;
#X text 410 153 -> module d'analyse;
#X text 35 63 vérifier les connexions wet / c_xfade dans tous les
modules;
#X text 38 88 vérifier compatibilité avec samplerate autres que 44100
;
#X text 33 139 feedback visuel toogles;
#X text 33 167 réfléchir à implémenter mode trigger / toogle pour
la commande de toogles, f 32;
#X restore 1092 554 pd todo;
#X obj 6 -3 bng 40 250 50 0 \$0-prev empty << 5 20 0 25 -262144 -1
-1;
#X obj 46 -3 bng 40 250 50 0 \$0-next empty >> 5 20 0 25 -262144 -1
-1;
#X obj 9 37 hsl 90 30 0 127 0 0 \$0-get_preset \$0-get_preset-rcv p.15
20 20 0 20 -204786 -204786 -1 0 1;
#X obj 1062 77 tgl 15 0 \$0-video \$0-video-rcv video 17 7 0 10 -262144
-1 -1 0 1;
#X obj 897 168 hsl 100 100 0 127 0 0 empty empty empty -2 -8 0 10 -261682
-261682 -261682 0 1;
#X msg 895 270 vis 1;
#X msg 1224 532 remove;
#X text 899 231 CLIQUER ICI;
#N canvas 0 50 450 300 mesure_latence 0;
#N canvas 0 50 576 577 latence 0;
#X obj 83 224 delay 2000;
#X obj 324 303 line~;
#X obj 275 357 *~;
#X obj 251 331 osc~ 3000;
#X obj 177 145 spigot;
#X obj 93 247 t b b b;
#X msg 246 112 1;
#X obj 174 183 t b b;
#X msg 268 145 0;
#X obj 63 296 timer;
#X obj 78 44 bp~ 3000 100;
#X obj 159 109 bng 15 250 50 0 empty empty empty 17 7 0 10 -262144
-1 -1;
#X obj 86 14 inlet~;
#X msg 211 37 set 0.001 200 0.0008 100;
#X obj 174 83 threshold~ 0.01 200 0.008 100;
#X msg 312 276 1 \, 0 30;
#X obj 58 199 t b;
#X obj 36 341 s LATENCY;
#X msg 161 340 set \$1;
#X obj 76 371 s LATENCY-rcv;
#X msg 144 483 BIP;
#X obj 28 124 inlet;
#X obj 257 393 outlet~;
#X obj 97 524 symbol;
#X obj 97 549 outlet;
#X msg 52 446 Attendre_SVP...;
#X msg 221 496 LATENCE=\$1;
#X connect 0 0 5 0;
#X connect 1 0 2 1;
#X connect 2 0 22 0;
#X connect 3 0 2 0;
#X connect 4 0 7 0;
#X connect 5 0 9 0;
#X connect 5 1 15 0;
#X connect 5 2 6 0;
#X connect 5 2 20 0;
#X connect 6 0 4 1;
#X connect 7 0 9 1;
#X connect 7 1 8 0;
#X connect 8 0 4 1;
#X connect 9 0 17 0;
#X connect 9 0 18 0;
#X connect 9 0 26 0;
#X connect 10 0 14 0;
#X connect 12 0 10 0;
#X connect 13 0 14 0;
#X connect 14 0 4 0;
#X connect 14 0 11 0;
#X connect 15 0 1 0;
#X connect 16 0 0 0;
#X connect 16 0 25 0;
#X connect 18 0 19 0;
#X connect 20 0 23 0;
#X connect 21 0 16 0;
#X connect 23 0 24 0;
#X connect 25 0 23 0;
#X connect 26 0 23 0;
#X restore 143 185 pd latence;
#X obj 101 103 bng 15 250 50 0 empty empty empty 17 7 0 10 -262144
-1 -1;
#X obj 225 157 adc~;
#X obj 230 227 dac~;
#X obj 221 101 nbx 5 14 0 200 0 1 LATENCY LATENCY-rcv LATENCY(ms) -70
7 0 10 -262144 -1 -1 12 256;
#X obj 154 118 cnv 15 120 20 empty latence-rcv LATENCE=27.3923 2 12
0 12 -233017 -66577 0;
#X msg 130 212 label \$1;
#X obj 130 237 s latence-rcv;
#X connect 0 0 6 0;
#X connect 0 1 3 0;
#X connect 0 1 3 1;
#X connect 1 0 0 0;
#X connect 2 0 0 1;
#X connect 2 1 0 1;
#X connect 6 0 7 0;
#X coords 0 -1 1 1 180 40 2 100 100;
#X restore 818 115 pd mesure_latence;
#X msg 1224 512 help;
#N canvas 333 50 885 605 video_subprocess 0;
#X msg 155 108 pd~ stop;
#X msg 265 213 gemwin destroy;
#X obj 98 245 r TO_VIDEO;
#X obj 347 8 r \$0-video;
#X obj 347 33 change;
#X obj 351 56 select 0 1;
#X obj 183 86 delay 500;
#X obj 406 214 delay 6000;
#X obj 95 395 list trim;
#X obj 95 420 route send;
#X obj 129 451 list split 1;
#X obj 138 486 t b s;
#X obj 155 518 list append;
#X obj 155 546 list trim;
#X obj 155 571 s;
#X obj 99 271 list trim;
#X msg 177 148 pd~ start -nogui ressources/modules/videoSession/videoSession.pd
, f 62;
#X obj 137 330 pd~ -ninsig 0 -noutsig 0;
#X msg 405 241 gemwin reset \, gemwin dimen 640 480 \, gemwin create
\, gemwin 1 \, pd dsp 0;
#X obj 271 370 r TO_AUDIO_SESSION;
#X text 428 371 dans le cas d'une utilisation dans le même thread
;
#X obj 283 288 s TO_VIDEO;
#X connect 0 0 17 0;
#X connect 1 0 21 0;
#X connect 2 0 15 0;
#X connect 3 0 4 0;
#X connect 4 0 5 0;
#X connect 5 0 1 0;
#X connect 5 0 6 0;
#X connect 5 1 16 0;
#X connect 5 1 7 0;
#X connect 6 0 0 0;
#X connect 7 0 18 0;
#X connect 8 0 9 0;
#X connect 9 0 10 0;
#X connect 10 0 11 0;
#X connect 10 1 12 1;
#X connect 11 0 12 0;
#X connect 11 1 14 1;
#X connect 12 0 13 0;
#X connect 13 0 14 0;
#X connect 15 0 17 0;
#X connect 16 0 17 0;
#X connect 17 0 8 0;
#X connect 18 0 21 0;
#X connect 19 0 8 0;
#X restore 1095 418 pd video_subprocess;
#X obj 821 80 u_loadmeter;
#N canvas 542 50 810 621 setFocus/help 0;
#X obj 251 82 unpack f f;
#X obj 255 119 / 200;
#X obj 325 118 / 80;
#X obj 248 8 receivecanvas 1;
#X obj 255 144 int;
#X obj 325 143 int;
#X obj 255 169 * 10;
#X obj 255 194 +;
#X obj 411 78 route 2;
#X obj 423 105 unpack f f;
#X obj 425 130 / 200;
#X obj 498 132 / 80;
#X obj 428 155 int;
#X obj 498 154 int;
#X obj 465 186 * 10;
#X obj 465 211 +;
#X obj 462 288 select 0;
#X obj 462 266 tabread SLOTS_MAP;
#X obj 635 76 hcs/folder_list;
#X obj 635 101 spigot 1;
#X obj 634 153 t s b;
#X msg 687 195 0;
#X obj 605 275 iemlib/splitfilename /;
#X obj 538 316 pack f s;
#X obj 628 24 loadbang;
#X obj 589 84 bng 15 250 50 0 empty empty empty 17 7 0 10 -262144 -1
-1;
#X obj 535 229 r HELP;
#X msg 528 347 \; \$1-channel help symbol \$2/ressources/modules/;
#X obj 171 244 s HELP;
#X obj 162 212 f;
#X obj 160 183 t b;
#X obj 92 222 f;
#X obj 90 193 t b;
#X obj 83 249 s REMOVE;
#N canvas 1 50 1315 674 ADD/INSERT 0;
#X msg 276 142 fx_parameq2;
#X msg 753 298 PdRacks.presets;
#X msg 276 422 fx_compressor;
#X msg 276 265 fx_chorus;
#X msg 276 285 fx_dubdel;
#X msg 276 82 fx_hip;
#X msg 276 192 fx_ring;
#X msg 276 375 fx_freeverb;
#X msg 276 442 fx_dynproc;
#X msg 276 102 fx_filter;
#X msg 276 212 fx_freqshift;
#X msg 276 232 fx_pitchshift;
#X msg 276 355 fx_resonator;
#X msg 276 62 fx_lop;
#X msg 276 42 fx_lowhip;
#X msg 276 305 fx_dubdel2;
#X msg 276 469 fx_sub;
#X msg 276 325 fx_reverse;
#X msg 276 395 fx_everb;
#X msg 276 162 fx_eq3;
#X msg 276 122 fx_parameq;
#X msg 46 263 inst_sampler;
#X msg 46 283 inst_turntable;
#X msg 46 223 inst_8bits;
#X msg 46 243 inst_rhodey;
#X msg 46 163 inst_soundfile;
#X msg 46 143 inst_headrush;
#X msg 46 183 inst_tabosc;
#X msg 46 203 inst_bassdrum;
#X msg 46 93 inst_modular;
#X msg 484 51 audio_in;
#X msg 484 71 audio_out;
#X msg 484 91 audio_record;
#X msg 484 111 audio_features;
#X msg 484 456 data_wintablet;
#X msg 484 436 data_fidtouch;
#X msg 484 476 data_fidcontrol;
#X msg 484 496 data_feuilleA4;
#X msg 484 260 data_azerty2midi;
#X msg 739 71 midi_arpeggiator;
#X msg 739 91 note_randomize;
#X msg 739 111 note_2param;
#X msg 753 278 PdRacks.morphing;
#X msg 753 258 PdRacks.transport;
#X obj 46 521 s ADD;
#X obj 276 564 s ADD;
#X obj 484 538 s ADD;
#X obj 484 158 s ADD;
#X obj 739 201 s ADD;
#X obj 753 342 s ADD;
#X msg 92 451 cancel;
#X text 39 30 INSTRUMENTS;
#X text 265 7 AUDIO EFFECTS;
#X text 477 15 IN OUT;
#X msg 484 280 note_16steps;
#X msg 484 300 data_upic;
#X obj 484 358 s ADD;
#X text 486 226 MIDI NOTE GENERATORS;
#X text 731 30 MIDI FILTERS;
#X text 485 403 DATA CONTROL;
#X text 72 422 CLOSE THIS WINDOW;
#X text 749 226 GLOBAL;
#X msg 276 523 fx_bitcrush;
#X msg 46 303 inst_euclidrums;
#X msg 484 326 midi_notein;
#X msg 739 144 note_interpolations;
#X msg 89 356 inst_pcm;
#X msg 739 170 note_interpol;
#X msg 276 499 fx_formant;
#X connect 0 0 45 0;
#X connect 1 0 49 0;
#X connect 2 0 45 0;
#X connect 3 0 45 0;
#X connect 4 0 45 0;
#X connect 5 0 45 0;
#X connect 6 0 45 0;
#X connect 7 0 45 0;
#X connect 8 0 45 0;
#X connect 9 0 45 0;
#X connect 10 0 45 0;
#X connect 11 0 45 0;
#X connect 12 0 45 0;
#X connect 13 0 45 0;
#X connect 14 0 45 0;
#X connect 15 0 45 0;
#X connect 16 0 45 0;
#X connect 17 0 45 0;
#X connect 18 0 45 0;
#X connect 19 0 45 0;
#X connect 20 0 45 0;
#X connect 21 0 44 0;
#X connect 22 0 44 0;
#X connect 23 0 44 0;
#X connect 24 0 44 0;
#X connect 25 0 44 0;
#X connect 26 0 44 0;
#X connect 27 0 44 0;
#X connect 28 0 44 0;
#X connect 29 0 44 0;
#X connect 30 0 47 0;
#X connect 31 0 47 0;
#X connect 32 0 47 0;
#X connect 33 0 47 0;
#X connect 34 0 46 0;
#X connect 35 0 46 0;
#X connect 36 0 46 0;
#X connect 37 0 46 0;
#X connect 38 0 56 0;
#X connect 39 0 48 0;
#X connect 40 0 48 0;
#X connect 41 0 48 0;
#X connect 42 0 49 0;
#X connect 43 0 49 0;
#X connect 50 0 44 0;
#X connect 54 0 56 0;
#X connect 55 0 56 0;
#X connect 62 0 45 0;
#X connect 63 0 44 0;
#X connect 64 0 56 0;
#X connect 65 0 48 0;
#X connect 66 0 44 0;
#X connect 67 0 48 0;
#X connect 68 0 45 0;
#X restore 35 339 pd ADD/INSERT;
#X msg 42 295 \; pd-ADD/INSERT vis 1;
#X obj 49 382 r ADD;
#X obj 65 579 s INSERT;
#X obj 83 476 pack s f;
#X obj 49 407 route cancel;
#X obj 97 446 symbol;
#X msg 64 552 \$2 \$1;
#X msg 162 555 \; pd-ADD/INSERT vis 0;
#X obj 252 273 s \$0-current_slot;
#X obj 114 99 r \$0-current_slot;
#X obj 202 411 r \$0-current_slot;
#X text 430 34 menu contextuel help;
#N canvas 0 50 450 300 messages'hasfocus' 0;
#X obj 48 95 tabread SLOTS_MAP;
#X obj 24 150 t f f b;
#X obj 48 220 f;
#X obj 36 269 t b f;
#X obj 56 125 change;
#X msg 72 308 symbol \$1-hasFocus;
#X msg 36 294 0;
#X obj 37 334 send;
#X obj 246 169 t b f;
#X msg 282 208 symbol \$1-hasFocus;
#X obj 247 234 send;
#X msg 246 194 1;
#X obj 29 67 r \$0-current_slot;
#X connect 0 0 4 0;
#X connect 1 0 2 1;
#X connect 1 1 8 0;
#X connect 1 2 2 0;
#X connect 2 0 3 0;
#X connect 3 0 6 0;
#X connect 3 1 5 0;
#X connect 4 0 1 0;
#X connect 5 0 7 1;
#X connect 6 0 7 0;
#X connect 8 0 11 0;
#X connect 8 1 9 0;
#X connect 9 0 10 1;
#X connect 11 0 10 0;
#X connect 12 0 0 0;
#X restore 323 331 pd messages'hasfocus';
#X obj 182 518 s \$0-current_slot;
#X obj 182 487 +;
#X obj 86 522 t l b b;
#X msg 180 457 1;
#X obj 378 577 s COMMAND-rcv;
#X obj 368 374 r \$0-current_slot;
#X obj 374 444 t f f;
#X obj 378 509 pack f f;
#X msg 376 541 label (\$1:\$2);
#X obj 378 484 div 10;
#X obj 497 479 mod 10;
#X obj 593 405 * 200;
#X obj 675 403 * 80;
#X obj 586 516 pack f f;
#X obj 556 571 s \$0-focus_canvas;
#X msg 586 541 pos \$1 \$2;
#X obj 592 433 - 5;
#X obj 675 428 - 5;
#N canvas 0 50 520 425 arrow_keys 0;
#X obj 141 66 inlet;
#X obj 154 116 select Up Down Left Right;
#X obj 392 119 r \$0-current_slot;
#X obj 331 204 +;
#X obj 160 250 moses 1;
#X obj 155 331 s \$0-current_slot;
#X msg 210 161 1;
#X msg 330 162 10;
#X msg 153 159 -1;
#X msg 256 157 -10;
#X obj 117 143 bng 15 250 50 0 empty empty empty 17 7 0 10 -262144
-1 -1;
#X obj 216 291 select 10 20 30;
#X obj 160 225 moses 40;
#X connect 0 0 1 0;
#X connect 0 0 10 0;
#X connect 1 0 8 0;
#X connect 1 1 6 0;
#X connect 1 2 9 0;
#X connect 1 3 7 0;
#X connect 2 0 3 1;
#X connect 3 0 12 0;
#X connect 4 1 11 0;
#X connect 6 0 3 0;
#X connect 7 0 3 0;
#X connect 8 0 3 0;
#X connect 9 0 3 0;
#X connect 11 3 5 0;
#X connect 12 0 4 0;
#X restore 211 329 pd arrow_keys;
#X obj 246 29 route mouse key;
#X obj 33 36 route 1;
#X obj 28 82 list split 1;
#X obj 25 113 select 127;
#X obj 16 144 select Insert F1;
#X obj 310 220 moses 1;
#X obj 266 244 select 10 20 30;
#X obj 310 195 moses 40;
#X obj 383 400 moses 40;
#X obj 128 6 r \$0-INS;
#X obj 138 36 r \$0-DEL;
#X obj 148 66 r \$0-HELP;
#X obj 420 56 route done-popup zoom;
#X obj 531 91 s ZOOM;
#X obj 733 412 r ZOOM;
#X obj 592 493 * 1;
#X obj 675 488 * 1;
#X obj 733 437 t b f b f;
#X connect 0 0 1 0;
#X connect 0 1 2 0;
#X connect 1 0 4 0;
#X connect 2 0 5 0;
#X connect 3 0 67 0;
#X connect 4 0 6 0;
#X connect 5 0 7 1;
#X connect 6 0 7 0;
#X connect 7 0 74 0;
#X connect 8 0 9 0;
#X connect 9 0 10 0;
#X connect 9 1 11 0;
#X connect 10 0 12 0;
#X connect 11 0 13 0;
#X connect 12 0 14 0;
#X connect 13 0 15 1;
#X connect 14 0 15 0;
#X connect 15 0 17 0;
#X connect 16 1 23 0;
#X connect 17 0 16 0;
#X connect 18 0 19 0;
#X connect 19 0 20 0;
#X connect 20 0 22 0;
#X connect 20 1 21 0;
#X connect 21 0 19 1;
#X connect 22 0 23 1;
#X connect 23 0 27 0;
#X connect 24 0 18 0;
#X connect 25 0 18 0;
#X connect 26 0 17 0;
#X connect 29 0 28 0;
#X connect 30 0 29 0;
#X connect 31 0 33 0;
#X connect 32 0 31 0;
#X connect 36 0 39 0;
#X connect 38 0 50 0;
#X connect 39 0 42 0;
#X connect 39 1 40 0;
#X connect 40 0 38 0;
#X connect 41 0 37 0;
#X connect 44 0 31 1;
#X connect 44 0 29 1;
#X connect 45 0 38 1;
#X connect 45 0 49 1;
#X connect 49 0 48 0;
#X connect 50 0 41 0;
#X connect 50 1 42 0;
#X connect 50 2 51 0;
#X connect 51 0 49 0;
#X connect 53 0 75 0;
#X connect 54 0 57 0;
#X connect 54 1 58 0;
#X connect 55 0 56 0;
#X connect 56 0 52 0;
#X connect 57 0 55 0;
#X connect 57 0 59 0;
#X connect 58 0 55 1;
#X connect 58 0 60 0;
#X connect 59 0 64 0;
#X connect 60 0 65 0;
#X connect 61 0 63 0;
#X connect 63 0 62 0;
#X connect 64 0 82 0;
#X connect 65 0 83 0;
#X connect 67 0 0 0;
#X connect 67 1 68 0;
#X connect 67 2 79 0;
#X connect 68 0 69 0;
#X connect 69 0 70 0;
#X connect 70 0 32 0;
#X connect 70 1 71 0;
#X connect 71 0 35 0;
#X connect 71 1 30 0;
#X connect 71 2 66 0;
#X connect 72 1 73 0;
#X connect 73 3 43 0;
#X connect 74 0 72 0;
#X connect 75 0 54 0;
#X connect 76 0 35 0;
#X connect 77 0 32 0;
#X connect 78 0 30 0;
#X connect 79 0 8 0;
#X connect 79 1 80 0;
#X connect 81 0 84 0;
#X connect 82 0 61 0;
#X connect 83 0 61 1;
#X connect 84 0 82 0;
#X connect 84 1 82 1;
#X connect 84 2 83 0;
#X connect 84 3 83 1;
#X restore 1088 581 pd setFocus/help;
#X text 897 188 CONDUITE SCENES, f 12;
#X msg 1224 579 focus;
#N canvas 689 74 450 300 remote 0;
#X obj 104 7 r REMOTE;
#X obj 105 56 print REMOTE;
#X obj 104 30 spigot;
#X obj 191 9 tgl 15 0 empty empty empty 17 7 0 10 -262144 -1 -1 0 1
;
#X text 75 114 l'idée est de transmettre tous les parametres du module
on focus à une tablette remote client;
#X connect 0 0 2 0;
#X connect 2 0 1 0;
#X connect 3 0 2 1;
#X restore 1091 528 pd remote;
#X obj 963 75 bng 50 250 50 0 RESET empty RESET 17 7 0 10 -262144 -1
-1;
#X obj 418 1 bng 30 250 50 0 \$0-INS empty INS 5 14 0 12 -257985 -1
-1;
#X obj 449 1 bng 30 250 50 0 \$0-DEL empty DEL 5 14 0 12 -1 -262144
-258113;
#X obj 108 3 bng 60 250 50 0 \$0-save empty SAVE 5 30 0 20 -258113
-1 -1;
#X obj 175 59 cnv 15 600 20 empty COMMAND-HELP-rcv empty 2 8 0 16 -261682
-66577 0;
#X obj 387 1 bng 30 250 50 0 \$0-HELP empty HELP 1 14 0 12 -13381 -4034
-4034;
#X obj 684 0 tgl 30 0 MIDI_LEARN MIDI_LEARN-rcv midi-learn(1:cc20)
2 7 0 10 -262144 -1 -1 0 1;
#X obj 724 17 bng 30 250 50 0 \$0-mappings empty Mappings... 17 7 0
10 -262144 -1 -1;
#N canvas 644 127 656 229 midi_devices 0;
#X obj 307 12 bng 20 250 50 0 empty empty REFRESH 22 7 0 10 -262144
-1 -1;
#X text 111 13 MIDI IN;
#X text 433 15 MIDI OUT;
#N canvas 0 50 1050 625 stuff 0;
#X obj 14 175 loadbang;
#N canvas 0 50 656 300 midi-devices-parsing 0;
#X obj 37 37 inlet;
#X obj 121 169 mediasettings/midisettings;
#X obj 121 194 route devicelist;
#X obj 121 219 route in out;
#X obj 283 115 t b b;
#X obj 121 244 route float;
#X obj 203 274 list;
#X msg 203 299 \$2 \$1;
#X obj 291 244 route float;
#X obj 97 474 text define midi-in;
#X obj 315 476 text define midi-out;
#X obj 210 398 text set midi-in;
#X msg 257 362 1e+006;
#X obj 216 328 t l b;
#X msg 373 299 \$2 \$1;
#X msg 427 362 1e+006;
#X obj 386 328 t l b;
#X obj 380 398 text set midi-out;
#X msg 343 147 clear;
#X obj 373 274 list;
#X msg 103 340 \; \$2-midi-in \$1;
#X msg 73 360 \; \$2-midi-out \$1;
#X msg 372 102 \; midi-in-global clear \; midi-out-global clear;
#X obj 295 37 inlet;
#X connect 0 0 4 0;
#X connect 1 0 2 0;
#X connect 2 0 3 0;
#X connect 3 0 5 0;
#X connect 3 1 8 0;
#X connect 4 0 1 0;
#X connect 4 1 18 0;
#X connect 4 1 22 0;
#X connect 5 1 6 0;
#X connect 6 0 7 0;
#X connect 6 0 20 0;
#X connect 7 0 13 0;
#X connect 8 1 19 0;
#X connect 12 0 11 1;
#X connect 13 0 11 0;
#X connect 13 1 12 0;
#X connect 14 0 16 0;
#X connect 15 0 17 1;
#X connect 16 0 17 0;
#X connect 16 1 15 0;
#X connect 18 0 9 0;
#X connect 18 0 10 0;
#X connect 19 0 14 0;
#X connect 19 0 21 0;
#X connect 23 0 1 0;
#X restore 26 237 pd midi-devices-parsing;
#X obj 544 145 list prepend add2;
#X obj 551 179 list trim;
#X msg 504 333;
#X obj 435 45 r midi-in-feedback;
#X obj 863 143 list prepend add2;
#X obj 863 168 list trim;
#X msg 735 334;
#X obj 784 35 r midi-out-feedback;
#X obj 785 116 route clear;
#X obj 463 118 route clear;
#X obj 434 239 t b;
#X obj 666 372 list append;
#X obj 434 289 t b b b b b b;
#X obj 404 374 list append;
#X obj 405 456 list append;
#X obj 208 504 list trim;
#X obj 645 231 loadbang;
#X text 619 605 get available devices for current driver;
#X obj 158 572 list prepend midi-dialog;
#X obj 158 594 list trim;
#X obj 158 616 s pd;
#X msg 542 534 1 0 0 0 0 0 0 0 0 3 1 0 0 0 0 0 0 0 2 4;
#X msg 194 195 device @out 1;
#X msg 734 281 set;
#X msg 602 280 set;
#X obj 210 451 list append 2 4;
#X obj 404 399 list append 0 0 0 0 0 0 0 0 0;
#X obj 404 424 list split 9;
#X obj 669 402 list append 0 0 0 0 0 0 0 0 0;
#X obj 669 427 list split 9;
#X obj 210 476 list prepend set;
#X msg 159 535 1 0 0 0 0 0 0 0 0 3 0 0 0 0 0 0 0 0 2 4;
#X obj 434 264 delay 100;
#X obj 156 97 r \$0-refresh;
#X obj 156 392 delay 2000;
#N canvas 0 50 1210 622 saving_state 0;
#X obj 211 109 r midi-out-save_device;
#X obj 61 206 r midi-out-feedback;
#X obj 61 231 route clear;
#X msg 179 258 set;
#X obj 196 346 s midi-out-recall_device;
#X obj 179 308 list;
#X msg 252 218 add2 \$2 \$1 \, addcomma;
#X msg 203 285 MPKmini2 0 \,;
#X obj 581 231 route clear;
#X msg 699 258 set;
#X obj 699 308 list;
#X msg 772 218 add2 \$2 \$1 \, addcomma;
#X msg 723 285 MPKmini2 0 \,;
#X obj 731 109 r midi-in-save_device;
#X obj 716 346 s midi-in-recall_device;
#X obj 581 206 r midi-in-feedback;
#X connect 0 0 6 0;
#X connect 1 0 2 0;
#X connect 2 0 3 0;
#X connect 3 0 7 0;
#X connect 5 0 4 0;
#X connect 6 0 7 0;
#X connect 7 0 5 0;
#X connect 8 0 9 0;
#X connect 9 0 12 0;
#X connect 10 0 14 0;
#X connect 11 0 12 0;
#X connect 12 0 10 0;
#X connect 13 0 11 0;
#X connect 15 0 8 0;
#X restore 893 294 pd saving_state;
#X obj 128 190 bng 15 250 50 0 empty empty empty 17 7 0 10 -262144
-1 -1;
#X connect 0 0 1 0;
#X connect 2 0 3 0;
#X connect 3 0 4 0;
#X connect 4 0 15 1;
#X connect 5 0 11 0;
#X connect 5 0 12 0;
#X connect 6 0 7 0;
#X connect 7 0 8 0;
#X connect 8 0 13 1;
#X connect 9 0 10 0;
#X connect 9 0 12 0;
#X connect 10 0 25 0;
#X connect 10 1 6 0;
#X connect 11 0 26 0;
#X connect 11 1 2 0;
#X connect 12 0 34 0;
#X connect 13 0 30 0;
#X connect 14 0 15 0;
#X connect 14 0 36 0;
#X connect 14 1 4 0;
#X connect 14 2 15 1;
#X connect 14 3 13 0;
#X connect 14 4 8 0;
#X connect 14 5 13 1;
#X connect 15 0 28 0;
#X connect 16 0 27 0;
#X connect 17 0 33 0;
#X connect 18 0 26 0;
#X connect 18 0 25 0;
#X connect 20 0 21 0;
#X connect 21 0 22 0;
#X connect 23 0 20 0;
#X connect 24 0 1 1;
#X connect 25 0 8 0;
#X connect 26 0 4 0;
#X connect 27 0 32 0;
#X connect 28 0 29 0;
#X connect 29 0 16 0;
#X connect 30 0 31 0;
#X connect 31 0 16 1;
#X connect 32 0 17 0;
#X connect 33 0 20 0;
#X connect 34 0 14 0;
#X connect 35 0 1 0;
#X connect 36 0 33 0;
#X connect 38 0 1 0;
#X restore 561 10 pd stuff;
#X obj 336 39 u_item midi-out 1;
#X obj 336 105 u_item midi-out 4;
#X obj 336 61 u_item midi-out 2;
#X obj 23 61 u_item midi-in 3;
#X obj 23 39 u_item midi-in 1;
#X obj 23 83 u_item midi-in 2;
#X obj 336 83 u_item midi-out 3;
#X obj 23 105 u_item midi-in 4;
#X obj 23 127 u_item midi-in 5;
#X obj 23 149 u_item midi-in 6;
#X obj 23 171 u_item midi-in 7;
#X obj 23 193 u_item midi-in 8;
#X obj 336 127 u_item midi-out 5;
#X obj 336 149 u_item midi-out 6;
#X obj 336 171 u_item midi-out 7;
#X obj 336 193 u_item midi-out 8;
#X restore 671 53 pd midi_devices;
#X obj 481 -4 PdRacks.morphing;
#X obj 1025 107 PdRacks.midi;
#X obj 1025 187 PdRacks.midi;
#X obj 824 -3 PdRacks.transport;
#X obj 1020 285 ExportPatch;
#X obj 900 293 s pd-conduite;
#X obj 1092 389 _tuio;
#X obj 195 315 cnv 15 200 80 empty \$0-focus_canvas empty 20 12 0 14
-257985 -66577 0;
#X obj 1400 0 _ fx_lop;
#X obj 1400 0 inst_modular;
#X obj 1400 0 inst_modular;
#X obj 1400 0 _ audio_features;
#X obj 1400 0 _ audio_features;
#X obj 1400 0 _ audio_in;
#X obj 1400 0 _ audio_in;
#X obj 1400 0 _ audio_in;
#X obj 1400 0 _ audio_in;
#X obj 1400 0 _ audio_out;
#X obj 1400 0 _ audio_out;
#X obj 1400 0 _ audio_out;
#X obj 1400 0 _ audio_record;
#X obj 1400 0 _ audio_record;
#X obj 1400 0 _ data_azerty2midi;
#X obj 1400 0 _ data_feuilleA4;
#X obj 1400 0 _ data_fidcontrol;
#X obj 1400 0 _ fx_reverse;
#X obj 1400 0 _ fx_reverse;
#X obj 1400 0 _ fx_lowhip;
#X obj 1400 0 _ fx_lowhip;
#X obj 1400 0 _ fx_lowhip;
#X obj 1400 0 _ fx_lowhip;
#X obj 1400 0 _ fx_hip;
#X obj 1400 0 _ fx_lop;
#X obj 1400 0 _ fx_hip;
#X obj 1400 0 _ fx_filter;
#X obj 1400 0 _ fx_filter;
#X obj 1400 0 _ fx_ring;
#X obj 1400 0 _ fx_ring;
#X obj 1400 0 _ fx_ring;
#X obj 1400 0 _ fx_freqshift;
#X obj 1400 0 _ fx_freqshift;
#X obj 1400 0 _ fx_pitchshift;
#X obj 1400 0 _ fx_pitchshift;
#X obj 1400 0 _ fx_pitchshift;
#X obj 1400 0 _ fx_dynproc;
#X obj 1400 0 _ fx_chorus;
#X obj 1400 0 _ fx_chorus;
#X obj 1400 0 _ fx_chorus;
#X obj 1400 0 _ fx_dubdel;
#X obj 1400 0 _ fx_dubdel;
#X obj 1400 0 _ fx_dubdel2;
#X obj 1400 0 _ fx_dubdel2;
#X obj 1400 0 _ fx_dubdel2;
#X obj 1400 0 _ fx_resonator;
#X obj 1400 0 _ fx_freeverb;
#X obj 1400 0 _ fx_freeverb;
#X obj 1400 0 _ fx_everb;
#X obj 1400 0 _ fx_everb;
#X obj 1400 0 _ data_fidtouch;
#X obj 1400 0 _ data_wintablet;
#X obj 1400 0 _ data_wintablet;
#X obj 1400 0 _ data_fidcontrol;
#X obj 1400 0 _ inst_headrush;
#X obj 1400 0 _ inst_headrush;
#X obj 1400 0 _ inst_soundfile;
#X obj 1400 0 _ inst_tabosc;
#X obj 1400 0 _ inst_tabosc;
#X obj 1400 0 _ inst_bassdrum;
#X obj 1400 0 _ inst_bassdrum;
#X obj 1400 0 _ inst_8bits;
#X obj 1400 0 _ inst_rhodey;
#X obj 1400 0 _ inst_rhodey;
#X obj 1400 0 _ inst_sampler;
#X obj 1400 0 _ inst_sampler;
#X obj 1400 0 _ inst_turntable;
#X obj 1400 0 _ inst_turntable;
#X obj 1400 0 _ midi_arpeggiator;
#X obj 1400 0 _ data_upic;
#X obj 1400 0 _ data_azerty2midi;
#X obj 1400 0 _ data_azerty2midi;
#X obj 1400 0 _ note_randomize;
#X obj 1400 0 _ note_randomize;
#X obj 1400 0 _ note_16steps;
#X obj 1400 0 _ fx_freeverb;
#X obj 1400 0 _ audio_out;
#X obj 1400 0 _ fx_hip;
#X obj 1400 0 _ fx_hip;
#X obj 1400 0 _ presets;
#X obj 1400 0 _ note_2param;
#X obj 1400 0 _ fx_eq3;
#X obj 1400 0 _ fx_parameq;
#X obj 1400 0 _ fx_parameq;
#X obj 1400 0 _ fx_parameq;
#X obj 1400 0 _ fx_parameq;
#X obj 1400 0 _ fx_parameq2;
#X obj 1400 0 _ PdRacks.presets;
#X obj 1400 0 _ fx_compressor;
#X obj 1400 0 _ fx_compressor;
#X obj 1400 0 _ fx_parameq;
#X obj 1400 0 _ fx_bitcrush;
#X obj 1400 0 _ note_16steps;
#X obj 1400 0 _ fx_sub;
#X obj 1400 0 _ inst_euclidrums;
#X obj 1400 0 _ audio_out;
#X obj 1400 0 _ audio_in;
#X obj 1400 0 _ midi_notein;
#X obj 1400 0 _ midi_arpeggiator;
#X obj 1400 0 _ midi_notein;
#X obj 1125 267 PdRacks.audio_record;
#X obj 1023 -3 PdRacks.audio_settings;
#X obj 853 469 declare -path D:/Programs/pd-0.47-1/extra;
#X obj 885 510 declare -path D:/Programs/pd-0.47-1/extra/iemguts;
#X obj 1400 0 _ note_interpolations;
#X obj 1400 0 _ note_interpolations;
#X obj 1400 0 _ ../pending/inst_pcm;
#X obj 1400 0 _ ../pending/inst_pcm;
#X obj 1400 0 _ inst_pcm;
#X obj 1400 0 _ inst_pcm;
#X obj 1400 0 _ note_interpol;
#X obj 844 352 s SPEED_LIM;
#X msg 874 323 0;
#X msg 839 322 100;
#X obj 823 299 loadbang;
#X obj 846 392 tutoriel;
#N canvas 0 50 1153 550 gestion_multitouch(echec) 0;
#X obj 72 136 list;
#X obj 72 161 t l l;
#X msg 60 201 \$3;
#X obj 60 226 list append;
#X obj 60 251 route 0 1 2 3 4;
#X obj 49 299 touch_convert;
#X text 573 165 panning disabled 1;
#X text 572 198 bouncing 0;
#X text 518 132 HKEY_CURRENT_USER/Software/Microsoft/Wisp/Touch;
#X text 769 167 (désactiver le scrolling par écran tactile);
#X text 491 71 Pour désactiver le scrolling par écran tactile sur
windows 8.1 \, exécuter l'éditeur de registre regedit.exe et modifier
les paramètres suivants;
#X obj 69 104 .. tuio/TuioClient 3456;
#X obj 76 346 touch_convert;
#X text 171 293 etc;
#X text 495 13 Pour pouvoir utiliser l'écran tactile en mode monotouch
avec rackpd il est préférable de désactiver le scrolling pour les
evenements touch;
#X text 716 198 (désactiver l'élasticité de la fenêtre en fin de
scrolling);
#X text 318 304 ne fonctionne pas \, car les événement mouse / motion
/ mouseup ne sont valables que dans le patch parent pour la zone GOP
d'un souspatch / abstraction;
#X text 314 376 il faudrait envisager un listener qui ait préalablement
parsé tous les objets gui de chaque module et qui réagisse aux événements
TUIO (touchAdd/ touchUpdate \, etc);
#X text 314 436 trop lourd \, d'autant plus que cela nécessite la
présence au premier plan d'une fenêtre (rendue transparente par AutoHotKey)
Touch2TuioApp qui intercepte les événements touch pour les transformer
en tuio par osc. Et cette fenêtre empêche l'utilisation simultanée
de la souris et du clavier.;
#X text 167 17 Solution Monotouch fonctionnelle : -->;
#X text 27 73 Tentative échouée de gestion multitouch;
#X text 150 127 réception des données de Touch2TuioApp;
#X text 32 373 Envoi d'événements mouse / motion / Mouseup aux modules
ciblés, f 25;
#X connect 0 0 1 0;
#X connect 1 0 2 0;
#X connect 1 1 3 1;
#X connect 2 0 3 0;
#X connect 3 0 4 0;
#X connect 4 0 5 0;
#X connect 4 1 12 0;
#X connect 11 0 0 0;
#X restore 1099 362 pd gestion_multitouch(echec);
#X obj 1400 0 _ fx_formant;
#X connect 11 0 12 0;
#X connect 12 0 37 0;
#X connect 13 0 1 0;
#X connect 16 0 1 0;
#X connect 21 0 1 0;
#X connect 152 0 151 0;
#X connect 153 0 151 0;
#X connect 154 0 153 0;
#X restore 474 51 pd rack;
#X obj 940 46 text define -k colors;
#A set amp 3 \; vol 39 \; pitch 4 \; freq 5 \; wet 6 \; damp 7 \; Q
8 \; value 9 \; thresh 10 \; oct 16 \; delay -40256 \; del -40256 \;
hall 197 \;;
#X obj 941 76 text define -k bus_out;
#A set no-out no-out no-out \; OUT(1/2) OUT1 OUT2 \; OUT(3/4) OUT3
OUT4 \; MASTER MASTER-r MASTER-l \; OUT(1/3) OUT1 OUT3 \; OUT(2/4)
OUT2 OUT4 \; OUT1 OUT1 OUT1 \; OUT2 OUT2 OUT2 \; OUT3 OUT3 OUT3 \;
OUT4 OUT4 OUT4 \;;
#X obj 941 96 text define -k bus_in;
#A set no-in no-in no-in \; IN(1/2) IN1 IN2 \; IN(3/4) IN3 IN4 \; IN1
IN1 IN1 \; IN2 IN2 IN2 \; IN3 IN3 IN3 \; IN4 IN4 IN4 \; MASTER MASTER-r
MASTER-l \; MODULE no-in no-in \;;
#N canvas 251 50 1097 554 mecanisme_sauvegarde_presets_dans_data_structures
0;
#N canvas 327 232 571 382 text-help-struct 0;
#X scalar text-help-struct 20 20 \; a b c d \;;
#X obj 79 230 pointer;
#X obj 22 257 append text-help-struct x y;
#X msg 23 172 20 20;
#X obj 161 24 struct text-help-struct float x float y text z;
#X obj 15 120 drawtext z 16 -3 0;
#X obj 254 142 tgl 15 1 empty empty empty 17 7 0 10 -262144 -1 -1 0
1;
#X obj 13 83 filledpolygon 0 0 0 0 0 0 30 30 30 30 0 0 0;
#X obj 475 124 outlet;
#X msg 79 172 traverse pd-ConduitePresets \, bang;
#X connect 1 0 2 2;
#X connect 3 0 2 0;
#X connect 4 0 8 0;
#X connect 6 0 5 0;
#X connect 9 0 1 0;
#X restore 348 131 pd text-help-struct;
#X text 88 466 bug - saving multi-line texts inside structures;
#N canvas 132 99 1366 685 gestion_conduite 0;
#X msg 476 248 bang;
#X msg 428 248 step;
#X obj 43 20 inlet from data-struct-template;
#X obj 715 365 text set -s text-help-struct z, f 18;
#X obj 879 52 r RJ_SCENE;
#X msg 943 250 0;
#X obj 916 286 f;
#X obj 975 284 + 1;
#X obj 75 361 delay 100;
#X obj 56 419 f;
#X obj 97 300 t b f;
#X obj 73 386 t b b;
#X obj 97 268 f;
#X obj 70 148 t b;
#X obj 70 121 r \$0-save;
#X obj 179 553 pointer;
#X obj 10 586 append text-help-struct x y;
#X obj 54 448 - 15;
#X obj 701 539 delay 100;
#X obj 10 622 t b a;
#X msg 47 509 40 \$1;
#X msg 230 364 editmode 1 \, mouse 40 \$1 0 0 \, mouseup 50 \$1 0;
#X msg 590 318 set \$1;
#X text 148 121 gros bouton rouge;
#X text 746 647 variable globale pour communiquer avec le module rj_808
;
#X text 731 671 a terme il faudra integrer tout ça dans un seul module
;
#X msg 184 422 cut \, editmode 0;
#X text 577 298 voir "creation_dynamique_d'objets";
#X obj 945 194 textfile;
#X obj 739 625 outlet;
#X obj 879 76 list prepend add;
#X obj 915 150 list trim;
#X msg 896 533 clear;
#X obj 736 570 t b b b;
#X obj 817 103 t b;
#X obj 802 141 delay 200;
#X msg 799 165 rewind \, bang;
#X obj 825 268 t b l b;
#X obj 773 211 delay 0;
#X obj 879 233 list;
#X msg 232 242 pos 0 \$1;
#X obj 229 213 f;
#X obj 230 268 s ducon;
#X msg 576 0 \; RJ_SCENE_PRELOAD bang \; RJ_SCENE_RELOAD bang \; RJ_SCENE_LOAD
bang \; RJ_SCENE_POSTLOAD bang \; REFRESH_CONNEXIONS bang;
#X obj 219 154 r SCENE-pos-rcv;
#X obj 215 180 route set;
#X msg 113 512 traverse pd-conduite \, bang;
#X obj 221 463 s pd-conduite;
#X text 404 301 done;
#N canvas 0 50 1089 575 load_scene_frome_datastructures 0;
#X obj 99 11 inlet;
#X obj 107 51 route click;
#X obj 107 76 list split 1;
#X obj 203 106 + 15;
#X obj 116 284 text sequence -s text-help-struct z;
#X text 187 244 rewind;
#X obj 102 101 list trim;
#X obj 100 125 t b a a b;
#X obj 224 517 s RJ_SCENE_LOAD;
#X obj 93 158 t b b;
#X obj 152 213 s RJ_SCENE_RELOAD;
#X msg 202 131 set \$1;
#X msg 115 247 line 0;
#X text 438 526 cf module_declare;
#X obj 152 190 s RJ_SCENE_PRELOAD;
#X obj 426 504 s RJ_SCENE_POSTLOAD;
#X obj 37 223 t b b b b;
#X obj 384 553 s REFRESH_CONNEXIONS;
#X obj 46 196 delay 10;
#X msg 71 260 step;
#X obj 126 312 t b a;
#X obj 21 298 delay 0;
#X obj 416 374 delay 1;
#X obj 397 470 t b b;
#X obj 202 157 s SCENE-pos-rcv;
#X obj 190 411 textfile;
#X obj 194 355 list prepend add;
#X obj 194 380 list trim;
#X msg 336 379 clear;
#X msg 416 399 rewind \, bang;
#X obj 134 497 delay 0;
#X text 472 466 done;
#X text 39 331 ---------------------- découplage dans un textfile
pour éviter crashes avec datastructures------------, f 105;
#X obj 190 436 list;
#X obj 180 466 t b l;
#X connect 0 0 1 0;
#X connect 1 0 2 0;
#X connect 2 0 6 0;
#X connect 2 1 3 0;
#X connect 3 0 11 0;
#X connect 4 0 20 0;
#X connect 4 1 22 0;
#X connect 6 0 7 0;
#X connect 7 0 9 0;
#X connect 7 1 4 1;
#X connect 7 3 28 0;
#X connect 9 0 18 0;
#X connect 9 1 10 0;
#X connect 9 1 14 0;
#X connect 11 0 24 0;
#X connect 12 0 4 0;
#X connect 16 2 19 0;
#X connect 16 3 12 0;
#X connect 18 0 16 0;
#X connect 19 0 4 0;
#X connect 20 0 21 0;
#X connect 20 1 26 0;
#X connect 21 0 19 0;
#X connect 22 0 29 0;
#X connect 23 0 17 0;
#X connect 23 1 15 0;
#X connect 25 0 33 0;
#X connect 25 1 23 0;
#X connect 26 0 27 0;
#X connect 27 0 25 0;
#X connect 28 0 25 0;
#X connect 29 0 25 0;
#X connect 30 0 25 0;
#X connect 33 0 34 0;
#X connect 34 0 30 0;
#X connect 34 1 8 0;
#X restore 44 49 pd load_scene_frome_datastructures;
#X text 296 271 <- le trait horizontal du curseur;
#X obj 66 479 t f b;
#X text 350 463 suppression de l'ancien bloc de scène;
#X text 257 573 création d'un nouveau bloc de scène à la place de
l'ancien;
#X text 1056 198 tous les modules "crachent" les valeurs de leurs paramètres
\, qui sont stockées dans le textfile ci-dessous. à la fin \, celui-ci
est purgé et son contenu est recopié à l'intérieur du champ texte
du bloc de scène nouvellement créé., f 35;
#X connect 2 0 49 0;
#X connect 4 0 30 0;
#X connect 5 0 6 1;
#X connect 6 0 7 0;
#X connect 6 0 3 1;
#X connect 7 0 6 1;
#X connect 8 0 11 0;
#X connect 9 0 17 0;
#X connect 10 0 8 0;
#X connect 10 1 21 0;
#X connect 10 1 9 1;
#X connect 11 0 9 0;
#X connect 11 1 26 0;
#X connect 12 0 10 0;
#X connect 13 0 12 0;
#X connect 14 0 13 0;
#X connect 15 0 16 2;
#X connect 16 0 19 0;
#X connect 17 0 51 0;
#X connect 18 0 33 0;
#X connect 19 0 18 0;
#X connect 19 1 3 3;
#X connect 20 0 16 0;
#X connect 21 0 47 0;
#X connect 26 0 47 0;
#X connect 28 0 39 0;
#X connect 30 0 31 0;
#X connect 30 0 34 0;
#X connect 31 0 28 0;
#X connect 32 0 28 0;
#X connect 33 0 29 0;
#X connect 33 1 5 0;
#X connect 33 2 32 0;
#X connect 34 0 35 0;
#X connect 35 0 36 0;
#X connect 36 0 28 0;
#X connect 37 0 38 0;
#X connect 37 1 3 0;
#X connect 37 2 6 0;
#X connect 38 0 28 0;
#X connect 39 0 37 0;
#X connect 40 0 42 0;
#X connect 41 0 40 0;
#X connect 44 0 45 0;
#X connect 45 0 12 1;
#X connect 45 0 41 0;
#X connect 46 0 15 0;
#X connect 51 0 20 0;
#X connect 51 1 46 0;
#X restore 354 172 pd gestion_conduite;
#X obj 546 85 r \$0-load;
#X text 701 152 if the load button is pressed;
#X obj 802 301 r SSSAD_ADMIN;
#X obj 802 356 route persist;
#X obj 802 326 list trim;
#X obj 802 412 list trim;
#X msg 456 219 save;
#X obj 478 424 s SSSAD_ADMIN;
#X obj 802 388 list prepend add SSSAD;
#X msg 500 384 set \, addsemi;
#X msg 456 452 add SSSAD_ADMIN set;
#X obj 528 267 s SSSAD_SAVE;
#X text 540 12 original patch by frank barknecht (sssad);
#X obj 592 491 outlet;
#X obj 514 332 s RJ_SCENE_SAVE;
#X obj 771 198 r RJ_SCENE;
#X obj 771 248 list trim;
#X obj 771 226 list prepend add RJ_SCENE_LOAD;
#X msg 661 281 dirty 1;
#X obj 456 242 t b a b b b b;
#X obj 421 266 t b b;
#X msg 379 321 menusave;
#X obj 377 299 delay 1000;
#X obj 735 125 s RJ_SCENE_RELOAD;
#X obj 550 112 t b b, f 27;
#X obj 621 226 bng 15 250 50 0 empty empty empty 17 7 0 10 -262144
-1 -1;
#X obj 248 428 s pd-conduite;
#X connect 0 0 2 0;
#X connect 2 0 9 0;
#X connect 3 0 27 0;
#X connect 5 0 7 0;
#X connect 6 0 11 0;
#X connect 7 0 6 0;
#X connect 8 0 16 0;
#X connect 9 0 22 0;
#X connect 11 0 8 0;
#X connect 12 0 16 0;
#X connect 13 0 16 0;
#X connect 18 0 20 0;
#X connect 19 0 16 0;
#X connect 20 0 19 0;
#X connect 21 0 29 0;
#X connect 22 0 23 0;
#X connect 22 1 10 0;
#X connect 22 1 17 0;
#X connect 22 2 12 0;
#X connect 22 4 14 0;
#X connect 22 5 21 0;
#X connect 23 0 25 0;
#X connect 23 1 13 0;
#X connect 24 0 29 0;
#X connect 25 0 24 0;
#X connect 27 0 16 0;
#X connect 27 1 26 0;
#X connect 28 0 14 0;
#X restore 473 201 pd mecanisme_sauvegarde_presets_dans_data_structures
;
#N canvas 0 50 681 300 ctlin 0;
#X obj 163 219 s CTLIN;
#X obj 243 81 - 1;
#X obj 243 106 * 128;
#X obj 221 131 +;
#X obj 160 154 pack f f;
#X obj 160 36 ctlin;
#X connect 1 0 2 0;
#X connect 2 0 3 1;
#X connect 3 0 4 1;
#X connect 4 0 0 0;
#X connect 5 0 4 0;
#X connect 5 1 3 0;
#X connect 5 2 1 0;
#X restore 471 103 pd ctlin;
#X obj 951 126 text define -k modules;
#A set audio_in entrée audio \; audio_out sortie audio \; audio_record
enregistreur de piste \; inst_8bits synthétiseur type 8 bits \; inst_rhodey
synthétiseur type Rhodes \; inst_sampler sampleur \; inst_turntable
platine tournedisque pour scratcher \; fx_reverb réverberation \;
fx_freeverb reverberation de qualité \; fx_dubdel delay avec retard
\; fx_hip filtre passe-haut \; fx_lop filtre passe-bas \; fx_filter
filtre polyvalent \; fx_lowhip filtre polyvalent continu \; fx_chorus
chorus \; fx_graindelay delay à grains \; fx_granulator granulateur(obsolete)
\; fx_dynproc processeur de dynamique \; fx_multiband processeur dynamique
multibandes \; fx_freqshift déplaceur de fréquences vers le haut
ou le bas \; fx_ring modulateur en anneau \; fx_pitchshift transposition
\; fx_resonator résonnateur accordé commandé par le clavier \; fx_vst
hôte de pluggin vst \;;
#N canvas 0 139 1083 443 rack_audio_stuff 0;
#X obj 510 164 c_bus no-out;
#X obj 405 164 c_bus no-in;
#X obj 78 68 c_bus IN1;
#X obj 208 68 c_bus IN2;
#X obj 298 68 c_bus IN3;
#X obj 428 68 c_bus IN4;
#X obj 153 -3 adc~ 1 2 3 4;
#X obj 79 34 c_tobus IN1;
#X obj 179 34 c_tobus IN2;
#X obj 279 34 c_tobus IN3;
#X obj 379 34 c_tobus IN4;
#X obj 265 274 dac~ 1 2 3 4;
#X obj 80 113 c_bus OUT1;
#X obj 205 113 c_bus OUT2;
#X obj 314 113 c_bus OUT3;
#X obj 434 111 c_bus OUT4;
#X obj 117 170 c_frombus OUT1;
#X obj 240 163 c_frombus OUT2;
#X obj 361 221 c_frombus OUT3;
#X obj 471 224 c_frombus OUT4;
#X msg 221 369 ping \, ping \, ping \, ping \, ping \, ping \, audio-setapi
4 \, ping \, ping \, ping \, audio-dialog 3 0 0 0 4 0 0 0 2 0 0 0 2
0 0 0 44100 10 0 128 \, ping \, ping \, ping \, ping \, ping \,;
#X msg 693 175 set no-out;
#X obj 646 57 c_bus MASTER-l;
#X obj 639 113 c_bus MASTER-r;
#X obj 828 58 send~ 0-send-0;
#X obj 828 78 send~ 0-send-1;
#X text 939 66 dummy sends~;
#X obj 116 208 tanh~;
#X obj 116 233 hip~ 60;
#X obj 246 238 hip~ 60;
#X obj 240 188 tanh~;
#X obj 360 240 tanh~;
#X obj 470 242 tanh~;
#X obj 796 240 noise~;
#X obj 795 270 *~ 1.525e-005;
#X text 815 207 dithering ?;
#X connect 2 0 12 0;
#X connect 3 0 13 0;
#X connect 4 0 14 0;
#X connect 5 0 15 0;
#X connect 6 0 7 0;
#X connect 6 0 2 0;
#X connect 6 0 3 0;
#X connect 6 0 4 0;
#X connect 6 0 5 0;
#X connect 6 1 8 0;
#X connect 6 2 9 0;
#X connect 6 3 10 0;
#X connect 15 0 22 0;
#X connect 16 0 27 0;
#X connect 17 0 30 0;
#X connect 18 0 31 0;
#X connect 19 0 32 0;
#X connect 22 0 23 0;
#X connect 27 0 28 0;
#X connect 28 0 11 0;
#X connect 29 0 11 1;
#X connect 30 0 29 0;
#X connect 31 0 11 2;
#X connect 32 0 11 3;
#X connect 33 0 34 0;
#X restore 471 77 pd rack_audio_stuff;
#X obj 980 183 loadbang;
#X msg 980 204 \; pd dsp 1;
#X msg 474 321 \; pd midi-dialog 1 0 0 0 0 0 0 0 0 0 0 0 0 0 0 0 0
0 2 3 \; pd audio-setapi 4 \; pd audio-dialog 6 0 0 0 4 0 0 0 5 0 0
0 4 0 0 0 44100 20 0 256;
#N canvas 0 50 723 477 midi-setting-saving_with_presets 0;
#X obj 37 188 s pd;
#X msg 41 167 midi-dialog 1 0 0 0 0 0 0 0 0 0 0 0 0 0 0 0 0 0 2 3;
#X obj 536 75 r pd;
#X obj 535 106 route midi-dialog;
#X obj 73 219 r RJ_SCENE_LOAD;
#X obj 68 286 list trim;
#X obj 73 318 route midi-dialog;
#X obj 87 365 list prepend midi-dialog;
#X obj 78 405 list trim;
#X obj 81 434 s pd;
#X obj 509 224 list append;
#X obj 538 146 t b l;
#X obj 470 202 spigot;
#X msg 528 172 1;
#X obj 401 85 r RJ_SCENE_SAVE;
#X obj 471 294 s RJ_SCENE;
#X obj 494 266 list prepend midi-dialog;
#X obj 414 108 t b;
#X obj 333 222 inlet;
#X obj 83 251 spigot;
#X obj 439 143 spigot;
#X connect 1 0 0 0;
#X connect 2 0 3 0;
#X connect 3 0 11 0;
#X connect 4 0 19 0;
#X connect 5 0 6 0;
#X connect 6 0 7 0;
#X connect 7 0 8 0;
#X connect 8 0 9 0;
#X connect 10 0 16 0;
#X connect 11 0 13 0;
#X connect 11 1 10 1;
#X connect 12 0 10 0;
#X connect 13 0 12 1;
#X connect 14 0 17 0;
#X connect 16 0 15 0;
#X connect 17 0 20 0;
#X connect 18 0 19 1;
#X connect 18 0 20 1;
#X connect 19 0 5 0;
#X connect 20 0 12 0;
#X restore 538 172 pd midi-setting-saving_with_presets;
#X obj 589 103 tgl 40 1 empty empty empty 17 7 0 10 -262144 -1 -1 0
1;
#X text 594 138 ENABLE;
#N canvas 0 50 904 300 release_notes 0;
#X text 56 46 26/05 : les affectations de parametres midi sont désormais
dynamiques et sans glitch \, et sont associées à chaque scène.;
#X text 69 123 TO do : cablage dynamique des data_inlet / data_outlet
sans utiliser iem_receive;
#X text 77 173 mode de reprise (comme dans live);
#X restore 581 245 pd release_notes;
#X obj 766 422 r \$0-rackEdit;
#X msg 519 438 \; pd-ConduitePresets editmode \$1;
#X obj 520 417 r \$0-conduiteEdit;
#X msg 767 445 editmode \$1;
#X obj 767 469 s pd-rack;
#X obj 363 118 tgl 20 0 empty empty CONDUITE 22 10 0 15 -262144 -1
-1 0 1;
#X obj 361 143 tgl 20 1 empty empty RACK 22 10 0 15 -262144 -1 -1 1
1;
#X msg 244 546 \; pd-rack vis \$1;
#X obj 351 213 tgl 20 1 empty empty interface 22 10 0 15 -262144 -1
-1 0 1;
#N canvas 323 80 1150 566 remote 0;
#X floatatom 134 75 5 0 0 0 - - -, f 5;
#X msg 58 154 \; fx_freeverb-1 remote amp \$1;
#X text 217 37 systématiser l'utilisation du message remote;
#X floatatom 376 76 5 0 0 0 - - -, f 5;
#X msg 108 114 \; fx_freeverb-1 remote hall \$1;
#X msg 372 117 \; RJ_SCENE_LOAD fx_freeverb-1 hall \$1;
#X floatatom 379 149 5 0 0 0 - - -, f 5;
#X msg 383 169 \; audio_out-0 remote pan \$1;
#X msg 27 251 \; fx_ring-1 midi freq \$1;
#X obj 29 231 hsl 128 15 0 127 0 0 empty empty empty -2 -8 0 10 -262144
-1 -1 0 1;
#X text 54 213 commande midi sans passer par midimappings (ctlassign3)
;
#X obj 41 304 hsl 128 15 0 127 0 0 empty empty empty -2 -8 0 10 -262144
-1 -1 0 1;
#X msg 37 321 \; fx_ring-1 midi-ctl freq \$1;
#X text 277 334 module_loader -> midi_colors;
#X msg 47 421 \; audio_out-3 midi-ctl mute \$1;
#X obj 53 397 tgl 15 0 empty empty empty 17 7 0 10 -262144 -1 -1 0
1;
#X obj 343 397 tgl 15 0 empty empty empty 17 7 0 10 -262144 -1 -1 0
1;
#X msg 337 421 \; audio_out-3 remote mute \$1;
#X text 320 374 modifier directement la valeur dans u_dispatch;
#X text 804 250 OBSOLETE;
#X obj 303 447 tgl 15 0 empty empty empty 17 7 0 10 -262144 -1 -1 0
1;
#X msg 297 471 \; RJ_SCENE_LOAD audio_out-3 mute \$1;
#X text 287 254 module_loader -> ui_vs (tous les ui_vs reçoivent ce
message);
#X text 582 481 tous les modules reçoivent ce message ?;
#X msg 720 42 \; fx_ring-1 get_params foufou;
#X obj 716 69 r foufou;
#X obj 716 99 print foufou;
#X text 715 11 obtenir les range de tous les params d'un module;
#X text 858 85 (implémenté dans ui_vs \, devrat être implémenté
dans midi_colors);
#X connect 0 0 4 0;
#X connect 3 0 5 0;
#X connect 6 0 7 0;
#X connect 9 0 8 0;
#X connect 11 0 12 0;
#X connect 15 0 14 0;
#X connect 16 0 17 0;
#X connect 20 0 21 0;
#X connect 25 0 26 0;
#X restore 717 61 pd remote;
#X msg 54 398 \; CTLIN 1 1 1;
#X obj 37 501 dynamic_linker;
#X text 144 442 gère les insertions/suppressions/connexions dynamiques
de modules;
#X msg 541 585 \; pd-dynamic_linker.pd vis \$1;
#X floatatom 239 174 5 0 0 0 chan - -, f 5;
#X msg 1186 200 color \$1 \$1 \$1;
#X obj 1186 240 tgl 40 0 empty empty empty 17 7 0 10 -62784 -62784
-62784 0 1;
#X floatatom 1167 154 5 0 0 0 - - -, f 5;
#X obj 947 442 module_loader main \$0;
#X obj 1133 375 u_loader;
#X msg 684 527 \; RJ_SCENE_PRELOAD bang \; RJ_SCENE_RELOAD bang \;
RJ_SCENE_LOAD bang \; RJ_SCENE_POSTLOAD bang \; REFRESH_CONNEXIONS
bang;
#X obj 731 498 r RESET;
#X obj 578 496 loadbang;
#X obj 578 521 delay 1000;
#X msg 204 586 \; pd-conduite vis \$1;
#X connect 2 0 3 0;
#X connect 6 0 7 0;
#X connect 8 0 7 0;
#X connect 9 0 10 0;
#X connect 9 1 10 1;
#X connect 9 2 41 0;
#X connect 10 0 5 0;
#X connect 20 0 21 0;
#X connect 24 0 23 0;
#X connect 27 0 30 0;
#X connect 29 0 28 0;
#X connect 30 0 31 0;
#X connect 32 0 51 0;
#X connect 33 0 34 0;
#X connect 35 0 40 0;
#X connect 42 0 43 0;
#X connect 44 0 42 0;
#X connect 48 0 47 0;
#X connect 49 0 50 0;
#X connect 50 0 47 0;
#X coords 0 -1 1 1 360 300 1 100 100;
#X restore 7 6 pd stuff;
