#N canvas 41 133 615 426 10;
#X obj 375 223 abl_link~;
#X floatatom 277 267 5 0 0 0 - - -, f 5;
#X msg 357 165 connect 1;
#X floatatom 317 267 5 0 0 0 - - -, f 5;
#X floatatom 284 160 5 0 0 0 - - -, f 5;
#X floatatom 277 284 5 0 0 0 - - -, f 5;
#X obj 124 113 abl_link_slave~ 1 0 4 134;
#X floatatom 318 285 5 0 0 0 - - -, f 5;
#X msg 353 59 reset 0 6;
#X msg 466 171 tempo \$1;
#X floatatom 480 132 5 0 0 0 - - -, f 5;
#X obj 114 379 *~;
#X obj 147 327 line~;
#X obj 114 401 dac~;
#X obj 114 357 osc~ 3000;
#X msg 159 278 0.4 \, 0 20;
#X connect 0 0 3 0;
#X connect 0 1 7 0;
#X connect 2 0 0 0;
#X connect 6 0 1 0;
#X connect 6 0 15 0;
#X connect 6 1 5 0;
#X connect 6 3 4 0;
#X connect 8 0 6 0;
#X connect 8 0 0 0;
#X connect 9 0 0 0;
#X connect 10 0 9 0;
#X connect 11 0 13 0;
#X connect 11 0 13 1;
#X connect 12 0 11 1;
#X connect 14 0 11 0;
#X connect 15 0 12 0;
