#N canvas 713 50 613 398 10;
#X declare -path ../core;
#X declare -path ../rj;
#X obj 346 39 declare -path ../core;
#X obj 346 69 declare -path ../rj;
#X obj 465 148 tgl 15 0 empty empty V 4 8 0 12 -4034 -4034 -1 0 1;
#X obj 465 185 tgl 15 0 empty empty X 4 8 0 12 -258113 -258113 -1 0
1;
#X text 485 144 Instances multiples;
#N canvas 0 50 826 586 data_toogle 0;
#X obj 437 206 module_loader data_toggle \$0;
#X obj 287 266 route note;
#X obj 336 493 tabwrite \$0-notes;
#X obj 282 454 f;
#X obj 291 388 tabread \$0-notes;
#X obj 291 410 select 0;
#X msg 335 437 0;
#X obj 200 494 pack f f;
#X obj 286 365 t f f f;
#X msg 191 519 note \$2 \$1;
#X obj 241 103 bng 30 250 50 0 \$0-bypass \$0-bypass-rcv reset 2 7
0 10 -262144 -1 -1;
#N canvas 0 50 450 250 (subpatch) 0;
#X array \$0-notes 128 float 1;
#A 0 0 0 0 0 0 0 0 0 0 0 0 0 0 0 0 0 0 0 0 0 0 0 0 0 0 0 0 0 0 0 0
0 0 0 0 0 0 0 0 0 0 0 0 0 0 0 0 0 0 0 0 0 0 0 0 0 0 0 0 0 0 0 0 0 0
0 0 0 0 0 0 0 0 0 0 0 0 0 0 0 0 0 0 0 0 0 0 0 0 0 0 0 0 0 0 0 0 0 0
0 0 0 0 0 0 0 0 0 0 0 0 0 0 0 0 0 0 0 0 0 0 0 0 0 0 0 0 0;
#X coords 0 127 128 0 160 30 1 0 0;
#X restore 129 138 graph;
#X msg 126 200 stop;
#X obj 281 216 s \$0-notes;
#X msg 279 190 const 0;
#X msg 186 208 128;
#X obj 211 184 t b b;
#X msg 219 270 0;
#X obj 172 267 f;
#X obj 172 289 + 1;
#X obj 157 238 until;
#X msg 70 290 note \$1 0;
#X obj 201 104 tgl 30 0 \$0-bypass \$0-bypass-rcv bypass 2 7 0 10 -262144
-1 -1 0 1;
#X obj 429 262 midi-colors \$0 bypass \$0-bypass-rcv;
#X obj 429 284 > 64;
#X obj 429 306 change;
#X obj 444 334 select 1;
#X obj 444 356 t b b b;
#X obj 469 392 timer;
#X obj 414 358 bng 15 250 50 0 empty empty empty 17 7 0 10 -262144
-1 -1;
#X obj 505 438 t b b;
#X msg 570 435 stop;
#X obj 334 129 == 0;
#X obj 286 343 spigot;
#X obj 301 294 spigot 1;
#X obj 550 381 delay 300;
#X obj 469 414 moses 300;
#X obj 234 315 spigot;
#X msg 173 420 note \$1 \$2;
#X msg 481 522 0 \$1;
#X obj 524 499 bng 15 250 50 0 empty empty empty 17 7 0 10 -262144
-1 -1;
#X obj 296 317 unpack f f;
#X obj 482 471 pipe 10000;
#X obj 19 323 inlet~;
#X obj 26 356 outlet~;
#X obj 89 323 inlet~;
#X obj 96 356 outlet~;
#X obj 35 492 outlet data;
#X obj 266 236 inlet data;
#X connect 1 0 34 0;
#X connect 1 0 37 0;
#X connect 3 0 2 0;
#X connect 3 0 7 0;
#X connect 4 0 5 0;
#X connect 5 0 3 0;
#X connect 5 1 6 0;
#X connect 6 0 2 0;
#X connect 6 0 7 0;
#X connect 7 0 9 0;
#X connect 8 0 4 0;
#X connect 8 1 2 1;
#X connect 8 2 7 1;
#X connect 9 0 47 0;
#X connect 10 0 12 0;
#X connect 10 0 14 0;
#X connect 10 0 16 0;
#X connect 12 0 47 0;
#X connect 14 0 13 0;
#X connect 15 0 20 0;
#X connect 16 0 15 0;
#X connect 16 1 17 0;
#X connect 17 0 18 1;
#X connect 18 0 19 0;
#X connect 18 0 21 0;
#X connect 19 0 18 1;
#X connect 20 0 18 0;
#X connect 21 0 47 0;
#X connect 22 0 32 0;
#X connect 22 0 37 1;
#X connect 23 0 24 0;
#X connect 24 0 25 0;
#X connect 25 0 26 0;
#X connect 26 0 27 0;
#X connect 27 0 28 0;
#X connect 27 1 28 1;
#X connect 27 2 35 0;
#X connect 28 0 36 0;
#X connect 29 0 27 0;
#X connect 30 0 10 0;
#X connect 30 1 31 0;
#X connect 31 0 35 0;
#X connect 32 0 34 1;
#X connect 33 0 8 0;
#X connect 33 0 42 0;
#X connect 34 0 41 0;
#X connect 35 0 22 0;
#X connect 36 0 30 0;
#X connect 37 0 38 0;
#X connect 38 0 47 0;
#X connect 39 0 2 0;
#X connect 39 0 7 0;
#X connect 41 0 33 0;
#X connect 41 1 3 1;
#X connect 41 1 33 1;
#X connect 42 0 39 0;
#X connect 42 0 40 0;
#X connect 43 0 44 0;
#X connect 45 0 46 0;
#X connect 48 0 1 0;
#X coords 0 -1 1 1 190 70 1 100 100;
#X restore 51 82 pd data_toogle;
#X text 42 188 un espèce de megasustain;
#X text 63 255 retarde les événements note off;
#X text 60 284 quand la note est rejouée \, agit comme un toogle;
#X coords 0 398 1 397 190 70 0;
