#N canvas 114 82 678 486 10;
#X obj 100 100 _\$1;
#X obj 420 259 switch~;
#X obj 100 77 stereo_inlet~ \$0;
#X obj 100 175 stereo_outlet~ \$0;
#X obj 389 173 module_declare fx_chorus \$0;
#X obj 322 78 data_inlet \$0;
#X obj 269 176 data_outlet \$0;
#X connect 0 0 3 0;
#X connect 0 1 3 1;
#X connect 0 2 6 0;
#X connect 2 0 0 0;
#X connect 2 1 0 1;
#X connect 4 0 1 0;
#X connect 5 0 0 2;
#X coords 0 -1 1 1 190 70 1 100 100;
