#N canvas 0 50 957 591 10;
#N canvas 0 50 880 335 audio_stuff 0;
#X obj 198 52 inlet~;
#X obj 308 274 outlet~;
#X obj 203 273 outlet~;
#X obj 301 53 inlet~;
#X obj 289 178 *~;
#X obj 361 150 r \$0-vol;
#X obj 361 172 dbtorms;
#X obj 199 178 *~;
#N canvas 438 108 468 537 audio_feedback 0;
#X obj 132 400 *~;
#X obj 196 298 line~;
#X obj 186 213 t b b;
#X obj 75 351 osc~ 880;
#X obj 173 150 mod 24;
#X obj 44 188 == 0;
#X obj 29 252 sel 1;
#X obj 71 155 mod 96;
#X obj 42 221 change;
#X obj 193 186 select 0;
#X obj 165 105 t f f;
#X obj 132 456 outlet~;
#X obj 144 49 r CLOCK;
#X msg 24 290 1760;
#X msg 80 292 880;
#X msg 173 249 0.1 1;
#X msg 242 271 0 5;
#X obj 239 248 del 10;
#X connect 0 0 11 0;
#X connect 1 0 0 1;
#X connect 2 0 15 0;
#X connect 2 1 17 0;
#X connect 3 0 0 0;
#X connect 4 0 9 0;
#X connect 5 0 8 0;
#X connect 6 0 13 0;
#X connect 6 1 14 0;
#X connect 7 0 5 0;
#X connect 8 0 6 0;
#X connect 9 0 2 0;
#X connect 10 0 7 0;
#X connect 10 1 4 0;
#X connect 12 0 10 0;
#X connect 13 0 3 0;
#X connect 14 0 3 0;
#X connect 15 0 1 0;
#X connect 16 0 1 0;
#X connect 17 0 16 0;
#X restore 89 122 pd audio_feedback;
#X connect 0 0 7 0;
#X connect 3 0 4 0;
#X connect 4 0 1 0;
#X connect 5 0 6 0;
#X connect 6 0 4 1;
#X connect 6 0 7 1;
#X connect 7 0 2 0;
#X connect 8 0 7 0;
#X connect 8 0 4 0;
#X restore 30 298 pd audio_stuff;
#X obj 101 101 cnv 15 188 68 empty \$0-background inst_metro 0 7 0
14 -262144 -1 0;
#X obj 220 102 vsl 70 17 1 0 0 0 \$0-presets \$0-presets-rcv PRESETS
2 5 0 10 -232576 -232576 -1 0 1;
#X obj 29 260 inlet~;
#X obj 127 260 inlet~;
#X obj 32 340 outlet~;
#X obj 102 340 outlet~;
#X obj 192 344 outlet data;
#X obj 196 264 inlet data;
#X obj 532 273 u_dispatch \$0 vol;
#X obj 175 114 ui_vs \$0 vol 0 100;
#X obj 536 241 module_loader inst_metro \$0;
#X connect 0 0 5 0;
#X connect 0 1 6 0;
#X connect 3 0 0 0;
#X connect 4 0 0 1;
#X connect 8 0 7 0;
#X connect 11 0 9 0;
#X coords 0 -1 1 1 190 70 2 100 100;
