#N canvas 399 75 981 595 10;
#X obj 545 193 switch~;
#X obj 108 264 stereo_inlet~ \$0;
#X obj 72 460 stereo_outlet~ \$0;
#X obj 622 276 u_dispatch \$0 vol;
#X obj 252 115 ui_vs \$0 vol 0 127;
#X obj 622 241 module_loader inst_mobmultisample \$0;
#X obj 510 54 module_declare inst_mobmultisample \$0;
#X obj 303 427 data_thru \$0;
#N canvas 0 50 717 443 network_client 0;
#X obj 40 68 oscparse;
#X obj 60 175 list split 1;
#X obj 41 220 makefilename /%s;
#X obj 41 242 list append;
#X obj 41 264 list trim;
#X text 179 100 TODO : modifier multisample pour prépender numéro
d'instance (adresse ip ?). Faire un fid_multiplex et forwarder vers
GUI1 \, GUI2 \, GUI3 \, etc...;
#X obj 301 67 mrpeach/unpackOSC;
#X obj 405 138 route from;
#X text 448 257 avec routeur sfr OK si adresse multicast mentionée
;
#X obj 405 160 list split 3;
#X obj 470 193 list split 1;
#X obj 299 370 outlet;
#X obj 266 168 list trim;
#X obj 263 214 list prepend /synchroIn;
#X obj 266 190 route /synchroOut;
#X text 573 280 224.0.0.1;
#X obj 325 316 list prepend 0;
#X obj 37 37 _netreceive -u -b 54321;
#X obj 300 7 mrpeach/udpreceive 54321;
#X connect 0 0 1 0;
#X connect 1 0 2 0;
#X connect 1 1 3 1;
#X connect 2 0 3 0;
#X connect 3 0 4 0;
#X connect 4 0 14 0;
#X connect 6 0 12 0;
#X connect 7 0 9 0;
#X connect 9 1 10 0;
#X connect 10 0 16 1;
#X connect 12 0 14 0;
#X connect 13 0 16 0;
#X connect 14 0 13 0;
#X connect 14 1 16 0;
#X connect 16 0 11 0;
#X connect 17 0 0 0;
#X connect 18 0 6 0;
#X connect 18 1 7 0;
#X restore 261 307 pd network_client;
#N canvas 0 50 844 440 audio_stuff 0;
#X obj 174 252 clip~ -1 1;
#X obj 42 247 clip~ -1 1;
#X obj 42 269 outlet~;
#X obj 174 274 outlet~;
#X obj 221 53 inlet;
#X obj 33 108 c:/users/jyg/desktop/pd/patches/2016/fid_abs_vanilia-0.4/fid_multiplex
16;
#X obj 37 169 clone -s 1 16 ../modules/inst_multisample/looper3 Speech
\$0-GUI;
#X connect 0 0 3 0;
#X connect 1 0 2 0;
#X connect 4 0 5 0;
#X connect 5 0 6 0;
#X connect 6 0 1 0;
#X connect 6 1 0 0;
#X restore 267 342 pd audio_stuff;
#X obj 117 123 tgl 15 0 empty empty receiving_data 17 7 0 10 -262144
-1 -1 0 1;
#X obj 316 218 t b b;
#X msg 390 261 1;
#X msg 382 213 0;
#X obj 318 260 delay 100;
#X obj 440 274 change;
#X connect 1 0 2 0;
#X connect 1 1 2 1;
#X connect 5 0 3 0;
#X connect 6 0 0 0;
#X connect 8 0 9 0;
#X connect 8 0 11 0;
#X connect 9 0 2 0;
#X connect 9 1 2 1;
#X connect 11 0 14 0;
#X connect 11 1 12 0;
#X connect 12 0 15 0;
#X connect 13 0 15 0;
#X connect 14 0 13 0;
#X connect 15 0 10 0;
#X coords 0 -1 1 1 190 70 1 100 100;
