#N canvas 208 63 678 486 10;
#N canvas 172 83 586 377 LICENSE-GPL 0;
#X text 57 88 This program is free software: you can redistribute it
and/or modify it under the terms of the GNU General Public License
as published by the Free Software Foundation \, either version 3 of
the License \, or (at your option) any later version.;
#X text 58 168 This program is distributed in the hope that it will
be useful \, but WITHOUT ANY WARRANTY \; without even the implied warranty
of MERCHANTABILITY or FITNESS FOR A PARTICULAR PURPOSE. See the GNU
General Public License for more details.;
#X text 57 261 You should have received a copy of the GNU General Public
License along with this program. If not \, see <http://www.gnu.org/licenses/>.
;
#X text 61 54 Copyright (C) 2009 \, Reality Jockey Ltd.;
#X text 60 325 See the file LICENSE.txt for the full license text.
;
#X restore 298 15 pd LICENSE-GPL;
#X text 35 69 ui_hsl \$0 name min max;
#X obj 448 85 switch~;
#X obj 220 102 vsl 70 17 1 0 0 0 \$0-presets \$0-presets-rcv PRESETS
2 5 0 10 -232576 -232576 -1 0 1;
#X obj 29 260 stereo_inlet~ \$0;
#X obj 27 348 stereo_outlet~ \$0;
#X obj 35 387 data_thru \$0;
#X obj 448 20 module_declare inst_pvoc \$0;
#X obj 680 51 module_loader inst_pvoc \$0;
#X obj 293 522 hsl 128 15 0 1 0 0 \$0-left_margin \$0-left_margin-rcv
left -2 -8 0 10 -262144 -1 -1 0 1;
#X obj 296 550 hsl 128 15 0 1 0 0 \$0-right_margin \$0-right_margin-rcv
right -2 -8 0 10 -262144 -1 -1 0 1;
#X obj 251 436 vsl 15 128 0 1 0 0 \$0-top_margin \$0-top_margin-rcv
top 0 -9 0 10 -262144 -1 -1 0 1;
#X obj 272 436 vsl 15 128 0 1 0 0 \$0-bottom_margin \$0-bottom_margin-rcv
bottom 0 -9 0 10 -262144 -1 -1 0 1;
#X obj 403 399 vradio 15 1 0 8 \$0-lines \$0-lines-rcv empty 0 -8 0
10 -262144 -1 -1 0;
#X obj 313 604 openpanel;
#X obj 318 410 bng 32 250 50 0 empty empty open_wave_file 0 -6 0 10
-260818 -1 -1;
#X obj 309 628 s \$1-wave_file;
#X symbolatom 231 377 24 0 0 0 - - -, f 24;
#X obj 222 331 splitfilename /;
#X obj 222 300 r \$1-wave_file;
#X obj 357 412 bng 30 250 50 0 \$0-play empty PLAY 0 12 0 13 -257985
-1 -1;
#X obj 305 497 bng 15 250 50 0 \$0-EditMapping empty EditMapping 17
7 0 10 -262144 -1 -1;
#N canvas 192 205 872 691 gestion_mapping 0;
#N canvas 148 131 886 499 \$0-mapping 0;
#X obj 14 30 hsl 800 50 0 1 0 0 \$0-map0 \$0-map0-rcv empty -2 -8 0
10 -262144 -1 -1 0 1;
#X obj 14 80 hsl 800 50 0 1 0 0 \$0-map1 \$0-map1-rcv empty -2 -8 0
10 -262144 -1 -1 0 1;
#X obj 14 130 hsl 800 50 0 1 0 0 \$0-map2 \$0-map2-rcv empty -2 -8
0 10 -262144 -1 -1 0 1;
#X obj 14 180 hsl 800 50 0 1 0 0 \$0-map3 \$0-map3-rcv empty -2 -8
0 10 -262144 -1 -1 0 1;
#X obj 14 230 hsl 800 50 0 1 0 0 \$0-map4 \$0-map4-rcv empty -2 -8
0 10 -262144 -1 -1 0 1;
#X obj 14 280 hsl 800 50 0 1 0 0 \$0-map5 \$0-map5-rcv empty -2 -8
0 10 -262144 -1 -1 0 1;
#X obj 14 330 hsl 800 50 0 1 0 0 \$0-map6 \$0-map6-rcv empty -2 -8
0 10 -262144 -1 -1 0 1;
#X obj 14 380 hsl 800 50 0 1 0 0 \$0-map7 \$0-map7-rcv empty -2 -8
0 10 -262144 -1 -1 0 1;
#X obj 822 37 bng 40 250 50 0 \$0-remap empty REMAP 0 15 0 14 -232576
-1 -1;
#X obj 14 430 hsl 800 50 0 1 0 0 \$0-map8 \$0-map8-rcv empty -2 -8
0 10 -262144 -1 -1 0 1;
#N canvas 0 50 450 300 (subpatch) 0;
#X array \$0-mapping-wave 75707 float 0;
#X coords 0 1 75706 -1 805 450 1 0 0;
#X restore 11 29 graph;
#X obj 820 80 vradio 50 1 0 8 \$0-lines \$0-lines-rcv empty 0 -8 0
10 -262144 -1 -1 0;
#X obj 820 1 bng 30 250 50 0 \$0-play empty PLAY 0 12 0 13 -257985
-1 -1;
#X restore 9 262 pd \$0-mapping;
#X obj 10 118 r \$0-EditMapping;
#X msg 10 145 vis 1;
#X obj 10 171 s pd-\$0-mapping;
#X obj 325 210 soundfiler;
#X msg 325 186 read -resize \$1 \$2;
#X obj 325 162 pack s s;
#X obj 388 109 symbol \$0-mapping-wave;
#X obj 416 86 loadbang;
#X obj 410 46 bng 15 250 50 0 empty empty empty 17 7 0 10 -262144 -1
-1;
#X obj 293 132 t b s;
#X msg 293 263 normalize;
#X obj 545 157 r \$0-remap;
#X obj 537 225 f;
#X obj 49 553 s \$0-mapping-table;
#X msg 81 379 2 \$1;
#X msg 81 399 3 \$1;
#X msg 81 418 4 \$1;
#X msg 81 438 5 \$1;
#X msg 81 458 6 \$1;
#X msg 81 478 7 \$1;
#X msg 81 359 0 \$1 \, 1 \$1;
#X obj 47 586 table \$0-mapping-table 11;
#X obj 559 317 until;
#X obj 556 345 f;
#X obj 606 346 + 1;
#X msg 739 293 0;
#X obj 493 401 /;
#X obj 495 368 t f f;
#X obj 548 456 send;
#X obj 480 429 min 1;
#X obj 569 255 t b b;
#X obj 498 310 + 1;
#X msg 81 521 9 \$1 \, 10 \$1;
#X msg 81 498 8 \$1;
#X msg 566 286 9;
#X obj 178 330 r \$0-map0;
#X obj 178 350 r \$0-map1;
#X obj 178 370 r \$0-map2;
#X obj 178 390 r \$0-map3;
#X obj 178 410 r \$0-map4;
#X obj 178 430 r \$0-map5;
#X obj 178 450 r \$0-map6;
#X obj 178 470 r \$0-map7;
#X obj 178 490 r \$0-map8;
#X obj 293 66 r \$0-wave_file;
#X obj 600 185 r \$0-lines;
#X obj 574 423 makefilename \$0-map%d-rcv;
#X connect 1 0 2 0;
#X connect 2 0 3 0;
#X connect 5 0 4 0;
#X connect 6 0 5 0;
#X connect 7 0 6 1;
#X connect 8 0 7 0;
#X connect 9 0 7 0;
#X connect 10 0 11 0;
#X connect 10 1 6 0;
#X connect 12 0 13 0;
#X connect 13 0 31 0;
#X connect 15 0 14 0;
#X connect 16 0 14 0;
#X connect 17 0 14 0;
#X connect 18 0 14 0;
#X connect 19 0 14 0;
#X connect 20 0 14 0;
#X connect 21 0 14 0;
#X connect 23 0 24 0;
#X connect 24 0 25 0;
#X connect 24 0 28 0;
#X connect 25 0 24 1;
#X connect 26 0 24 1;
#X connect 27 0 30 0;
#X connect 28 0 27 0;
#X connect 28 1 47 0;
#X connect 30 0 29 0;
#X connect 31 0 35 0;
#X connect 31 1 26 0;
#X connect 32 0 27 1;
#X connect 33 0 14 0;
#X connect 34 0 14 0;
#X connect 35 0 23 0;
#X connect 36 0 21 0;
#X connect 37 0 15 0;
#X connect 38 0 16 0;
#X connect 39 0 17 0;
#X connect 40 0 18 0;
#X connect 41 0 19 0;
#X connect 42 0 20 0;
#X connect 43 0 34 0;
#X connect 44 0 33 0;
#X connect 45 0 10 0;
#X connect 46 0 13 1;
#X connect 46 0 32 0;
#X connect 47 0 29 1;
#X restore 658 412 pd gestion_mapping;
#X obj 306 474 tgl 15 0 \$0-enable_pitch \$0-enable_pitch-rcv ENABLE_PITCH
17 7 0 10 -262144 -1 -1 0 1;
#X obj 305 457 hradio 15 1 0 5 \$0-transpose \$0-transpose-rcv TRANSPOSE
0 -8 0 10 -262144 -1 -1 0;
#X obj 680 153 u_dispatch \$0 wave_file;
#X obj 680 187 u_dispatch \$0 vol;
#X obj 680 170 u_parameter \$0 lines;
#X obj 680 85 u_parameter \$0 left_margin;
#X obj 680 102 u_parameter \$0 right_margin;
#X obj 143 115 ui_vs \$0 vol 0 127;
#X obj 680 119 u_parameter \$0 top_margin;
#X obj 680 136 u_parameter \$0 bottom_margin;
#X obj 680 357 u_parameter \$0 enable_pitch;
#X obj 680 374 u_parameter \$0 transpose;
#X obj 680 204 u_parameter \$0 map0;
#X obj 680 221 u_parameter \$0 map1;
#X obj 680 238 u_parameter \$0 map2;
#X obj 680 255 u_parameter \$0 map3;
#X obj 680 272 u_parameter \$0 map4;
#X obj 680 289 u_parameter \$0 map5;
#X obj 680 306 u_parameter \$0 map6;
#X obj 680 323 u_parameter \$0 map7;
#X obj 680 340 u_parameter \$0 map8;
#N canvas 41 4 1267 614 audio_stuff 1;
#X obj 302 204 * 8;
#X obj 311 229 int;
#X obj 368 142 r \$1-lines;
#X obj 383 196 + 1;
#X obj 109 133 pipe f 100;
#X obj 476 319 *;
#X obj 494 290 r \$0-length;
#X obj 536 88 t f f b;
#X obj 628 135 symbol \$0-sample;
#X obj 784 344 soundfiler;
#X obj 771 225 r \$1-wave_file;
#X obj 775 294 list append \$0-sample;
#X obj 813 432 table \$0-sample;
#X obj 781 370 s \$0-length;
#X msg 122 166 \$1 switchOff;
#X obj 441 441 fid_multiplex 4 switchOff;
#X msg 21 172 \$1 gain 0 100;
#X obj 486 474 route 1 2 3 4;
#X obj 485 137 fid_get alpha;
#X obj 383 61 t f f f;
#X obj 493 195 / 3.14;
#X obj 508 226 expr 30*($f1*$f1*$f1);
#X obj 624 252 + 70;
#X obj 627 292 dbtorms;
#X obj 383 23 r \$0-curseur.update;
#X obj 528 2 r \$0-curseur.add;
#X obj 66 47 r \$0-curseur.remove;
#X obj 34 327 r \$0-pitch.add;
#X obj 49 360 r \$0-pitch.update;
#X obj 33 398 fid_get \$1-coords;
#X obj 33 432 unpack f f;
#X obj 93 547 mtof;
#X obj 86 572 / 8.175;
#X obj 184 432 * 8;
#X obj 264 399 r \$1-lines;
#X obj 269 431 + 1;
#X obj 175 462 t f f;
#X obj 178 527 -;
#X obj 203 490 int;
#X obj 102 493 * 36;
#X obj 85 520 - 18;
#X obj 28 543 min 12;
#X obj 23 568 max -12;
#X msg 556 174 1;
#X obj 213 67 fid_get \$1-coords;
#X obj 211 96 unpack f f;
#N canvas 0 50 450 300 scaling-y 0;
#X obj 259 43 inlet;
#X obj 257 239 outlet;
#X obj 401 66 r \$1-top_margin;
#X obj 484 93 r \$1-bottom_margin;
#X obj 319 128 expr ($f1-$f2)/($f3-$f2);
#X connect 0 0 4 0;
#X connect 2 0 4 1;
#X connect 3 0 4 2;
#X connect 4 0 1 0;
#X restore 174 400 pd scaling-y;
#N canvas 0 50 685 350 scaling-x/y 0;
#X obj 46 36 inlet;
#X obj 259 43 inlet;
#X obj 45 247 outlet;
#X obj 257 239 outlet;
#X obj 401 66 r \$1-top_margin;
#X obj 484 93 r \$1-bottom_margin;
#X obj 319 128 expr ($f1-$f2)/($f3-$f2);
#X obj 18 133 expr ($f1-$f2)/($f3-$f2);
#X obj 99 71 r \$1-left_margin;
#X obj 183 98 r \$1-right_margin;
#X connect 0 0 7 0;
#X connect 1 0 6 0;
#X connect 4 0 6 1;
#X connect 5 0 6 2;
#X connect 6 0 3 0;
#X connect 7 0 2 0;
#X connect 8 0 7 1;
#X connect 9 0 7 2;
#X restore 225 134 pd scaling-x/y;
#X obj 294 172 expr 1-$f1;
#X obj 561 33 bng 15 250 50 0 empty empty empty 17 7 0 10 -262144 -1
-1;
#X obj 936 25 fid_sub_class class-\$1 \$0-pitch 1 1;
#X obj 937 53 fid_sub_class class-\$1 \$0-curseur -2 1;
#X obj 787 101 r \$1-vol;
#X obj 615 172 pack f s f;
#X msg 624 196 \$1 switchOn \, \$1 setArray \$2 \, \$1 vol \$3;
#X obj 789 125 dbtorms;
#X obj 796 489 r \$0-play;
#X obj 752 542 *~ 0.1;
#X obj 174 318 tabread4 \$0-mapping-table 11;
#X obj 434 163 vradio 15 1 0 8 \$1-lines \$1-lines-rcv empty 0 -8 0
10 -262144 -1 -1 0;
#X obj 172 292 +;
#X obj 236 257 + 1;
#X obj 1035 268 fid_sub_class class-\$1 \$0-pitch -1 -1;
#X msg 965 157 0;
#X obj 967 125 loadbang;
#X obj 380 286 change;
#X obj 383 314 t b;
#X obj 846 145 r \$1-enable_pitch;
#X obj 1002 216 select 0;
#X msg 943 230 1;
#X obj 276 538 r \$1-transpose;
#X obj 187 580 +;
#X obj 278 565 * 12;
#X obj 336 578 - 24;
#X obj 805 577 *~ 0.1;
#X msg 341 474 \$1;
#X msg 353 401 \$1 rearm;
#X obj 392 335 f;
#X msg 425 399 \$2 playAtSample \$1 \, \$2 gain \$3 15 \, \$2 pitch
\$4;
#X obj 478 350 pack f f f 1;
#X floatatom 598 284 5 0 0 0 - - -, f 5;
#X obj 416 593 outlet~;
#X obj 516 592 outlet~;
#X obj 687 8 r \$1-openwavtable;
#X obj 638 98 symbol \$0-sample;
#X obj 747 264 t b s;
#X obj 686 34 unpack s f;
#X obj 829 24 * 44.1;
#X obj 791 50 s \$0-length;
#X obj 1101 104 r \$1-length;
#X obj 1094 81 r \$1-table-stereo;
#X msg 782 319 read -resize \$1 \$2-1 \$2-1;
#X obj 924 395 table \$0-sample-1;
#X obj 933 425 table \$0-sample-2;
#X obj 975 518 tabplay~ \$0-sample-2;
#X obj 783 525 tabplay~ \$0-sample-1;
#X obj 1111 139 * 44.1;
#X obj 1073 165 s \$0-length;
#X obj 416 502 inst_pvoc/pvoc_read \$0;
#X obj 426 529 inst_pvoc/pvoc_read \$0;
#X obj 437 548 inst_pvoc/pvoc_read \$0;
#X obj 666 525 inst_pvoc/pvoc_read \$0;
#X connect 0 0 1 0;
#X connect 1 0 61 0;
#X connect 2 0 3 0;
#X connect 3 0 0 1;
#X connect 4 0 14 0;
#X connect 5 0 79 0;
#X connect 6 0 5 1;
#X connect 7 0 19 0;
#X connect 7 1 53 0;
#X connect 7 2 8 0;
#X connect 8 0 53 1;
#X connect 9 0 13 0;
#X connect 10 0 85 0;
#X connect 11 0 91 0;
#X connect 14 0 15 0;
#X connect 15 0 17 0;
#X connect 16 0 15 0;
#X connect 17 0 98 0;
#X connect 17 1 99 0;
#X connect 17 2 100 0;
#X connect 17 3 101 0;
#X connect 18 0 20 0;
#X connect 18 1 43 0;
#X connect 19 0 44 0;
#X connect 19 1 77 1;
#X connect 19 1 79 1;
#X connect 19 2 18 0;
#X connect 20 0 21 0;
#X connect 21 0 22 0;
#X connect 22 0 23 0;
#X connect 22 0 80 0;
#X connect 23 0 79 2;
#X connect 24 0 19 0;
#X connect 25 0 7 0;
#X connect 25 0 49 0;
#X connect 26 0 16 0;
#X connect 26 0 4 0;
#X connect 27 0 29 0;
#X connect 28 0 29 0;
#X connect 29 0 30 0;
#X connect 30 1 46 0;
#X connect 31 0 32 0;
#X connect 32 0 79 3;
#X connect 33 0 36 0;
#X connect 34 0 35 0;
#X connect 35 0 33 1;
#X connect 36 0 37 0;
#X connect 36 1 38 0;
#X connect 37 0 39 0;
#X connect 38 0 37 1;
#X connect 39 0 40 0;
#X connect 40 0 41 0;
#X connect 41 0 42 0;
#X connect 42 0 71 0;
#X connect 43 0 21 0;
#X connect 44 0 45 0;
#X connect 45 0 47 0;
#X connect 45 1 47 1;
#X connect 46 0 33 0;
#X connect 47 0 60 0;
#X connect 47 1 48 0;
#X connect 48 0 0 0;
#X connect 52 0 55 0;
#X connect 53 0 54 0;
#X connect 54 0 15 0;
#X connect 55 0 53 2;
#X connect 56 0 94 0;
#X connect 56 0 95 0;
#X connect 57 0 81 0;
#X connect 58 0 5 0;
#X connect 60 0 58 0;
#X connect 61 0 60 1;
#X connect 61 0 65 0;
#X connect 63 0 62 0;
#X connect 63 0 68 0;
#X connect 64 0 63 0;
#X connect 65 0 66 0;
#X connect 66 0 77 0;
#X connect 67 0 62 0;
#X connect 67 0 68 0;
#X connect 68 0 69 0;
#X connect 69 0 79 3;
#X connect 70 0 72 0;
#X connect 71 0 31 0;
#X connect 72 0 73 0;
#X connect 73 0 71 1;
#X connect 74 0 82 0;
#X connect 76 0 15 0;
#X connect 77 0 76 0;
#X connect 78 0 15 0;
#X connect 79 0 78 0;
#X connect 83 0 86 0;
#X connect 84 0 8 0;
#X connect 85 0 84 0;
#X connect 85 1 11 0;
#X connect 86 0 8 0;
#X connect 86 1 87 0;
#X connect 87 0 88 0;
#X connect 89 0 96 0;
#X connect 90 0 8 0;
#X connect 91 0 9 0;
#X connect 94 0 74 0;
#X connect 95 0 57 0;
#X connect 96 0 97 0;
#X connect 98 0 81 0;
#X connect 98 1 82 0;
#X connect 99 0 81 0;
#X connect 99 1 82 0;
#X connect 100 0 81 0;
#X connect 100 1 82 0;
#X connect 101 0 81 0;
#X connect 101 1 82 0;
#X restore 30 302 pd audio_stuff;
#X connect 7 0 2 0;
#X connect 8 0 28 0;
#X connect 14 0 16 0;
#X connect 15 0 14 0;
#X connect 18 1 17 0;
#X connect 19 0 18 0;
#X connect 25 0 27 0;
#X connect 26 0 35 0;
#X connect 27 0 26 0;
#X connect 28 0 29 0;
#X connect 29 0 31 0;
#X connect 31 0 32 0;
#X connect 32 0 25 0;
#X connect 33 0 34 0;
#X connect 35 0 36 0;
#X connect 36 0 37 0;
#X connect 37 0 38 0;
#X connect 38 0 39 0;
#X connect 39 0 40 0;
#X connect 40 0 41 0;
#X connect 41 0 42 0;
#X connect 42 0 43 0;
#X connect 43 0 33 0;
#X coords 0 -1 1 1 190 70 1 100 100;
