#N canvas 18 50 913 620 10;
#X obj 248 109 text define gui;
#X msg 250 84 read \$1;
#X obj 253 41 openpanel;
#X obj 245 22 bng 15 250 50 0 empty empty empty 17 7 0 10 -262144 -1
-1;
#X obj 86 127 text get gui;
#X obj 80 76 f;
#X obj 119 80 + 1;
#X msg 130 42 0;
#X obj 86 149 list trim;
#X obj 136 177 route #N #X;
#X obj 43 215 route canvas;
#X obj 121 290 +;
#X obj 121 312 f;
#X msg 83 245 1;
#X msg 163 258 -1;
#X obj 139 365 == 1;
#X obj 145 401 spigot;
#X floatatom 80 98 5 0 0 0 - - -, f 5;
#X floatatom 121 334 5 0 0 0 - - -, f 5;
#X obj 187 212 route restore obj;
#X obj 221 431 list split 2;
#X obj 252 461 list split 1;
#X obj 303 181 delay 1;
#X obj 263 520 select ui_vsl ui_vs tgl vsl vradio hsl hradio;
#X obj 155 464 list append;
#X obj 162 546 spigot;
#X obj 213 500 t s b;
#X msg 223 528 1;
#X msg 568 548 0;
#X obj 507 313 text define output;
#X obj 338 589 text set output;
#X msg 442 427 1e+006;
#X obj 442 405 loadbang;
#X obj 380 208 f;
#X obj 190 146 select 0 1 2;
#X obj 356 257 text get gui;
#X obj 73 18 t b b;
#X obj 35 14 bng 15 250 50 0 empty empty empty 17 7 0 10 -262144 -1
-1;
#X msg 434 226 0;
#X msg 522 275 write \$1;
#X obj 522 240 savepanel;
#X obj 525 203 bng 15 250 50 0 empty empty empty 17 7 0 10 -262144
-1 -1;
#X obj 162 568 list prepend #X obj;
#X msg 548 171 clear;
#X text 296 9 1 - Open patch;
#X text 78 0 2 - parse;
#X text 570 201 2 - save result as pd patch;
#X connect 1 0 0 0;
#X connect 2 0 1 0;
#X connect 3 0 2 0;
#X connect 3 0 7 0;
#X connect 4 0 8 0;
#X connect 4 1 34 0;
#X connect 5 0 6 0;
#X connect 5 0 4 0;
#X connect 5 0 17 0;
#X connect 5 0 33 1;
#X connect 6 0 5 1;
#X connect 7 0 11 1;
#X connect 7 0 5 1;
#X connect 8 0 9 0;
#X connect 9 0 10 0;
#X connect 9 1 19 0;
#X connect 10 0 13 0;
#X connect 11 0 12 0;
#X connect 12 0 11 1;
#X connect 12 0 15 0;
#X connect 12 0 18 0;
#X connect 13 0 11 0;
#X connect 14 0 11 0;
#X connect 15 0 16 1;
#X connect 16 0 20 0;
#X connect 19 0 14 0;
#X connect 19 1 16 0;
#X connect 20 0 24 0;
#X connect 20 1 21 0;
#X connect 20 1 24 1;
#X connect 21 0 26 0;
#X connect 22 0 5 0;
#X connect 23 7 28 0;
#X connect 24 0 25 0;
#X connect 25 0 42 0;
#X connect 26 0 23 0;
#X connect 26 1 27 0;
#X connect 27 0 25 1;
#X connect 28 0 25 1;
#X connect 31 0 30 1;
#X connect 32 0 31 0;
#X connect 33 0 35 0;
#X connect 34 0 22 0;
#X connect 34 1 22 0;
#X connect 34 2 33 0;
#X connect 35 0 30 0;
#X connect 36 0 5 0;
#X connect 36 1 38 0;
#X connect 37 0 36 0;
#X connect 38 0 35 0;
#X connect 39 0 29 0;
#X connect 40 0 39 0;
#X connect 41 0 40 0;
#X connect 42 0 30 0;
#X connect 43 0 29 0;
