#N canvas -26 27 924 629 10;
#X obj 601 349 textfile;
#X msg 484 256 clear;
#X obj 601 273 list prepend add;
#X obj 601 299 list trim;
#X obj 86 370 textfile;
#X obj 181 529 s SSSAD;
#X obj 86 312 until;
#X text 81 572 also received inside sssad;
#X obj 465 350 s SSSAD_ADMIN;
#X obj 601 205 r SSSAD_ADMIN;
#X obj 601 249 route persist;
#X obj 601 227 list trim;
#X msg 465 284 save;
#X msg 479 323 set;
#X obj 154 397 s SSSAD_ADMIN;
#X msg 154 372 set;
#X obj 446 133 savepanel;
#X msg 446 397 write \$1;
#X obj 6 24 bng 14 250 50 0 \$0-save_as empty save_as 17 7 0 14 -128992
-1 -1;
#X obj 86 268 t b a;
#X msg 133 313 read \$1 \, rewind;
#X obj 86 196 openpanel;
#X text 118 291 Avoid loops. A bang normally also works.;
#X obj 86 245 symbol;
#X text 40 597 Hint: get creative with the [OSCroute] external!;
#X obj 446 110 r \$0-save_as;
#X obj 374 110 r \$0-save;
#X obj 6 42 bng 14 250 50 0 \$0-save empty save 17 7 0 14 -128992 -66577
-1;
#X obj 6 60 bng 14 250 50 0 \$0-load empty load 17 7 0 14 -128992 -66577
-66577;
#X obj 86 173 r \$0-load;
#X obj 446 214 t a b b b;
#X obj 504 235 s SSSAD_SAVE;
#X obj 446 193 symbol;
#X obj 123 222 r \$0/filename;
#X obj 520 132 r \$0/filename;
#X obj 344 214 s \$0/filename;
#X obj 446 155 t s s;
#X text 154 174 if the load button is pressed;
#X text 372 93 if save or save as are clicked;
#X text 180 32 original patch by frank barknecht (sssad);
#X obj 556 475 s RJ_SCENE_SAVE;
#X msg 556 449 save;
#X obj 701 428 r RJ_SCENE;
#X obj 701 478 list trim;
#X obj 116 434 list trim;
#X obj 56 529 s RJ_SCENE_LOAD;
#X obj 40 500 list;
#X obj 137 459 route RJ_SCENE_LOAD;
#X obj 701 456 list prepend add RJ_SCENE_LOAD;
#X connect 1 0 0 0;
#X connect 2 0 3 0;
#X connect 3 0 0 0;
#X connect 4 0 44 0;
#X connect 4 1 6 1;
#X connect 4 1 15 0;
#X connect 6 0 4 0;
#X connect 9 0 11 0;
#X connect 10 0 2 0;
#X connect 11 0 10 0;
#X connect 12 0 8 0;
#X connect 13 0 8 0;
#X connect 15 0 14 0;
#X connect 16 0 36 0;
#X connect 17 0 0 0;
#X connect 19 0 6 0;
#X connect 19 1 20 0;
#X connect 20 0 4 0;
#X connect 21 0 23 0;
#X connect 23 0 19 0;
#X connect 25 0 16 0;
#X connect 26 0 32 0;
#X connect 29 0 21 0;
#X connect 30 0 17 0;
#X connect 30 1 12 0;
#X connect 30 1 41 0;
#X connect 30 2 1 0;
#X connect 30 3 31 0;
#X connect 32 0 30 0;
#X connect 33 0 23 1;
#X connect 34 0 32 1;
#X connect 36 0 35 0;
#X connect 36 1 32 0;
#X connect 41 0 40 0;
#X connect 42 0 48 0;
#X connect 43 0 0 0;
#X connect 44 0 47 0;
#X connect 46 0 45 0;
#X connect 47 0 46 0;
#X connect 47 1 5 0;
#X connect 48 0 43 0;
#X coords 0 -1 1 1 85 80 1 0 0;
