#N canvas 0 50 450 300 10;
#N canvas 706 159 1206 576 clock 0;
#X obj 237 459 i;
#X obj 253 494 change;
#N canvas 438 108 468 537 audio_feedback 0;
#X obj 132 400 *~;
#X obj 132 456 dac~;
#X obj 196 298 line~;
#X obj 186 213 t b b;
#X obj 239 248 del 5;
#X msg 242 271 0 5;
#X obj 75 351 osc~ 880;
#X obj 301 59 inlet;
#X obj 116 22 inlet;
#X msg 24 290 1600;
#X msg 80 292 880;
#X obj 146 81 spigot 0, f 25;
#X msg 173 249 0.1 5;
#X obj 173 150 mod 24;
#X obj 44 188 == 0;
#X obj 29 252 sel 1;
#X obj 71 155 mod 96;
#X obj 42 221 change;
#X obj 193 186 select 0;
#X obj 165 105 t f f;
#X connect 0 0 1 0;
#X connect 0 0 1 1;
#X connect 2 0 0 1;
#X connect 3 0 12 0;
#X connect 3 1 4 0;
#X connect 4 0 5 0;
#X connect 5 0 2 0;
#X connect 6 0 0 0;
#X connect 7 0 11 1;
#X connect 8 0 11 0;
#X connect 9 0 6 0;
#X connect 10 0 6 0;
#X connect 11 0 19 0;
#X connect 12 0 2 0;
#X connect 13 0 18 0;
#X connect 14 0 17 0;
#X connect 15 0 9 0;
#X connect 15 1 10 0;
#X connect 16 0 14 0;
#X connect 17 0 15 0;
#X connect 18 0 3 0;
#X connect 19 0 16 0;
#X connect 19 1 13 0;
#X restore 307 547 pd audio_feedback;
#X obj 311 26 midirealtimein;
#X obj 340 116 route 250 248 252;
#X obj 258 361 f;
#X obj 323 363 + 1;
#X obj 219 521 mod 4;
#X obj 251 527 div 4;
#X obj 249 557 + 1;
#X obj 209 554 + 1;
#X obj 237 437 / 24;
#X obj 428 139 s STOP;
#N canvas 0 50 727 534 tempo_calc 0;
#X obj 92 -2 inlet;
#X obj 89 119 t b b;
#X msg 86 200 60000 \$1;
#X obj 86 229 /;
#X obj 91 143 timer;
#X obj 66 335 +;
#X obj 91 170 moses 2000;
#X obj 65 370 + 0.5;
#X obj 69 405 int;
#X obj 94 438 t f f;
#X obj 69 573 s \$0-bpm-rcv;
#X text 286 501 si le tempo diverge trop \, passer outre le filtrage
pour atteindre la nouvelle valeur;
#X obj 47 485 change;
#X obj 197 568 outlet;
#X msg 51 536 set \$1;
#X obj 66 282 * 0.1;
#X obj 134 327 * 0.9;
#X floatatom 39 263 5 0 0 0 - - -, f 5;
#X floatatom 32 440 5 0 0 0 - - -, f 5;
#X obj 144 463 -;
#X obj 148 488 abs;
#X obj 193 505 > 1;
#X obj 263 431 change;
#X obj 284 172 select 1 0;
#X msg 312 238 1;
#X msg 330 272 0;
#X msg 386 247 0.1;
#X msg 403 276 0.9;
#X msg 253 136 1;
#X obj 96 254 t f;
#X obj 91 26 f;
#X obj 127 27 + 1;
#X obj 98 52 mod 24;
#X obj 93 78 select 0;
#X connect 0 0 30 0;
#X connect 1 0 4 0;
#X connect 1 1 4 1;
#X connect 2 0 3 0;
#X connect 3 0 17 0;
#X connect 3 0 29 0;
#X connect 4 0 6 0;
#X connect 5 0 7 0;
#X connect 5 0 16 0;
#X connect 6 0 2 0;
#X connect 6 1 28 0;
#X connect 7 0 8 0;
#X connect 8 0 9 0;
#X connect 8 0 12 0;
#X connect 8 0 18 0;
#X connect 9 0 19 1;
#X connect 9 1 19 0;
#X connect 12 0 13 0;
#X connect 12 0 14 0;
#X connect 14 0 10 0;
#X connect 15 0 5 0;
#X connect 16 0 5 1;
#X connect 19 0 20 0;
#X connect 20 0 21 0;
#X connect 21 0 22 0;
#X connect 22 0 23 0;
#X connect 23 0 24 0;
#X connect 23 0 25 0;
#X connect 23 1 26 0;
#X connect 23 1 27 0;
#X connect 24 0 15 1;
#X connect 25 0 16 1;
#X connect 25 0 5 1;
#X connect 26 0 15 1;
#X connect 27 0 16 1;
#X connect 28 0 23 0;
#X connect 29 0 15 0;
#X connect 30 0 32 0;
#X connect 31 0 30 1;
#X connect 32 0 31 0;
#X connect 32 0 33 0;
#X connect 33 0 1 0;
#X restore 403 222 pd tempo_calc;
#X obj 276 146 s PLAY;
#X floatatom 509 132 5 0 0 0 - - -, f 5;
#X obj 405 279 s BPM;
#X obj 239 206 r PLAY;
#X obj 385 163 t b b b;
#X obj 200 261 r \$0-localMetro;
#X msg 233 232 0;
#X obj 310 86 spigot 1;
#X obj 369 53 r \$0-slave;
#X obj 213 351 +;
#X msg 22 215 -2;
#X msg 44 279 2;
#X obj 102 140 cnv 15 118 60 empty \$0-bang-rcv empty 20 12 0 14 -262144
-262144 0;
#X floatatom 100 150 5 0 0 0 - - -, f 5;
#X floatatom 101 167 5 0 0 0 - CLOCK -, f 5;
#X floatatom 101 133 5 0 0 0 - - -, f 5;
#X floatatom 101 116 5 0 0 0 - - -, f 5;
#X floatatom 160 182 5 20 300 2 bpm #0-bpm-rcv #0-bpm, f 5;
#X obj 169 34 tgl 15 0 \$0-slave \$0-slave-rcv SYNC 17 7 0 10 -4032
-1 -1 0 1;
#X obj 138 185 bng 15 250 50 0 empty empty + 5 7 0 10 -4032 -1 -1;
#X obj 107 185 bng 15 250 50 0 empty empty -resync 5 7 0 10 -4032 -1
-1;
#X obj 459 468 t b b;
#X obj 575 541 s \$0-bang-rcv;
#X msg 579 502 color 0 0;
#X obj 467 510 delay 100;
#X msg 577 479 color 17 17;
#X obj 324 463 spigot;
#X obj 248 327 spigot;
#X obj 415 409 r PLAY;
#X obj 451 377 r STOP;
#X msg 371 418 1;
#X msg 444 437 0;
#X msg 341 362 0;
#X msg 70 435 248;
#X obj 186 405 t f f b;
#X obj 44 366 r PLAY;
#X obj 38 343 r STOP;
#X msg 50 389 250;
#X msg 32 432 252;
#N canvas 0 50 450 300 barre 0;
#X obj 239 15 key;
#X obj 239 48 select 32;
#X obj 41 169 r PLAY;
#X obj 116 172 r STOP;
#X msg 63 202 1;
#X msg 116 211 0;
#X obj 65 242 f;
#X obj 66 267 select 1 0;
#X obj 107 297 s PLAY;
#X obj 47 298 s STOP;
#X obj 239 80 r TRANSPORT;
#X obj 239 107 route spacebar;
#X obj 241 155 t b;
#X obj 303 166 spigot 1;
#X connect 0 0 1 0;
#X connect 1 0 13 0;
#X connect 2 0 4 0;
#X connect 3 0 5 0;
#X connect 4 0 6 1;
#X connect 5 0 6 1;
#X connect 6 0 7 0;
#X connect 7 0 9 0;
#X connect 7 1 8 0;
#X connect 10 0 11 0;
#X connect 11 0 12 0;
#X connect 12 0 13 0;
#X connect 13 0 6 0;
#X restore 710 19 pd barre _espace;
#N canvas 0 50 450 300 initialisation@120bpm 0;
#X obj 105 42 loadbang;
#X obj 110 100 s \$0-bpm-rcv;
#X msg 123 67 120;
#X msg 158 130 0;
#X obj 157 164 s \$0-slave-rcv;
#X connect 0 0 2 0;
#X connect 0 0 3 0;
#X connect 2 0 1 0;
#X connect 3 0 4 0;
#X restore 696 56 pd initialisation@120bpm;
#N canvas 561 56 588 536 local_clock 0;
#X obj 154 64 inlet;
#X obj 156 104 t b b;
#X obj 172 136 delay 200;
#X obj 235 220 change;
#X obj 282 295 r BPM;
#X msg 282 318 60000 \$1;
#X obj 182 363 spigot;
#X msg 188 186 1;
#X msg 226 170 0;
#X obj 106 296 r PLAY;
#X obj 164 252 r STOP;
#X msg 174 292 0;
#X obj 116 335 delay 100;
#X obj 282 344 /;
#X obj 282 371 / 24;
#X obj 214 443 s \$0-localMetro;
#X obj 213 394 metro 100;
#X obj 55 179 == 0;
#X obj 45 221 s \$0-slave-rcv;
#X msg 246 281 0;
#X msg 51 198 set \$1;
#X obj 272 185 == 0;
#X obj 299 65 r \$0-sync-mode;
#X obj 244 258 select 0 1;
#X connect 0 0 1 0;
#X connect 1 0 2 0;
#X connect 1 1 8 0;
#X connect 2 0 7 0;
#X connect 3 0 6 1;
#X connect 3 0 17 0;
#X connect 3 0 23 0;
#X connect 4 0 5 0;
#X connect 5 0 13 0;
#X connect 6 0 16 0;
#X connect 7 0 3 0;
#X connect 8 0 3 0;
#X connect 9 0 12 0;
#X connect 10 0 11 0;
#X connect 11 0 16 0;
#X connect 12 0 6 0;
#X connect 13 0 14 0;
#X connect 14 0 16 1;
#X connect 16 0 15 0;
#X connect 17 0 20 0;
#X connect 19 0 16 0;
#X connect 20 0 18 0;
#X connect 21 0 3 0;
#X connect 22 0 21 0;
#X connect 23 0 19 0;
#X connect 23 1 6 0;
#X restore 475 187 pd local_clock;
#N canvas 0 50 762 490 boutonPlayPause_Gui 0;
#X obj 47 86 r STOP;
#X obj 120 200 r PLAY;
#X obj 332 420 select 0 1;
#X obj 397 447 s PLAY;
#X obj 337 448 s STOP;
#X obj 357 380 spigot 1;
#X obj 34 274 s \$0-playBtn-rcv;
#X obj 359 349 r \$0-playBtn;
#X msg 45 116 set 0 \, label [> \, color 20 20 -1;
#X msg 119 237 set 1 \, label || \, color 16 16 -1;
#X connect 0 0 8 0;
#X connect 1 0 9 0;
#X connect 2 0 4 0;
#X connect 2 1 3 0;
#X connect 5 0 2 0;
#X connect 7 0 5 0;
#X connect 8 0 6 0;
#X connect 9 0 6 0;
#X restore 694 87 pd boutonPlayPause_Gui;
#X obj 207 168 tgl 30 0 empty empty click 1 14 0 10 -262144 -1 -1 0
1;
#X obj 32 469 spigot;
#X obj 23 535 midiout;
#X obj 703 118 r PLAY;
#X obj 703 143 t b b;
#X msg 703 168 1;
#X obj 643 118 r STOP;
#X msg 643 143 0;
#X msg 814 152 tempo \$1;
#X obj 559 231 r \$0-bpm;
#X obj 943 251 s BPM;
#X obj 959 373 s \$0-bpm-rcv;
#X msg 941 336 set \$1;
#X obj 148 101 vradio 15 1 1 3 \$0-sync-mode empty empty 0 -8 0 10
-4032 -1 -1 0;
#X obj 119 15 r \$0-sync-mode;
#X obj 107 42 == 1;
#X obj 928 47 r \$0-sync-mode;
#X obj 916 74 == 2;
#X msg 1033 128 connect \$1;
#X obj 914 102 change;
#X obj 774 555 s CLOCK;
#X obj 316 293 r \$0-sync-mode;
#X obj 309 324 == 1;
#X text 164 99 OFF;
#X text 163 113 SYNC;
#X obj 162 131 cnv 15 40 15 empty empty empty 20 12 0 14 -257985 -66577
0;
#X text 163 128 LINK;
#X obj 199 100 tgl 40 0 \$0-playBtn \$0-playBtn-rcv || 2 20 0 30 -24198
-24198 -1 0 1;
#X obj 277 400 s CLOCK;
#X obj 188 381 r CLOCK;
#X obj 746 531 bng 15 50 10 0 empty empty empty 17 7 0 10 -262144 -1
-1;
#X obj 398 334 r CLOCK;
#X obj 796 306 spigot;
#X obj 768 456 spigot;
#X floatatom 198 157 5 0 0 0 peers - -, f 5;
#X obj 767 429 spigot;
#X obj 892 432 select 0;
#X msg 834 439 1;
#X obj 261 35 r #abl_link_num_peers;
#X obj 934 491 bng 15 250 50 0 empty empty empty 17 7 0 10 -262144
-1 -1;
#X floatatom 798 204 5 0 0 0 - - -, f 5;
#X obj 967 493 spigot;
#X obj 967 518 t b b;
#X msg 1052 469 0;
#X msg 851 263 0;
#X obj 114 487 r \$0-midiout;
#X obj 100 100 ui_tgl \$0 midiout 1 -1 18;
#X obj 122 527 tgl 15 0 empty empty empty 17 7 0 10 -262144 -1 -1 0
1;
#X obj 798 179 abl_link~ 24 0 8 120;
#X obj 861 405 mod 192;
#X obj 782 377 t f f;
#X obj 771 502 +;
#X obj 845 490 f;
#X obj 845 515 + 192;
#X obj 1052 244 r QUANTUM;
#X msg 1060 282 reset 0 \$1;
#X obj 1095 321 * 24;
#X floatatom 198 139 5 0 0 0 quantum - QUANTUM, f 5;
#X obj 582 354 r QUANTUM;
#X obj 534 65 loadbang;
#X msg 534 90 4;
#N canvas 474 50 657 669 taptempo 0;
#X obj 134 170 timer;
#X obj 140 132 t b b;
#X obj 125 197 moses 4000;
#X obj 136 331 +;
#X obj 124 221 list append;
#X msg 158 421 60000 \$1;
#X obj 157 455 /;
#X msg 345 119 60000 \$1;
#X obj 344 153 /;
#X obj 124 244 list split 2;
#X msg 338 200 \$1 \$1;
#X obj 124 271 unpack f f;
#X obj 142 365 / 2;
#X obj 465 68 r BPM;
#X obj 315 541 s BPM;
#X obj 141 106 t b;
#X obj 96 59 r TAP;
#X floatatom 171 531 5 0 0 0 - - -, f 5;
#X obj 405 412 s \$0-bpm;
#X floatatom 409 373 5 0 0 0 - - -, f 5;
#X connect 0 0 2 0;
#X connect 1 0 0 0;
#X connect 1 1 0 1;
#X connect 2 0 4 0;
#X connect 3 0 12 0;
#X connect 4 0 9 0;
#X connect 5 0 6 0;
#X connect 6 0 14 0;
#X connect 6 0 17 0;
#X connect 6 0 18 0;
#X connect 7 0 8 0;
#X connect 8 0 10 0;
#X connect 9 0 4 1;
#X connect 9 0 11 0;
#X connect 9 2 4 1;
#X connect 10 0 4 1;
#X connect 11 0 3 0;
#X connect 11 1 3 1;
#X connect 12 0 5 0;
#X connect 13 0 7 0;
#X connect 15 0 1 0;
#X connect 16 0 15 0;
#X connect 19 0 18 0;
#X restore 481 27 pd taptempo;
#X obj 198 55 bng 30 250 50 0 TAP empty TAP 2 10 0 14 -262144 -1 -1
;
#X msg 995 6 offset \$1;
#X obj 1042 90 hsl 128 15 0 127 0 1 empty empty empty -2 -8 0 10 -262144
-1 -1 2200 1;
#X floatatom 1039 110 5 0 0 0 - - -, f 5;
#X text 918 405 (=8x24);
#X connect 0 0 1 0;
#X connect 1 0 7 0;
#X connect 1 0 8 0;
#X connect 1 0 27 0;
#X connect 1 0 35 0;
#X connect 3 0 21 0;
#X connect 4 0 14 0;
#X connect 4 1 18 0;
#X connect 4 2 12 0;
#X connect 5 0 23 1;
#X connect 5 0 85 0;
#X connect 6 0 5 1;
#X connect 7 0 10 0;
#X connect 8 0 9 0;
#X connect 9 0 30 0;
#X connect 10 0 29 0;
#X connect 11 0 0 0;
#X connect 13 0 16 0;
#X connect 17 0 20 0;
#X connect 17 0 46 0;
#X connect 18 0 5 0;
#X connect 18 1 13 0;
#X connect 18 2 55 0;
#X connect 19 0 5 0;
#X connect 20 0 41 0;
#X connect 21 0 4 0;
#X connect 22 0 21 1;
#X connect 23 0 5 1;
#X connect 24 0 23 0;
#X connect 25 0 23 0;
#X connect 33 0 25 0;
#X connect 34 0 24 0;
#X connect 35 0 38 0;
#X connect 35 1 39 0;
#X connect 37 0 36 0;
#X connect 38 0 37 0;
#X connect 39 0 36 0;
#X connect 40 0 2 0;
#X connect 41 0 5 1;
#X connect 42 0 44 0;
#X connect 43 0 45 0;
#X connect 44 0 40 1;
#X connect 45 0 40 1;
#X connect 46 0 5 1;
#X connect 47 0 58 0;
#X connect 48 0 11 0;
#X connect 48 1 40 0;
#X connect 48 2 47 0;
#X connect 49 0 51 0;
#X connect 50 0 52 0;
#X connect 51 0 58 0;
#X connect 52 0 58 0;
#X connect 57 0 2 1;
#X connect 58 0 59 0;
#X connect 60 0 61 0;
#X connect 61 0 62 0;
#X connect 62 0 89 1;
#X connect 62 0 98 1;
#X connect 63 0 64 0;
#X connect 64 0 89 1;
#X connect 64 0 92 1;
#X connect 64 0 109 1;
#X connect 65 0 105 0;
#X connect 66 0 16 0;
#X connect 66 0 65 0;
#X connect 69 0 68 0;
#X connect 71 0 72 0;
#X connect 72 0 32 0;
#X connect 73 0 74 0;
#X connect 74 0 76 0;
#X connect 75 0 105 0;
#X connect 76 0 75 0;
#X connect 76 0 90 1;
#X connect 78 0 79 0;
#X connect 79 0 41 1;
#X connect 86 0 48 0;
#X connect 88 0 6 0;
#X connect 89 0 107 0;
#X connect 90 0 108 0;
#X connect 92 0 90 0;
#X connect 93 0 94 0;
#X connect 93 0 96 0;
#X connect 93 0 98 0;
#X connect 93 0 109 0;
#X connect 94 0 92 1;
#X connect 95 0 91 0;
#X connect 98 0 99 0;
#X connect 99 0 101 0;
#X connect 99 1 100 0;
#X connect 100 0 98 1;
#X connect 102 0 58 1;
#X connect 102 0 104 0;
#X connect 105 0 97 0;
#X connect 105 0 89 0;
#X connect 105 3 67 0;
#X connect 105 3 69 0;
#X connect 106 0 93 0;
#X connect 107 0 92 0;
#X connect 107 1 106 0;
#X connect 108 0 77 0;
#X connect 109 0 108 1;
#X connect 109 0 110 0;
#X connect 110 0 109 1;
#X connect 111 0 112 0;
#X connect 111 0 113 0;
#X connect 112 0 105 0;
#X connect 113 0 106 1;
#X connect 113 0 110 1;
#X connect 115 0 8 1;
#X connect 115 0 7 1;
#X connect 116 0 117 0;
#X connect 117 0 114 0;
#X connect 120 0 105 0;
#X connect 121 0 120 0;
#X connect 121 0 122 0;
#X coords 0 -1 1 1 140 100 2 100 100;
#X restore 122 40 pd clock;
