#N canvas 0 50 542 520 10;
#X obj 104 101 hsl 128 16 0 127 0 0 \$0-snd \$0-rcv empty 10 7 0 10
-261682 -1 -1 0 0;
#X obj 130 206 r \$0-snd;
#N canvas 0 50 458 308 rh_scalelog 0;
#X obj 20 155 exp;
#X obj 20 107 *;
#X obj 20 130 +;
#X obj 98 87 log;
#X obj 194 84 log;
#X obj 123 123 t b f;
#X obj 123 145 -;
#X obj 20 183 outlet;
#X obj 20 19 inlet;
#X obj 98 23 inlet;
#X obj 194 24 inlet;
#X connect 0 0 7 0;
#X connect 1 0 2 0;
#X connect 2 0 0 0;
#X connect 3 0 2 1;
#X connect 3 0 5 0;
#X connect 4 0 6 0;
#X connect 5 0 6 0;
#X connect 5 1 6 1;
#X connect 6 0 1 1;
#X connect 8 0 1 0;
#X connect 9 0 3 0;
#X connect 10 0 4 0;
#X restore 130 267 pd rh_scalelog;
#X obj 225 190 f \$3;
#X obj 275 190 f \$4;
#X obj 265 126 loadbang;
#N canvas 0 50 458 308 inv_scalelog 0;
#X obj 98 87 log;
#X obj 194 84 log;
#X obj 123 123 t b f;
#X obj 123 145 -;
#X obj 20 183 outlet;
#X obj 20 19 inlet;
#X obj 98 23 inlet;
#X obj 194 24 inlet;
#X obj 34 65 log;
#X obj 20 130 -;
#X obj 20 156 /;
#X connect 0 0 2 0;
#X connect 0 0 9 1;
#X connect 1 0 3 0;
#X connect 2 0 3 0;
#X connect 2 1 3 1;
#X connect 3 0 10 1;
#X connect 5 0 8 0;
#X connect 6 0 0 0;
#X connect 7 0 1 0;
#X connect 8 0 9 0;
#X connect 9 0 10 0;
#X connect 10 0 4 0;
#X restore 156 336 pd inv_scalelog;
#X obj 131 232 / 127;
#X obj 117 412 s \$0-rcv;
#X msg 121 390 set \$1;
#X obj 177 364 * 127;
#X obj 129 291 s \$1-\$2;
#X obj 139 311 r \$1-\$2;
#X obj 324 277 list append \$2;
#X msg 326 316 label \$2=\$1;
#X obj 270 153 t b b b;
#X obj 333 191 list append \$2;
#X msg 363 359 label \$1;
#X connect 1 0 7 0;
#X connect 2 0 11 0;
#X connect 3 0 2 1;
#X connect 3 0 6 1;
#X connect 4 0 2 2;
#X connect 4 0 6 2;
#X connect 5 0 15 0;
#X connect 6 0 10 0;
#X connect 7 0 2 0;
#X connect 9 0 8 0;
#X connect 10 0 9 0;
#X connect 12 0 6 0;
#X connect 12 0 13 0;
#X connect 13 0 14 0;
#X connect 14 0 8 0;
#X connect 15 0 3 0;
#X connect 15 1 4 0;
#X connect 15 2 16 0;
#X connect 16 0 17 0;
#X connect 17 0 8 0;
#X coords 0 -1 1 1 135 18 2 100 100;
