#N canvas 65 59 991 595 10;
#X text 90 415 TODO;
#X text 25 450 sauvegarde;
#X text 27 473 multiple patterns;
#X obj 218 104 vsl 70 17 1 0 0 0 \$0-presets \$0-presets-rcv PRESETS
2 5 0 10 -232576 -232576 -1 0 1;
#X obj 864 284 unpack f f;
#X obj 474 461 s TO_VIDEO;
#X msg 537 331 1;
#X msg 885 466 note \$1 \$2;
#X obj 841 350 spigot;
#X obj 841 403 t b;
#X obj 228 150 bng 15 50 20 0 empty empty note_out 17 7 0 10 -262144
-1 -1;
#X obj 873 310 +;
#X obj 233 126 tgl 15 0 empty empty enable 17 7 0 10 -262144 -1 -1
0 1;
#X obj 964 354 r \$0-transpose;
#X obj 887 440 pack f f;
#X obj 371 17 r STOP;
#X msg 334 35 0;
#X msg 454 39 1;
#X obj 470 13 r PLAY;
#X obj 876 383 spigot;
#X obj 894 410 poly 16;
#X obj 421 371 t f f;
#X msg 976 411 stop;
#X obj 970 384 select 0;
#X obj 855 261 route note calibration_data;
#X obj 599 362 u_dispatch \$0 transpose;
#X msg 464 424 CYCLOGROOVE \$1 \, CYCLOGROOVE start \$1;
#X obj 848 239 r CYCLOGROOVE;
#X obj 598 294 module_loader data_cyclogroove \$0 \$1;
#X obj 98 320 inlet~;
#X obj 95 344 outlet~;
#X obj 158 320 inlet~;
#X obj 155 344 outlet~;
#X obj 205 496 inlet data;
#X obj 205 529 outlet data;
#X obj 473 109 r \$0-busy;
#X connect 4 0 11 0;
#X connect 4 1 8 1;
#X connect 4 1 20 1;
#X connect 6 0 26 0;
#X connect 7 0 34 0;
#X connect 8 0 9 0;
#X connect 9 0 10 0;
#X connect 11 0 8 0;
#X connect 11 0 19 0;
#X connect 12 0 21 0;
#X connect 13 0 11 1;
#X connect 14 0 7 0;
#X connect 15 0 16 0;
#X connect 16 0 12 0;
#X connect 17 0 12 0;
#X connect 18 0 17 0;
#X connect 19 0 20 0;
#X connect 20 1 14 0;
#X connect 20 2 14 1;
#X connect 21 0 26 0;
#X connect 21 1 19 1;
#X connect 21 1 23 0;
#X connect 22 0 20 0;
#X connect 23 0 22 0;
#X connect 24 0 4 0;
#X connect 26 0 5 0;
#X connect 27 0 24 0;
#X connect 29 0 30 0;
#X connect 31 0 32 0;
#X connect 33 0 34 0;
#X connect 35 0 12 0;
#X coords 0 -1 1 1 190 70 1 100 100;
