#N canvas 192 148 678 486 10;
#N canvas 172 83 586 377 LICENSE-GPL 0;
#X text 57 88 This program is free software: you can redistribute it
and/or modify it under the terms of the GNU General Public License
as published by the Free Software Foundation \, either version 3 of
the License \, or (at your option) any later version.;
#X text 58 168 This program is distributed in the hope that it will
be useful \, but WITHOUT ANY WARRANTY \; without even the implied warranty
of MERCHANTABILITY or FITNESS FOR A PARTICULAR PURPOSE. See the GNU
General Public License for more details.;
#X text 57 261 You should have received a copy of the GNU General Public
License along with this program. If not \, see <http://www.gnu.org/licenses/>.
;
#X text 61 54 Copyright (C) 2009 \, Reality Jockey Ltd.;
#X text 60 325 See the file LICENSE.txt for the full license text.
;
#X restore 298 15 pd LICENSE-GPL;
#X text 35 69 ui_hsl \$0 name min max;
#X obj 220 102 vsl 70 17 1 0 0 0 \$0-presets \$0-presets-rcv Reverb
2 7 0 10 -232576 -232576 -1 0 1;
#X text 51 17 vst_plug vst host;
#N canvas 726 50 601 548 plug_vst 0;
#X obj 75 336 outlet~;
#X obj 57 71 inlet~;
#X obj 134 334 outlet~;
#X obj 123 78 inlet~;
#X obj 125 181 vst~ 2 2;
#X obj 174 255 outlet;
#X msg 300 409 param 2 \$1;
#X msg 300 386 getparams;
#X msg 300 430 getparam 2;
#X obj 297 341 tgl 15 0 empty empty empty 0 -6 0 8 -225271 -1 -1 0
1;
#X msg 299 362 feedback \$1;
#X text 263 297 get parameter feedback through dump outlet;
#X msg 124 454 plug \$1;
#X obj 123 357 r \$0-plugname;
#X obj 248 460 delay 1000;
#X msg 249 483 getname;
#X obj 210 209 route name;
#X obj 252 252 symbol;
#X msg 312 261 label \$1;
#X obj 321 285 s \$0-name;
#X msg 493 253 label no-vst;
#X msg 20 124 getprograms;
#X msg 97 24 program \$1;
#X obj 29 3 hradio 15 1 0 8 empty empty empty 0 -8 0 10 -262144 -1
-1 3;
#X msg 215 65 getparams;
#X obj 349 126 route programs params param;
#X obj 518 70 table \$0-params;
#X msg 325 25 feedback 1 \, getprograms \, getparams;
#N canvas 0 144 1074 454 flush_params 0;
#X obj 121 47 inlet;
#X obj 234 221 s \$0-params;
#X msg 234 185 resize \$1;
#X obj 109 209 f;
#X obj 150 210 + 1;
#X msg 137 187 0;
#X obj 88 173 until;
#X obj 123 138 t b f f b;
#X obj 368 17 inlet;
#X msg 354 316 \$2 \$1;
#X obj 352 345 tabwrite \$0-params;
#X msg 115 242 getparam \$1;
#X obj 135 273 s \$0-vst_command;
#X obj 578 186 f;
#X obj 556 151 t b b b;
#X msg 665 197 0;
#X obj 578 208 until;
#X obj 582 233 f;
#X obj 632 234 + 1;
#X obj 575 283 tabread \$0-params;
#X obj 603 331 list;
#X obj 516 370 list append;
#X obj 549 404 s \$0-parameters;
#X obj 773 42 r \$0-parameters;
#X obj 771 217 list split 1;
#X obj 414 47 t l l;
#X obj 388 82 unpack f f;
#X obj 376 118 tabread \$0-params;
#X obj 402 253 list append;
#X obj 424 204 !=;
#X obj 414 231 select 1;
#X obj 427 304 t b;
#X obj 735 383 s \$0-vst_command;
#X obj 778 86 t b l b l;
#X obj 842 175 s \$0-params;
#X obj 855 144 list prepend 0;
#X obj 773 303 f;
#X obj 733 262 t f b;
#X obj 742 336 pack f f;
#X msg 733 360 param \$2 \$1;
#X obj 579 309 list prepend;
#X obj 841 299 - 1;
#X obj 249 142 s \$0-params_size;
#X obj 599 169 r \$0-params_size;
#X obj 819 239 r \$0-params_size;
#X obj 796 270 f 8;
#X obj 779 250 bng 15 250 50 0 empty empty empty 17 7 0 10 -262144
-1 -1;
#X obj 730 147 list append;
#X obj 544 110 delay 40;
#X obj 717 119 delay 100;
#X obj 979 239 list append;
#X obj 975 185 t b l;
#X obj 985 212 delay 0;
#X connect 0 0 7 0;
#X connect 2 0 1 0;
#X connect 3 0 4 0;
#X connect 3 0 11 0;
#X connect 4 0 3 1;
#X connect 5 0 3 1;
#X connect 6 0 3 0;
#X connect 7 1 6 0;
#X connect 7 2 2 0;
#X connect 7 2 42 0;
#X connect 7 3 5 0;
#X connect 8 0 25 0;
#X connect 9 0 10 0;
#X connect 11 0 12 0;
#X connect 13 0 16 0;
#X connect 14 0 21 0;
#X connect 14 1 13 0;
#X connect 14 2 15 0;
#X connect 14 2 40 1;
#X connect 15 0 17 1;
#X connect 16 0 17 0;
#X connect 17 0 18 0;
#X connect 17 0 19 0;
#X connect 18 0 17 1;
#X connect 19 0 40 0;
#X connect 20 0 40 1;
#X connect 21 0 22 0;
#X connect 23 0 33 0;
#X connect 24 0 37 0;
#X connect 24 1 51 0;
#X connect 25 0 26 0;
#X connect 25 1 28 1;
#X connect 26 0 27 0;
#X connect 26 1 29 1;
#X connect 27 0 29 0;
#X connect 28 0 9 0;
#X connect 28 0 31 0;
#X connect 29 0 30 0;
#X connect 30 0 28 0;
#X connect 31 0 48 0;
#X connect 33 0 49 0;
#X connect 33 1 47 1;
#X connect 33 2 45 0;
#X connect 33 3 35 0;
#X connect 35 0 34 0;
#X connect 36 0 38 1;
#X connect 36 0 41 0;
#X connect 37 0 38 0;
#X connect 37 1 36 0;
#X connect 38 0 39 0;
#X connect 39 0 32 0;
#X connect 40 0 20 0;
#X connect 40 0 21 1;
#X connect 41 0 36 1;
#X connect 43 0 13 1;
#X connect 44 0 45 1;
#X connect 45 0 41 0;
#X connect 46 0 45 0;
#X connect 47 0 24 0;
#X connect 48 0 14 0;
#X connect 49 0 47 0;
#X connect 50 0 24 0;
#X connect 51 0 52 0;
#X connect 51 1 50 1;
#X connect 52 0 50 0;
#X restore 405 152 pd flush_params;
#X obj 212 135 r \$0-vst_command;
#X obj 124 475 s \$0-vst_command;
#X obj 124 405 select symbol;
#X obj 123 379 symbol;
#X obj 246 438 t b s;
#X text 15 402 ne pas recharger;
#X obj 318 222 t b s b;
#X obj 457 210 r \$0-parameters;
#X obj 390 241 list append;
#X obj 393 267 s \$0-parameters;
#X text 265 14 sequencer stuff;
#X msg 30 180 events \$1;
#X obj 24 153 r \$0-midi_out;
#X obj 175 10 inlet;
#X connect 1 0 4 0;
#X connect 3 0 4 1;
#X connect 4 0 0 0;
#X connect 4 1 2 0;
#X connect 4 2 5 0;
#X connect 4 2 16 0;
#X connect 4 2 25 0;
#X connect 9 0 10 0;
#X connect 10 0 30 0;
#X connect 12 0 30 0;
#X connect 13 0 32 0;
#X connect 14 0 15 0;
#X connect 15 0 30 0;
#X connect 16 0 17 0;
#X connect 17 0 35 0;
#X connect 18 0 19 0;
#X connect 20 0 19 0;
#X connect 21 0 4 0;
#X connect 22 0 4 0;
#X connect 23 0 22 0;
#X connect 24 0 4 0;
#X connect 25 1 28 0;
#X connect 25 2 28 1;
#X connect 27 0 4 0;
#X connect 29 0 4 0;
#X connect 31 1 12 0;
#X connect 31 1 33 0;
#X connect 32 0 31 0;
#X connect 33 0 14 0;
#X connect 33 1 31 1;
#X connect 35 0 27 0;
#X connect 35 0 24 0;
#X connect 35 1 18 0;
#X connect 35 2 37 0;
#X connect 36 0 37 1;
#X connect 40 0 4 0;
#X connect 41 0 40 0;
#X connect 42 0 4 0;
#X coords 0 548 1 547 85 60 0;
#X restore 30 284 pd plug_vst;
#X text 274 266 set/get plugin;
#X obj 226 128 bng 25 250 50 0 empty empty empty 0 -6 0 8 -261689 -1
-1;
#X obj 254 277 openpanel;
#X obj 254 298 s \$0-plugname;
#X obj 260 123 tgl 30 0 empty empty empty 0 -6 0 8 -261689 -1 -1 0
1;
#X text 433 106 display edit window;
#X obj 348 127 pipe 100;
#X obj 402 315 u_dispatch \$0 plugname;
#X obj 510 347 r \$0-presets;
#X obj 509 379 t b;
#X msg 328 56 0;
#X obj 349 92 change;
#X obj 101 154 cnv 15 100 15 empty \$0-name empty 2 7 0 10 -233017
-66577 0;
#X msg 348 149 edit \$1;
#X obj 348 176 s \$0-vst_command;
#X obj 399 364 u_dispatch \$0 parameters;
#X obj 176 363 route event;
#X obj 188 396 route midi;
#X msg 187 452 note \$2 \$3;
#X msg 285 451 note \$2 0;
#X obj 165 120 tgl 15 0 \$0-midi_out \$0-midi_out-rcv midi_out 17 7
0 10 -262144 -1 -1 0 1;
#X obj 401 402 u_parameter \$0 midi_out;
#X obj 358 385 print;
#X obj 191 422 route note noteoff ctlchg;
#X obj 496 442 s CTLIN;
#X msg 381 443 \$3 \$2;
#X obj 39 353 route note;
#X msg 72 399 note \$1 \$2;
#N canvas 695 50 498 655 seq 0;
#X msg 112 78 samplepos \$1;
#X obj 111 60 nbx 5 14 0 1e+037 0 0 empty empty empty 0 -6 0 10 -225271
-1 -1 0 256;
#X msg 224 77 getsamplepos;
#X obj 111 108 nbx 5 14 0 1e+037 0 0 empty empty empty 0 -6 0 10 -225271
-1 -1 0 256;
#X msg 112 126 ppqpos \$1;
#X msg 199 127 getppqpos;
#X obj 111 153 nbx 5 14 5 400 0 1 empty empty empty 0 -6 0 10 -225271
-1 -1 120 256;
#X msg 112 171 tempo \$1;
#X msg 199 172 gettempo;
#X msg 113 28 playing \$1;
#X msg 203 28 getplaying;
#X obj 112 -1 tgl 25 0 empty empty empty 0 -6 0 8 -225271 -1 -1 0 1
;
#X obj 109 218 tgl 25 0 empty empty empty 0 -6 0 8 -225271 -1 -1 0
1;
#X msg 110 247 looping \$1;
#X msg 200 247 getlooping;
#X obj 111 275 nbx 5 14 0 1e+037 0 0 empty empty empty 0 -6 0 10 -225271
-1 -1 0 256;
#X msg 112 293 loopstart \$1;
#X msg 222 293 getloopstart;
#X obj 111 319 nbx 5 14 0 1e+037 0 0 empty empty empty 0 -6 0 10 -225271
-1 -1 0 256;
#X msg 112 337 loopend \$1;
#X msg 222 337 getloopend;
#X obj 111 363 nbx 5 14 0 1e+037 0 0 empty empty empty 0 -6 0 10 -225271
-1 -1 0 256;
#X msg 112 379 looplength \$1;
#X msg 227 379 getlooplength;
#X obj 115 521 nbx 5 14 0 1e+037 0 0 empty empty empty 0 -6 0 10 -225271
-1 -1 0 256;
#X msg 116 537 smpteoffset \$1;
#X msg 238 537 getsmpteoffset;
#X msg 116 579 smpterate \$1;
#X msg 230 579 getsmpterate;
#X obj 116 562 hradio 15 1 0 6 empty empty empty 0 -6 0 8 -225271 -1
-1 0;
#X text 230 561 24/25/24/30/29.97df/30df;
#X obj 112 415 nbx 5 14 1 128 0 1 empty empty empty 0 -6 0 10 -225271
-1 -1 4 256;
#X msg 113 433 timenom \$1;
#X msg 205 434 gettimenom;
#X obj 113 455 nbx 5 14 1 128 0 1 empty empty empty 0 -6 0 10 -225271
-1 -1 4 256;
#X msg 114 473 timeden \$1;
#X msg 206 474 gettimeden;
#X text 300 423 time signature;
#X text 302 438 nominator;
#X text 302 476 denominator;
#X text 284 161 tempo in quarters per minute;
#X obj 17 225 outlet;
#X obj 327 6 r PLAY;
#X obj 370 14 r STOP, f 11;
#X msg 333 62 1;
#X msg 390 71 0;
#X obj 319 130 r BPM;
#X obj 392 101 r CLOCK;
#X obj 400 175 select 0;
#X obj 394 134 mod 24;
#X msg 399 205 0;
#X obj 377 244 bng 15 250 50 0 empty empty empty 17 7 0 10 -262144
-1 -1;
#X obj 364 267 bng 15 250 50 0 empty empty empty 17 7 0 10 -262144
-1 -1;
#X obj 364 267 bng 15 250 50 0 empty empty empty 17 7 0 10 -262144
-1 -1;
#X obj 384 256 bng 15 250 50 0 empty empty empty 17 7 0 10 -262144
-1 -1;
#X connect 0 0 41 0;
#X connect 1 0 0 0;
#X connect 2 0 41 0;
#X connect 3 0 4 0;
#X connect 4 0 41 0;
#X connect 5 0 41 0;
#X connect 6 0 7 0;
#X connect 7 0 41 0;
#X connect 8 0 41 0;
#X connect 9 0 41 0;
#X connect 10 0 41 0;
#X connect 11 0 9 0;
#X connect 12 0 13 0;
#X connect 13 0 41 0;
#X connect 14 0 41 0;
#X connect 15 0 16 0;
#X connect 16 0 41 0;
#X connect 17 0 41 0;
#X connect 18 0 19 0;
#X connect 19 0 41 0;
#X connect 20 0 41 0;
#X connect 21 0 22 0;
#X connect 22 0 41 0;
#X connect 23 0 41 0;
#X connect 24 0 25 0;
#X connect 25 0 41 0;
#X connect 26 0 41 0;
#X connect 27 0 41 0;
#X connect 28 0 41 0;
#X connect 29 0 27 0;
#X connect 31 0 32 0;
#X connect 32 0 41 0;
#X connect 33 0 41 0;
#X connect 34 0 35 0;
#X connect 35 0 41 0;
#X connect 36 0 41 0;
#X connect 42 0 44 0;
#X connect 43 0 45 0;
#X connect 44 0 11 0;
#X connect 45 0 11 0;
#X connect 46 0 6 0;
#X connect 47 0 49 0;
#X connect 48 0 50 0;
#X connect 49 0 48 0;
#X connect 50 0 4 0;
#X restore 119 185 pd seq;
#X obj 14 222 inlet~;
#X obj 2 316 outlet~;
#X obj 71 228 inlet~;
#X obj 82 321 outlet~;
#X obj 133 243 inlet data;
#X obj 132 280 outlet data;
#X obj 402 263 module_loader fx_vst \$0 \$1;
#X connect 4 0 35 0;
#X connect 4 1 37 0;
#X connect 4 2 21 0;
#X connect 6 0 7 0;
#X connect 6 0 15 0;
#X connect 7 0 8 0;
#X connect 9 0 16 0;
#X connect 11 0 18 0;
#X connect 12 0 20 0;
#X connect 13 0 14 0;
#X connect 14 0 15 0;
#X connect 15 0 9 0;
#X connect 16 0 11 0;
#X connect 18 0 19 0;
#X connect 20 0 26 0;
#X connect 21 0 22 0;
#X connect 22 0 28 0;
#X connect 23 0 39 0;
#X connect 24 0 39 0;
#X connect 28 0 23 0;
#X connect 28 1 24 0;
#X connect 28 2 30 0;
#X connect 30 0 29 0;
#X connect 31 0 32 0;
#X connect 32 0 4 2;
#X connect 33 0 4 2;
#X connect 34 0 4 0;
#X connect 36 0 4 1;
#X connect 38 0 31 0;
#X connect 38 0 39 0;
#X connect 40 0 12 0;
#X coords 0 -1 1 1 190 70 1 100 100;
