#N canvas 773 161 450 300 10;
#N canvas 0 50 450 300 pair 0;
#X obj 211 65 inlet;
#X obj 210 218 outlet;
#X obj 241 109 t f b f;
#X obj 237 146 f;
#X obj 237 168 pack f f;
#X connect 0 0 2 0;
#X connect 2 0 3 1;
#X connect 2 1 3 0;
#X connect 2 2 4 1;
#X connect 3 0 4 0;
#X connect 4 0 1 0;
#X restore 80 60 pd pair;
#X msg 85 104 merge \$1 \$2;
#X msg 256 125 clear;
#X msg 28 115 dump;
#X msg 99 9 1 \, 2 \, 2 \, 1 \, 3 \, 3 \, 3 \, 2 \, 3 \, 3 \, 1 \,
5 \, 7 \, 4;
#N canvas 840 212 450 430 markovPitchGenerate 1;
#X obj 64 21 inlet;
#X obj 140 21 inlet;
#X obj 70 77 f;
#X msg 234 48 next;
#X obj 64 43 t b;
#X text 135 0 choose start pitch;
#X obj 70 99 t f f;
#X obj 70 143 list length;
#X obj 70 165 t b f;
#X obj 70 187 random;
#X obj 70 209 + 1;
#X obj 70 231 pack f f;
#X msg 70 253 nth \$2 \$1;
#X obj 70 303 outlet;
#X obj 232 76 cyclone/coll \$0-pitchMatrix;
#C restore;
#X obj 70 121 cyclone/coll \$0-pitchMatrix;
#C restore;
#X obj 70 281 cyclone/coll \$0-pitchMatrix;
#C restore;
#X obj 234 26 r \$0-finished;
#X connect 0 0 4 0;
#X connect 1 0 2 1;
#X connect 2 0 6 0;
#X connect 3 0 14 0;
#X connect 4 0 2 0;
#X connect 6 0 15 0;
#X connect 6 1 11 1;
#X connect 7 0 8 0;
#X connect 8 0 9 0;
#X connect 8 1 9 1;
#X connect 9 0 10 0;
#X connect 10 0 11 0;
#X connect 11 0 12 0;
#X connect 12 0 16 0;
#X connect 14 0 2 1;
#X connect 15 0 7 0;
#X connect 16 0 13 0;
#X connect 16 0 2 1;
#X connect 17 0 3 0;
#X restore 119 233 pd markovPitchGenerate;
#X obj 84 152 cyclone/coll \$0-pitchMatrix;
#C restore;
#X obj 256 103 r \$0-resetMatrix;
#X connect 0 0 1 0;
#X connect 1 0 6 0;
#X connect 2 0 6 0;
#X connect 3 0 6 0;
#X connect 4 0 0 0;
#X connect 7 0 2 0;
