#N canvas 319 133 678 486 10;
#X obj 446 226 switch~;
#X obj 80 475 stereo_inlet~ \$0;
#X obj 80 505 stereo_outlet~ \$0;
#X obj 252 224 data_inlet \$0;
#X obj 210 464 data_outlet \$0;
#X obj 454 278 module_loader data_markov \$0;
#X obj 447 163 module_declare data_markov \$0;
#X obj 239 118 bng 30 250 50 0 \$0-resetMatrix empty RESET 2 7 0 10
-262144 -1 -1;
#X obj 201 118 tgl 30 0 \$0-learn \$0-learn-rcv LEARN 2 7 0 10 -262144
-1 -1 0 1;
#X obj 260 285 spigot;
#X obj 252 246 route note;
#X obj 260 307 unpack f f;
#X obj 271 337 spigot;
#X obj 338 269 r \$0-learn;
#N canvas 840 212 450 430 markovPitchGenerate 0;
#X obj 64 21 inlet;
#X obj 140 21 inlet;
#X obj 70 77 f;
#X msg 234 48 next;
#X obj 64 43 t b;
#X text 135 0 choose start pitch;
#X obj 70 99 t f f;
#X obj 70 143 list length;
#X obj 70 165 t b f;
#X obj 70 187 random;
#X obj 70 209 + 1;
#X obj 70 231 pack f f;
#X msg 70 253 nth \$2 \$1;
#X obj 70 303 outlet;
#X obj 232 76 cyclone/coll \$0-pitchMatrix;
#C restore;
#X obj 70 121 cyclone/coll \$0-pitchMatrix;
#C restore;
#X obj 70 281 cyclone/coll \$0-pitchMatrix;
#C restore;
#X obj 234 26 r \$0-finished;
#X connect 0 0 4 0;
#X connect 1 0 2 1;
#X connect 2 0 6 0;
#X connect 3 0 14 0;
#X connect 4 0 2 0;
#X connect 6 0 15 0;
#X connect 6 1 11 1;
#X connect 7 0 8 0;
#X connect 8 0 9 0;
#X connect 8 1 9 1;
#X connect 9 0 10 0;
#X connect 10 0 11 0;
#X connect 11 0 12 0;
#X connect 12 0 16 0;
#X connect 14 0 2 1;
#X connect 15 0 7 0;
#X connect 16 0 13 0;
#X connect 16 0 2 1;
#X connect 17 0 3 0;
#X restore 37 318 pd markovPitchGenerate;
#N canvas 0 50 450 300 markovAnalyse 0;
#N canvas 0 50 450 300 pair 0;
#X obj 211 65 inlet;
#X obj 210 218 outlet;
#X obj 241 109 t f b f;
#X obj 237 146 f;
#X obj 237 168 pack f f;
#X connect 0 0 2 0;
#X connect 2 0 3 1;
#X connect 2 1 3 0;
#X connect 2 2 4 1;
#X connect 3 0 4 0;
#X connect 4 0 1 0;
#X restore 80 60 pd pair;
#X msg 85 104 merge \$1 \$2;
#X msg 256 125 clear;
#X msg 28 115 dump;
#X msg 99 9 1 \, 2 \, 2 \, 1 \, 3 \, 3 \, 3 \, 2 \, 3 \, 3 \, 1 \,
5 \, 7 \, 4;
#X obj 84 152 cyclone/coll \$0-pitchMatrix;
#C restore;
#X obj 256 103 r \$0-resetMatrix;
#X obj 34 20 inlet;
#X connect 0 0 1 0;
#X connect 1 0 5 0;
#X connect 2 0 5 0;
#X connect 3 0 5 0;
#X connect 4 0 0 0;
#X connect 6 0 2 0;
#X connect 7 0 0 0;
#X restore 245 421 pd markovAnalyse;
#X text 320 37 http://www.algorithmiccomposer.com/2010/05/algorithmic-composition-tutorial-markov.html
;
#X obj 46 220 r CLOCK;
#X obj 46 242 mod 24;
#X obj 46 264 select 0;
#X obj 22 133 notein 1;
#X obj 53 183 pack f f;
#X obj 42 157 spigot;
#X obj 67 28 r \$0-midiNoteIn;
#X obj 249 146 tgl 15 0 \$0-midiNoteIn \$0-midiNoteIn-rcv midiNoteIn
-50 7 0 10 -262144 -1 -1 0 1;
#X obj 44 420 list prepend note;
#X obj 44 442 list trim;
#X obj 44 390 pack f f;
#X floatatom 109 150 5 0 0 0 - - -, f 5;
#X obj 165 326 f;
#X obj 156 137 bng 15 250 50 0 \$0-start empty start 17 7 0 10 -262144
-1 -1;
#X obj 44 368 makenote 100 600;
#X obj 465 334 midi-colors \$0 learn \$0-learn-rcv;
#X obj 469 360 > 64;
#X obj 483 97 r \$0-learn;
#X obj 476 128 tgl 15 0 empty empty empty 17 7 0 10 -262144 -1 -1 0
1;
#X obj 469 382 change;
#X obj 433 415 s \$0-learn;
#X msg 539 392 set \$1;
#X obj 543 415 s \$0-learn-rcv;
#X obj 156 154 tgl 15 0 \$0-pause \$0-pause-rcv pause 17 7 0 10 -262144
-1 -1 0 1;
#X obj 46 286 spigot 1;
#X obj 130 266 == 0;
#X obj 102 304 r \$0-start;
#X obj 122 227 r \$0-pause;
#X obj 373 312 select 0;
#X obj 348 354 timer;
#X obj 415 355 t b;
#X obj 293 370 f;
#X obj 365 378 > 100;
#X obj 365 400 select 1;
#X floatatom 293 392 5 0 0 0 - - -, f 5;
#X obj 170 267 unpack f f;
#X obj 181 297 spigot;
#X obj 58 341 t f b;
#X obj 115 350 random 10;
#X obj 198 361 + 90;
#X connect 1 0 2 0;
#X connect 1 1 2 1;
#X connect 3 0 10 0;
#X connect 6 0 0 0;
#X connect 9 0 11 0;
#X connect 10 0 9 0;
#X connect 10 0 25 0;
#X connect 10 0 52 0;
#X connect 10 1 4 0;
#X connect 11 0 12 0;
#X connect 11 1 12 1;
#X connect 11 1 45 0;
#X connect 12 0 48 1;
#X connect 13 0 9 1;
#X connect 14 0 28 0;
#X connect 14 0 54 0;
#X connect 17 0 18 0;
#X connect 18 0 19 0;
#X connect 19 0 41 0;
#X connect 20 0 22 0;
#X connect 20 1 21 1;
#X connect 21 0 9 0;
#X connect 21 0 25 0;
#X connect 22 0 21 0;
#X connect 23 0 22 1;
#X connect 25 0 26 0;
#X connect 26 0 4 0;
#X connect 27 0 25 0;
#X connect 29 0 14 1;
#X connect 31 0 27 0;
#X connect 31 1 27 1;
#X connect 32 0 33 0;
#X connect 33 0 36 0;
#X connect 34 0 35 0;
#X connect 36 0 37 0;
#X connect 36 0 38 0;
#X connect 38 0 39 0;
#X connect 41 0 14 0;
#X connect 42 0 41 1;
#X connect 43 0 29 0;
#X connect 44 0 42 0;
#X connect 45 0 46 1;
#X connect 45 1 47 0;
#X connect 46 0 49 0;
#X connect 47 0 46 0;
#X connect 48 0 15 0;
#X connect 48 0 51 0;
#X connect 49 0 50 0;
#X connect 50 0 48 0;
#X connect 52 0 53 0;
#X connect 52 1 53 1;
#X connect 53 0 29 1;
#X connect 54 0 31 0;
#X connect 54 1 55 0;
#X connect 55 0 56 0;
#X connect 56 0 31 1;
#X coords 0 -1 1 1 190 70 1 100 100;
