#N canvas 0 50 798 475 10;
#N canvas 0 50 671 538 reverse-line~ 0;
#X obj 35 206 line~;
#X msg 21 159 0;
#X obj 135 331 *~;
#X obj 240 222 line~;
#X msg 161 177 \$1 5;
#X obj 207 338 *~;
#X obj 492 81 select 1 0;
#X obj 95 145 delay 10;
#X msg 90 115 stop;
#X msg 439 168 0;
#X msg 386 163 stop;
#X obj 42 254 delwrite~ \$0-dell 20000;
#X obj 471 138 delay 10000;
#X msg 233 135 20000 10000;
#X obj 24 288 delread4~ \$0-dell;
#X obj 199 264 -~ 1;
#X obj 199 286 *~ -1;
#X obj 94 203 inlet~;
#X obj 128 399 outlet~;
#X obj 546 251 outlet;
#X obj 503 36 inlet;
#X obj 385 341 *~;
#X obj 457 348 *~;
#X obj 344 213 inlet~;
#X obj 378 409 outlet~;
#X obj 292 264 delwrite~ \$0-delr 20000;
#X obj 274 298 delread4~ \$0-delr;
#X connect 0 0 14 0;
#X connect 0 0 26 0;
#X connect 1 0 0 0;
#X connect 2 0 18 0;
#X connect 3 0 2 1;
#X connect 3 0 15 0;
#X connect 3 0 21 1;
#X connect 4 0 3 0;
#X connect 5 0 18 0;
#X connect 6 0 13 0;
#X connect 6 0 8 0;
#X connect 6 0 12 0;
#X connect 6 1 7 0;
#X connect 6 1 10 0;
#X connect 7 0 1 0;
#X connect 8 0 7 0;
#X connect 9 0 19 0;
#X connect 10 0 12 0;
#X connect 12 0 9 0;
#X connect 13 0 0 0;
#X connect 14 0 2 0;
#X connect 15 0 16 0;
#X connect 16 0 5 1;
#X connect 16 0 22 1;
#X connect 17 0 5 0;
#X connect 17 0 11 0;
#X connect 20 0 6 0;
#X connect 20 0 4 0;
#X connect 21 0 24 0;
#X connect 22 0 24 0;
#X connect 23 0 22 0;
#X connect 23 0 25 0;
#X connect 26 0 21 0;
#X restore 325 159 pd reverse-line~;
#X obj 436 134 tgl 15 0 empty empty empty 17 7 0 10 -262144 -1 -1 0
1;
#X connect 0 2 1 0;
#X connect 1 0 0 2;
