#N canvas 0 50 957 591 10;
#X obj 38 138 r MORPH;
#X obj 306 199 r MORPH-setA;
#X obj 427 197 r MORPH-setB;
#X obj 352 305 f;
#X obj 485 308 f;
#X obj 87 92 u_dispatch \$1 A_\$2;
#X obj 250 93 u_dispatch \$1 B_\$2;
#X obj 114 138 r \$1-A_\$2;
#X obj 203 142 r \$1-B_\$2;
#X obj 39 490 s \$1-\$2;
#X obj 398 265 r \$1-\$2;
#X obj 358 340 s \$1-A_\$2;
#X obj 474 338 s \$1-B_\$2;
#X obj 38 464 expr $f1*$f3+(1-$f1)*$f2;
#X msg 71 214 1;
#X obj 79 239 &&;
#X msg 109 218 1;
#X obj 111 193 t b b;
#X obj 39 262 spigot;
#X obj 39 313 list prepend \$3;
#X obj 39 335 list trim;
#N canvas 0 50 462 312 rh_scalelog 0;
#X obj 20 155 exp;
#X obj 20 107 *;
#X obj 20 130 +;
#X obj 98 87 log;
#X obj 194 84 log;
#X obj 123 123 t b f;
#X obj 123 145 -;
#X obj 20 183 outlet;
#X obj 20 19 inlet;
#X obj 98 23 inlet;
#X obj 194 24 inlet;
#X connect 0 0 7 0;
#X connect 1 0 2 0;
#X connect 2 0 0 0;
#X connect 3 0 2 1;
#X connect 3 0 5 0;
#X connect 4 0 6 0;
#X connect 5 0 6 0;
#X connect 5 1 6 1;
#X connect 6 0 1 1;
#X connect 8 0 1 0;
#X connect 9 0 3 0;
#X connect 10 0 4 0;
#X restore 239 467 pd rh_scalelog;
#X obj 138 389 route lin log;
#X obj 37 362 route 0;
#X connect 0 0 18 0;
#X connect 1 0 3 0;
#X connect 2 0 4 0;
#X connect 3 0 11 0;
#X connect 4 0 12 0;
#X connect 7 0 13 1;
#X connect 7 0 14 0;
#X connect 7 0 21 1;
#X connect 8 0 13 2;
#X connect 8 0 17 0;
#X connect 8 0 21 2;
#X connect 10 0 3 1;
#X connect 10 0 4 1;
#X connect 13 0 9 0;
#X connect 14 0 15 0;
#X connect 15 0 18 1;
#X connect 16 0 15 1;
#X connect 17 0 15 0;
#X connect 17 1 16 0;
#X connect 18 0 19 0;
#X connect 19 0 20 0;
#X connect 20 0 23 0;
#X connect 21 0 9 0;
#X connect 22 0 13 0;
#X connect 22 1 21 0;
#X connect 23 0 13 0;
#X connect 23 1 22 0;
#X coords 0 591 1 590 190 70 0;
