#N canvas 338 22 401 347 10;
#X obj -5 32 inlet;
#X obj 151 32 inlet;
#X obj -5 172 ../generics/join_path;
#X obj 151 234 symbol \$1;
#X obj 151 256 ../generics/join_path;
#X obj 151 209 t b a;
#X obj 151 72 t a a;
#X obj 151 280 outlet toRecorderInlet4;
#X obj -5 280 outlet toSaveSf1;
#X connect 0 0 2 0;
#X connect 1 0 6 0;
#X connect 2 0 8 0;
#X connect 3 0 4 0;
#X connect 4 0 7 0;
#X connect 5 0 3 0;
#X connect 5 1 4 1;
#X connect 6 0 5 0;
#X connect 6 1 2 1;
