#N canvas 784 28 560 787 10;
#X obj 0 25 inlet~;
#X obj 1 612 *~;
#X obj 104 548 *~;
#X obj 104 571 *~;
#X obj 104 525 vline~;
#X obj 103 156 sel 1 0;
#X msg 104 477 0 \, 1 5;
#X msg 150 477 1 \, 0 5;
#X obj 122 234 del 5;
#X msg 349 453 stop;
#X msg 117 419 start;
#X obj 103 125 change;
#X obj 122 207 t b b;
#X obj 305 443 timer;
#X obj 305 594 /;
#X obj 332 418 metro 50;
#X msg 360 392 0;
#X msg 332 391 1;
#X obj 103 27 inlet;
#X obj 134 730 outlet;
#X obj 304 623 t a a;
#X obj 304 678 change;
#X obj 304 703 sel 1;
#X msg 167 82 0;
#X obj 304 647 >= 1;
#X obj 1 657 writesf~;
#X obj 400 32 inlet;
#X obj 320 547 /;
#X obj 318 484 samplerate~;
#X obj 320 571 * 1000;
#X obj 400 72 s \$0-path;
#X obj 187 386 symbol;
#X obj 320 526 * 600;
#X obj 320 504 t f f;
#X obj 104 323 t b b b b b b b;
#X obj 220 358 r \$0-path;
#X msg 200 476 1 \, 0 5;
#X obj 104 446 delay 6;
#X msg 187 412 open -bytes 4 \$1;
#X obj 484 25 inlet time;
#X obj 124 662 symbol;
#X obj 157 634 r \$0-path;
#X obj 419 727 outlet;
#X msg 419 700 list recSound 0;
#X obj 122 260 t b b b b;
#X msg 429 665 list loadSound \$1;
#X obj 134 687 t a a;
#X connect 0 0 1 0;
#X connect 1 0 25 0;
#X connect 2 0 3 1;
#X connect 2 0 3 0;
#X connect 3 0 1 1;
#X connect 4 0 2 0;
#X connect 4 0 2 1;
#X connect 5 0 34 0;
#X connect 5 1 12 0;
#X connect 6 0 4 0;
#X connect 7 0 4 0;
#X connect 8 0 44 0;
#X connect 9 0 25 0;
#X connect 10 0 25 0;
#X connect 11 0 5 0;
#X connect 12 0 8 0;
#X connect 12 1 7 0;
#X connect 13 0 14 0;
#X connect 14 0 20 0;
#X connect 15 0 13 1;
#X connect 16 0 15 0;
#X connect 17 0 15 0;
#X connect 18 0 11 0;
#X connect 20 0 24 0;
#X connect 21 0 22 0;
#X connect 22 0 23 0;
#X connect 23 0 11 0;
#X connect 24 0 21 0;
#X connect 26 0 30 0;
#X connect 27 0 29 0;
#X connect 28 0 33 0;
#X connect 29 0 14 1;
#X connect 31 0 38 0;
#X connect 32 0 27 0;
#X connect 33 0 32 0;
#X connect 33 1 27 1;
#X connect 34 0 37 0;
#X connect 34 1 10 0;
#X connect 34 2 17 0;
#X connect 34 3 13 0;
#X connect 34 4 28 0;
#X connect 34 5 31 0;
#X connect 34 6 36 0;
#X connect 35 0 31 1;
#X connect 36 0 4 0;
#X connect 37 0 6 0;
#X connect 38 0 25 0;
#X connect 39 0 32 1;
#X connect 40 0 46 0;
#X connect 41 0 40 1;
#X connect 43 0 42 0;
#X connect 44 0 43 0;
#X connect 44 1 40 0;
#X connect 44 2 16 0;
#X connect 44 3 9 0;
#X connect 45 0 42 0;
#X connect 46 0 19 0;
#X connect 46 1 45 0;
