#N canvas 0 50 731 618 10;
#X obj 227 643 outlet class1-SID;
#X obj 376 645 outlet class2-SID;
#X obj 414 92 inlet class2-event;
#X obj 71 640 outlet value;
#X obj 457 421 -;
#X obj 445 333 unpack f f;
#X obj 389 421 -;
#X obj 392 392 unpack f f;
#X obj 383 449 t f f;
#X obj 385 475 *;
#X obj 452 446 t f f;
#X obj 454 472 *;
#X obj 391 499 +;
#X obj 153 442 -;
#X obj 125 335 unpack f f;
#X obj 85 442 -;
#X obj 91 415 unpack f f;
#X obj 83 467 t f f;
#X obj 86 491 *;
#X obj 152 464 t f f;
#X obj 155 488 *;
#X obj 98 513 +;
#X obj 96 85 inlet class1-event;
#X obj 232 603 f;
#X obj 217 551 t b f;
#X obj 30 300 select 0;
#X obj 359 292 select 0;
#X obj 97 538 sqrt;
#X obj 363 557 sqrt;
#X obj 374 604 f;
#X obj 303 551 t f b;
#X obj 19 216 t b l;
#X obj 355 228 t b l;
#X text 128 345 numero sid different;
#X text 437 301 numero sid different;
#X obj 416 117 t f f f;
#X obj 79 336 t f f;
#X obj 390 334 t f f;
#X obj 19 250 fid_get_instances \$2;
#X obj 356 257 fid_get_instances \$1;
#X obj 97 108 t f f f f;
#N canvas 0 50 450 300 fid_get 0;
#X obj 75 33 inlet;
#X obj 74 248 outlet;
#X obj 244 202 outlet;
#X obj 73 135 fid_get x;
#X obj 151 133 fid_get y;
#X obj 74 174 pack f f;
#X obj 151 81 t f f;
#X connect 0 0 6 0;
#X connect 3 0 5 0;
#X connect 3 1 2 0;
#X connect 4 0 5 1;
#X connect 4 1 2 0;
#X connect 5 0 1 0;
#X connect 6 0 3 0;
#X connect 6 1 4 0;
#X restore 38 156 pd fid_get coords;
#N canvas 0 50 450 300 fid_get 0;
#X obj 75 33 inlet;
#X obj 74 248 outlet;
#X obj 244 202 outlet;
#X obj 73 135 fid_get x;
#X obj 151 133 fid_get y;
#X obj 74 174 pack f f;
#X obj 151 81 t f f;
#X connect 0 0 6 0;
#X connect 3 0 5 0;
#X connect 3 1 2 0;
#X connect 4 0 5 1;
#X connect 4 1 2 0;
#X connect 5 0 1 0;
#X connect 6 0 3 0;
#X connect 6 1 4 0;
#X restore 388 156 pd fid_get coords;
#N canvas 0 50 450 300 fid_get 0;
#X obj 75 33 inlet;
#X obj 74 248 outlet;
#X obj 244 202 outlet;
#X obj 73 135 fid_get x;
#X obj 151 133 fid_get y;
#X obj 74 174 pack f f;
#X obj 151 81 t f f;
#X connect 0 0 6 0;
#X connect 3 0 5 0;
#X connect 3 1 2 0;
#X connect 4 0 5 1;
#X connect 4 1 2 0;
#X connect 5 0 1 0;
#X connect 6 0 3 0;
#X connect 6 1 4 0;
#X restore 78 373 pd fid_get coords;
#N canvas 0 50 450 300 fid_get 0;
#X obj 75 33 inlet;
#X obj 74 248 outlet;
#X obj 244 202 outlet;
#X obj 73 135 fid_get x;
#X obj 151 133 fid_get y;
#X obj 74 174 pack f f;
#X obj 151 81 t f f;
#X connect 0 0 6 0;
#X connect 3 0 5 0;
#X connect 3 1 2 0;
#X connect 4 0 5 1;
#X connect 4 1 2 0;
#X connect 5 0 1 0;
#X connect 6 0 3 0;
#X connect 6 1 4 0;
#X restore 382 361 pd fid_get coords;
#X connect 2 0 35 0;
#X connect 4 0 10 0;
#X connect 5 0 6 1;
#X connect 5 1 4 1;
#X connect 6 0 8 0;
#X connect 7 0 6 0;
#X connect 7 1 4 0;
#X connect 8 0 9 0;
#X connect 8 1 9 1;
#X connect 9 0 12 0;
#X connect 10 0 11 0;
#X connect 10 1 11 1;
#X connect 11 0 12 1;
#X connect 12 0 28 0;
#X connect 13 0 19 0;
#X connect 14 0 15 1;
#X connect 14 1 13 1;
#X connect 15 0 17 0;
#X connect 16 0 15 0;
#X connect 16 1 13 0;
#X connect 17 0 18 0;
#X connect 17 1 18 1;
#X connect 18 0 21 0;
#X connect 19 0 20 0;
#X connect 19 1 20 1;
#X connect 20 0 21 1;
#X connect 21 0 27 0;
#X connect 22 0 40 0;
#X connect 23 0 0 0;
#X connect 24 0 23 0;
#X connect 24 1 1 0;
#X connect 25 1 36 0;
#X connect 26 1 37 0;
#X connect 27 0 3 0;
#X connect 28 0 3 0;
#X connect 29 0 1 0;
#X connect 30 0 0 0;
#X connect 30 1 29 0;
#X connect 31 0 38 0;
#X connect 31 1 14 0;
#X connect 32 0 39 0;
#X connect 32 1 5 0;
#X connect 35 0 42 0;
#X connect 35 1 26 1;
#X connect 35 2 29 1;
#X connect 36 0 43 0;
#X connect 36 1 24 0;
#X connect 37 0 44 0;
#X connect 37 1 30 0;
#X connect 38 0 25 0;
#X connect 39 0 26 0;
#X connect 40 0 41 0;
#X connect 40 2 25 1;
#X connect 40 3 23 1;
#X connect 41 0 31 0;
#X connect 42 0 32 0;
#X connect 43 0 16 0;
#X connect 44 0 7 0;
