#N canvas 0 50 649 532 10;
#X obj 292 80 tabread FID_ALLOC;
#X obj 341 1 inlet sid;
#X obj 289 106 select 0;
#X obj 187 291 text search;
#X msg 311 270 symbol \$1-pool;
#X obj 127 76 inlet set_value;
#X obj 127 168 spigot;
#X obj 189 238 t b f b;
#X msg 185 130 1;
#X msg 197 170 0;
#X obj 286 168 print fid_set : ERROR - undefined index;
#X obj 287 137 f;
#X obj 343 59 t f f;
#X obj 188 267 list append \$1;
#X obj 187 313 select -1;
#X obj 129 456 text set;
#X msg 212 395 1e+006;
#X text 275 397 line number - use a large number to append a line;
#X obj 96 369 list prepend \$1;
#X obj 296 29 route 0;
#X msg 245 104 0;
#X connect 0 0 2 0;
#X connect 1 0 19 0;
#X connect 2 0 11 0;
#X connect 2 1 7 0;
#X connect 3 0 14 0;
#X connect 4 0 3 1;
#X connect 4 0 15 3;
#X connect 5 0 6 0;
#X connect 6 0 18 0;
#X connect 7 0 13 0;
#X connect 7 1 4 0;
#X connect 7 2 8 0;
#X connect 8 0 6 1;
#X connect 9 0 6 1;
#X connect 11 0 10 0;
#X connect 11 0 9 0;
#X connect 12 0 0 0;
#X connect 12 1 11 1;
#X connect 13 0 3 0;
#X connect 14 0 16 0;
#X connect 14 1 15 1;
#X connect 16 0 15 1;
#X connect 18 0 15 0;
#X connect 19 0 20 0;
#X connect 19 1 12 0;
#X connect 20 0 7 0;
