#N canvas 0 50 577 519 10;
#X obj 107 92 tabread FID_ALLOC;
#X obj 101 127 select 0;
#X obj 187 291 text search;
#X msg 311 270 symbol \$1-pool;
#X obj 156 232 t b f b;
#X obj 197 163 f;
#X obj 134 65 t f f;
#X obj 188 267 list append \$1;
#X obj 187 313 select -1;
#X text 275 397 line number - use a large number to append a line;
#X obj 135 8 inlet sid;
#X obj 197 193 print fid_get : ERROR - undefined index;
#X obj 246 370 text get;
#X obj 344 455 outlet not found;
#X obj 224 448 outlet result;
#X obj 183 425 list split 1;
#X obj 88 36 route 0;
#X msg 88 202 0;
#X text 218 6 sid=0 : réservé pour les paramètres globaux;
#X connect 0 0 1 0;
#X connect 1 0 5 0;
#X connect 1 1 4 0;
#X connect 2 0 8 0;
#X connect 3 0 2 1;
#X connect 3 0 12 3;
#X connect 4 0 7 0;
#X connect 4 1 3 0;
#X connect 5 0 11 0;
#X connect 6 0 0 0;
#X connect 6 1 5 1;
#X connect 7 0 2 0;
#X connect 8 0 13 0;
#X connect 8 1 12 0;
#X connect 10 0 16 0;
#X connect 12 0 15 0;
#X connect 15 1 14 0;
#X connect 16 0 17 0;
#X connect 16 1 6 0;
#X connect 17 0 4 0;
