#N canvas 0 50 766 542 10;
#X obj 120 81 inlet;
#X obj 105 262 fid_get class-\$1;
#X msg 105 194 0;
#X obj 105 137 route bang;
#X obj 104 317 outlet;
#X obj 264 317 outlet;
#N canvas 0 50 450 300 list-drip 0;
#X obj 87 10 inlet;
#X obj 104 247 outlet;
#X obj 256 245 outlet done;
#X obj 87 84 list split 1;
#X obj 141 132 list, f 13;
#X obj 87 32 t b l;
#X connect 0 0 5 0;
#X connect 3 0 1 0;
#X connect 3 1 4 0;
#X connect 4 0 3 0;
#X connect 5 0 2 0;
#X connect 5 1 3 0;
#X restore 119 285 pd list-drip;
#X connect 0 0 3 0;
#X connect 1 0 6 0;
#X connect 2 0 1 0;
#X connect 3 0 2 0;
#X connect 6 0 4 0;
#X connect 6 1 5 0;
