#N canvas 645 19 1002 674 10;
#X obj 198 611 outlet class1-SID;
#X obj 576 529 outlet class2-SID;
#X obj 513 106 inlet class2-event;
#X obj 43 610 outlet value;
#X obj 3 98 inlet class1-event;
#X obj 351 464 f;
#X obj 2 185 select 0;
#X obj 525 172 select 0;
#X obj 43 497 sqrt;
#X obj 57 318 moses 1e+030;
#X msg 387 172 0;
#X msg 94 289 1e+030;
#X obj 40 463 f;
#X obj 591 496 f;
#X obj 356 319 t b b b;
#X obj 216 529 f;
#X obj 526 338 moses 1e+030;
#X msg 432 171 0;
#X obj 528 443 t f b;
#X msg 577 317 1e+030;
#X obj 450 455 f;
#X obj 356 284 spigot;
#X obj 55 213 t f f b;
#X msg 324 260 1;
#X obj 576 196 t f f b;
#X obj 328 217 t b b;
#X obj 144 455 f;
#X msg 134 527 1e+008;
#X msg 216 422 1;
#X obj 135 499 select 0;
#X obj 2 124 t b f f b f;
#X obj 517 127 t b f f b f;
#X obj 57 344 t f b f;
#X obj 2 153 fid_get_instances \$2;
#X obj 520 150 fid_get_instances \$1;
#N canvas 0 50 509 301 distance_euclidienne 0;
#X obj 94 37 inlet sid1;
#X obj 281 38 inlet sid2;
#X obj 173 247 outlet distance;
#X obj 237 134 -;
#X obj 280 84 unpack f f;
#X obj 169 134 -;
#X obj 94 84 unpack f f;
#X obj 163 162 t f f;
#X obj 165 188 *;
#X obj 232 159 t f f;
#X obj 234 185 *;
#X obj 171 212 +;
#N canvas 0 50 450 300 fid_get 0;
#X obj 75 33 inlet;
#X obj 74 248 outlet;
#X obj 244 202 outlet;
#X obj 73 135 fid_get x;
#X obj 151 133 fid_get y;
#X obj 74 174 pack f f;
#X obj 151 81 t f f;
#X connect 0 0 6 0;
#X connect 3 0 5 0;
#X connect 3 1 2 0;
#X connect 4 0 5 1;
#X connect 4 1 2 0;
#X connect 5 0 1 0;
#X connect 6 0 3 0;
#X connect 6 1 4 0;
#X restore 281 61 pd fid_get coords;
#N canvas 0 50 450 300 fid_get 0;
#X obj 75 33 inlet;
#X obj 74 248 outlet;
#X obj 244 202 outlet;
#X obj 73 135 fid_get x;
#X obj 151 133 fid_get y;
#X obj 74 174 pack f f;
#X obj 151 81 t f f;
#X connect 0 0 6 0;
#X connect 3 0 5 0;
#X connect 3 1 2 0;
#X connect 4 0 5 1;
#X connect 4 1 2 0;
#X connect 5 0 1 0;
#X connect 6 0 3 0;
#X connect 6 1 4 0;
#X restore 94 61 pd fid_get coords;
#X connect 0 0 13 0;
#X connect 1 0 12 0;
#X connect 3 0 9 0;
#X connect 4 0 5 1;
#X connect 4 1 3 1;
#X connect 5 0 7 0;
#X connect 6 0 5 0;
#X connect 6 1 3 0;
#X connect 7 0 8 0;
#X connect 7 1 8 1;
#X connect 8 0 11 0;
#X connect 9 0 10 0;
#X connect 9 1 10 1;
#X connect 10 0 11 1;
#X connect 11 0 2 0;
#X connect 12 0 4 0;
#X connect 13 0 6 0;
#X restore 55 243 pd distance_euclidienne;
#N canvas 0 50 509 301 distance_euclidienne 0;
#X obj 94 37 inlet sid1;
#X obj 281 38 inlet sid2;
#X obj 173 247 outlet distance;
#X obj 237 134 -;
#X obj 280 84 unpack f f;
#X obj 169 134 -;
#X obj 94 84 unpack f f;
#X obj 163 162 t f f;
#X obj 165 188 *;
#X obj 232 159 t f f;
#X obj 234 185 *;
#X obj 171 212 +;
#N canvas 0 50 450 300 fid_get 0;
#X obj 75 33 inlet;
#X obj 74 248 outlet;
#X obj 244 202 outlet;
#X obj 73 135 fid_get x;
#X obj 151 133 fid_get y;
#X obj 74 174 pack f f;
#X obj 151 81 t f f;
#X connect 0 0 6 0;
#X connect 3 0 5 0;
#X connect 3 1 2 0;
#X connect 4 0 5 1;
#X connect 4 1 2 0;
#X connect 5 0 1 0;
#X connect 6 0 3 0;
#X connect 6 1 4 0;
#X restore 281 61 pd fid_get coords;
#N canvas 0 50 450 300 fid_get 0;
#X obj 75 33 inlet;
#X obj 74 248 outlet;
#X obj 244 202 outlet;
#X obj 73 135 fid_get x;
#X obj 151 133 fid_get y;
#X obj 74 174 pack f f;
#X obj 151 81 t f f;
#X connect 0 0 6 0;
#X connect 3 0 5 0;
#X connect 3 1 2 0;
#X connect 4 0 5 1;
#X connect 4 1 2 0;
#X connect 5 0 1 0;
#X connect 6 0 3 0;
#X connect 6 1 4 0;
#X restore 94 61 pd fid_get coords;
#X connect 0 0 13 0;
#X connect 1 0 12 0;
#X connect 3 0 9 0;
#X connect 4 0 5 1;
#X connect 4 1 3 1;
#X connect 5 0 7 0;
#X connect 6 0 5 0;
#X connect 6 1 3 0;
#X connect 7 0 8 0;
#X connect 7 1 8 1;
#X connect 8 0 11 0;
#X connect 9 0 10 0;
#X connect 9 1 10 1;
#X connect 10 0 11 1;
#X connect 11 0 2 0;
#X connect 12 0 4 0;
#X connect 13 0 6 0;
#X restore 520 273 pd distance_euclidienne;
#X connect 2 0 31 0;
#X connect 4 0 30 0;
#X connect 5 0 13 1;
#X connect 6 1 22 0;
#X connect 7 1 24 0;
#X connect 8 0 3 0;
#X connect 9 0 32 0;
#X connect 10 0 5 1;
#X connect 10 0 21 1;
#X connect 10 0 26 1;
#X connect 11 0 9 1;
#X connect 12 0 8 0;
#X connect 13 0 1 0;
#X connect 14 0 12 0;
#X connect 14 0 28 0;
#X connect 14 1 15 0;
#X connect 14 2 13 0;
#X connect 15 0 0 0;
#X connect 16 0 18 0;
#X connect 17 0 20 1;
#X connect 17 0 21 1;
#X connect 18 0 16 1;
#X connect 18 0 12 1;
#X connect 18 1 20 0;
#X connect 19 0 16 1;
#X connect 20 0 15 1;
#X connect 21 0 14 0;
#X connect 22 0 35 0;
#X connect 22 1 5 1;
#X connect 22 2 23 0;
#X connect 23 0 21 1;
#X connect 24 0 36 0;
#X connect 24 1 20 1;
#X connect 24 2 23 0;
#X connect 25 0 26 0;
#X connect 25 1 21 0;
#X connect 26 0 29 0;
#X connect 27 0 3 0;
#X connect 28 0 26 1;
#X connect 29 0 27 0;
#X connect 30 0 33 0;
#X connect 30 1 6 1;
#X connect 30 2 35 1;
#X connect 30 3 10 0;
#X connect 30 3 11 0;
#X connect 30 4 15 1;
#X connect 31 0 34 0;
#X connect 31 1 7 1;
#X connect 31 2 36 1;
#X connect 31 3 17 0;
#X connect 31 3 19 0;
#X connect 31 4 13 1;
#X connect 32 0 12 1;
#X connect 32 1 5 0;
#X connect 32 2 9 1;
#X connect 33 0 6 0;
#X connect 33 1 25 0;
#X connect 34 0 7 0;
#X connect 34 1 25 0;
#X connect 35 0 9 0;
#X connect 36 0 16 0;
