#N canvas 15 87 900 552 10;
#X obj 507 63 tuio/TuioClient;
#X msg 755 16 addObject 4 11 1 2 3;
#X msg 558 168 addObject 5 23 7 54 3;
#X msg 754 41 removeObject 4;
#X obj 538 330 bng 15 250 50 0 empty empty empty 17 7 0 10 -262144
-1 -1;
#X floatatom 730 374 5 0 0 0 - - -, f 5;
#X obj 721 320 bng 15 250 50 0 empty empty empty 17 7 0 10 -262144
-1 -1;
#X text 33 19 TODO : mapper dans fid_preprocess le sid avec le numéro
d'instance concernée dans clone;
#X text 27 127 simplifier fid_get / fid_set en conséquence;
#X text 23 96 ajouter un préfixe au numéro d'instance pour pouvoir
avoir différents espaces d'instances;
#X text 29 74 du coup table FID_ALLOC pourrait être local (\$0-id_alloc)
;
#X obj 449 449 fid_get x;
#X floatatom 449 471 5 0 0 0 - - -, f 5;
#X msg 477 421 4;
#X obj 631 429 r rec.add;
#X floatatom 631 451 5 0 0 0 - - -, f 5;
#X obj 605 447 bng 15 250 50 0 empty empty empty 17 7 0 10 -262144
-1 -1;
#X floatatom 641 491 5 0 0 0 - - -, f 5;
#X obj 615 487 bng 15 250 50 0 empty empty empty 17 7 0 10 -262144
-1 -1;
#X floatatom 791 491 5 0 0 0 - - -, f 5;
#X obj 765 487 bng 15 250 50 0 empty empty empty 17 7 0 10 -262144
-1 -1;
#X obj 641 469 r rec.update;
#X obj 791 469 r rec.remove;
#X msg 757 66 updateObject 4 11 2 3 4;
#X obj 730 352 fid_count_instances rec;
#X obj 540 354 fid_get_instances rec;
#X msg 732 171 removeObject 5;
#X obj 504 227 fid_preprocess 10;
#X obj 30 413 fid_tracker;
#X obj 28 384 fid_gui;
#X obj 28 322 fid_nearest;
#X obj 239 350 fid_distance;
#X obj 278 420 t f f;
#X obj 246 465 fid_get x;
#X floatatom 246 487 5 0 0 0 - - -, f 5;
#X floatatom 336 487 5 0 0 0 - - -, f 5;
#X obj 336 465 fid_get y;
#X obj 278 398 r rec.remove;
#X obj 225 284 clone -s 1 polycell 10;
#X obj 225 263 fid_multiplex 10 1;
#X obj 749 246 fid_get classes;
#X obj 749 268 print classes;
#X msg 747 217 4;
#X msg 798 212 5;
#X msg 410 233 add 4;
#X obj 360 334 fid_get_instances touch;
#X obj 369 313 bng 15 250 50 0 empty empty empty 17 7 0 10 -262144
-1 -1;
#X obj 360 354 print fid_get_instances_touch;
#X obj 540 374 print fid_get_instances_rec;
#X msg 380 194 remove 4;
#X obj 504 273 fid_class rec 11 23;
#X obj 504 251 fid_class touch -1 -1;
#X msg 327 218 remove 4;
#X obj 30 300 fid_dynamic_class;
#X obj 21 470 fid_set;
#X connect 0 0 27 0;
#X connect 1 0 27 0;
#X connect 2 0 27 0;
#X connect 3 0 27 0;
#X connect 4 0 25 0;
#X connect 6 0 24 0;
#X connect 11 0 12 0;
#X connect 13 0 11 0;
#X connect 14 0 15 0;
#X connect 14 0 16 0;
#X connect 21 0 17 0;
#X connect 21 0 18 0;
#X connect 22 0 19 0;
#X connect 22 0 20 0;
#X connect 23 0 27 0;
#X connect 24 0 5 0;
#X connect 25 0 48 0;
#X connect 26 0 27 0;
#X connect 27 0 51 0;
#X connect 32 0 33 0;
#X connect 32 1 36 0;
#X connect 33 0 34 0;
#X connect 36 0 35 0;
#X connect 37 0 32 0;
#X connect 39 0 38 0;
#X connect 40 0 41 0;
#X connect 42 0 40 0;
#X connect 43 0 40 0;
#X connect 44 0 51 0;
#X connect 45 0 47 0;
#X connect 46 0 45 0;
#X connect 49 0 50 0;
#X connect 51 0 50 0;
#X connect 52 0 51 0;
