#N canvas 276 262 673 323 10;
#X obj 19 80 inlet~;
#X text 123 54 Signal Input;
#X obj 112 80 inlet~;
#X obj 195 80 inlet~;
#X obj 280 80 inlet~;
#X obj 19 236 outlet~;
#X text 16 255 Signal outlet;
#X obj 19 207 +~;
#X text 17 16 BAND COMPRESSOR Each signal will be compressed by a single
compressor;
#X text 132 303 Balandino Di Donato © 2013;
#X obj 19 177 compressor \$1 1;
#X obj 160 178 compressor \$1 2;
#X obj 309 177 compressor \$1 3;
#X obj 441 181 compressor \$1 4;
#X connect 0 0 10 0;
#X connect 2 0 11 0;
#X connect 3 0 12 0;
#X connect 4 0 13 0;
#X connect 7 0 5 0;
#X connect 10 0 7 0;
#X connect 11 0 7 1;
#X connect 12 0 7 0;
#X connect 13 0 7 1;
