#N canvas 24 50 798 705 10;
#X text 152 -5 Signal Input;
#X text 97 594 Signal outlet;
#X obj 184 14 inlet~;
#X obj 99 574 outlet~;
#X floatatom 99 223 5 0 0 0 - - -, f 5;
#X msg 99 202 23.22;
#X obj 99 278 *~;
#X text 313 -5 Threshold;
#X text 415 -4 Ratio;
#X text 315 643 Balandino Di Donato - 2013;
#X text 130 279 Gain Reduction;
#X obj 99 500 *~;
#X text 358 188 Gain detection;
#X obj 114 389 expr if($f1>$f2 \, $f1 \, $f2);
#X msg 114 451 \$1 10;
#X text 241 -5 Input Gain;
#X obj 204 103 *~;
#X text 533 -1 Output Gain;
#X obj 99 547 *~;
#X text 117 434 Make-Up;
#X obj 114 472 line~;
#X text 279 314 Calculation of the amplitude difference of the audio
signal;
#X text 280 391 Calculation of the amplitude peack;
#X text 397 363 Reset the amplitude peack value at any variation of
the value of Input Gain \, Threshold \, Ratio;
#X text 623 -2 init bang;
#X obj 625 36 t b b b;
#X text 22 -39 MULTI BAND COMPRESSOR;
#X obj 277 91 clip -120 20;
#X obj 204 142 env~;
#X obj 165 340 dbtorms;
#X obj 114 367 expr ($f1-$f2)+1;
#X obj 114 318 env~;
#X obj 114 340 dbtorms;
#X obj 536 103 bng 15 250 50 0 empty empty empty 17 7 0 10 -262144
-1 -1;
#X msg 536 125 1;
#X obj 204 255 line~;
#X obj 80 142 delwrite~ \$0-In 100;
#X obj 99 243 delread~ \$0-In;
#X obj 363 139 expr 1/$f1;
#X obj 363 159 rmstodb;
#X obj 204 165 - 100;
#X obj 204 211 dbtorms;
#X obj 123 411 value \$0-peack;
#X obj 267 368 value \$0-peack;
#X obj 267 346 bang~;
#X obj 536 148 value \$0-peack;
#X obj 204 188 expr if($f1>=$f2 \, $f3 \, 100);
#X msg 204 233 \$1 20;
#X obj 244 12 r \$1-in\$2;
#X obj 328 10 r \$1-t\$2;
#X obj 416 15 r \$1-r\$2;
#X obj 536 15 r \$1-out\$2;
#X obj 626 14 loadbang;
#X connect 2 0 16 0;
#X connect 4 0 37 0;
#X connect 5 0 4 0;
#X connect 6 0 11 0;
#X connect 6 0 31 0;
#X connect 11 0 18 0;
#X connect 13 0 14 0;
#X connect 13 0 42 0;
#X connect 14 0 20 0;
#X connect 16 0 28 0;
#X connect 16 0 36 0;
#X connect 18 0 3 0;
#X connect 20 0 11 1;
#X connect 25 1 5 0;
#X connect 25 2 33 0;
#X connect 27 0 46 1;
#X connect 28 0 40 0;
#X connect 28 0 29 0;
#X connect 29 0 30 1;
#X connect 30 0 13 0;
#X connect 31 0 32 0;
#X connect 32 0 30 0;
#X connect 33 0 34 0;
#X connect 34 0 45 0;
#X connect 35 0 6 1;
#X connect 37 0 6 0;
#X connect 38 0 39 0;
#X connect 39 0 46 2;
#X connect 40 0 46 0;
#X connect 41 0 47 0;
#X connect 43 0 13 1;
#X connect 44 0 43 0;
#X connect 46 0 41 0;
#X connect 47 0 35 0;
#X connect 48 0 16 1;
#X connect 48 0 33 0;
#X connect 49 0 27 0;
#X connect 49 0 33 0;
#X connect 50 0 33 0;
#X connect 50 0 38 0;
#X connect 51 0 18 1;
#X connect 51 0 33 0;
#X connect 52 0 25 0;
