#N canvas 490 43 283 174 10;
#X obj 18 81 cnv 10 135 10 empty empty empty 20 12 0 14 -261682 -66577
0;
#X obj 17 49 inlet~;
#X obj 83 49 handlers/ntg_receive \$1;
#X obj 17 104 handlers/ntg_send \$1;
#N canvas 562 352 481 364 Pitch_detector_module__________ 1;
#X obj 139 34 inlet;
#X obj 27 34 inlet~;
#X obj 262 34 inlet;
#X obj 72 195 switch~;
#X obj 220 34 inlet;
#X text 26 14 incoming signal;
#X obj 249 195 outlet;
#X text 294 195 outgoing parameter messages;
#X obj 161 99 t b b;
#X obj 27 160 handlers/mono_module \$0;
#X text 185 239 Balandino Di Donato - 2013;
#X obj 27 69 handlers/mono_pre_processor \$0 ________;
#N canvas 116 215 696 332 PitchDetector 0;
#X obj 41 81 inlet~;
#X obj 331 62 inlet;
#X obj 203 61 inlet;
#X text 197 41 init-bang;
#X text 42 61 sig.in;
#X obj 56 264 outlet;
#X obj 203 261 outlet;
#X text 178 288 outgoing parameters;
#X text 330 39 incoming parameters;
#X obj 271 61 inlet;
#X text 270 42 fini-bang;
#X text 20 288 rejected parameter;
#X obj 203 115 metro 50;
#X msg 203 88 1;
#X obj 41 115 fiddle~ 1024 1 20 3;
#X msg 203 178 list pitch \$1;
#X text 30 21 PITCH DETECTOR;
#X obj 41 136 * 100;
#X obj 83 137 expr rint($f1);
#X obj 36 172 mtof;
#X obj 203 144 f;
#X msg 225 209 list frequency \$1;
#X obj 248 142 f;
#X connect 0 0 14 0;
#X connect 1 0 5 0;
#X connect 2 0 13 0;
#X connect 12 0 20 0;
#X connect 12 0 22 0;
#X connect 13 0 12 0;
#X connect 14 0 17 0;
#X connect 14 0 19 0;
#X connect 15 0 6 0;
#X connect 17 0 18 0;
#X connect 18 0 22 1;
#X connect 19 0 20 1;
#X connect 20 0 21 0;
#X connect 21 0 6 0;
#X connect 22 0 15 0;
#X restore 162 128 pd PitchDetector;
#X connect 0 0 11 1;
#X connect 1 0 11 0;
#X connect 2 0 11 2;
#X connect 4 0 12 2;
#X connect 8 0 9 1;
#X connect 8 1 12 1;
#X connect 9 1 3 0;
#X connect 11 0 9 0;
#X connect 11 1 12 0;
#X connect 11 2 8 0;
#X connect 11 3 12 3;
#X connect 12 0 9 2;
#X connect 12 1 6 0;
#X restore 17 78 pd Pitch_detector_module__________;
#X connect 1 0 4 0;
#X connect 2 0 4 1;
#X connect 2 1 4 2;
#X connect 2 2 4 3;
#X connect 4 0 3 0;
