#N canvas 492 223 1061 737 16;
#X declare -path ../ressources/modules;
#X text 39 21 PdRacks is a set of tools and modules to make patching
of complex audio/visual effects / instruments / interactions / scenes
easier., f 69;
#X text 41 95 Here is all you need to create a minimal PdRacks scene
with only one module.;
#X text 43 153 A standard PdRacks module has 2 inlets~/outlets~ (for
bypassing or processing stereo audio) and one inlet/outlet for controls.
;
#X text 66 247 In this example \, we use a "instrument" module : [inst_rhodey]
, f 63;
#X obj 243 316 cnv 15 350 200 empty empty empty 20 12 0 14 -261682
-66577 0;
#X msg 80 514 \; pd dsp 1;
#X msg 602 432 vol 100 \, decay 302 \, tone 0.72;
#X msg 605 465 vol 90 \, decay 602 \, tone 0.3;
#X obj 79 492 loadbang;
#X text 77 461 turn dsp on;
#X text 594 325 <-- Here \, we just use control inlet to send 'midi-like'
note messages, f 26;
#X obj 278 393 inst_rhodey;
#X obj 302 483 dac~;
#X obj 460 482 print;
#X text 78 438 don't forget to;
#X obj 57 590 cnv 15 400 60 empty empty empty 20 12 0 14 -262130 -66577
0;
#X obj 81 611 declare -path ../ressources/modules;
#X obj 601 400 loadbang;
#X text 604 493 You can adjust the parameters of module by using the
GUI controls or by sending specific messages., f 34;
#X text 455 608 <-- This declare object is mandatory in the main patch.
;
#X msg 461 330 note 64 100;
#X connect 6 0 11 2;
#X connect 7 0 11 2;
#X connect 8 0 5 0;
#X connect 11 0 12 0;
#X connect 11 1 12 1;
#X connect 11 2 13 0;
#X connect 17 0 6 0;
#X connect 20 0 11 2;
