#N canvas 182 111 1000 622 16;
#X declare -path ../ressources/modules;
#X obj 726 63 pdr;
#X text 51 55 [pdr] is an autocompletion tool that helps you to choose
pdracks modules quickly from a menu list \, sorted by categories,
f 63;
#X text 49 117 When created \, it automatically adds the needed dependancies
--->, f 65;
#N canvas 0 50 450 300 PdRacks.declare 0;
#X obj 10 10 declare -path ../ressources/modules;
#X obj 10 35 pdr-categories;
#X obj 10 60 text define -k scene_preset;
#A set;
#X obj 10 85 text define -k pdr-extensions;
#A set;
#X obj 10 110 text define -k categories;
#A set effects \; instruments \; midi \; utils \;;
#X restore 726 108 pd PdRacks.declare;
#X obj 726 138 PdRacks.settings;
#X text 210 146 and adds a new module : PdRacks.settings;
#X text 71 215 1) enable autocomplete mode for [pdr] by clicking on
second cell of blue hradio;
#X obj 272 238 hradio 20 1 1 3 empty empty empty 0 -8 0 10 -4032 -4160
-1 1;
#X text 75 268 2) move the cursor to a blanck zone in the window and
press [Insert] key. You get a popup menu.;
#X text 114 354 * the base categories are effects \, instruments \,
midi \, utils.;
#X text 73 305 3) Use <PgUp> and <PgDown> to change category* \, use
vertical arrows to select objects.;
#X text 75 387 4) When you found your object in the menu \, press <Enter>.
The object is created.;
#X text 77 519 For further information \, right-click on pdr and choose
help., f 64;
#X text 54 8 Instead of manually adding declare objects and other modules
in your patch \, you can use the [pdr] helper.;
#X text 38 189 To enter modules using autocompletion mode :;
#X text 75 448 Note : If you select the just created object and press
[Insert] again \, the new object you are creating will be automatically
connected to the former.;
