#N canvas 815 305 881 543 16;
#X declare -path ../ressources/modules;
#X obj 462 321 bng 20 250 50 0 empty empty ... 1 9 0 10 -1 -33289 -262144
;
#X obj 559 56 pdr;
#N canvas 0 50 450 300 PdRacks.declare 0;
#X obj 10 10 declare -path ../ressources/modules;
#X obj 10 35 pdr-categories;
#X obj 10 60 text define -k scene_preset;
#A set;
#X obj 10 85 text define -k pdr-extensions;
#A set;
#X obj 10 110 text define -k categories;
#A set effects \; instruments \; midi \; utils \;;
#X restore 559 101 pd PdRacks.declare;
#X obj 559 131 PdRacks.settings;
#X text 84 95 -effects;
#X text 86 111 -instruments;
#X text 86 129 -midi;
#X text 87 146 -utils;
#X text 50 54 Les modules disponibles par défaut dans PdRacks appartiennent
aux catégories de base suivantes :;
#X text 171 249 ___________________;
#X text 51 228 Il est possible de charger pour un projet d'autres catégories
\, appelées extensions \, pour ajouter des fonctionnalités \, par
exemple video.;
#X text 50 299 Pour insérer une extension et ses dépendances dans
un projet \, cliquer sur le bouton 'options' (__) du module [pdr];
#X text 48 337 et choisir le fichier <extension>.txt \, dans le dossier
qui porte le même nom.;
#X text 56 404 Exemple de projets d'extensions : automatonism;
