#N struct 1588-symarray float x array symbols 1588-sym;
#N struct 1588-sym symbol name float on;
#N struct 4762-symarray float x array symbols 4762-sym;
#N struct 4762-sym symbol name float on;
#N struct 4851-symarray float x array symbols 4851-sym;
#N struct 4851-sym symbol name float on;
#N struct 5023-symarray float x array symbols 5023-sym;
#N struct 5023-sym symbol name float on;
#N struct 5367-symarray float x array symbols 5367-sym;
#N struct 5367-sym symbol name float on;
#N struct 5391-symarray float x array symbols 5391-sym;
#N struct 5391-sym symbol name float on;
#N struct 6624-symarray float x array symbols 6624-sym;
#N struct 6624-sym symbol name float on;
#N struct 7018-symarray float x array symbols 7018-sym;
#N struct 7018-sym symbol name float on;
#N struct 7019-symarray float x array symbols 7019-sym;
#N struct 7019-sym symbol name float on;
#N struct 7020-symarray float x array symbols 7020-sym;
#N struct 7020-sym symbol name float on;
#N struct 7301-symarray float x array symbols 7301-sym;
#N struct 7301-sym symbol name float on;
#N struct 7302-symarray float x array symbols 7302-sym;
#N struct 7302-sym symbol name float on;
#N struct 7303-symarray float x array symbols 7303-sym;
#N struct 7303-sym symbol name float on;
#N struct 7576-symarray float x array symbols 7576-sym;
#N struct 7576-sym symbol name float on;
#N struct 7848-symarray float x array symbols 7848-sym;
#N struct 7848-sym symbol name float on;
#N struct 8118-symarray float x array symbols 8118-sym;
#N struct 8118-sym symbol name float on;
#N struct 8119-symarray float x array symbols 8119-sym;
#N struct 8119-sym symbol name float on;
#N struct 8120-symarray float x array symbols 8120-sym;
#N struct 8120-sym symbol name float on;
#N struct 8388-symarray float x array symbols 8388-sym;
#N struct 8388-sym symbol name float on;
#N struct 8389-symarray float x array symbols 8389-sym;
#N struct 8389-sym symbol name float on;
#N struct 8390-symarray float x array symbols 8390-sym;
#N struct 8390-sym symbol name float on;
#N struct 8550-symarray float x array symbols 8550-sym;
#N struct 8550-sym symbol name float on;
#N struct 8551-symarray float x array symbols 8551-sym;
#N struct 8551-sym symbol name float on;
#N struct 8552-symarray float x array symbols 8552-sym;
#N struct 8552-sym symbol name float on;
#N struct 8773-symarray float x array symbols 8773-sym;
#N struct 8773-sym symbol name float on;
#N struct mappings float y symbol module_name symbol param_name float
ccnum float min float max symbol mapping;
#N struct text-help-struct float x float y text z;
#N canvas 300 176 1694 829 12;
#X declare -path ../ressources/modules;
#X declare -path ../extensions/video_ui;
#X declare -path ../extension/video_ui/data_cyclogroove;
#X declare -lib ofelia;
#X declare -stdpath extra/zexy/;
#X declare -stdpath extra/hcs/;
#X declare -lib iemlib/iemlib1;
#X declare -lib iemlib/iemlib2;
#X declare -lib zexy;
#X declare -lib iemlib;
#X declare -path iemlib;
#X declare -path iemguts;
#X declare -path ../ressources/modules/;
#X declare -path ../ressources/core/;
#X declare -path ../ressources/rj/;
#X declare -path ../ressources/core/fid_abs_vanilia-0.4/;
#N canvas 243 139 1642 834 rack 0;
#X obj 1 70 cnv 1 808 730 empty grid empty 20 12 0 14 -228856 -66577
0;
#X obj 1057 421 s ACTION;
#N canvas 55 181 1125 537 GO 0;
#X obj 73 14 receivecanvas 1;
#X obj 80 148 unpack f f;
#X obj 83 204 / 200;
#X obj 173 176 / 80;
#X obj 105 231 int;
#X obj 249 200 int;
#X obj 125 261 * 10;
#X obj 273 249 +;
#X obj 88 88 spigot 1;
#X obj 88 119 t l b;
#X msg 300 125 0;
#X obj 73 36 route mouse mouseup;
#X msg 149 63 1;
#X obj 273 271 s GO;
#X obj 11 190 moses 801;
#X obj 205 237 > 0;
#X obj 179 278 spigot;
#N canvas 161 56 937 567 scene_recall 0;
#X obj 461 271 int;
#X msg 481 306 label p.\$1;
#X obj 488 342 s \$0-get_preset-rcv;
#X obj 212 356 r \$0-prev;
#X obj 209 394 bng 15 250 50 0 empty empty empty 17 7 0 10 -262144
-1 -1;
#X obj 302 356 r \$0-next;
#X obj 387 273 +;
#X msg 361 203 1;
#X obj 397 316 max 0;
#X msg 289 424 -1;
#X obj 410 361 * 40;
#X obj 459 209 - 15;
#X obj 465 235 / 40;
#X obj 428 399 + 15;
#X msg 440 443 set \$1;
#X obj 317 23 pgmin 17;
#X text 426 14 Gestion scenes;
#X msg 6 541 editmode 0 \, mouse 50 \$1 0 0 \, mouseup 50 \$1 0;
#X obj 42 511 f;
#X obj 29 409 delay 20;
#X obj 312 75 t b f;
#X obj -85 320 r \$0-get_preset;
#X obj -84 345 t b;
#X obj -75 376 delay 20;
#X msg 289 499 vis 1;
#X obj 358 446 delay 20;
#X obj 371 411 t b;
#X obj 400 76 r SCENE-pos;
#X obj 526 443 s SCENE-pos;
#X obj 435 483 s SCENE-pos-rcv;
#X obj 71 470 r SCENE-pos;
#X obj 542 250 + 0.5;
#X obj 700 361 * 40;
#X obj 718 399 + 15;
#X msg 692 446 pos 0 \$1;
#X obj 690 472 s ducon;
#X obj -66 443 delay 40;
#X obj 89 76 r CTLIN;
#X msg 100 142 \$2 \$1;
#X obj 85 206 select 127;
#X floatatom 51 182 5 0 0 0 - - -, f 5;
#X obj 115 174 route 2095 2090;
#X text 69 41 su10 comme switch controler;
#X obj 175 216 select 127;
#X obj 85 231 t b b;
#X obj 175 241 t b b;
#X obj -53 260 r \$0-save;
#X obj 265 153 r PREV;
#X obj 201 122 r NEXT;
#X obj 28 573 s pd-conduite;
#X obj 577 135 r pre_next;
#X obj 278 279 r pre_prev;
#X obj 345 166 r pre_go;
#X connect 0 0 1 0;
#X connect 0 0 6 1;
#X connect 0 0 32 0;
#X connect 1 0 2 0;
#X connect 3 0 4 0;
#X connect 3 0 9 0;
#X connect 5 0 7 0;
#X connect 6 0 8 0;
#X connect 7 0 6 0;
#X connect 8 0 0 0;
#X connect 8 0 10 0;
#X connect 8 0 26 0;
#X connect 9 0 6 0;
#X connect 10 0 13 0;
#X connect 11 0 12 0;
#X connect 12 0 31 0;
#X connect 13 0 14 0;
#X connect 13 0 28 0;
#X connect 14 0 29 0;
#X connect 15 0 20 0;
#X connect 17 0 49 0;
#X connect 18 0 17 0;
#X connect 19 0 18 0;
#X connect 20 0 23 0;
#X connect 20 1 8 0;
#X connect 21 0 22 0;
#X connect 22 0 23 0;
#X connect 23 0 19 0;
#X connect 23 0 36 0;
#X connect 24 0 49 0;
#X connect 25 0 24 0;
#X connect 26 0 25 0;
#X connect 27 0 11 0;
#X connect 30 0 18 1;
#X connect 31 0 0 0;
#X connect 32 0 33 0;
#X connect 33 0 14 0;
#X connect 33 0 34 0;
#X connect 34 0 35 0;
#X connect 36 0 24 0;
#X connect 37 0 38 0;
#X connect 38 0 40 0;
#X connect 38 0 41 0;
#X connect 39 0 44 0;
#X connect 41 0 39 0;
#X connect 41 1 43 0;
#X connect 43 0 45 0;
#X connect 44 0 19 0;
#X connect 44 1 7 0;
#X connect 45 0 19 0;
#X connect 45 1 9 0;
#X connect 46 0 36 0;
#X connect 47 0 45 0;
#X connect 48 0 44 0;
#X connect 50 0 7 0;
#X connect 51 0 9 0;
#X connect 52 0 22 0;
#X restore 475 38 pd scene_recall;
#X obj 217 16 receivecanvas 2;
#X connect 0 0 11 0;
#X connect 1 0 14 0;
#X connect 1 1 3 0;
#X connect 2 0 4 0;
#X connect 3 0 5 0;
#X connect 4 0 6 0;
#X connect 5 0 7 1;
#X connect 5 0 15 0;
#X connect 6 0 16 0;
#X connect 7 0 13 0;
#X connect 8 0 9 0;
#X connect 9 0 1 0;
#X connect 9 1 10 0;
#X connect 10 0 8 1;
#X connect 11 0 8 0;
#X connect 11 1 12 0;
#X connect 12 0 8 1;
#X connect 14 0 2 0;
#X connect 15 0 16 1;
#X connect 16 0 7 0;
#X connect 18 0 11 0;
#X restore 923 299 pd GO;
#X obj 177 24 cnv 15 400 40 empty COMMAND-rcv inst_rhodey(1:3) 2 20
0 35 -261682 -66577 0;
#X obj 597 17 bng 30 250 50 0 empty REFRESH_CONNEXIONS Refresh_Connexions
32 7 0 10 -262144 -1 -1;
#X obj 539 1 tgl 30 1 INSERT_MODE empty INSERT_MODE 32 7 0 10 -262144
-1 -1 1 1;
#N canvas 637 72 547 472 todo 0;
#X msg 354 236 fx_graindelay;
#X msg 354 264 fx_granulator;
#X msg 359 306 fx_lop;
#X msg 347 184 fx_multiband;
#X msg 353 210 fx_reverb;
#X msg 344 155 fx_sub;
#X msg 57 406 midi_pattern;
#X text 57 287 livre;
#X text 60 310 graphics;
#X text 371 409 etc....;
#X text 92 11 stereo_inlet~ déconnexion quand switch~ == 0;
#X msg 143 286 inst_pvoc;
#X text 142 316 inst_upic;
#X text 410 153 -> module d'analyse;
#X text 35 63 vérifier les connexions wet / c_xfade dans tous les
modules;
#X text 38 88 vérifier compatibilité avec samplerate autres que 44100
;
#X text 33 139 feedback visuel toogles;
#X text 33 167 réfléchir à implémenter mode trigger / toogle pour
la commande de toogles, f 32;
#X restore 925 347 pd todo;
#X obj 83 3 bng 40 250 50 0 \$0-prev empty << 5 20 0 25 -262144 -1
-1;
#X obj 123 3 bng 40 250 50 0 \$0-next empty >> 5 20 0 25 -262144 -1
-1;
#X obj 83 38 hsl 90 30 0 127 0 0 \$0-get_preset \$0-get_preset-rcv
p.1 20 20 0 20 -204786 -204786 -1 0 1;
#X msg 1057 325 remove;
#X msg 1057 305 help;
#N canvas 470 56 1134 946 setFocus/help 0;
#X obj 251 52 unpack f f;
#X obj 255 89 / 200;
#X obj 325 88 / 80;
#X obj 248 8 receivecanvas 1;
#X obj 255 144 int;
#X obj 325 143 int;
#X obj 255 169 * 10;
#X obj 255 194 +;
#X obj 411 78 route 2;
#X obj 423 105 unpack f f;
#X obj 425 130 / 200;
#X obj 494 127 / 80;
#X obj 418 185 int;
#X obj 488 184 int;
#X obj 455 216 * 10;
#X obj 455 241 +;
#X obj 462 288 select 0;
#X obj 462 266 tabread SLOTS_MAP;
#X obj 535 229 r HELP;
#X obj 171 244 s HELP;
#X obj 162 212 f;
#X obj 160 183 t b;
#X obj 92 222 f;
#X obj 90 193 t b;
#X obj 83 249 s REMOVE;
#N canvas 1 56 1315 674 ADD/INSERT 0;
#X msg 276 142 fx_parameq2;
#X msg 753 298 PdRacks.presets;
#X msg 276 452 fx_compressor;
#X msg 276 265 fx_chorus;
#X msg 276 285 fx_dubdel;
#X msg 276 82 fx_hip;
#X msg 276 192 fx_ring;
#X msg 276 375 fx_freeverb;
#X msg 276 472 fx_dynproc;
#X msg 276 102 fx_filter;
#X msg 276 212 fx_freqshift;
#X msg 276 232 fx_pitchshift;
#X msg 276 355 fx_resonator;
#X msg 276 62 fx_lop;
#X msg 276 42 fx_lowhip;
#X msg 276 305 fx_dubdel2;
#X msg 276 499 fx_sub;
#X msg 276 325 fx_reverse;
#X msg 276 395 fx_everb;
#X msg 276 162 fx_eq3;
#X msg 276 122 fx_parameq;
#X msg 46 263 inst_sampler;
#X msg 46 283 inst_turntable;
#X msg 46 223 inst_8bits;
#X msg 46 243 inst_rhodey;
#X msg 46 163 inst_soundfile;
#X msg 46 143 inst_headrush;
#X msg 46 183 inst_tabosc;
#X msg 46 203 inst_bassdrum;
#X msg 46 93 inst_modular;
#X msg 484 51 audio_in;
#X msg 484 71 audio_out;
#X msg 484 91 audio_record;
#X msg 484 111 audio_features;
#X msg 484 456 data_wintablet;
#X msg 484 436 data_fidtouch;
#X msg 484 476 data_fidcontrol;
#X msg 484 220 data_azerty2midi;
#X msg 739 71 midi_arpeggiator;
#X msg 739 91 note_randomize;
#X msg 739 111 note_2param;
#X obj 46 521 s ADD;
#X obj 276 594 s ADD;
#X obj 484 588 s ADD;
#X obj 484 158 s ADD;
#X obj 739 201 s ADD;
#X obj 753 342 s ADD;
#X msg 92 451 cancel;
#X text 39 30 INSTRUMENTS;
#X text 265 7 AUDIO EFFECTS;
#X text 477 15 IN OUT;
#X msg 484 240 note_16steps;
#X msg 484 260 data_upic;
#X obj 484 358 s ADD;
#X text 486 186 MIDI NOTE GENERATORS;
#X text 731 30 MIDI FILTERS;
#X text 485 403 DATA CONTROL;
#X text 72 422 CLOSE THIS WINDOW;
#X text 749 226 GLOBAL;
#X msg 276 553 fx_bitcrush;
#X msg 46 303 inst_euclidrums;
#X msg 484 326 midi_notein;
#X msg 739 144 note_interpolations;
#X msg 46 351 inst_pcm;
#X msg 739 170 note_interpol;
#X msg 276 529 fx_formant;
#X text 618 455 interface avec tablettes wacom;
#X text 119 348 lecteur de sample;
#X msg 276 415 fx_dattorroverb;
#X msg 484 502 data_feuille;
#X msg 484 281 data_cyclogroove;
#X msg 86 386 inst_pvoc;
#X text 628 434 interface multitouch;
#X text 633 475 monotouch to ctlout;
#X msg 983 278 PdRacks.morphing;
#X msg 983 258 PdRacks.transport;
#X msg 401 567 fx_alias;
#X msg 15 399 inst_oneshot;
#X msg 663 392 data_ofelia;
#X msg 914 405 fx_bonkpitch;
#X connect 0 0 42 0;
#X connect 1 0 46 0;
#X connect 2 0 42 0;
#X connect 3 0 42 0;
#X connect 4 0 42 0;
#X connect 5 0 42 0;
#X connect 6 0 42 0;
#X connect 7 0 42 0;
#X connect 8 0 42 0;
#X connect 9 0 42 0;
#X connect 10 0 42 0;
#X connect 11 0 42 0;
#X connect 12 0 42 0;
#X connect 13 0 42 0;
#X connect 14 0 42 0;
#X connect 15 0 42 0;
#X connect 16 0 42 0;
#X connect 17 0 42 0;
#X connect 18 0 42 0;
#X connect 19 0 42 0;
#X connect 20 0 42 0;
#X connect 21 0 41 0;
#X connect 22 0 41 0;
#X connect 23 0 41 0;
#X connect 24 0 41 0;
#X connect 25 0 41 0;
#X connect 26 0 41 0;
#X connect 27 0 41 0;
#X connect 28 0 41 0;
#X connect 29 0 41 0;
#X connect 30 0 44 0;
#X connect 31 0 44 0;
#X connect 32 0 44 0;
#X connect 33 0 44 0;
#X connect 34 0 43 0;
#X connect 35 0 43 0;
#X connect 36 0 43 0;
#X connect 37 0 53 0;
#X connect 38 0 45 0;
#X connect 39 0 45 0;
#X connect 40 0 45 0;
#X connect 47 0 41 0;
#X connect 51 0 53 0;
#X connect 52 0 53 0;
#X connect 59 0 42 0;
#X connect 60 0 41 0;
#X connect 61 0 53 0;
#X connect 62 0 45 0;
#X connect 63 0 41 0;
#X connect 64 0 45 0;
#X connect 65 0 42 0;
#X connect 68 0 42 0;
#X connect 69 0 43 0;
#X connect 70 0 53 0;
#X connect 71 0 41 0;
#X connect 76 0 42 0;
#X connect 77 0 41 0;
#X connect 78 0 43 0;
#X connect 79 0 43 0;
#X restore 35 339 pd ADD/INSERT;
#X msg 42 295 \; pd-ADD/INSERT vis 1;
#X obj 49 382 r ADD;
#X obj 65 579 s INSERT;
#X obj 83 476 pack s f;
#X obj 49 407 route cancel;
#X obj 97 446 symbol;
#X msg 64 552 \$2 \$1;
#X msg 162 555 \; pd-ADD/INSERT vis 0;
#X obj 252 273 s \$0-current_slot;
#X obj 114 99 r \$0-current_slot;
#X obj 202 411 r \$0-current_slot;
#X text 430 34 menu contextuel help;
#N canvas 1 56 450 300 messages'hasfocus' 0;
#X obj 48 95 tabread SLOTS_MAP;
#X obj 24 150 t f f b;
#X obj 48 220 f;
#X obj 36 269 t b f;
#X obj 56 125 change;
#X msg 72 308 symbol \$1-hasFocus;
#X msg 36 294 0;
#X obj 37 334 send;
#X obj 246 169 t b f;
#X msg 282 208 symbol \$1-hasFocus;
#X obj 247 234 send;
#X msg 246 194 1;
#X obj 29 67 r \$0-current_slot;
#X connect 0 0 4 0;
#X connect 1 0 2 1;
#X connect 1 1 8 0;
#X connect 1 2 2 0;
#X connect 2 0 3 0;
#X connect 3 0 6 0;
#X connect 3 1 5 0;
#X connect 4 0 1 0;
#X connect 5 0 7 1;
#X connect 6 0 7 0;
#X connect 8 0 11 0;
#X connect 8 1 9 0;
#X connect 9 0 10 1;
#X connect 11 0 10 0;
#X connect 12 0 0 0;
#X restore 323 331 pd messages'hasfocus';
#X obj 182 518 s \$0-current_slot;
#X obj 182 487 +;
#X obj 86 522 t l b b;
#X msg 180 457 1;
#X obj 378 577 s COMMAND-rcv;
#X obj 368 374 r \$0-current_slot;
#X obj 374 444 t f f;
#X obj 378 509 pack f f;
#X msg 376 541 label (\$1:\$2);
#X obj 378 484 div 10;
#X obj 497 479 mod 10;
#X obj 593 405 * 200;
#X obj 675 403 * 80;
#X obj 586 516 pack f f;
#X obj 556 571 s \$0-focus_canvas;
#X msg 586 541 pos \$1 \$2;
#X obj 592 433 - 5;
#X obj 674 432 - 5;
#N canvas 506 128 520 425 arrow_keys 0;
#X obj 186 55 inlet;
#X obj 154 116 select Up Down Left Right;
#X obj 392 119 r \$0-current_slot;
#X obj 331 204 +;
#X obj 160 250 moses 1;
#X obj 155 331 s \$0-current_slot;
#X msg 210 161 1;
#X msg 330 162 10;
#X msg 153 159 -1;
#X msg 256 157 -10;
#X obj 117 143 bng 15 250 50 0 empty empty empty 17 7 0 10 -262144
-1 -1;
#X obj 216 291 select 10 20 30;
#X obj 160 225 moses 40;
#X obj 275 65 select 63232 63235 63233 63234;
#X text 358 44 mac;
#X text 187 98 windows;
#X connect 0 0 1 0;
#X connect 0 0 10 0;
#X connect 0 0 13 0;
#X connect 1 0 8 0;
#X connect 1 1 6 0;
#X connect 1 2 9 0;
#X connect 1 3 7 0;
#X connect 2 0 3 1;
#X connect 3 0 12 0;
#X connect 4 1 11 0;
#X connect 6 0 3 0;
#X connect 7 0 3 0;
#X connect 8 0 3 0;
#X connect 9 0 3 0;
#X connect 11 3 5 0;
#X connect 12 0 4 0;
#X connect 13 0 8 0;
#X connect 13 1 7 0;
#X connect 13 2 6 0;
#X connect 13 3 9 0;
#X restore 211 329 pd arrow_keys;
#X obj 246 29 route mouse key;
#X obj 33 36 route 1;
#X obj 28 82 list split 1;
#X obj 25 113 select 127;
#X obj 16 144 select Insert F1;
#X obj 310 220 moses 1;
#X obj 272 244 select 10 20 30;
#X obj 310 195 moses 40;
#X obj 383 400 moses 40;
#X obj 128 6 r \$0-INS;
#X obj 138 36 r \$0-DEL;
#X obj 148 66 r \$0-HELP;
#X obj 420 56 route done-popup zoom;
#X obj 494 77 s ZOOM;
#X obj 425 155 / 1;
#X obj 494 152 / 1;
#X text 452 169 receivecanvas bugfix;
#X obj 255 114 / 1;
#X obj 325 113 / 1;
#X obj 500 104 r ZOOM;
#X obj 300 75 r ZOOM;
#X floatatom 300 100 5 0 0 0 - - -, f 5;
#X floatatom 394 260 5 0 0 0 - - -, f 5;
#X obj 596 606 pack f f;
#X msg 596 631 pos \$1 \$2;
#X obj 786 616 pack f f;
#X msg 786 641 pos \$1 \$2;
#X obj 566 661 s \$0-focus_canvas-3;
#X obj 756 671 s \$0-focus_canvas-2;
#X obj 763 509 + 77;
#X obj 607 469 + 197;
#X obj 381 10 receivecanvas 2;
#X msg 579 345 \; \$1-channel help;
#X connect 0 0 1 0;
#X connect 0 1 2 0;
#X connect 1 0 75 0;
#X connect 2 0 76 0;
#X connect 3 0 58 0;
#X connect 4 0 6 0;
#X connect 5 0 7 1;
#X connect 6 0 7 0;
#X connect 7 0 65 0;
#X connect 8 0 9 0;
#X connect 9 0 10 0;
#X connect 9 1 11 0;
#X connect 10 0 72 0;
#X connect 11 0 73 0;
#X connect 12 0 14 0;
#X connect 13 0 15 1;
#X connect 14 0 15 0;
#X connect 15 0 17 0;
#X connect 16 1 90 0;
#X connect 17 0 16 0;
#X connect 18 0 17 0;
#X connect 20 0 19 0;
#X connect 21 0 20 0;
#X connect 22 0 24 0;
#X connect 23 0 22 0;
#X connect 27 0 30 0;
#X connect 29 0 41 0;
#X connect 30 0 33 0;
#X connect 30 1 31 0;
#X connect 31 0 29 0;
#X connect 32 0 28 0;
#X connect 35 0 22 1;
#X connect 35 0 20 1;
#X connect 36 0 29 1;
#X connect 36 0 40 1;
#X connect 40 0 39 0;
#X connect 41 0 32 0;
#X connect 41 1 33 0;
#X connect 41 2 42 0;
#X connect 42 0 40 0;
#X connect 44 0 66 0;
#X connect 45 0 48 0;
#X connect 45 1 49 0;
#X connect 46 0 47 0;
#X connect 47 0 43 0;
#X connect 48 0 46 0;
#X connect 48 0 50 0;
#X connect 49 0 46 1;
#X connect 49 0 51 0;
#X connect 50 0 55 0;
#X connect 51 0 56 0;
#X connect 52 0 54 0;
#X connect 54 0 53 0;
#X connect 55 0 52 0;
#X connect 55 0 83 0;
#X connect 55 0 88 0;
#X connect 56 0 52 1;
#X connect 56 0 81 1;
#X connect 56 0 87 0;
#X connect 58 0 0 0;
#X connect 58 1 59 0;
#X connect 58 2 70 0;
#X connect 59 0 60 0;
#X connect 60 0 61 0;
#X connect 61 0 23 0;
#X connect 61 1 62 0;
#X connect 62 0 26 0;
#X connect 62 1 21 0;
#X connect 62 2 57 0;
#X connect 63 1 64 0;
#X connect 64 3 34 0;
#X connect 64 3 80 0;
#X connect 65 0 63 0;
#X connect 66 0 45 0;
#X connect 67 0 26 0;
#X connect 68 0 23 0;
#X connect 69 0 21 0;
#X connect 70 0 8 0;
#X connect 70 1 71 0;
#X connect 72 0 12 0;
#X connect 73 0 13 0;
#X connect 75 0 4 0;
#X connect 76 0 5 0;
#X connect 77 0 73 1;
#X connect 77 0 72 1;
#X connect 78 0 75 1;
#X connect 78 0 76 1;
#X connect 78 0 79 0;
#X connect 81 0 82 0;
#X connect 82 0 85 0;
#X connect 83 0 84 0;
#X connect 84 0 86 0;
#X connect 87 0 83 1;
#X connect 88 0 81 0;
#X connect 89 0 58 0;
#X restore 1208 254 pd setFocus/help;
#X msg 1057 372 focus;
#N canvas 689 74 450 300 remote 0;
#X obj 104 7 r REMOTE;
#X obj 105 56 print REMOTE;
#X obj 104 30 spigot;
#X obj 191 9 tgl 15 0 empty empty empty 17 7 0 10 -262144 -1 -1 0 1
;
#X text 75 114 l'idée est de transmettre tous les parametres du module
on focus à une tablette remote client;
#X connect 0 0 2 0;
#X connect 2 0 1 0;
#X connect 3 0 2 1;
#X restore 924 321 pd remote;
#X obj 754 4 bng 50 250 50 0 RESET empty RESET 17 7 0 10 -262144 -1
-1;
#X obj 338 1 bng 30 250 50 0 \$0-INS empty INS 5 14 0 12 -257985 -1
-1;
#X obj 369 1 bng 30 250 50 0 \$0-DEL empty DEL 5 14 0 12 -1 -262144
-258113;
#X obj 9 20 bng 60 250 50 0 \$0-save empty SAVE 5 30 0 20 -258113 -1
-1;
#X obj 175 59 cnv 15 600 20 empty COMMAND-HELP-rcv synthétiseur_type_Rhodes
2 8 0 16 -261682 -66577 0;
#X obj 307 1 bng 30 250 50 0 \$0-HELP empty HELP 1 14 0 12 -13381 -4034
-4034;
#X obj 195 235 cnv 3 3 77 empty \$0-focus_canvas empty 20 12 0 14 -257985
-66577 0;
#X obj 195 235 cnv 3 197 3 empty \$0-focus_canvas empty 20 12 0 14
-257985 -66577 0;
#X obj 392 235 cnv 3 3 80 empty \$0-focus_canvas-3 empty 20 12 0 14
-257985 -66577 0;
#X obj 195 312 cnv 3 197 3 empty \$0-focus_canvas-2 empty 20 12 0 14
-257985 -66577 0;
#X obj 1400 0 _ fx_lop;
#X obj 1400 0 inst_modular;
#X obj 1400 0 inst_modular;
#X obj 1400 0 _ audio_features;
#X obj 1400 0 _ audio_features;
#X obj 1400 0 _ audio_in;
#X obj 1400 0 _ audio_in;
#X obj 1400 0 _ audio_in;
#X obj 1400 0 _ audio_in;
#X obj 1400 0 _ audio_out;
#X obj 1400 0 _ audio_out;
#X obj 1400 0 _ audio_out;
#X obj 1400 0 _ audio_record;
#X obj 1400 0 _ audio_record;
#X obj 200 160 _ data_azerty2midi;
#X obj 1400 0 _ data_fidcontrol;
#X obj 1400 0 _ fx_reverse;
#X obj 1400 0 _ fx_reverse;
#X obj 1400 0 _ fx_lowhip;
#X obj 1400 0 _ fx_lowhip;
#X obj 1400 0 _ fx_lowhip;
#X obj 1400 0 _ fx_lowhip;
#X obj 1400 0 _ fx_hip;
#X obj 1400 0 _ fx_lop;
#X obj 1400 0 _ fx_hip;
#X obj 1400 0 _ fx_filter;
#X obj 1400 0 _ fx_filter;
#X obj 1400 0 _ fx_ring;
#X obj 1400 0 _ fx_ring;
#X obj 1400 0 _ fx_freqshift;
#X obj 1400 0 _ fx_freqshift;
#X obj 1400 0 _ fx_pitchshift;
#X obj 1400 0 _ fx_pitchshift;
#X obj 1400 0 _ fx_pitchshift;
#X obj 1400 0 _ fx_dynproc;
#X obj 1400 0 _ fx_chorus;
#X obj 1400 0 _ fx_chorus;
#X obj 1400 0 _ fx_chorus;
#X obj 1400 0 _ fx_dubdel;
#X obj 1400 0 _ fx_dubdel;
#X obj 1400 0 _ fx_dubdel2;
#X obj 1400 0 _ fx_dubdel2;
#X obj 1400 0 _ fx_dubdel2;
#X obj 1400 0 _ fx_resonator;
#X obj 1400 0 _ fx_freeverb;
#X obj 1400 0 _ fx_freeverb;
#X obj 1400 0 _ fx_everb;
#X obj 1400 0 _ fx_everb;
#X obj 1400 0 _ data_fidtouch;
#X obj 1400 0 _ data_wintablet;
#X obj 1400 0 _ data_wintablet;
#X obj 1400 0 _ data_fidcontrol;
#X obj 1400 0 _ inst_headrush;
#X obj 1400 0 _ inst_headrush;
#X obj 1400 0 _ inst_soundfile;
#X obj 1400 0 _ inst_tabosc;
#X obj 1400 0 _ inst_tabosc;
#X obj 1400 0 _ inst_bassdrum;
#X obj 1400 0 _ inst_bassdrum;
#X obj 1400 0 _ inst_8bits;
#X obj 200 240 _ inst_rhodey;
#X obj 1400 0 _ inst_rhodey;
#X obj 1400 0 _ inst_sampler;
#X obj 1400 0 _ inst_turntable;
#X obj 1400 0 _ inst_turntable;
#X obj 1400 0 _ midi_arpeggiator;
#X obj 1400 0 _ data_upic;
#X obj 1400 0 _ data_azerty2midi;
#X obj 1400 0 _ data_azerty2midi;
#X obj 1400 0 _ note_randomize;
#X obj 1400 0 _ note_randomize;
#X obj 1400 0 _ note_16steps;
#X obj 1400 0 _ fx_freeverb;
#X obj 200 320 _ audio_out;
#X obj 1400 0 _ fx_hip;
#X obj 1400 0 _ fx_hip;
#X obj 1400 0 _ note_2param;
#X obj 1400 0 _ fx_eq3;
#X obj 1400 0 _ fx_parameq;
#X obj 1400 0 _ fx_parameq;
#X obj 1400 0 _ fx_parameq;
#X obj 1400 0 _ fx_parameq;
#X obj 1400 0 _ fx_parameq2;
#X obj 1400 0 _ PdRacks.presets;
#X obj 1400 0 _ fx_compressor;
#X obj 1400 0 _ fx_compressor;
#X obj 1400 0 _ fx_parameq;
#X obj 1400 0 _ note_16steps;
#X obj 1400 0 _ fx_sub;
#X obj 1400 0 _ inst_euclidrums;
#X obj 1400 0 _ audio_out;
#X obj 1400 0 _ audio_in;
#X obj 1400 0 _ midi_notein;
#X obj 1400 0 _ midi_arpeggiator;
#X obj 1400 0 _ midi_notein;
#X obj 1400 0 _ note_interpolations;
#X obj 1400 0 _ note_interpolations;
#X obj 1400 0 _ inst_pcm;
#X obj 1400 0 _ inst_pcm;
#X obj 1400 0 _ note_interpol;
#X obj 1400 0 _ fx_formant;
#X obj 1400 0 _ fx_dattorroverb;
#X obj 1400 0 _ data_feuille;
#X obj 1400 0 _ data_cyclogroove;
#X obj 1400 0 _ data_feuille;
#X obj 1400 0 _ inst_pvoc;
#X obj 1400 0 _ fx_alias;
#X obj 1400 0 _ fx_ring;
#X obj 1400 0 _ fx_bitcrush;
#X obj 1400 0 _ inst_oneshot;
#X obj 1400 0 _ inst_oneshot;
#X obj 1400 0 _ fx_bonkpitch;
#X obj 1400 0 _ data_ofelia;
#X obj 886 201 sendcanvas;
#X obj 862 147 delay 50;
#X obj 858 81 delay 200;
#X msg 877 125 donecanvasdialog 1 -1 0 0 0 1 1 815 800 -5 0;
#X msg 865 176 donecanvasdialog 1 -1 1 0 0 1 1 815 800 -5 0 \, dirty
0;
#X obj 887 501 dynamic_linker;
#X text 874 538 gère les insertions/suppressions/connexions dynamiques
de modules;
#X text 1001 499 + table SLOTMAP;
#X text 1401 85 modules non utilisés;
#X connect 4 0 140 0;
#X connect 10 0 1 0;
#X connect 11 0 1 0;
#X connect 13 0 1 0;
#X connect 139 0 142 0;
#X connect 140 0 141 0;
#X connect 140 0 139 0;
#X connect 141 0 138 0;
#X connect 142 0 138 0;
#X coords 0 0 1 1 815 800 1 -5 0;
#X restore 5 3 pd rack;
#X obj 989 608 ExportPatch;
#X obj 988 690 PdRacks.transport;
#X obj 990 434 PdRacks.settings;
#X obj 990 516 PdRacks.midilearn;
#X obj 988 776 u_loadmeter;
#N canvas 0 50 450 300 PdRacks.declare 0;
#X obj 10 10 declare -path ../ressources/modules;
#X obj 10 35 pdr-categories;
#X obj 10 60 text define -k scene_preset;
#A set audio_out-3 slot 14 \; audio_out-3 pan 0 \; audio_out-3 mute
0 \; audio_out-3 vol 110.931 \; audio_out-3 out OUT(1/2) \; inst_rhodey-0
slot 13 \; inst_rhodey-0 vol 95.3796 \; inst_rhodey-0 tone 0.432653
\; inst_rhodey-0 decay 2449.16 \; data_azerty2midi-0 az-qw 1 \; data_azerty2midi-0
slot 12 \; data_azerty2midi-0 enable 1 \; data_azerty2midi-0 oct 4
\; data_azerty2midi-0 velo 100 \;;
#X obj 10 85 text define -k pdr-extensions;
#A set video_ui \;;
#X obj 10 110 text define -k categories;
#A set effects \; instruments \; midi \; utils \; video_ui \;;
#X obj 10 100 text define -k video_ui;
#A set data_cyclogroove blob-based sequencer \; data_feuille client
that communicates with the video instance \; data_ofelia video server
emulation \; data_upic upic-like sequencer \;;
#X obj 100 130 declare -path ../extensions/video_ui;
#X obj 100 130 declare -path ../extension/video_ui/data_cyclogroove
;
#X obj 100 130 declare -lib ofelia;
#X restore 988 405 pd PdRacks.declare;
#X obj 987 364 pdr;
#X obj 874 772 s SPEED_LIM;
#X msg 904 743 0;
#X obj 873 719 loadbang;
#X msg 869 742 100;
#X text 1187 447 <- [text define midi-mapping] est défini ici. Pourquoi
pas plutôt dans PdRacks.midilearn ?, f 32;
#X obj 940 130 cnv 15 400 130 empty empty empty 20 12 0 14 -262130
-66577 0;
#X obj 953 135 hsl 100 100 0 127 0 0 empty empty empty -2 -8 0 10 -261682
-261682 -261682 0 1;
#X msg 1172 208 vis 1;
#X text 955 183 CLIQUER ICI;
#X text 964 140 CONDUITE SCENES, f 12;
#X obj 1177 231 s pd-conduite;
#X text 834 0 pd Rack permet de charger à la volée des configurations
de racks (scènes) différentes \, de la manière la plus douce possible
(pas de création dynamique d'objets \, tous les modules sont déjà
chargés.);
#X text 939 89 Les scènes dans stockées dans une conduite sous forme
de datastructures \, plutôt que dans l'objet Pdracks.settings.;
#X text 1196 620 <- outil pour exporter une scène dynamique en une
session statique;
#X text 1282 652 TO do : nettoyer gestion dépendances declare;
#X text 1356 144 TO do : abstraction utilisable dans autre contexte
??, f 29;
#X text 1266 7 TO do : abstraction paraméwtrable (lignes \, colonnes
\, objets préchargés), f 39;
#X text 863 278 Cette utilisation dynamique nécessite des libs externes
(iemlib \, ... \, faire la liste et vérifier);
#N canvas 1 58 1382 809 stuff 0;
#N canvas 350 56 607 453 declare 0;
#X obj 64 293 declare -stdpath extra/zexy/;
#X obj 60 318 declare -stdpath extra/hcs/;
#X obj 272 346 declare -lib iemlib/iemlib1;
#X obj 262 371 declare -lib iemlib/iemlib2;
#X obj 267 399 declare -lib zexy;
#X obj 65 268 declare -lib iemlib;
#X obj 285 239 declare -path iemlib;
#X obj 65 228 declare -path iemguts;
#X obj 386 287 iemlib/iem_receive;
#X obj 66 131 declare -path ../ressources/modules/;
#X obj 66 111 declare -path ../ressources/core/;
#X obj 65 153 declare -path ../ressources/rj/;
#X obj 64 175 declare -path ../ressources/core/fid_abs_vanilia-0.4/
;
#X restore 472 113 pd declare;
#N canvas 251 56 1097 554 mecanisme_sauvegarde_presets_dans_data_structures
0;
#N canvas 327 232 571 382 text-help-struct 0;
#X scalar text-help-struct 20 20 \; a b c d \;;
#X obj 79 230 pointer;
#X obj 22 257 append text-help-struct x y;
#X msg 23 172 20 20;
#X obj 161 24 struct text-help-struct float x float y text z;
#X obj 15 120 drawtext z 16 -3 0;
#X obj 254 142 tgl 15 1 empty empty empty 17 7 0 10 -262144 -1 -1 0
1;
#X obj 13 83 filledpolygon 0 0 0 0 0 0 30 30 30 30 0 0 0;
#X obj 475 124 outlet;
#X msg 79 172 traverse pd-ConduitePresets \, bang;
#X connect 1 0 2 2;
#X connect 3 0 2 0;
#X connect 4 0 8 0;
#X connect 6 0 5 0;
#X connect 9 0 1 0;
#X restore 348 131 pd text-help-struct;
#X text 88 466 bug - saving multi-line texts inside structures;
#N canvas 217 207 1366 685 gestion_conduite 0;
#X msg 476 248 bang;
#X msg 428 248 step;
#X obj 43 20 inlet from data-struct-template;
#X obj 715 365 text set -s text-help-struct z, f 18;
#X obj 878 10 r RJ_SCENE;
#X msg 943 250 0;
#X obj 916 286 f;
#X obj 975 284 + 1;
#X obj 75 361 delay 100;
#X obj 56 419 f;
#X obj 97 300 t b f;
#X obj 73 386 t b b;
#X obj 106 219 f;
#X obj 70 148 t b;
#X obj 70 121 r \$0-save;
#X obj 179 553 pointer;
#X obj 10 586 append text-help-struct x y;
#X obj 54 448 - 15;
#X obj 701 539 delay 100;
#X obj 10 622 t b a;
#X msg 47 509 40 \$1;
#X msg 230 364 editmode 1 \, mouse 40 \$1 0 0 \, mouseup 50 \$1 0;
#X msg 590 318 set \$1;
#X text 148 121 gros bouton rouge;
#X text 746 647 variable globale pour communiquer avec le module rj_808
;
#X text 731 671 a terme il faudra integrer tout ça dans un seul module
;
#X msg 184 422 cut \, editmode 0;
#X text 577 298 voir "creation_dynamique_d'objets";
#X obj 945 194 textfile;
#X obj 739 625 outlet;
#X obj 879 76 list prepend add;
#X obj 915 150 list trim;
#X msg 896 533 clear;
#X obj 736 570 t b b b;
#X obj 817 103 t b;
#X obj 802 141 delay 200;
#X msg 799 165 rewind \, bang;
#X obj 825 268 t b l b;
#X obj 773 211 delay 0;
#X obj 879 233 list;
#X msg 232 242 pos 0 \$1;
#X obj 229 213 f;
#X obj 230 268 s ducon;
#X msg 576 0 \; RJ_SCENE_PRELOAD bang \; RJ_SCENE_RELOAD bang \; RJ_SCENE_LOAD
bang \; RJ_SCENE_POSTLOAD bang \; REFRESH_CONNEXIONS bang;
#X obj 219 154 r SCENE-pos-rcv;
#X obj 215 180 route set;
#X msg 113 512 traverse pd-conduite \, bang;
#X obj 221 463 s pd-conduite;
#X text 404 301 done;
#N canvas 0 50 1089 575 load_scene_frome_datastructures 0;
#X obj 99 11 inlet;
#X obj 107 51 route click;
#X obj 107 76 list split 1;
#X obj 203 106 + 15;
#X obj 116 284 text sequence -s text-help-struct z;
#X text 187 244 rewind;
#X obj 102 101 list trim;
#X obj 100 125 t b a a b;
#X obj 224 517 s RJ_SCENE_LOAD;
#X obj 93 158 t b b;
#X obj 152 213 s RJ_SCENE_RELOAD;
#X msg 202 131 set \$1;
#X msg 115 247 line 0;
#X text 438 526 cf module_declare;
#X obj 152 190 s RJ_SCENE_PRELOAD;
#X obj 426 504 s RJ_SCENE_POSTLOAD;
#X obj 37 223 t b b b b;
#X obj 384 553 s REFRESH_CONNEXIONS;
#X obj 46 196 delay 10;
#X msg 71 260 step;
#X obj 126 312 t b a;
#X obj 21 298 delay 0;
#X obj 416 374 delay 1;
#X obj 397 470 t b b;
#X obj 202 157 s SCENE-pos-rcv;
#X obj 190 411 textfile;
#X obj 194 355 list prepend add;
#X obj 194 380 list trim;
#X msg 336 379 clear;
#X msg 416 399 rewind \, bang;
#X obj 134 497 delay 0;
#X text 472 466 done;
#X text 39 331 ---------------------- découplage dans un textfile
pour éviter crashes avec datastructures------------, f 105;
#X obj 190 436 list;
#X obj 180 466 t b l;
#X connect 0 0 1 0;
#X connect 1 0 2 0;
#X connect 2 0 6 0;
#X connect 2 1 3 0;
#X connect 3 0 11 0;
#X connect 4 0 20 0;
#X connect 4 1 22 0;
#X connect 6 0 7 0;
#X connect 7 0 9 0;
#X connect 7 1 4 1;
#X connect 7 3 28 0;
#X connect 9 0 18 0;
#X connect 9 1 10 0;
#X connect 9 1 14 0;
#X connect 11 0 24 0;
#X connect 12 0 4 0;
#X connect 16 2 19 0;
#X connect 16 3 12 0;
#X connect 18 0 16 0;
#X connect 19 0 4 0;
#X connect 20 0 21 0;
#X connect 20 1 26 0;
#X connect 21 0 19 0;
#X connect 22 0 29 0;
#X connect 23 0 17 0;
#X connect 23 1 15 0;
#X connect 25 0 33 0;
#X connect 25 1 23 0;
#X connect 26 0 27 0;
#X connect 27 0 25 0;
#X connect 28 0 25 0;
#X connect 29 0 25 0;
#X connect 30 0 25 0;
#X connect 33 0 34 0;
#X connect 34 0 30 0;
#X connect 34 1 8 0;
#X restore 44 49 pd load_scene_frome_datastructures;
#X text 296 271 <- le trait horizontal du curseur;
#X obj 66 479 t f b;
#X text 350 463 suppression de l'ancien bloc de scène;
#X text 257 573 création d'un nouveau bloc de scène à la place de
l'ancien;
#X text 1056 198 tous les modules "crachent" les valeurs de leurs paramètres
\, qui sont stockées dans le textfile ci-dessous. à la fin \, celui-ci
est purgé et son contenu est recopié à l'intérieur du champ texte
du bloc de scène nouvellement créé., f 35;
#X obj 547 187 t f b b;
#X obj 878 35 spigot;
#X msg 611 215 1;
#X obj 555 222 delay 2000;
#X msg 555 247 0;
#X connect 2 0 49 0;
#X connect 4 0 56 0;
#X connect 5 0 6 1;
#X connect 6 0 7 0;
#X connect 6 0 3 1;
#X connect 7 0 6 1;
#X connect 8 0 11 0;
#X connect 9 0 17 0;
#X connect 10 0 8 0;
#X connect 10 1 21 0;
#X connect 10 1 9 1;
#X connect 11 0 9 0;
#X connect 11 1 26 0;
#X connect 12 0 55 0;
#X connect 13 0 12 0;
#X connect 14 0 13 0;
#X connect 15 0 16 2;
#X connect 16 0 19 0;
#X connect 17 0 51 0;
#X connect 18 0 33 0;
#X connect 19 0 18 0;
#X connect 19 1 3 3;
#X connect 20 0 16 0;
#X connect 21 0 47 0;
#X connect 26 0 47 0;
#X connect 28 0 39 0;
#X connect 30 0 31 0;
#X connect 30 0 34 0;
#X connect 31 0 28 0;
#X connect 32 0 28 0;
#X connect 33 0 29 0;
#X connect 33 1 5 0;
#X connect 33 2 32 0;
#X connect 34 0 35 0;
#X connect 35 0 36 0;
#X connect 36 0 28 0;
#X connect 37 0 38 0;
#X connect 37 1 3 0;
#X connect 37 2 6 0;
#X connect 38 0 28 0;
#X connect 39 0 37 0;
#X connect 40 0 42 0;
#X connect 41 0 40 0;
#X connect 44 0 45 0;
#X connect 45 0 12 1;
#X connect 45 0 41 0;
#X connect 46 0 15 0;
#X connect 51 0 20 0;
#X connect 51 1 46 0;
#X connect 55 0 10 0;
#X connect 55 1 58 0;
#X connect 55 2 57 0;
#X connect 56 0 30 0;
#X connect 57 0 56 1;
#X connect 58 0 59 0;
#X connect 59 0 56 1;
#X restore 354 172 pd gestion_conduite;
#X obj 546 85 r \$0-load;
#X text 701 152 if the load button is pressed;
#X obj 802 301 r SSSAD_ADMIN;
#X obj 802 356 route persist;
#X obj 802 326 list trim;
#X obj 802 412 list trim;
#X msg 456 219 save;
#X obj 478 424 s SSSAD_ADMIN;
#X obj 802 388 list prepend add SSSAD;
#X msg 500 384 set \, addsemi;
#X msg 456 452 add SSSAD_ADMIN set;
#X obj 528 267 s SSSAD_SAVE;
#X text 540 12 original patch by frank barknecht (sssad);
#X obj 592 491 outlet;
#X obj 514 332 s RJ_SCENE_SAVE;
#X obj 771 198 r RJ_SCENE;
#X obj 771 248 list trim;
#X obj 771 226 list prepend add RJ_SCENE_LOAD;
#X msg 661 281 dirty 1;
#X obj 456 242 t b a b b b b;
#X obj 421 266 t b b;
#X msg 379 321 menusave;
#X obj 377 299 delay 1000;
#X obj 735 125 s RJ_SCENE_RELOAD;
#X obj 550 112 t b b, f 27;
#X obj 621 226 bng 15 250 50 0 empty empty empty 17 7 0 10 -262144
-1 -1;
#X obj 248 428 s pd-conduite;
#X connect 0 0 2 0;
#X connect 2 0 9 0;
#X connect 3 0 27 0;
#X connect 5 0 7 0;
#X connect 6 0 11 0;
#X connect 7 0 6 0;
#X connect 8 0 16 0;
#X connect 9 0 22 0;
#X connect 11 0 8 0;
#X connect 12 0 16 0;
#X connect 13 0 16 0;
#X connect 18 0 20 0;
#X connect 19 0 16 0;
#X connect 20 0 19 0;
#X connect 21 0 29 0;
#X connect 22 0 23 0;
#X connect 22 1 10 0;
#X connect 22 1 17 0;
#X connect 22 2 12 0;
#X connect 22 4 14 0;
#X connect 22 5 21 0;
#X connect 23 0 25 0;
#X connect 23 1 13 0;
#X connect 24 0 29 0;
#X connect 25 0 24 0;
#X connect 27 0 16 0;
#X connect 27 1 26 0;
#X connect 28 0 14 0;
#X restore 473 207 pd mecanisme_sauvegarde_presets_dans_data_structures
;
#N canvas 0 50 681 300 ctlin 0;
#X obj 163 219 s CTLIN;
#X obj 243 81 - 1;
#X obj 243 106 * 128;
#X obj 221 131 +;
#X obj 160 154 pack f f;
#X obj 160 36 ctlin;
#X connect 1 0 2 0;
#X connect 2 0 3 1;
#X connect 3 0 4 1;
#X connect 4 0 0 0;
#X connect 5 0 4 0;
#X connect 5 1 3 0;
#X connect 5 2 1 0;
#X restore 472 14 pd ctlin;
#N canvas 1 56 723 477 midi-setting-saving_with_presets 0;
#X obj 37 188 s pd;
#X msg 41 167 midi-dialog 1 0 0 0 0 0 0 0 0 0 0 0 0 0 0 0 0 0 2 3;
#X obj 536 75 r pd;
#X obj 535 106 route midi-dialog;
#X obj 73 219 r RJ_SCENE_LOAD;
#X obj 68 286 list trim;
#X obj 73 318 route midi-dialog;
#X obj 87 365 list prepend midi-dialog;
#X obj 78 405 list trim;
#X obj 81 434 s pd;
#X obj 509 224 list append;
#X obj 538 146 t b l;
#X obj 470 202 spigot;
#X msg 528 172 1;
#X obj 401 85 r RJ_SCENE_SAVE;
#X obj 471 294 s RJ_SCENE;
#X obj 494 266 list prepend midi-dialog;
#X obj 414 108 t b;
#X obj 333 222 inlet;
#X obj 83 251 spigot;
#X obj 439 143 spigot;
#X connect 1 0 0 0;
#X connect 2 0 3 0;
#X connect 3 0 11 0;
#X connect 4 0 19 0;
#X connect 5 0 6 0;
#X connect 6 0 7 0;
#X connect 7 0 8 0;
#X connect 8 0 9 0;
#X connect 10 0 16 0;
#X connect 11 0 13 0;
#X connect 11 1 10 1;
#X connect 12 0 10 0;
#X connect 13 0 12 1;
#X connect 14 0 17 0;
#X connect 16 0 15 0;
#X connect 17 0 20 0;
#X connect 18 0 19 1;
#X connect 18 0 20 1;
#X connect 19 0 5 0;
#X connect 20 0 12 0;
#X restore 538 174 pd midi-setting-saving_with_presets;
#X obj 589 100 tgl 40 1 empty empty empty 17 7 0 10 -262144 -1 -1 0
1;
#X text 589 146 ENABLE;
#N canvas 1 56 904 300 release_notes 0;
#X text 56 46 26/05 : les affectations de parametres midi sont désormais
dynamiques et sans glitch \, et sont associées à chaque scène.;
#X text 69 123 TO do : cablage dynamique des data_inlet / data_outlet
sans utiliser iem_receive;
#X text 77 173 mode de reprise (comme dans live);
#X restore 581 245 pd release_notes;
#N canvas 323 80 1150 566 remote 0;
#X floatatom 134 75 5 0 0 0 - - -, f 5;
#X msg 58 154 \; fx_freeverb-1 remote amp \$1;
#X text 217 37 systématiser l'utilisation du message remote;
#X floatatom 376 76 5 0 0 0 - - -, f 5;
#X msg 108 114 \; fx_freeverb-1 remote hall \$1;
#X msg 372 117 \; RJ_SCENE_LOAD fx_freeverb-1 hall \$1;
#X floatatom 379 149 5 0 0 0 - - -, f 5;
#X msg 383 169 \; audio_out-0 remote pan \$1;
#X msg 27 251 \; fx_ring-1 midi freq \$1;
#X obj 29 231 hsl 128 15 0 127 0 0 empty empty empty -2 -8 0 10 -262144
-1 -1 0 1;
#X text 54 213 commande midi sans passer par midimappings (ctlassign3)
;
#X obj 41 304 hsl 128 15 0 127 0 0 empty empty empty -2 -8 0 10 -262144
-1 -1 0 1;
#X msg 37 321 \; fx_ring-1 midi-ctl freq \$1;
#X text 277 334 module_loader -> midi_colors;
#X msg 47 421 \; audio_out-3 midi-ctl mute \$1;
#X obj 53 397 tgl 15 0 empty empty empty 17 7 0 10 -262144 -1 -1 0
1;
#X obj 343 397 tgl 15 0 empty empty empty 17 7 0 10 -262144 -1 -1 0
1;
#X msg 337 421 \; audio_out-3 remote mute \$1;
#X text 320 374 modifier directement la valeur dans u_dispatch;
#X text 804 250 OBSOLETE;
#X obj 303 447 tgl 15 0 empty empty empty 17 7 0 10 -262144 -1 -1 0
1;
#X msg 297 471 \; RJ_SCENE_LOAD audio_out-3 mute \$1;
#X text 287 254 module_loader -> ui_vs (tous les ui_vs reçoivent ce
message);
#X text 582 481 tous les modules reçoivent ce message ?;
#X msg 720 42 \; fx_ring-1 get_params foufou;
#X obj 716 69 r foufou;
#X obj 716 99 print foufou;
#X text 715 11 obtenir les range de tous les params d'un module;
#X text 858 85 (implémenté dans ui_vs \, devrat être implémenté
dans midi_colors);
#X connect 0 0 4 0;
#X connect 3 0 5 0;
#X connect 6 0 7 0;
#X connect 9 0 8 0;
#X connect 11 0 12 0;
#X connect 15 0 14 0;
#X connect 16 0 17 0;
#X connect 20 0 21 0;
#X connect 25 0 26 0;
#X restore 717 51 pd remote;
#X msg 684 527 \; RJ_SCENE_PRELOAD bang \; RJ_SCENE_RELOAD bang \;
RJ_SCENE_LOAD bang \; RJ_SCENE_POSTLOAD bang \; REFRESH_CONNEXIONS
bang;
#X obj 731 501 r RESET;
#X obj 640 462 loadbang;
#X obj 640 488 delay 1000;
#X obj 947 443 module_loader main \$0;
#X connect 4 0 3 0;
#X connect 9 0 8 0;
#X connect 10 0 11 0;
#X connect 11 0 8 0;
#X coords 0 809 1 808 360 300 0;
#X restore 1083 165 pd stuff;
#X obj 1083 140 ConduiteTutoriel;
#X connect 9 0 8 0;
#X connect 10 0 11 0;
#X connect 11 0 8 0;
#X connect 14 0 15 0;
#X connect 15 0 18 0;
