#N canvas 320 58 1345 708 12;
#X declare -path ../extensions/<extension_name>;
#X obj 335 3 iemguts/receivecanvas 1;
#X obj 275 732 iemguts/sendcanvas 1;
#X obj 330 54 spigot;
#N canvas 1 56 868 804 add&insert 0;
#N canvas 1 56 1315 674 \$0-ADD/INSERT 0;
#X msg 276 142 fx_parameq2;
#X msg 753 298 PdRacks.presets;
#X msg 276 452 fx_compressor;
#X msg 276 265 fx_chorus;
#X msg 276 285 fx_dubdel;
#X msg 276 82 fx_hip;
#X msg 276 192 fx_ring;
#X msg 276 375 fx_freeverb;
#X msg 276 472 fx_dynproc;
#X msg 276 102 fx_filter;
#X msg 276 212 fx_freqshift;
#X msg 276 232 fx_pitchshift;
#X msg 276 355 fx_resonator;
#X msg 276 62 fx_lop;
#X msg 276 42 fx_lowhip;
#X msg 276 305 fx_dubdel2;
#X msg 276 499 fx_sub;
#X msg 276 325 fx_reverse;
#X msg 276 395 fx_everb;
#X msg 276 162 fx_eq3;
#X msg 276 122 fx_parameq;
#X msg 46 263 inst_sampler;
#X msg 46 283 inst_turntable;
#X msg 46 223 inst_8bits;
#X msg 46 243 inst_rhodey;
#X msg 46 163 inst_soundfile;
#X msg 46 143 inst_headrush;
#X msg 46 183 inst_tabosc;
#X msg 46 203 inst_bassdrum;
#X msg 46 93 inst_modular;
#X msg 484 51 audio_in;
#X msg 484 71 audio_out;
#X msg 484 91 audio_record;
#X msg 484 111 audio_features;
#X msg 484 456 data_wintablet;
#X msg 484 436 data_fidtouch;
#X msg 484 476 data_fidcontrol;
#X msg 484 220 data_azerty2midi;
#X msg 739 71 midi_arpeggiator;
#X msg 739 91 note_randomize;
#X msg 739 111 note_2param;
#X msg 92 451 cancel;
#X text 39 30 INSTRUMENTS;
#X text 265 7 AUDIO EFFECTS;
#X text 477 15 IN OUT;
#X msg 484 240 note_16steps;
#X msg 484 260 data_upic;
#X text 486 186 MIDI NOTE GENERATORS;
#X text 731 30 MIDI FILTERS;
#X text 485 403 DATA CONTROL;
#X text 72 422 CLOSE THIS WINDOW;
#X text 749 226 GLOBAL;
#X msg 276 553 fx_bitcrush;
#X msg 46 303 inst_euclidrums;
#X msg 484 326 midi_notein;
#X msg 739 144 note_interpolations;
#X msg 46 351 inst_pcm;
#X msg 739 170 note_interpol;
#X msg 276 529 fx_formant;
#X text 618 455 interface avec tablettes wacom;
#X text 119 348 lecteur de sample;
#X msg 276 415 fx_dattorroverb;
#X msg 484 502 data_feuille;
#X msg 484 281 data_cyclogroove;
#X msg 86 386 inst_pvoc;
#X text 628 434 interface multitouch;
#X text 633 475 monotouch to ctlout;
#X msg 983 278 PdRacks.morphing;
#X msg 983 258 PdRacks.transport;
#X msg 401 567 fx_alias;
#X msg 15 399 inst_oneshot;
#X msg 663 392 data_ofelia;
#X msg 914 405 fx_bonkpitch;
#X obj 46 521 s \$0-ADD;
#X obj 276 594 s \$0-ADD;
#X obj 484 588 s \$0-ADD;
#X obj 484 358 s \$0-ADD;
#X obj 484 158 s \$0-ADD;
#X obj 739 201 s \$0-ADD;
#X obj 753 342 s \$0-ADD;
#X connect 0 0 74 0;
#X connect 1 0 79 0;
#X connect 2 0 74 0;
#X connect 3 0 74 0;
#X connect 4 0 74 0;
#X connect 5 0 74 0;
#X connect 6 0 74 0;
#X connect 7 0 74 0;
#X connect 8 0 74 0;
#X connect 9 0 74 0;
#X connect 10 0 74 0;
#X connect 11 0 74 0;
#X connect 12 0 74 0;
#X connect 13 0 74 0;
#X connect 14 0 74 0;
#X connect 15 0 74 0;
#X connect 16 0 74 0;
#X connect 17 0 74 0;
#X connect 18 0 74 0;
#X connect 19 0 74 0;
#X connect 20 0 74 0;
#X connect 21 0 73 0;
#X connect 22 0 73 0;
#X connect 23 0 73 0;
#X connect 24 0 73 0;
#X connect 25 0 73 0;
#X connect 26 0 73 0;
#X connect 27 0 73 0;
#X connect 28 0 73 0;
#X connect 29 0 73 0;
#X connect 30 0 77 0;
#X connect 31 0 77 0;
#X connect 32 0 77 0;
#X connect 33 0 77 0;
#X connect 34 0 75 0;
#X connect 35 0 75 0;
#X connect 36 0 75 0;
#X connect 37 0 76 0;
#X connect 38 0 78 0;
#X connect 39 0 78 0;
#X connect 40 0 78 0;
#X connect 41 0 73 0;
#X connect 45 0 76 0;
#X connect 46 0 76 0;
#X connect 52 0 74 0;
#X connect 53 0 73 0;
#X connect 54 0 76 0;
#X connect 55 0 78 0;
#X connect 56 0 73 0;
#X connect 57 0 78 0;
#X connect 58 0 74 0;
#X connect 61 0 74 0;
#X connect 62 0 75 0;
#X connect 63 0 76 0;
#X connect 64 0 73 0;
#X connect 69 0 74 0;
#X connect 70 0 73 0;
#X connect 71 0 75 0;
#X connect 72 0 75 0;
#X restore 35 129 pd \$0-ADD/INSERT;
#X obj 225 222 f \$0;
#X msg 225 245 \; pd-\$1-ADD/INSERT vis 1;
#X obj 438 420 f \$0;
#X msg 438 443 \; pd-\$1-ADD/INSERT vis 0;
#X obj 377 327 r \$0-ADD;
#X obj 377 350 t a b;
#X obj 377 373 symbol;
#X obj 289 409 select cancel;
#X obj 342 459 list append;
#X obj 573 218 unpack f f;
#X obj 573 265 pack f f;
#X obj 573 241 - 10;
#X obj 626 246 - 10;
#X msg 319 483 obj \$2 \$3 \$1;
#X obj 515 134 route key motion;
#X obj 493 173 route 1;
#X obj 448 210 route Insert;
#X obj 448 233 t b;
#X obj 513 55 inlet;
#X obj 295 519 outlet;
#X connect 1 0 2 0;
#X connect 3 0 4 0;
#X connect 5 0 6 0;
#X connect 6 0 7 0;
#X connect 6 1 3 0;
#X connect 7 0 8 0;
#X connect 8 1 9 0;
#X connect 9 0 14 0;
#X connect 10 0 12 0;
#X connect 10 1 13 0;
#X connect 11 0 9 1;
#X connect 12 0 11 0;
#X connect 13 0 11 1;
#X connect 14 0 20 0;
#X connect 15 0 16 0;
#X connect 15 1 10 0;
#X connect 16 0 17 0;
#X connect 17 0 18 0;
#X connect 18 0 1 0;
#X connect 19 0 15 0;
#X restore 455 141 pd add&insert;
#X obj 824 96 loadbang;
#X obj 841 242 delay 100;
#X obj 817 266 iemguts/canvasposition;
#X obj 821 292 unpack f f;
#X obj 396 34 == 1;
#X obj 40 267 s \$0-pdr-rcv;
#X msg 33 198 label autocomplete;
#X obj 152 172 select 1 0 2;
#N canvas 671 198 900 813 create_dynamic_m_instance 0;
#X obj 333 124 route 1;
#X obj 343 102 route key motion;
#X obj 289 337 list append;
#X obj 277 367 t l l;
#X obj 307 149 route Insert;
#X obj 260 392 unpack f f;
#X obj 256 454 pack f f;
#X msg 81 605 mouse \$1 \$2 1 0 \, mouseup \$1 \$2 1;
#X obj 300 421 - 5;
#X obj 393 439 unpack f f;
#X obj 393 485 pack f f;
#X obj 449 463 - 10;
#X obj 295 172 t b b b;
#X msg 317 514 editmode 1 \, obj \$1 \$2 m;
#X obj 295 284 spigot;
#X obj 324 198 s is_m_alive?;
#X obj 338 219 r yes_m_is_alive!;
#X msg 326 249 0;
#X obj 393 462 + 10;
#X obj 256 430 + 15;
#X obj 329 25 inlet;
#X obj 275 732 outlet;
#X msg 462 217 1;
#X obj 329 48 t a a;
#X obj 215 490 t l l l;
#X obj 170 540 s m_start_listen;
#X obj 579 132 route 10;
#X msg 509 198 editmode 0 \, editmode 1;
#X obj 643 474 iemguts/canvasselect 2;
#X obj 295 309 t b b;
#X obj 700 367 t b b;
#X text 767 404 get nb of indexes;
#X text 731 510 get index of selected canmvasses;
#X obj 526 630 list append;
#X obj 526 655 list prepend;
#X obj 690 169 delay 100;
#X msg 558 742 connect \$2 0 \$1 0 \, connect \$2 1 \$1 1 \, connect
\$2 2 \$1 2;
#X obj 526 680 t l l, f 7;
#X obj 526 705 spigot;
#X obj 607 693 list length;
#X obj 607 718 > 1;
#X obj 736 425 iemguts/canvasindex 1;
#X obj 643 499 t l l;
#X obj 835 464 list split 1;
#X obj 683 584 unpack f f;
#X obj 718 676 pack f f;
#X obj 640 541 iemguts/canvasobjectposition 2;
#X obj 835 489 t b f;
#X obj 747 640 + 90;
#X obj 683 609 - 10;
#X connect 0 0 4 0;
#X connect 1 0 0 0;
#X connect 1 1 2 1;
#X connect 2 0 3 0;
#X connect 3 0 5 0;
#X connect 3 1 9 0;
#X connect 4 0 12 0;
#X connect 4 1 26 0;
#X connect 5 0 19 0;
#X connect 5 1 8 0;
#X connect 6 0 24 0;
#X connect 7 0 21 0;
#X connect 8 0 6 1;
#X connect 9 0 18 0;
#X connect 9 1 11 0;
#X connect 10 0 13 0;
#X connect 11 0 10 1;
#X connect 12 0 14 0;
#X connect 12 1 15 0;
#X connect 12 2 22 0;
#X connect 13 0 21 0;
#X connect 14 0 29 0;
#X connect 16 0 17 0;
#X connect 17 0 14 1;
#X connect 18 0 10 0;
#X connect 19 0 6 0;
#X connect 20 0 23 0;
#X connect 22 0 14 1;
#X connect 23 1 1 0;
#X connect 24 1 25 0;
#X connect 26 0 27 0;
#X connect 26 0 35 0;
#X connect 27 0 21 0;
#X connect 28 0 42 0;
#X connect 29 0 2 0;
#X connect 29 1 30 0;
#X connect 30 0 28 0;
#X connect 30 1 41 0;
#X connect 33 0 34 0;
#X connect 34 0 37 0;
#X connect 35 0 33 0;
#X connect 36 0 21 0;
#X connect 37 0 38 0;
#X connect 37 1 39 0;
#X connect 38 0 36 0;
#X connect 39 0 40 0;
#X connect 40 0 38 1;
#X connect 41 1 34 1;
#X connect 42 0 33 1;
#X connect 42 1 43 0;
#X connect 43 0 47 0;
#X connect 44 0 49 0;
#X connect 44 1 48 0;
#X connect 45 0 2 1;
#X connect 46 0 44 0;
#X connect 47 0 46 0;
#X connect 47 1 46 1;
#X connect 48 0 45 1;
#X connect 49 0 45 0;
#X restore 327 284 pd create_dynamic_m_instance;
#X obj 824 126 t b b b;
#X obj 812 215 spigot;
#X msg 924 163 1;
#X obj 839 158 s ping-r;
#X obj 837 178 r ping-s;
#X msg 832 196 0;
#X obj 460 74 spigot;
#X obj 527 54 == 2;
#X msg 728 243 1;
#X obj 101 119 cnv 5 118 14 empty \$0-pdr-rcv empty 2 6 0 12 -204786
-66577 0;
#X obj 139 100 hradio 20 1 0 3 empty empty empty 0 -8 0 10 -4032 -4160
-1 0;
#X msg 235 127 vis 1;
#N canvas 585 175 450 300 \$0-options 0;
#N canvas 422 72 630 530 add_an_extension... 0;
#N canvas 1 56 450 300 tech-notes 0;
#X text 25 63 pour rajouter une extension;
#X text 52 155 rajouter un ou plusieurs declare;
#X text 56 210 rajouter un text define;
#X text 65 275 charger le text define avec le fichier text correspondant
;
#X obj 114 248 text define -k <extension_name>;
#A set;
#X obj 111 181 declare -path ../extensions/<extension_name>;
#X text 57 88 charger le fichier <extension_name>.txt;
#X text 18 124 parser le contenu \, puis \, dans le subpatch PdRacks.declare
:;
#X restore 485 31 pd tech-notes;
#X text 54 95 1) L'extension doit être dézippée et son dossier placé
dans le dossier <PdRacks>/extensions/;
#X text 51 138 2) Pour installer une extension dans le patch courant
\, taper son nom ci-dessous \, puis appuyer sur <enter>;
#N canvas 863 262 772 591 load_extension 0;
#X obj 250 414 s pd-PdRacks.declare;
#X obj 169 224 spigot;
#X msg 216 197 0;
#X msg 276 214 1;
#X obj 13 320 text insert categories;
#X msg 190 130 0;
#X obj 169 247 t b b b;
#X obj 195 282 delay 10;
#X obj 562 252 t a b;
#X msg 593 274 1e+09;
#X obj 16 196 select -1;
#X obj 18 172 text search categories;
#X obj 131 -10 inlet;
#X obj 15 230 list append;
#X obj 185 100 t b b b s s;
#X obj 222 174 text get <extension_name>;
#X obj 328 277 symbol;
#X msg 294 346 obj 10 100 text define -k \$1;
#X obj 547 305 text insert <extension_name>;
#X obj 492 100 list trim;
#X obj 489 127 route # declare;
#X obj 451 147 list prepend obj 100 130 declare;
#X obj 451 172 list trim;
#X obj 580 197 list;
#X obj 143 43 iemlib/splitfilename /;
#X obj 131 15 t s s;
#X obj 529 398 text define \$0-temp;
#X obj 492 75 text sequence \$0-temp;
#X msg 359 38 clear \, read \$1;
#X obj 131 74 iemlib/splitfilename .;
#X text 23 78 remove .txt;
#X text 16 48 remove path;
#X obj 43 457 select -1;
#X obj 45 485 list append;
#X obj 40 430 text search pdr-extensions;
#X obj 43 561 text insert pdr-extensions;
#X msg 489 47 line 0 \, bang;
#X obj 173 341 symbol;
#X msg 173 366 l'extension \$1 a été installée avec succès !;
#X obj 173 391 print pdr;
#X obj 22 262 t a b;
#X msg 53 284 1e+09;
#X obj 49 509 t a b;
#X msg 80 531 1e+09;
#X connect 1 0 6 0;
#X connect 2 0 1 1;
#X connect 3 0 1 1;
#X connect 5 0 15 0;
#X connect 6 0 37 0;
#X connect 6 1 7 0;
#X connect 6 2 16 0;
#X connect 7 0 36 0;
#X connect 8 0 18 0;
#X connect 8 1 9 0;
#X connect 9 0 18 1;
#X connect 10 0 13 0;
#X connect 11 0 10 0;
#X connect 12 0 25 0;
#X connect 13 0 40 0;
#X connect 14 0 1 0;
#X connect 14 1 5 0;
#X connect 14 2 3 0;
#X connect 14 3 11 0;
#X connect 14 3 34 0;
#X connect 14 4 13 1;
#X connect 14 4 15 3;
#X connect 14 4 16 1;
#X connect 14 4 18 2;
#X connect 14 4 33 1;
#X connect 14 4 37 1;
#X connect 15 0 2 0;
#X connect 16 0 17 0;
#X connect 17 0 0 0;
#X connect 19 0 20 0;
#X connect 20 1 21 0;
#X connect 20 2 23 0;
#X connect 21 0 22 0;
#X connect 22 0 0 0;
#X connect 23 0 8 0;
#X connect 24 1 29 0;
#X connect 25 0 24 0;
#X connect 25 1 28 0;
#X connect 27 0 19 0;
#X connect 28 0 26 0;
#X connect 29 0 14 0;
#X connect 32 0 33 0;
#X connect 33 0 42 0;
#X connect 34 0 32 0;
#X connect 36 0 27 0;
#X connect 37 0 38 0;
#X connect 38 0 39 0;
#X connect 40 0 4 0;
#X connect 40 1 41 0;
#X connect 41 0 4 1;
#X connect 42 0 35 0;
#X connect 42 1 43 0;
#X connect 43 0 35 1;
#X restore 365 213 pd load_extension;
#X obj 366 183 openpanel;
#X obj 385 59 inlet;
#X connect 4 0 3 0;
#X connect 5 0 4 0;
#X restore 47 165 pd add_an_extension...;
#X text 34 8 OPTIONS;
#X obj 44 62 bng 15 250 50 0 empty empty empty 17 7 0 10 -262144 -1
-1;
#X text 79 88 L'extension doit être dézippée et son dossier placé
dans le dossier <PdRacks>/extensions/, f 47;
#X text 67 57 <- ajouter une extension;
#X msg 82 244 click;
#X obj 82 269 s pdr-extensions;
#X msg 139 243 close;
#X obj 82 225 bng 15 250 50 0 empty empty empty 17 7 0 10 -262144 -1
-1;
#X text 34 204 Pour voir quelles sont les extensions installées \,
clicker ici ->;
#X text 80 127 ouvrir le fichier <my_extension>.txt;
#X connect 2 0 0 0;
#X connect 5 0 6 0;
#X connect 7 0 6 0;
#X connect 8 0 5 0;
#X restore 1102 226 pd \$0-options;
#X obj 233 150 s pd-\$0-options;
#X obj 200 100 bng 20 250 50 0 empty empty ... 1 9 0 10 -1 -33289 -262144
;
#X msg 94 326 label;
#X obj 880 321 + 45;
#X obj 809 359 pack f f f;
#X msg 323 554 obj \$1 \$3 PdRacks.settings;
#X msg 736 498 obj \$1 \$2 pd PdRacks.declare;
#X obj 938 328 + 75;
#X msg 166 226 label menu(vanilla);
#X obj 186 421 v PdRacks.declare.y-offset;
#X obj 664 383 t l b l b;
#X obj 813 453 v PdRacks.declare.y-offset;
#X msg 814 414 160;
#X obj 622 685 s pd-PdRacks.declare;
#X obj 427 417 t b l;
#X obj 427 442 v PdRacks;
#X text 504 440 test if PdRacks.settings allready exists;
#X obj 427 467 select 0;
#X obj 427 496 list append;
#X msg 622 540 obj 10 10 declare -path ../ressources/modules \, obj
10 35 pdr-categories \, obj 10 60 text define -k scene_preset \, obj
10 85 text define -k pdr-extensions \, obj 10 110 text define -k categories
\, vis 0 \, loadbang, f 47;
#X connect 0 0 2 0;
#X connect 0 0 19 0;
#X connect 2 0 12 0;
#X connect 3 0 1 0;
#X connect 4 0 13 0;
#X connect 5 0 6 0;
#X connect 6 0 7 0;
#X connect 7 0 30 0;
#X connect 7 1 29 0;
#X connect 7 1 33 0;
#X connect 8 0 2 1;
#X connect 10 0 9 0;
#X connect 11 0 10 0;
#X connect 11 1 28 0;
#X connect 11 2 34 0;
#X connect 12 0 1 0;
#X connect 13 0 14 0;
#X connect 13 1 16 0;
#X connect 13 2 15 0;
#X connect 14 0 5 0;
#X connect 14 0 21 0;
#X connect 15 0 14 1;
#X connect 17 0 18 0;
#X connect 18 0 14 1;
#X connect 19 0 3 0;
#X connect 20 0 19 1;
#X connect 21 0 23 0;
#X connect 23 0 8 0;
#X connect 23 0 11 0;
#X connect 23 0 20 0;
#X connect 24 0 26 0;
#X connect 27 0 24 0;
#X connect 28 0 9 0;
#X connect 29 0 30 1;
#X connect 30 0 36 0;
#X connect 31 0 1 0;
#X connect 32 0 1 0;
#X connect 33 0 30 2;
#X connect 34 0 9 0;
#X connect 36 0 40 0;
#X connect 36 1 45 0;
#X connect 36 2 32 0;
#X connect 36 3 38 0;
#X connect 38 0 37 0;
#X connect 40 0 41 0;
#X connect 40 1 44 1;
#X connect 41 0 43 0;
#X connect 43 0 44 0;
#X connect 44 0 31 0;
#X connect 45 0 39 0;
#X coords 0 -1 1 1 120 34 1 100 100;
