#N canvas 224 52 901 613 12;
#X declare -path bsaylor;
#X obj 480 298 sig~ 1;
#X obj 41 1 inlet;
#X obj 159 252 symbol;
#X obj 382 334 switch~;
#X msg 280 272 1;
#X msg 394 307 0;
#X obj 42 510 *~;
#X obj 80 444 line~;
#X obj 42 566 outlet~;
#X obj 171 568 outlet~;
#X obj 43 538 hip~ 5;
#X obj 101 273 unpack f f;
#X obj 105 361 pack f f;
#X obj 100 332 *;
#X obj 168 500 *~;
#X obj 170 532 hip~ 5;
#X obj 72 254 pack f f;
#X msg 194 146 0;
#X obj 14 285 t b l;
#X obj 384 285 delay 20;
#X obj 350 239 t b;
#X msg 398 254 stop;
#X obj 247 97 t b b;
#X obj 306 347 vline~;
#X msg 185 360 0 20;
#X msg 28 391 setarray \$1-1;
#X msg 322 394 setarray \$1-2;
#X obj 458 214 bng 15 250 50 0 empty empty empty 17 7 0 10 -262144
-1 -1;
#X obj 72 227 *;
#X obj 141 63 +;
#X obj 203 59 t b f;
#X obj 151 13 route playAtPos setArray gain switchOff switchOn pitch
vol rearm sampleLength pos pitchbend;
#X obj 489 170 mtof;
#X obj 489 195 / 8.175;
#X obj 490 266 * 1;
#X obj 488 230 t b f;
#X msg 16 318 70;
#X obj 118 298 t b f;
#X obj 100 92 t f f;
#X obj 137 115 int;
#X obj 101 136 -;
#X obj 100 161 moses 0;
#X obj 102 186 + 1;
#X obj 482 329 lop~ 4;
#X msg 394 165 1;
#X obj 615 265 declare -path bsaylor;
#X obj 31 416 bsaylor/pvoc~ \$1-nop 2048 4;
#X obj 312 419 bsaylor/pvoc~ \$1-nop 2048 4;
#X connect 0 0 43 0;
#X connect 1 0 31 0;
#X connect 2 0 25 0;
#X connect 2 0 26 0;
#X connect 4 0 3 0;
#X connect 5 0 3 0;
#X connect 5 0 29 1;
#X connect 6 0 10 0;
#X connect 7 0 6 1;
#X connect 7 0 14 1;
#X connect 10 0 8 0;
#X connect 11 0 13 0;
#X connect 11 1 12 1;
#X connect 12 0 7 0;
#X connect 13 0 12 0;
#X connect 14 0 15 0;
#X connect 15 0 9 0;
#X connect 16 0 18 0;
#X connect 17 0 16 1;
#X connect 18 0 36 0;
#X connect 18 1 23 0;
#X connect 19 0 5 0;
#X connect 19 0 44 0;
#X connect 20 0 21 0;
#X connect 21 0 19 0;
#X connect 22 0 19 0;
#X connect 22 0 17 0;
#X connect 22 1 24 0;
#X connect 23 0 46 0;
#X connect 23 0 47 0;
#X connect 24 0 7 0;
#X connect 25 0 46 0;
#X connect 26 0 47 0;
#X connect 28 0 16 0;
#X connect 29 0 38 0;
#X connect 30 0 29 0;
#X connect 30 1 29 1;
#X connect 31 0 29 0;
#X connect 31 1 2 0;
#X connect 31 1 17 0;
#X connect 31 2 11 0;
#X connect 31 3 22 0;
#X connect 31 4 4 0;
#X connect 31 4 20 0;
#X connect 31 5 34 0;
#X connect 31 6 37 0;
#X connect 31 7 17 0;
#X connect 31 7 27 0;
#X connect 31 8 28 1;
#X connect 31 9 30 0;
#X connect 31 10 32 0;
#X connect 32 0 33 0;
#X connect 33 0 35 0;
#X connect 34 0 0 0;
#X connect 35 0 34 0;
#X connect 35 1 34 1;
#X connect 36 0 16 1;
#X connect 37 0 13 0;
#X connect 37 1 13 1;
#X connect 38 0 40 0;
#X connect 38 1 39 0;
#X connect 39 0 40 1;
#X connect 40 0 41 0;
#X connect 41 0 42 0;
#X connect 41 1 28 0;
#X connect 42 0 28 0;
#X connect 43 0 46 1;
#X connect 43 0 47 1;
#X connect 44 0 35 0;
#X connect 46 0 6 0;
#X connect 47 0 14 0;
