#N canvas 123 56 1108 503 10;
#X obj 85 53 inlet;
#X obj 88 133 list trim;
#X obj 88 155 route list;
#X obj 134 269 list split 1;
#X obj 250 267 list split 1;
#X obj 240 405 list prepend low_key;
#X obj 368 454 list prepend high_key;
#X obj 237 557 outlet;
#X obj 174 298 route bang;
#X obj 304 298 route bang;
#X obj 33 243 spigot;
#X msg 173 230 1;
#X msg 197 450 EOM;
#X msg 260 227 0;
#X text 333 153 EOM = End Of Mapping;
#X obj 23 283 unpack f f;
#X obj 23 305 t f f;
#X obj 23 387 list prepend;
#X obj 23 424 list append;
#X obj 23 446 route 1 0;
#X text 63 469 si la note entrante ne satisfait pas le test \, faire
suivre à la cellule suivante;
#X floatatom 565 733 8 0 0 1 duration_in_samples - -, f 8;
#X floatatom 538 753 8 0 0 1 duration_in_ms - -, f 8;
#X symbolatom 511 773 12 0 0 1 table_name - -, f 12;
#X msg 546 166 open file_not_found.wav;
#X obj 511 690 unpack s f f f;
#X floatatom 592 713 6 0 0 1 samplerate - -, f 6;
#X obj 370 237 list split 1;
#X obj 404 298 route bang;
#X obj 469 350 list prepend filename;
#X obj 427 514 list prepend;
#X obj 418 560 t s s;
#X obj 428 593 select symbol;
#X msg 514 620 open \$1;
#X msg 426 533 symbol \$1/\$2;
#X obj 570 237 list split 1;
#X obj 604 298 route bang;
#X obj 669 350 list prepend root_key;
#X obj 34 521 unpack f f;
#X obj 115 559 -;
#X obj 115 585 mtof;
#X obj 114 606 / 8.1758;
#X obj 511 40 r \$1-path;
#X obj 35 790 s \$1-u_mapped_samplebank_output;
#X obj 25 561 t b f f;
#X obj 63 672 pack f f;
#X obj 24 616 f;
#X obj 24 638 select 0;
#X obj 28 697 list append;
#X msg 25 720 \$1 remove;
#X obj 118 697 list append;
#X msg 124 719 \$2 \$1 \$3;
#X obj 127 744 list append \$0-sample;
#X obj 385 101 tgl 15 0 empty empty empty 17 7 0 10 -262144 -1 -1 1
1;
#X obj 370 101 bng 15 250 50 0 empty empty empty 17 7 0 10 -262144
-1 -1;
#X obj 55 348 expr ($f1>=$f2)&&($f1<($f3+1));
#X obj 750 237 list split 1;
#X obj 784 298 route bang;
#X obj 291 670 list append 44100;
#X text 284 771 sample rate;
#X obj 849 350 list prepend sr;
#X obj 568 65 symbol;
#X msg 569 113 \$1/\$2;
#X obj 394 740 list append;
#X msg 775 693 260230;
#X obj 155 183 route low_key high_key EOM filename root_key sr transpose
;
#X obj 890 237 list split 1;
#X obj 924 298 route bang;
#X obj 989 350 list prepend transpose;
#X obj 114 628 list prepend 1;
#X obj 114 650 route 1;
#X msg 141 671 1;
#X obj 320 101 tgl 15 0 empty empty last 17 7 0 10 -262144 -1 -1 1
1;
#X obj 294 56 list split 1;
#X obj 749 584 s \$1-sr;
#X obj 689 457 r \$0-sample-extern;
#X obj 689 479 unpack f f;
#X obj 513 653 u_samplebank2_nodrop \$0-sample 0 400000;
#X msg 63 753 \$1 cell \$2;
#X obj 569 89 list prepend ../../medias/sounds/soundfonts;
#X obj 144 389 tgl 15 0 empty empty empty 17 7 0 10 -262144 -1 -1 1
1;
#X connect 0 0 1 0;
#X connect 1 0 2 0;
#X connect 2 0 10 0;
#X connect 2 1 65 0;
#X connect 3 0 55 1;
#X connect 3 1 8 0;
#X connect 4 0 55 2;
#X connect 4 1 9 0;
#X connect 5 0 7 0;
#X connect 6 0 7 0;
#X connect 8 0 12 0;
#X connect 8 1 5 0;
#X connect 9 0 12 0;
#X connect 9 1 6 0;
#X connect 10 0 15 0;
#X connect 11 0 10 1;
#X connect 11 0 53 0;
#X connect 12 0 7 0;
#X connect 13 0 10 1;
#X connect 13 0 53 0;
#X connect 15 0 16 0;
#X connect 15 1 18 1;
#X connect 16 0 17 0;
#X connect 16 1 55 0;
#X connect 17 0 18 0;
#X connect 18 0 19 0;
#X connect 19 0 54 0;
#X connect 19 0 38 0;
#X connect 19 1 7 0;
#X connect 25 0 23 0;
#X connect 25 0 52 1;
#X connect 25 1 22 0;
#X connect 25 2 21 0;
#X connect 25 2 63 1;
#X connect 25 3 26 0;
#X connect 25 3 74 0;
#X connect 25 3 58 1;
#X connect 27 0 30 0;
#X connect 27 1 28 0;
#X connect 28 1 29 0;
#X connect 29 0 7 0;
#X connect 30 0 34 0;
#X connect 31 0 32 1;
#X connect 31 1 32 0;
#X connect 32 1 33 0;
#X connect 33 0 77 0;
#X connect 34 0 31 0;
#X connect 35 0 39 1;
#X connect 35 1 36 0;
#X connect 36 1 37 0;
#X connect 37 0 7 0;
#X connect 38 0 44 0;
#X connect 38 1 46 1;
#X connect 39 0 40 0;
#X connect 40 0 41 0;
#X connect 41 0 69 0;
#X connect 42 0 61 0;
#X connect 44 0 46 0;
#X connect 44 1 45 0;
#X connect 44 2 39 0;
#X connect 45 0 48 1;
#X connect 45 0 50 1;
#X connect 46 0 47 0;
#X connect 47 0 48 0;
#X connect 47 1 50 0;
#X connect 48 0 49 0;
#X connect 49 0 43 0;
#X connect 50 0 51 0;
#X connect 51 0 52 0;
#X connect 52 0 58 0;
#X connect 55 0 17 1;
#X connect 55 0 72 0;
#X connect 55 0 80 0;
#X connect 56 0 58 1;
#X connect 56 1 57 0;
#X connect 57 1 60 0;
#X connect 58 0 63 0;
#X connect 60 0 7 0;
#X connect 61 0 79 0;
#X connect 62 0 30 1;
#X connect 63 0 43 0;
#X connect 64 0 63 1;
#X connect 65 0 3 0;
#X connect 65 0 11 0;
#X connect 65 1 4 0;
#X connect 65 2 13 0;
#X connect 65 2 12 0;
#X connect 65 3 27 0;
#X connect 65 4 35 0;
#X connect 65 5 56 0;
#X connect 65 6 66 0;
#X connect 66 0 69 1;
#X connect 66 1 67 0;
#X connect 67 1 68 0;
#X connect 68 0 7 0;
#X connect 69 0 70 0;
#X connect 70 0 45 1;
#X connect 70 1 71 0;
#X connect 71 0 45 1;
#X connect 75 0 76 0;
#X connect 76 0 63 1;
#X connect 76 1 58 1;
#X connect 77 0 25 0;
#X connect 78 0 43 0;
#X connect 79 0 62 0;
#X coords 0 -1 1 1 300 18 1 100 100;
