#N canvas 451 130 826 558 12;
#X obj 70 502 outlet;
#X msg 237 221 \$1 remove;
#X obj 380 296 fid_get x;
#X obj 446 266 fid_get y;
#X obj 516 314 fid_get alpha;
#X obj 430 234 t f f f f;
#X obj 37 164 r \$1.add;
#X obj 235 187 r \$1.remove;
#X obj 432 204 r \$1.update;
#X obj 352 425 pack f f f f \$2 \$3;
#X msg 281 474 \$4 listener rect \$1 \$2 \$5 \$6 \$3;
#X obj 516 353 + \$5;
#X obj 193 340 atan2;
#X obj 195 284 fid_get y;
#X obj 276 285 fid_get x;
#X obj 268 413 int;
#X obj 197 362 + 3.1415;
#X obj 194 391 / 6.283;
#X obj 218 417 * \$6;
#X obj 189 448 + \$4;
#X obj 242 442 mod \$6;
#X text 406 111 Arguments;
#X text 547 112 1: nom de la classe;
#X text 547 137 2: largeur;
#X text 548 162 3: hauteur;
#X text 549 184 4: no de preset;
#X text 550 205 5: rotation;
#X text 550 228 6: nb de secteurs;
#X obj 591 77 inlet (\$2);
#X obj 723 81 inlet (\$3);
#X obj 77 308 pack f f f;
#X obj 61 201 t f f f f f;
#X obj 86 282 fid_get fid;
#X msg 13 372 \$1 add \$3 \, \$1 preset \$2;
#X connect 1 0 0 0;
#X connect 2 0 9 0;
#X connect 3 0 9 1;
#X connect 4 0 11 0;
#X connect 5 0 2 0;
#X connect 5 1 3 0;
#X connect 5 2 4 0;
#X connect 5 3 9 3;
#X connect 6 0 31 0;
#X connect 7 0 1 0;
#X connect 8 0 5 0;
#X connect 9 0 10 0;
#X connect 10 0 0 0;
#X connect 11 0 9 2;
#X connect 12 0 16 0;
#X connect 13 0 12 0;
#X connect 14 0 12 1;
#X connect 15 0 20 0;
#X connect 16 0 17 0;
#X connect 17 0 18 0;
#X connect 18 0 15 0;
#X connect 19 0 30 1;
#X connect 20 0 19 0;
#X connect 28 0 9 4;
#X connect 29 0 9 5;
#X connect 30 0 33 0;
#X connect 31 0 5 0;
#X connect 31 1 30 0;
#X connect 31 2 32 0;
#X connect 31 3 13 0;
#X connect 31 4 14 0;
#X connect 32 0 30 2;
#X connect 33 0 0 0;
#X coords 0 558 1 557 85 60 0;
