#N canvas 451 214 701 474 12;
#X obj 70 418 outlet;
#X msg 237 137 \$1 remove;
#X obj 380 212 fid_get x;
#X obj 446 182 fid_get y;
#X obj 430 150 t f f f f;
#X obj 34 34 r \$1.add;
#X obj 235 103 r \$1.remove;
#X obj 432 120 r \$1.update;
#X msg 7 332 \$1 add \, \$1 preset \$2;
#X obj 352 341 pack f f f f \$2;
#X msg 280 390 \$4 listener circle \$1 \$2 \$5;
#X obj 32 64 t f f f;
#X obj 121 93 t f f f f;
#X obj 54 173 atan2;
#X obj 56 117 fid_get y;
#X obj 137 118 fid_get x;
#X obj 117 276 int;
#X obj -8 306 pack f f;
#X obj 51 281 + \$3;
#X obj 78 250 * \$4;
#X obj 58 195 + 3.1415;
#X obj 55 224 / 6.283;
#X text 150 11 Arguments : nom_classe largeur hauteur preset nb de
quadrants;
#X text 147 51 le nombre de quadrant définit \, suivant la position
de l'objet à la création \, un offset à rajouter à l'argument \$3
;
#X obj 115 302 mod \$4;
#X connect 1 0 0 0;
#X connect 2 0 9 0;
#X connect 3 0 9 1;
#X connect 4 0 2 0;
#X connect 4 1 3 0;
#X connect 4 2 9 2;
#X connect 4 3 9 3;
#X connect 5 0 11 0;
#X connect 6 0 1 0;
#X connect 7 0 4 0;
#X connect 8 0 0 0;
#X connect 9 0 10 0;
#X connect 10 0 0 0;
#X connect 11 0 4 0;
#X connect 11 1 17 0;
#X connect 11 2 12 0;
#X connect 12 0 14 0;
#X connect 12 1 15 0;
#X connect 13 0 20 0;
#X connect 14 0 13 0;
#X connect 15 0 13 1;
#X connect 16 0 24 0;
#X connect 17 0 8 0;
#X connect 18 0 17 1;
#X connect 19 0 16 0;
#X connect 20 0 21 0;
#X connect 21 0 19 0;
#X connect 24 0 18 0;
#X coords 0 474 1 473 85 60 0;
