#N canvas 116 96 1186 664 12;
#X obj 77 70 inlet;
#X obj 287 167 outlet;
#X obj 922 39 r \$1-msg;
#X obj 69 246 makefilename %d-msg-channel;
#X obj 70 492 s;
#X obj 68 278 t b s;
#X obj 135 196 makefilename %d-msg-channel;
#X msg 70 435 get_audio_target \$1 \, set_audio_target \$2;
#X obj 70 344 symbol;
#X obj 98 463 r \$0-current_source_channel;
#X obj 95 307 s \$0-current_source_channel;
#X obj 461 284 iem_receive;
#X msg 462 257 set \$1;
#X obj 70 382 list append \$1;
#X obj 523 575 s;
#X obj 520 429 symbol;
#X obj 520 456 t b s;
#X msg 520 546 audio_target_is \$1;
#X obj 643 490 r \$0-current_audio_target;
#X obj 461 313 route get_audio_target audio_target_is set_audio_target
;
#X obj 606 360 symbol;
#X obj 606 447 s \$0-current_audio_target;
#X obj 982 455 iem_send;
#X msg 1033 427 set \$1-msg;
#X obj 976 364 symbol;
#X obj 643 399 t s b s;
#X msg 961 393 set_source_channel \$1;
#X obj 937 87 route set_source_channel;
#X obj 935 122 symbol;
#X obj 935 167 s \$0-current_source_channel;
#X obj 393 489 r \$0-current_audio_target;
#X msg 277 549 set_audio_target \$1;
#X obj 230 490 t b b;
#X obj 274 583 r \$0-current_source_channel;
#X obj 229 608 symbol;
#X msg 311 626 set_source_channel \$1;
#X obj 80 134 route plug sid unplug add;
#X obj 228 49 t b b;
#X msg 278 92 add;
#X text 400 76 reset audio_target;
#X obj 363 166 s \$0-current_audio_target;
#X obj 355 107 symbol \$2;
#X obj 270 519 symbol \$2;
#N canvas 0 50 450 440 debug 0;
#X obj -62 113 r \$0-current_source_channel;
#X obj -89 146 r \$0-current_audio_target;
#X obj 125 398 print \$3-\$0;
#X msg 68 212 source=\$1;
#X msg -42 221 target=\$1;
#X obj 180 265 v debug;
#X obj 54 266 t a b;
#X obj 210 328 spigot;
#X connect 0 0 3 0;
#X connect 1 0 4 0;
#X connect 3 0 6 0;
#X connect 4 0 6 0;
#X connect 5 0 7 1;
#X connect 6 0 7 0;
#X connect 6 1 5 0;
#X connect 7 0 2 0;
#X restore 895 573 pd debug;
#X obj 520 520 symbol \$2;
#N canvas 302 145 868 460 current_audio_target_switch 1;
#X obj 177 265 inlet~;
#X obj 309 271 inlet~;
#X msg 177 188 set \$1-l;
#X msg 254 187 set \$1-r;
#X obj 391 4 r \$0-current_audio_target;
#X obj 157 359 throw~ \$2-l;
#X obj 311 366 throw~ \$2-r;
#X obj 381 77 route 0 1;
#X obj 391 29 list prepend 0;
#X obj 388 51 t a b;
#X obj 387 214 line~;
#X msg 386 188 1 20;
#X obj 327 323 *~;
#X obj 169 320 *~;
#X obj 498 365 throw~ \$2-l;
#X obj 652 372 throw~ \$2-r;
#X obj 668 329 *~;
#X obj 510 326 *~;
#X obj 686 219 line~;
#X msg 685 193 1 20;
#X msg 611 195 0 20;
#X msg 449 189 0 20;
#X msg 491 229 set \$1-l;
#X msg 568 228 set \$1-r;
#X obj 526 81 == 0;
#X obj 576 81 f;
#X obj 706 68 loadbang;
#X obj 527 135 t s b b;
#X obj 354 130 t s b b;
#X obj 343 106 list;
#X obj 456 107 list;
#X connect 0 0 13 0;
#X connect 0 0 17 0;
#X connect 1 0 12 0;
#X connect 1 0 16 0;
#X connect 2 0 5 0;
#X connect 3 0 6 0;
#X connect 4 0 8 0;
#X connect 7 0 29 0;
#X connect 7 1 30 0;
#X connect 8 0 9 0;
#X connect 9 0 7 0;
#X connect 9 1 24 0;
#X connect 10 0 13 1;
#X connect 10 0 12 1;
#X connect 11 0 10 0;
#X connect 12 0 6 0;
#X connect 13 0 5 0;
#X connect 16 0 15 0;
#X connect 17 0 14 0;
#X connect 18 0 16 1;
#X connect 18 0 17 1;
#X connect 19 0 18 0;
#X connect 20 0 18 0;
#X connect 21 0 10 0;
#X connect 22 0 14 0;
#X connect 23 0 15 0;
#X connect 24 0 25 0;
#X connect 24 0 8 1;
#X connect 25 0 24 1;
#X connect 26 0 19 0;
#X connect 27 0 22 0;
#X connect 27 0 23 0;
#X connect 27 1 19 0;
#X connect 27 2 21 0;
#X connect 28 0 2 0;
#X connect 28 0 3 0;
#X connect 28 1 11 0;
#X connect 28 2 20 0;
#X connect 29 0 28 0;
#X connect 30 0 27 0;
#X restore 484 52 pd current_audio_target_switch;
#X obj 484 20 inlet~;
#X obj 703 24 inlet~;
#X connect 0 0 36 0;
#X connect 2 0 27 0;
#X connect 3 0 5 0;
#X connect 5 0 8 0;
#X connect 5 1 10 0;
#X connect 6 0 8 1;
#X connect 6 0 12 0;
#X connect 6 0 24 1;
#X connect 7 0 4 0;
#X connect 8 0 13 0;
#X connect 9 0 4 1;
#X connect 11 0 19 0;
#X connect 12 0 11 0;
#X connect 13 0 7 0;
#X connect 15 0 16 0;
#X connect 16 0 44 0;
#X connect 16 1 14 1;
#X connect 17 0 14 0;
#X connect 18 0 44 1;
#X connect 19 0 15 0;
#X connect 19 1 20 0;
#X connect 19 2 20 0;
#X connect 19 3 1 0;
#X connect 20 0 25 0;
#X connect 23 0 22 1;
#X connect 24 0 26 0;
#X connect 25 0 21 0;
#X connect 25 1 24 0;
#X connect 25 2 23 0;
#X connect 26 0 22 0;
#X connect 27 0 28 0;
#X connect 28 0 29 0;
#X connect 30 0 42 1;
#X connect 31 0 4 0;
#X connect 32 0 34 0;
#X connect 32 1 42 0;
#X connect 33 0 34 1;
#X connect 34 0 35 0;
#X connect 35 0 22 0;
#X connect 36 0 3 0;
#X connect 36 1 6 0;
#X connect 36 2 32 0;
#X connect 36 3 37 0;
#X connect 36 4 1 0;
#X connect 37 0 38 0;
#X connect 37 1 41 0;
#X connect 38 0 1 0;
#X connect 41 0 40 0;
#X connect 42 0 31 0;
#X connect 44 0 17 0;
#X connect 46 0 45 0;
#X connect 47 0 45 1;
