#N canvas 255 50 1362 569 12;
#X obj 64 14 inlet;
#N canvas 334 106 625 401 loading_soundfile_into_internal_tables 0
;
#X obj 32 29 inlet;
#X obj 64 349 outlet;
#X msg 49 129 read -resize \$1 \$2 \$3;
#X obj 42 66 list append \$0-table-l \$0-table-r \$0-table;
#X obj 53 224 list append;
#X obj 45 97 t l l;
#X obj 53 189 / 44.1;
#X obj 199 192 print turntable.main-\$0:openedsoundfile;
#X msg 54 251 list \$5 \$1 \$5-l \$5-r;
#X obj 48 164 sndfiler;
#X text 133 162 drop-free soundfiler abstraction;
#X obj 421 43 table \$0-table-l 1e+007;
#X obj 425 67 table \$0-table-r 1e+007;
#X connect 0 0 3 0;
#X connect 2 0 9 0;
#X connect 3 0 5 0;
#X connect 4 0 8 0;
#X connect 5 0 2 0;
#X connect 5 1 4 1;
#X connect 6 0 4 0;
#X connect 8 0 1 0;
#X connect 9 0 6 0;
#X connect 9 0 7 0;
#X restore 247 247 pd loading_soundfile_into_internal_tables;
#X text 270 277 output : (list) table_name duration[ms];
#X obj 471 29 loadbang;
#X msg 465 52 45;
#X text 754 137 delta (radians) \, vitesse_angulaire (radians/s);
#X text 844 204 33 rpm = 3.45575 rad/sec;
#X obj 879 283 * 0.10472;
#X msg 890 250 33;
#X msg 941 250 45;
#X floatatom 878 317 5 0 0 0 - - -, f 5;
#X msg 816 403 scratching \$1;
#N canvas 43 65 1078 636 integrateur_entre_from_et_to_limits 0;
#X obj 564 24 inlet to;
#X obj 654 25 inlet sound_table_info;
#X obj 675 73 unpack s f;
#X obj 518 367 *;
#X obj 604 293 t b f;
#X obj 604 364 *;
#X obj 244 567 snapshot~;
#X obj 303 606 >;
#X obj 292 628 select 1;
#X obj 19 301 line~;
#X obj 22 534 +~;
#X obj 86 505 sig~;
#X obj 185 472 loadbang;
#X msg 177 502 1;
#X obj 26 687 outlet~;
#X obj 193 600 <;
#X obj 192 627 select 1;
#X obj 188 659 f;
#X obj 17 132 t f f f b;
#X obj 77 165 delay 120;
#X obj 16 20 inlet vitesse_angulaire;
#N canvas 464 50 450 300 conversion_en_vitesse_unitaire 0;
#X obj 51 24 inlet;
#X obj 32 161 outlet;
#X obj 84 100 * 0.10472;
#X obj 31 130 / 4.7124;
#X obj 84 77 r \$0-disc_rpm;
#X connect 0 0 3 0;
#X connect 2 0 3 1;
#X connect 3 0 1 0;
#X connect 4 0 2 0;
#X restore 26 90 pd conversion_en_vitesse_unitaire;
#X obj 410 29 inlet from;
#N canvas 314 73 489 525 ajustement_dynamique_du_passe_bas 0;
#X obj 65 2 inlet;
#X obj 64 333 outlet;
#X obj 73 34 t f f;
#X obj 74 63 *;
#X obj 107 277 line;
#X obj 205 294 hsl 128 15 0 10 0 0 empty empty empty -2 -8 0 10 -262144
-1 -1 0 1;
#X msg 201 246 10 \, 1 300;
#X obj 101 179 * 1;
#X obj 211 135 select 1 2;
#X msg 242 93 1;
#X msg 310 97 2;
#X obj 12 180 select 1;
#X obj 15 209 bng 15 100 50 0 empty empty empty 17 7 0 10 -262144 -1
-1;
#X obj 114 197 delay 150;
#X obj 72 83 <= 0;
#X obj 138 122 change;
#X msg 117 232 1;
#X msg 77 250 10;
#X connect 0 0 2 0;
#X connect 2 0 3 1;
#X connect 2 1 3 0;
#X connect 3 0 14 0;
#X connect 4 0 1 0;
#X connect 4 0 5 0;
#X connect 6 0 4 0;
#X connect 7 0 8 0;
#X connect 8 0 17 0;
#X connect 8 0 13 0;
#X connect 8 1 6 0;
#X connect 9 0 7 1;
#X connect 10 0 7 1;
#X connect 11 0 12 0;
#X connect 13 0 16 0;
#X connect 14 0 15 0;
#X connect 15 0 11 0;
#X connect 15 0 7 0;
#X connect 16 0 1 0;
#X connect 17 0 1 0;
#X restore 84 373 pd ajustement_dynamique_du_passe_bas;
#X obj 77 223 f 1;
#X text 84 528 from;
#X text 381 691 bouclage avant (retour au début);
#X text 56 701 bouclage arrière (retour à la fin);
#X text 388 592 mécanisme de bouclage entre bornes 'from' et 'to';
#X obj 173 121 r \$0-motor_pitch;
#X obj 182 160 t b f;
#X obj 867 30 inlet pos;
#X obj 812 221 *;
#X obj 809 275 -;
#X msg 86 284 0;
#X floatatom 212 149 5 0 0 0 - - -, f 5;
#X msg 120 289 1;
#X obj 16 368 lop~ 1;
#X obj 16 394 lop~ 1;
#X obj 622 648 outlet snapshot(ms);
#X msg 86 253 1;
#X obj 820 116 spigot;
#X msg 289 657 set 0 0;
#X obj 658 463 -;
#X obj 648 408 t b f;
#X obj 516 420 t f;
#X obj 516 461 -;
#X obj 518 297 t b f b;
#X obj 130 437 t a a;
#X msg 514 510 set \$1 \$1;
#X msg 184 684 set \$1 \$1;
#X obj 22 597 wrap~;
#X obj 20 566 /~ 1;
#X obj 19 622 *~ 1;
#X obj 828 197 r \$0-sound_size(ms);
#X obj 663 137 s \$0-sound_size(ms);
#X obj 621 266 r \$0-sound_size(ms);
#X obj 521 236 r \$0-sound_size(ms);
#X obj 91 556 r \$0-sound_size(ms);
#X obj 438 79 moses 1;
#X obj 622 621 snapshot~;
#X obj 481 104 t f b;
#X obj 516 165 +;
#X msg 507 133 1;
#X obj 578 121 moses 0;
#X obj 584 182 + 1;
#X obj 167 532 metro 30;
#X obj 26 650 *~ 44.1;
#X msg 19 271 \$1 20;
#X obj 7 508 *~ 1000;
#X obj 657 490 / 1000;
#X obj 818 368 / 1000;
#X obj 517 486 / -1000;
#X obj 22 476 biquad~ 1 0 0 1 0;
#X obj 18 450 *~ 0.001;
#X obj 19 332 *~ 0.0226757;
#X text 125 324 (=1/44.1);
#X obj 313 295 outlet;
#X obj 295 257 list split 1;
#X msg 757 435 set \$1 \$1;
#X obj 339 158 line;
#X msg 340 120 \$1 50;
#X connect 0 0 59 1;
#X connect 0 0 62 1;
#X connect 0 0 64 0;
#X connect 1 0 2 0;
#X connect 2 1 55 0;
#X connect 3 0 11 0;
#X connect 3 0 15 1;
#X connect 3 0 33 1;
#X connect 3 0 44 0;
#X connect 3 0 45 0;
#X connect 4 0 5 0;
#X connect 4 1 5 1;
#X connect 5 0 7 1;
#X connect 5 0 43 0;
#X connect 6 0 7 0;
#X connect 6 0 15 0;
#X connect 7 0 8 0;
#X connect 8 0 42 0;
#X connect 9 0 75 0;
#X connect 10 0 6 0;
#X connect 10 0 52 0;
#X connect 11 0 10 1;
#X connect 12 0 13 0;
#X connect 13 0 66 0;
#X connect 15 0 16 0;
#X connect 16 0 17 0;
#X connect 17 0 50 0;
#X connect 18 0 68 0;
#X connect 18 1 23 0;
#X connect 18 3 19 0;
#X connect 19 0 24 0;
#X connect 20 0 21 0;
#X connect 21 0 18 0;
#X connect 22 0 59 0;
#X connect 22 0 64 1;
#X connect 23 0 37 1;
#X connect 23 0 38 1;
#X connect 24 0 9 0;
#X connect 24 0 78 0;
#X connect 29 0 35 0;
#X connect 29 0 81 0;
#X connect 30 0 19 0;
#X connect 30 1 24 1;
#X connect 30 1 41 1;
#X connect 31 0 32 0;
#X connect 32 0 33 0;
#X connect 33 0 71 0;
#X connect 34 0 30 0;
#X connect 36 0 30 0;
#X connect 37 0 38 0;
#X connect 38 0 74 0;
#X connect 40 0 9 0;
#X connect 41 0 32 0;
#X connect 42 0 48 0;
#X connect 43 0 70 0;
#X connect 44 0 43 0;
#X connect 44 1 43 1;
#X connect 45 0 46 0;
#X connect 46 0 72 0;
#X connect 47 0 3 0;
#X connect 47 1 3 1;
#X connect 47 2 6 0;
#X connect 48 0 73 0;
#X connect 49 0 48 0;
#X connect 50 0 48 0;
#X connect 51 0 53 0;
#X connect 52 0 51 0;
#X connect 53 0 60 0;
#X connect 53 0 67 0;
#X connect 54 0 32 1;
#X connect 56 0 4 0;
#X connect 57 0 47 0;
#X connect 58 0 52 1;
#X connect 58 0 53 1;
#X connect 59 0 3 0;
#X connect 59 1 61 0;
#X connect 60 0 39 0;
#X connect 60 0 46 1;
#X connect 61 0 3 0;
#X connect 61 1 63 0;
#X connect 62 0 5 0;
#X connect 63 0 62 0;
#X connect 64 0 65 0;
#X connect 64 1 5 0;
#X connect 65 0 5 0;
#X connect 66 0 6 0;
#X connect 66 0 60 0;
#X connect 67 0 14 0;
#X connect 68 0 9 0;
#X connect 68 0 78 0;
#X connect 69 0 10 0;
#X connect 70 0 17 1;
#X connect 71 0 79 0;
#X connect 72 0 49 0;
#X connect 73 0 69 0;
#X connect 74 0 73 0;
#X connect 75 0 37 0;
#X connect 78 0 77 0;
#X connect 79 0 48 0;
#X connect 80 0 30 0;
#X connect 81 0 80 0;
#X restore 9 409 pd integrateur_entre_from_et_to_limits;
#X msg 588 55 33;
#X msg 638 90 78;
#X obj 26 641 tabread4~ \$0-table-l;
#X obj 242 645 tabread4~ \$0-table-r;
#X msg 942 324 set \$1;
#X msg 963 366 4.7124;
#N canvas 30 122 673 527 conversion_vitesse_angulaire(rad/sec) 0;
#X obj 66 53 inlet;
#X obj 100 410 outlet;
#X obj 105 221 -;
#X obj 121 367 /;
#X obj 67 295 + 6.2831;
#X obj 141 294 - 6.2831;
#X obj 75 95 t f b;
#X obj 74 147 f;
#X obj 66 271 moses -3.14159;
#X obj 104 246 moses 3.14159;
#X obj 75 177 t f f f b b f;
#X obj 182 338 * 0.001;
#X obj 95 328 t f;
#X obj 226 295 realtime;
#X obj 128 114 delay 100;
#X obj 141 213 iemlib/once;
#X connect 0 0 6 0;
#X connect 2 0 9 0;
#X connect 3 0 1 0;
#X connect 4 0 12 0;
#X connect 5 0 12 0;
#X connect 6 0 7 0;
#X connect 6 1 14 0;
#X connect 7 0 10 0;
#X connect 8 0 4 0;
#X connect 8 1 12 0;
#X connect 9 0 8 0;
#X connect 9 1 5 0;
#X connect 10 1 2 1;
#X connect 10 2 2 0;
#X connect 10 3 13 0;
#X connect 10 4 13 1;
#X connect 10 5 15 0;
#X connect 11 0 3 1;
#X connect 12 0 3 0;
#X connect 13 0 11 0;
#X connect 14 0 15 1;
#X connect 15 0 2 1;
#X restore 18 314 pd conversion_vitesse_angulaire(rad/sec);
#X obj 461 80 s \$0-disc_rpm;
#X obj 462 107 s \$0-turntable_rpm;
#X obj 302 188 s \$0-disc_rpm;
#X obj 352 214 s \$0-turntable_rpm;
#X obj 614 450 r \$0-disc_rpm;
#X obj 585 412 r \$0-turntable_rpm;
#X obj 597 478 t b f;
#X obj 567 548 / 45;
#X obj 565 516 f 45;
#X obj 591 613 * 1;
#X obj 530 672 s \$0-motor_pitch;
#X obj 391 337 s \$0-pitch;
#X obj 630 566 t b f;
#X obj 642 531 r \$0-pitch;
#X msg 681 39 33;
#X msg 727 45 78;
#X msg 774 46 45;
#X obj 709 555 r \$0-motor_status;
#X obj 655 635 * 1;
#X obj 691 584 t b f;
#X obj 575 317 s \$0-motor_status;
#X obj 611 295 tgl 15 0 empty empty empty 17 7 0 10 -262144 -1 -1 1
1;
#X obj 358 304 vsl 15 128 0.8 1.2 1 0 empty empty pitch 0 -9 0 10 -262144
-1 -1 0 1;
#X floatatom 399 422 5 0 0 0 - - -, f 5;
#X msg 559 250 1;
#X msg 607 238 0;
#X obj 64 85 route scratch_move scratch_speed from to;
#N canvas 0 50 494 446 volpan 0;
#X obj 132 163 * -1;
#X obj 150 96 / 127;
#X obj 132 135 - 1;
#X obj -3 -16 inlet~;
#X obj 318 -11 inlet;
#X obj 79 335 outlet~;
#X obj 155 332 outlet~;
#X obj 184 -12 inlet;
#X obj 69 29 dbtorms;
#X text 159 13 Vol (0-127);
#X text 304 19 Pan (0-127);
#X obj 80 98 line~;
#X obj 34 139 *~;
#X obj 217 254 line~;
#X obj 153 293 *~;
#X obj 147 249 line~;
#X obj 38 297 *~;
#X msg 146 216 \$1 40;
#X msg 217 222 \$1 40;
#X msg 80 66 \$1 100;
#X obj 50 -14 inlet~;
#X obj 74 147 *~;
#X connect 0 0 17 0;
#X connect 1 0 2 0;
#X connect 1 0 18 0;
#X connect 2 0 0 0;
#X connect 3 0 12 0;
#X connect 4 0 1 0;
#X connect 7 0 8 0;
#X connect 8 0 19 0;
#X connect 11 0 12 1;
#X connect 11 0 21 1;
#X connect 12 0 16 0;
#X connect 13 0 14 1;
#X connect 14 0 6 0;
#X connect 15 0 16 1;
#X connect 16 0 5 0;
#X connect 17 0 15 0;
#X connect 18 0 13 0;
#X connect 19 0 11 0;
#X connect 20 0 21 0;
#X connect 21 0 14 0;
#X restore 108 680 pd volpan;
#X obj 260 578 t b f;
#X obj 274 547 - 100;
#X obj 254 607 + 0;
#X msg 632 267 set \$1;
#X obj 137 45 t a b;
#X obj 877 504 symbol;
#X obj 877 480 unpack s f;
#X obj 562 187 list;
#X obj 80 704 hip~ 5;
#X floatatom 440 383 5 0 0 0 - - -, f 5;
#X obj 85 756 outlet~;
#X obj 196 756 outlet~;
#X obj 384 680 /;
#X obj 344 715 outlet snapshot(0..1);
#X obj 257 387 t l l l l;
#X obj 406 555 unpack s f;
#X msg 554 212 list \$1 \$2 \$1-l \$1-r;
#X msg 96 576 set \$3;
#X msg 130 603 set \$4;
#X obj 237 141 route openfile disc_rpm turntable_rpm pitch start stop
pos vol pan gain openwavtable table-stereo length;
#X obj 404 462 r \$0-sound_size(ms);
#X obj 709 188 s \$0-sound_size(ms);
#X obj 860 72 symbol;
#X msg 883 103 set \$1-1;
#X msg 964 100 set \$1-2;
#X obj 339 470 lop~;
#X obj 103 730 lop~;
#X obj 100 471 * 22050;
#X obj 213 730 lop~;
#X obj 188 699 hip~ 5;
#X obj 101 436 abs;
#X obj 156 452 max 20;
#X connect 0 0 52 0;
#X connect 1 0 62 0;
#X connect 3 0 4 0;
#X connect 4 0 20 0;
#X connect 4 0 21 0;
#X connect 7 0 10 0;
#X connect 7 0 17 0;
#X connect 8 0 7 0;
#X connect 9 0 7 0;
#X connect 12 0 16 0;
#X connect 12 0 15 0;
#X connect 12 1 78 0;
#X connect 12 2 60 0;
#X connect 13 0 20 0;
#X connect 13 0 21 0;
#X connect 14 0 20 0;
#X connect 14 0 21 0;
#X connect 15 0 47 0;
#X connect 16 0 47 1;
#X connect 17 0 18 0;
#X connect 19 0 12 0;
#X connect 24 0 26 0;
#X connect 25 0 28 0;
#X connect 26 0 28 0;
#X connect 26 1 27 1;
#X connect 27 0 29 0;
#X connect 28 0 27 0;
#X connect 29 0 38 0;
#X connect 32 0 28 0;
#X connect 32 1 29 1;
#X connect 33 0 32 0;
#X connect 34 0 21 0;
#X connect 35 0 21 0;
#X connect 36 0 21 0;
#X connect 37 0 39 0;
#X connect 38 0 30 0;
#X connect 39 0 28 0;
#X connect 39 1 38 1;
#X connect 41 0 40 0;
#X connect 42 0 31 0;
#X connect 42 0 43 0;
#X connect 44 0 40 0;
#X connect 44 0 51 0;
#X connect 45 0 51 0;
#X connect 45 0 40 0;
#X connect 46 0 19 0;
#X connect 46 1 12 0;
#X connect 46 2 12 1;
#X connect 46 3 12 2;
#X connect 46 4 67 0;
#X connect 47 0 56 0;
#X connect 47 1 77 0;
#X connect 48 0 50 0;
#X connect 48 1 50 1;
#X connect 49 0 48 0;
#X connect 50 0 47 2;
#X connect 51 0 41 0;
#X connect 52 0 46 0;
#X connect 54 0 53 0;
#X connect 55 0 64 0;
#X connect 56 0 74 0;
#X connect 60 0 61 0;
#X connect 62 0 12 3;
#X connect 62 1 65 0;
#X connect 62 2 66 0;
#X connect 62 3 63 0;
#X connect 63 1 60 1;
#X connect 64 0 62 0;
#X connect 65 0 15 0;
#X connect 66 0 16 0;
#X connect 67 0 1 0;
#X connect 67 1 22 0;
#X connect 67 2 23 0;
#X connect 67 3 31 0;
#X connect 67 3 57 0;
#X connect 67 4 44 0;
#X connect 67 5 45 0;
#X connect 67 6 12 4;
#X connect 67 7 50 0;
#X connect 67 8 47 3;
#X connect 67 9 49 0;
#X connect 67 10 55 0;
#X connect 67 11 70 0;
#X connect 67 12 69 0;
#X connect 68 0 60 1;
#X connect 70 0 71 0;
#X connect 70 0 72 0;
#X connect 71 0 15 0;
#X connect 72 0 16 0;
#X connect 74 0 58 0;
#X connect 75 0 74 1;
#X connect 75 0 76 1;
#X connect 76 0 59 0;
#X connect 77 0 76 0;
#X connect 78 0 79 0;
#X connect 79 0 75 0;
