#N canvas 99 68 1252 613 12;
#X msg 126 108 to \$1;
#X msg 122 77 from \$1;
#X msg 276 451 vol \$1;
#X msg 276 481 gain \$1;
#X msg 278 513 pan \$1;
#X text 383 64 0..1;
#X text 381 98 0..1;
#X text 364 513 0..127;
#X text 357 453 0..127 (db) 100=unit gain;
#X text 362 479 0..127 (db) 100=unit gain;
#X text 261 211 33 / 45;
#X text 231 251 1 =100%;
#X msg 137 286 start;
#X msg 137 318 stop;
#X msg 117 51 pos \$1;
#X text 386 11 0..1;
#X text 327 41 looping points;
#X text 433 8 go to position;
#X msg 129 165 disc_rpm \$1;
#X msg 130 210 turntable_rpm \$1;
#X text 227 165 33 / 45;
#X msg 135 252 pitch \$1;
#X obj 59 0 openpanel;
#X msg 59 25 openfile \$1;
#X obj 32 -5 bng 15 250 50 0 empty empty empty 17 7 0 10 -262144 -1
-1;
#X obj 241 67 hsl 128 15 0 1 0 0 empty empty from -2 -8 0 10 -262144
-1 -1 0 1;
#X obj 242 98 hsl 128 15 0 1 0 0 empty empty to -2 -8 0 10 -262144
-1 -1 0 1;
#X msg 274 129 33;
#X msg 311 129 45;
#X msg 280 183 33;
#X msg 317 183 45;
#X obj 517 138 vsl 15 128 0.8 1.2 1 1 empty empty pitch 0 -9 0 10 -262144
-1 -1 6989 1;
#X msg 521 98 1;
#X floatatom 541 258 5 0 0 0 - - -, f 5;
#N canvas 0 50 450 300 pending 0;
#X msg 0 76 scratching \$1;
#X text 128 74 0 / 1;
#X text 176 73 scratching mode;
#X restore 708 133 pd pending;
#X msg 165 362 scratch_move \$1;
#X msg 575 437 scratch_speed \$1;
#X text 311 392 vitesse_angulaire (radians/s);
#X text 305 363 position angulaire (radians);
#X obj 239 13 hsl 128 15 0 1 0 0 empty empty pos -2 -8 0 10 -262144
-1 -1 0 1;
#X text 307 156 format du disque;
#X text 322 210 vitesse de la platine;
#X obj 48 556 hip~ 5;
#X obj 100 556 hip~ 5;
#X obj 70 582 dac~;
#X text 452 546 TO DO : scratch_release;
#X text 337 233 Valeur par défaut : 45;
#X text 348 178 Valeur par défaut : 45;
#X msg 609 345 openwavtable \$1 \$2;
#X text 749 348 table_name duration[ms];
#X text 762 368 (les noms des fichiers sont;
#X text 790 387 table_name-l et table_name-r);
#X msg 291 412 100;
#X msg 338 540 64;
#X obj 256 281 hsl 300 15 0 40 0 0 empty empty empty -2 -8 0 10 -262144
-1 -1 0 0;
#X floatatom 256 308 5 0 0 0 - - -, f 5;
#X obj 563 403 hsl 128 15 -5 5 0 0 empty empty empty -2 -8 0 10 -262144
-1 -1 0 1;
#X obj 578 58 gcanvas 100 100;
#X obj 575 195 expr atan2($f2-50 \, $f1-50);
#X obj 55 479 turntable.main;
#X text 747 272 table_name duration[ms];
#X text 760 292 (les noms des fichiers sont;
#X text 785 311 table_name-1 et table_name-2);
#X msg 637 253 table-stereo \$1 \, length \$2;
#X connect 0 0 59 0;
#X connect 1 0 59 0;
#X connect 2 0 59 0;
#X connect 3 0 59 0;
#X connect 4 0 59 0;
#X connect 12 0 59 0;
#X connect 13 0 59 0;
#X connect 14 0 59 0;
#X connect 18 0 59 0;
#X connect 19 0 59 0;
#X connect 21 0 59 0;
#X connect 22 0 23 0;
#X connect 23 0 59 0;
#X connect 24 0 22 0;
#X connect 25 0 1 0;
#X connect 26 0 0 0;
#X connect 27 0 18 0;
#X connect 28 0 18 0;
#X connect 29 0 19 0;
#X connect 30 0 19 0;
#X connect 31 0 33 0;
#X connect 31 0 21 0;
#X connect 32 0 31 0;
#X connect 35 0 59 0;
#X connect 36 0 59 0;
#X connect 39 0 14 0;
#X connect 42 0 44 0;
#X connect 43 0 44 1;
#X connect 48 0 59 0;
#X connect 52 0 2 0;
#X connect 52 0 3 0;
#X connect 53 0 4 0;
#X connect 54 0 35 0;
#X connect 54 0 55 0;
#X connect 56 0 36 0;
#X connect 57 0 58 0;
#X connect 57 1 58 1;
#X connect 58 0 35 0;
#X connect 59 0 42 0;
#X connect 59 1 43 0;
#X connect 63 0 59 0;
