#N canvas 335 50 1108 529 10;
#X obj 12 -155 inlet;
#X obj 8 -124 list trim;
#X obj 294 390 outlet;
#X obj 21 11 spigot;
#X msg 121 -36 1;
#X msg 278 268 EOM;
#X msg 132 -7 0;
#X text 333 -3 EOM = End Of Mapping;
#X obj 23 147 unpack f f;
#X obj 23 169 t f f;
#X obj 15 281 list prepend;
#X obj 15 318 list append;
#X obj 15 340 route 1 0;
#X text 112 352 si la note entrante ne satisfait pas le test \, faire
suivre à la cellule suivante;
#X obj 16 395 unpack f f;
#X obj 6 490 f;
#X obj 6 520 select 0;
#X obj 6 561 list append;
#X msg 9 589 \$1 remove;
#X obj 212 84 list split 1;
#X obj 47 242 ==;
#X obj 279 118 route bang;
#X obj 515 13 list split 1;
#X obj 325 78 text define \$0-values;
#X obj 748 193 text search \$0-values;
#X obj 748 218 select -1;
#X obj 491 155 list split 1;
#X obj 487 341 text set \$0-values;
#X msg 733 259 1e+015;
#X obj 518 202 route bang;
#X obj 544 107 list append;
#X obj 535 70 t b s s, f 28;
#X obj 558 239 list prepend;
#X msg 506 227 EOM;
#X msg 324 58 clear;
#X obj 144 540 list prepend;
#X msg 181 481 velocity \$1;
#X msg 138 501 line 0 \, bang;
#X obj 138 522 text sequence \$0-values;
#X obj 129 -155 tgl 15 0 empty empty empty 17 7 0 10 -262144 -1 -1
1 1;
#X obj 50 266 tgl 15 0 empty empty empty 17 7 0 10 -262144 -1 -1 0
1;
#X obj 509 297 list prepend;
#X obj 297 238 list prepend root_key;
#X obj 153 455 t b f b;
#X obj 8 427 t b f f;
#X obj 294 550 f \$1;
#X obj 297 608 s \$2-index;
#X obj 235 -70 route root_key EOM load_image;
#X obj 594 -68 t a a;
#X obj 898 -47 text search \$0-values;
#X obj 873 -6 select -1;
#X obj 834 68 text set \$0-values;
#X msg 883 19 1e+015;
#X floatatom 898 -25 5 0 0 0 - - -, f 5;
#X obj 750 -66 t f b;
#X obj 544 -23 list prepend load_image;
#X obj 55 217 int;
#N canvas 118 95 886 568 image_loading 0;
#X obj 281 353 list prepend path/;
#X obj 354 288 r \$2-path;
#X obj 195 96 inlet;
#X obj 192 180 list split 1;
#X obj 168 233 delay 1000;
#X obj 173 210 t b s;
#X obj 165 254 symbol;
#X obj 165 276 t s s;
#X obj 89 354 select symbol;
#X text 18 323 si le nom de fichier est identique \, ne pas recharger
l'image;
#X obj 454 461 s \$2-depot;
#X obj 281 375 list append \$1;
#X msg 446 415 open \$1/\$2 \$3;
#X msg 274 420 \$3;
#X obj 46 503 outlet imageId;
#X connect 0 0 11 0;
#X connect 1 0 0 1;
#X connect 2 0 3 0;
#X connect 3 0 5 0;
#X connect 4 0 6 0;
#X connect 5 0 4 0;
#X connect 5 1 6 1;
#X connect 6 0 7 0;
#X connect 7 0 8 1;
#X connect 7 1 8 0;
#X connect 8 1 0 0;
#X connect 11 0 12 0;
#X connect 11 0 13 0;
#X connect 12 0 10 0;
#X connect 13 0 14 0;
#X restore 750 -88 pd image_loading;
#X msg 922 -82 symbol imageId;
#X msg 731 -32 list imageId \$1;
#X text 712 -127 Rajout du imageId dans la liste des parametres;
#X obj 10 -85 route list;
#X obj 56 60 list length;
#X obj 21 33 t l l;
#X obj 21 85 list prepend;
#X obj 21 107 route 2 3;
#X obj 23 611 outlet;
#N canvas 615 50 510 482 multiinstance 0;
#X obj 91 34 inlet;
#X text 276 81 sid note velocity;
#X obj 258 32 inlet critere;
#X obj 127 80 unpack f f;
#X obj 72 204 list prepend;
#X obj 92 224 list append;
#X obj 92 246 route 1 0;
#X obj 141 163 ==;
#X obj 157 185 tgl 15 0 empty empty empty 17 7 0 10 -262144 -1 -1 0
1;
#X obj 127 134 int;
#X obj 91 56 list split 1;
#X obj 127 102 t f f;
#X obj 197 139 pack f f;
#X obj 256 278 outlet;
#X obj 86 340 f;
#X obj 86 370 select 0;
#X obj 86 396 list append;
#X msg 85 422 \$1 remove;
#X obj 214 426 list prepend;
#X msg 261 331 velocity \$1;
#X msg 208 363 line 0 \, bang;
#X obj 208 384 text sequence \$0-values;
#X obj 233 305 t b f b;
#X obj 85 300 t b f f;
#X obj 416 339 f \$1;
#X obj 419 397 s \$2-index;
#X obj 103 461 outlet;
#X obj 92 268 unpack f f f;
#X connect 0 0 10 0;
#X connect 2 0 7 1;
#X connect 3 0 11 0;
#X connect 3 1 12 1;
#X connect 4 0 5 0;
#X connect 5 0 6 0;
#X connect 6 0 27 0;
#X connect 6 1 13 0;
#X connect 7 0 4 1;
#X connect 7 0 8 0;
#X connect 9 0 7 0;
#X connect 10 0 4 0;
#X connect 10 1 3 0;
#X connect 11 0 9 0;
#X connect 11 1 12 0;
#X connect 12 0 5 1;
#X connect 14 0 15 0;
#X connect 15 0 16 0;
#X connect 15 1 22 0;
#X connect 16 0 17 0;
#X connect 17 0 26 0;
#X connect 18 0 26 0;
#X connect 19 0 18 0;
#X connect 20 0 21 0;
#X connect 21 0 18 0;
#X connect 22 0 20 0;
#X connect 22 1 19 0;
#X connect 22 2 24 0;
#X connect 23 0 14 0;
#X connect 23 1 16 1;
#X connect 23 2 18 1;
#X connect 24 0 25 0;
#X connect 27 0 23 0;
#X connect 27 2 14 1;
#X restore 132 143 pd multiinstance;
#X connect 0 0 1 0;
#X connect 1 0 61 0;
#X connect 3 0 63 0;
#X connect 4 0 3 1;
#X connect 4 0 39 0;
#X connect 5 0 2 0;
#X connect 6 0 3 1;
#X connect 6 0 39 0;
#X connect 8 0 9 0;
#X connect 8 1 11 1;
#X connect 9 0 10 0;
#X connect 9 1 56 0;
#X connect 10 0 11 0;
#X connect 11 0 12 0;
#X connect 12 0 14 0;
#X connect 12 1 2 0;
#X connect 14 0 44 0;
#X connect 14 1 15 1;
#X connect 15 0 16 0;
#X connect 16 0 17 0;
#X connect 16 1 43 0;
#X connect 17 0 18 0;
#X connect 18 0 66 0;
#X connect 19 0 20 1;
#X connect 19 0 67 1;
#X connect 19 1 21 0;
#X connect 20 0 10 1;
#X connect 20 0 40 0;
#X connect 21 0 5 0;
#X connect 21 1 42 0;
#X connect 22 0 31 0;
#X connect 22 1 30 1;
#X connect 24 0 25 0;
#X connect 25 0 28 0;
#X connect 25 1 27 1;
#X connect 26 0 41 0;
#X connect 26 1 29 0;
#X connect 28 0 27 1;
#X connect 29 0 33 0;
#X connect 29 1 32 0;
#X connect 30 0 26 0;
#X connect 31 0 30 0;
#X connect 31 1 32 1;
#X connect 31 2 24 0;
#X connect 31 2 41 1;
#X connect 32 0 2 0;
#X connect 33 0 2 0;
#X connect 34 0 23 0;
#X connect 35 0 66 0;
#X connect 36 0 35 0;
#X connect 37 0 38 0;
#X connect 38 0 35 0;
#X connect 41 0 27 0;
#X connect 42 0 2 0;
#X connect 43 0 37 0;
#X connect 43 1 36 0;
#X connect 43 2 45 0;
#X connect 44 0 15 0;
#X connect 44 1 17 1;
#X connect 44 2 35 1;
#X connect 45 0 46 0;
#X connect 47 0 19 0;
#X connect 47 0 4 0;
#X connect 47 1 6 0;
#X connect 47 1 34 0;
#X connect 47 2 48 0;
#X connect 47 3 22 0;
#X connect 48 0 57 0;
#X connect 48 1 55 0;
#X connect 49 0 50 0;
#X connect 49 0 53 0;
#X connect 50 0 52 0;
#X connect 50 1 51 1;
#X connect 52 0 51 1;
#X connect 54 0 59 0;
#X connect 54 1 58 0;
#X connect 55 0 22 0;
#X connect 56 0 20 0;
#X connect 57 0 54 0;
#X connect 58 0 49 0;
#X connect 59 0 51 0;
#X connect 61 0 3 0;
#X connect 61 1 47 0;
#X connect 62 0 64 1;
#X connect 63 0 64 0;
#X connect 63 1 62 0;
#X connect 64 0 65 0;
#X connect 65 0 8 0;
#X connect 65 1 67 0;
#X connect 67 0 66 0;
#X connect 67 1 2 0;
#X coords 0 529 1 528 145 18 0;
