#N canvas 0 50 742 604 12;
#X obj 49 6 inlet;
#X obj 101 222 symbol;
#X obj 28 256 gemhead;
#X obj 124 637 rectangle;
#X obj 92 437 pix_texture;
#X obj 96 566 translateXYZ;
#X obj 91 413 alpha;
#X obj 102 384 pix_alpha;
#X text 345 370 It defaults to highThresh = 0 0 0 \, lowThresh = 0
0 0 \, passVal = 0 \, and otherVal = 1 This makes any black pixels
totally transparent.;
#X msg 34 222 1;
#X obj 60 192 t b a;
#X obj 24 145 loadbang;
#X msg 9 191 0;
#X msg 372 214 0;
#X obj 452 118 + 50;
#X msg 467 152 set \$1;
#X obj 115 597 rotateXYZ;
#X obj 261 519 t b f;
#X obj 209 562 * 1;
#X obj 272 409 t f f;
#X msg 504 217 0.6 0.6 0.6;
#X obj 102 357 pix_image;
#X obj 203 419 - 4;
#X obj 189 514 / -4;
#X obj 78 502 translateXYZ;
#X obj 364 82 * -20;
#X obj 80 541 scaleXYZ;
#X obj 189 387 * -4;
#X obj 114 298 list prepend path/;
#X msg 106 332 open \$1/\$2;
#X msg 444 286 \$1 \$1 \$1;
#X msg 548 317 \$1 \$1 \$1;
#X obj 254 258 r \$2-path;
#X obj -38 384 r \$2-traveling;
#X obj 112 471 +;
#X obj -38 409 t b f;
#X obj 94 38 route load_image X Y layer scale X/Y remove rotX rotY
rotZ Z;
#X obj 531 259 r \$2-s_max;
#X obj 548 292 r \$2-s_min;
#X connect 0 0 36 0;
#X connect 1 0 28 0;
#X connect 2 0 21 0;
#X connect 4 0 24 0;
#X connect 5 0 16 0;
#X connect 6 0 4 0;
#X connect 7 0 4 0;
#X connect 9 0 2 0;
#X connect 10 0 9 0;
#X connect 10 1 1 0;
#X connect 11 0 12 0;
#X connect 12 0 2 0;
#X connect 13 0 2 0;
#X connect 14 0 15 0;
#X connect 15 0 2 0;
#X connect 16 0 3 0;
#X connect 17 0 18 0;
#X connect 17 1 18 1;
#X connect 18 0 3 1;
#X connect 19 0 18 0;
#X connect 19 1 3 2;
#X connect 21 0 7 0;
#X connect 22 0 23 0;
#X connect 23 0 26 2;
#X connect 23 0 26 1;
#X connect 24 0 26 0;
#X connect 25 0 14 0;
#X connect 26 0 5 0;
#X connect 27 0 22 0;
#X connect 27 0 24 3;
#X connect 28 0 29 0;
#X connect 29 0 21 0;
#X connect 30 0 7 3;
#X connect 31 0 7 4;
#X connect 32 0 28 1;
#X connect 33 0 35 0;
#X connect 34 0 24 1;
#X connect 35 0 34 0;
#X connect 35 1 34 1;
#X connect 36 0 10 0;
#X connect 36 1 34 0;
#X connect 36 2 5 2;
#X connect 36 3 27 0;
#X connect 36 3 25 0;
#X connect 36 4 19 0;
#X connect 36 5 17 0;
#X connect 36 6 13 0;
#X connect 36 7 16 1;
#X connect 36 8 16 2;
#X connect 36 9 16 3;
#X connect 36 10 5 3;
#X connect 37 0 30 0;
#X connect 38 0 31 0;
