#N canvas 382 128 892 604 12;
#X obj 49 6 inlet;
#X obj 84 254 gemhead;
#X obj 91 415 pix_texture;
#X obj 63 719 translateXYZ;
#X text 576 280 It defaults to highThresh = 0 0 0 \, lowThresh = 0
0 0 \, passVal = 0 \, and otherVal = 1 This makes any black pixels
totally transparent.;
#X msg 395 366 1;
#X obj 0 105 loadbang;
#X msg 9 191 0;
#X msg 346 111 0;
#X obj 163 113 + 50;
#X msg 165 145 set \$1;
#X obj 47 659 rotateXYZ;
#X obj 321 522 t b f;
#X obj 279 646 * 1;
#X obj 272 409 t f f;
#X obj 338 699 - 4;
#X obj 334 729 / -4;
#X obj 78 502 translateXYZ;
#X obj 165 67 * -20;
#X obj 68 749 scaleXYZ;
#X obj 340 674 * -4;
#X obj 90 391 alpha;
#X obj 115 363 pix_alpha;
#X msg 386 303 \$1 \$1 \$1;
#X msg 480 330 \$1 \$1 \$1;
#X obj 78 282 pix_buffer_read \$2-depot;
#X obj 7 332 r alpha;
#X obj 594 168 list append;
#X obj 593 82 list split 2;
#X obj 593 107 t b l;
#X obj 594 193 list trim;
#X obj 594 218 s;
#X msg 776 108 symbol \$1-\$2;
#X obj 593 57 list prepend \$0;
#X obj 125 25 route imageId layer scale X/Y remove pix_alpha;
#X obj 78 307 list prepend 1;
#X obj 78 332 route 0 1;
#X obj 318 189 s \$0-init;
#X obj 91 466 r \$0-_X;
#X obj 155 465 r \$0-_Y;
#X obj 220 466 r \$0-_Z;
#X obj 104 677 r \$0-X;
#X obj 71 795 rectangle;
#X obj 174 677 r \$0-Y;
#X obj 244 677 r \$0-Z;
#X obj 398 426 line 0 50;
#X msg 395 457 \$1 \$1 \$1 1;
#X obj 81 438 color 0 0 0 1;
#X obj 398 394 pack f 0;
#X msg 87 223 1;
#X obj 558 394 pack f 0;
#X obj 347 58 t b b;
#X obj 347 83 delay 0;
#X msg 406 116 0;
#X obj -13 520 t b;
#X obj -13 498 r \$0-init;
#X msg -13 544 0;
#X obj 73 606 rotateXYZ;
#X obj 69 632 r \$0-rotX;
#X obj 142 630 r \$0-rotY;
#X obj 221 637 r \$0-rotZ;
#X obj 95 527 r \$0-_rotX;
#X obj 111 547 r \$0-_rotY;
#X obj 134 570 r \$0-_rotZ;
#X obj 387 279 r \$0-s_max;
#X obj 480 305 r \$0-s_min;
#X obj 75 137 t b b f b;
#X obj 456 364 r \$2-fade;
#X obj 616 364 r \$2-fade;
#X obj 405 58 r \$2-fade;
#X connect 0 0 34 0;
#X connect 1 0 25 0;
#X connect 2 0 47 0;
#X connect 3 0 57 0;
#X connect 5 0 48 0;
#X connect 6 0 7 0;
#X connect 7 0 1 0;
#X connect 8 0 1 0;
#X connect 9 0 10 0;
#X connect 10 0 1 0;
#X connect 11 0 19 0;
#X connect 12 0 13 0;
#X connect 12 1 13 1;
#X connect 13 0 42 1;
#X connect 14 0 13 0;
#X connect 14 1 42 2;
#X connect 15 0 16 0;
#X connect 16 0 19 2;
#X connect 16 0 19 1;
#X connect 17 0 3 0;
#X connect 18 0 9 0;
#X connect 19 0 42 0;
#X connect 20 0 15 0;
#X connect 21 0 2 0;
#X connect 22 0 21 0;
#X connect 23 0 22 3;
#X connect 24 0 22 4;
#X connect 25 0 35 0;
#X connect 26 0 21 0;
#X connect 27 0 30 0;
#X connect 28 0 29 0;
#X connect 28 1 27 1;
#X connect 29 0 27 0;
#X connect 29 1 32 0;
#X connect 30 0 31 0;
#X connect 32 0 31 1;
#X connect 33 0 28 0;
#X connect 34 0 66 0;
#X connect 34 1 20 0;
#X connect 34 1 18 0;
#X connect 34 2 14 0;
#X connect 34 3 12 0;
#X connect 34 4 51 0;
#X connect 34 5 35 1;
#X connect 34 6 33 0;
#X connect 35 0 36 0;
#X connect 36 0 21 0;
#X connect 36 1 22 0;
#X connect 38 0 17 1;
#X connect 39 0 17 2;
#X connect 40 0 17 3;
#X connect 41 0 3 1;
#X connect 43 0 3 2;
#X connect 44 0 3 3;
#X connect 45 0 46 0;
#X connect 46 0 47 1;
#X connect 47 0 17 0;
#X connect 48 0 45 0;
#X connect 49 0 1 0;
#X connect 50 0 45 0;
#X connect 51 0 52 0;
#X connect 51 1 53 0;
#X connect 52 0 8 0;
#X connect 52 0 37 0;
#X connect 53 0 50 0;
#X connect 54 0 56 0;
#X connect 55 0 54 0;
#X connect 56 0 17 3;
#X connect 56 0 17 2;
#X connect 56 0 17 1;
#X connect 56 0 57 1;
#X connect 56 0 57 2;
#X connect 56 0 57 3;
#X connect 57 0 11 0;
#X connect 58 0 11 1;
#X connect 59 0 11 2;
#X connect 60 0 11 3;
#X connect 61 0 57 1;
#X connect 62 0 57 2;
#X connect 63 0 57 3;
#X connect 64 0 23 0;
#X connect 65 0 24 0;
#X connect 66 0 5 0;
#X connect 66 1 49 0;
#X connect 66 2 25 1;
#X connect 67 0 48 1;
#X connect 68 0 50 1;
#X connect 69 0 52 1;
