#N canvas 0 50 450 300 10;
#X obj 101 186 outlet;
#X obj 109 42 r \$1-\$2;
#X obj 165 44 r \$1-_\$2;
#X obj 104 158 +;
#X obj 165 66 t b f;
#X msg 126 95 0;
#X obj 280 100 r \$1-init;
#X obj 280 122 t b;
#X connect 1 0 3 0;
#X connect 2 0 4 0;
#X connect 3 0 0 0;
#X connect 4 0 3 0;
#X connect 4 1 3 1;
#X connect 5 0 3 1;
#X connect 6 0 7 0;
#X connect 7 0 5 0;
