#N canvas 201 50 1004 673 10;
#X declare -path ./fid_abs_0.3.6;
#X declare -stdpath extra/zexy;
#X declare -stdlib extra/cvlib/cvlib93;
#N canvas 172 83 586 377 LICENSE-GPL 0;
#X text 57 88 This program is free software: you can redistribute it
and/or modify it under the terms of the GNU General Public License
as published by the Free Software Foundation \, either version 3 of
the License \, or (at your option) any later version.;
#X text 58 168 This program is distributed in the hope that it will
be useful \, but WITHOUT ANY WARRANTY \; without even the implied warranty
of MERCHANTABILITY or FITNESS FOR A PARTICULAR PURPOSE. See the GNU
General Public License for more details.;
#X text 57 261 You should have received a copy of the GNU General Public
License along with this program. If not \, see <http://www.gnu.org/licenses/>.
;
#X text 61 54 Copyright (C) 2009 \, Reality Jockey Ltd.;
#X text 60 325 See the file LICENSE.txt for the full license text.
;
#X restore 298 15 pd LICENSE-GPL;
#X obj 383 262 u_parameter \$0 ccx;
#X obj 378 285 u_parameter \$0 ccy;
#X obj 379 305 u_parameter \$0 ccz;
#X obj 617 565 r \$0-ccx;
#X obj 566 593 pack f f 1;
#X obj 656 593 pack f f 1;
#X obj 707 565 r \$0-ccy;
#X obj 736 593 pack f f 1;
#X obj 787 565 r \$0-ccz;
#X obj 565 512 spigot;
#X obj 324 558 t b;
#X msg 435 592 1;
#X obj 655 637 s CTLIN;
#X obj 575 627 t b l;
#X msg 435 612 1;
#X msg 435 632 1;
#X obj 265 605 r \$0-testx;
#X obj 265 625 r \$0-testy;
#X obj 265 645 r \$0-testz;
#N canvas 0 50 1105 612 stuff 0;
#X obj 183 68 gemhead;
#X obj 19 93 gemwin;
#X msg 46 69 destroy;
#X obj 637 101 declare -path ./fid_abs_0.3.6;
#X obj 636 83 declare -stdpath extra/zexy;
#X obj 637 62 declare -stdlib extra/cvlib/cvlib93;
#X obj 235 326 pix_data;
#X obj 261 356 unpack f f f;
#X obj 259 386 * 65236;
#X obj 321 386 * 256;
#X obj 250 422 +;
#X obj 239 448 / 1000;
#X floatatom 311 504 5 0 0 0 - - -, f 5;
#X obj 276 192 pix_buf;
#X floatatom 354 164 5 0 0 0 - - -, f 5;
#X obj 183 228 pix_opencv_bgsubstract;
#X msg 212 176 set;
#X text 330 89 set the background;
#X text 332 106 threshold (default 13);
#N canvas 304 50 794 665 contour_detect 0;
#X obj 69 55 inlet;
#X obj 121 122 cvFindContours;
#X obj 119 94 pix_grey;
#X obj 4 628 cvShowImage;
#X obj 119 391 cvDrawContours;
#X obj -38 246 loadbang;
#X obj 203 183 cvContoursFeature Area;
#X obj 173 157 t a a;
#X text 160 320 Draw only biggest contour;
#X obj 65 93 t a a;
#X obj 171 208 cvSortContours 1;
#X obj 172 237 t a a;
#X obj 328 400 unpack f f f f f;
#X obj 217 279 cvContoursFeature MinAreaRect Area;
#X obj 377 340 > 400;
#X obj 340 365 spigot;
#X obj 189 341 spigot;
#X obj 303 437 / 640;
#X floatatom 303 459 5 0 0 0 - - -, f 5;
#X floatatom 356 460 5 0 0 0 - - -, f 5;
#X obj 526 106 inlet;
#X obj 427 473 + 1;
#X obj 356 438 / -480;
#X obj 531 403 outlet;
#X obj 3 604 cvDrawCircle;
#X msg 10 529 color 255 255 0;
#X obj 13 426 loadbang;
#X msg -25 461 width -1;
#X msg 88 500 10;
#X obj 192 442 t f f;
#X obj 283 490 s \$0-posx;
#X obj 389 506 s \$0-posy;
#X obj 243 524 r \$0-posz;
#X obj 248 554 * 255;
#X obj 248 576;
#X obj 550 553 sin;
#X obj 605 551 cos;
#X floatatom 544 508 5 0 0 0 - - -, f 5;
#X obj 587 478 * 3.14;
#X obj 611 585 * 0.5;
#X obj 669 545 + 0.5;
#X obj 674 584 * 255;
#X obj 597 512 t f f;
#X obj 559 579 abs;
#X obj 495 603 pack f f;
#X obj 563 603 * 255;
#X msg 368 594 color \$1 \$2 0;
#X obj 604 444 r \$0-posz;
#X msg -38 281 color 0 0 255 \, thickness -1;
#X obj 140 567 r \$0-GEM;
#X msg 171 590 vis \$1;
#X connect 0 0 9 0;
#X connect 1 1 7 0;
#X connect 2 0 1 0;
#X connect 4 0 24 0;
#X connect 5 0 48 0;
#X connect 6 0 10 1;
#X connect 7 0 10 0;
#X connect 7 1 6 0;
#X connect 9 0 4 0;
#X connect 9 1 2 0;
#X connect 10 0 11 0;
#X connect 11 0 16 0;
#X connect 11 1 13 0;
#X connect 12 0 17 0;
#X connect 12 0 24 1;
#X connect 12 0 29 0;
#X connect 12 1 22 0;
#X connect 12 1 24 2;
#X connect 13 0 15 0;
#X connect 13 1 14 0;
#X connect 14 0 15 1;
#X connect 14 0 16 1;
#X connect 14 0 23 0;
#X connect 15 0 12 0;
#X connect 16 0 4 1;
#X connect 17 0 18 0;
#X connect 17 0 30 0;
#X connect 20 0 14 1;
#X connect 21 0 31 0;
#X connect 22 0 19 0;
#X connect 22 0 21 0;
#X connect 24 0 3 0;
#X connect 25 0 24 0;
#X connect 26 0 25 0;
#X connect 26 0 27 0;
#X connect 26 0 28 0;
#X connect 27 0 24 0;
#X connect 28 0 24 3;
#X connect 29 1 24 1;
#X connect 33 0 34 0;
#X connect 35 0 43 0;
#X connect 36 0 39 0;
#X connect 37 0 35 0;
#X connect 37 0 36 0;
#X connect 38 0 42 0;
#X connect 39 0 40 0;
#X connect 40 0 41 0;
#X connect 41 0 44 1;
#X connect 42 0 35 0;
#X connect 42 1 36 0;
#X connect 43 0 45 0;
#X connect 44 0 46 0;
#X connect 45 0 44 0;
#X connect 46 0 24 0;
#X connect 47 0 38 0;
#X connect 48 0 4 0;
#X connect 49 0 50 0;
#X connect 50 0 3 0;
#X restore 584 263 pd contour_detect;
#X obj 227 289 t b f;
#X floatatom 715 249 5 0 0 0 - - -, f 5;
#X text 703 205 surface min;
#X obj 584 302 change;
#X obj 249 494 + 1;
#X obj 242 472 / -10;
#X obj 336 454 line;
#X msg 348 429 \$1 600;
#X obj 253 68 gemhead 51;
#X text 422 24 Analyse mouvement dans domaine RGB \, mesure profondeur
dans domaine depth;
#X obj 187 95 pix_openni 0 1 1;
#X msg 222 11 bang;
#X text 260 11 view available modes;
#X text 13 232 Match viewpoints;
#X text 13 247 of RGB and Depth;
#X obj -230 -112;
#X obj 97 89 t b;
#X obj 46 135 delay 2000;
#X msg 16 163 1;
#X obj 16 184 change;
#X msg 18 215 registration 1;
#X msg 21 46 dimen 100 100 \, create \, 1;
#X obj 237 567 s \$0-posz;
#X obj 271 260 r \$0-posx;
#X obj 301 288 r \$0-posy;
#X obj 700 326 s \$0-detect;
#X obj 24 0 r \$0-GEM;
#X obj 23 23 select 1 0;
#X obj 209 137 r \$0-setbackground;
#X obj 437 188 r \$0-threshold;
#X obj 771 286 r \$0-minarea;
#X connect 0 0 30 0;
#X connect 0 0 36 0;
#X connect 2 0 1 0;
#X connect 6 1 7 0;
#X connect 7 0 8 0;
#X connect 7 1 9 0;
#X connect 8 0 10 0;
#X connect 9 0 10 1;
#X connect 10 0 11 0;
#X connect 11 0 12 0;
#X connect 11 0 25 0;
#X connect 13 0 6 1;
#X connect 15 0 19 0;
#X connect 16 0 15 0;
#X connect 19 0 23 0;
#X connect 20 0 6 0;
#X connect 20 1 6 2;
#X connect 23 0 45 0;
#X connect 24 0 27 0;
#X connect 25 0 24 0;
#X connect 26 0 42 0;
#X connect 27 0 26 0;
#X connect 28 0 30 1;
#X connect 30 0 15 0;
#X connect 30 1 6 1;
#X connect 31 0 30 0;
#X connect 36 0 37 0;
#X connect 37 0 38 0;
#X connect 38 0 39 0;
#X connect 39 0 40 0;
#X connect 40 0 30 0;
#X connect 41 0 1 0;
#X connect 43 0 20 0;
#X connect 44 0 6 3;
#X connect 46 0 47 0;
#X connect 47 0 41 0;
#X connect 47 1 2 0;
#X connect 48 0 16 0;
#X connect 49 0 15 1;
#X connect 50 0 19 1;
#X restore 661 149 pd stuff;
#X obj 379 335 u_parameter \$0 noteout;
#X obj 625 512 spigot;
#X obj 695 512 spigot;
#X obj 511 429 r \$0-posx;
#X obj 608 430 r \$0-posy;
#X obj 512 447 * 127;
#X obj 609 451 * 127;
#X obj 689 451 * 127;
#X obj 688 430 r \$0-posz;
#X obj 668 227 r \$0-detect;
#X obj 725 266 r \$0-noteout;
#X obj 674 294 pack f f;
#X obj 655 258 * 100;
#X msg 676 332 note \$2 \$1 1;
#X obj 339 415 u_parameter \$0 threshold;
#X obj 333 436 u_parameter \$0 minarea;
#X obj 373 356 u_parameter \$0 ccx_enable;
#X obj 373 376 u_parameter \$0 ccy_enable;
#X obj 373 396 u_parameter \$0 ccz_enable;
#X obj 800 362 r \$0-ccx_enable;
#X obj 810 392 r \$0-ccy_enable;
#X obj 820 432 r \$0-ccz_enable;
#X obj 101 101 cnv 15 188 68 empty \$0-background data_kinectblob 0
7 0 14 -262144 -1 0;
#X obj 220 102 vsl 70 17 1 0 0 0 \$0-presets \$0-presets-rcv PRESETS
4 5 0 10 -232576 -232576 -1 0 1;
#X obj 199 119 cnv 10 90 50 empty empty empty 20 12 0 14 -262138 -66577
0;
#X obj 276 128 tgl 14 0 \$0-ccx_enable \$0-ccx_enable-rcv empty 0 6
0 10 -203904 -1 -1 0 1;
#X obj 257 119 bng 8 50 10 0 empty empty CCOUT 10 5 0 8 -262144 -1
-1;
#X obj 200 128 bng 14 250 50 0 \$0-testx empty empty 17 7 0 10 -262144
-1 -1;
#X obj 200 142 bng 14 250 50 0 \$0-testy empty empty 17 7 0 10 -262144
-1 -1;
#X obj 200 156 bng 14 250 50 0 \$0-testz empty empty 17 7 0 10 -262144
-1 -1;
#X floatatom 114 156 5 0 127 1 note #0-noteout-rcv #0-noteout, f 5
;
#X obj 100 156 bng 14 250 50 0 \$0-testnoteut empty empty 17 7 0 10
-262144 -1 -1;
#X obj 180 155 tgl 15 0 empty \$0-detect empty 17 7 0 10 -262144 -1
-1 0 1;
#X obj 180 111 tgl 15 0 \$0-GEM \$0-GEM-rcv GEM 17 7 0 10 -204786 -1
-1 0 1;
#X obj 103 141 hsl 90 15 40 100000 1 1 \$0-minarea \$0-minarea-rcv
minarea 2 8 0 10 -262144 -1 -1 2400 1;
#X obj 103 126 hsl 90 15 0 127 0 1 \$0-threshold \$0-threshold-rcv
threshold 2 8 0 10 -262144 -1 -1 3200 1;
#X obj 101 110 bng 15 250 50 0 \$0-setbackground empty set_bkgrnd 17
7 0 10 -232576 -1 -1;
#X obj 276 142 tgl 14 0 \$0-ccy_enable \$0-ccy_enable-rcv empty 0 6
0 10 -203904 -1 -1 0 1;
#X obj 276 156 tgl 14 0 \$0-ccz_enable \$0-ccz_enable-rcv empty 0 6
0 10 -203904 -1 -1 0 1;
#X floatatom 214 128 5 0 127 1 ccx #0-ccx-rcv #0-ccx, f 5;
#X floatatom 214 142 5 0 127 1 ccy #0-ccy-rcv #0-ccy, f 5;
#X floatatom 214 156 5 0 127 1 ccz #0-ccz-rcv #0-ccz, f 5;
#X obj 29 260 inlet~;
#X obj 29 306 outlet~;
#X obj 89 260 inlet~;
#X obj 89 306 outlet~;
#X obj 159 260 inlet data;
#X obj 159 306 outlet data;
#X obj 381 228 module_loader data_kinectblob \$0 \$1;
#X obj 437 53 r \$0-busy;
#X connect 1 0 2 0;
#X connect 2 0 3 0;
#X connect 3 0 21 0;
#X connect 4 0 5 1;
#X connect 5 0 14 0;
#X connect 6 0 14 0;
#X connect 7 0 6 1;
#X connect 8 0 14 0;
#X connect 9 0 8 1;
#X connect 10 0 5 0;
#X connect 11 0 47 0;
#X connect 12 0 5 0;
#X connect 14 0 11 0;
#X connect 14 1 13 0;
#X connect 15 0 6 0;
#X connect 16 0 8 0;
#X connect 17 0 12 0;
#X connect 18 0 15 0;
#X connect 19 0 16 0;
#X connect 21 0 37 0;
#X connect 22 0 6 0;
#X connect 23 0 8 0;
#X connect 24 0 26 0;
#X connect 25 0 27 0;
#X connect 26 0 10 0;
#X connect 27 0 22 0;
#X connect 28 0 23 0;
#X connect 29 0 28 0;
#X connect 30 0 33 0;
#X connect 31 0 32 1;
#X connect 32 0 34 0;
#X connect 33 0 32 0;
#X connect 34 0 68 0;
#X connect 35 0 36 0;
#X connect 37 0 38 0;
#X connect 38 0 39 0;
#X connect 39 0 35 0;
#X connect 40 0 10 1;
#X connect 41 0 22 1;
#X connect 42 0 23 1;
#X connect 63 0 64 0;
#X connect 65 0 66 0;
#X connect 67 0 68 0;
#X connect 69 0 1 0;
#X connect 70 0 54 0;
#X coords 0 -1 1 1 190 70 1 100 100;
