#N canvas 244 100 983 549 10;
#X declare -path ./Multisample/utils;
#X declare -path ./Multisample/rj;
#X declare -path ./rj;
#X declare -path ./utils;
#N canvas 492 239 1308 669 stuff 1;
#X obj 762 235 s RJLIB;
#X msg 762 214 sf-samplerate 44100;
#X obj 757 184 loadbang;
#X obj 213 271 *~;
#X obj 251 271 *~;
#X obj 312 223 line~;
#X obj 333 470 dac~;
#X obj 251 416 clip~ -1 1;
#X obj 383 421 clip~ -1 1;
#X obj 660 621 s filemenu;
#X obj 696 269 loadbang;
#X obj 694 298 delay 1000;
#X obj 973 66 receive fromSystem;
#X obj 974 159 unpack 0 0;
#X obj 974 185 + 1;
#X obj 1005 185 + 1;
#X obj 1005 210 / 2;
#X obj 974 210 / 2;
#X obj 974 122 route /tilts /shake;
#X obj 973 98 list trim;
#X obj 982 239 pack f f;
#X obj 984 259 list prepend /mixageXY;
#X obj 985 283 s fromGUI;
#X obj 529 54 route /position1;
#X obj 528 73 route touch;
#X obj 530 33 list trim;
#X obj 531 13 r fromGUI;
#X obj 393 101 route 0;
#X obj 408 140 select 0 1 2;
#X msg 564 188 0.9 10;
#X msg 387 268 0 10;
#X obj 529 129 > 0;
#X obj 526 154 select 0 1;
#N canvas 0 50 480 410 mixagelooper1 0;
#X obj 275 18 r fromGUI;
#X obj 273 44 list trim;
#X obj 281 88 route /mixageXY;
#X obj 271 119 unpack f f;
#X obj 328 185 t f f;
#X obj 269 185 t f f;
#X obj 273 214 *;
#X obj 326 212 *;
#X obj 283 244 +;
#X obj 285 277 - 1;
#X obj 284 297 * -100;
#X obj 276 349 line~;
#X msg 284 324 \$1 20;
#X obj 50 388 outlet~;
#X obj 273 159 - 0.5;
#X obj 346 159 - 0.5;
#X obj 123 387 outlet~;
#X obj 39 34 inlet~;
#X obj 116 34 inlet~;
#X obj 102 224 *~;
#X obj 140 224 *~;
#X obj 177 115 dbtorms~;
#X connect 0 0 1 0;
#X connect 1 0 2 0;
#X connect 2 0 3 0;
#X connect 3 0 14 0;
#X connect 3 1 15 0;
#X connect 4 0 7 0;
#X connect 4 1 7 1;
#X connect 5 0 6 0;
#X connect 5 1 6 1;
#X connect 6 0 8 0;
#X connect 7 0 8 1;
#X connect 8 0 9 0;
#X connect 9 0 10 0;
#X connect 10 0 12 0;
#X connect 11 0 21 0;
#X connect 12 0 11 0;
#X connect 14 0 5 0;
#X connect 15 0 4 0;
#X connect 17 0 19 0;
#X connect 18 0 20 0;
#X connect 19 0 13 0;
#X connect 20 0 16 0;
#X connect 21 0 19 1;
#X connect 21 0 20 1;
#X restore 90 94 pd mixagelooper1;
#X msg 451 255 list /myLCD-1 clear;
#X obj 469 298 s toGUI;
#X obj 638 139 s looper1_touch;
#X obj 856 451 textfile;
#X obj 963 538 list;
#X obj 940 355 loadbang;
#X obj 938 384 delay 1000;
#X obj 788 517 delay 1;
#X obj 787 608 list trim;
#X obj 856 485 t b a;
#X obj 785 580 list append;
#X obj 855 538 list prepend;
#X obj 514 446 declare -path ./Multisample/utils;
#X obj 517 466 declare -path ./Multisample/rj;
#X msg 945 409 clear \, read ../sounds/index.txt cr \, rewind \, bang
;
#X obj 321 29 inlet;
#X obj 309 154 spigot 1;
#X obj 397 24 inlet;
#X floatatom 758 109 5 0 0 0 - - -, f 5;
#N canvas 0 50 450 300 compter_nb_events_touch 0;
#X obj 79 27 inlet;
#X obj 84 265 outlet;
#X obj 77 60 list split 2;
#X obj 77 82 unpack f f;
#X obj 147 116 select 0 1;
#X obj 163 229 max 0;
#X msg 134 140 -1;
#X msg 179 138 1;
#X floatatom 121 223 5 0 0 0 - - -, f 5;
#X obj 144 199 f;
#X obj 144 174 +;
#X connect 0 0 2 0;
#X connect 2 0 3 0;
#X connect 3 1 4 0;
#X connect 4 0 6 0;
#X connect 4 1 7 0;
#X connect 5 0 1 0;
#X connect 5 0 10 1;
#X connect 6 0 10 0;
#X connect 7 0 10 0;
#X connect 9 0 5 0;
#X connect 9 0 8 0;
#X connect 10 0 9 0;
#X restore 529 102 pd compter_nb_events_touch;
#X obj 67 17 inst_multisample/looper1 1 Speech;
#X connect 1 0 0 0;
#X connect 2 0 1 0;
#X connect 3 0 7 0;
#X connect 4 0 8 0;
#X connect 5 0 3 1;
#X connect 5 0 4 1;
#X connect 7 0 6 0;
#X connect 8 0 6 1;
#X connect 10 0 11 0;
#X connect 12 0 19 0;
#X connect 13 0 14 0;
#X connect 13 1 15 0;
#X connect 14 0 17 0;
#X connect 15 0 16 0;
#X connect 16 0 20 1;
#X connect 17 0 20 0;
#X connect 18 0 13 0;
#X connect 19 0 18 0;
#X connect 20 0 21 0;
#X connect 21 0 22 0;
#X connect 23 0 24 0;
#X connect 24 0 53 0;
#X connect 25 0 23 0;
#X connect 26 0 25 0;
#X connect 27 0 28 0;
#X connect 28 0 30 0;
#X connect 28 1 29 0;
#X connect 28 2 29 0;
#X connect 29 0 5 0;
#X connect 30 0 50 0;
#X connect 31 0 32 0;
#X connect 32 0 30 0;
#X connect 32 0 34 0;
#X connect 32 1 29 0;
#X connect 33 0 3 0;
#X connect 33 1 4 0;
#X connect 34 0 35 0;
#X connect 37 0 43 0;
#X connect 37 1 44 0;
#X connect 38 0 45 1;
#X connect 39 0 40 0;
#X connect 40 0 48 0;
#X connect 41 0 37 0;
#X connect 42 0 9 0;
#X connect 43 0 41 0;
#X connect 43 1 45 0;
#X connect 44 0 42 0;
#X connect 45 0 38 0;
#X connect 45 0 44 1;
#X connect 48 0 37 0;
#X connect 49 0 54 0;
#X connect 50 0 5 0;
#X connect 51 0 50 1;
#X connect 53 0 31 0;
#X connect 53 0 36 0;
#X connect 53 0 52 0;
#X connect 54 0 33 0;
#X connect 54 1 33 1;
#X restore 316 0 pd stuff;
#X text 487 89 1) Selectionner un sample en cliquant sur un chiffre
ou en le tapant au clavier, f 33;
#X text 480 55 MODE D'EMPLOI (MAC/PC);
#X text 487 139 2) Définir une zone de travail à l'intérieur du
sample en cliquant et déplaçant la souris sur la forme d'onde, f
33;
#X text 489 202 3) Placer le curseur dans le carré vert et cliquer
dessus, f 33;
#X text 489 242 OU : Placer le curseur dans le carré vert et presser
l'une des touches A \, Q \, W en fonction du volume sonore désiré
, f 33;
#X text 489 302 4) Il est possible de changer la vitesse en actionnant
le curseur vertical SPEED, f 33;
#X text 490 374 Les raccourcis clavier (lettres/chiffres indiqués
entre parenthèses) sont accessibles à tout moment et permettre de
redéfinir à la volée la zone de travail \, la vitesse \, le sens
de lecture \, le volume et le numéro de sample tout en gardant le
curseur à l'intérieur du carré vert, f 33;
#X msg 785 44 2000;
#X obj 830 220 adc~ 1 2;
#X obj 771 314 tabwrite~ /sampleExt-1;
#X obj 773 346 tabwrite~ /sampleExt-2;
#X obj 874 267 metro 2000;
#X obj 909 240 bng 15 250 50 0 empty empty empty 17 7 0 10 -262144
-1 -1;
#X obj 798 117 table /sampleExt-1 88100;
#X obj 796 149 table /sampleExt-2 81000;
#X obj 914 215 tgl 15 0 empty empty empty 17 7 0 10 -262144 -1 -1 0
1;
#X obj 876 25 tgl 15 1 empty empty empty 17 7 0 10 -262144 -1 -1 1
1;
#X obj 0 0 inst_multisample/utils/Interface_Multisample;
#X connect 8 0 0 0;
#X connect 9 0 10 0;
#X connect 9 1 11 0;
#X connect 12 0 10 0;
#X connect 12 0 11 0;
#X connect 13 0 12 0;
#X connect 16 0 12 0;
#X connect 17 0 0 1;
