#N canvas 313 50 857 699 10;
#X obj 78 65 receive fromNetwork;
#X obj 75 226 send toGUI;
#X obj 83 145 symbol;
#X msg 77 174 list /catsPanel image \$1.jpg;
#X obj 471 86 gemwin;
#X obj 481 144 gemhead;
#X msg 357 171 open \$1.jpg;
#X obj 488 206 pix_texture;
#X obj 490 241 rectangle 5.6666 4;
#X msg 553 40 dimen 640 480 \, create \, 1;
#X msg 463 40 destroy;
#X obj 481 170 pix_image default.jpg;
#X obj 79 96 list trim;
#X obj 282 59 r REMOTE;
#X obj 80 121 route focus;
#N canvas 0 50 536 438 data 1;
#X restore 395 344 pd data;
#N canvas 0 50 628 300 paintrect-template 0;
#X obj 55 158 struct paintrect float color float x1 float y1 float
x2 float y2 float x2;
#X obj 164 246 filledpolygon color 0 3 x1 y1 x2 y1 x2 y2 x1 y2 x1 y1
;
#X restore 516 361 pd paintrect-template;
#N canvas 0 50 743 544 populating 0;
#X obj 216 151 inlet;
#X obj 216 188 route paintrect;
#X msg 78 87 paintrect 0.5 0.5 0.6 0.6 1 1 0 1;
#X obj 211 228 unpack f f f f f f f;
#X obj 300 254 * 9;
#X obj 300 274 int;
#X obj 298 295 * 100;
#X obj 340 254 * 9;
#X obj 340 274 int;
#X obj 380 254 * 9;
#X obj 380 274 int;
#X obj 338 295 * 10;
#X obj 293 333 +;
#X obj 338 317 +;
#X obj 215 373 pack f f f f f;
#X obj 215 396 t l b;
#X msg 276 419 traverse pd-data \, bang;
#X obj 260 451 pointer;
#X obj 176 493 append paintrect x1 y1 x2 y2 color;
#X obj 211 250 * 600;
#X obj 221 270 * 600;
#X obj 231 290 * 600;
#X obj 241 310 * 600;
#X obj 426 151 inlet;
#X obj 426 188 route paintrect;
#X obj 421 228 unpack f f f f f f f;
#X obj 510 254 * 9;
#X obj 510 274 int;
#X obj 508 295 * 100;
#X obj 550 254 * 9;
#X obj 550 274 int;
#X obj 590 254 * 9;
#X obj 590 274 int;
#X obj 548 295 * 10;
#X obj 503 333 +;
#X obj 548 317 +;
#X obj 425 373 pack f f f f f;
#X obj 421 250 * 1;
#X obj 431 270 * 1;
#X obj 441 290 * 1;
#X obj 451 310 * 1;
#X connect 0 0 1 0;
#X connect 1 0 3 0;
#X connect 3 0 19 0;
#X connect 3 1 20 0;
#X connect 3 2 21 0;
#X connect 3 3 22 0;
#X connect 3 4 4 0;
#X connect 3 5 7 0;
#X connect 3 6 9 0;
#X connect 4 0 5 0;
#X connect 5 0 6 0;
#X connect 6 0 12 0;
#X connect 7 0 8 0;
#X connect 8 0 11 0;
#X connect 9 0 10 0;
#X connect 10 0 13 1;
#X connect 11 0 13 0;
#X connect 12 0 14 4;
#X connect 13 0 12 1;
#X connect 14 0 15 0;
#X connect 15 0 18 0;
#X connect 15 1 16 0;
#X connect 16 0 17 0;
#X connect 17 0 18 5;
#X connect 19 0 14 0;
#X connect 20 0 14 1;
#X connect 21 0 14 2;
#X connect 22 0 14 3;
#X connect 23 0 24 0;
#X connect 24 0 25 0;
#X connect 25 0 37 0;
#X connect 25 1 38 0;
#X connect 25 2 39 0;
#X connect 25 3 40 0;
#X connect 25 4 26 0;
#X connect 25 5 29 0;
#X connect 25 6 31 0;
#X connect 26 0 27 0;
#X connect 27 0 28 0;
#X connect 28 0 34 0;
#X connect 29 0 30 0;
#X connect 30 0 33 0;
#X connect 31 0 32 0;
#X connect 32 0 35 1;
#X connect 33 0 35 0;
#X connect 34 0 36 4;
#X connect 35 0 34 1;
#X connect 36 0 15 0;
#X connect 37 0 36 0;
#X connect 38 0 36 1;
#X connect 39 0 36 2;
#X connect 40 0 36 3;
#X restore 227 410 pd populating;
#X msg 197 367 paintrect 0.1 0.1 0.8 0.2 1 0 0;
#X msg 407 424 \; pd-data clear;
#X obj 230 208 hsl 128 15 0.1 0.8 0 0 empty empty empty -2 -8 0 10
-262144 -1 -1 0 1;
#X obj 302 231 t f b b;
#X msg 17 333 paintrect \$1 0.1 \$2 0.2 1 1 0 1;
#X obj 186 238 t f f;
#X obj 254 286 + 0.1;
#X obj 83 302 pack f f;
#X obj 207 554 text define controls;
#X obj 100 493 list split 1;
#X obj 98 520 text search controls;
#X msg 239 490 bal 65;
#X obj 123 565 moses 0;
#X obj 160 595 text get controls;
#X obj 157 615 list append;
#X msg 147 439 vol \$1;
#X msg 205 447 gain \$1;
#X obj 11 430 vsl 15 128 0 100 0 0 empty empty empty 0 -9 0 10 -262144
-1 -1 0 1;
#X obj 31 430 vsl 15 128 0 127 0 0 empty empty empty 0 -9 0 10 -262144
-1 -1 0 1;
#X obj 157 637 list split 1;
#X obj 197 658 list trim;
#X obj 610 420 route vslider;
#X obj 588 447 expr $f1 \; $f2 \; $f3 \; $f4 \; (1-($f7-$f5)/($f6-$f5))*($f4-$f3)
;
#X obj 597 625 pack f f f f f f, f 30;
#X msg 492 654 paintrect \$1 \$2 \$3 \$4 1 0 0;
#X obj 500 587 t l l;
#X msg 472 674 paintrect \$1 \$5 \$3 \$6 1 1 0;
#X obj 597 538 expr $f1 \; $f2 \; $f1+$f3 \; $f2+$f4 \; $f5+$f2 \;
$f5+$f2+$f3, f 30;
#X connect 0 0 12 0;
#X connect 2 0 3 0;
#X connect 2 0 6 0;
#X connect 3 0 1 0;
#X connect 5 0 11 0;
#X connect 6 0 11 0;
#X connect 7 0 8 0;
#X connect 9 0 4 0;
#X connect 10 0 4 0;
#X connect 11 0 7 0;
#X connect 12 0 14 0;
#X connect 13 0 12 0;
#X connect 14 0 2 0;
#X connect 14 0 19 0;
#X connect 14 1 27 0;
#X connect 18 0 17 0;
#X connect 20 0 21 0;
#X connect 21 0 23 0;
#X connect 21 1 18 0;
#X connect 21 2 19 0;
#X connect 22 0 17 0;
#X connect 23 0 25 0;
#X connect 23 1 24 0;
#X connect 24 0 25 1;
#X connect 25 0 22 0;
#X connect 27 0 28 0;
#X connect 27 1 32 1;
#X connect 28 0 30 0;
#X connect 29 0 27 0;
#X connect 30 1 31 0;
#X connect 31 0 32 0;
#X connect 32 0 37 0;
#X connect 33 0 27 0;
#X connect 34 0 27 0;
#X connect 35 0 33 0;
#X connect 36 0 34 0;
#X connect 37 1 38 0;
#X connect 38 0 39 0;
#X connect 39 0 40 0;
#X connect 40 0 45 0;
#X connect 40 1 45 1;
#X connect 40 2 45 2;
#X connect 40 3 45 3;
#X connect 40 4 45 4;
#X connect 41 0 43 0;
#X connect 42 0 17 0;
#X connect 43 0 44 0;
#X connect 43 1 42 0;
#X connect 44 0 17 0;
#X connect 45 0 41 0;
#X connect 45 1 41 1;
#X connect 45 2 41 2;
#X connect 45 3 41 3;
#X connect 45 4 41 4;
#X connect 45 5 41 5;
