#N canvas 0 50 450 404 10;
#X obj 101 329 outlet;
#X obj 115 132 list split 1;
#X obj 113 174 select \$1;
#X msg 131 215 1;
#X msg 206 223 0, f 2;
#X obj 102 250 spigot;
#X obj 111 89 route focus;
#X obj 99 44 r REMOTE;
#X obj 27 260 pofhead;
#X obj 25 303 pofvisible;
#X connect 1 0 2 0;
#X connect 2 0 3 0;
#X connect 2 1 4 0;
#X connect 3 0 5 1;
#X connect 3 0 9 0;
#X connect 4 0 5 1;
#X connect 4 0 9 0;
#X connect 5 0 0 0;
#X connect 6 0 1 0;
#X connect 6 1 5 0;
#X connect 7 0 6 0;
#X connect 8 0 9 0;
#X connect 9 0 0 0;
