#N canvas 0 0 200 200 10;
#X obj 0 0 focus_listener fx_freeverb;
#X obj 0 20 ui_vs_listener 0 15 amp 60 100;
#X connect 0 0 1 0;
#X obj 0 40 ui_vs_listener 38 15 hall 0 100;
#X connect 1 0 2 0;
#X obj 0 60 vsl_listener 120 2 presets 70 17 1 0;
#X connect 2 0 3 0;
#X obj 0 80 ui_vs_listener 114 15 damp 0 100;
#X connect 3 0 4 0;
#X obj 0 100 ui_vs_listener 152 15 wet 0 1;
#X connect 4 0 5 0;
#X obj 0 120 tgl_listener 76 32 freeze 38;
#X connect 5 0 6 0;
