#N canvas 0 0 200 200 10;
#X obj 0 0 focus_listener fx_pitchshift;
#X obj 0 20 vsl_listener 120 2 presets 70 17 1 0;
#X connect 0 0 1 0;
#X obj 0 40 tgl_listener 98 0 sync 15;
#X connect 1 0 2 0;
#X obj 0 60 ui_vsl_listener 11 15 del 1.5 4800;
#X connect 2 0 3 0;
#X obj 0 80 vsl_listener 0 17 <bad_name> 10 50 0 127;
#X connect 3 0 4 0;
#X obj 0 100 ui_vs_listener 45 15 pitch -12 12;
#X connect 4 0 5 0;
#X obj 0 120 ui_vs_listener 77 15 size 1 200;
#X connect 5 0 6 0;
#X obj 0 140 ui_vs_listener 114 15 fback 0 100;
#X connect 6 0 7 0;
#X obj 0 160 ui_vs_listener 152 15 wet 0 1;
#X connect 7 0 8 0;
#X obj 0 180 tgl_listener 80 1 semitones 15;
#X connect 8 0 9 0;
