#N canvas 313 50 605 458 10;
#X obj 340 160 s REMOTE;
#X msg 324 119 focus fx_dubdel2;
#X msg 327 71 focus fx_pitchshift;
#X msg 326 93 focus other;
#X obj 138 26 r REMOTE;
#X obj 135 50 route focus;
#X obj 135 71 list;
#X msg 187 96 symbol \$1-\$3;
#X obj 188 275 s;
#X obj 184 149 r FROM_GUI;
#X obj 225 127 print;
#X obj 184 171 list prepend remote;
#X obj 184 193 list trim;
#X obj 19 136 gui_fx_pitchshift;
#X obj 25 198 gui_inst_headrush;
#X obj 42 238 gui_fx_freeverb;
#X obj 20 115 gui_fx_dubdel2;
#X text 279 232 reste vradio_listener \, hradio_listener \, vsl_listener
\, hsl_listener \, bang_listener;
#X connect 1 0 0 0;
#X connect 2 0 0 0;
#X connect 3 0 0 0;
#X connect 4 0 5 0;
#X connect 5 0 6 0;
#X connect 6 0 7 0;
#X connect 7 0 8 1;
#X connect 7 0 10 0;
#X connect 9 0 11 0;
#X connect 11 0 12 0;
#X connect 12 0 8 0;
