#N canvas 902 222 631 356 10;
#X obj 397 84 pofwin;
#X msg 397 50 build;
#X obj 0 0 focus_listener fx_dubdel2;
#X obj 0 20 vradio_listener 86 14 setdell 14 4;
#X obj 0 60 vsl_listener 120 3 presets 70 17 1 0;
#X obj 0 80 ui_vsl_listener 10 15 del 100 3000;
#X obj 0 40 vradio_listener 100 14 setdelr 14 4;
#X obj 0 100 vsl_listener 0 17 <bad_name> 10 50 0 127;
#X obj 0 140 ui_vs_listener 48 15 bpitch 50 120;
#X obj 0 160 ui_vs_listener 152 15 wet 0 1;
#X obj 0 180 ui_vs_listener 114 15 fb 0 1;
#X obj 0 120 tgl_listener 63 0 sync 15;
#X connect 1 0 0 0;
#X connect 2 0 3 0;
#X connect 3 0 6 0;
#X connect 4 0 5 0;
#X connect 5 0 7 0;
#X connect 6 0 4 0;
#X connect 7 0 11 0;
#X connect 8 0 9 0;
#X connect 9 0 10 0;
#X connect 11 0 8 0;
