#N canvas 0 50 536 492 10;
#X obj 142 108 inlet;
#X obj 203 316 outlet;
#X obj 141 158 route \$3 pof_build;
#X msg 201 204 pof_build \$1;
#X obj 279 248 poftranslate \$1 \$2;
#X obj 278 279 pofrect \$4;
#X obj 392 160 loadbang;
#X obj 389 186 list append \$4 \$5;
#X obj 389 208 *;
#X connect 0 0 2 0;
#X connect 2 1 3 0;
#X connect 2 2 1 0;
#X connect 3 0 1 0;
#X connect 3 0 4 0;
#X connect 4 0 5 0;
#X connect 6 0 7 0;
#X connect 7 0 8 0;
#X connect 8 0 5 2;
