#N canvas 389 4 1097 620 10;
#X obj 325 116 text define gui;
#X msg 327 91 read \$1;
#X obj 253 41 openpanel;
#X obj 245 22 bng 15 250 50 0 empty empty empty 17 7 0 10 -262144 -1
-1;
#X obj 86 127 text get gui;
#X obj 80 76 f;
#X obj 119 80 + 1;
#X msg 130 42 0;
#X obj 86 149 list trim;
#X obj 136 177 route #N #X;
#X obj 43 215 route canvas;
#X obj 171 270 +;
#X obj 171 292 f;
#X msg 83 242 1;
#X msg 181 238 -1;
#X obj 173 314 == 1;
#X obj 141 337 spigot;
#X floatatom 80 98 5 0 0 0 - - -, f 5;
#X floatatom 94 292 5 0 0 0 - - -, f 5;
#X obj 187 212 route restore obj;
#X obj 140 358 list split 2;
#X obj 257 389 list split 1;
#X obj 303 181 delay 1;
#X obj 140 451 list append;
#X obj 787 255 text define output;
#X obj 699 527 text set output;
#X msg 730 508 1e+006;
#X obj 730 486 loadbang;
#X obj 190 146 select 0 1 2;
#X obj 73 18 t b b;
#X obj 35 14 bng 15 250 50 0 empty empty empty 17 7 0 10 -262144 -1
-1;
#X msg 802 217 write \$1;
#X obj 802 182 savepanel;
#X obj 805 145 bng 15 250 50 0 empty empty empty 17 7 0 10 -262144
-1 -1;
#X msg 828 113 clear;
#X text 296 9 1 - Open patch;
#X text 78 0 2 - parse;
#X obj 138 494 list trim;
#X obj 139 473 list prepend;
#X obj 140 380 unpack f f;
#X obj 140 402 - 100;
#X obj 200 402 - 100;
#X obj 140 424 pack f f;
#N canvas 0 50 707 505 listeners 0;
#X obj 95 29 inlet;
#X obj 108 280 outlet;
#X obj 92 119 route ui_vsl ui_vs tgl vsl vradio hsl hradio;
#X msg 134 174 ui_vs_listener \$1 \$2 \$4 \$5 \$6;
#X msg 146 245 tgl_listener \$1 \$2 \$5 \$3;
#N canvas 0 50 450 300 toogle_parsing_args 0;
#X obj 237 41 inlet;
#X obj 230 295 outlet;
#X obj 243 74 list split 4;
#X obj 281 96 list split 1;
#X obj 281 116 list fromsymbol;
#X obj 314 172 list tosymbol;
#X obj 302 231 list append;
#X obj 249 264 list append;
#X obj 281 148 list split 3;
#X connect 0 0 2 0;
#X connect 2 0 7 0;
#X connect 2 1 3 0;
#X connect 3 0 4 0;
#X connect 3 1 6 1;
#X connect 4 0 8 0;
#X connect 5 0 6 0;
#X connect 6 0 7 1;
#X connect 7 0 1 0;
#X connect 8 1 5 0;
#X restore 152 209 pd toogle_parsing_args;
#X msg 94 145 ui_vsl_listener \$1 \$2 \$4 \$5 \$6;
#N canvas 0 50 484 353 vradio_parsing_args 0;
#X obj 237 41 inlet;
#X obj 230 295 outlet;
#X obj 281 96 list split 1;
#X obj 281 116 list fromsymbol;
#X obj 314 172 list tosymbol;
#X obj 302 231 list append;
#X obj 249 264 list append;
#X obj 281 148 list split 3;
#X obj 243 74 list split 6;
#X connect 0 0 8 0;
#X connect 2 0 3 0;
#X connect 2 1 5 1;
#X connect 3 0 7 0;
#X connect 4 0 5 0;
#X connect 5 0 6 1;
#X connect 6 0 1 0;
#X connect 7 1 4 0;
#X connect 8 0 6 0;
#X connect 8 1 2 0;
#X restore 365 144 pd vradio_parsing_args;
#X msg 363 169 vradio_listener \$1 \$2 \$7 \$3 \$6;
#N canvas 0 50 484 353 hradio_parsing_args 0;
#X obj 237 41 inlet;
#X obj 230 295 outlet;
#X obj 281 96 list split 1;
#X obj 281 116 list fromsymbol;
#X obj 314 172 list tosymbol;
#X obj 302 231 list append;
#X obj 249 264 list append;
#X obj 281 148 list split 3;
#X obj 243 74 list split 6;
#X connect 0 0 8 0;
#X connect 2 0 3 0;
#X connect 2 1 5 1;
#X connect 3 0 7 0;
#X connect 4 0 5 0;
#X connect 5 0 6 1;
#X connect 6 0 1 0;
#X connect 7 1 4 0;
#X connect 8 0 6 0;
#X connect 8 1 2 0;
#X restore 415 195 pd hradio_parsing_args;
#X msg 416 215 hradio_listener \$1 \$2 \$7 \$3 \$6;
#N canvas 0 50 484 353 vsl_parsing_args 0;
#X obj 237 41 inlet;
#X obj 166 319 outlet;
#X obj 281 96 list split 1;
#X obj 281 116 list fromsymbol;
#X obj 347 184 list tosymbol;
#X obj 310 266 list append;
#X obj 185 288 list append;
#X obj 281 140 list split 3;
#X obj 243 74 list split 8;
#X obj 275 188 route 36;
#X obj 275 243 list append;
#X obj 266 212 t b;
#X msg 324 215 <bad_name>;
#X connect 0 0 8 0;
#X connect 2 0 3 0;
#X connect 2 1 5 1;
#X connect 3 0 7 0;
#X connect 4 0 10 1;
#X connect 5 0 6 1;
#X connect 6 0 1 0;
#X connect 7 0 9 0;
#X connect 7 1 4 0;
#X connect 8 0 6 0;
#X connect 8 1 2 0;
#X connect 9 0 11 0;
#X connect 9 1 12 0;
#X connect 10 0 5 0;
#X connect 11 0 10 0;
#X connect 12 0 5 0;
#X restore 446 240 pd vsl_parsing_args;
#X msg 447 263 vsl_listener \$1 \$2 \$9 \$3 \$4 \$5 \$6;
#N canvas 0 50 484 353 hsl_parsing_args 0;
#X obj 237 41 inlet;
#X obj 166 319 outlet;
#X obj 281 96 list split 1;
#X obj 281 116 list fromsymbol;
#X obj 347 184 list tosymbol;
#X obj 310 266 list append;
#X obj 185 288 list append;
#X obj 281 140 list split 3;
#X obj 243 74 list split 8;
#X obj 275 188 route 36;
#X obj 275 243 list append;
#X obj 266 212 t b;
#X msg 324 215 <bad_name>;
#X connect 0 0 8 0;
#X connect 2 0 3 0;
#X connect 2 1 5 1;
#X connect 3 0 7 0;
#X connect 4 0 10 1;
#X connect 5 0 6 1;
#X connect 6 0 1 0;
#X connect 7 0 9 0;
#X connect 7 1 4 0;
#X connect 8 0 6 0;
#X connect 8 1 2 0;
#X connect 9 0 11 0;
#X connect 9 1 12 0;
#X connect 10 0 5 0;
#X connect 11 0 10 0;
#X connect 12 0 5 0;
#X restore 504 293 pd hsl_parsing_args;
#X msg 503 314 hsl_listener \$1 \$2 \$9 \$3 \$4 \$5 \$6;
#X connect 0 0 2 0;
#X connect 2 0 6 0;
#X connect 2 1 3 0;
#X connect 2 2 5 0;
#X connect 2 3 11 0;
#X connect 2 4 7 0;
#X connect 2 5 13 0;
#X connect 2 6 9 0;
#X connect 3 0 1 0;
#X connect 4 0 1 0;
#X connect 5 0 4 0;
#X connect 6 0 1 0;
#X connect 7 0 8 0;
#X connect 8 0 1 0;
#X connect 9 0 10 0;
#X connect 10 0 1 0;
#X connect 11 0 12 0;
#X connect 12 0 1 0;
#X connect 13 0 14 0;
#X connect 14 0 1 0;
#X restore 141 520 pd listeners;
#X obj 147 590 list prepend #X obj 0;
#X obj 152 566 t a b;
#X obj 422 462 f;
#X obj 424 532 + 1;
#X obj 326 524 * 20;
#X obj 144 543 list prepend 20;
#X obj 492 486 t b l;
#X obj 521 530 pack f f;
#X obj 417 491 t f f;
#X obj 521 561 list append;
#X obj 413 200 t b b;
#X obj 449 555 - 2;
#X msg 527 591 list #X connect \$1 0 \$2 0;
#X msg 457 337 list #N canvas 0 0 200 200 10;
#X obj 393 268 list append;
#X obj 482 136 iemlib/splitfilename /;
#X obj 492 166 iemlib/splitfilename .;
#X text 850 143 3 - save result as pd patch;
#X msg 430 365 list #X obj 0 0 focus_listener \$1;
#X connect 1 0 0 0;
#X connect 2 0 1 0;
#X connect 2 0 59 0;
#X connect 3 0 2 0;
#X connect 3 0 7 0;
#X connect 4 0 8 0;
#X connect 4 1 28 0;
#X connect 5 0 6 0;
#X connect 5 0 4 0;
#X connect 5 0 17 0;
#X connect 6 0 5 1;
#X connect 7 0 11 1;
#X connect 7 0 5 1;
#X connect 7 0 34 0;
#X connect 7 0 46 0;
#X connect 8 0 9 0;
#X connect 9 0 10 0;
#X connect 9 1 19 0;
#X connect 10 0 13 0;
#X connect 11 0 12 0;
#X connect 12 0 11 1;
#X connect 12 0 15 0;
#X connect 12 0 18 0;
#X connect 13 0 11 0;
#X connect 14 0 11 0;
#X connect 15 0 16 1;
#X connect 16 0 20 0;
#X connect 19 0 14 0;
#X connect 19 1 16 0;
#X connect 20 0 39 0;
#X connect 20 1 21 0;
#X connect 21 0 38 1;
#X connect 21 1 23 1;
#X connect 22 0 5 0;
#X connect 23 0 38 0;
#X connect 26 0 25 1;
#X connect 27 0 26 0;
#X connect 28 0 22 0;
#X connect 28 1 22 0;
#X connect 29 0 5 0;
#X connect 29 1 54 0;
#X connect 30 0 29 0;
#X connect 31 0 24 0;
#X connect 32 0 31 0;
#X connect 33 0 32 0;
#X connect 34 0 24 0;
#X connect 37 0 43 0;
#X connect 38 0 37 0;
#X connect 39 0 40 0;
#X connect 39 1 41 0;
#X connect 40 0 42 0;
#X connect 41 0 42 1;
#X connect 42 0 23 0;
#X connect 43 0 49 0;
#X connect 44 0 50 0;
#X connect 45 0 44 0;
#X connect 45 1 46 0;
#X connect 46 0 52 0;
#X connect 47 0 46 1;
#X connect 47 0 48 0;
#X connect 47 0 55 0;
#X connect 48 0 49 1;
#X connect 49 0 45 0;
#X connect 50 0 53 0;
#X connect 50 1 25 0;
#X connect 51 0 53 1;
#X connect 52 0 47 0;
#X connect 52 1 51 1;
#X connect 53 0 56 0;
#X connect 54 0 58 0;
#X connect 54 1 57 0;
#X connect 55 0 51 0;
#X connect 56 0 25 0;
#X connect 57 0 25 0;
#X connect 58 0 62 0;
#X connect 59 1 60 0;
#X connect 60 0 58 1;
#X connect 62 0 25 0;
