#N canvas 642 110 712 561 10;
#X obj 152 38 inlet;
#X obj 115 223 outlet;
#X obj 179 189 poftranslate;
#X obj 175 77 t a a a;
#X obj 266 145 f \$1;
#X obj 320 170 f \$2;
#X obj 231 171 / 2;
#X obj 320 192 / 2;
#X obj 296 99 loadbang;
#X obj 265 35 inlet;
#X obj 366 32 inlet;
#X obj 228 403 outlet;
#X obj 256 335 poftouch \$1 \$2;
#X msg 252 273 draw \$1;
#X obj 243 244 tgl 15 1 empty empty empty 17 7 0 10 -262144 -1 -1 1
1;
#X connect 0 0 3 0;
#X connect 2 0 12 0;
#X connect 3 0 1 0;
#X connect 3 1 2 0;
#X connect 4 0 6 0;
#X connect 5 0 7 0;
#X connect 6 0 2 1;
#X connect 7 0 2 2;
#X connect 8 0 4 0;
#X connect 8 0 5 0;
#X connect 9 0 4 0;
#X connect 9 0 12 1;
#X connect 10 0 5 0;
#X connect 10 0 12 2;
#X connect 12 0 11 0;
#X connect 13 0 12 0;
#X connect 14 0 13 0;
