#N canvas 703 88 543 725 10;
#X obj 182 38 inlet;
#X obj 359 259 outlet;
#X obj 181 88 route \$3 pof_build;
#X msg 269 146 pof_build \$1;
#N canvas 0 50 450 300 color/translate 0;
#X obj 37 37 inlet;
#X obj 56 242 outlet;
#X obj 47 189 pofcolor 1 0 0 1;
#X obj 79 122 random 100;
#X obj 72 94 loadbang;
#X obj 79 144 / 100;
#X obj 159 122 random 100;
#X obj 159 144 / 100;
#X obj 49 214 poftranslate \$1 \$2;
#X connect 0 0 2 0;
#X connect 2 0 8 0;
#X connect 3 0 5 0;
#X connect 4 0 3 0;
#X connect 4 0 6 0;
#X connect 5 0 2 2;
#X connect 6 0 7 0;
#X connect 7 0 2 3;
#X connect 8 0 1 0;
#X restore 92 391 pd color/translate;
#X obj 81 116 tgl 15 1 empty empty empty 17 7 0 10 -262144 -1 -1 1
1;
#X msg 81 135 draw \$1;
#X obj 92 417 pof_touch2 \$4 \$4;
#X obj 94 486 pofrect \$4 \$4;
#X obj 306 356 t b;
#X obj 191 235 == 0;
#X obj 94 450 pofcolor 0.2 0.2 0.2 0;
#X obj 189 209 f 0;
#X obj 107 219 f 1;
#X obj 304 322 route down;
#X obj 46 294 s FROM_GUI;
#X obj 67 242 list prepend \$3;
#X obj 67 264 list trim;
#X connect 0 0 2 0;
#X connect 2 0 12 0;
#X connect 2 1 3 0;
#X connect 2 2 1 0;
#X connect 3 0 1 0;
#X connect 3 0 4 0;
#X connect 4 0 7 0;
#X connect 5 0 6 0;
#X connect 7 1 11 0;
#X connect 7 2 14 0;
#X connect 9 0 13 0;
#X connect 10 0 13 1;
#X connect 11 0 8 0;
#X connect 12 0 10 0;
#X connect 12 0 11 4;
#X connect 13 0 12 0;
#X connect 13 0 16 0;
#X connect 14 0 9 0;
#X connect 16 0 17 0;
#X connect 17 0 15 0;
