#N canvas 499 50 642 533 10;
#X obj 99 44 inlet;
#X obj 323 191 outlet;
#X obj 111 98 route \$3 pof_build;
#X msg 171 144 pof_build \$1;
#N canvas 0 50 450 300 color/translate 0;
#X obj 37 37 inlet;
#X obj 54 249 outlet;
#X obj 79 122 random 100;
#X obj 102 96 loadbang;
#X obj 79 144 / 100;
#X obj 159 122 random 100;
#X obj 159 144 / 100;
#X obj 39 65 poftranslate \$1 \$2;
#X obj 39 87 t a a;
#X obj 20 246 outlet;
#X obj 47 189 pofcolor 1 0 0 0.1;
#X connect 0 0 7 0;
#X connect 2 0 4 0;
#X connect 3 0 2 0;
#X connect 3 0 5 0;
#X connect 4 0 10 2;
#X connect 5 0 6 0;
#X connect 6 0 10 3;
#X connect 7 0 8 0;
#X connect 8 0 9 0;
#X connect 8 1 10 0;
#X connect 10 0 1 0;
#X restore 263 239 pd color/translate;
#X obj 391 281 pof_touch2 38 55;
#X obj 144 352 pofrect 38 3;
#X obj 151 261 - 1;
#X obj 198 289 * -55;
#X obj 145 317 poftranslate 19 0;
#X obj 80 208 expr ($f1-$f2)/($f3-$f2);
#X obj 119 175 f \$4;
#X obj 165 179 f \$5;
#X obj 115 148 t b b;
#X obj 122 129 loadbang;
#X obj 390 320 route down move;
#X obj 361 372 unpack f f f;
#X obj 495 382 unpack f f f;
#X obj 393 456 -;
#X obj 35 253 t f f;
#X obj 27 311 +;
#X obj 496 426 t f f;
#X obj 393 478 / -55;
#X obj 27 397 expr $f1*($f3-$f2)+$f2;
#X obj 46 484 s FROM_GUI;
#X obj 67 432 list prepend \$3;
#X obj 67 454 list trim;
#X obj 64 143 bng 15 250 50 0 empty empty empty 17 7 0 10 -262144 -1
-1;
#X obj 393 500 / 4;
#X obj 61 341 min 1;
#X obj 61 363 max 0;
#X connect 0 0 2 0;
#X connect 2 0 10 0;
#X connect 2 1 3 0;
#X connect 2 2 1 0;
#X connect 3 0 1 0;
#X connect 3 0 4 0;
#X connect 4 0 9 0;
#X connect 4 1 5 0;
#X connect 5 2 15 0;
#X connect 7 0 8 0;
#X connect 8 0 9 2;
#X connect 9 0 6 0;
#X connect 10 0 19 0;
#X connect 11 0 10 1;
#X connect 11 0 23 1;
#X connect 12 0 10 2;
#X connect 12 0 23 2;
#X connect 13 0 11 0;
#X connect 13 1 12 0;
#X connect 14 0 13 0;
#X connect 15 0 16 0;
#X connect 15 1 17 0;
#X connect 16 1 18 1;
#X connect 17 1 21 0;
#X connect 18 0 22 0;
#X connect 19 0 20 1;
#X connect 19 1 7 0;
#X connect 20 0 29 0;
#X connect 21 0 18 1;
#X connect 21 1 18 0;
#X connect 22 0 28 0;
#X connect 23 0 25 0;
#X connect 25 0 26 0;
#X connect 26 0 24 0;
#X connect 27 0 13 0;
#X connect 28 0 20 0;
#X connect 29 0 30 0;
#X connect 30 0 19 0;
#X connect 30 0 23 0;
