#N canvas 0 50 629 563 10;
#X obj 99 44 inlet;
#X obj 163 177 outlet;
#X obj 111 98 route \$3 pof_build;
#X msg 171 144 pof_build \$1;
#X obj 158 194 loadbang;
#N canvas 0 50 458 308 rh_scalelog 0;
#X obj 20 155 exp;
#X obj 20 107 *;
#X obj 20 130 +;
#X obj 98 87 log;
#X obj 194 84 log;
#X obj 123 123 t b f;
#X obj 123 145 -;
#X obj 20 183 outlet;
#X obj 20 19 inlet;
#X obj 98 23 inlet;
#X obj 194 24 inlet;
#X connect 0 0 7 0;
#X connect 1 0 2 0;
#X connect 2 0 0 0;
#X connect 3 0 2 1;
#X connect 3 0 5 0;
#X connect 4 0 6 0;
#X connect 5 0 6 0;
#X connect 5 1 6 1;
#X connect 6 0 1 1;
#X connect 8 0 1 0;
#X connect 9 0 3 0;
#X connect 10 0 4 0;
#X restore 100 447 pd rh_scalelog;
#N canvas 0 50 458 308 inv_scalelog 0;
#X obj 98 87 log;
#X obj 194 84 log;
#X obj 123 123 t b f;
#X obj 123 145 -;
#X obj 20 183 outlet;
#X obj 20 19 inlet;
#X obj 98 23 inlet;
#X obj 194 24 inlet;
#X obj 34 65 log;
#X obj 20 130 -;
#X obj 20 156 /;
#X connect 0 0 2 0;
#X connect 0 0 9 1;
#X connect 1 0 3 0;
#X connect 2 0 3 0;
#X connect 2 1 3 1;
#X connect 3 0 10 1;
#X connect 5 0 8 0;
#X connect 6 0 0 0;
#X connect 7 0 1 0;
#X connect 8 0 9 0;
#X connect 9 0 10 0;
#X connect 10 0 4 0;
#X restore 74 269 pd inv_scalelog;
#X obj 153 244 f \$4;
#X obj 203 244 f \$5;
#N canvas 0 50 450 300 color/translate 0;
#X obj 37 37 inlet;
#X obj 54 249 outlet;
#X obj 79 122 random 100;
#X obj 102 96 loadbang;
#X obj 79 144 / 100;
#X obj 159 122 random 100;
#X obj 159 144 / 100;
#X obj 39 65 poftranslate \$1 \$2;
#X obj 39 87 t a a;
#X obj 20 246 outlet;
#X obj 47 189 pofcolor 1 0 0 0.1;
#X connect 0 0 7 0;
#X connect 2 0 4 0;
#X connect 3 0 2 0;
#X connect 3 0 5 0;
#X connect 4 0 10 2;
#X connect 5 0 6 0;
#X connect 6 0 10 3;
#X connect 7 0 8 0;
#X connect 8 0 9 0;
#X connect 8 1 10 0;
#X connect 10 0 1 0;
#X restore 263 199 pd color/translate;
#X obj 401 261 pof_touch2 38 55;
#X obj 400 300 route down move;
#X obj 371 352 unpack f f f;
#X obj 505 362 unpack f f f;
#X obj 403 436 -;
#X obj 506 406 t f f;
#X obj 403 458 / -55;
#X obj 403 480 / 4;
#X obj 158 221 t b b;
#X obj 164 402 pofrect 38 3;
#X obj 171 311 - 1;
#X obj 218 339 * -55;
#X obj 165 367 poftranslate 19 0;
#X obj 55 303 t f f;
#X obj 26 344 +;
#X obj 80 349 min 1;
#X obj 80 371 max 0;
#X obj 91 483 list prepend \$3;
#X obj 91 505 list trim;
#X obj 91 527 s FROM_GUI;
#X connect 0 0 2 0;
#X connect 2 0 6 0;
#X connect 2 1 3 0;
#X connect 2 2 1 0;
#X connect 3 0 1 0;
#X connect 3 0 9 0;
#X connect 4 0 18 0;
#X connect 5 0 27 0;
#X connect 6 0 23 0;
#X connect 7 0 5 1;
#X connect 7 0 6 1;
#X connect 8 0 5 2;
#X connect 8 0 6 2;
#X connect 9 0 22 0;
#X connect 9 1 10 0;
#X connect 10 2 11 0;
#X connect 11 0 12 0;
#X connect 11 1 13 0;
#X connect 12 1 14 1;
#X connect 13 1 15 0;
#X connect 14 0 16 0;
#X connect 15 0 14 1;
#X connect 15 1 14 0;
#X connect 16 0 17 0;
#X connect 17 0 24 0;
#X connect 18 0 7 0;
#X connect 18 1 8 0;
#X connect 20 0 21 0;
#X connect 21 0 22 2;
#X connect 22 0 19 0;
#X connect 23 0 24 1;
#X connect 23 1 20 0;
#X connect 24 0 25 0;
#X connect 25 0 26 0;
#X connect 26 0 23 0;
#X connect 26 0 5 0;
#X connect 27 0 28 0;
#X connect 28 0 29 0;
