#N canvas 0 50 536 492 10;
#X obj 142 108 inlet;
#X obj 203 316 outlet;
#X obj 141 158 route \$3 pof_build;
#X msg 203 186 pof_build \$1;
#X obj 392 160 loadbang;
#X obj 389 186 list append \$4 \$5;
#X obj 389 208 *;
#N canvas 0 50 450 300 color/translate 0;
#X obj 37 37 inlet;
#X obj 56 242 outlet;
#X obj 47 189 pofcolor 1 0 0 1;
#X obj 79 122 random 100;
#X obj 72 94 loadbang;
#X obj 79 144 / 100;
#X obj 159 122 random 100;
#X obj 159 144 / 100;
#X obj 49 214 poftranslate \$1 \$2;
#X connect 0 0 2 0;
#X connect 2 0 8 0;
#X connect 3 0 5 0;
#X connect 4 0 3 0;
#X connect 4 0 6 0;
#X connect 5 0 2 2;
#X connect 6 0 7 0;
#X connect 7 0 2 3;
#X connect 8 0 1 0;
#X restore 263 239 pd color/translate;
#X obj 262 266 pof_rect2 \$4;
#X connect 0 0 2 0;
#X connect 2 1 3 0;
#X connect 2 2 1 0;
#X connect 3 0 1 0;
#X connect 3 0 7 0;
#X connect 4 0 5 0;
#X connect 5 0 6 0;
#X connect 6 0 8 2;
#X connect 7 0 8 0;
