#N canvas 525 106 582 398 10;
#X obj 99 44 inlet;
#X obj 146 219 outlet;
#X obj 111 98 route \$3 pof_build;
#X msg 171 144 pof_build \$1;
#X obj 411 137 f \$4;
#X obj 463 142 f \$5;
#N canvas 0 50 450 300 color/translate 0;
#X obj 37 37 inlet;
#X obj 56 242 outlet;
#X obj 47 189 pofcolor 1 0 0 1;
#X obj 79 122 random 100;
#X obj 72 94 loadbang;
#X obj 79 144 / 100;
#X obj 159 122 random 100;
#X obj 159 144 / 100;
#X obj 49 214 poftranslate \$1 \$2;
#X connect 0 0 2 0;
#X connect 2 0 8 0;
#X connect 3 0 5 0;
#X connect 4 0 3 0;
#X connect 4 0 6 0;
#X connect 5 0 2 2;
#X connect 6 0 7 0;
#X connect 7 0 2 3;
#X connect 8 0 1 0;
#X restore 263 239 pd color/translate;
#X obj 262 266 pof_rect2 \$4 \$5;
#X connect 0 0 2 0;
#X connect 2 1 3 0;
#X connect 2 2 1 0;
#X connect 3 0 1 0;
#X connect 3 0 6 0;
#X connect 6 0 7 0;
