#N canvas 550 337 763 580 10;
#X obj 20 17 blup~;
#X obj 93 17 pish~;
#X obj 171 41 +~;
#X obj 209 19 tgl 15 0 empty empty input_on 17 7 0 10 -262144 -1 -1
0 1;
#X obj 209 42 * 0.5;
#X obj 172 64 *~;
#X text 384 9 click blup & pish for test sounds \, turn on input for
external sounds;
#X obj 157 344 vu 15 120 inmeter empty -1 -8 0 10 -66577 -1 1 0;
#X obj 153 317 s inmeter;
#X obj 154 295 - 100;
#X obj 154 274 env~ 2048;
#X obj 158 15 adc~ 3 4;
#X obj 321 459 output~;
#X obj 283 153 catch~ \$0-input;
#X obj 19 117 throw~ \$0-input;
#X obj 92 93 throw~ \$0-input;
#X obj 168 118 throw~ \$0-input;
#X obj 530 168 readsf~;
#X obj 529 98 bng 15 250 50 0 empty empty empty 17 7 0 10 -262144 -1
-1;
#X obj 530 122 t b b;
#X msg 524 145 1;
#X obj 527 195 throw~ \$0-input;
#X obj 531 289 readsf~;
#X obj 530 219 bng 15 250 50 0 empty empty empty 17 7 0 10 -262144
-1 -1;
#X obj 531 243 t b b;
#X msg 525 266 1;
#X obj 528 316 throw~ \$0-input;
#X msg 562 265 open ../ericderr.wav;
#X msg 561 144 open ../funk-kit.wav;
#X obj 535 411 readsf~;
#X obj 534 341 bng 15 250 50 0 empty empty empty 17 7 0 10 -262144
-1 -1;
#X obj 535 365 t b b;
#X msg 529 388 1;
#X obj 532 438 throw~ \$0-input;
#X msg 566 387 open ../piano.wav;
#X obj 281 185 dattorrostereo;
#X text 382 55;
#X connect 0 0 14 0;
#X connect 1 0 15 0;
#X connect 2 0 5 0;
#X connect 3 0 4 0;
#X connect 4 0 5 1;
#X connect 5 0 16 0;
#X connect 9 0 8 0;
#X connect 10 0 9 0;
#X connect 11 0 2 0;
#X connect 11 1 2 1;
#X connect 13 0 35 0;
#X connect 17 0 21 0;
#X connect 18 0 19 0;
#X connect 19 0 20 0;
#X connect 19 1 28 0;
#X connect 20 0 17 0;
#X connect 22 0 26 0;
#X connect 23 0 24 0;
#X connect 24 0 25 0;
#X connect 24 1 27 0;
#X connect 25 0 22 0;
#X connect 27 0 22 0;
#X connect 28 0 17 0;
#X connect 29 0 33 0;
#X connect 30 0 31 0;
#X connect 31 0 32 0;
#X connect 31 1 34 0;
#X connect 32 0 29 0;
#X connect 34 0 29 0;
#X connect 35 0 12 0;
#X connect 35 0 10 0;
#X connect 35 1 12 1;
