#N canvas 840 160 584 461 10;
#X obj 121 277 *~;
#X obj 209 102 mtof;
#X obj 86 105 vline~;
#X obj 105 140 *~;
#X obj 6 6 cnv 15 58 28 empty empty blup 20 12 0 14 -150163 -66577
0;
#X obj 9 11 bng 15 250 50 0 empty empty empty 17 7 0 10 -262144 -1
-1;
#X obj 196 183 osc~;
#X obj 228 183 osc~;
#X obj 229 156 * 3;
#X obj 265 181 osc~;
#X obj 303 183 osc~;
#X obj 345 184 osc~;
#X obj 377 185 osc~;
#X obj 266 154 * 5.01;
#X obj 304 156 * 7.02;
#X obj 346 157 * 9.03;
#X obj 378 158 * 11.04;
#X obj 229 210 *~ 0.3;
#X obj 263 232 *~ 0.2;
#X obj 298 209 *~ 0.15;
#X obj 338 235 *~ 0.1;
#X obj 375 210 *~ 0.1;
#X obj 185 254 +~;
#X obj 224 253 +~;
#X obj 265 257 +~;
#X obj 298 261 +~;
#X obj 334 262 +~;
#X obj 372 263 +~;
#X obj 113 356 outlet~;
#X obj 210 80 + 48;
#X obj 207 50 random 48;
#X obj 118 305 *~ 0.5;
#X obj 164 26 t b b b b;
#X msg 163 60 0 0;
#X msg 100 72 1 1;
#X obj 67 49 delay 2;
#X msg 45 73 0 1000;
#X connect 0 0 31 0;
#X connect 1 0 8 0;
#X connect 1 0 6 0;
#X connect 1 0 13 0;
#X connect 1 0 14 0;
#X connect 1 0 15 0;
#X connect 1 0 16 0;
#X connect 2 0 3 0;
#X connect 2 0 3 1;
#X connect 3 0 0 0;
#X connect 5 0 32 0;
#X connect 6 0 22 0;
#X connect 7 0 17 0;
#X connect 8 0 7 0;
#X connect 9 0 18 0;
#X connect 10 0 19 0;
#X connect 11 0 20 0;
#X connect 12 0 21 0;
#X connect 13 0 9 0;
#X connect 14 0 10 0;
#X connect 15 0 11 0;
#X connect 16 0 12 0;
#X connect 17 0 23 0;
#X connect 18 0 24 0;
#X connect 19 0 25 0;
#X connect 20 0 26 0;
#X connect 21 0 27 0;
#X connect 22 0 0 1;
#X connect 23 0 22 1;
#X connect 24 0 23 1;
#X connect 25 0 24 1;
#X connect 26 0 25 1;
#X connect 27 0 26 1;
#X connect 29 0 1 0;
#X connect 30 0 29 0;
#X connect 31 0 28 0;
#X connect 32 0 35 0;
#X connect 32 1 34 0;
#X connect 32 2 33 0;
#X connect 32 3 30 0;
#X connect 33 0 2 0;
#X connect 34 0 2 0;
#X connect 35 0 36 0;
#X connect 36 0 2 0;
#X coords 0 -1 1 1 60 30 1 5 5;
