#N canvas 630 212 337 282 10;
#X obj 165 103 noise~;
#X obj 194 172 bp~, f 6;
#X obj 173 210 *~;
#X obj 208 122 t f b;
#X obj 209 102 mtof;
#X obj 164 26 t b b b;
#X obj 86 105 vline~;
#X obj 105 140 *~;
#X obj 6 6 cnv 15 58 28 empty empty pish 20 12 0 14 -232576 -66577
0;
#X obj 9 12 bng 15 250 50 0 empty empty empty 17 7 0 10 -262144 -1
-1;
#X obj 210 80 + 84;
#X msg 226 146 5;
#X obj 207 50 random 36;
#X msg 86 73 0 100;
#X obj 165 240 outlet~;
#X msg 125 72 2 0;
#X connect 0 0 1 0;
#X connect 1 0 2 1;
#X connect 2 0 14 0;
#X connect 3 0 1 1;
#X connect 3 1 11 0;
#X connect 4 0 3 0;
#X connect 5 0 13 0;
#X connect 5 1 15 0;
#X connect 5 2 12 0;
#X connect 6 0 7 0;
#X connect 6 0 7 1;
#X connect 7 0 2 0;
#X connect 9 0 5 0;
#X connect 10 0 4 0;
#X connect 11 0 1 2;
#X connect 12 0 10 0;
#X connect 13 0 6 0;
#X connect 15 0 6 0;
#X coords 0 -1 1 1 60 30 1 5 5;
