#N canvas 72 23 1313 738 10;
#X obj 72 135 allpass100ms;
#X obj 129 77 loadbang;
#X msg 108 101 24.771;
#X obj 69 164 delwrite~ a 140;
#X obj 198 132 allpass100ms;
#X obj 255 73 loadbang;
#X obj 323 130 allpass100ms;
#X obj 380 71 loadbang;
#X obj 429 132 allpass100ms;
#X obj 486 73 loadbang;
#X obj 195 161 delwrite~ b 140;
#X obj 320 159 delwrite~ c 140;
#X obj 426 161 delwrite~ d 140;
#X obj 425 186 delread~ d 140;
#X obj 66 84 *~;
#X obj 46 112 +~;
#X floatatom 85 42 5 0 0 0 - - -, f 5;
#X obj 200 252 output~;
#X obj 69 190 delread~ a 77;
#X obj 195 186 delread~ b 93;
#X obj 319 184 delread~ c 113;
#X msg 234 97 16;
#X msg 359 95 19;
#X msg 465 97 35;
#X obj 50 10 noise~;
#X obj 144 25 vline~;
#X msg 141 7 1 \, 0 100;
#X obj 39 47 *~;
#X obj 303 100 lop~ 2000;
#X msg 146 101 0.6;
#X msg 272 97 0.6;
#X msg 397 95 0.6;
#X msg 503 97 0.6;
#X connect 0 0 3 0;
#X connect 1 0 29 0;
#X connect 1 0 2 0;
#X connect 2 0 0 1;
#X connect 4 0 10 0;
#X connect 5 0 30 0;
#X connect 5 0 21 0;
#X connect 6 0 11 0;
#X connect 7 0 31 0;
#X connect 7 0 22 0;
#X connect 8 0 12 0;
#X connect 9 0 32 0;
#X connect 9 0 23 0;
#X connect 13 0 14 0;
#X connect 13 0 17 1;
#X connect 13 0 17 0;
#X connect 14 0 15 1;
#X connect 15 0 0 0;
#X connect 16 0 14 1;
#X connect 18 0 4 0;
#X connect 18 0 17 0;
#X connect 18 0 17 1;
#X connect 19 0 17 0;
#X connect 19 0 28 0;
#X connect 19 0 17 1;
#X connect 20 0 8 0;
#X connect 20 0 17 1;
#X connect 20 0 17 0;
#X connect 21 0 4 1;
#X connect 22 0 6 1;
#X connect 23 0 8 1;
#X connect 24 0 27 0;
#X connect 25 0 27 1;
#X connect 26 0 25 0;
#X connect 27 0 15 0;
#X connect 28 0 6 0;
#X connect 29 0 0 2;
#X connect 30 0 4 2;
#X connect 31 0 6 2;
#X connect 32 0 8 2;
