#N canvas 270 64 814 439 12;
#X obj 86 43 wintablet;
#X floatatom 86 97 5 0 0 0 - - -, f 5;
#X floatatom 132 97 5 0 0 0 - - -, f 5;
#X floatatom 178 97 5 0 0 0 - - -, f 5;
#X floatatom 223 97 5 0 0 0 - - -, f 5;
#X floatatom 268 97 5 0 0 0 - - -, f 5;
#X obj 86 17 bng 15 250 50 0 empty empty empty 0 -6 0 8 -262144 -1
-1;
#X text 108 16 <- open tablet window;
#X obj 86 259 spigot;
#X obj 81 231 pack f f f;
#X obj 97 285 list prepend;
#X obj 81 337 route 1 2;
#X obj 67 391 unpack f f f;
#X obj 384 128 select 0;
#X msg 378 312 127;
#X obj 43 457 ctlout 27;
#X obj 133 457 ctlout 26;
#X obj 125 427 expr 127-$f1;
#X obj 227 397 ctlout 24;
#X obj 247 34 delay 190;
#X obj 228 13 bng 15 250 50 0 empty empty empty 17 7 0 10 -262144 -1
-1;
#X obj 392 266 delay 300;
#X obj 426 168 t b;
#X msg 426 193 stop;
#N canvas 0 50 537 516 euclidian_seq 0;
#N canvas 0 50 450 300 rand 0;
#X obj 94 158 outlet;
#X obj 94 22 inlet;
#X obj 94 73 random 64;
#X obj 94 100 + 64;
#X connect 1 0 2 0;
#X connect 2 0 3 0;
#X connect 3 0 0 0;
#X restore 59 293 pd rand;
#X obj 287 268 euclid 13 0 32;
#X obj 92 243 * 13;
#X obj 202 247 * 7;
#X obj 317 239 * 22;
#X obj 213 203 r y;
#X obj 175 272 euclid 5 0 32;
#X obj 61 268 euclid 9 2 16;
#N canvas 0 50 450 300 rand 0;
#X obj 94 158 outlet;
#X obj 94 22 inlet;
#X obj 94 73 random 64;
#X obj 94 100 + 64;
#X connect 1 0 2 0;
#X connect 2 0 3 0;
#X connect 3 0 0 0;
#X restore 175 300 pd rand;
#N canvas 0 50 450 300 rand 0;
#X obj 94 158 outlet;
#X obj 94 22 inlet;
#X obj 94 73 random 64;
#X obj 94 100 + 64;
#X connect 1 0 2 0;
#X connect 2 0 3 0;
#X connect 3 0 0 0;
#X restore 289 293 pd rand;
#X obj 174 460 outlet;
#X obj 61 175 inlet;
#X msg 56 318 0 \$1;
#X msg 175 325 1 \$1;
#X msg 279 326 2 \$1;
#X obj 296 390 unpack f f;
#X obj 292 435 +;
#X obj 297 465 pack f f;
#X obj 437 185 inlet offset;
#X connect 0 0 12 0;
#X connect 1 0 9 0;
#X connect 2 0 7 1;
#X connect 3 0 6 1;
#X connect 4 0 1 1;
#X connect 5 0 2 0;
#X connect 5 0 3 0;
#X connect 5 0 4 0;
#X connect 6 0 8 0;
#X connect 7 0 0 0;
#X connect 8 0 13 0;
#X connect 9 0 14 0;
#X connect 11 0 1 0;
#X connect 11 0 6 0;
#X connect 11 0 7 0;
#X connect 12 0 15 0;
#X connect 13 0 15 0;
#X connect 14 0 15 0;
#X connect 15 0 16 0;
#X connect 15 1 17 1;
#X connect 16 0 17 0;
#X connect 17 0 10 0;
#X connect 18 0 16 1;
#X restore 509 277 pd euclidian_seq;
#X obj 497 411 makenote 64 100 400;
#X obj 509 473 noteout;
#X obj 559 131 tgl 15 0 empty empty empty 17 7 0 10 -262144 -1 -1 1
1;
#X obj 561 175 c_multimetro 64 120;
#X obj 558 82 loadbang;
#X obj 726 111 /;
#X floatatom 726 146 5 0 0 0 - - -, f 5;
#X floatatom 710 42 5 0 0 0 - - -, f 5;
#X msg 720 81 15000 \$1;
#X msg 279 136 0;
#X msg 279 158 1;
#X msg 279 190 3;
#X obj 264 235 t f f;
#X obj 292 485 ctlout 23;
#X obj 281 296 == 3;
#X obj 272 327 change;
#X obj 278 358 * 127;
#X obj 13 45 vsl 15 128 0 1023 0 0 empty empty empty 0 -9 0 10 -262144
-1 -1 0 1;
#X obj 32 47 vsl 15 128 0 1023 0 0 empty empty empty 0 -9 0 10 -262144
-1 -1 0 1;
#X obj 53 45 vsl 15 128 0 1023 0 0 empty empty empty 0 -9 0 10 -262144
-1 -1 0 1;
#X obj 33 225 / 127;
#X obj 29 264 s x;
#X obj 13 295 / 127;
#X obj 9 334 s y;
#X msg 38 369 1;
#X msg 206 438 1;
#X msg 397 349 0;
#X msg 339 449 1;
#X msg 145 509 1;
#X obj 9 201 t b f;
#X obj 101 153 t b f;
#X floatatom 592 222 5 0 0 0 - - -, f 5;
#X msg 496 149 set 0;
#X obj 503 111 r resync;
#X obj 687 20 r bpm;
#X floatatom 686 415 5 0 0 0 - - -, f 5;
#X obj 671 276 vsl 15 128 0 125 0 1 empty empty offset 0 -9 0 10 -262144
-1 -1 4167 1;
#X msg 607 357 36;
#X msg 610 326 49;
#X floatatom 311 220 5 0 0 0 - - -, f 5;
#X obj 110 191 div 8;
#X obj 70 191 div 8;
#X obj 453 292 / 127;
#X obj 452 365 * -13;
#X obj 444 393 + 49;
#X obj 182 148 / 1023;
#X obj 197 218 * 127;
#X obj 204 243 int;
#X floatatom 213 277 5 0 0 0 - - -, f 5;
#X obj 195 180 expr $f1*$f1;
#X text 398 -1 Dans Périphériques Interface Utilisateurs;
#X text 382 23 Désactiver Wacom HID Digitizer;
#X obj 242 362 tgl 15 0 empty empty empty 17 7 0 10 -262144 -1 -1 0
1;
#X floatatom 25 483 5 0 0 0 - - -, f 5;
#X floatatom 146 479 5 0 0 0 - - -, f 5;
#X text 648 78 90bpm;
#X msg 647 114 144;
#X connect 0 0 1 0;
#X connect 0 0 66 0;
#X connect 0 1 2 0;
#X connect 0 1 65 0;
#X connect 0 2 3 0;
#X connect 0 2 70 0;
#X connect 0 3 4 0;
#X connect 0 3 10 1;
#X connect 0 4 5 0;
#X connect 0 4 13 0;
#X connect 0 4 37 0;
#X connect 6 0 0 0;
#X connect 8 0 10 0;
#X connect 9 0 8 0;
#X connect 10 0 11 0;
#X connect 11 0 12 0;
#X connect 12 0 15 0;
#X connect 12 0 78 0;
#X connect 12 1 17 0;
#X connect 12 1 79 0;
#X connect 12 2 18 0;
#X connect 13 0 21 0;
#X connect 13 1 22 0;
#X connect 14 0 15 0;
#X connect 17 0 16 0;
#X connect 19 0 0 0;
#X connect 20 0 19 0;
#X connect 21 0 14 0;
#X connect 21 0 51 0;
#X connect 22 0 23 0;
#X connect 23 0 21 0;
#X connect 24 0 25 0;
#X connect 25 0 26 0;
#X connect 25 1 26 1;
#X connect 27 0 28 0;
#X connect 28 0 24 0;
#X connect 28 0 56 0;
#X connect 29 0 27 0;
#X connect 29 0 81 0;
#X connect 30 0 31 0;
#X connect 30 0 28 2;
#X connect 32 0 33 0;
#X connect 33 0 30 0;
#X connect 34 0 37 0;
#X connect 35 0 37 0;
#X connect 35 0 10 1;
#X connect 36 0 37 0;
#X connect 37 0 8 1;
#X connect 37 1 39 0;
#X connect 39 0 40 0;
#X connect 40 0 41 0;
#X connect 40 0 77 0;
#X connect 41 0 38 0;
#X connect 42 0 66 0;
#X connect 43 0 54 0;
#X connect 43 0 65 0;
#X connect 44 0 55 0;
#X connect 45 0 46 0;
#X connect 47 0 48 0;
#X connect 49 0 15 0;
#X connect 50 0 18 0;
#X connect 51 0 48 0;
#X connect 52 0 38 0;
#X connect 53 0 16 0;
#X connect 54 0 66 0;
#X connect 54 1 65 0;
#X connect 55 0 66 0;
#X connect 55 1 70 0;
#X connect 57 0 28 0;
#X connect 58 0 57 0;
#X connect 59 0 33 0;
#X connect 61 0 24 1;
#X connect 61 0 60 0;
#X connect 65 0 9 1;
#X connect 65 0 47 0;
#X connect 65 0 64 0;
#X connect 65 0 67 0;
#X connect 66 0 9 0;
#X connect 66 0 45 0;
#X connect 67 0 68 0;
#X connect 68 0 69 0;
#X connect 69 0 61 0;
#X connect 70 0 74 0;
#X connect 71 0 72 0;
#X connect 72 0 9 2;
#X connect 72 0 73 0;
#X connect 74 0 71 0;
#X connect 81 0 28 2;
