#N canvas 58 13 1214 717 10;
#X obj 59 131 tgl 15 0 empty empty empty 17 7 0 10 -262144 -1 -1 1
1;
#X obj 512 95 r \$0-drums;
#X obj 511 301 *~ 0.5;
#N canvas 0 50 450 300 rand 0;
#X obj 94 100 + 100;
#X obj 94 158 outlet;
#X obj 94 22 inlet;
#X obj 94 73 random 200;
#X connect 0 0 1 0;
#X connect 2 0 3 0;
#X connect 3 0 0 0;
#X restore 59 293 pd rand;
#X obj 174 460 s \$0-drums;
#X msg 174 300 bd;
#X obj 287 268 euclid 13 0 32;
#X obj 61 175 c_multimetro 64 120;
#X obj 236 111 /;
#X floatatom 236 146 5 0 0 0 - - -, f 5;
#X floatatom 229 43 5 0 0 0 - - -, f 5;
#X msg 230 81 15000 \$1;
#X text 69 624 y = complexité;
#X text 59 650 x = freq;
#X text 62 592 pression = q;
#X obj 345 611 e_lop4;
#X obj 317 523 mtof;
#X floatatom 317 502 5 0 0 2 pitch - -, f 5;
#X floatatom 366 503 5 0 0 2 Q - -, f 5;
#X obj 961 345 / 1023;
#X obj 888 341 / 1023;
#X obj 1020 203 bng 15 250 50 0 empty empty empty 17 7 0 10 -262144
-1 -1;
#X obj 1043 335 / 1023;
#X obj 1030 374 s pressure;
#X obj 367 340 r pressure;
#X obj 956 439 s y;
#X obj 896 372 s x;
#X obj 312 381 r x;
#X obj 1038 252 wintablet;
#X obj 1065 315 tgl 15 0 empty empty empty 17 7 0 10 -262144 -1 -1
0 1;
#X obj 574 323 lop~ 10;
#X obj 532 354 *~;
#X obj 92 243 * 13;
#X obj 202 247 * 7;
#X obj 317 239 * 22;
#X obj 213 203 r y;
#X obj 175 272 euclid 5 0 32;
#X obj 61 268 euclid 9 2 16;
#X msg 146 116 130 110;
#X obj 730 271 hsl 128 15 0 1 0 0 empty empty empty -2 -8 0 10 -262144
-1 -1 11200 0;
#X obj 58 82 loadbang;
#X obj 1018 164 loadbang;
#X floatatom 1087 208 5 0 0 0 - - -, f 5;
#X floatatom 1144 246 5 0 0 0 - - -, f 5;
#X obj 1071 288 & 1;
#X obj 707 67 table \$0-table 44100;
#X obj 565 171 * 2;
#X msg 569 201 hhtune \$1;
#X obj 317 455 + 57;
#X obj 310 416 * 70;
#X obj 386 468 * 2;
#X obj 1135 380 == 3;
#X obj 347 637 dac~;
#X obj 919 148 vsl 15 128 0 1 0 0 empty empty empty 0 -9 0 10 -262144
-1 -1 1400 1;
#X msg 1144 198 \$1;
#X msg 1141 141 3;
#X msg 1077 139 1;
#X obj 999 148 vsl 15 128 0 1 0 0 empty empty empty 0 -9 0 10 -262144
-1 -1 10500 1;
#X msg 1128 107 0;
#X obj 378 372 t f f f;
#X obj 375 406 *;
#X obj 385 436 *;
#X msg 56 318 sn \$1;
#N canvas 0 50 450 300 rand 0;
#X obj 94 158 outlet;
#X obj 94 22 inlet;
#X obj 94 73 random 100;
#X obj 94 100 + 50;
#X connect 1 0 2 0;
#X connect 2 0 3 0;
#X connect 3 0 0 0;
#X restore 278 301 pd rand;
#X msg 279 326 hh \$1;
#X obj 567 140 r y;
#X obj 512 266 ../rj/s_drumelectro;
#N canvas 0 50 801 543 freeze 0;
#X obj 92 461 outlet~;
#X obj 103 20 inlet~;
#X obj 82 425 *~;
#X obj 125 371 == 0;
#X obj 364 380 *~;
#X obj 114 395 lop~ 100;
#X obj 512 363 lop~ 100;
#X obj 471 115 change;
#X obj 151 160 tabwrite~ \$0-table;
#X obj 361 333 tabplay~ \$0-table;
#X msg 356 305 stop;
#X obj 445 243 select 1 0;
#X obj 416 311 metro 100;
#X msg 430 284 1;
#X msg 487 282 0;
#X obj 238 48 threshold~ 0.4 100 0.2 100;
#X obj 193 118 spigot;
#X obj 258 107 == 0;
#X obj 625 183 mtof;
#X obj 623 164 * 35;
#X obj 628 205 * 2.5;
#X obj 631 43 r y;
#X obj 627 103 - 1;
#X obj 627 140 * -1;
#X obj 472 76 r button1;
#X obj 128 347 r button1;
#X obj 512 336 r button1;
#X connect 1 0 15 0;
#X connect 1 0 2 0;
#X connect 1 0 8 0;
#X connect 2 0 0 0;
#X connect 3 0 5 0;
#X connect 4 0 0 0;
#X connect 5 0 2 1;
#X connect 6 0 4 1;
#X connect 7 0 11 0;
#X connect 7 0 17 0;
#X connect 9 0 4 0;
#X connect 10 0 9 0;
#X connect 11 0 13 0;
#X connect 11 1 10 0;
#X connect 11 1 14 0;
#X connect 12 0 9 0;
#X connect 13 0 12 0;
#X connect 14 0 12 0;
#X connect 15 0 16 0;
#X connect 16 0 8 0;
#X connect 17 0 16 1;
#X connect 18 0 20 0;
#X connect 19 0 18 0;
#X connect 20 0 12 1;
#X connect 21 0 22 0;
#X connect 22 0 23 0;
#X connect 23 0 19 0;
#X connect 24 0 7 0;
#X connect 25 0 3 0;
#X connect 26 0 6 0;
#X restore 529 415 pd freeze;
#X obj 957 373 - 1;
#X obj 957 410 * -1;
#X obj 1134 403 s button1;
#N canvas 451 40 774 479 drums 1;
#X obj 112 54 route sn bd hh;
#X obj 78 27 inlet;
#X obj 101 138 tabplay~ sn;
#X obj 201 141 tabplay~ bd;
#X obj 311 141 tabplay~ hh;
#X obj 106 105 t b;
#X obj 176 105 t b;
#X obj 306 105 t b;
#N canvas 0 50 450 250 (subpatch) 0;
#X array sn 100 float 1;
#A 0 0 0 0 0 0 0 0 0 0 0 0 0 0 0 0 0 0 0 0 0 0 0 0 0 0 0 0 0 0 0 0
0 0 0 0 0 0 0 0 0 0 0 0 0 0 0 0 0 0 0 0 0 0 0 0 0 0 0 0 0 0 0 0 0 0
0 0 0 0 0 0 0 0 0 0 0 0 0 0 0 0 0 0 0 0 0 0 0 0 0 0 0 0 0 0 0 0 0 0
0;
#X coords 0 1 100 -1 200 140 1;
#X restore 408 24 graph;
#N canvas 0 50 450 250 (subpatch) 0;
#X array bd 100 float 1;
#A 0 0 0 0 0 0 0 0 0 0 0 0 0 0 0 0 0 0 0 0 0 0 0 0 0 0 0 0 0 0 0 0
0 0 0 0 0 0 0 0 0 0 0 0 0 0 0 0 0 0 0 0 0 0 0 0 0 0 0 0 0 0 0 0 0 0
0 0 0 0 0 0 0 0 0 0 0 0 0 0 0 0 0 0 0 0 0 0 0 0 0 0 0 0 0 0 0 0 0 0
0;
#X coords 0 1 100 -1 200 140 1 0 0;
#X restore 408 194 graph;
#N canvas 0 50 450 250 (subpatch) 0;
#X array hh 100 float 1;
#A 0 0 0 0 0 0 0 0 0 0 0 0 0 0 0 0 0 0 0 0 0 0 0 0 0 0 0 0 0 0 0 0
0 0 0 0 0 0 0 0 0 0 0 0 0 0 0 0 0 0 0 0 0 0 0 0 0 0 0 0 0 0 0 0 0 0
0 0 0 0 0 0 0 0 0 0 0 0 0 0 0 0 0 0 0 0 0 0 0 0 0 0 0 0 0 0 0 0 0 0
0;
#X coords 0 1 100 -1 200 140 1 0 0;
#X restore 408 354 graph;
#X obj 107 206 outlet~;
#X connect 0 0 5 0;
#X connect 0 1 6 0;
#X connect 0 2 7 0;
#X connect 1 0 0 0;
#X connect 2 0 11 0;
#X connect 3 0 11 0;
#X connect 4 0 11 0;
#X connect 5 0 2 0;
#X connect 6 0 3 0;
#X connect 7 0 4 0;
#X restore 673 464 pd drums;
#X connect 0 0 7 0;
#X connect 1 0 66 0;
#X connect 2 0 31 0;
#X connect 3 0 62 0;
#X connect 5 0 4 0;
#X connect 6 0 63 0;
#X connect 7 0 6 0;
#X connect 7 0 36 0;
#X connect 7 0 37 0;
#X connect 8 0 9 0;
#X connect 8 0 7 2;
#X connect 10 0 11 0;
#X connect 11 0 8 0;
#X connect 15 0 52 0;
#X connect 15 0 52 1;
#X connect 16 0 15 1;
#X connect 17 0 16 0;
#X connect 19 0 68 0;
#X connect 20 0 26 0;
#X connect 21 0 28 0;
#X connect 22 0 23 0;
#X connect 24 0 59 0;
#X connect 27 0 49 0;
#X connect 28 0 20 0;
#X connect 28 1 19 0;
#X connect 28 2 22 0;
#X connect 28 3 42 0;
#X connect 28 4 43 0;
#X connect 28 4 44 0;
#X connect 28 4 51 0;
#X connect 29 0 30 0;
#X connect 30 0 31 1;
#X connect 31 0 67 0;
#X connect 32 0 37 1;
#X connect 33 0 36 1;
#X connect 34 0 6 1;
#X connect 35 0 32 0;
#X connect 35 0 33 0;
#X connect 35 0 34 0;
#X connect 36 0 5 0;
#X connect 37 0 3 0;
#X connect 38 0 7 2;
#X connect 39 0 26 0;
#X connect 40 0 0 0;
#X connect 40 0 38 0;
#X connect 41 0 21 0;
#X connect 44 0 29 0;
#X connect 46 0 47 0;
#X connect 47 0 66 0;
#X connect 48 0 17 0;
#X connect 49 0 48 0;
#X connect 50 0 15 2;
#X connect 50 0 18 0;
#X connect 51 0 70 0;
#X connect 53 0 68 0;
#X connect 54 0 44 0;
#X connect 54 0 51 0;
#X connect 55 0 54 0;
#X connect 56 0 54 0;
#X connect 57 0 23 0;
#X connect 58 0 54 0;
#X connect 59 0 60 0;
#X connect 59 1 60 1;
#X connect 59 2 61 1;
#X connect 60 0 61 0;
#X connect 61 0 50 0;
#X connect 62 0 4 0;
#X connect 63 0 64 0;
#X connect 64 0 4 0;
#X connect 65 0 46 0;
#X connect 66 0 2 0;
#X connect 67 0 15 0;
#X connect 68 0 69 0;
#X connect 69 0 25 0;
