#N canvas 0 50 760 569 12;
#X obj 86 43 wintablet;
#X floatatom 86 97 5 0 0 0 - - -, f 5;
#X floatatom 132 97 5 0 0 0 - - -, f 5;
#X floatatom 178 97 5 0 0 0 - - -, f 5;
#X floatatom 223 97 5 0 0 0 - - -, f 5;
#X floatatom 268 97 5 0 0 0 - - -, f 5;
#X obj 86 17 bng 15 250 50 0 empty empty empty 0 -6 0 8 -262144 -1
-1;
#X text 108 16 <- open tablet window;
#X obj 86 199 spigot;
#X obj 81 171 pack f f f;
#X obj 70 131 / 8;
#X obj 110 131 / 8;
#X obj 180 131 / 8;
#X obj 97 225 list prepend;
#X obj 81 277 route 1 2;
#X obj 67 331 unpack f f f;
#X obj 384 128 select 0;
#X msg 378 312 127;
#X obj 43 397 ctlout 27;
#X obj 133 397 ctlout 26;
#X obj 195 371 expr 127-$f1;
#X obj 315 409 ctlout 24;
#X obj 367 34 delay 190;
#X obj 348 13 bng 15 250 50 0 empty empty empty 17 7 0 10 -262144 -1
-1;
#X obj 392 266 delay 300;
#X obj 426 168 t b;
#X msg 426 193 stop;
#X connect 0 0 1 0;
#X connect 0 0 10 0;
#X connect 0 1 2 0;
#X connect 0 1 11 0;
#X connect 0 2 3 0;
#X connect 0 2 12 0;
#X connect 0 3 4 0;
#X connect 0 3 13 1;
#X connect 0 4 5 0;
#X connect 0 4 8 1;
#X connect 0 4 16 0;
#X connect 6 0 0 0;
#X connect 8 0 13 0;
#X connect 9 0 8 0;
#X connect 10 0 9 0;
#X connect 11 0 9 1;
#X connect 12 0 9 2;
#X connect 13 0 14 0;
#X connect 14 0 15 0;
#X connect 15 0 18 0;
#X connect 15 1 20 0;
#X connect 15 2 21 0;
#X connect 16 0 24 0;
#X connect 16 1 25 0;
#X connect 17 0 18 0;
#X connect 20 0 19 0;
#X connect 22 0 0 0;
#X connect 23 0 22 0;
#X connect 24 0 17 0;
#X connect 25 0 26 0;
#X connect 26 0 24 0;
