#N canvas 186 50 1075 625 10;
#X declare -path core;
#X declare -path rj;
#X obj 179 278 c_frombus no-in;
#X obj 319 260 c_frombus no-in;
#X obj 846 310 u_dispatch \$0 in;
#N canvas 361 163 895 592 meter 0;
#X obj 22 27 inlet~;
#X obj 192 113 f;
#X msg 191 76 0;
#X obj 51 99 moses 0;
#X obj 194 51 del 1500;
#X msg 194 29 bang;
#X obj 89 28 inlet~;
#X obj 161 134 int;
#X obj 161 155 - 100;
#X obj 148 342 s \$0-vu;
#X msg 300 304 color \$1 -1;
#X msg 272 258 16;
#X msg 338 256 13;
#X obj 260 232 select 0 1;
#X msg 160 264 vis_size \$1 2;
#X obj 159 202 + 100;
#X obj 159 223 min 100;
#X obj 159 243 max 0;
#X msg 201 290 label \$1db;
#X obj 159 180 t f f f;
#X text 372 253 red for cliping;
#X obj 258 212 > -1;
#X msg 327 129 -100;
#X obj 38 72 env~ 8192 4096;
#X connect 0 0 23 0;
#X connect 1 0 3 1;
#X connect 2 0 3 1;
#X connect 3 1 1 0;
#X connect 3 1 5 0;
#X connect 3 1 7 0;
#X connect 4 0 2 0;
#X connect 5 0 4 0;
#X connect 6 0 23 0;
#X connect 7 0 8 0;
#X connect 8 0 19 0;
#X connect 10 0 9 0;
#X connect 11 0 10 0;
#X connect 12 0 10 0;
#X connect 13 0 11 0;
#X connect 13 1 12 0;
#X connect 14 0 9 0;
#X connect 15 0 16 0;
#X connect 16 0 17 0;
#X connect 17 0 14 0;
#X connect 18 0 9 0;
#X connect 19 0 15 0;
#X connect 19 1 18 0;
#X connect 19 2 21 0;
#X connect 21 0 13 0;
#X connect 22 0 19 0;
#X connect 23 0 3 0;
#X restore 196 395 pd meter;
#X obj 178 308 +~;
#X obj 321 303 +~;
#X obj 180 348 *~;
#X obj 315 349 *~;
#X obj 407 349 line~;
#X obj 473 389 dbtorms;
#X obj 530 298 r \$0-gain;
#X obj 846 336 u_dispatch \$0 gain;
#X obj 534 321 + 100;
#X msg 467 419 \$1 20;
#X obj 535 358 f;
#X obj 452 326 select 1 0;
#X msg 468 355 0;
#X obj 846 364 u_parameter \$0 mute;
#X obj 464 296 t f f;
#X obj 607 375 == 0;
#X obj 569 406 spigot 1;
#X obj 645 552 s \$0-mute;
#X obj 462 262 r \$0-mute;
#X obj 669 490 r \$0-mute;
#X obj 586 483 select 1;
#X obj 644 511 f;
#X obj 681 528 == 0;
#X obj 624 464 > 0;
#N canvas 0 50 482 428 selection_bus_sortie 0;
#X msg 52 245 label \$1;
#X obj 56 211 list split 1;
#X obj 192 255 unpack s s;
#X obj 115 96 select -1;
#X obj 192 284 outlet;
#X obj 259 287 outlet;
#N canvas 0 50 525 389 roll_bus_in 0;
#X obj 204 307 outlet;
#X obj 241 61 - 0.5;
#X msg 323 60 set 0.5;
#X obj 206 249 int;
#X obj 204 151 moses;
#X obj 207 228 t f f;
#X obj 152 127 moses 0;
#X obj 134 184 +;
#X msg 149 161 -0.1;
#X msg 236 190 0;
#X obj 171 98 + 0;
#X obj 200 279 change;
#X obj 241 31 t f b b;
#X obj 238 1 r \$0-bus_in;
#X obj 321 83 s \$0-bus_in-rcv;
#X obj 299 106 text size bus_in;
#X connect 1 0 10 0;
#X connect 2 0 14 0;
#X connect 3 0 11 0;
#X connect 4 0 5 0;
#X connect 4 1 9 0;
#X connect 5 0 3 0;
#X connect 5 1 10 1;
#X connect 6 0 8 0;
#X connect 6 1 4 0;
#X connect 7 0 5 0;
#X connect 8 0 7 0;
#X connect 9 0 5 0;
#X connect 10 0 6 0;
#X connect 11 0 0 0;
#X connect 12 0 1 0;
#X connect 12 1 2 0;
#X connect 12 2 15 0;
#X connect 13 0 12 0;
#X connect 15 0 4 1;
#X connect 15 0 7 1;
#X restore 72 11 pd roll_bus_in;
#X obj 119 30 r \$0-in;
#X obj 118 73 text search bus_in;
#X msg 172 147 list no-in no-in no-in;
#X obj 74 180 text get bus_in;
#X obj -25 262 s \$0-in;
#X obj 50 270 s \$0-bus_in-rcv;
#X obj 77 135 change -1;
#X obj 77 156 pipe 10;
#X obj 120 53 symbol;
#X connect 0 0 12 0;
#X connect 1 0 0 0;
#X connect 1 0 11 0;
#X connect 1 1 2 0;
#X connect 2 0 4 0;
#X connect 2 1 5 0;
#X connect 3 0 9 0;
#X connect 3 1 13 0;
#X connect 6 0 13 0;
#X connect 7 0 15 0;
#X connect 8 0 3 0;
#X connect 9 0 1 0;
#X connect 10 0 1 0;
#X connect 13 0 14 0;
#X connect 14 0 10 0;
#X connect 15 0 8 0;
#X restore 98 18 pd selection_bus_sortie;
#X obj 101 101 cnv 15 188 68 empty \$0-background audio_in 0 7 0 14
-262144 -1 0;
#X obj 189 134 cnv 2 1 2 empty \$0-vu -100db 20 5 0 10 -24198 -1 0
;
#X text 171 99 src;
#X obj 139 130 tgl 40 0 \$0-mute \$0-mute-rcv MUTE 17 7 0 10 -262144
-1 -1 0 1;
#X obj 379 40 vsl 70 17 1 0 0 0 \$0-bus_in \$0-bus_in-rcv IN(1/2) 2
5 0 10 -191407 -191407 -1 0 1;
#X obj 624 437 midi-colors \$0 mute \$0-mute-rcv;
#X obj 101 115 ui_vs \$0 gain -100 27;
#X obj 220 100 u_rollmenu bus_in 0;
#X obj 79 194 list split 1;
#X obj 229 223 unpack s s;
#X obj 29 252 s \$0-in;
#X obj 26 226 t b s b;
#X obj 18 313 r \$0-in;
#X obj 26 391 text search bus_in;
#X obj 28 371 symbol;
#X msg 32 288 1;
#X msg 71 285 0;
#X obj 28 343 spigot 1;
#X obj 123 469 select MODULE;
#X obj 184 152 bng 18 250 50 0 empty empty SetModule-> 0 10 0 10 -261682
-1 -1;
#X obj 319 533 s \$0-module-slot;
#X obj 289 569 r \$0-module-slot;
#X obj 265 544 f;
#X obj 479 558 s ACTION;
#X obj 354 383 delay 100;
#X msg 468 516 select_module \$1;
#X obj 414 489 list append \$0-module-slot;
#X floatatom 253 156 5 0 0 0 - #0-module-slot-rcv #0-module-slot,
f 5;
#X msg 316 507 0;
#N canvas 0 50 903 443 get_audio_from_module 0;
#X obj 192 151 select 0;
#X obj 70 242 print plug-in~;
#X obj 241 184 f;
#X obj 177 80 t f f;
#X msg 72 217 error - slot \$1 non affecté;
#X obj 459 342 outlet~;
#X obj 584 348 outlet~;
#X obj 143 5 inlet slot.name;
#X obj 427 143 list prepend 0;
#X obj 499 113 f;
#X obj 540 113 == 0;
#X obj 427 98 t f b;
#X obj 455 174 route 0 1;
#N canvas 0 50 450 300 receive~ 0;
#X obj 92 29 inlet;
#X obj 122 72 select 0;
#X obj 105 223 line~;
#X msg 97 200 0 20;
#X msg 197 124 set \$1-send-0;
#X msg 307 124 set \$1-send-1;
#X obj 197 157 receive~ 0-send-0;
#X obj 339 157 receive~ 0-send-1;
#X msg 150 193 1 20;
#X obj 31 151 switch~;
#X msg 98 126 1;
#X obj 40 96 delay 20;
#X msg 29 127 0;
#X msg 44 67 stop;
#X obj 130 318 outlet~;
#X obj 261 319 outlet~;
#X obj 161 283 *~;
#X obj 251 283 *~;
#X connect 0 0 1 0;
#X connect 1 0 3 0;
#X connect 1 0 11 0;
#X connect 1 1 4 0;
#X connect 1 1 5 0;
#X connect 1 1 10 0;
#X connect 1 1 13 0;
#X connect 1 1 8 0;
#X connect 2 0 16 1;
#X connect 2 0 17 1;
#X connect 3 0 2 0;
#X connect 4 0 6 0;
#X connect 5 0 7 0;
#X connect 6 0 16 0;
#X connect 7 0 17 0;
#X connect 8 0 2 0;
#X connect 10 0 9 0;
#X connect 11 0 12 0;
#X connect 12 0 9 0;
#X connect 13 0 11 0;
#X connect 16 0 14 0;
#X connect 17 0 15 0;
#X restore 455 240 pd receive~;
#N canvas 0 50 450 300 receive~ 0;
#X obj 92 29 inlet;
#X obj 122 72 select 0;
#X obj 105 223 line~;
#X msg 97 200 0 20;
#X msg 197 124 set \$1-send-0;
#X msg 307 124 set \$1-send-1;
#X obj 197 157 receive~ 0-send-0;
#X obj 339 157 receive~ 0-send-1;
#X msg 150 193 1 20;
#X obj 31 151 switch~;
#X msg 98 126 1;
#X obj 40 96 delay 20;
#X msg 29 127 0;
#X msg 44 67 stop;
#X obj 130 318 outlet~;
#X obj 261 319 outlet~;
#X obj 161 283 *~;
#X obj 251 283 *~;
#X connect 0 0 1 0;
#X connect 1 0 3 0;
#X connect 1 0 11 0;
#X connect 1 1 4 0;
#X connect 1 1 5 0;
#X connect 1 1 10 0;
#X connect 1 1 13 0;
#X connect 1 1 8 0;
#X connect 2 0 16 1;
#X connect 2 0 17 1;
#X connect 3 0 2 0;
#X connect 4 0 6 0;
#X connect 5 0 7 0;
#X connect 6 0 16 0;
#X connect 7 0 17 0;
#X connect 8 0 2 0;
#X connect 10 0 9 0;
#X connect 11 0 12 0;
#X connect 12 0 9 0;
#X connect 13 0 11 0;
#X connect 16 0 14 0;
#X connect 17 0 15 0;
#X restore 573 239 pd receive~;
#X msg 461 217 0;
#X msg 578 219 0;
#X text 612 270 assure un crossefade entre deux branchements successifs
;
#X msg 373 145 0;
#X obj 171 43 select 0;
#X obj 192 120 tabread SLOTS_MAP;
#X obj 666 25 r REFRESH_CONNEXIONS;
#X obj 705 202 tabread SLOTS_MAP;
#X obj 709 107 f;
#X msg 638 157 0;
#X obj 653 130 select 0;
#X connect 0 0 2 0;
#X connect 0 0 18 0;
#X connect 0 1 11 0;
#X connect 2 0 4 0;
#X connect 3 0 20 0;
#X connect 3 1 2 1;
#X connect 4 0 1 0;
#X connect 7 0 19 0;
#X connect 7 0 23 1;
#X connect 8 0 12 0;
#X connect 9 0 10 0;
#X connect 9 0 8 1;
#X connect 10 0 9 1;
#X connect 11 0 8 0;
#X connect 11 1 9 0;
#X connect 12 0 13 0;
#X connect 12 0 16 0;
#X connect 12 1 14 0;
#X connect 12 1 15 0;
#X connect 13 0 5 0;
#X connect 13 1 6 0;
#X connect 14 0 5 0;
#X connect 14 1 6 0;
#X connect 15 0 13 0;
#X connect 16 0 14 0;
#X connect 18 0 11 0;
#X connect 19 0 18 0;
#X connect 19 1 3 0;
#X connect 20 0 0 0;
#X connect 21 0 23 0;
#X connect 22 0 11 0;
#X connect 23 0 25 0;
#X connect 24 0 11 0;
#X connect 25 0 24 0;
#X connect 25 1 22 0;
#X restore 285 607 pd get_audio_from_module;
#X obj 126 519 delay 100;
#X obj 311 476 r \$0-module-slot;
#X obj 218 507 t b b;
#X obj 762 573 tgl 15 0 empty empty empty 17 7 0 10 -262144 -1 -1 0
1;
#X obj 770 528 * 127;
#X obj 846 386 u_parameter \$0 module-slot;
#X msg 345 192 symbol MODULE;
#X obj 145 432 outlet~ left;
#X obj 250 432 outlet~ right;
#X obj 845 283 module_loader audio_in \$0 \$1;
#X obj 840 245 inlet data;
#X obj 856 417 outlet data;
#X obj 812 88 declare -path core;
#X obj 812 108 declare -path rj;
#X obj 166 253 inlet~;
#X obj 226 253 inlet~;
#X connect 0 0 4 0;
#X connect 1 0 5 0;
#X connect 2 0 11 0;
#X connect 4 0 6 0;
#X connect 5 0 7 0;
#X connect 6 0 3 0;
#X connect 6 0 66 0;
#X connect 7 0 3 1;
#X connect 7 0 67 0;
#X connect 8 0 7 1;
#X connect 8 0 6 1;
#X connect 9 0 13 0;
#X connect 10 0 12 0;
#X connect 11 0 17 0;
#X connect 12 0 14 0;
#X connect 13 0 8 0;
#X connect 14 0 20 0;
#X connect 15 0 16 0;
#X connect 15 1 14 0;
#X connect 16 0 13 0;
#X connect 17 0 64 0;
#X connect 18 0 15 0;
#X connect 18 1 19 0;
#X connect 19 0 20 1;
#X connect 20 0 9 0;
#X connect 22 0 18 0;
#X connect 23 0 25 1;
#X connect 23 0 63 0;
#X connect 24 0 25 0;
#X connect 25 0 26 0;
#X connect 26 0 21 0;
#X connect 26 0 62 0;
#X connect 27 0 24 0;
#X connect 34 0 27 0;
#X connect 36 0 37 0;
#X connect 37 0 40 0;
#X connect 37 0 47 0;
#X connect 37 1 38 0;
#X connect 38 0 0 0;
#X connect 38 1 1 0;
#X connect 40 0 44 0;
#X connect 40 1 39 0;
#X connect 40 2 45 0;
#X connect 41 0 46 0;
#X connect 42 0 36 0;
#X connect 43 0 42 0;
#X connect 44 0 46 1;
#X connect 45 0 46 1;
#X connect 46 0 43 0;
#X connect 47 0 59 0;
#X connect 47 1 61 0;
#X connect 48 0 53 0;
#X connect 48 0 65 0;
#X connect 50 0 58 0;
#X connect 51 0 58 0;
#X connect 53 0 55 0;
#X connect 54 0 52 0;
#X connect 55 0 54 0;
#X connect 57 0 49 0;
#X connect 58 0 4 1;
#X connect 58 1 5 1;
#X connect 59 0 51 0;
#X connect 60 0 51 1;
#X connect 61 0 59 0;
#X connect 61 1 57 0;
#X connect 63 0 34 0;
#X connect 64 0 70 0;
#X connect 65 0 42 0;
#X connect 68 0 2 0;
#X connect 69 0 68 0;
#X coords 0 -1 1 1 190 70 1 100 100;
