#N canvas 494 123 1207 486 10;
#X declare -path ../../ressources/core;
#X declare -path ../../ressources/rj;
#N canvas 191 64 1187 566 audio_stuff 0;
#X obj 189 425 *~;
#X obj 91 424 *~;
#X obj 226 392 line~;
#X obj 92 96 hip~ 3;
#X obj 187 96 hip~ 3;
#X obj 91 49 inlet~;
#X obj 196 62 inlet~;
#X obj 119 471 outlet~;
#X obj 189 471 outlet~;
#X obj 335 279 dbtorms;
#X msg 284 349 \$1 20;
#X obj 385 228 f;
#X obj 302 196 select 1 0;
#X msg 318 225 0;
#X obj 314 166 t f f;
#X obj 421 204 == 0;
#X obj 368 251 spigot 1;
#X obj 316 74 r \$0-mute;
#X obj 380 168 r \$0-vol;
#X obj 486 66 r \$0-pan;
#X obj 286 392 line~;
#X obj 324 308 f;
#X msg 536 496 \$1 20;
#X obj 438 300 t b f;
#X obj 474 345 t f f;
#X obj 471 412 abs;
#X obj 565 411 abs;
#X obj 468 451 * 0.5;
#X obj 558 451 * 0.5;
#X obj 459 384 - 0.5;
#X obj 561 385 + 0.5;
#X obj 87 511 meter \$0;
#X connect 0 0 8 0;
#X connect 0 0 31 1;
#X connect 1 0 7 0;
#X connect 1 0 31 0;
#X connect 2 0 1 1;
#X connect 3 0 1 0;
#X connect 4 0 0 0;
#X connect 5 0 3 0;
#X connect 6 0 4 0;
#X connect 9 0 21 0;
#X connect 10 0 2 0;
#X connect 11 0 16 0;
#X connect 12 0 13 0;
#X connect 12 1 11 0;
#X connect 13 0 21 0;
#X connect 14 0 12 0;
#X connect 14 1 15 0;
#X connect 15 0 16 1;
#X connect 16 0 9 0;
#X connect 17 0 14 0;
#X connect 18 0 11 0;
#X connect 19 0 23 0;
#X connect 20 0 0 1;
#X connect 21 0 27 0;
#X connect 21 0 28 0;
#X connect 22 0 20 0;
#X connect 23 0 21 0;
#X connect 23 1 24 0;
#X connect 24 0 29 0;
#X connect 24 1 30 0;
#X connect 25 0 27 1;
#X connect 26 0 28 1;
#X connect 27 0 10 0;
#X connect 28 0 22 0;
#X connect 29 0 25 0;
#X connect 30 0 26 0;
#X restore 307 326 pd audio_stuff;
#X obj 138 395 c_tobus no-out;
#X obj 271 394 c_tobus no-out;
#X obj 585 363 u_dispatch \$0 out;
#X obj 586 342 u_dispatch \$0 vol;
#X obj 586 384 u_parameter \$0 mute;
#X obj 292 607 s \$0-mute;
#X obj 354 517 midi-colors \$0 mute \$0-mute-rcv;
#X obj 412 555 r \$0-mute;
#X obj 316 563 select 1;
#X obj 387 576 f;
#X obj 424 593 == 0;
#X obj 354 544 > 0;
#X obj 229 432 *~ 0;
#X obj 279 432 *~ 0;
#X obj 588 403 u_parameter \$0 pan;
#X obj 736 179 loadbang;
#X obj 706 219 s \$0-pan;
#X msg 692 192 0;
#X obj 101 101 cnv 15 188 68 empty \$0-background audio_out 0 7 0 14
-262144 -1 0;
#X obj 100 115 ui_vs \$0 vol 0 127;
#X obj 189 134 cnv 2 1 2 empty \$0-vu -100db 20 5 0 10 -24198 -1 0
;
#X text 148 106 dest;
#X obj 142 130 tgl 40 0 \$0-mute \$0-mute-rcv MUTE 17 7 0 10 -262144
-1 -1 0 1;
#X obj 258 137 tgl 30 0 empty empty MONO 2 7 0 10 -262144 -1 -1 0 1
;
#X obj 193 146 hsl 50 20 -0.5 0.5 0 0 \$0-pan \$0-pan-rcv PAN 4 10
0 10 -262144 -1 -1 0 1;
#X obj 220 100 u_rollmenu bus_out 0;
#X obj 79 194 list split 1;
#X obj 229 223 unpack s s;
#X obj 26 226 t b s b;
#X obj 28 371 symbol;
#X msg 32 288 1;
#X msg 71 285 0;
#X obj 28 343 spigot 1;
#X obj 14 424 text search bus_out;
#X obj 45 251 s \$0-out;
#X obj 18 313 r \$0-out;
#X obj 460 252 inlet~;
#X obj 460 274 outlet~;
#X obj 307 248 inlet~;
#X obj 322 272 outlet~;
#X obj 586 277 inlet data;
#X obj 582 311 module_loader audio_out \$0 \$1;
#X obj 614 450 outlet data;
#X obj 480 486 midi-colors \$0 pan \$0-pan-rcv -0.5 0.5 lin;
#X obj 764 4 declare -path ../../ressources/core;
#X obj 764 34 declare -path ../../ressources/rj;
#X connect 0 0 1 0;
#X connect 0 0 14 0;
#X connect 0 1 2 0;
#X connect 0 1 13 0;
#X connect 3 0 5 0;
#X connect 4 0 3 0;
#X connect 5 0 15 0;
#X connect 7 0 12 0;
#X connect 8 0 10 1;
#X connect 9 0 10 0;
#X connect 10 0 11 0;
#X connect 11 0 6 0;
#X connect 12 0 9 0;
#X connect 13 0 1 0;
#X connect 14 0 2 0;
#X connect 15 0 43 0;
#X connect 16 0 18 0;
#X connect 18 0 17 0;
#X connect 24 0 13 1;
#X connect 24 0 14 1;
#X connect 26 0 27 0;
#X connect 27 0 29 0;
#X connect 27 1 28 0;
#X connect 28 0 1 1;
#X connect 28 1 2 1;
#X connect 29 0 31 0;
#X connect 29 1 35 0;
#X connect 29 2 32 0;
#X connect 30 0 34 0;
#X connect 31 0 33 1;
#X connect 32 0 33 1;
#X connect 33 0 30 0;
#X connect 34 0 26 0;
#X connect 36 0 33 0;
#X connect 37 0 0 1;
#X connect 37 0 38 0;
#X connect 39 0 0 0;
#X connect 39 0 40 0;
#X connect 41 0 42 0;
#X connect 42 0 4 0;
#X coords 0 -1 1 1 190 70 1 100 100;
