#N canvas 1 56 1042 595 10;
#X declare -path ../../ressources/core;
#X declare -path ../../ressources/rj;
#X text 90 415 TODO;
#X text 25 450 sauvegarde;
#X text 27 473 multiple patterns;
#X obj 723 174 u_parameter \$0 ccx;
#X obj 718 197 u_parameter \$0 ccy;
#X obj 719 217 u_parameter \$0 ccz;
#X obj 718 240 u_parameter \$0 ccx_enable;
#X obj 718 260 u_parameter \$0 ccy_enable;
#X obj 718 280 u_parameter \$0 ccz_enable;
#N canvas 213 50 803 496 features_extraction 0;
#X obj 396 118 audio_features/perceptualBrightness;
#X obj 499 146 max 20;
#X obj 566 155 min 20020;
#X obj 572 181 ftom;
#X obj 142 25 inlet~;
#X obj 358 61 r \$0-seuil;
#X obj 204 127 >;
#X obj 291 193 select 0 1;
#X obj 339 126 +;
#X msg 291 215 0;
#X obj 211 149 change;
#X obj 267 232 s \$0-detect;
#X obj 532 287 r \$0-detect;
#X msg 438 365 set \$1;
#X obj 409 453 s \$0-detect-rcv;
#X obj 180 78 env~;
#X obj 185 265 spigot;
#X obj 408 245 r \$0-detect;
#X obj 179 102 t f f;
#X obj 189 329 s \$0-env;
#X obj 141 365 r \$0-detect;
#N canvas 0 50 450 300 harmonicité 0;
#N canvas 613 111 388 260 autocorrelation 0;
#X obj 17 43 inlet~;
#X obj 17 100 rfft~;
#X obj 17 164 rifft~;
#X obj 17 129 *~;
#X obj 44 129 *~;
#X obj 17 74 /~ 1024;
#X text 74 128 make power spectrum;
#X obj 17 190 outlet~;
#X text 61 19 credits : noisyness module from integralive;
#X obj 234 89 block~ 1024;
#X connect 0 0 5 0;
#X connect 1 0 3 0;
#X connect 1 0 3 1;
#X connect 1 1 4 0;
#X connect 1 1 4 1;
#X connect 2 0 7 0;
#X connect 3 0 2 0;
#X connect 4 0 2 0;
#X connect 5 0 1 0;
#X restore 41 122 pd autocorrelation;
#X obj 38 166 env~;
#X obj 67 77 inlet~;
#X obj 42 197 outlet;
#X obj 268 108 inlet;
#X obj 271 143 switch~;
#X connect 0 0 1 0;
#X connect 1 0 3 0;
#X connect 2 0 0 0;
#X connect 4 0 5 0;
#X restore 49 396 pd harmonicité;
#X msg 325 217 -3;
#X obj 54 475 s \$0-harmo;
#X obj 628 75 r \$0-detect;
#X obj 538 260 s \$0-bright;
#X obj 594 362 select 0 1;
#X obj 419 270 r \$0-learn;
#X obj 46 425 audio_features/autoscale \$0 harmo;
#X obj 289 380 r \$0-learn;
#X obj 809 190 r \$0-learn;
#X obj 522 55 inlet;
#X obj 502 78 switch~;
#X obj 531 310 change;
#X msg 555 389 color 19 19 -1;
#X msg 565 419 color 0 0 -1;
#X obj 186 285 audio_features/autoscale \$0 env;
#X obj 576 205 audio_features/autoscale \$0 bright;
#X obj 105 67 e_agc;
#X obj 185 308 audio_features/filtering \$0 env;
#X obj 47 449 audio_features/filtering \$0 harmo;
#X obj 573 233 audio_features/filtering \$0 bright;
#N canvas 0 50 450 300 speed_lim 0;
#X obj 87 20 inlet;
#X obj 87 105 t b b a;
#X obj 83 278 list append;
#X obj 83 307 list trim;
#X msg 129 200 1;
#X msg 57 177 0;
#X obj 83 332 outlet;
#X obj 55 145 delay 100;
#X obj 83 249 metro 100;
#X obj 33 226 change;
#X connect 0 0 1 0;
#X connect 1 0 7 0;
#X connect 1 1 4 0;
#X connect 1 2 2 1;
#X connect 2 0 3 0;
#X connect 3 0 6 0;
#X connect 4 0 9 0;
#X connect 5 0 9 0;
#X connect 7 0 5 0;
#X connect 8 0 2 0;
#X connect 9 0 8 0;
#X restore 529 340 pd speed_lim;
#X connect 0 0 1 0;
#X connect 1 0 2 0;
#X connect 2 0 3 0;
#X connect 3 0 37 0;
#X connect 4 0 15 0;
#X connect 4 0 38 0;
#X connect 5 0 6 1;
#X connect 5 0 8 1;
#X connect 6 0 10 0;
#X connect 7 0 9 0;
#X connect 7 1 22 0;
#X connect 8 0 6 1;
#X connect 9 0 8 0;
#X connect 10 0 7 0;
#X connect 10 0 11 0;
#X connect 12 0 33 0;
#X connect 13 0 14 0;
#X connect 15 0 18 0;
#X connect 16 0 36 0;
#X connect 17 0 16 1;
#X connect 18 0 16 0;
#X connect 18 1 6 0;
#X connect 20 0 21 1;
#X connect 21 0 28 0;
#X connect 22 0 8 0;
#X connect 24 0 0 1;
#X connect 26 0 35 0;
#X connect 26 1 34 0;
#X connect 27 0 36 1;
#X connect 28 0 40 0;
#X connect 29 0 28 1;
#X connect 30 0 37 1;
#X connect 31 0 32 0;
#X connect 33 0 42 0;
#X connect 34 0 14 0;
#X connect 35 0 14 0;
#X connect 36 0 39 0;
#X connect 37 0 41 0;
#X connect 38 0 21 0;
#X connect 38 0 0 0;
#X connect 39 0 19 0;
#X connect 40 0 23 0;
#X connect 41 0 25 0;
#X connect 42 0 26 0;
#X connect 42 0 13 0;
#X restore 224 328 pd features_extraction;
#X obj 323 407 r \$0-harmo;
#X obj 458 400 r \$0-bright;
#X obj 229 398 r \$0-env;
#X obj 741 299 u_parameter \$0 send_data;
#X obj 282 505 spigot;
#X obj 320 479 r \$0-send_data;
#N canvas 508 50 636 571 ctl_conversion 0;
#X obj 147 255 r \$0-ccx;
#X obj 96 283 pack f f 1;
#X obj 186 283 pack f f 1;
#X obj 237 255 r \$0-ccy;
#X obj 266 283 pack f f 1;
#X obj 317 255 r \$0-ccz;
#X msg 85 152 1;
#X obj 295 347 s CTLIN;
#X obj 215 337 t b l;
#X msg 85 172 1;
#X msg 85 192 1;
#X obj 55 45 r \$0-testx;
#X obj 55 65 r \$0-testy;
#X obj 55 85 r \$0-testz;
#X obj 166 113 spigot;
#X obj 201 87 r \$0-ccx_enable;
#X obj 280 115 spigot;
#X obj 315 89 r \$0-ccy_enable;
#X obj 436 113 spigot;
#X obj 165 18 r \$0-env;
#X obj 280 16 r \$0-harmo;
#X obj 436 3 r \$0-bright;
#X obj 184 381 outlet;
#X obj 475 93 r \$0-ccz_enable;
#X obj 68 426 s \$0-cca_cnv-rcv;
#N canvas 0 50 450 300 speed_lim 0;
#X obj 87 20 inlet;
#X obj 87 105 t b b a;
#X obj 83 278 list append;
#X obj 83 307 list trim;
#X msg 129 200 1;
#X msg 57 177 0;
#X obj 83 332 outlet;
#X obj 55 145 delay 100;
#X obj 83 249 metro 100;
#X obj 33 226 change;
#X connect 0 0 1 0;
#X connect 1 0 7 0;
#X connect 1 1 4 0;
#X connect 1 2 2 1;
#X connect 2 0 3 0;
#X connect 3 0 6 0;
#X connect 4 0 9 0;
#X connect 5 0 9 0;
#X connect 7 0 5 0;
#X connect 8 0 2 0;
#X connect 9 0 8 0;
#X restore 71 358 pd speed_lim;
#N canvas 0 50 450 300 speed_lim 0;
#X obj 87 20 inlet;
#X obj 87 105 t b b a;
#X obj 83 278 list append;
#X obj 83 307 list trim;
#X msg 129 200 1;
#X msg 57 177 0;
#X obj 83 332 outlet;
#X obj 55 145 delay 100;
#X obj 83 249 metro 100;
#X obj 33 226 change;
#X connect 0 0 1 0;
#X connect 1 0 7 0;
#X connect 1 1 4 0;
#X connect 1 2 2 1;
#X connect 2 0 3 0;
#X connect 3 0 6 0;
#X connect 4 0 9 0;
#X connect 5 0 9 0;
#X connect 7 0 5 0;
#X connect 8 0 2 0;
#X connect 9 0 8 0;
#X restore 281 418 pd speed_lim;
#X obj 278 486 s \$0-ccb_cnv-rcv;
#N canvas 0 50 450 300 speed_lim 0;
#X obj 87 20 inlet;
#X obj 87 105 t b b a;
#X obj 83 278 list append;
#X obj 83 307 list trim;
#X msg 129 200 1;
#X msg 57 177 0;
#X obj 83 332 outlet;
#X obj 55 145 delay 100;
#X obj 83 249 metro 100;
#X obj 33 226 change;
#X connect 0 0 1 0;
#X connect 1 0 7 0;
#X connect 1 1 4 0;
#X connect 1 2 2 1;
#X connect 2 0 3 0;
#X connect 3 0 6 0;
#X connect 4 0 9 0;
#X connect 5 0 9 0;
#X connect 7 0 5 0;
#X connect 8 0 2 0;
#X connect 9 0 8 0;
#X restore 441 418 pd speed_lim;
#X obj 438 486 s \$0-ccc_cnv-rcv;
#X msg 70 403 vis_size \$1 14;
#X msg 280 463 vis_size \$1 14;
#X msg 440 463 vis_size \$1 14;
#X obj 72 381 / 3.5;
#X obj 282 443 / 3.5;
#X obj 442 441 / 3.5;
#X msg 451 334 0;
#N canvas 287 58 450 300 display_clipping 0;
#X obj 185 51 inlet;
#X obj 171 90 == 0;
#X obj 244 87 == 127;
#X obj 132 173 select 1 0;
#X obj 131 235 s \$0-env-min-rcv;
#X msg 166 194 color 0 -1 -1;
#X obj 168 114 change;
#X msg 132 213 color 44 -1 -1;
#X obj 292 173 select 1 0;
#X msg 326 194 color 0 -1 -1;
#X msg 292 213 color 44 -1 -1;
#X obj 291 235 s \$0-env-max-rcv;
#X obj 244 109 change;
#N canvas 0 50 450 300 speed_lim 0;
#X obj 87 20 inlet;
#X obj 87 105 t b b a;
#X obj 83 278 list append;
#X obj 83 307 list trim;
#X msg 129 200 1;
#X msg 57 177 0;
#X obj 83 332 outlet;
#X obj 55 145 delay 100;
#X obj 83 249 metro 100;
#X obj 33 226 change;
#X connect 0 0 1 0;
#X connect 1 0 7 0;
#X connect 1 1 4 0;
#X connect 1 2 2 1;
#X connect 2 0 3 0;
#X connect 3 0 6 0;
#X connect 4 0 9 0;
#X connect 5 0 9 0;
#X connect 7 0 5 0;
#X connect 8 0 2 0;
#X connect 9 0 8 0;
#X restore 171 138 pd speed_lim;
#N canvas 0 50 450 300 speed_lim 0;
#X obj 87 20 inlet;
#X obj 87 105 t b b a;
#X obj 83 278 list append;
#X obj 83 307 list trim;
#X msg 129 200 1;
#X msg 57 177 0;
#X obj 83 332 outlet;
#X obj 55 145 delay 100;
#X obj 83 249 metro 100;
#X obj 33 226 change;
#X connect 0 0 1 0;
#X connect 1 0 7 0;
#X connect 1 1 4 0;
#X connect 1 2 2 1;
#X connect 2 0 3 0;
#X connect 3 0 6 0;
#X connect 4 0 9 0;
#X connect 5 0 9 0;
#X connect 7 0 5 0;
#X connect 8 0 2 0;
#X connect 9 0 8 0;
#X restore 271 138 pd speed_lim;
#X connect 0 0 1 0;
#X connect 0 0 2 0;
#X connect 1 0 6 0;
#X connect 2 0 12 0;
#X connect 3 0 7 0;
#X connect 3 1 5 0;
#X connect 5 0 4 0;
#X connect 6 0 13 0;
#X connect 7 0 4 0;
#X connect 8 0 10 0;
#X connect 8 1 9 0;
#X connect 9 0 11 0;
#X connect 10 0 11 0;
#X connect 12 0 14 0;
#X connect 13 0 3 0;
#X connect 14 0 8 0;
#X restore 177 169 pd display_clipping;
#N canvas 287 58 450 300 display_clipping 0;
#X obj 185 51 inlet;
#X obj 171 90 == 0;
#X obj 241 84 == 127;
#X obj 132 173 select 1 0;
#X msg 166 194 color 0 -1 -1;
#X msg 132 213 color 44 -1 -1;
#X obj 292 173 select 1 0;
#X msg 326 194 color 0 -1 -1;
#X msg 292 213 color 44 -1 -1;
#X obj 131 235 s \$0-harmo-min-rcv;
#X obj 291 235 s \$0-harmo-max-rcv;
#X obj 168 114 change;
#X obj 244 109 change;
#N canvas 0 50 450 300 speed_lim 0;
#X obj 87 20 inlet;
#X obj 87 105 t b b a;
#X obj 83 278 list append;
#X obj 83 307 list trim;
#X msg 129 200 1;
#X msg 57 177 0;
#X obj 83 332 outlet;
#X obj 55 145 delay 100;
#X obj 83 249 metro 100;
#X obj 33 226 change;
#X connect 0 0 1 0;
#X connect 1 0 7 0;
#X connect 1 1 4 0;
#X connect 1 2 2 1;
#X connect 2 0 3 0;
#X connect 3 0 6 0;
#X connect 4 0 9 0;
#X connect 5 0 9 0;
#X connect 7 0 5 0;
#X connect 8 0 2 0;
#X connect 9 0 8 0;
#X restore 171 138 pd speed_lim;
#N canvas 0 50 450 300 speed_lim 0;
#X obj 87 20 inlet;
#X obj 87 105 t b b a;
#X obj 83 278 list append;
#X obj 83 307 list trim;
#X msg 129 200 1;
#X msg 57 177 0;
#X obj 83 332 outlet;
#X obj 55 145 delay 100;
#X obj 83 249 metro 100;
#X obj 33 226 change;
#X connect 0 0 1 0;
#X connect 1 0 7 0;
#X connect 1 1 4 0;
#X connect 1 2 2 1;
#X connect 2 0 3 0;
#X connect 3 0 6 0;
#X connect 4 0 9 0;
#X connect 5 0 9 0;
#X connect 7 0 5 0;
#X connect 8 0 2 0;
#X connect 9 0 8 0;
#X restore 271 138 pd speed_lim;
#X connect 0 0 1 0;
#X connect 0 0 2 0;
#X connect 1 0 11 0;
#X connect 2 0 12 0;
#X connect 3 0 5 0;
#X connect 3 1 4 0;
#X connect 4 0 9 0;
#X connect 5 0 9 0;
#X connect 6 0 8 0;
#X connect 6 1 7 0;
#X connect 7 0 10 0;
#X connect 8 0 10 0;
#X connect 11 0 13 0;
#X connect 12 0 14 0;
#X connect 13 0 3 0;
#X connect 14 0 6 0;
#X restore 298 141 pd display_clipping;
#N canvas 495 126 450 300 display_clipping 0;
#X obj 185 51 inlet;
#X obj 171 90 == 0;
#X obj 239 88 == 127;
#X obj 132 173 select 1 0;
#X msg 166 194 color 0 -1 -1;
#X msg 132 213 color 44 -1 -1;
#X obj 292 173 select 1 0;
#X msg 326 194 color 0 -1 -1;
#X msg 292 213 color 44 -1 -1;
#X obj 291 235 s \$0-bright-max-rcv, f 20;
#X obj 131 235 s \$0-bright-min-rcv;
#X obj 168 114 change;
#X obj 244 109 change;
#N canvas 0 50 450 300 speed_lim 0;
#X obj 87 20 inlet;
#X obj 87 105 t b b a;
#X obj 83 278 list append;
#X obj 83 307 list trim;
#X msg 129 200 1;
#X msg 57 177 0;
#X obj 83 332 outlet;
#X obj 55 145 delay 100;
#X obj 83 249 metro 100;
#X obj 33 226 change;
#X connect 0 0 1 0;
#X connect 1 0 7 0;
#X connect 1 1 4 0;
#X connect 1 2 2 1;
#X connect 2 0 3 0;
#X connect 3 0 6 0;
#X connect 4 0 9 0;
#X connect 5 0 9 0;
#X connect 7 0 5 0;
#X connect 8 0 2 0;
#X connect 9 0 8 0;
#X restore 171 138 pd speed_lim;
#N canvas 0 50 450 300 speed_lim 0;
#X obj 87 20 inlet;
#X obj 87 105 t b b a;
#X obj 83 278 list append;
#X obj 83 307 list trim;
#X msg 129 200 1;
#X msg 57 177 0;
#X obj 83 332 outlet;
#X obj 55 145 delay 100;
#X obj 83 249 metro 100;
#X obj 33 226 change;
#X connect 0 0 1 0;
#X connect 1 0 7 0;
#X connect 1 1 4 0;
#X connect 1 2 2 1;
#X connect 2 0 3 0;
#X connect 3 0 6 0;
#X connect 4 0 9 0;
#X connect 5 0 9 0;
#X connect 7 0 5 0;
#X connect 8 0 2 0;
#X connect 9 0 8 0;
#X restore 271 138 pd speed_lim;
#X connect 0 0 1 0;
#X connect 0 0 2 0;
#X connect 1 0 11 0;
#X connect 2 0 12 0;
#X connect 3 0 5 0;
#X connect 3 1 4 0;
#X connect 4 0 10 0;
#X connect 5 0 10 0;
#X connect 6 0 8 0;
#X connect 6 1 7 0;
#X connect 7 0 9 0;
#X connect 8 0 9 0;
#X connect 11 0 13 0;
#X connect 12 0 14 0;
#X connect 13 0 3 0;
#X connect 14 0 6 0;
#X restore 457 146 pd display_clipping;
#X connect 0 0 1 1;
#X connect 1 0 8 0;
#X connect 2 0 8 0;
#X connect 3 0 2 1;
#X connect 4 0 8 0;
#X connect 5 0 4 1;
#X connect 6 0 1 0;
#X connect 8 0 22 0;
#X connect 8 1 7 0;
#X connect 9 0 2 0;
#X connect 10 0 4 0;
#X connect 11 0 6 0;
#X connect 12 0 9 0;
#X connect 13 0 10 0;
#X connect 14 0 25 0;
#X connect 14 0 1 0;
#X connect 14 0 37 0;
#X connect 15 0 14 1;
#X connect 16 0 2 0;
#X connect 16 0 26 0;
#X connect 16 0 38 0;
#X connect 17 0 16 1;
#X connect 18 0 4 0;
#X connect 18 0 28 0;
#X connect 18 0 39 0;
#X connect 19 0 14 0;
#X connect 20 0 16 0;
#X connect 21 0 18 0;
#X connect 23 0 18 1;
#X connect 25 0 33 0;
#X connect 26 0 34 0;
#X connect 28 0 35 0;
#X connect 30 0 24 0;
#X connect 31 0 27 0;
#X connect 32 0 29 0;
#X connect 33 0 30 0;
#X connect 34 0 31 0;
#X connect 35 0 32 0;
#X connect 36 0 32 0;
#X connect 36 0 31 0;
#X connect 36 0 30 0;
#X restore 525 202 pd ctl_conversion;
#X obj 730 345 u_parameter \$0 learn;
#X msg 217 426 env \$1;
#X msg 322 428 harmo \$1;
#X msg 457 423 bright \$1;
#X obj 730 323 u_parameter \$0 seuil;
#X obj 545 108 r \$0-busy;
#X obj 101 101 cnv 15 188 68 empty \$0-background audio_features-2
0 7 0 14 -262144 -1 0;
#X obj 220 102 vsl 70 17 1 0 0 0 \$0-presets \$0-presets-rcv PRESETS
2 5 0 10 -232576 -232576 -1 0 1;
#X obj 225 123 bng 14 250 50 0 \$0-testx empty empty 17 7 0 10 -262144
-1 -1;
#X obj 225 139 bng 14 250 50 0 \$0-testy empty empty 17 7 0 10 -262144
-1 -1;
#X obj 225 155 bng 14 250 50 0 \$0-testz empty empty 17 7 0 10 -262144
-1 -1;
#X obj 127 139 tgl 15 0 empty \$0-detect-rcv detect 2 7 0 10 -250685
-250685 -1 1 1;
#X text 194 130 env.;
#X text 173 142 harmon.;
#X text 180 154 brill.;
#X obj 128 124 tgl 15 0 \$0-send_data \$0-send_data-rcv send_data 17
7 0 10 -262144 -1 -1 0 1;
#X obj 100 122 vsl 25 45 0 100 0 0 \$0-seuil \$0-seuil-rcv seuil 0
14 0 10 -232576 -1 -1 0 1;
#X obj 240 122 cnv 2 1 14 empty \$0-cca_cnv-rcv empty 20 12 0 14 -260097
-66577 0;
#X obj 240 138 cnv 2 1 14 empty \$0-ccb_cnv-rcv empty 20 12 0 14 -260097
-66577 0;
#X obj 240 154 cnv 2 1 14 empty \$0-ccc_cnv-rcv empty 20 12 0 14 -260097
-66577 0;
#X floatatom 239 121 5 0 127 1 - #0-ccx-rcv #0-ccx, f 5;
#X floatatom 239 137 5 0 127 1 - #0-ccy-rcv #0-ccy, f 5;
#X floatatom 239 153 5 0 127 1 - #0-ccz-rcv #0-ccz, f 5;
#N canvas 500 223 468 97 \$0-autoscale_gui 0;
#X obj 22 12 hsl 128 15 0 127 0 0 \$0-env-min \$0-env-min-rcv env-min
5 7 0 10 -260818 -1 -1 0 1;
#X obj 22 32 hsl 128 15 0 127 0 0 \$0-env-max \$0-env-max-rcv env-max
5 7 0 10 -262144 -1 -1 0 1;
#X obj 162 12 hsl 128 15 0 127 0 0 \$0-harmo-min \$0-harmo-min-rcv
harmo-min 5 7 0 10 -260818 -1 -1 0 1;
#X obj 302 12 hsl 128 15 0 127 0 0 \$0-bright-min \$0-bright-min-rcv
bright-min 5 7 0 10 -260818 -1 -1 0 1;
#X obj 162 32 hsl 128 15 0 127 0 0 \$0-harmo-max \$0-harmo-max-rcv
harmo-max 5 7 0 10 -262144 -1 -1 0 1;
#X obj 302 32 hsl 128 15 0 127 0 0 \$0-bright-max \$0-bright-max-rcv
bright-max 5 7 0 10 -262144 -1 -1 0 1;
#X obj 22 52 hsl 128 15 0 1000 0 0 \$0-env-filt \$0-env-filt-rcv env-filtering
5 7 0 10 -262144 -1 -1 0 1;
#X obj 162 52 hsl 128 15 0 127 0 0 \$0-harmo-filt \$0-harmo-filt-rcv
harmo-filtering 5 7 0 10 -262144 -1 -1 0 1;
#X obj 302 52 hsl 128 15 0 127 0 0 \$0-bright-filt \$0-bright-filt-rcv
bright-filtering 5 7 0 10 -262144 -1 -1 0 1;
#X restore 354 109 pd \$0-autoscale_gui;
#X msg 340 212 vis 1;
#X obj 338 247 s pd-\$0-autoscale_gui;
#X obj 199 110 bng 15 250 50 0 \$0-autoscale-edit empty ... 2 7 0 10
-257985 -1 -1;
#X obj 150 112 tgl 15 0 \$0-learn \$0-learn-rcv Learn 17 7 0 10 -257985
-1 -1 0 1;
#X obj 341 188 r \$0-autoscale-edit;
#X obj 351 133 r \$0-learn;
#X obj 351 160 select 1 0;
#X msg 418 215 vis 0;
#X obj 274 121 tgl 16 0 \$0-ccx_enable \$0-ccx_enable-rcv A 4 7 0 12
-203904 -1 -1 0 1;
#X obj 274 137 tgl 16 0 \$0-ccy_enable \$0-ccy_enable-rcv B 4 7 0 12
-203904 -1 -1 0 1;
#X obj 274 153 tgl 16 0 \$0-ccz_enable \$0-ccz_enable-rcv C 4 7 0 12
-203904 -1 -1 0 1;
#X obj 449 312 route showLastUsed;
#X obj 451 287 r RACK_ADMIN;
#X obj 444 342 == 0;
#X obj 466 369 &&;
#X obj 715 150 module_loader audio_features \$0 \$1;
#X obj 106 244 inlet~;
#X obj 216 244 inlet~;
#X obj 99 364 outlet~;
#X obj 169 364 outlet~;
#X obj 711 118 inlet data;
#X obj 716 505 outlet data;
#N canvas 0 50 450 300 sigmund 0;
#X obj 116 93 inlet~;
#X obj 102 208 outlet;
#X obj 100 174 sigmund~ -npts 512 notes;
#X obj 219 137 block~ 64 1 0.0625;
#X connect 0 0 2 0;
#X connect 2 0 1 0;
#X restore 376 551 pd sigmund;
#X obj 484 557 makenote 500 100;
#X obj 484 579 pack f f;
#X msg 676 553 note \$1 \$2;
#X obj 804 34 declare -path ../../ressources/core;
#X obj 804 64 declare -path ../../ressources/rj;
#X connect 3 0 4 0;
#X connect 4 0 5 0;
#X connect 5 0 6 0;
#X connect 6 0 7 0;
#X connect 7 0 8 0;
#X connect 8 0 13 0;
#X connect 10 0 19 0;
#X connect 11 0 20 0;
#X connect 12 0 18 0;
#X connect 13 0 21 0;
#X connect 14 0 62 0;
#X connect 15 0 14 1;
#X connect 17 0 62 0;
#X connect 18 0 14 0;
#X connect 19 0 14 0;
#X connect 20 0 14 0;
#X connect 21 0 17 0;
#X connect 22 0 9 1;
#X connect 22 0 55 1;
#X connect 41 0 42 0;
#X connect 45 0 41 0;
#X connect 46 0 47 0;
#X connect 47 0 41 0;
#X connect 47 1 48 0;
#X connect 48 0 42 0;
#X connect 52 0 54 0;
#X connect 53 0 52 0;
#X connect 54 0 55 0;
#X connect 55 0 9 1;
#X connect 56 0 3 0;
#X connect 57 0 9 0;
#X connect 57 0 59 0;
#X connect 58 0 9 0;
#X connect 58 0 60 0;
#X connect 58 0 63 0;
#X connect 61 0 56 0;
#X connect 63 0 64 0;
#X connect 64 0 65 0;
#X connect 64 1 65 1;
#X connect 65 0 66 0;
#X connect 66 0 62 0;
#X coords 0 -1 1 1 190 70 1 100 100;
