#N canvas 534 172 1001 315 10;
#X obj 402 136 tgl 15 0 empty empty V 4 8 0 12 -4034 -4034 -1 0 1;
#X obj 52 21 audio_record;
#X text 20 111 Pour enregistrer à la volée le flux audio entrant
;
#N canvas 489 347 450 300 meta 0;
#X text 54 39 <fr> module d'enregistrement à la volée;
#X text 53 64 <en> recording module;
#X restore 592 44 pd meta;
#X obj 430 194 PdRacks.settings;
#X text 424 134 Instances multiples possibles \, synchronisées au
démarrage de l'enregistrement;
