#N canvas 188 56 1075 486 10;
#X declare -path ../../ressources/core;
#X declare -path ../../ressources/rj;
#X declare -lib zexy;
#N canvas 172 83 586 377 LICENSE-GPL 0;
#X text 57 88 This program is free software: you can redistribute it
and/or modify it under the terms of the GNU General Public License
as published by the Free Software Foundation \, either version 3 of
the License \, or (at your option) any later version.;
#X text 58 168 This program is distributed in the hope that it will
be useful \, but WITHOUT ANY WARRANTY \; without even the implied warranty
of MERCHANTABILITY or FITNESS FOR A PARTICULAR PURPOSE. See the GNU
General Public License for more details.;
#X text 57 261 You should have received a copy of the GNU General Public
License along with this program. If not \, see <http://www.gnu.org/licenses/>.
;
#X text 61 54 Copyright (C) 2009 \, Reality Jockey Ltd.;
#X text 60 325 See the file LICENSE.txt for the full license text.
;
#X restore 298 15 pd LICENSE-GPL;
#X msg 896 385 start;
#X msg 386 341 stop;
#X obj 328 476 writesf~ 2;
#X obj 978 288 bng 15 250 50 0 empty empty empty 17 7 0 10 -262144
-1 -1;
#N canvas 0 50 669 418 horodatage(zexy) 0;
#X obj 103 43 t b b;
#X obj 107 12 inlet;
#X obj 106 268 outlet;
#X obj 326 123 makefilename %02d;
#X obj 353 175 pack symbol symbol symbol;
#X obj 466 121 makefilename %02d;
#X obj 506 141 makefilename %02d;
#X obj 101 213 list append;
#X obj 58 119 makefilename %02d;
#X obj 187 119 makefilename %02d;
#X obj 38 139 makefilename %02d;
#X obj 33 165 pack symbol symbol symbol;
#X msg 99 233 symbol \$1-\$2-\$3_\$4h\$5'\$6;
#X obj 33 74 date -----------;
#X obj 385 87 time -----------;
#X text 181 83 <--- zexy externals ----->;
#X connect 0 0 13 0;
#X connect 0 1 14 0;
#X connect 1 0 0 0;
#X connect 3 0 4 0;
#X connect 4 0 7 1;
#X connect 5 0 4 1;
#X connect 6 0 4 2;
#X connect 7 0 12 0;
#X connect 8 0 11 1;
#X connect 9 0 11 2;
#X connect 10 0 11 0;
#X connect 11 0 7 0;
#X connect 12 0 2 0;
#X connect 13 0 10 0;
#X connect 13 1 8 0;
#X connect 13 2 9 0;
#X connect 14 0 3 0;
#X connect 14 1 5 0;
#X connect 14 2 6 0;
#X restore 975 319 pd horodatage(zexy);
#X obj 730 218 change;
#X obj 829 239 select 0 1;
#X obj 942 259 t b b;
#X msg 320 82 color 3 3 -1;
#X msg 319 104 color 13 13 -1;
#X obj 541 198 timer, f 15;
#X obj 528 169 bng 15 250 50 0 empty empty empty 17 7 0 10 -262144
-1 -1;
#X obj 652 182 bng 15 250 50 0 empty empty empty 17 7 0 10 -262144
-1 -1;
#X obj 656 242 metro 1000;
#X obj 535 223 / 1000;
#X obj 529 249 int;
#X obj 542 271 t f f;
#X msg 502 391 label \$1:\$2;
#X obj 546 333 makefilename %02d;
#X obj 504 417 s \$0-time;
#X obj 506 343 makefilename %02d;
#X obj 492 367 pack s s;
#X obj 485 290 div 60;
#X obj 533 307 mod 60;
#X obj 101 101 cnv 15 188 68 empty \$0-background audio_record 0 7
0 14 -262144 -1 0;
#X obj 250 129 tgl 40 0 empty empty REC 5 20 0 15 -261689 -261689 -1
0 1;
#X obj 118 147 cnv 15 100 20 empty \$0-time 00:01 20 12 0 14 -261682
-66577 0;
#X obj 189 123 cnv 2 59 2 empty \$0-vu -41db 20 5 0 10 -24198 -1 0
;
#X obj 1314 199 div 10;
#X obj 1010 430 print;
#X floatatom 1314 93 5 0 0 0 - - -, f 5;
#X msg 1314 112 12;
#X obj 898 365 delay 100;
#X obj 676 27 module_loader audio_record \$0 \$1;
#X obj 1014 132 inlet~;
#X obj 1014 154 outlet~;
#X obj 940 165 outlet~;
#X obj 943 130 inlet~;
#X obj 1085 133 inlet data;
#X obj 1085 155 outlet data;
#X obj 210 350 *~ 0.5;
#X obj 324 352 *~ 0.5;
#X obj 247 181 s AUDIO_RECORD_REC;
#X obj 502 78 r AUDIO_RECORD_REC;
#X obj 558 31 r \$0-busy;
#X obj 502 100 spigot;
#X msg 502 122 set \$1;
#X obj 1276 155 r \$1-slot;
#X msg 975 377 open ../../recordings/\$1\$2;
#X msg 1330 234 list -[\$1];
#X obj 194 484 meter \$0;
#X obj 986 347 list append -\$1;
#X obj 179 278 c_frombus no-in;
#X obj 317 278 c_frombus no-in;
#X obj 79 194 list split 1;
#X obj 229 223 unpack s s;
#X obj 26 226 t b s b;
#X obj 28 371 symbol;
#X msg 32 288 1;
#X msg 71 285 0;
#X obj 28 343 spigot 1;
#X symbolatom 106 135 20 0 0 0 - - -, f 20;
#X obj 220 100 u_rollmenu \$0-input 0;
#X obj 26 391 text search \$0-input;
#X obj 750 428 text define -k \$0-input;
#A set no-in no-in no-in \; IN(1/2) IN1 IN2 \; IN(3/4) IN3 IN4 \; MASTER
MASTER-r MASTER-l \; OUT(1/2) OUT1 OUT2 \; OUT(3/4) OUT3 OUT4 \;;
#X obj 59 253 s \$0-source;
#X obj 676 49 u_dispatch \$0 source;
#X obj 705 110 s \$0-source;
#X msg 626 2 source no-in;
#X obj 18 313 r \$0-source;
#X obj 522 6 loadbang;
#X obj 974 4 declare -path ../../ressources/core;
#X obj 974 34 declare -path ../../ressources/rj;
#X obj 970 65 declare -lib zexy;
#X connect 1 0 3 0;
#X connect 2 0 3 0;
#X connect 4 0 5 0;
#X connect 5 0 52 0;
#X connect 5 0 62 0;
#X connect 6 0 7 0;
#X connect 6 0 14 0;
#X connect 7 0 2 0;
#X connect 7 0 9 0;
#X connect 7 1 8 0;
#X connect 7 1 10 0;
#X connect 7 1 11 0;
#X connect 8 0 33 0;
#X connect 8 1 5 0;
#X connect 9 0 26 0;
#X connect 10 0 26 0;
#X connect 11 0 15 0;
#X connect 12 0 11 0;
#X connect 13 0 11 1;
#X connect 14 0 11 1;
#X connect 15 0 16 0;
#X connect 16 0 17 0;
#X connect 17 0 23 0;
#X connect 17 1 24 0;
#X connect 18 0 20 0;
#X connect 19 0 22 1;
#X connect 21 0 22 0;
#X connect 22 0 18 0;
#X connect 23 0 21 0;
#X connect 24 0 19 0;
#X connect 26 0 43 0;
#X connect 29 0 50 0;
#X connect 31 0 32 0;
#X connect 32 0 29 0;
#X connect 33 0 1 0;
#X connect 34 0 67 0;
#X connect 35 0 36 0;
#X connect 35 0 42 0;
#X connect 35 0 51 1;
#X connect 38 0 37 0;
#X connect 38 0 41 0;
#X connect 38 0 51 0;
#X connect 39 0 40 0;
#X connect 39 0 34 0;
#X connect 41 0 3 0;
#X connect 42 0 3 1;
#X connect 44 0 46 0;
#X connect 45 0 46 1;
#X connect 46 0 6 0;
#X connect 46 0 47 0;
#X connect 47 0 26 0;
#X connect 48 0 29 0;
#X connect 49 0 3 0;
#X connect 49 0 30 0;
#X connect 50 0 52 1;
#X connect 52 0 49 0;
#X connect 53 0 41 0;
#X connect 53 0 51 0;
#X connect 54 0 42 0;
#X connect 54 0 51 1;
#X connect 55 0 57 0;
#X connect 55 1 56 0;
#X connect 56 0 53 0;
#X connect 56 1 54 0;
#X connect 57 0 59 0;
#X connect 57 1 66 0;
#X connect 57 2 60 0;
#X connect 58 0 64 0;
#X connect 59 0 61 1;
#X connect 60 0 61 1;
#X connect 61 0 58 0;
#X connect 63 0 55 0;
#X connect 64 0 63 0;
#X connect 69 0 34 0;
#X connect 70 0 61 0;
#X connect 71 0 69 0;
#X coords 0 -1 1 1 190 70 1 100 100;
