#N canvas 305 120 450 300 10;
#X declare -path ../../ressources/core;
#X declare -path ../../ressources/rj;
#X declare -path ../../ressources/modules;
#X obj 99 83 inlet~;
#X obj 192 83 inlet~;
#X obj 283 83 inlet;
#X obj 99 170 outlet~;
#X obj 192 170 outlet~;
#X obj 283 170 outlet;
#N canvas 0 50 450 300 \$0-module 0;
#X coords 0 -1 1 1 190 70 2 100 100;
#X restore 100 100 pd \$0-module;
#X obj 345 113 namecanvas \$0-container;
#N canvas 938 177 845 600 stuff 1;
#X obj 63 385 s pd-\$0-module;
#X msg 119 231 clear;
#X obj 45 471 s \$0-container;
#X msg 45 433 connect 0 0 6 0 \, connect 1 0 6 1 \, connect 2 0 6 2
\, connect 6 0 3 0 \, connect 6 1 4 0 \, connect 6 2 5 0;
#X obj 100 258 list prepend obj 100 100;
#X obj 100 280 list trim;
#X obj 45 202 t b b b a b;
#X msg 63 349 connect 1 0 0 0 \, connect 2 0 0 1 \, connect 3 0 0 2
\, connect 0 0 4 0 \, connect 0 1 5 0 \, connect 0 2 6 0 \, loadbang
;
#X obj 104 61 route clear;
#X msg 82 314 obj 100 83 inlet~ \, obj 190 83 inlet~ \, obj 285 83
inlet \, obj 100 170 outlet~ \, obj 190 170 outlet~ \, obj 285 170
outlet;
#X obj 213 110 text search \$0-content;
#X obj 463 229 text define \$0-content;
#X obj 212 57 list;
#X obj 212 79 t l l;
#X obj 213 132 select -1;
#X obj 211 151 list append;
#X obj 211 173 t l l b;
#X msg 449 204 clear;
#X obj 270 210 text set \$0-content;
#X obj 89 85 t b b, f 7;
#X obj 19 145 s pd-\$0-module;
#X msg 21 113 clear;
#X obj 569 351 module_loader container \$0 \$1;
#X obj 569 374 u_dispatch \$0 embedded;
#X obj 102 5 r \$0-embedded;
#X msg 573 286 loadbang;
#X msg 573 309 embedded clear;
#X obj 103 28 list trim;
#X obj 534 24 declare -path ../../ressources/core;
#X obj 534 54 declare -path ../../ressources/rj;
#X obj 534 87 declare -path ../../ressources/modules;
#X connect 1 0 0 0;
#X connect 3 0 2 0;
#X connect 4 0 5 0;
#X connect 5 0 0 0;
#X connect 6 0 3 0;
#X connect 6 1 7 0;
#X connect 6 2 9 0;
#X connect 6 3 4 0;
#X connect 6 4 1 0;
#X connect 7 0 0 0;
#X connect 8 0 19 0;
#X connect 8 1 12 0;
#X connect 9 0 0 0;
#X connect 10 0 14 0;
#X connect 12 0 13 0;
#X connect 13 0 10 0;
#X connect 13 1 15 1;
#X connect 14 0 15 0;
#X connect 15 0 16 0;
#X connect 16 0 6 0;
#X connect 16 1 18 0;
#X connect 16 2 17 0;
#X connect 17 0 11 0;
#X connect 19 0 21 0;
#X connect 19 1 17 0;
#X connect 21 0 20 0;
#X connect 22 0 23 0;
#X connect 24 0 27 0;
#X connect 25 0 26 0;
#X connect 26 0 22 0;
#X connect 27 0 8 0;
#X restore 344 137 pd stuff;
#X text 96 39 0;
#X text 179 40 1;
#X text 277 38 2;
#X text 110 217 3;
#X text 199 220 4;
#X text 298 215 5;
#X text 75 109 6;
#X coords 0 -1 1 1 190 70 2 100 100;
