#N struct 1018-symarray float x array symbols 1018-sym;
#N struct 1018-sym symbol name float on;
#N canvas 414 84 727 358 10;
#X text 45 221 EXPERIMENTAL ALPHA;
#X obj 25 223 tgl 15 0 empty empty V 4 8 0 12 -4034 -4034 -1 0 1;
#X obj 25 274 tgl 15 0 empty empty X 4 8 0 12 -258113 -258113 -1 0
1;
#X text 47 245 Instances multiples;
#X obj 25 248 tgl 15 0 empty empty ? 4 8 0 12 -260097 -260097 -1 0
1;
#X text 27 25 transforme en événements midi les frappes sur le clavier
azerty;
#X text 23 57 ou remappe une certaine zone de notein sur son data_outlet
;
#X text 19 85 (pour affecter différentes zones du clavier à différents
racks/pistes);
#X obj 21 131 data_azerty2midi;
#X text 199 236 TODO : touche shift pour maintenir appuyé les touches
;
#X text 262 141 BUGS: problèmes sur certains systèmes MAC \, où
le message keyup arrive immédiatement apres le message key;
#X text 260 175 il est conseillé de désactiver l'auto repeat des
touches sur le système;
