#N canvas 106 87 1362 685 10;
#X declare -path ../../ressources/core;
#X declare -path ../../ressources/rj;
#N canvas 172 83 586 377 LICENSE-GPL 0;
#X text 57 88 This program is free software: you can redistribute it
and/or modify it under the terms of the GNU General Public License
as published by the Free Software Foundation \, either version 3 of
the License \, or (at your option) any later version.;
#X text 58 168 This program is distributed in the hope that it will
be useful \, but WITHOUT ANY WARRANTY \; without even the implied warranty
of MERCHANTABILITY or FITNESS FOR A PARTICULAR PURPOSE. See the GNU
General Public License for more details.;
#X text 57 261 You should have received a copy of the GNU General Public
License along with this program. If not \, see <http://www.gnu.org/licenses/>.
;
#X text 61 54 Copyright (C) 2009 \, Reality Jockey Ltd.;
#X text 60 325 See the file LICENSE.txt for the full license text.
;
#X restore 298 15 pd LICENSE-GPL;
#X obj 283 399 list prepend wintablet;
#X obj 259 437 list trim;
#X obj 797 9 t f f;
#X obj 830 34 & 1;
#X obj 799 37 & 6;
#X obj 767 73 +;
#X obj 765 39 * 8;
#X obj 818 90 - 8;
#X obj 818 112 / 2;
#X msg 810 225 0;
#X msg 844 224 1;
#X msg 882 223 2;
#X msg 917 221 3;
#X obj 644 346 spigot;
#X obj 403 303 / 8;
#X obj 433 303 / 8;
#X obj 463 303 / 8;
#X obj 402 330 pack f f f;
#X obj 680 409 unpack f f f;
#X obj 617 565 r \$0-ccx;
#X obj 566 593 pack f f 1;
#X obj 656 593 pack f f 1;
#X obj 707 565 r \$0-ccy;
#X obj 736 593 pack f f 1;
#X obj 787 565 r \$0-ccz;
#X obj 806 199 select 0 1 2 4 5;
#X msg 947 221 4;
#X obj 548 134 t b;
#X msg 496 485 1;
#X obj 655 637 s CTLIN;
#X obj 575 627 t b l;
#X msg 496 505 1;
#X msg 496 525 1;
#X obj 540 454 r \$0-testx;
#X obj 540 474 r \$0-testy;
#X obj 540 494 r \$0-testz;
#X obj 676 463 spigot;
#X obj 711 437 r \$0-ccx_enable;
#X obj 721 493 spigot;
#X obj 756 467 r \$0-ccy_enable;
#X obj 766 533 spigot;
#X obj 801 507 r \$0-ccz_enable;
#X obj 101 101 cnv 15 188 68 empty \$0-background data_wintablet 0
7 0 14 -262144 -1 0;
#X obj 100 140 bng 30 250 50 0 empty empty open_wintablet 17 7 0 10
-262144 -1 -1;
#X obj 193 22 vsl 70 17 1 0 0 0 \$0-presets \$0-presets-rcv PRESETS
4 5 0 10 -232576 -232576 -1 0 1;
#X obj 198 118 cnv 10 90 50 empty empty empty 20 12 0 14 -262138 -66577
0;
#X obj 229 119 bng 8 50 10 0 empty empty empty 17 7 0 10 -262144 -1
-1;
#X obj 276 128 tgl 14 0 \$0-ccx_enable \$0-ccx_enable-rcv empty 0 6
0 10 -203904 -1 -1 0 1;
#X obj 200 128 bng 14 250 50 0 \$0-testx empty empty 17 7 0 10 -262144
-1 -1;
#X obj 200 142 bng 14 250 50 0 \$0-testy empty empty 17 7 0 10 -262144
-1 -1;
#X obj 200 156 bng 14 250 50 0 \$0-testz empty empty 17 7 0 10 -262144
-1 -1;
#X obj 276 142 tgl 14 0 \$0-ccy_enable \$0-ccy_enable-rcv empty 0 6
0 10 -203904 -1 -1 0 1;
#X obj 276 156 tgl 14 0 \$0-ccz_enable \$0-ccz_enable-rcv empty 0 6
0 10 -203904 -1 -1 0 1;
#X floatatom 214 128 5 0 127 1 ccx #0-ccx-rcv #0-ccx, f 5;
#X floatatom 214 142 5 0 127 1 ccy #0-ccy-rcv #0-ccy, f 5;
#X floatatom 214 156 5 0 127 1 ccz #0-ccz-rcv #0-ccz, f 5;
#X obj 19 400 inlet~;
#X obj 19 446 outlet~;
#X obj 79 400 inlet~;
#X obj 79 446 outlet~;
#X obj 430 16 inlet data;
#X obj 265 560 outlet data;
#X obj 404 85 module_loader data_wintablet \$0 \$1;
#X obj 796 372 pack f f;
#X msg 972 138 stop;
#X obj 796 348 +;
#X obj 986 255 r \$0-noteout;
#X msg 796 392 note \$1 \$2;
#X obj 905 86 select 0;
#X obj 986 277 + 1;
#X obj 805 175 spigot;
#X obj 790 260 change;
#X obj 830 56 change;
#X msg 915 146 set -1;
#X obj 905 108 t b b;
#X obj 772 327 poly 1 1;
#X obj 818 134 spigot;
#X obj 778 289 list append 100;
#X obj 306 470 r \$0-send_to_video;
#X obj 258 501 spigot;
#X obj 519 357 tgl 15 0 empty empty empty 17 7 0 10 -262144 -1 -1 0
1;
#X obj 169 544 s TO_VIDEO;
#X obj 207 522 list prepend PARTICULES;
#X obj 1109 321 data_wintablet/analyserotation 5;
#X obj 486 55 namecanvas \$0-multitab;
#X obj 484 35 ui_multitab \$0;
#X obj 245 100 hradio 15 1 0 3 \$0-guitab \$0-guitab-rcv empty 0 -8
0 10 -191407 -1 -1 1;
#X obj 101 201 cnv 15 188 68 empty \$0-background data_wintablet 0
7 0 14 -262144 -1 0;
#X obj 245 200 hradio 15 1 0 3 \$0-guitab \$0-guitab-rcv empty 0 -8
0 10 -191407 -1 -1 1;
#X obj 102 219 tgl 15 0 \$0-send_to_video \$0-send_to_video-rcv video_data_out
17 7 0 10 -262144 -1 -1 0 1;
#X obj 102 239 hradio 15 1 0 2 \$0-wintabmode \$0-wintabmode-rcv WinTabMode
33 7 0 10 -262144 -1 -1 1;
#X floatatom 225 235 5 -1 127 2 note_out #0-noteout-rcv #0-noteout
, f 5;
#X obj 101 117 hradio 15 1 0 2 \$0-wintabmode \$0-wintabmode-rcv WinTabMode
33 7 0 10 -262144 -1 -1 1;
#X text 120 251 |;
#X text 122 255 ->;
#X obj 142 255 hsl 75 15 0.01 10 1 0 \$0-velocity_out \$0-velocity_out-rcv
vel.out=0.5 1 7 0 10 -204786 -1 -1 0 1;
#X obj 1105 362 r \$0-wintabmode;
#X obj 1046 388 spigot;
#X obj 1052 557 *;
#X obj 1074 532 r \$0-velocity_out;
#X msg 1046 585 scratch_speed \$1;
#X obj 101 301 cnv 15 188 68 empty \$0-background data_wintablet 0
7 0 14 -262144 -1 0;
#X obj 276 328 tgl 14 0 \$0-btn1_enable \$0-btn1_enable-rcv empty 0
6 0 10 -203904 -1 -1 0 1;
#X obj 190 328 bng 14 250 50 0 \$0-test_btn1 empty empty 17 7 0 10
-262144 -1 -1;
#X floatatom 204 328 5 0 127 1 btn1 #0-btn1-rcv #0-btn1, f 5;
#X obj 836 643 pack f f 1;
#X obj 866 583 spigot;
#X obj 901 557 r \$0-btn1_enable;
#X obj 887 615 r \$0-btn1;
#X obj 947 463 & 2;
#X obj 947 485 != 0;
#X obj 947 507 * 100;
#X obj 245 300 hradio 15 1 0 3 \$0-guitab \$0-guitab-rcv empty 0 -8
0 10 -191407 -1 -1 1;
#X obj 984 632 r \$0-test_btn1;
#X msg 984 654 100;
#X obj 1046 432 +;
#X obj 1046 454 t f f;
#X obj 1046 410 * 0.08;
#X obj 1099 471 * 0.92;
#N canvas 0 50 450 300 speed_lim 0;
#X obj 91 12 inlet;
#X obj 87 105 t b b a;
#X obj 83 278 list append;
#X obj 83 307 list trim;
#X msg 129 200 1;
#X msg 57 177 0;
#X obj 83 332 outlet;
#X obj 33 226 change;
#X obj 55 145 delay 100;
#X obj 83 249 metro 100;
#X connect 0 0 1 0;
#X connect 1 0 8 0;
#X connect 1 1 4 0;
#X connect 1 2 2 1;
#X connect 2 0 3 0;
#X connect 3 0 6 0;
#X connect 4 0 7 0;
#X connect 5 0 7 0;
#X connect 7 0 9 0;
#X connect 8 0 5 0;
#X connect 9 0 2 0;
#X restore 409 253 pd speed_lim;
#X obj 404 276 unpack f f f f f;
#X obj 403 231 pack f f f f f;
#X obj 396 207 wintablet;
#N canvas 1 56 450 300 u_parameters 0;
#X obj 127 50 u_parameter \$0 ccx;
#X obj 122 73 u_parameter \$0 ccy;
#X obj 123 93 u_parameter \$0 ccz;
#X obj 123 116 u_parameter \$0 ccx_enable;
#X obj 123 136 u_parameter \$0 ccy_enable;
#X obj 123 156 u_parameter \$0 ccz_enable;
#X obj 123 178 u_parameter \$0 noteout;
#X obj 123 200 u_parameter \$0 send_to_video;
#X obj 123 223 u_parameter \$0 wintabmode;
#X obj 123 243 u_parameter \$0 velocity_out;
#X obj 123 273 u_parameter \$0 btn1;
#X obj 123 296 u_parameter \$0 btn1_enable;
#X obj 118 15 inlet;
#X connect 0 0 1 0;
#X connect 1 0 2 0;
#X connect 2 0 3 0;
#X connect 3 0 4 0;
#X connect 4 0 5 0;
#X connect 5 0 6 0;
#X connect 6 0 7 0;
#X connect 7 0 8 0;
#X connect 8 0 9 0;
#X connect 9 0 10 0;
#X connect 10 0 11 0;
#X connect 12 0 0 0;
#X restore 405 113 pd u_parameters;
#X obj 1120 153 r \$0-velocity_out;
#X obj 1120 175 * 100;
#X obj 1120 197 int;
#X obj 1120 219 / 100;
#X msg 1120 241 label vel.out=\$1;
#X obj 1120 263 s \$0-velocity_out-rcv;
#X obj 1084 4 declare -path ../../ressources/core;
#X obj 1084 34 declare -path ../../ressources/rj;
#X connect 1 0 2 0;
#X connect 2 0 62 0;
#X connect 2 0 80 0;
#X connect 3 0 5 0;
#X connect 3 1 4 0;
#X connect 4 0 14 1;
#X connect 4 0 71 1;
#X connect 4 0 73 0;
#X connect 5 0 6 1;
#X connect 6 0 8 0;
#X connect 7 0 6 0;
#X connect 8 0 9 0;
#X connect 9 0 77 0;
#X connect 10 0 72 0;
#X connect 11 0 72 0;
#X connect 12 0 72 0;
#X connect 13 0 72 0;
#X connect 14 0 19 0;
#X connect 15 0 18 0;
#X connect 16 0 18 1;
#X connect 17 0 18 2;
#X connect 18 0 14 0;
#X connect 19 0 37 0;
#X connect 19 1 39 0;
#X connect 19 2 41 0;
#X connect 20 0 21 1;
#X connect 21 0 31 0;
#X connect 22 0 31 0;
#X connect 23 0 22 1;
#X connect 24 0 31 0;
#X connect 25 0 24 1;
#X connect 26 0 10 0;
#X connect 26 1 11 0;
#X connect 26 2 12 0;
#X connect 26 3 13 0;
#X connect 26 4 27 0;
#X connect 27 0 72 0;
#X connect 28 0 47 0;
#X connect 29 0 21 0;
#X connect 31 0 28 0;
#X connect 31 1 30 0;
#X connect 32 0 22 0;
#X connect 33 0 24 0;
#X connect 34 0 29 0;
#X connect 35 0 32 0;
#X connect 36 0 33 0;
#X connect 37 0 21 0;
#X connect 38 0 37 1;
#X connect 39 0 22 0;
#X connect 40 0 39 1;
#X connect 41 0 24 0;
#X connect 42 0 41 1;
#X connect 44 0 123 0;
#X connect 57 0 58 0;
#X connect 59 0 60 0;
#X connect 61 0 63 0;
#X connect 63 0 124 0;
#X connect 64 0 68 0;
#X connect 65 0 76 0;
#X connect 66 0 64 0;
#X connect 67 0 66 1;
#X connect 67 0 70 0;
#X connect 68 0 62 0;
#X connect 69 0 75 0;
#X connect 70 0 77 1;
#X connect 71 0 26 0;
#X connect 72 0 78 0;
#X connect 73 0 69 0;
#X connect 74 0 72 0;
#X connect 75 0 74 0;
#X connect 75 1 65 0;
#X connect 76 1 66 0;
#X connect 76 2 64 1;
#X connect 77 0 71 0;
#X connect 78 0 76 0;
#X connect 79 0 80 1;
#X connect 80 0 83 0;
#X connect 83 0 82 0;
#X connect 84 0 98 0;
#X connect 97 0 98 1;
#X connect 98 0 118 0;
#X connect 99 0 101 0;
#X connect 100 0 99 1;
#X connect 101 0 62 0;
#X connect 106 0 30 0;
#X connect 107 0 106 0;
#X connect 108 0 107 1;
#X connect 109 0 106 1;
#X connect 110 0 111 0;
#X connect 111 0 112 0;
#X connect 112 0 107 0;
#X connect 114 0 115 0;
#X connect 115 0 106 0;
#X connect 116 0 117 0;
#X connect 117 0 99 0;
#X connect 117 1 119 0;
#X connect 118 0 116 0;
#X connect 119 0 116 1;
#X connect 120 0 121 0;
#X connect 120 0 1 0;
#X connect 121 0 15 0;
#X connect 121 0 84 0;
#X connect 121 1 16 0;
#X connect 121 1 84 1;
#X connect 121 2 17 0;
#X connect 121 3 7 0;
#X connect 121 4 3 0;
#X connect 121 4 110 0;
#X connect 122 0 120 0;
#X connect 123 0 122 0;
#X connect 123 1 122 1;
#X connect 123 2 122 2;
#X connect 123 3 122 3;
#X connect 123 4 122 4;
#X connect 125 0 126 0;
#X connect 126 0 127 0;
#X connect 127 0 128 0;
#X connect 128 0 129 0;
#X connect 129 0 130 0;
#X coords 0 0 1 1 190 70 1 100 200;
