#N struct 1644-symarray float x array symbols 1644-sym;
#N struct 1644-sym symbol name float on;
#N canvas 1 550 1039 531 10;
#X declare -path ../../ressources/core;
#X declare -path ../../ressources/rj;
#N canvas 172 83 586 377 LICENSE-GPL 0;
#X text 57 88 This program is free software: you can redistribute it
and/or modify it under the terms of the GNU General Public License
as published by the Free Software Foundation \, either version 3 of
the License \, or (at your option) any later version.;
#X text 58 168 This program is distributed in the hope that it will
be useful \, but WITHOUT ANY WARRANTY \; without even the implied warranty
of MERCHANTABILITY or FITNESS FOR A PARTICULAR PURPOSE. See the GNU
General Public License for more details.;
#X text 57 261 You should have received a copy of the GNU General Public
License along with this program. If not \, see <http://www.gnu.org/licenses/>.
;
#X text 61 54 Copyright (C) 2009 \, Reality Jockey Ltd.;
#X text 60 325 See the file LICENSE.txt for the full license text.
;
#X restore 298 15 pd LICENSE-GPL;
#N canvas 1 56 1362 685 keyboard 0;
#X obj 253 754 outlet;
#X text 132 101 touche appuyée;
#X text 543 97 touche relachée;
#X obj 353 98 r \$0-busy;
#X obj 64 118 spigot;
#X obj 484 128 spigot;
#X obj 74 188 spigot;
#X obj 494 198 spigot;
#X obj 363 168 r \$0-enable;
#X obj 700 410 table \$0-notes 127;
#X obj 490 214 list prepend 0;
#N canvas 1 56 873 712 azerty 0;
#X obj 61 81 inlet;
#X obj 310 79 inlet;
#X obj 250 639 outlet;
#X msg 290 584 \$1 0;
#X text 240 538 message 'note on';
#X text 523 479 message 'note off';
#X text 19 382 numéro de note midi correspondant;
#N canvas 0 50 851 445 azerty_to_midi 0;
#X obj 123 66 inlet;
#X text 151 193 |Q|S|D|F|G|H|J|K|L|M|;
#X text 164 162 |Z|E| |T|Y|U| |O|P|;
#X obj 624 402 select 122 101 116 121 117 111 112;
#X obj 42 229 select 113 115 100 102 103 104 106 107 108 109;
#X msg 42 294 72;
#X msg 106 295 74;
#X msg 170 295 76;
#X msg 234 296 77;
#X msg 298 298 79;
#X msg 362 298 81;
#X msg 427 300 83;
#X msg 491 299 84;
#X msg 554 298 86;
#X msg 618 297 88;
#X msg 623 474 73;
#X msg 691 472 75;
#X msg 759 473 78;
#X msg 827 474 80;
#X msg 894 472 82;
#X msg 961 473 85;
#X msg 1029 473 87;
#X text 46 258 do;
#X text 107 260 ré;
#X text 175 261 mi;
#X text 239 262 fa;
#X text 302 262 sol;
#X text 366 262 la;
#X text 434 261 si;
#X text 498 262 do;
#X text 557 262 ré;
#X text 625 263 mi;
#X text 618 438 do#;
#X text 679 438 ré#;
#X text 765 439 fa#;
#X text 833 439 sol#;
#X text 900 437 la#;
#X text 966 437 do#;
#X text 1045 439 ré#;
#X obj 310 564 outlet;
#X text 204 72 conversion code ascii des touches en numéros de notes
midi;
#X connect 0 0 4 0;
#X connect 3 0 15 0;
#X connect 3 1 16 0;
#X connect 3 2 17 0;
#X connect 3 3 18 0;
#X connect 3 4 19 0;
#X connect 3 5 20 0;
#X connect 3 6 21 0;
#X connect 4 0 5 0;
#X connect 4 1 6 0;
#X connect 4 2 7 0;
#X connect 4 3 8 0;
#X connect 4 4 9 0;
#X connect 4 5 10 0;
#X connect 4 6 11 0;
#X connect 4 7 12 0;
#X connect 4 8 13 0;
#X connect 4 9 14 0;
#X connect 4 10 3 0;
#X connect 5 0 39 0;
#X connect 6 0 39 0;
#X connect 7 0 39 0;
#X connect 8 0 39 0;
#X connect 9 0 39 0;
#X connect 10 0 39 0;
#X connect 11 0 39 0;
#X connect 12 0 39 0;
#X connect 13 0 39 0;
#X connect 14 0 39 0;
#X connect 15 0 39 0;
#X connect 16 0 39 0;
#X connect 17 0 39 0;
#X connect 18 0 39 0;
#X connect 19 0 39 0;
#X connect 20 0 39 0;
#X connect 21 0 39 0;
#X restore 90 274 pd azerty_to_midi;
#N canvas 1 56 851 477 azerty_to_midi 0;
#X obj 123 66 inlet;
#X text 151 193 |Q|S|D|F|G|H|J|K|L|M|;
#X text 164 162 |Z|E| |T|Y|U| |O|P|;
#X obj 624 402 select 122 101 116 121 117 111 112;
#X obj 42 229 select 113 115 100 102 103 104 106 107 108 109;
#X msg 42 294 72;
#X msg 106 295 74;
#X msg 170 295 76;
#X msg 234 296 77;
#X msg 298 298 79;
#X msg 362 298 81;
#X msg 427 300 83;
#X msg 491 299 84;
#X msg 554 298 86;
#X msg 618 297 88;
#X msg 623 474 73;
#X msg 691 472 75;
#X msg 759 473 78;
#X msg 827 474 80;
#X msg 894 472 82;
#X msg 961 473 85;
#X msg 1029 473 87;
#X text 46 258 do;
#X text 107 260 ré;
#X text 175 261 mi;
#X text 239 262 fa;
#X text 302 262 sol;
#X text 366 262 la;
#X text 434 261 si;
#X text 498 262 do;
#X text 557 262 ré;
#X text 625 263 mi;
#X text 618 438 do#;
#X text 679 438 ré#;
#X text 765 439 fa#;
#X text 833 439 sol#;
#X text 900 437 la#;
#X text 966 437 do#;
#X text 1045 439 ré#;
#X obj 310 564 outlet;
#X text 204 72 conversion code ascii des touches en numéros de notes
midi;
#X connect 0 0 4 0;
#X connect 3 0 15 0;
#X connect 3 1 16 0;
#X connect 3 2 17 0;
#X connect 3 3 18 0;
#X connect 3 4 19 0;
#X connect 3 5 20 0;
#X connect 3 6 21 0;
#X connect 4 0 5 0;
#X connect 4 1 6 0;
#X connect 4 2 7 0;
#X connect 4 3 8 0;
#X connect 4 4 9 0;
#X connect 4 5 10 0;
#X connect 4 6 11 0;
#X connect 4 7 12 0;
#X connect 4 8 13 0;
#X connect 4 9 14 0;
#X connect 4 10 3 0;
#X connect 5 0 39 0;
#X connect 6 0 39 0;
#X connect 7 0 39 0;
#X connect 8 0 39 0;
#X connect 9 0 39 0;
#X connect 10 0 39 0;
#X connect 11 0 39 0;
#X connect 12 0 39 0;
#X connect 13 0 39 0;
#X connect 14 0 39 0;
#X connect 15 0 39 0;
#X connect 16 0 39 0;
#X connect 17 0 39 0;
#X connect 18 0 39 0;
#X connect 19 0 39 0;
#X connect 20 0 39 0;
#X connect 21 0 39 0;
#X restore 370 274 pd azerty_to_midi;
#X obj 70 161 select 119 120 99 118;
#X text 201 207 w x c v;
#X obj 422 238 select 119 120 99 118;
#N canvas 0 50 450 300 changement_octave 0;
#X obj 99 53 inlet down;
#X obj 189 53 inlet up;
#X obj 144 180 max -2;
#X obj 109 153 +;
#X msg 89 90 -1;
#X msg 186 92 1;
#X obj 126 127 r \$0-oct;
#X obj 232 197 s \$0-oct;
#X obj 221 174 min 7;
#X connect 0 0 4 0;
#X connect 1 0 5 0;
#X connect 2 0 8 0;
#X connect 3 0 2 0;
#X connect 4 0 3 0;
#X connect 5 0 3 0;
#X connect 6 0 3 1;
#X connect 8 0 7 0;
#X restore 58 191 pd changement_octave;
#X obj 211 337 * 12;
#X obj 60 340 +;
#X obj 521 347 * 12;
#X obj 370 350 +;
#X obj 219 426 r \$0-velo;
#N canvas 0 50 436 467 changement_velocite 0;
#X obj 99 53 inlet down;
#X obj 189 53 inlet up;
#X obj 87 170 +;
#X obj 195 122 r \$0-velo;
#X obj 119 295 s \$0-velo;
#X msg 89 90 -20;
#X msg 186 92 20;
#X obj 107 245 max 1;
#X obj 108 272 min 127;
#X msg 226 217 120;
#X obj 205 182 select 107 21;
#X msg 322 213 20;
#X connect 0 0 5 0;
#X connect 1 0 6 0;
#X connect 2 0 10 0;
#X connect 3 0 2 1;
#X connect 5 0 2 0;
#X connect 6 0 2 0;
#X connect 7 0 8 0;
#X connect 8 0 4 0;
#X connect 9 0 7 0;
#X connect 10 0 9 0;
#X connect 10 1 11 0;
#X connect 10 2 7 0;
#X connect 11 0 7 0;
#X restore 238 191 pd changement_velocite;
#X obj 220 312 r \$0-oct;
#X obj 530 322 r \$0-oct;
#X obj 64 306 - 48;
#X obj 388 308 - 48;
#X obj 203 558 pack f 80;
#X obj 52 405 t f f;
#X obj 82 432 tabread \$0-notes;
#X obj 87 457 == 0;
#X obj 72 583 tabwrite \$0-notes;
#X obj 49 488 spigot;
#X obj 49 510 t f b f;
#X msg 70 547 1;
#X obj 428 410 t f b f;
#X obj 492 453 tabwrite \$0-notes;
#X msg 492 430 0;
#X connect 0 0 9 0;
#X connect 1 0 11 0;
#X connect 3 0 2 0;
#X connect 7 0 21 0;
#X connect 8 0 22 0;
#X connect 9 0 12 0;
#X connect 9 1 12 1;
#X connect 9 2 18 0;
#X connect 9 3 18 1;
#X connect 9 4 7 0;
#X connect 11 4 8 0;
#X connect 13 0 14 1;
#X connect 14 0 24 0;
#X connect 15 0 16 1;
#X connect 16 0 31 0;
#X connect 17 0 23 1;
#X connect 19 0 13 0;
#X connect 20 0 15 0;
#X connect 21 0 14 0;
#X connect 22 0 16 0;
#X connect 23 0 2 0;
#X connect 24 0 28 0;
#X connect 24 1 25 0;
#X connect 25 0 26 0;
#X connect 26 0 28 1;
#X connect 28 0 29 0;
#X connect 29 0 23 0;
#X connect 29 1 30 0;
#X connect 29 2 27 1;
#X connect 30 0 27 0;
#X connect 31 0 3 0;
#X connect 31 1 33 0;
#X connect 31 2 32 1;
#X connect 33 0 32 0;
#X restore 289 504 pd azerty;
#X obj 147 225 list prepend 0;
#X obj 152 251 route 0 1;
#X obj 489 246 route 0 1;
#N canvas 643 278 873 712 qwerty 0;
#X obj 61 81 inlet;
#X obj 310 79 inlet;
#X obj 250 639 outlet;
#X msg 290 584 \$1 0;
#X text 240 538 message 'note on';
#X text 523 479 message 'note off';
#X text 19 382 numéro de note midi correspondant;
#N canvas 0 50 450 300 changement_octave 0;
#X obj 99 53 inlet down;
#X obj 189 53 inlet up;
#X obj 144 180 max -2;
#X obj 109 153 +;
#X msg 89 90 -1;
#X msg 186 92 1;
#X obj 126 127 r \$0-oct;
#X obj 232 197 s \$0-oct;
#X obj 221 174 min 7;
#X connect 0 0 4 0;
#X connect 1 0 5 0;
#X connect 2 0 8 0;
#X connect 3 0 2 0;
#X connect 4 0 3 0;
#X connect 5 0 3 0;
#X connect 6 0 3 1;
#X connect 8 0 7 0;
#X restore 58 191 pd changement_octave;
#X obj 211 337 * 12;
#X obj 60 340 +;
#X obj 521 347 * 12;
#X obj 370 350 +;
#X obj 219 426 r \$0-velo;
#N canvas 0 50 436 467 changement_velocite 0;
#X obj 99 53 inlet down;
#X obj 189 53 inlet up;
#X obj 87 170 +;
#X obj 195 122 r \$0-velo;
#X obj 119 295 s \$0-velo;
#X msg 89 90 -20;
#X msg 186 92 20;
#X obj 107 245 max 1;
#X obj 108 272 min 127;
#X msg 226 217 120;
#X obj 205 182 select 107 21;
#X msg 322 213 20;
#X connect 0 0 5 0;
#X connect 1 0 6 0;
#X connect 2 0 10 0;
#X connect 3 0 2 1;
#X connect 5 0 2 0;
#X connect 6 0 2 0;
#X connect 7 0 8 0;
#X connect 8 0 4 0;
#X connect 9 0 7 0;
#X connect 10 0 9 0;
#X connect 10 1 11 0;
#X connect 10 2 7 0;
#X connect 11 0 7 0;
#X restore 238 191 pd changement_velocite;
#X obj 220 312 r \$0-oct;
#X obj 530 322 r \$0-oct;
#X obj 64 306 - 48;
#X obj 388 308 - 48;
#X obj 203 558 pack f 80;
#X obj 52 405 t f f;
#X obj 82 432 tabread \$0-notes;
#X obj 87 457 == 0;
#X obj 72 583 tabwrite \$0-notes;
#X obj 49 488 spigot;
#X obj 49 510 t f b f;
#X msg 70 547 1;
#X obj 428 410 t f b f;
#X obj 492 453 tabwrite \$0-notes;
#X msg 492 430 0;
#X obj 70 161 select 122 120 99 118;
#X obj 422 238 select 122 120 99 118;
#X text 201 207 z x c v;
#N canvas 1 56 1142 739 qwerty_to_midi 0;
#X obj 123 66 inlet;
#X msg 42 294 72;
#X msg 106 295 74;
#X msg 170 295 76;
#X msg 234 296 77;
#X msg 298 298 79;
#X msg 362 298 81;
#X msg 427 300 83;
#X msg 491 299 84;
#X msg 554 298 86;
#X msg 618 297 88;
#X msg 623 474 73;
#X msg 691 472 75;
#X msg 759 473 78;
#X msg 827 474 80;
#X msg 894 472 82;
#X msg 961 473 85;
#X msg 1029 473 87;
#X text 46 258 do;
#X text 107 260 ré;
#X text 175 261 mi;
#X text 239 262 fa;
#X text 302 262 sol;
#X text 366 262 la;
#X text 434 261 si;
#X text 498 262 do;
#X text 557 262 ré;
#X text 625 263 mi;
#X text 618 438 do#;
#X text 679 438 ré#;
#X text 765 439 fa#;
#X text 833 439 sol#;
#X text 900 437 la#;
#X text 966 437 do#;
#X text 1045 439 ré#;
#X obj 310 564 outlet;
#X text 204 72 conversion code ascii des touches en numéros de notes
midi;
#X text 164 162 |W|E| |T|Y|U| |O|P|;
#X text 151 193 |A|S|D|F|G|H|J|K|L| \; |;
#X obj 42 229 select 97 115 100 102 103 104 106 107 108 59;
#X obj 624 402 select 119 101 116 121 117 111 112;
#X connect 0 0 39 0;
#X connect 1 0 35 0;
#X connect 2 0 35 0;
#X connect 3 0 35 0;
#X connect 4 0 35 0;
#X connect 5 0 35 0;
#X connect 6 0 35 0;
#X connect 7 0 35 0;
#X connect 8 0 35 0;
#X connect 9 0 35 0;
#X connect 10 0 35 0;
#X connect 11 0 35 0;
#X connect 12 0 35 0;
#X connect 13 0 35 0;
#X connect 14 0 35 0;
#X connect 15 0 35 0;
#X connect 16 0 35 0;
#X connect 17 0 35 0;
#X connect 39 0 1 0;
#X connect 39 1 2 0;
#X connect 39 2 3 0;
#X connect 39 3 4 0;
#X connect 39 4 5 0;
#X connect 39 5 6 0;
#X connect 39 6 7 0;
#X connect 39 7 8 0;
#X connect 39 8 9 0;
#X connect 39 9 10 0;
#X connect 39 10 40 0;
#X connect 40 0 11 0;
#X connect 40 1 12 0;
#X connect 40 2 13 0;
#X connect 40 3 14 0;
#X connect 40 4 15 0;
#X connect 40 5 16 0;
#X connect 40 6 17 0;
#X restore 90 274 pd qwerty_to_midi;
#N canvas 1 56 1142 739 qwerty_to_midi 0;
#X obj 123 66 inlet;
#X msg 42 294 72;
#X msg 106 295 74;
#X msg 170 295 76;
#X msg 234 296 77;
#X msg 298 298 79;
#X msg 362 298 81;
#X msg 427 300 83;
#X msg 491 299 84;
#X msg 554 298 86;
#X msg 618 297 88;
#X msg 623 474 73;
#X msg 691 472 75;
#X msg 759 473 78;
#X msg 827 474 80;
#X msg 894 472 82;
#X msg 961 473 85;
#X msg 1029 473 87;
#X text 46 258 do;
#X text 107 260 ré;
#X text 175 261 mi;
#X text 239 262 fa;
#X text 302 262 sol;
#X text 366 262 la;
#X text 434 261 si;
#X text 498 262 do;
#X text 557 262 ré;
#X text 625 263 mi;
#X text 618 438 do#;
#X text 679 438 ré#;
#X text 765 439 fa#;
#X text 833 439 sol#;
#X text 900 437 la#;
#X text 966 437 do#;
#X text 1045 439 ré#;
#X obj 310 564 outlet;
#X text 204 72 conversion code ascii des touches en numéros de notes
midi;
#X text 164 162 |W|E| |T|Y|U| |O|P|;
#X text 151 193 |A|S|D|F|G|H|J|K|L| \; |;
#X obj 42 229 select 97 115 100 102 103 104 106 107 108 59;
#X obj 624 402 select 119 101 116 121 117 111 112;
#X connect 0 0 39 0;
#X connect 1 0 35 0;
#X connect 2 0 35 0;
#X connect 3 0 35 0;
#X connect 4 0 35 0;
#X connect 5 0 35 0;
#X connect 6 0 35 0;
#X connect 7 0 35 0;
#X connect 8 0 35 0;
#X connect 9 0 35 0;
#X connect 10 0 35 0;
#X connect 11 0 35 0;
#X connect 12 0 35 0;
#X connect 13 0 35 0;
#X connect 14 0 35 0;
#X connect 15 0 35 0;
#X connect 16 0 35 0;
#X connect 17 0 35 0;
#X connect 39 0 1 0;
#X connect 39 1 2 0;
#X connect 39 2 3 0;
#X connect 39 3 4 0;
#X connect 39 4 5 0;
#X connect 39 5 6 0;
#X connect 39 6 7 0;
#X connect 39 7 8 0;
#X connect 39 8 9 0;
#X connect 39 9 10 0;
#X connect 39 10 40 0;
#X connect 40 0 11 0;
#X connect 40 1 12 0;
#X connect 40 2 13 0;
#X connect 40 3 14 0;
#X connect 40 4 15 0;
#X connect 40 5 16 0;
#X connect 40 6 17 0;
#X restore 400 274 pd qwerty_to_midi;
#X connect 0 0 29 0;
#X connect 1 0 30 0;
#X connect 3 0 2 0;
#X connect 8 0 9 1;
#X connect 9 0 19 0;
#X connect 10 0 11 1;
#X connect 11 0 26 0;
#X connect 12 0 18 1;
#X connect 14 0 8 0;
#X connect 15 0 10 0;
#X connect 16 0 9 0;
#X connect 17 0 11 0;
#X connect 18 0 2 0;
#X connect 19 0 23 0;
#X connect 19 1 20 0;
#X connect 20 0 21 0;
#X connect 21 0 23 1;
#X connect 23 0 24 0;
#X connect 24 0 18 0;
#X connect 24 1 25 0;
#X connect 24 2 22 1;
#X connect 25 0 22 0;
#X connect 26 0 3 0;
#X connect 26 1 28 0;
#X connect 26 2 27 1;
#X connect 28 0 27 0;
#X connect 29 0 7 0;
#X connect 29 1 7 1;
#X connect 29 2 13 0;
#X connect 29 3 13 1;
#X connect 29 4 32 0;
#X connect 30 4 33 0;
#X connect 32 0 16 0;
#X connect 33 0 17 0;
#X restore 378 503 pd qwerty;
#X obj 724 122 inlet azerty/qwerty;
#N canvas 1 56 719 735 key/keyup 0;
#X obj 53 463 outlet key;
#X obj 387 484 outlet keyup;
#X obj 130 12 keyup;
#X obj 418 64 key;
#X obj 108 115 t f f;
#X obj 140 209 tabwrite \$0-lookup;
#X msg 146 151 -1 \$1;
#X obj 26 240 tabread \$0-lookup;
#X obj 34 194 t f f;
#X obj 26 320 f;
#X obj 248 354 tabwrite \$0-lookup;
#X msg 246 308 0 \$1;
#X obj 26 278 select -1 0;
#X obj 416 150 tabread \$0-lookup;
#X obj 418 104 t f f;
#X obj 416 230 f;
#X obj 32 374 t f f;
#X msg 416 270 0 \$1;
#X obj 416 190 select -1 0;
#X obj 536 244 f;
#X obj 282 18 table \$0-lookup 10000;
#X obj 42 417 bng 15 250 50 0 empty empty empty 17 7 0 10 -262144 -1
-1;
#X obj 209 61 tabread \$0-lookup;
#X obj 130 35 t f f;
#X obj 209 101 select 0;
#X obj 209 124 f;
#X obj 34 154 pipe f 150;
#X connect 2 0 23 0;
#X connect 3 0 14 0;
#X connect 4 0 26 0;
#X connect 4 1 6 0;
#X connect 6 0 5 0;
#X connect 7 0 12 0;
#X connect 8 0 7 0;
#X connect 8 1 9 1;
#X connect 9 0 16 0;
#X connect 11 0 10 0;
#X connect 12 0 9 0;
#X connect 13 0 18 0;
#X connect 14 0 13 0;
#X connect 14 1 15 1;
#X connect 14 1 19 1;
#X connect 15 0 17 0;
#X connect 16 0 1 0;
#X connect 16 0 21 0;
#X connect 16 1 11 0;
#X connect 17 0 10 0;
#X connect 18 0 15 0;
#X connect 18 1 19 0;
#X connect 19 0 0 0;
#X connect 22 0 24 0;
#X connect 23 0 22 0;
#X connect 23 1 25 1;
#X connect 24 0 25 0;
#X connect 25 0 4 0;
#X connect 26 0 8 0;
#X restore 266 32 pd key/keyup;
#X text 357 32 antirebond;
#X obj 59 68 key;
#X obj 490 66 keyup;
#X connect 3 0 4 1;
#X connect 3 0 5 1;
#X connect 4 0 6 0;
#X connect 5 0 7 0;
#X connect 6 0 12 0;
#X connect 7 0 10 0;
#X connect 8 0 6 1;
#X connect 8 0 7 1;
#X connect 10 0 14 0;
#X connect 11 0 0 0;
#X connect 12 0 13 0;
#X connect 13 0 11 0;
#X connect 13 1 15 0;
#X connect 14 0 11 1;
#X connect 14 1 15 1;
#X connect 15 0 0 0;
#X connect 16 0 10 1;
#X connect 16 0 12 1;
#X connect 19 0 4 0;
#X connect 20 0 5 0;
#X restore 469 131 pd keyboard;
#X obj 101 101 cnv 15 188 68 empty \$0-background data_azerty2midi
0 7 0 14 -262144 -1 0;
#X msg 191 259 note \$1 \$2;
#X floatatom 253 109 5 0 0 0 velocite #0-velo-rcv #0-velo, f 5;
#X obj 367 268 u_parameter \$0 velo;
#X obj 367 298 u_parameter \$0 oct;
#X floatatom 253 125 5 0 0 0 octave #0-oct-rcv #0-oct, f 5;
#X obj 115 140 cnv 10 10 20 empty empty empty 20 12 0 14 -99865 -66577
0;
#X obj 130 140 cnv 10 10 20 empty empty empty 20 12 0 14 -99865 -66577
0;
#X obj 157 140 cnv 10 10 20 empty empty empty 20 12 0 14 -99865 -66577
0;
#X obj 172 140 cnv 10 10 20 empty empty empty 20 12 0 14 -99865 -66577
0;
#X obj 186 140 cnv 10 10 20 empty empty empty 20 12 0 14 -99865 -66577
0;
#X obj 212 140 cnv 10 10 20 empty empty empty 20 12 0 14 -99865 -66577
0;
#X obj 226 140 cnv 10 10 20 empty empty empty 20 12 0 14 -99865 -66577
0;
#X text 103 154 |Q|S|D|F|G|H|J|K|L|M|;
#X text 109 143 |Z|E| |T|Y|U| |O|P|;
#X obj 461 402 loadbang;
#X msg 454 451 velo 80;
#X obj 258 140 tgl 30 0 \$0-enable \$0-enable-rcv ENABLE 2 15 0 8 -262144
-1 -1 0 1;
#X obj 367 328 u_parameter \$0 enable;
#X obj 238 144 bng 15 250 50 0 empty empty empty 17 7 0 10 -262144
-1 -1;
#X obj 255 292 unpack f f;
#X msg 30 187 stop;
#X obj 367 241 module_loader data_azerty2midi \$0 \$1;
#X obj 29 260 inlet~;
#X obj 30 286 outlet~;
#X obj 89 260 inlet~;
#X obj 90 286 outlet~;
#X obj 137 355 inlet data;
#X obj 137 385 outlet data;
#X obj 255 314 spigot;
#N canvas 458 61 450 370 midi2notename 0;
#N canvas 473 338 450 300 count 0;
#X obj 131 154 f 0;
#X obj 156 153 + 1;
#X msg 147 133 0;
#X obj 131 183 outlet;
#X obj 131 59 inlet;
#X obj 131 96 b;
#X obj 178 61 inlet;
#X obj 178 98 b;
#X connect 0 0 1 0;
#X connect 0 0 3 0;
#X connect 1 0 0 1;
#X connect 2 0 0 1;
#X connect 4 0 5 0;
#X connect 5 0 0 0;
#X connect 6 0 7 0;
#X connect 7 0 2 0;
#X restore 330 149 pd count;
#X obj 249 173 list prepend;
#X msg 173 173 reset;
#X obj 249 74 t b b b;
#X text -2 92 Notes example:;
#X msg 114 174 print;
#X msg 114 149 dump;
#X obj 161 198 m_symbolarray;
#X obj 252 47 loadbang;
#X obj 165 93 mod 12;
#X obj 229 43 bng 15 250 50 0 empty empty empty 17 7 0 10 -262144 -1
-1;
#X obj 166 57 t f f;
#X obj 159 227 list append;
#X obj 166 34 - 24;
#X floatatom 177 145 5 0 0 0 - - -, f 5;
#X obj 188 122 div 12;
#X obj 171 6 t f f;
#X obj 164 251 list append;
#X obj 51 50 inlet;
#X obj 164 273 outlet;
#X obj 249 124 t a b;
#X msg 249 99 C \, C# \, D \, D# \, E \, F \, F# \, G \, G# \, A \,
A# \, B;
#X connect 0 0 1 1;
#X connect 1 0 7 1;
#X connect 2 0 7 0;
#X connect 3 0 21 0;
#X connect 3 1 2 0;
#X connect 3 2 0 1;
#X connect 5 0 7 0;
#X connect 6 0 7 0;
#X connect 7 0 12 0;
#X connect 8 0 3 0;
#X connect 9 0 7 0;
#X connect 10 0 3 0;
#X connect 11 0 9 0;
#X connect 11 1 15 0;
#X connect 12 0 17 0;
#X connect 13 0 11 0;
#X connect 15 0 14 0;
#X connect 15 0 12 1;
#X connect 16 0 13 0;
#X connect 16 1 17 1;
#X connect 17 0 19 0;
#X connect 18 0 16 0;
#X connect 20 0 1 0;
#X connect 20 1 0 0;
#X connect 21 0 20 0;
#X restore 277 366 pd midi2notename;
#X symbolatom 176 122 5 0 0 0 - - -, f 5;
#X msg 296 402 symbol \$1\$2;
#X floatatom 143 123 5 0 0 0 - - -, f 5;
#X obj 100 119 hradio 15 1 0 2 \$0-az-qw \$0-az-qw-rcv az-qw 0 8 0
10 -204786 -260097 -1 1;
#X obj 397 368 u_parameter \$0 az-qw;
#X obj 668 327 s \$0-background;
#X obj 552 46 r \$0-az-qw;
#X obj 662 232 select 0 1;
#X msg 667 254 label data_azerty@midi;
#X msg 699 292 label data_qwerty@midi;
#X text 729 209 azerty / qwerty;
#X obj 734 24 declare -path ../../ressources/core;
#X obj 734 54 declare -path ../../ressources/rj;
#X connect 1 0 21 0;
#X connect 1 0 3 0;
#X connect 1 0 22 0;
#X connect 3 0 30 0;
#X connect 5 0 6 0;
#X connect 6 0 20 0;
#X connect 17 0 18 0;
#X connect 18 0 5 0;
#X connect 20 0 37 0;
#X connect 22 0 31 0;
#X connect 22 1 31 1;
#X connect 23 0 30 0;
#X connect 24 0 5 0;
#X connect 25 0 26 0;
#X connect 27 0 28 0;
#X connect 29 0 30 0;
#X connect 29 0 24 0;
#X connect 31 0 32 0;
#X connect 31 0 35 0;
#X connect 32 0 34 0;
#X connect 34 0 33 0;
#X connect 39 0 40 0;
#X connect 39 0 1 0;
#X connect 40 0 41 0;
#X connect 40 1 42 0;
#X connect 41 0 38 0;
#X connect 42 0 38 0;
#X coords 0 -1 1 1 190 70 1 100 100;
