#N canvas 217 114 678 486 10;
#X declare -path ../../ressources/core;
#X declare -path ../../ressources/rj;
#N canvas 172 83 586 377 LICENSE-GPL 0;
#X text 57 88 This program is free software: you can redistribute it
and/or modify it under the terms of the GNU General Public License
as published by the Free Software Foundation \, either version 3 of
the License \, or (at your option) any later version.;
#X text 58 168 This program is distributed in the hope that it will
be useful \, but WITHOUT ANY WARRANTY \; without even the implied warranty
of MERCHANTABILITY or FITNESS FOR A PARTICULAR PURPOSE. See the GNU
General Public License for more details.;
#X text 57 261 You should have received a copy of the GNU General Public
License along with this program. If not \, see <http://www.gnu.org/licenses/>.
;
#X text 61 54 Copyright (C) 2009 \, Reality Jockey Ltd.;
#X text 60 325 See the file LICENSE.txt for the full license text.
;
#X restore 298 15 pd LICENSE-GPL;
#X obj 101 101 cnv 15 188 68 empty \$0-background fx_alias 0 7 0 14
-260818 -1 0;
#X obj 29 260 inlet~;
#X obj 111 258 inlet~;
#X obj 27 348 outlet~;
#X obj 116 354 outlet~;
#X obj 261 254 inlet data;
#X obj 261 276 outlet data;
#N canvas 0 50 538 459 stuff 0;
#X obj 193 76 inlet~;
#X obj 195 491 outlet~;
#X obj 277 360 phasor~;
#X obj 218 389 samphold~;
#X obj 277 107 samplerate~;
#X obj 277 74 loadbang;
#X msg 349 73 bang;
#X obj 291 291 t b a;
#X obj 277 327 / 1;
#X msg 291 259 1;
#X obj 291 236 moses 1;
#X obj 291 164 r \$0-alias;
#X obj 195 461 c_xfade;
#X msg 241 439 \$1 10;
#X obj 241 418 r \$0-wet;
#X connect 0 0 3 0;
#X connect 0 0 12 0;
#X connect 2 0 3 1;
#X connect 3 0 12 1;
#X connect 4 0 8 0;
#X connect 5 0 4 0;
#X connect 6 0 4 0;
#X connect 7 0 8 0;
#X connect 7 1 8 1;
#X connect 8 0 2 0;
#X connect 9 0 7 0;
#X connect 10 0 9 0;
#X connect 10 1 7 0;
#X connect 11 0 10 0;
#X connect 12 0 1 0;
#X connect 13 0 12 2;
#X connect 14 0 13 0;
#X restore 39 306 pd stuff;
#X obj 347 323 module_loader fx_alias \$0 \$1;
#X obj 351 358 u_dispatch \$0 alias;
#X obj 351 402 u_dispatch \$0 wet;
#N canvas 0 50 538 459 stuff 0;
#X obj 193 76 inlet~;
#X obj 195 491 outlet~;
#X obj 277 360 phasor~;
#X obj 218 389 samphold~;
#X obj 277 107 samplerate~;
#X obj 277 74 loadbang;
#X msg 349 73 bang;
#X obj 291 291 t b a;
#X obj 277 327 / 1;
#X msg 291 259 1;
#X obj 291 236 moses 1;
#X obj 291 164 r \$0-alias;
#X obj 195 461 c_xfade;
#X msg 241 439 \$1 10;
#X obj 241 418 r \$0-wet;
#X connect 0 0 3 0;
#X connect 0 0 12 0;
#X connect 2 0 3 1;
#X connect 3 0 12 1;
#X connect 4 0 8 0;
#X connect 5 0 4 0;
#X connect 6 0 4 0;
#X connect 7 0 8 0;
#X connect 7 1 8 1;
#X connect 8 0 2 0;
#X connect 9 0 7 0;
#X connect 10 0 9 0;
#X connect 10 1 7 0;
#X connect 11 0 10 0;
#X connect 12 0 1 0;
#X connect 13 0 12 2;
#X connect 14 0 13 0;
#X restore 119 306 pd stuff;
#X obj 251 114 ui_vs \$0 wet 0 1;
#X obj 202 110 ui_vsl \$0 alias 1 100;
#X obj 451 121 loadbang;
#X msg 451 143 alias 1 \, wet 0;
#X obj 464 4 declare -path ../../ressources/core;
#X obj 464 34 declare -path ../../ressources/rj;
#X connect 2 0 8 0;
#X connect 3 0 12 0;
#X connect 6 0 7 0;
#X connect 6 0 9 0;
#X connect 8 0 4 0;
#X connect 9 0 10 0;
#X connect 10 0 11 0;
#X connect 12 0 5 0;
#X connect 15 0 16 0;
#X connect 16 0 9 0;
#X coords 0 -1 1 1 190 70 1 100 100;
