#N canvas 219 90 810 553 10;
#X declare -path ../../ressources/core;
#X declare -path ../../ressources/rj;
#N canvas 1 56 1163 628 bonk_pitch_delay-instruments 0;
#N canvas 454 56 691 433 parametres 0;
#X obj 173 374 outlet;
#X obj 141 64 unpack f f f;
#X obj 172 234 max 0;
#X obj 171 168 * 1400;
#X obj 169 189 - 200;
#X obj 166 212 min 1000;
#X obj 279 184 min 1;
#X obj 210 127 t f f;
#X obj 163 313 pack f f f f;
#X obj 235 181 * 30;
#X obj 238 209 + 50;
#X obj 282 246 max 0;
#X msg 456 299 \$1 remove;
#X obj 153 6 inlet add/update;
#X obj 478 11 inlet remove;
#X msg 165 340 \$1 vol 100 \, \$1 delay \$2 \, \$1 pan \$3 \, \$1 pitch
\$4;
#X connect 1 0 8 0;
#X connect 1 1 7 0;
#X connect 1 2 6 0;
#X connect 2 0 8 1;
#X connect 3 0 4 0;
#X connect 4 0 5 0;
#X connect 5 0 2 0;
#X connect 6 0 11 0;
#X connect 7 0 3 0;
#X connect 7 1 9 0;
#X connect 8 0 15 0;
#X connect 9 0 10 0;
#X connect 10 0 8 2;
#X connect 11 0 8 3;
#X connect 12 0 0 0;
#X connect 13 0 1 0;
#X connect 14 0 12 0;
#X connect 15 0 0 0;
#X restore 340 396 pd parametres;
#X obj 189 391 *~ 10;
#X obj 179 479 outlet~;
#X obj 286 481 outlet~;
#X obj 229 95 hip~ 400;
#X obj 232 51 inlet~;
#X obj 555 340 r \$0-vol;
#X obj 557 409 r \$0-sens;
#X msg 556 361 vol \$1;
#X msg 558 430 sens \$1;
#X obj 398 502 outlet resync;
#X obj 567 98 inlet touchEvents;
#X obj 127 437 fx_bonkpitch/bonk_pitch_delay touch;
#X text 682 143 touchEvent <noteId> addCursor <session_id> <xpos> <ypos>
;
#X text 682 159 touchEvent <noteId> updateCursor <session_id> <xpos>
<ypos>;
#X text 685 176 touchEvent <noteId> removeCursor <session_id>;
#X obj 569 125 list split 1;
#X obj 608 152 list trim;
#X obj 610 208 route addCursor updateCursor removeCursor;
#X obj 337 63 inlet~;
#X obj 329 95 hip~ 400;
#X obj 259 381 *~ 10;
#X connect 0 0 12 2;
#X connect 1 0 12 0;
#X connect 4 0 1 0;
#X connect 5 0 4 0;
#X connect 6 0 8 0;
#X connect 7 0 9 0;
#X connect 8 0 12 2;
#X connect 9 0 12 2;
#X connect 11 0 16 0;
#X connect 12 0 2 0;
#X connect 12 1 3 0;
#X connect 12 2 10 0;
#X connect 16 1 17 0;
#X connect 17 0 18 0;
#X connect 18 0 0 0;
#X connect 18 1 0 0;
#X connect 18 2 0 1;
#X connect 19 0 20 0;
#X connect 20 0 21 0;
#X connect 21 0 12 1;
#X restore 58 343 pd bonk_pitch_delay-instruments;
#X obj 454 425 u_dispatch \$0 vol;
#X obj 455 451 u_dispatch \$0 sens;
#X obj 101 101 cnv 15 188 68 empty \$0-background fx_bonkpitch 0 7
0 14 -262144 -1 0;
#X obj 147 115 ui_vs \$0 sens 0 100;
#X obj 100 115 ui_vs \$0 vol 0 100;
#X obj 201 112 bng 15 250 50 0 empty empty trigger 17 7 0 10 -262144
-1 -1;
#X obj 270 259 route touchEvent;
#X obj 454 398 module_loader fx_bonkpitch \$0 \$1;
#X obj 29 260 inlet~;
#X obj 82 416 outlet~;
#X obj 190 411 outlet~;
#X obj 380 287 outlet data;
#X obj 380 231 inlet data;
#X obj 123 264 inlet~;
#X obj 446 489 u_dispatch \$0 smooth;
#X obj 247 114 ui_vsl \$0 smooth 10 2000;
#X obj 534 4 declare -path ../../ressources/core;
#X obj 534 34 declare -path ../../ressources/rj;
#X connect 0 0 10 0;
#X connect 0 1 11 0;
#X connect 0 2 6 0;
#X connect 1 0 2 0;
#X connect 2 0 15 0;
#X connect 7 0 0 2;
#X connect 7 1 12 0;
#X connect 8 0 1 0;
#X connect 9 0 0 0;
#X connect 13 0 7 0;
#X connect 14 0 0 1;
#X coords 0 -1 1 1 190 70 1 100 100;
