#N canvas 407 237 678 486 10;
#X declare -path ../../ressources/core;
#X declare -path ../../ressources/rj;
#N canvas 172 83 586 377 LICENSE-GPL 0;
#X text 57 88 This program is free software: you can redistribute it
and/or modify it under the terms of the GNU General Public License
as published by the Free Software Foundation \, either version 3 of
the License \, or (at your option) any later version.;
#X text 58 168 This program is distributed in the hope that it will
be useful \, but WITHOUT ANY WARRANTY \; without even the implied warranty
of MERCHANTABILITY or FITNESS FOR A PARTICULAR PURPOSE. See the GNU
General Public License for more details.;
#X text 57 261 You should have received a copy of the GNU General Public
License along with this program. If not \, see <http://www.gnu.org/licenses/>.
;
#X text 61 54 Copyright (C) 2009 \, Reality Jockey Ltd.;
#X text 60 325 See the file LICENSE.txt for the full license text.
;
#X restore 298 15 pd LICENSE-GPL;
#X text 35 69 ui_hsl \$0 name min max;
#X text 51 17 embedded rjdj e_beequad abstraction;
#X obj 101 101 cnv 15 188 68 empty \$0-background fx_bitcrush 0 7 0
14 -262144 -1 0;
#X obj 29 260 inlet~;
#X obj 111 258 inlet~;
#X obj 27 348 outlet~;
#X obj 116 354 outlet~;
#X obj 178 263 inlet data;
#X obj 178 285 outlet data;
#X obj 347 323 module_loader fx_bitcrush \$0 \$1;
#N canvas 0 50 538 459 stuff 0;
#X obj 72 45 inlet~;
#X obj 77 376 outlet~;
#N canvas 342 121 564 411 guts 0;
#X obj 72 24 inlet~;
#X obj 70 294 outlet~;
#X obj 130 26 inlet;
#X obj 221 138 /;
#X msg 221 116 1 \$1;
#X obj 71 162 *~;
#X obj 130 137 line~;
#X obj 71 264 *~;
#X obj 89 192 wrap~;
#X obj 71 223 -~;
#X obj 130 114 pack 0 20;
#X obj 221 191 line~;
#X obj 221 168 pack 0 20;
#X obj 130 54 max 1;
#X connect 0 0 5 0;
#X connect 2 0 13 0;
#X connect 3 0 12 0;
#X connect 4 0 3 0;
#X connect 5 0 8 0;
#X connect 5 0 9 0;
#X connect 6 0 5 1;
#X connect 7 0 1 0;
#X connect 8 0 9 1;
#X connect 9 0 7 0;
#X connect 10 0 6 0;
#X connect 11 0 7 1;
#X connect 12 0 11 0;
#X connect 13 0 4 0;
#X connect 13 0 10 0;
#X restore 77 209 pd guts;
#X obj 74 133 hip~ 4;
#X msg 142 308 \$1 10;
#X obj 72 297 hip~ 4;
#X obj 76 329 c_xfade;
#X obj 134 261 r \$0-depth;
#N canvas 0 50 517 515 e_agc 0;
#X obj 105 65 env~;
#X obj 105 175 / 10000;
#X obj 105 195 swap 1;
#X obj 105 218 -;
#X obj 85 294 *~;
#X obj 105 240 * 9;
#X obj 105 261 lop~ 10;
#X obj 84 35 inlet~;
#X obj 85 318 outlet~;
#X text 179 127 feedforward AGC (ajf);
#X text 171 8 Soft Leveller;
#X obj 228 84 rmstodb;
#X obj 228 104 dbtopow;
#X obj 105 111 t a a;
#X obj 105 136 *;
#X obj 105 88 max;
#X text 163 89 was:;
#X obj 202 316 outlet;
#X connect 0 0 15 0;
#X connect 1 0 2 0;
#X connect 2 0 3 0;
#X connect 2 1 3 1;
#X connect 3 0 5 0;
#X connect 4 0 8 0;
#X connect 5 0 6 0;
#X connect 5 0 17 0;
#X connect 6 0 4 1;
#X connect 7 0 0 0;
#X connect 7 0 4 0;
#X connect 11 0 12 0;
#X connect 13 0 14 0;
#X connect 13 1 14 1;
#X connect 14 0 1 0;
#X connect 15 0 13 0;
#X restore 101 170 pd e_agc;
#X obj 56 267 *~;
#X msg 276 241 1 \$1;
#X obj 276 263 /;
#X obj 276 285 lop~ 10;
#X obj 142 287 r \$0-wet;
#X connect 0 0 3 0;
#X connect 0 0 6 0;
#X connect 2 0 9 0;
#X connect 3 0 8 0;
#X connect 4 0 6 2;
#X connect 5 0 6 1;
#X connect 6 0 1 0;
#X connect 7 0 2 1;
#X connect 8 0 2 0;
#X connect 8 1 10 0;
#X connect 9 0 5 0;
#X connect 10 0 11 0;
#X connect 11 0 12 0;
#X connect 12 0 9 1;
#X connect 13 0 4 0;
#X restore 39 306 pd stuff;
#X obj 347 352 u_dispatch \$0 depth;
#X obj 430 182 loadbang;
#N canvas 0 50 538 459 stuff 0;
#X obj 72 45 inlet~;
#X obj 77 376 outlet~;
#N canvas 342 121 564 411 guts 0;
#X obj 72 24 inlet~;
#X obj 70 294 outlet~;
#X obj 130 26 inlet;
#X obj 221 138 /;
#X msg 221 116 1 \$1;
#X obj 71 162 *~;
#X obj 130 137 line~;
#X obj 71 264 *~;
#X obj 89 192 wrap~;
#X obj 71 223 -~;
#X obj 130 114 pack 0 20;
#X obj 221 191 line~;
#X obj 221 168 pack 0 20;
#X obj 130 54 max 1;
#X connect 0 0 5 0;
#X connect 2 0 13 0;
#X connect 3 0 12 0;
#X connect 4 0 3 0;
#X connect 5 0 8 0;
#X connect 5 0 9 0;
#X connect 6 0 5 1;
#X connect 7 0 1 0;
#X connect 8 0 9 1;
#X connect 9 0 7 0;
#X connect 10 0 6 0;
#X connect 11 0 7 1;
#X connect 12 0 11 0;
#X connect 13 0 4 0;
#X connect 13 0 10 0;
#X restore 77 209 pd guts;
#X obj 74 133 hip~ 4;
#X msg 142 308 \$1 10;
#X obj 72 297 hip~ 4;
#X obj 76 329 c_xfade;
#X obj 134 261 r \$0-depth;
#N canvas 0 50 517 515 e_agc 0;
#X obj 105 65 env~;
#X obj 105 175 / 10000;
#X obj 105 195 swap 1;
#X obj 105 218 -;
#X obj 85 294 *~;
#X obj 105 240 * 9;
#X obj 105 261 lop~ 10;
#X obj 84 35 inlet~;
#X obj 85 318 outlet~;
#X text 179 127 feedforward AGC (ajf);
#X text 171 8 Soft Leveller;
#X obj 228 84 rmstodb;
#X obj 228 104 dbtopow;
#X obj 105 111 t a a;
#X obj 105 136 *;
#X obj 105 88 max;
#X text 163 89 was:;
#X obj 202 316 outlet;
#X connect 0 0 15 0;
#X connect 1 0 2 0;
#X connect 2 0 3 0;
#X connect 2 1 3 1;
#X connect 3 0 5 0;
#X connect 4 0 8 0;
#X connect 5 0 6 0;
#X connect 5 0 17 0;
#X connect 6 0 4 1;
#X connect 7 0 0 0;
#X connect 7 0 4 0;
#X connect 11 0 12 0;
#X connect 13 0 14 0;
#X connect 13 1 14 1;
#X connect 14 0 1 0;
#X connect 15 0 13 0;
#X restore 101 170 pd e_agc;
#X obj 56 267 *~;
#X msg 276 241 1 \$1;
#X obj 276 263 /;
#X obj 276 285 lop~ 10;
#X obj 142 287 r \$0-wet;
#X connect 0 0 3 0;
#X connect 0 0 6 0;
#X connect 2 0 9 0;
#X connect 3 0 8 0;
#X connect 4 0 6 2;
#X connect 5 0 6 1;
#X connect 6 0 1 0;
#X connect 7 0 2 1;
#X connect 8 0 2 0;
#X connect 8 1 10 0;
#X connect 9 0 5 0;
#X connect 10 0 11 0;
#X connect 11 0 12 0;
#X connect 12 0 9 1;
#X connect 13 0 4 0;
#X restore 109 306 pd stuff;
#X obj 210 114 ui_vs \$0 wet 0 1;
#X obj 347 374 u_dispatch \$0 wet;
#X obj 165 115 ui_vsl \$0 depth 100000 1;
#X msg 430 204 depth 65535 \, wet 0;
#X obj 434 34 declare -path ../../ressources/core;
#X obj 434 64 declare -path ../../ressources/rj;
#X connect 4 0 11 0;
#X connect 5 0 14 0;
#X connect 8 0 9 0;
#X connect 8 0 10 0;
#X connect 10 0 12 0;
#X connect 11 0 6 0;
#X connect 12 0 16 0;
#X connect 13 0 18 0;
#X connect 14 0 7 0;
#X connect 18 0 12 0;
#X coords 0 -1 1 1 190 70 1 100 100;
