#N canvas 713 56 613 297 10;
#X obj 340 163 tgl 15 0 empty empty V 4 8 0 12 -4034 -4034 -1 0 1;
#X obj 340 200 tgl 15 0 empty empty X 4 8 0 12 -258113 -258113 -1 0
1;
#X text 360 159 Instances multiples;
#X obj 31 134 fx_chorus;
#X text 11 30 effet de chorus;
#X text 10 50 mise en oeuvre de l'abstraction rjdj e_chorus;
#X obj 31 102 adc~;
#X obj 32 220 soundoutput;
#X connect 3 0 7 0;
#X connect 3 1 7 1;
#X connect 6 0 3 0;
#X connect 6 1 3 1;
