#N canvas 114 82 678 486 10;
#X declare -path ../../ressources/core;
#X declare -path ../../ressources/rj;
#N canvas 0 50 880 335 audio_stuff 0;
#X obj 198 52 inlet~;
#X obj 308 274 outlet~;
#X obj 228 274 outlet~;
#N canvas 0 50 1366 685 engine 0;
#X obj 179 259 cos~;
#X obj 179 282 +~ 1;
#X obj 266 143 +~ 0.25;
#X obj 266 258 cos~;
#X obj 266 281 +~ 1;
#X obj 180 506 outlet~;
#X obj 267 507 outlet~;
#X obj 365 190 +~ 0.25;
#X obj 365 257 cos~;
#X obj 365 280 +~ 1;
#X obj 460 230 +~ 0.25;
#X obj 460 255 cos~;
#X obj 460 278 +~ 1;
#X obj 14 32 inlet~;
#X obj 535 284 line~;
#X obj 535 263 pack 0 50;
#X obj 460 339 *~;
#X obj 365 341 *~;
#X obj 266 342 *~;
#X obj 179 343 *~;
#X obj 180 94 line~;
#X obj 180 73 pack 0 50;
#X obj 179 124 phasor~;
#X text 609 238 modulation;
#X text 174 28 frequence;
#X obj 180 48 r \$0-freq;
#X obj 535 239 r \$0-mod;
#X obj 460 376 +~ 0;
#X obj 366 376 +~ 0;
#X obj 266 379 +~ 0;
#X obj 180 376 +~ 0;
#N canvas 314 253 450 300 sampledur 0;
#X obj 70 100 samplerate~;
#X obj 70 144 swap 1000;
#X obj 70 172 /;
#X obj 70 51 loadbang;
#X msg 82 77 bang;
#X obj 70 205 outlet;
#X obj 248 74 inlet;
#X connect 0 0 1 0;
#X connect 1 0 2 0;
#X connect 1 1 2 1;
#X connect 2 0 5 0;
#X connect 3 0 0 0;
#X connect 4 0 0 0;
#X connect 6 0 5 0;
#X restore 546 343 pd sampledur;
#X obj 14 63 *~ 0.5;
#X obj 525 198 loadbang;
#X obj 525 220 0.2;
#X obj 84 122 inlet~;
#X obj 84 153 *~ 0.5;
#X obj 109 204 delwrite~ \$0-cr 2000;
#X obj 43 97 delwrite~ \$0-cl 2000;
#X obj 179 404 vd~ \$0-cl;
#X obj 266 404 vd~ \$0-cr;
#X obj 365 402 vd~ \$0-cl;
#X obj 460 400 vd~ \$0-cr;
#X obj 221 451 hip~ 3000;
#X obj 327 451 hip~ 3000;
#X obj 59 412 lop~ 1000;
#X obj 69 382 lop~ 1000;
#X connect 0 0 1 0;
#X connect 1 0 19 0;
#X connect 2 0 3 0;
#X connect 2 0 7 0;
#X connect 3 0 4 0;
#X connect 4 0 18 0;
#X connect 7 0 8 0;
#X connect 7 0 10 0;
#X connect 8 0 9 0;
#X connect 9 0 17 0;
#X connect 10 0 11 0;
#X connect 11 0 12 0;
#X connect 12 0 16 0;
#X connect 13 0 32 0;
#X connect 14 0 16 1;
#X connect 14 0 17 1;
#X connect 14 0 18 1;
#X connect 14 0 19 1;
#X connect 15 0 14 0;
#X connect 16 0 27 0;
#X connect 17 0 28 0;
#X connect 18 0 29 0;
#X connect 19 0 30 0;
#X connect 20 0 22 0;
#X connect 21 0 20 0;
#X connect 22 0 0 0;
#X connect 22 0 2 0;
#X connect 25 0 21 0;
#X connect 26 0 15 0;
#X connect 27 0 42 0;
#X connect 28 0 41 0;
#X connect 29 0 40 0;
#X connect 30 0 39 0;
#X connect 31 0 27 1;
#X connect 31 0 28 1;
#X connect 31 0 29 1;
#X connect 31 0 30 1;
#X connect 32 0 45 0;
#X connect 32 0 38 0;
#X connect 33 0 34 0;
#X connect 34 0 14 0;
#X connect 35 0 36 0;
#X connect 36 0 46 0;
#X connect 36 0 37 0;
#X connect 39 0 5 0;
#X connect 39 0 44 0;
#X connect 40 0 6 0;
#X connect 40 0 43 0;
#X connect 41 0 5 0;
#X connect 41 0 44 0;
#X connect 42 0 6 0;
#X connect 42 0 43 0;
#X connect 43 0 5 0;
#X connect 44 0 6 0;
#X connect 45 0 5 0;
#X connect 46 0 6 0;
#X restore 280 106 pd engine;
#X obj 258 52 inlet~;
#X obj 20 147 line~;
#X obj 130 158 line~;
#X obj 131 216 *~;
#X obj 20 215 *~;
#X msg 20 120 \$1 10;
#X msg 130 131 \$1 10;
#X obj 284 220 *~;
#X obj 69 213 *~;
#X obj 20 63 r \$0-bypass;
#X obj 30 95 == 0;
#X connect 0 0 3 0;
#X connect 0 0 7 1;
#X connect 3 0 8 1;
#X connect 3 1 12 1;
#X connect 4 0 3 1;
#X connect 4 0 11 1;
#X connect 5 0 8 0;
#X connect 5 0 12 0;
#X connect 6 0 7 0;
#X connect 6 0 11 0;
#X connect 7 0 2 0;
#X connect 8 0 2 0;
#X connect 9 0 5 0;
#X connect 10 0 6 0;
#X connect 11 0 1 0;
#X connect 12 0 1 0;
#X connect 13 0 14 0;
#X connect 13 0 10 0;
#X connect 14 0 9 0;
#X restore 30 291 pd audio_stuff;
#X obj 347 352 u_dispatch \$0 freq;
#X obj 347 374 u_dispatch \$0 mod;
#X obj 583 310 loadbang;
#X msg 583 335 freq 0.8 \, mod 1.8;
#N canvas 172 83 586 377 LICENSE-GPL 0;
#X text 57 88 This program is free software: you can redistribute it
and/or modify it under the terms of the GNU General Public License
as published by the Free Software Foundation \, either version 3 of
the License \, or (at your option) any later version.;
#X text 58 168 This program is distributed in the hope that it will
be useful \, but WITHOUT ANY WARRANTY \; without even the implied warranty
of MERCHANTABILITY or FITNESS FOR A PARTICULAR PURPOSE. See the GNU
General Public License for more details.;
#X text 57 261 You should have received a copy of the GNU General Public
License along with this program. If not \, see <http://www.gnu.org/licenses/>.
;
#X text 61 54 Copyright (C) 2009 \, Reality Jockey Ltd.;
#X text 60 325 See the file LICENSE.txt for the full license text.
;
#X restore 298 15 pd LICENSE-GPL;
#X text 51 17 embedded rjdj e_chorus abstraction;
#X text 35 69 ui_hsl \$0 name min max;
#X obj 353 398 u_parameter \$0 bypass;
#X obj 304 467 midi-colors \$0 bypass \$0-bypass-rcv;
#X obj 242 557 s \$0-bypass;
#X obj 304 494 < 1;
#X obj 101 101 cnv 15 188 68 empty \$0-background fx_chorus 0 7 0 14
-262144 -1 0;
#X obj 138 115 ui_vsl \$0 freq 0.05 10;
#X obj 100 115 ui_vs \$0 mod 0 2;
#X obj 220 102 vsl 70 17 1 0 0 0 \$0-presets \$0-presets-rcv PRESETS
2 5 0 10 -232576 -232576 -1 0 1;
#X obj 182 130 tgl 40 1 \$0-bypass \$0-bypass-rcv BYPASS 17 7 0 10
-262144 -1 -1 0 1;
#X obj 29 260 inlet~;
#X obj 127 259 inlet~;
#X obj 30 316 outlet~;
#X obj 128 315 outlet~;
#X obj 346 261 module_loader fx_chorus \$0 \$1;
#X obj 221 255 inlet data;
#X obj 221 277 outlet data;
#X obj 534 4 declare -path ../../ressources/core;
#X obj 534 34 declare -path ../../ressources/rj;
#X connect 0 0 19 0;
#X connect 0 1 20 0;
#X connect 1 0 2 0;
#X connect 2 0 8 0;
#X connect 3 0 4 0;
#X connect 4 0 1 0;
#X connect 9 0 11 0;
#X connect 11 0 10 0;
#X connect 17 0 0 0;
#X connect 18 0 0 1;
#X connect 21 0 1 0;
#X connect 22 0 23 0;
#X coords 0 -1 1 1 190 70 1 100 100;
