#N canvas 758 58 944 533 10;
#X declare -path ../../ressources/core;
#X declare -path ../../ressources/rj;
#N canvas 0 50 1050 444 stuff 0;
#X obj 252 640 outlet~;
#X obj 252 506 *~;
#X obj 252 614 *~;
#N canvas 0 50 450 300 delWrite 0;
#X obj 68 80 delwrite~ \$0-comp 500;
#X obj 68 39 inlet~;
#X obj 68 156 outlet~;
#X connect 1 0 0 0;
#X restore 85 289 pd delWrite;
#X obj 481 393 dbtorms;
#X obj 533 364 /;
#X obj 533 333 swap 1;
#X obj 586 340 /;
#X obj 586 318 swap 1000;
#X obj 267 466 lop~;
#X obj 267 411 clip~ 0 1;
#X obj 267 589 line~;
#X obj 267 568 pack f 5;
#X obj 307 524 r \$0-gain;
#N canvas 0 50 872 621 rms 0;
#X obj 257 107 env~ 512;
#X obj 257 245 -~;
#X obj 257 293 *~;
#X obj 257 345 +~;
#X obj 257 385 /~;
#X obj 378 221 +~ 0;
#X obj 257 34 inlet~;
#X obj 257 407 outlet~;
#X obj 373 37 inlet;
#X obj 373 59 switch~;
#X obj 257 135 dbtorms~;
#X text 221 74 Input;
#X text 231 136 RMS;
#X text 424 59 turn DSP on/off for this sub-patch;
#X obj 272 220 r \$0-threshold;
#X obj 272 318 r \$0-threshold;
#X obj 272 269 r \$0-rat;
#X connect 0 0 10 0;
#X connect 1 0 2 0;
#X connect 2 0 3 0;
#X connect 3 0 4 0;
#X connect 4 0 7 0;
#X connect 5 0 4 1;
#X connect 6 0 0 0;
#X connect 8 0 9 0;
#X connect 10 0 1 0;
#X connect 10 0 5 0;
#X connect 14 0 1 1;
#X connect 15 0 3 1;
#X connect 16 0 2 1;
#X restore 267 288 pd rms;
#N canvas 0 50 859 606 peak 0;
#X obj 244 134 abs~;
#X obj 244 243 -~;
#X obj 244 291 *~;
#X obj 244 343 +~;
#X obj 244 383 /~;
#X obj 365 219 +~ 0;
#X obj 244 49 inlet~;
#X obj 244 405 outlet~;
#X obj 470 125 inlet;
#X obj 470 147 switch~;
#X text 206 99 Input;
#X text 208 135 Peak;
#X text 521 148 turn DSP on/off for this sub-patch;
#X obj 259 218 r \$0-threshold;
#X obj 259 316 r \$0-threshold;
#X obj 259 267 r \$0-rat;
#X connect 0 0 1 0;
#X connect 0 0 5 0;
#X connect 1 0 2 0;
#X connect 2 0 3 0;
#X connect 3 0 4 0;
#X connect 4 0 7 0;
#X connect 5 0 4 1;
#X connect 6 0 0 0;
#X connect 8 0 9 0;
#X connect 13 0 1 1;
#X connect 14 0 3 1;
#X connect 15 0 2 1;
#X restore 315 288 pd peak;
#X obj 300 230 == 0;
#X obj 300 185 t f f;
#X obj 85 32 inlet~;
#X obj 300 161 r \$0-rmspeak;
#X obj 166 340 r \$0-lookahead;
#X obj 481 358 + 100;
#X obj 638 251 + 100;
#N canvas 0 50 450 300 delRead 0;
#X obj 68 41 inlet~;
#X obj 133 155 outlet~;
#X obj 133 42 inlet lookAhead;
#X obj 133 116 delread~ \$0-comp 0;
#X connect 2 0 3 0;
#X connect 3 0 1 0;
#X restore 85 365 pd delRead;
#X text 129 32 Input;
#X text 25 287 delwrite~;
#X text 51 320 dymmy;
#X text 50 332 cable;
#X text 31 365 delread~;
#X text 141 320 Lookahead in ms;
#X text 334 409 Clip signal;
#X text 298 465 Attack/release using LPF;
#X text 277 505 Gain Control;
#X text 318 311 Gain computation;
#X text 318 325 RMS/Peak;
#X text 370 524 Make-up gain;
#X text 339 185 RMS/Peak;
#X text 339 198 selector;
#X text 479 437 Convert dB FS;
#X text 479 448 to Pd dB scale;
#X text 479 460 and then linear;
#X text 479 471 amplitude.;
#X text 810 18 Varun Nair;
#X text 810 31 2013;
#X text 811 44 re-sounding.com;
#X text 812 57 @ntkeep;
#X obj 359 560 + 100;
#X obj 359 582 dbtorms;
#X obj 490 269 r \$0-thresh;
#X obj 481 415 s \$0-threshold;
#X obj 514 292 r \$0-ratio;
#X obj 533 386 s \$0-rat;
#X obj 644 428 s \$0-resp;
#X obj 587 262 r \$0-response;
#X obj 288 444 r \$0-resp;
#X text 701 22 from;
#N canvas 0 50 450 300 delWrite 0;
#X obj 68 39 inlet~;
#X obj 68 156 outlet~;
#X obj 68 80 delwrite~ \$0-compl 500;
#X connect 0 0 2 0;
#X restore 35 409 pd delWrite;
#N canvas 0 50 450 300 delRead 0;
#X obj 68 41 inlet~;
#X obj 133 155 outlet~;
#X obj 133 42 inlet lookAhead;
#X obj 133 116 delread~ \$0-compl 0;
#X connect 2 0 3 0;
#X connect 3 0 1 0;
#X restore 65 460 pd delRead;
#X text -25 407 delwrite~;
#X text 1 440 dymmy;
#X text 0 452 cable;
#X text -19 485 delread~;
#X obj 30 31 inlet~;
#X obj 202 31 inlet~ sidechain;
#X obj 72 640 outlet~;
#X obj 72 506 *~;
#X obj 72 614 *~;
#X obj 87 589 line~;
#X obj 87 568 pack f 5;
#X text 97 505 Gain Control;
#X obj 663 363 select 0;
#X msg 653 397 10000;
#X connect 1 0 2 0;
#X connect 2 0 0 0;
#X connect 3 0 23 0;
#X connect 4 0 49 0;
#X connect 5 0 51 0;
#X connect 6 0 5 0;
#X connect 6 1 5 1;
#X connect 7 0 70 0;
#X connect 8 0 7 0;
#X connect 8 1 7 1;
#X connect 9 0 1 1;
#X connect 9 0 65 1;
#X connect 10 0 9 0;
#X connect 11 0 2 1;
#X connect 12 0 11 0;
#X connect 13 0 46 0;
#X connect 14 0 10 0;
#X connect 15 0 10 0;
#X connect 16 0 14 1;
#X connect 17 0 16 0;
#X connect 17 1 15 1;
#X connect 18 0 3 0;
#X connect 19 0 17 0;
#X connect 20 0 23 1;
#X connect 20 0 57 1;
#X connect 21 0 4 0;
#X connect 23 0 1 0;
#X connect 46 0 47 0;
#X connect 47 0 12 0;
#X connect 47 0 68 0;
#X connect 48 0 21 0;
#X connect 50 0 6 0;
#X connect 53 0 8 0;
#X connect 54 0 9 1;
#X connect 56 0 57 0;
#X connect 57 0 65 0;
#X connect 62 0 56 0;
#X connect 63 0 14 0;
#X connect 63 0 15 0;
#X connect 65 0 66 0;
#X connect 66 0 64 0;
#X connect 67 0 66 1;
#X connect 68 0 67 0;
#X connect 70 0 71 0;
#X connect 70 1 52 0;
#X connect 71 0 52 0;
#X restore 132 265 pd stuff;
#X obj 101 101 cnv 15 188 68 empty \$0-background fx_compressor 0 7
0 14 -262144 -1 0;
#X obj 366 242 module_loader fx_compressor \$0 \$1;
#X obj 267 544 r \$0-gain;
#X obj 441 124 r \$0-rmspeak;
#X obj 366 264 u_parameter \$0 rmspeak;
#X obj 100 115 ui_vs \$0 thresh -100 0;
#X obj 138 115 ui_vsl \$0 ratio 1 100;
#X obj 176 115 ui_vs \$0 gain 0 30;
#X obj 366 286 u_dispatch \$0 thresh;
#X obj 366 308 u_dispatch \$0 ratio;
#X obj 366 330 u_dispatch \$0 gain;
#X obj 366 352 u_parameter \$0 response;
#X obj 452 155 select 0 1;
#X msg 432 191 label RMS;
#X obj 464 212 s \$0-rmspeak-rcv;
#X msg 502 191 label Peak;
#N canvas 0 50 450 278 (subpatch) 0;
#X array \$0-curve 100 float 0;
#X coords 0 1 99 0 60 40 2 0 0;
#X restore 215 130 graph;
#X obj 215 101 cnv 15 74 29 empty empty empty 20 12 0 14 -262144 -66577
0;
#X obj 214 113 nbx 3 14 0 500 0 0 \$0-response \$0-response-rcv time
0 -6 0 10 -262144 -1 -1 40 256;
#X obj 254 113 nbx 3 14 0 500 0 0 \$0-lookahead \$0-lookahead-rcv lkahd
0 -6 0 10 -262144 -1 -1 0 256;
#X obj 275 140 vradio 15 1 0 2 \$0-rmspeak \$0-rmspeak-rcv RMS -10
-7 0 10 -262144 -1 -1 0;
#X text 387 67 60 40;
#N canvas 429 52 833 653 calculateGraph 0;
#X obj 95 406 -;
#X obj 95 454 *;
#X obj 95 507 +;
#X obj 95 546 /;
#X obj 75 597 *;
#X obj 72 647 tabwrite \$0-curve;
#X obj 76 363 t f f f;
#X obj 76 271 f;
#X obj 110 271 + 1;
#X obj 76 239 until;
#X msg 76 216 100;
#X msg 121 240 0;
#X obj 76 325 / 100;
#X obj 76 293 t f f;
#X obj 174 511 t f;
#X obj 161 333 dbtorms;
#X obj 161 311 + 100;
#X obj 268 346 /;
#X obj 268 315 swap 1;
#X obj 76 186 t b b;
#X obj 95 569 clip 0 1;
#X obj 441 333 dbtorms;
#X obj 441 311 + 100;
#X obj 75 619 * 1;
#X obj 61 32 r \$0-thresh;
#X obj 165 30 r \$0-ratio;
#X obj 496 51 r \$0-gain;
#X obj 76 115 t b f;
#X obj 161 291 r \$0-thresh;
#X obj 267 290 r \$0-ratio;
#X obj 446 251 r \$0-gain;
#X obj 76 137 del 20;
#X connect 0 0 1 0;
#X connect 1 0 2 0;
#X connect 2 0 3 0;
#X connect 3 0 20 0;
#X connect 4 0 23 0;
#X connect 6 0 4 0;
#X connect 6 1 0 0;
#X connect 6 2 3 1;
#X connect 7 0 8 0;
#X connect 7 0 13 0;
#X connect 8 0 7 1;
#X connect 9 0 7 0;
#X connect 10 0 9 0;
#X connect 11 0 7 1;
#X connect 12 0 6 0;
#X connect 13 0 12 0;
#X connect 13 1 14 0;
#X connect 14 0 5 1;
#X connect 15 0 0 1;
#X connect 15 0 2 1;
#X connect 16 0 15 0;
#X connect 17 0 1 1;
#X connect 18 0 17 0;
#X connect 18 1 17 1;
#X connect 19 0 10 0;
#X connect 19 1 11 0;
#X connect 20 0 4 1;
#X connect 21 0 23 1;
#X connect 22 0 21 0;
#X connect 23 0 5 0;
#X connect 24 0 27 0;
#X connect 25 0 27 0;
#X connect 26 0 27 0;
#X connect 27 0 31 0;
#X connect 28 0 16 0;
#X connect 29 0 18 0;
#X connect 30 0 22 0;
#X connect 31 0 19 0;
#X restore 65 446 pd calculateGraph;
#N canvas 0 50 578 428 animation_point_transfert 0;
#X obj 144 49 env~;
#X obj 144 121 dbtorms;
#X obj 148 340 s \$0-curseur;
#X obj 144 247 pack f f;
#X msg 144 269 pos \$1 \$2;
#X obj 136 13 inlet~ in;
#X obj 216 13 inlet~ out;
#X obj 141 152 * 60;
#X obj 139 210 int;
#X obj 238 198 + 166;
#X obj 218 36 env~;
#X obj 230 87 dbtorms;
#X obj 240 117 * -40;
#X obj 144 225 + 213;
#X obj 240 164 int;
#X obj 240 142 max -43;
#X obj 144 71 change;
#X obj 218 58 change;
#X obj 141 174 min 64;
#X obj 99 96 speed_lim;
#X connect 0 0 16 0;
#X connect 1 0 7 0;
#X connect 3 0 4 0;
#X connect 4 0 2 0;
#X connect 5 0 0 0;
#X connect 6 0 10 0;
#X connect 7 0 18 0;
#X connect 8 0 13 0;
#X connect 9 0 3 1;
#X connect 10 0 17 0;
#X connect 11 0 12 0;
#X connect 12 0 15 0;
#X connect 13 0 3 0;
#X connect 14 0 9 0;
#X connect 15 0 14 0;
#X connect 16 0 19 0;
#X connect 17 0 11 0;
#X connect 18 0 8 0;
#X connect 19 0 1 0;
#X restore 25 398 pd animation_point_transfert;
#X obj 213 166 cnv 2 4 4 empty \$0-curseur empty 20 12 0 14 -258113
-66577 0;
#X obj 77 197 inlet~;
#X obj 81 314 outlet~;
#X obj 366 374 u_parameter \$0 lookahead;
#X obj 147 197 inlet~;
#X obj 161 314 outlet~;
#X obj 226 310 outlet data;
#X obj 243 196 inlet data;
#X msg 301 41 thresh -2 \, ratio 2 \, response 40 \, gain 0 \, rmspeak
0 \, lookahead 0;
#X obj 286 17 loadbang;
#X obj 534 4 declare -path ../../ressources/core;
#X obj 534 34 declare -path ../../ressources/rj;
#X connect 0 0 27 0;
#X connect 0 0 24 1;
#X connect 0 1 30 0;
#X connect 0 1 24 1;
#X connect 2 0 5 0;
#X connect 4 0 13 0;
#X connect 5 0 9 0;
#X connect 9 0 10 0;
#X connect 10 0 11 0;
#X connect 11 0 12 0;
#X connect 12 0 28 0;
#X connect 13 0 14 0;
#X connect 13 1 16 0;
#X connect 14 0 15 0;
#X connect 16 0 15 0;
#X connect 26 0 24 0;
#X connect 26 0 0 0;
#X connect 26 0 0 2;
#X connect 29 0 0 1;
#X connect 29 0 0 2;
#X connect 29 0 24 0;
#X connect 32 0 2 0;
#X connect 32 0 31 0;
#X connect 33 0 5 0;
#X connect 34 0 33 0;
#X coords 0 -1 1 1 190 70 1 100 100;
