#N canvas 1 56 1362 685 10;
#X declare -path ../../ressources/core;
#X declare -path ../../ressources/rj;
#N canvas 0 50 880 474 audio_stuff 0;
#X obj 198 52 inlet~;
#X obj 311 291 outlet~;
#X obj 406 291 outlet~;
#X obj 359 48 inlet~;
#X obj 311 264 c_xfade;
#X obj 405 266 c_xfade;
#X obj 451 234 pack 0 10;
#X obj 502 159 r \$0-wet;
#X obj 491 212 *;
#X obj 499 188 t f f;
#N canvas 368 50 968 590 core 0;
#X obj 373 92 mtof;
#X obj 373 46 r \$0-bpitch;
#X obj 77 24 inlet~;
#X obj 293 40 inlet~;
#X obj 219 201 bp~ 5400 2;
#X obj 481 193 bp~ 5400 2;
#X obj 481 132 / 2;
#X obj 207 132 / 2;
#X text 511 132 because of 2 delaylines;
#X obj 442 165 *~ 0.1;
#X obj 168 162 *~ 0.1;
#X obj 509 165 r \$0-bq;
#X obj 234 165 r \$0-bq;
#X obj 456 485 vd~ \$0-dubby-r;
#X obj 131 481 vd~ \$0-dubby-l;
#X obj 440 271 delwrite~ \$0-dubby-r 6000;
#X obj 167 271 delwrite~ \$0-dubby-l 6000;
#N canvas 172 83 586 377 LICENSE-GPL 0;
#X text 57 88 This program is free software: you can redistribute it
and/or modify it under the terms of the GNU General Public License
as published by the Free Software Foundation \, either version 3 of
the License \, or (at your option) any later version.;
#X text 58 168 This program is distributed in the hope that it will
be useful \, but WITHOUT ANY WARRANTY \; without even the implied warranty
of MERCHANTABILITY or FITNESS FOR A PARTICULAR PURPOSE. See the GNU
General Public License for more details.;
#X text 57 261 You should have received a copy of the GNU General Public
License along with this program. If not \, see <http://www.gnu.org/licenses/>.
;
#X text 61 54 Copyright (C) 2009 \, Reality Jockey Ltd.;
#X text 60 325 See the file LICENSE.txt for the full license text.
;
#X restore 912 29 pd LICENSE-GPL;
#X obj 151 451 line~;
#X obj 461 441 line~;
#X msg 161 423 \$1 300;
#X msg 460 425 \$1 300;
#X obj 129 511 outlet~;
#X obj 455 512 outlet~;
#X obj 460 302 r \$0-delr;
#X obj 159 314 r \$0-dell;
#X obj 460 354 swap 1000;
#X obj 159 365 swap 1000;
#X obj 233 336 t b f;
#X obj 533 323 t b f;
#X obj 119 343 + 1;
#X obj 445 331 + 1;
#X obj 207 107 r \$0-fb;
#X obj 481 107 r \$0-fb;
#X obj 159 395 /;
#X obj 460 382 /;
#X obj 233 314 r \$0-delay;
#X obj 533 301 r \$0-delay;
#X obj 115 411 - 5;
#X obj 522 408 -5;
#X obj 111 243 clip~ -1 1;
#X obj 454 230 clip~ -1 1;
#N canvas 0 50 450 300 mode_synchro 0;
#X obj 269 81 r BPM;
#X obj 263 180 /;
#X msg 261 132 60000 \$1;
#X obj 343 153 r \$0-del;
#X obj 329 283 /;
#X obj 319 320 moses 1;
#X obj 290 367 /;
#X msg 281 340 1 \$1;
#X obj 289 400 + 0.5;
#X obj 369 398 + 0.5;
#X obj 371 428 int;
#X obj 285 429 int;
#X msg 291 464 1 \$1;
#X obj 295 487 /;
#X obj 347 227 t b f f;
#X obj 312 508 *;
#X obj 352 508 *;
#X obj 258 548 s \$0-delay;
#X obj 158 111 spigot;
#X obj 194 85 == 0;
#X obj 105 62 r \$0-del;
#X obj 153 537 spigot;
#X obj 154 395 r \$0-sync;
#X obj 229 223 f;
#X obj 149 432 t f f f;
#X obj 94 94 f;
#X obj 146 471 select 1 0;
#X floatatom 398 449 5 0 0 0 - - -, f 5;
#X floatatom 285 451 5 0 0 0 - - -, f 5;
#X connect 0 0 2 0;
#X connect 1 0 23 0;
#X connect 2 0 1 0;
#X connect 3 0 4 0;
#X connect 4 0 5 0;
#X connect 5 0 7 0;
#X connect 5 1 9 0;
#X connect 6 0 8 0;
#X connect 7 0 6 0;
#X connect 8 0 11 0;
#X connect 9 0 10 0;
#X connect 10 0 16 0;
#X connect 10 0 27 0;
#X connect 11 0 12 0;
#X connect 11 0 28 0;
#X connect 12 0 13 0;
#X connect 13 0 15 0;
#X connect 14 0 4 0;
#X connect 14 1 4 1;
#X connect 14 2 15 1;
#X connect 14 2 16 1;
#X connect 15 0 21 0;
#X connect 16 0 21 0;
#X connect 18 0 17 0;
#X connect 19 0 18 1;
#X connect 20 0 25 0;
#X connect 21 0 17 0;
#X connect 22 0 24 0;
#X connect 23 0 14 0;
#X connect 24 0 26 0;
#X connect 24 1 21 1;
#X connect 24 2 19 0;
#X connect 25 0 18 0;
#X connect 26 0 23 0;
#X connect 26 1 25 0;
#X restore 714 61 pd mode_synchro;
#X connect 0 0 4 1;
#X connect 0 0 5 1;
#X connect 1 0 0 0;
#X connect 2 0 40 0;
#X connect 3 0 41 0;
#X connect 4 0 40 0;
#X connect 5 0 41 0;
#X connect 6 0 9 1;
#X connect 7 0 10 1;
#X connect 9 0 5 0;
#X connect 10 0 4 0;
#X connect 11 0 5 2;
#X connect 12 0 4 2;
#X connect 13 0 10 0;
#X connect 13 0 23 0;
#X connect 14 0 9 0;
#X connect 14 0 22 0;
#X connect 18 0 14 0;
#X connect 19 0 13 0;
#X connect 20 0 18 0;
#X connect 21 0 19 0;
#X connect 24 0 31 0;
#X connect 25 0 30 0;
#X connect 26 0 35 0;
#X connect 26 1 35 1;
#X connect 27 0 34 0;
#X connect 27 1 34 1;
#X connect 28 0 27 0;
#X connect 28 1 27 1;
#X connect 29 0 26 0;
#X connect 29 1 26 1;
#X connect 30 0 27 0;
#X connect 31 0 26 0;
#X connect 32 0 7 0;
#X connect 33 0 6 0;
#X connect 34 0 38 0;
#X connect 35 0 39 0;
#X connect 36 0 28 0;
#X connect 37 0 29 0;
#X connect 38 0 20 0;
#X connect 39 0 21 0;
#X connect 40 0 16 0;
#X connect 41 0 15 0;
#X restore 321 196 pd core;
#X connect 0 0 4 0;
#X connect 0 0 10 0;
#X connect 3 0 5 0;
#X connect 3 0 10 1;
#X connect 4 0 1 0;
#X connect 5 0 2 0;
#X connect 6 0 5 2;
#X connect 6 0 4 2;
#X connect 7 0 9 0;
#X connect 8 0 6 0;
#X connect 9 0 8 0;
#X connect 9 1 8 1;
#X connect 10 0 4 1;
#X connect 10 1 5 1;
#X restore 110 298 pd audio_stuff;
#X obj 583 310 loadbang;
#N canvas 172 83 586 377 LICENSE-GPL 0;
#X text 57 88 This program is free software: you can redistribute it
and/or modify it under the terms of the GNU General Public License
as published by the Free Software Foundation \, either version 3 of
the License \, or (at your option) any later version.;
#X text 58 168 This program is distributed in the hope that it will
be useful \, but WITHOUT ANY WARRANTY \; without even the implied warranty
of MERCHANTABILITY or FITNESS FOR A PARTICULAR PURPOSE. See the GNU
General Public License for more details.;
#X text 57 261 You should have received a copy of the GNU General Public
License along with this program. If not \, see <http://www.gnu.org/licenses/>.
;
#X text 61 54 Copyright (C) 2009 \, Reality Jockey Ltd.;
#X text 60 325 See the file LICENSE.txt for the full license text.
;
#X restore 298 15 pd LICENSE-GPL;
#X text 35 69 ui_hsl \$0 name min max;
#N canvas 228 198 627 317 LICENSE-BSD 0;
#X text 121 56 This software is copyrighted by Miller Puckette \, Reality
Jockey Ltd. and others. The terms (the "Standard Improved BSD License")
apply to all files associated with the software unless explicitly disclaimed
in individual files.;
#X text 123 148 See the file LICENSE.txt for the full license text.
;
#X restore 563 420 pd LICENSE-BSD;
#X text 51 17 embedded rjdj e_dubdel abstraction;
#X obj 781 232 u_dispatch \$0 bpitch;
#X obj 781 277 u_dispatch \$0 bq;
#X obj 781 209 u_dispatch \$0 fb;
#X obj 781 298 u_dispatch \$0 wet;
#X obj 781 255 u_dispatch \$0 del;
#X msg 583 335 bq 2 \, fb 0 \, bpitch 60 \, del 0 \, dell 0 \, delr
0 \, wet 0;
#X obj 781 160 u_parameter \$0 delr;
#X obj 781 184 u_parameter \$0 dell;
#X obj 101 101 cnv 15 188 68 empty \$0-background fx_dubdel 0 7 0 14
-262144 -1 0;
#X obj 186 114 vradio 14 1 0 4 \$0-dell \$0-dell-rcv empty 0 -8 0 10
-204786 -35788 -1 0;
#X obj 200 114 vradio 14 1 0 4 \$0-delr \$0-delr-rcv empty 0 -8 0 10
-204786 -35788 -1 0;
#X text 189 113 1 1;
#X obj 148 115 ui_vs \$0 bpitch 50 120;
#X obj 220 103 vsl 70 17 1 0 0 0 \$0-presets \$0-presets-rcv PRESETS
2 5 0 10 -232576 -232576 -1 0 1;
#X obj 252 115 ui_vs \$0 wet 0 1;
#X obj 214 115 ui_vs \$0 fb 0 1;
#X text 189 141 1/3;
#X text 188 154 1/4;
#X text 189 127 1/2;
#X obj 952 312 u_parameter \$0 sync;
#N canvas 0 50 458 308 inv_scalelog 0;
#X obj 98 87 log;
#X obj 194 84 log;
#X obj 123 123 t b f;
#X obj 123 145 -;
#X obj 20 183 outlet;
#X obj 20 19 inlet;
#X obj 98 23 inlet;
#X obj 194 24 inlet;
#X obj 34 65 log;
#X obj 20 130 -;
#X obj 20 156 /;
#X connect 0 0 2 0;
#X connect 0 0 9 1;
#X connect 1 0 3 0;
#X connect 2 0 3 0;
#X connect 2 1 3 1;
#X connect 3 0 10 1;
#X connect 5 0 8 0;
#X connect 6 0 0 0;
#X connect 7 0 1 0;
#X connect 8 0 9 0;
#X connect 9 0 10 0;
#X connect 10 0 4 0;
#X restore 156 446 pd inv_scalelog;
#X obj 177 474 * 127;
#X msg 228 415 100;
#X msg 335 397 3000;
#X obj 93 401 r \$0-delay;
#X obj 139 508 r BPM;
#X obj 92 538 *;
#X obj 88 562 / 600;
#X obj 108 582 int;
#X obj 119 601 / 100;
#X msg 405 514 label bpm/\$1;
#X obj 295 349 loadbang;
#X obj 110 115 ui_vsl \$0 del 100 3000;
#X obj 100 117 vsl 10 50 0 127 0 0 empty \$0-bpm_factor-rcv bpm/7 1
5 0 10 -44926 -1 -1 0 1;
#X obj 177 100 tgl 15 0 \$0-sync \$0-sync-rcv sync 17 7 0 10 -4032
-1 -1 0 1;
#X obj 457 558 s \$0-bpm_factor-rcv;
#X obj 783 135 module_loader fx_dubdel \$0 \$1;
#X obj 108 264 inlet~;
#X obj 215 265 inlet~;
#X obj 205 335 outlet~;
#X obj 112 340 outlet~;
#X obj 379 286 inlet data;
#X obj 379 308 outlet data;
#X obj 534 4 declare -path ../../ressources/core;
#X obj 534 34 declare -path ../../ressources/rj;
#X connect 0 0 46 0;
#X connect 0 1 45 0;
#X connect 1 0 11 0;
#X connect 6 0 10 0;
#X connect 7 0 9 0;
#X connect 8 0 6 0;
#X connect 9 0 25 0;
#X connect 10 0 7 0;
#X connect 11 0 12 0;
#X connect 12 0 13 0;
#X connect 13 0 8 0;
#X connect 26 0 27 0;
#X connect 27 0 41 0;
#X connect 28 0 26 1;
#X connect 29 0 26 2;
#X connect 30 0 26 0;
#X connect 30 0 32 0;
#X connect 31 0 32 1;
#X connect 32 0 33 0;
#X connect 33 0 34 0;
#X connect 34 0 35 0;
#X connect 35 0 36 0;
#X connect 36 0 41 0;
#X connect 37 0 29 0;
#X connect 37 0 28 0;
#X connect 42 0 12 0;
#X connect 43 0 0 0;
#X connect 44 0 0 1;
#X connect 47 0 48 0;
#X coords 0 -1 1 1 190 70 1 100 100;
