#N canvas 713 56 613 480 10;
#X obj 360 126 tgl 15 0 empty empty V 4 8 0 12 -4034 -4034 -1 0 1;
#X text 380 122 Instances multiples;
#X text 11 23 effet de tape delay avec filtre;
#X text 10 43 mise en oeuvre de l'abstraction rjdj e_dubdel;
#X text 386 155 Synchronisation tempo;
#X obj 73 433 tgl 15 0 \$0-sync \$0-sync-rcv sync 17 7 0 10 -4032 -1
-1 0 1;
#X text 134 430 mode synchro métronome;
#X text 74 214 del : durée du retard (delay);
#X obj 24 86 fx_dubdel;
#X text 63 236 bpitch : note centrale du filtre passebande (Q=2);
#X obj 66 274 vradio 14 1 0 4 \$0-dell \$0-dell-rcv empty 0 -8 0 10
-204786 -35788 -1 0;
#X obj 80 274 vradio 14 1 0 4 \$0-delr \$0-delr-rcv empty 0 -8 0 10
-204786 -35788 -1 0;
#X text 69 315 1/4;
#X text 69 300 1/3;
#X text 69 287 1/2;
#X text 68 274 1/1;
#X text 113 280 fraction du retard utilisée pour chaque canal;
#X text 67 330 L R;
#X text 66 357 fb : feedback \, réinjection de la sortie dans l'entrée
(à travers le filtre) \, mode pingpong;
#X text 73 404 wet : mixage effet / son direct;
#X obj 360 156 tgl 15 0 empty empty V 4 8 0 12 -4034 -4034 -1 0 1;
