#N canvas 91 146 944 533 10;
#X declare -path ../../ressources/core;
#X declare -path ../../ressources/rj;
#N canvas 0 50 868 621 audio_stuff 0;
#X obj 60 10 inlet~;
#X obj 149 462 outlet~;
#X obj 69 462 outlet~;
#X obj 315 275 r \$0-CTL;
#X obj 457 181 g_nbx comp1;
#X obj 457 210 g_nbx comp2;
#X obj 457 242 g_nbx att;
#X obj 457 273 g_nbx rel;
#X obj 457 305 g_nbx makeup;
#X obj 457 397 s \$0-CTL;
#X obj 457 366 g_hsl dry 0 1;
#N canvas 0 50 450 300 compressor 0;
#X obj 149 103 inlet;
#X obj 149 153 outlet;
#X msg 149 128 comp1 \$1 \, comp2 1;
#X connect 0 0 2 0;
#X connect 2 0 1 0;
#X restore 457 47 pd compressor;
#X floatatom 457 27 5 0 0 0 ratio - -, f 5;
#X floatatom 582 28 5 0 0 0 - - -, f 5;
#N canvas 0 50 450 300 noisegate 0;
#X obj 149 103 inlet;
#X obj 149 153 outlet;
#X msg 149 128 comp1 1 \, comp2 \$1;
#X connect 0 0 2 0;
#X connect 2 0 1 0;
#X restore 582 48 pd noisegate;
#X floatatom 467 77 5 0 0 0 - - -, f 5;
#N canvas 0 50 450 300 limiter 0;
#X obj 149 103 inlet;
#X obj 149 153 outlet;
#X msg 149 128 comp1 \$1 \, comp2 1;
#X connect 0 0 2 0;
#X connect 2 0 1 0;
#X restore 467 97 pd limiter;
#X floatatom 583 76 5 0 0 0 - - -, f 5;
#N canvas 0 50 450 300 expander 0;
#X obj 149 54 inlet;
#X obj 149 153 outlet;
#X msg 149 128 comp1 1 \, comp2 \$1;
#X msg 149 80 1 \$1;
#X obj 149 103 /;
#X connect 0 0 3 0;
#X connect 2 0 1 0;
#X connect 3 0 4 0;
#X connect 4 0 2 0;
#X restore 583 96 pd expander;
#X obj 457 335 g_nhsl thresh 0 120;
#X text 541 249 default: 50;
#X text 539 282 default: 50;
#X text 541 312 units: percent;
#X obj 342 407 u_cocollect;
#X msg 384 258 save;
#X obj 384 283 t a b;
#X msg 342 437 comp2 1 \, comp1 17 \, rel 200 \, att 20 \, thresh 70.8304
\,;
#X obj 122 15 inlet~;
#N canvas 193 83 781 618 e_dynproc 0;
#N canvas 0 50 450 300 dw 0;
#X obj 100 85 inlet~;
#X obj 98 189 outlet~;
#X obj 137 124 delwrite~ \$0-x 100;
#X connect 0 0 2 0;
#X restore 80 129 pd dw;
#N canvas 0 50 673 467 dr 0;
#X obj 114 49 inlet~;
#X obj 170 332 outlet~;
#X obj 171 145 samplerate~;
#X msg 171 177 1000 \$1;
#X obj 171 204 /;
#X msg 179 119 bang;
#X obj 171 98 loadbang;
#X floatatom 181 264 5 0 0 0 - - -, f 5;
#X obj 171 297 delread~ \$0-x 12;
#X msg 261 178 256;
#X msg 294 178 512;
#X msg 331 177 64;
#X obj 260 200 t b a;
#X msg 364 179 32;
#X obj 171 229 * 256;
#X connect 2 0 3 0;
#X connect 3 0 4 0;
#X connect 4 0 14 0;
#X connect 5 0 2 0;
#X connect 6 0 2 0;
#X connect 8 0 1 0;
#X connect 9 0 12 0;
#X connect 10 0 12 0;
#X connect 11 0 12 0;
#X connect 12 0 14 0;
#X connect 12 1 14 1;
#X connect 13 0 12 0;
#X connect 14 0 7 0;
#X connect 14 0 8 0;
#X restore 80 156 pd dr;
#X obj 80 38 inlet~;
#X obj 79 595 outlet~;
#X obj 80 413 *~;
#X obj 189 127 dbtorms;
#X obj 110 272 loadbang;
#X msg 110 302 1;
#X obj 189 104 + 3;
#X text 322 18 threshold;
#N canvas 312 148 648 448 compress 0;
#X obj 204 62 inlet;
#X obj 204 137 moses 0.5;
#X obj 285 69 inlet;
#X text 282 47 threshold;
#X obj 204 345 outlet;
#X obj 286 188 -;
#X text 323 192 power - thres;
#X text 320 221 * comp1;
#X obj 286 252 +;
#X text 325 254 + thres;
#X obj 401 74 inlet;
#X text 401 52 comp1;
#X obj 204 320 / 1;
#X text 234 321 / power;
#X obj 204 94 t a a;
#X obj 471 74 inlet;
#X text 471 52 comp2;
#X obj 471 124 /;
#X msg 471 102 1 \$1;
#X text 19 380 thresh * pow(power/thresh \, 1/comp2);
#X obj 204 265 *;
#X obj 285 95 t a a a a a;
#X obj 204 187 / 1;
#X obj 204 237 pow 1;
#X obj 286 219 * 1;
#X connect 0 0 14 0;
#X connect 1 0 22 0;
#X connect 1 1 5 0;
#X connect 2 0 21 0;
#X connect 5 0 24 0;
#X connect 8 0 12 0;
#X connect 10 0 24 1;
#X connect 12 0 4 0;
#X connect 14 0 1 0;
#X connect 14 1 12 1;
#X connect 15 0 18 0;
#X connect 17 0 23 1;
#X connect 18 0 17 0;
#X connect 20 0 12 0;
#X connect 21 0 1 1;
#X connect 21 1 22 1;
#X connect 21 2 20 1;
#X connect 21 3 5 1;
#X connect 21 4 8 1;
#X connect 22 0 23 0;
#X connect 23 0 20 0;
#X connect 24 0 8 0;
#X restore 189 158 pd compress;
#X obj 189 271 pack 0 50;
#X text 407 16 comp1;
#X text 506 17 comp2;
#N canvas 0 50 450 300 t 0;
#X obj 134 69 loadbang;
#X obj 98 155 select 0;
#X obj 98 46 inlet;
#X obj 98 240 outlet;
#X msg 98 186 1;
#X obj 98 128 dbtorms;
#X obj 98 109 f 100;
#X connect 0 0 6 0;
#X connect 1 0 4 0;
#X connect 1 1 3 0;
#X connect 2 0 6 0;
#X connect 4 0 3 0;
#X connect 5 0 1 0;
#X connect 6 0 5 0;
#X restore 322 64 pd t;
#N canvas 0 50 550 434 c1 0;
#X obj 134 69 loadbang;
#X obj 98 185 select 0;
#X obj 98 46 inlet;
#X obj 98 270 outlet;
#X msg 98 216 1;
#X obj 98 109 f 1;
#X msg 98 132 1 \$1;
#X obj 98 155 /;
#X connect 0 0 5 0;
#X connect 1 0 4 0;
#X connect 1 1 3 0;
#X connect 2 0 5 0;
#X connect 4 0 3 0;
#X connect 5 0 6 0;
#X connect 6 0 7 0;
#X connect 7 0 1 0;
#X restore 411 65 pd c1;
#N canvas 0 50 450 300 c2 0;
#X obj 134 69 loadbang;
#X obj 98 185 select 0;
#X obj 98 46 inlet;
#X obj 98 270 outlet;
#X msg 98 216 1;
#X obj 98 109 f 1;
#X msg 98 132 1 \$1;
#X obj 98 155 /;
#X connect 0 0 5 0;
#X connect 1 0 4 0;
#X connect 1 1 3 0;
#X connect 2 0 5 0;
#X connect 4 0 3 0;
#X connect 5 0 6 0;
#X connect 6 0 7 0;
#X connect 7 0 1 0;
#X restore 510 67 pd c2;
#N canvas 0 50 617 441 attack-release 0;
#X obj 156 286 f 50;
#X obj 194 286 f 50;
#X text 100 285 attack;
#X text 237 287 release;
#X obj 156 321 outlet;
#X obj 156 76 inlet;
#X obj 365 80 inlet;
#X obj 426 78 inlet;
#X text 361 55 attack;
#X text 427 55 release;
#X obj 247 73 inlet;
#X text 243 51 current gain;
#X obj 156 221 > 1;
#X obj 156 246 select 0 1;
#X text 154 50 target gain;
#X connect 0 0 4 0;
#X connect 1 0 4 0;
#X connect 5 0 12 0;
#X connect 6 0 0 1;
#X connect 7 0 1 1;
#X connect 10 0 12 1;
#X connect 12 0 13 0;
#X connect 13 0 0 0;
#X connect 13 1 1 0;
#X restore 249 245 pd attack-release;
#X obj 189 181 t a a a;
#X text 577 21 att;
#X text 668 24 rel;
#N canvas 0 50 450 300 a 0;
#X obj 134 69 loadbang;
#X obj 98 145 select 0;
#X obj 98 46 inlet;
#X obj 98 230 outlet;
#X msg 98 176 50;
#X obj 98 109 f 50;
#X connect 0 0 5 0;
#X connect 1 0 4 0;
#X connect 1 1 3 0;
#X connect 2 0 5 0;
#X connect 4 0 3 0;
#X connect 5 0 1 0;
#X restore 599 69 pd a;
#N canvas 0 50 450 300 r 0;
#X obj 134 69 loadbang;
#X obj 98 145 select 0;
#X obj 98 46 inlet;
#X obj 98 230 outlet;
#X msg 98 176 50;
#X obj 98 109 f 50;
#X connect 0 0 5 0;
#X connect 1 0 4 0;
#X connect 1 1 3 0;
#X connect 2 0 5 0;
#X connect 4 0 3 0;
#X connect 5 0 1 0;
#X restore 667 70 pd r;
#X obj 189 591 outlet~;
#X obj 317 384 snapshot~;
#X msg 338 362 bang;
#X floatatom 316 405 8 0 0 0 - - -, f 8;
#X obj 189 81 t a b;
#X obj 220 325 snapshot~;
#X obj 189 355 line~;
#X floatatom 264 402 5 0 0 0 - - -, f 5;
#X obj 189 388 lop~ 1000;
#X obj 189 58 env~ 256;
#X obj 322 40 r \$0-thresh;
#X obj 667 41 r \$0-rel;
#X obj 599 40 r \$0-att;
#X obj 188 33 inlet~;
#X obj 80 569 c_xfade;
#X obj 126 547 r \$0-dry;
#X obj 109 497 line~;
#X obj 79 534 *~;
#X obj 109 476 pack 0 50;
#X obj 109 435 r \$0-makeup;
#X obj 204 423 loadbang;
#X msg 204 447 1;
#X obj 510 39 r \$0-comp2;
#X obj 411 38 r \$0-comp1;
#X obj 109 455 * 0.01;
#N canvas 172 83 586 377 LICENSE-GPL 0;
#X text 57 88 This program is free software: you can redistribute it
and/or modify it under the terms of the GNU General Public License
as published by the Free Software Foundation \, either version 3 of
the License \, or (at your option) any later version.;
#X text 58 168 This program is distributed in the hope that it will
be useful \, but WITHOUT ANY WARRANTY \; without even the implied warranty
of MERCHANTABILITY or FITNESS FOR A PARTICULAR PURPOSE. See the GNU
General Public License for more details.;
#X text 57 261 You should have received a copy of the GNU General Public
License along with this program. If not \, see <http://www.gnu.org/licenses/>.
;
#X text 61 54 Copyright (C) 2009 \, Reality Jockey Ltd.;
#X text 60 325 See the file LICENSE.txt for the full license text.
;
#X restore 782 20 pd LICENSE-GPL;
#N canvas 0 50 450 300 dw 0;
#X obj 100 85 inlet~;
#X obj 98 189 outlet~;
#X obj 136 124 delwrite~ \$0-y 100;
#X connect 0 0 2 0;
#X restore 12 128 pd dw;
#N canvas 0 50 673 467 dr 0;
#X obj 114 49 inlet~;
#X obj 170 332 outlet~;
#X obj 171 145 samplerate~;
#X msg 171 177 1000 \$1;
#X obj 171 204 /;
#X msg 179 119 bang;
#X obj 171 98 loadbang;
#X floatatom 181 264 5 0 0 0 - - -, f 5;
#X msg 261 178 256;
#X msg 294 178 512;
#X msg 331 177 64;
#X obj 260 200 t b a;
#X msg 364 179 32;
#X obj 171 229 * 256;
#X obj 171 296 delread~ \$0-y 12;
#X connect 2 0 3 0;
#X connect 3 0 4 0;
#X connect 4 0 13 0;
#X connect 5 0 2 0;
#X connect 6 0 2 0;
#X connect 8 0 11 0;
#X connect 9 0 11 0;
#X connect 10 0 11 0;
#X connect 11 0 13 0;
#X connect 11 1 13 1;
#X connect 12 0 11 0;
#X connect 13 0 7 0;
#X connect 13 0 14 0;
#X connect 14 0 1 0;
#X restore 12 155 pd dr;
#X obj 12 37 inlet~;
#X obj 11 594 outlet~;
#X obj 12 412 *~;
#X obj 12 568 c_xfade;
#X obj 11 533 *~;
#X connect 0 0 1 0;
#X connect 1 0 4 0;
#X connect 1 0 37 1;
#X connect 2 0 0 0;
#X connect 4 0 40 0;
#X connect 5 0 10 0;
#X connect 6 0 7 0;
#X connect 7 0 29 0;
#X connect 8 0 5 0;
#X connect 10 0 18 0;
#X connect 11 0 29 0;
#X connect 14 0 10 1;
#X connect 15 0 10 2;
#X connect 16 0 10 3;
#X connect 17 0 11 1;
#X connect 18 0 11 0;
#X connect 18 1 17 0;
#X connect 21 0 17 2;
#X connect 22 0 17 3;
#X connect 24 0 26 0;
#X connect 25 0 24 0;
#X connect 27 0 8 0;
#X connect 27 1 28 0;
#X connect 28 0 17 1;
#X connect 29 0 24 0;
#X connect 29 0 28 0;
#X connect 29 0 31 0;
#X connect 30 0 31 1;
#X connect 31 0 23 0;
#X connect 31 0 4 1;
#X connect 31 0 53 1;
#X connect 32 0 27 0;
#X connect 33 0 14 0;
#X connect 34 0 22 0;
#X connect 35 0 21 0;
#X connect 36 0 32 0;
#X connect 37 0 3 0;
#X connect 38 0 37 2;
#X connect 38 0 54 2;
#X connect 39 0 40 1;
#X connect 39 0 55 1;
#X connect 40 0 37 0;
#X connect 41 0 39 0;
#X connect 42 0 47 0;
#X connect 43 0 44 0;
#X connect 44 0 41 0;
#X connect 45 0 16 0;
#X connect 46 0 15 0;
#X connect 47 0 41 0;
#X connect 49 0 50 0;
#X connect 50 0 53 0;
#X connect 50 0 54 1;
#X connect 51 0 49 0;
#X connect 53 0 55 0;
#X connect 54 0 52 0;
#X connect 55 0 54 0;
#X restore 58 295 pd e_dynproc;
#X text 151 277 sidechain;
#X connect 0 0 28 2;
#X connect 0 0 28 0;
#X connect 4 0 5 0;
#X connect 5 0 6 0;
#X connect 6 0 7 0;
#X connect 7 0 8 0;
#X connect 8 0 19 0;
#X connect 10 0 9 0;
#X connect 11 0 4 0;
#X connect 12 0 11 0;
#X connect 13 0 14 0;
#X connect 14 0 4 0;
#X connect 15 0 16 0;
#X connect 16 0 4 0;
#X connect 17 0 18 0;
#X connect 18 0 4 0;
#X connect 19 0 10 0;
#X connect 23 0 26 0;
#X connect 24 0 25 0;
#X connect 25 1 23 1;
#X connect 27 0 28 1;
#X connect 27 0 28 2;
#X connect 28 0 2 0;
#X connect 28 1 1 0;
#X restore 93 358 pd audio_stuff;
#N canvas 172 83 586 377 LICENSE-GPL 0;
#X text 57 88 This program is free software: you can redistribute it
and/or modify it under the terms of the GNU General Public License
as published by the Free Software Foundation \, either version 3 of
the License \, or (at your option) any later version.;
#X text 58 168 This program is distributed in the hope that it will
be useful \, but WITHOUT ANY WARRANTY \; without even the implied warranty
of MERCHANTABILITY or FITNESS FOR A PARTICULAR PURPOSE. See the GNU
General Public License for more details.;
#X text 57 261 You should have received a copy of the GNU General Public
License along with this program. If not \, see <http://www.gnu.org/licenses/>.
;
#X text 61 54 Copyright (C) 2009 \, Reality Jockey Ltd.;
#X text 60 325 See the file LICENSE.txt for the full license text.
;
#X restore 298 15 pd LICENSE-GPL;
#X text 35 69 ui_hsl \$0 name min max;
#X obj 363 362 u_dispatch \$0 comp1;
#X obj 363 384 u_dispatch \$0 comp2;
#X obj 365 415 u_dispatch \$0 att;
#X obj 366 436 u_dispatch \$0 rel;
#X obj 369 458 u_dispatch \$0 att;
#X obj 370 479 u_dispatch \$0 rel;
#X obj 367 502 u_dispatch \$0 makeup;
#X obj 371 523 u_dispatch \$0 thresh;
#X obj 373 544 u_dispatch \$0 wet;
#X obj 581 384 r \$0-wet;
#X obj 580 403 * -1;
#X obj 581 422 + 1;
#X obj 583 440 s \$0-dry;
#X obj 570 208 list prepend 0;
#X obj 702 147 r \$0-in;
#N canvas 0 50 450 300 compressor 0;
#X obj 149 103 inlet;
#X obj 149 153 outlet;
#X msg 149 128 comp1 \$1 \, comp2 1;
#X connect 0 0 2 0;
#X connect 2 0 1 0;
#X restore 560 280 pd compressor;
#N canvas 0 50 450 300 noisegate 0;
#X obj 149 103 inlet;
#X obj 149 153 outlet;
#X msg 149 128 comp1 1 \, comp2 \$1;
#X connect 0 0 2 0;
#X connect 2 0 1 0;
#X restore 685 281 pd noisegate;
#N canvas 0 50 450 300 limiter 0;
#X obj 149 103 inlet;
#X obj 149 153 outlet;
#X msg 149 128 comp1 \$1 \, comp2 1;
#X connect 0 0 2 0;
#X connect 2 0 1 0;
#X restore 570 330 pd limiter;
#N canvas 0 50 450 300 expander 0;
#X obj 149 54 inlet;
#X obj 149 153 outlet;
#X msg 149 128 comp1 1 \, comp2 \$1;
#X msg 149 80 1 \$1;
#X obj 149 103 /;
#X connect 0 0 3 0;
#X connect 2 0 1 0;
#X connect 3 0 4 0;
#X connect 4 0 2 0;
#X restore 686 329 pd expander;
#X obj 588 234 route 0 1 2 3;
#X obj 562 149 r \$0-value;
#X obj 356 334 u_dispatch \$0 att-rel;
#X obj 362 312 u_dispatch \$0 value;
#X obj 716 86 r \$0-att-rel;
#X obj 717 121 s \$0-att;
#X obj 656 124 s \$0-rel;
#X text 51 17 embedded rjdj e_dynproc abstraction;
#X obj 587 180 f;
#X obj 710 176 t b f;
#X obj 543 522 u_dispatch \$0 in;
#X obj 153 257 text define -k \$0-comptype;
#A set 0 compressor \; 1 limiter \; 2 noisegate \; 3 expander \;;
#X msg 257 224 0;
#X msg 23 151 \$1;
#X obj 169 58 r \$0-in;
#X obj 39 214 s \$0-in;
#X obj 268 200 loadbang;
#X obj 89 332 inlet~;
#X obj 178 330 inlet~;
#X obj 87 386 outlet~;
#X obj 179 388 outlet~;
#X obj 262 350 inlet data;
#X obj 262 372 outlet data;
#X obj 101 101 cnv 15 188 68 empty \$0-background fx_dynproc 0 7 0
14 -262144 -1 0;
#X obj 366 242 module_loader fx_dynproc \$0 \$1;
#X obj 220 102 vsl 70 17 1 0 0 0 \$0-presets \$0-presets-rcv PRESETS
2 5 0 10 -232576 -232576 -1 0 1;
#X obj 149 100 u_rollmenu \$0-comptype 1;
#X obj 100 115 ui_vs \$0 value 0 100;
#X obj 138 115 ui_vs \$0 att-rel 0 100;
#X obj 175 115 ui_vs \$0 thresh 0 120;
#X obj 213 115 ui_vs \$0 makeup 0 100;
#X obj 251 115 ui_vs \$0 wet 0 1;
#X obj 534 4 declare -path ../../ressources/core;
#X obj 534 34 declare -path ../../ressources/rj;
#X connect 0 0 41 0;
#X connect 0 1 42 0;
#X connect 3 0 4 0;
#X connect 4 0 5 0;
#X connect 5 0 6 0;
#X connect 6 0 7 0;
#X connect 7 0 8 0;
#X connect 8 0 9 0;
#X connect 9 0 10 0;
#X connect 10 0 11 0;
#X connect 11 0 32 0;
#X connect 12 0 13 0;
#X connect 13 0 14 0;
#X connect 14 0 15 0;
#X connect 16 0 22 0;
#X connect 17 0 31 0;
#X connect 18 0 25 0;
#X connect 19 0 25 0;
#X connect 20 0 25 0;
#X connect 21 0 25 0;
#X connect 22 0 18 0;
#X connect 22 1 20 0;
#X connect 22 2 19 0;
#X connect 22 3 21 0;
#X connect 23 0 30 0;
#X connect 24 0 3 0;
#X connect 25 0 24 0;
#X connect 26 0 28 0;
#X connect 26 0 27 0;
#X connect 30 0 16 0;
#X connect 31 0 30 0;
#X connect 31 1 16 1;
#X connect 34 0 48 0;
#X connect 35 0 37 0;
#X connect 36 0 48 0;
#X connect 38 0 34 0;
#X connect 39 0 0 0;
#X connect 40 0 0 1;
#X connect 43 0 44 0;
#X connect 46 0 25 0;
#X connect 48 0 35 0;
#X coords 0 -1 1 1 190 70 1 100 100;
