#N canvas 52 363 1362 685 10;
#X declare -path ../../ressources/core;
#X declare -path ../../ressources/rj;
#X obj 583 310 loadbang;
#N canvas 172 83 586 377 LICENSE-GPL 0;
#X text 57 88 This program is free software: you can redistribute it
and/or modify it under the terms of the GNU General Public License
as published by the Free Software Foundation \, either version 3 of
the License \, or (at your option) any later version.;
#X text 58 168 This program is distributed in the hope that it will
be useful \, but WITHOUT ANY WARRANTY \; without even the implied warranty
of MERCHANTABILITY or FITNESS FOR A PARTICULAR PURPOSE. See the GNU
General Public License for more details.;
#X text 57 261 You should have received a copy of the GNU General Public
License along with this program. If not \, see <http://www.gnu.org/licenses/>.
;
#X text 61 54 Copyright (C) 2009 \, Reality Jockey Ltd.;
#X text 60 325 See the file LICENSE.txt for the full license text.
;
#X restore 298 15 pd LICENSE-GPL;
#X text 35 69 ui_hsl \$0 name min max;
#N canvas 228 198 627 317 LICENSE-BSD 0;
#X text 121 56 This software is copyrighted by Miller Puckette \, Reality
Jockey Ltd. and others. The terms (the "Standard Improved BSD License")
apply to all files associated with the software unless explicitly disclaimed
in individual files.;
#X text 123 148 See the file LICENSE.txt for the full license text.
;
#X restore 613 385 pd LICENSE-BSD;
#X text 51 17 embedded rjdj e_dubdel abstraction;
#X obj 781 232 u_dispatch \$0 bpitch;
#X obj 781 277 u_dispatch \$0 bq;
#X obj 781 209 u_dispatch \$0 fb;
#X obj 781 298 u_dispatch \$0 wet;
#X obj 781 255 u_dispatch \$0 del;
#X obj 101 101 cnv 15 188 68 empty \$0-background fx_dubdel2 0 7 0
12 -260818 -1 0;
#X obj 187 114 vradio 14 1 0 4 \$0-setdell \$0-setdell-rcv _4 -6 -5
0 10 -204786 -35788 -159808 3;
#X obj 200 114 vradio 14 1 0 4 \$0-setdelr \$0-setdelr-rcv pong -4
-5 0 10 -204786 -35788 -159808 2;
#X obj 220 103 vsl 70 17 1 0 0 0 \$0-presets \$0-presets-rcv PRESETS
2 5 0 10 -232576 -232576 -1 0 1;
#X obj 781 317 u_parameter \$0 sync;
#N canvas 0 50 458 308 inv_scalelog 0;
#X obj 98 87 log;
#X obj 194 84 log;
#X obj 123 123 t b f;
#X obj 123 145 -;
#X obj 20 183 outlet;
#X obj 20 19 inlet;
#X obj 98 23 inlet;
#X obj 194 24 inlet;
#X obj 34 65 log;
#X obj 20 130 -;
#X obj 20 156 /;
#X connect 0 0 2 0;
#X connect 0 0 9 1;
#X connect 1 0 3 0;
#X connect 2 0 3 0;
#X connect 2 1 3 1;
#X connect 3 0 10 1;
#X connect 5 0 8 0;
#X connect 6 0 0 0;
#X connect 7 0 1 0;
#X connect 8 0 9 0;
#X connect 9 0 10 0;
#X connect 10 0 4 0;
#X restore 156 446 pd inv_scalelog;
#X obj 177 474 * 127;
#X msg 228 415 100;
#X msg 335 397 3000;
#X obj 78 386 r \$0-delay;
#X obj 139 508 r BPM;
#X obj 92 538 *;
#X obj 88 562 / 600;
#X obj 108 582 int;
#X obj 119 601 / 100;
#X msg 299 562 label bpm/\$1;
#X obj 295 349 loadbang;
#X obj 110 115 ui_vsl \$0 del 100 3000;
#X obj 163 100 tgl 15 0 \$0-sync \$0-sync-rcv sync 1 3 0 10 -44926
-1 -1 0 1;
#X obj 360 642 s \$0-bpm_factor-rcv;
#X obj 530 197 s \$0-setdell-rcv;
#X floatatom 541 168 5 0 0 0 - - -, f 5;
#X obj 540 147 r \$0-setdell;
#N canvas 236 50 1006 634 subbeat_gui 0;
#X obj 320 107 r \$0-setdell;
#X obj 370 203 select;
#X obj 362 160 t f f f;
#X obj 311 231 bng 15 250 50 0 empty empty empty 17 7 0 10 -262144
-1 -1;
#X obj 342 284 +;
#X msg 332 240 4;
#X obj 333 322 mod 8;
#X obj 403 295 +;
#X obj 461 229 > 3;
#X obj 460 254 * 4;
#X obj 386 469 + 1;
#X msg 305 473 8;
#X obj 311 435 select 6 7;
#X msg 346 469 16;
#X floatatom 351 387 5 0 0 0 - - -, f 5;
#X obj 351 365 t f f f;
#X obj 281 564 s \$0-dell;
#X obj 58 389 r \$0-dell;
#X obj 62 554 s \$0-setdell-rcv;
#X obj 41 414 select 8 16;
#X obj 145 439 - 1;
#X msg 41 441 6;
#X msg 82 440 7;
#X obj 81 473 mod 4;
#X msg 83 495 set \$1;
#X obj 820 213 select;
#X obj 812 170 t f f f;
#X obj 761 241 bng 15 250 50 0 empty empty empty 17 7 0 10 -262144
-1 -1;
#X obj 792 294 +;
#X msg 782 250 4;
#X obj 783 332 mod 8;
#X obj 853 305 +;
#X obj 836 479 + 1;
#X msg 755 483 8;
#X obj 761 445 select 6 7;
#X msg 796 479 16;
#X floatatom 801 397 5 0 0 0 - - -, f 5;
#X obj 801 375 t f f f;
#X obj 491 424 select 8 16;
#X obj 595 449 - 1;
#X msg 491 451 6;
#X msg 532 450 7;
#X obj 531 483 mod 4;
#X msg 533 505 set \$1;
#X obj 770 117 r \$0-setdelr;
#X obj 731 574 s \$0-delr;
#X obj 462 588 s \$0-setdelr-rcv;
#X obj 508 399 r \$0-delr;
#X msg 96 524 label _\$1;
#X msg 533 540 label _\$1;
#X obj 897 239 > 3;
#X obj 896 264 * 4;
#X msg 620 290 label pong;
#X obj 57 123 r \$0-delr;
#X obj 67 153 r \$0-dell;
#X obj 45 214 ==;
#X obj 57 188 t b f;
#X obj 58 257 s \$0-pingPongMode;
#X obj 608 499 r \$0-delr;
#X obj 612 249 delay 1;
#X obj 448 497 f;
#X obj 144 308 select 1 0;
#X connect 0 0 2 0;
#X connect 1 0 5 0;
#X connect 1 1 7 0;
#X connect 2 0 1 1;
#X connect 2 1 1 0;
#X connect 4 0 6 0;
#X connect 5 0 4 0;
#X connect 6 0 15 0;
#X connect 7 0 15 0;
#X connect 8 0 9 0;
#X connect 9 0 7 1;
#X connect 10 0 16 0;
#X connect 11 0 16 0;
#X connect 12 0 11 0;
#X connect 12 1 13 0;
#X connect 12 2 10 0;
#X connect 13 0 16 0;
#X connect 15 0 14 0;
#X connect 15 0 12 0;
#X connect 15 1 4 1;
#X connect 15 2 8 0;
#X connect 17 0 48 0;
#X connect 17 0 19 0;
#X connect 19 0 21 0;
#X connect 19 1 22 0;
#X connect 19 2 20 0;
#X connect 20 0 23 0;
#X connect 21 0 23 0;
#X connect 22 0 23 0;
#X connect 23 0 24 0;
#X connect 24 0 18 0;
#X connect 25 0 29 0;
#X connect 25 1 31 0;
#X connect 26 0 25 1;
#X connect 26 1 25 0;
#X connect 28 0 30 0;
#X connect 29 0 28 0;
#X connect 30 0 37 0;
#X connect 31 0 37 0;
#X connect 32 0 45 0;
#X connect 33 0 45 0;
#X connect 34 0 33 0;
#X connect 34 1 35 0;
#X connect 34 2 32 0;
#X connect 35 0 45 0;
#X connect 37 0 36 0;
#X connect 37 0 34 0;
#X connect 37 1 28 1;
#X connect 37 2 50 0;
#X connect 38 0 40 0;
#X connect 38 1 41 0;
#X connect 38 2 39 0;
#X connect 39 0 42 0;
#X connect 40 0 42 0;
#X connect 41 0 42 0;
#X connect 42 0 43 0;
#X connect 43 0 46 0;
#X connect 44 0 26 0;
#X connect 47 0 38 0;
#X connect 47 0 60 0;
#X connect 48 0 18 0;
#X connect 49 0 46 0;
#X connect 50 0 51 0;
#X connect 51 0 31 1;
#X connect 52 0 46 0;
#X connect 53 0 55 0;
#X connect 54 0 56 0;
#X connect 55 0 57 0;
#X connect 55 0 61 0;
#X connect 56 0 55 0;
#X connect 56 1 55 1;
#X connect 59 0 52 0;
#X connect 60 0 49 0;
#X connect 61 0 59 0;
#X connect 61 1 60 0;
#X restore 1155 72 pd subbeat_gui;
#X obj 781 160 u_dispatch \$0 delr;
#X obj 781 184 u_dispatch \$0 dell;
#X text 186 113 1/5;
#X text 186 126 2/6;
#X text 186 140 3/8;
#X text 185 153 4/16;
#X msg 412 347 bq 2 \, fb 0 \, bpitch 60 \, del 0 \, dell 4 \, delr
4 \, wet 0;
#X obj 148 115 ui_vs \$0 bpitch 50 120;
#X obj 252 115 ui_vs \$0 wet 0 1;
#X obj 214 115 ui_vs \$0 fb 0 1;
#X obj 783 135 module_loader fx_dubdel2 \$0 \$1;
#X obj 108 264 inlet~;
#X obj 233 267 inlet~;
#X obj 112 340 outlet~;
#X obj 199 335 outlet~;
#X obj 393 191 inlet data;
#X obj 396 292 outlet data;
#X obj 1043 269 s \$0-noclick_mode;
#X obj 1034 222 loadbang;
#X msg 1034 244 0;
#X obj 791 337 u_parameter \$0 noclick_mode;
#N canvas 1 56 880 474 audio_stuff 0;
#X obj 198 52 inlet~;
#X obj 311 291 outlet~;
#X obj 406 291 outlet~;
#X obj 359 48 inlet~;
#X obj 311 264 c_xfade;
#X obj 405 266 c_xfade;
#X obj 451 234 pack 0 10;
#X obj 502 159 r \$0-wet;
#X obj 491 212 *;
#X obj 499 188 t f f;
#N canvas 197 82 968 590 core 0;
#X obj 373 92 mtof;
#X obj 373 46 r \$0-bpitch;
#X obj 77 24 inlet~;
#X obj 313 12 inlet~;
#X obj 219 201 bp~ 5400 2;
#X obj 481 193 bp~ 5400 2;
#X obj 481 132 / 2;
#X obj 207 132 / 2;
#X text 511 132 because of 2 delaylines;
#X obj 442 165 *~ 0.1;
#X obj 168 162 *~ 0.1;
#X obj 509 165 r \$0-bq;
#X obj 234 165 r \$0-bq;
#X obj 437 276 delwrite~ \$0-dubby-r 6000;
#X obj 139 287 delwrite~ \$0-dubby-l 6000;
#N canvas 172 83 586 377 LICENSE-GPL 0;
#X text 57 88 This program is free software: you can redistribute it
and/or modify it under the terms of the GNU General Public License
as published by the Free Software Foundation \, either version 3 of
the License \, or (at your option) any later version.;
#X text 58 168 This program is distributed in the hope that it will
be useful \, but WITHOUT ANY WARRANTY \; without even the implied warranty
of MERCHANTABILITY or FITNESS FOR A PARTICULAR PURPOSE. See the GNU
General Public License for more details.;
#X text 57 261 You should have received a copy of the GNU General Public
License along with this program. If not \, see <http://www.gnu.org/licenses/>.
;
#X text 61 54 Copyright (C) 2009 \, Reality Jockey Ltd.;
#X text 60 325 See the file LICENSE.txt for the full license text.
;
#X restore 912 29 pd LICENSE-GPL;
#X obj 151 451 line~;
#X obj 461 441 line~;
#X msg 161 423 \$1 300;
#X msg 460 425 \$1 300;
#X obj 94 536 outlet~;
#X obj 596 551 outlet~;
#X obj 460 302 r \$0-delr;
#X obj 159 314 r \$0-dell;
#X obj 233 336 t b f;
#X obj 533 323 t b f;
#X obj 207 107 r \$0-fb;
#X obj 481 107 r \$0-fb;
#X obj 233 314 r \$0-delay;
#X obj 533 301 r \$0-delay;
#X obj 159 398 - 5;
#N canvas 1 56 718 621 mode_synchro 0;
#X obj 269 81 r BPM;
#X obj 263 180 /;
#X msg 261 132 60000 \$1;
#X obj 343 153 r \$0-del;
#X obj 329 283 /;
#X obj 319 320 moses 1;
#X obj 290 367 /;
#X msg 281 340 1 \$1;
#X obj 289 400 + 0.5;
#X obj 369 398 + 0.5;
#X obj 371 428 int;
#X obj 285 429 int;
#X msg 291 464 1 \$1;
#X obj 295 487 /;
#X obj 347 227 t b f f;
#X obj 312 508 *;
#X obj 352 508 *;
#X obj 258 548 s \$0-delay;
#X obj 194 85 == 0;
#X obj 105 62 r \$0-del;
#X obj 153 537 spigot;
#X obj 154 395 r \$0-sync;
#X obj 229 223 f;
#X obj 149 432 t f f f;
#X obj 94 94 f;
#X obj 146 471 select 1 0;
#X floatatom 398 449 5 0 0 0 - - -, f 5;
#X floatatom 285 451 5 0 0 0 - - -, f 5;
#X obj 158 111 spigot 1;
#X obj 358 58 r \$0-bpm;
#X connect 0 0 2 0;
#X connect 1 0 22 0;
#X connect 2 0 1 0;
#X connect 3 0 4 0;
#X connect 4 0 5 0;
#X connect 5 0 7 0;
#X connect 5 1 9 0;
#X connect 6 0 8 0;
#X connect 7 0 6 0;
#X connect 8 0 11 0;
#X connect 9 0 10 0;
#X connect 10 0 16 0;
#X connect 10 0 26 0;
#X connect 11 0 12 0;
#X connect 11 0 27 0;
#X connect 12 0 13 0;
#X connect 13 0 15 0;
#X connect 14 0 4 0;
#X connect 14 1 4 1;
#X connect 14 2 15 1;
#X connect 14 2 16 1;
#X connect 15 0 20 0;
#X connect 16 0 20 0;
#X connect 18 0 28 1;
#X connect 19 0 24 0;
#X connect 20 0 17 0;
#X connect 21 0 23 0;
#X connect 22 0 14 0;
#X connect 23 0 25 0;
#X connect 23 1 20 1;
#X connect 23 2 18 0;
#X connect 24 0 28 0;
#X connect 25 0 22 0;
#X connect 25 1 24 0;
#X connect 28 0 17 0;
#X connect 29 0 2 0;
#X restore 714 61 pd mode_synchro;
#X obj 119 343 / 4;
#X obj 142 373 *;
#X obj 445 331 / 4;
#X obj 460 354 *;
#X obj 593 40 r LATENCY;
#X obj 463 396 - 5;
#X obj 584 400 t b f;
#X obj 603 380 r LATENCY;
#X obj 274 410 t b f;
#X obj 293 390 r LATENCY;
#X obj 48 117 r \$0-pingPongMode;
#X obj 371 143 r \$0-pingPongMode;
#X obj 371 165 == 0;
#X obj 362 193 *~ 1;
#X obj 43 152 *~ 0;
#X obj 220 514 *~ 1;
#X obj 248 447 r \$0-pingPongMode;
#X obj 248 469 == 0;
#X obj 406 517 *~ 1;
#X obj 219 552 delwrite~ \$0-lagl 200;
#X obj 419 554 delwrite~ \$0-lagr 200;
#X obj 154 82 delread~ \$0-lagl 5;
#X obj 446 88 delread~ \$0-lagr 5;
#X obj 270 514 *~ 0;
#X obj 350 514 *~ 0;
#X obj 143 240 hip~ 5;
#X obj 454 230 hip~ 5;
#X obj 143 262 clip~ -10 10;
#X obj 446 254 clip~ -10 10;
#N canvas 0 50 793 562 vd~/noclickdelsig 0;
#N canvas 0 50 785 300 noclick 0;
#X obj 100 248 samphold~;
#X obj 100 318 *~;
#X obj 214 126 phasor~ 5;
#X obj 217 247 samphold~;
#X obj 217 317 *~;
#N canvas 0 50 450 300 cosenv 0;
#X obj 92 107 cos~;
#X obj 92 128 *~ 0.5;
#X obj 93 148 +~ 0.5;
#X obj 93 60 -~ 0.5;
#X obj 92 82 wrap~;
#X obj 93 37 inlet~;
#X obj 94 184 outlet~;
#X connect 0 0 1 0;
#X connect 1 0 2 0;
#X connect 2 0 6 0;
#X connect 3 0 4 0;
#X connect 4 0 0 0;
#X connect 5 0 3 0;
#X restore 213 216 pd cosenv;
#X obj 318 168 +~ 0.5;
#X obj 317 191 wrap~;
#X text 371 176 half out of phase;
#N canvas 0 50 450 300 cosenv 0;
#X obj 92 107 cos~;
#X obj 92 128 *~ 0.5;
#X obj 93 148 +~ 0.5;
#X obj 93 60 -~ 0.5;
#X obj 92 82 wrap~;
#X obj 93 37 inlet~;
#X obj 94 184 outlet~;
#X connect 0 0 1 0;
#X connect 1 0 2 0;
#X connect 2 0 6 0;
#X connect 3 0 4 0;
#X connect 4 0 0 0;
#X connect 5 0 3 0;
#X restore 317 217 pd cosenv;
#X obj 214 61 inlet;
#X obj 214 81 swap 1000;
#X obj 214 102 /;
#X obj 100 93 inlet~;
#X obj 542 96 inlet enable;
#X obj 542 118 switch~;
#X obj 100 398 outlet~;
#X obj 100 278 vd~ \$0-dubby-l;
#X obj 217 277 vd~ \$0-dubby-l;
#X connect 0 0 17 0;
#X connect 1 0 16 0;
#X connect 2 0 0 1;
#X connect 2 0 5 0;
#X connect 2 0 6 0;
#X connect 3 0 18 0;
#X connect 4 0 16 0;
#X connect 5 0 1 1;
#X connect 6 0 7 0;
#X connect 7 0 3 1;
#X connect 7 0 9 0;
#X connect 9 0 4 1;
#X connect 10 0 11 0;
#X connect 11 0 12 0;
#X connect 11 1 12 1;
#X connect 12 0 2 0;
#X connect 13 0 0 0;
#X connect 13 0 3 0;
#X connect 14 0 15 0;
#X connect 17 0 1 0;
#X connect 18 0 4 0;
#X restore 228 236 pd noclick;
#N canvas 0 50 450 300 vd~ 0;
#X obj 95 41 inlet~;
#X obj 217 49 inlet enable;
#X obj 217 71 switch~;
#X obj 109 100 vd~ \$0-dubby-l;
#X obj 109 122 outlet~;
#X connect 0 0 3 0;
#X connect 1 0 2 0;
#X connect 3 0 4 0;
#X restore 356 238 pd vd~;
#X obj 418 146 == 0;
#X obj 413 43 inlet noclick-mode;
#X obj 208 83 inlet~;
#X obj 228 281 outlet~;
#X connect 0 0 5 0;
#X connect 1 0 5 0;
#X connect 2 0 1 1;
#X connect 3 0 2 0;
#X connect 3 0 0 2;
#X connect 4 0 0 0;
#X connect 4 0 1 0;
#X restore 120 488 pd vd~/noclickdelsig \$0-dubby-l;
#N canvas 0 50 793 562 vd~/noclickdelsig 0;
#N canvas 0 50 785 300 noclick 0;
#X obj 100 248 samphold~;
#X obj 100 318 *~;
#X obj 214 126 phasor~ 5;
#X obj 217 247 samphold~;
#X obj 217 317 *~;
#N canvas 0 50 450 300 cosenv 0;
#X obj 92 107 cos~;
#X obj 92 128 *~ 0.5;
#X obj 93 148 +~ 0.5;
#X obj 93 60 -~ 0.5;
#X obj 92 82 wrap~;
#X obj 93 37 inlet~;
#X obj 94 184 outlet~;
#X connect 0 0 1 0;
#X connect 1 0 2 0;
#X connect 2 0 6 0;
#X connect 3 0 4 0;
#X connect 4 0 0 0;
#X connect 5 0 3 0;
#X restore 213 216 pd cosenv;
#X obj 318 168 +~ 0.5;
#X obj 317 191 wrap~;
#X text 371 176 half out of phase;
#N canvas 0 50 450 300 cosenv 0;
#X obj 92 107 cos~;
#X obj 92 128 *~ 0.5;
#X obj 93 148 +~ 0.5;
#X obj 93 60 -~ 0.5;
#X obj 92 82 wrap~;
#X obj 93 37 inlet~;
#X obj 94 184 outlet~;
#X connect 0 0 1 0;
#X connect 1 0 2 0;
#X connect 2 0 6 0;
#X connect 3 0 4 0;
#X connect 4 0 0 0;
#X connect 5 0 3 0;
#X restore 317 217 pd cosenv;
#X obj 214 61 inlet;
#X obj 214 81 swap 1000;
#X obj 214 102 /;
#X obj 100 93 inlet~;
#X obj 542 96 inlet enable;
#X obj 542 118 switch~;
#X obj 100 398 outlet~;
#X obj 100 278 vd~ \$0-dubby-r;
#X obj 217 277 vd~ \$0-dubby-r;
#X connect 0 0 17 0;
#X connect 1 0 16 0;
#X connect 2 0 0 1;
#X connect 2 0 5 0;
#X connect 2 0 6 0;
#X connect 3 0 18 0;
#X connect 4 0 16 0;
#X connect 5 0 1 1;
#X connect 6 0 7 0;
#X connect 7 0 3 1;
#X connect 7 0 9 0;
#X connect 9 0 4 1;
#X connect 10 0 11 0;
#X connect 11 0 12 0;
#X connect 11 1 12 1;
#X connect 12 0 2 0;
#X connect 13 0 0 0;
#X connect 13 0 3 0;
#X connect 14 0 15 0;
#X connect 17 0 1 0;
#X connect 18 0 4 0;
#X restore 228 236 pd noclick;
#N canvas 0 50 450 300 vd~ 0;
#X obj 95 41 inlet~;
#X obj 217 49 inlet enable;
#X obj 217 71 switch~;
#X obj 109 122 outlet~;
#X obj 109 100 vd~ \$0-dubby-r;
#X connect 0 0 4 0;
#X connect 1 0 2 0;
#X connect 4 0 3 0;
#X restore 356 238 pd vd~;
#X obj 418 146 == 0;
#X obj 413 43 inlet noclick-mode;
#X obj 208 83 inlet~;
#X obj 228 281 outlet~;
#X connect 0 0 5 0;
#X connect 1 0 5 0;
#X connect 2 0 1 1;
#X connect 3 0 2 0;
#X connect 3 0 0 2;
#X connect 4 0 0 0;
#X connect 4 0 1 0;
#X restore 442 476 pd vd~/noclickdelsig \$0-dubby-r;
#X obj 823 269 r \$0-noclick_mode;
#X connect 0 0 4 1;
#X connect 0 0 5 1;
#X connect 1 0 0 0;
#X connect 2 0 57 0;
#X connect 3 0 46 0;
#X connect 3 0 45 0;
#X connect 4 0 57 0;
#X connect 5 0 58 0;
#X connect 6 0 9 1;
#X connect 7 0 10 1;
#X connect 9 0 5 0;
#X connect 10 0 4 0;
#X connect 11 0 5 2;
#X connect 12 0 4 2;
#X connect 16 0 61 0;
#X connect 17 0 62 0;
#X connect 18 0 16 0;
#X connect 19 0 17 0;
#X connect 22 0 34 0;
#X connect 23 0 32 0;
#X connect 24 0 33 0;
#X connect 24 1 33 1;
#X connect 25 0 35 0;
#X connect 25 1 35 1;
#X connect 26 0 7 0;
#X connect 27 0 6 0;
#X connect 28 0 24 0;
#X connect 29 0 25 0;
#X connect 30 0 18 0;
#X connect 32 0 33 0;
#X connect 33 0 30 0;
#X connect 34 0 35 0;
#X connect 35 0 37 0;
#X connect 36 0 53 0;
#X connect 36 0 54 0;
#X connect 37 0 19 0;
#X connect 38 0 37 0;
#X connect 38 1 37 1;
#X connect 39 0 38 0;
#X connect 40 0 30 0;
#X connect 40 1 30 1;
#X connect 41 0 40 0;
#X connect 42 0 46 1;
#X connect 43 0 44 0;
#X connect 44 0 45 1;
#X connect 45 0 58 0;
#X connect 46 0 57 0;
#X connect 47 0 51 0;
#X connect 48 0 49 0;
#X connect 48 0 55 1;
#X connect 48 0 56 1;
#X connect 49 0 47 1;
#X connect 49 0 50 1;
#X connect 50 0 52 0;
#X connect 53 0 10 0;
#X connect 54 0 9 0;
#X connect 55 0 52 0;
#X connect 56 0 51 0;
#X connect 57 0 59 0;
#X connect 58 0 60 0;
#X connect 59 0 14 0;
#X connect 60 0 13 0;
#X connect 61 0 20 0;
#X connect 61 0 47 0;
#X connect 61 0 55 0;
#X connect 62 0 21 0;
#X connect 62 0 50 0;
#X connect 62 0 56 0;
#X connect 63 0 62 1;
#X connect 63 0 61 1;
#X restore 321 196 pd core;
#X connect 0 0 4 0;
#X connect 0 0 10 0;
#X connect 3 0 5 0;
#X connect 3 0 10 1;
#X connect 4 0 1 0;
#X connect 5 0 2 0;
#X connect 6 0 5 2;
#X connect 6 0 4 2;
#X connect 7 0 9 0;
#X connect 8 0 6 0;
#X connect 9 0 8 0;
#X connect 9 1 8 1;
#X connect 10 0 4 1;
#X connect 10 1 5 1;
#X restore 110 298 pd audio_stuff;
#X obj 208 102 tgl 12 0 \$0-noclick_mode \$0-noclick_mode-rcv empty
17 7 0 10 -250685 -1 -1 0 1;
#X obj 100 117 vsl 10 50 0 127 0 0 empty \$0-bpm_factor-rcv bpm/1.36
1 5 0 10 -44926 -1 -1 0 1;
#X obj 119 623 change;
#X obj 417 525 change;
#X obj 59 426 t f f;
#N canvas 0 50 450 300 mmp_gui 0;
#X obj 184 104 text define -k \$0-gui;
#A set {"address":"/knob0" \, "highlightColor":[1 \, 0 \, 0 \, 1] \,
"color":[0.5679013 \, 1 \, 0.617376 \, 1] \, "frame":[15.46094 \, 109.449
\, 160 \, 160] \, "indicatorColor":[0.2352941 \, 0.333333 \, 0.372549
\, 1] \, "range":2 \, "class":"MMPKnob"};
#X restore 860 433 pd mmp_gui;
#N canvas 629 278 616 300 datastructures 0;
#X obj 41 31 struct ColorRGBA float r float g float b float a;
#X obj 41 59 struct MMPKnob symbol address float x float y float w
float h float range array colors ColorRGBA;
#X restore 948 527 pd datastructures;
#X obj 272 613 speed_lim;
#X obj 392 613 speed_lim;
#X obj 505 426 r \$0-sync;
#N canvas 0 50 450 300 bouton_syncro 0;
#X msg 129 109 127;
#X msg 188 108 0;
#X obj 125 143 midi-colors \$0 sync \$0-sync-rcv 0 0 0 17;
#X obj 120 175 select 127;
#X obj 120 197 f;
#X obj 166 206 r \$0-sync;
#X obj 120 219 == 0;
#X obj 120 241 s \$0-sync;
#X obj 140 40 r \$0-sync;
#X obj 138 76 select 1 0;
#X connect 0 0 2 0;
#X connect 1 0 2 0;
#X connect 2 0 3 0;
#X connect 3 0 4 0;
#X connect 4 0 6 0;
#X connect 5 0 4 1;
#X connect 6 0 7 0;
#X connect 8 0 9 0;
#X connect 9 0 0 0;
#X connect 9 1 1 0;
#X restore 676 501 pd bouton_syncro;
#N canvas 575 90 694 300 bouton_noclick_mode 0;
#X msg 129 109 127;
#X msg 188 108 0;
#X obj 120 175 select 127;
#X obj 120 197 f;
#X obj 120 219 == 0;
#X obj 138 76 select 1 0;
#X obj 140 40 r \$0-noclick_mode;
#X obj 166 206 r \$0-noclick_mode;
#X obj 120 241 s \$0-noclick_mode;
#X floatatom 530 119 5 0 0 0 - - -, f 5;
#X obj 125 143 midi-colors \$0 noclick_mode \$0-noclick_mode-rcv 0
0 0 49;
#X connect 0 0 10 0;
#X connect 1 0 10 0;
#X connect 2 0 3 0;
#X connect 3 0 4 0;
#X connect 4 0 8 0;
#X connect 5 0 0 0;
#X connect 5 1 1 0;
#X connect 6 0 5 0;
#X connect 7 0 3 1;
#X connect 9 0 10 1;
#X connect 10 0 2 0;
#X restore 676 521 pd bouton_noclick_mode;
#X obj 453 214 route bpm;
#X obj 453 237 s \$0-bpm;
#X obj 193 510 r \$0-bpm;
#X obj 534 4 declare -path ../../ressources/core;
#X obj 534 34 declare -path ../../ressources/rj;
#X connect 0 0 40 0;
#X connect 5 0 9 0;
#X connect 6 0 8 0;
#X connect 7 0 5 0;
#X connect 8 0 14 0;
#X connect 9 0 6 0;
#X connect 14 0 54 0;
#X connect 15 0 16 0;
#X connect 16 0 59 0;
#X connect 17 0 15 1;
#X connect 18 0 15 2;
#X connect 19 0 60 0;
#X connect 20 0 21 1;
#X connect 21 0 22 0;
#X connect 22 0 23 0;
#X connect 23 0 24 0;
#X connect 24 0 58 0;
#X connect 25 0 63 0;
#X connect 26 0 18 0;
#X connect 26 0 17 0;
#X connect 32 0 31 0;
#X connect 34 0 35 0;
#X connect 35 0 7 0;
#X connect 40 0 34 0;
#X connect 44 0 34 0;
#X connect 45 0 55 0;
#X connect 46 0 55 1;
#X connect 49 0 50 0;
#X connect 49 0 44 0;
#X connect 49 0 68 0;
#X connect 52 0 53 0;
#X connect 53 0 51 0;
#X connect 55 0 47 0;
#X connect 55 1 48 0;
#X connect 58 0 25 0;
#X connect 59 0 64 0;
#X connect 60 0 21 0;
#X connect 60 1 15 0;
#X connect 63 0 29 0;
#X connect 64 0 29 0;
#X connect 68 0 69 0;
#X connect 70 0 21 1;
#X coords 0 -1 1 1 190 70 1 100 100;
