#N canvas 646 56 678 486 10;
#X declare -path ../../ressources/core;
#X declare -path ../../ressources/rj;
#N canvas 172 83 586 377 LICENSE-GPL 0;
#X text 57 88 This program is free software: you can redistribute it
and/or modify it under the terms of the GNU General Public License
as published by the Free Software Foundation \, either version 3 of
the License \, or (at your option) any later version.;
#X text 58 168 This program is distributed in the hope that it will
be useful \, but WITHOUT ANY WARRANTY \; without even the implied warranty
of MERCHANTABILITY or FITNESS FOR A PARTICULAR PURPOSE. See the GNU
General Public License for more details.;
#X text 57 261 You should have received a copy of the GNU General Public
License along with this program. If not \, see <http://www.gnu.org/licenses/>.
;
#X text 61 54 Copyright (C) 2009 \, Reality Jockey Ltd.;
#X text 60 325 See the file LICENSE.txt for the full license text.
;
#X restore 298 15 pd LICENSE-GPL;
#X obj 101 101 cnv 15 188 68 empty \$0-background fx_eq3 0 7 0 14 -260818
-1 0;
#X obj 101 101 cnv 15 188 68 empty \$0-background fx_eq3 0 7 0 14 -260818
-1 0;
#X obj 31 246 inlet~;
#X obj 117 245 inlet~;
#X obj 28 304 outlet~;
#X obj 108 304 outlet~;
#X obj 169 288 inlet data;
#X obj 169 310 outlet data;
#X obj 412 273 module_loader fx_eq3 \$0 \$1;
#X text 52 37 3 band eq from DIY2 st-EQ3.pd;
#N canvas 294 50 539 663 workings 0;
#X obj 80 36 inlet~ signal;
#X obj 225 580 outlet~;
#X obj 306 454 r \$0-gain;
#N canvas 0 50 462 312 rh_scalelog 0;
#X obj 20 155 exp;
#X obj 20 107 *;
#X obj 20 130 +;
#X obj 98 87 log;
#X obj 194 84 log;
#X obj 123 123 t b f;
#X obj 123 145 -;
#X obj 20 183 outlet;
#X obj 20 19 inlet;
#X obj 98 23 inlet;
#X obj 194 24 inlet;
#X connect 0 0 7 0;
#X connect 1 0 2 0;
#X connect 2 0 0 0;
#X connect 3 0 2 1;
#X connect 3 0 5 0;
#X connect 4 0 6 0;
#X connect 5 0 6 0;
#X connect 5 1 6 1;
#X connect 6 0 1 1;
#X connect 8 0 1 0;
#X connect 9 0 3 0;
#X connect 10 0 4 0;
#X restore 305 542 pd rh_scalelog;
#X msg 352 518 0.1;
#X msg 398 518 10;
#X obj 225 553 *~;
#N canvas 211 75 1084 725 using 0;
#X obj 66 25 inlet~;
#X obj 66 80 biquad~ 1.86972 -0.872325 0.000650245 0.00130049 0.000650245
;
#X text 185 59 lo x3;
#X obj 66 100 biquad~ 1.86972 -0.872325 0.000650245 0.00130049 0.000650245
;
#X obj 66 120 biquad~ 1.86972 -0.872325 0.000650245 0.00130049 0.000650245
;
#X obj 194 172 biquad~ 1.36591 -0.385279 0.307361 0 -0.307361;
#X text 329 152 mid x3;
#X obj 194 192 biquad~ 1.36591 -0.385279 0.307361 0 -0.307361;
#X obj 194 212 biquad~ 1.36591 -0.385279 0.307361 0 -0.307361;
#X obj 336 263 biquad~ 1.63386 -0.729864 0.840931 -1.68186 0.840931
;
#X text 476 241 hi x2;
#X obj 336 283 biquad~ 1.63386 -0.729864 0.840931 -1.68186 0.840931
;
#N canvas 0 50 454 304 scalelog 0;
#X obj 20 155 exp;
#X obj 20 107 *;
#X obj 20 130 +;
#X obj 98 87 log;
#X obj 194 84 log;
#X obj 123 123 t b f;
#X obj 123 145 -;
#X obj 20 183 outlet;
#X obj 20 19 inlet;
#X obj 100 51 inlet;
#X obj 205 47 inlet;
#X connect 0 0 7 0;
#X connect 1 0 2 0;
#X connect 2 0 0 0;
#X connect 3 0 2 1;
#X connect 3 0 5 0;
#X connect 4 0 6 0;
#X connect 5 0 6 0;
#X connect 5 1 6 1;
#X connect 6 0 1 1;
#X connect 8 0 1 0;
#X connect 9 0 3 0;
#X connect 10 0 4 0;
#X restore 409 404 pd scalelog;
#X obj 402 320 r \$0-high;
#X msg 433 369 0.2;
#N canvas 0 50 454 304 scalelog 0;
#X obj 20 155 exp;
#X obj 20 107 *;
#X obj 20 130 +;
#X obj 98 87 log;
#X obj 194 84 log;
#X obj 123 123 t b f;
#X obj 123 145 -;
#X obj 20 183 outlet;
#X obj 20 19 inlet;
#X obj 100 51 inlet;
#X obj 205 47 inlet;
#X connect 0 0 7 0;
#X connect 1 0 2 0;
#X connect 2 0 0 0;
#X connect 3 0 2 1;
#X connect 3 0 5 0;
#X connect 4 0 6 0;
#X connect 5 0 6 0;
#X connect 5 1 6 1;
#X connect 6 0 1 1;
#X connect 8 0 1 0;
#X connect 9 0 3 0;
#X connect 10 0 4 0;
#X restore 419 516 pd scalelog;
#X msg 443 481 0.2;
#X obj 412 432 r \$0-mid;
#N canvas 0 50 454 304 scalelog 0;
#X obj 20 155 exp;
#X obj 20 107 *;
#X obj 20 130 +;
#X obj 98 87 log;
#X obj 194 84 log;
#X obj 123 123 t b f;
#X obj 123 145 -;
#X obj 20 183 outlet;
#X obj 20 19 inlet;
#X obj 100 51 inlet;
#X obj 205 47 inlet;
#X connect 0 0 7 0;
#X connect 1 0 2 0;
#X connect 2 0 0 0;
#X connect 3 0 2 1;
#X connect 3 0 5 0;
#X connect 4 0 6 0;
#X connect 5 0 6 0;
#X connect 5 1 6 1;
#X connect 6 0 1 1;
#X connect 8 0 1 0;
#X connect 9 0 3 0;
#X connect 10 0 4 0;
#X restore 429 626 pd scalelog;
#X msg 453 591 0.2;
#X obj 422 542 r \$0-low;
#X obj 119 472 outlet~;
#X obj 355 346 - 0.2;
#X obj 215 344 - 0.2;
#X obj 88 344 - 0.2;
#X msg 486 591 7.5;
#X msg 476 480 7.5;
#X msg 466 369 7.5;
#X obj 453 567 r \$0-loadbang;
#X obj 443 458 r \$0-loadbang;
#X obj 433 345 r \$0-loadbang;
#X obj 212 389 line~;
#X msg 217 369 \$1 10;
#X obj 95 394 line~;
#X obj 43 418 *~;
#X msg 96 373 \$1 10;
#X obj 153 418 *~;
#X obj 279 423 *~;
#X obj 312 399 line~;
#X msg 317 379 \$1 10;
#X connect 0 0 1 0;
#X connect 0 0 5 0;
#X connect 0 0 9 0;
#X connect 1 0 3 0;
#X connect 3 0 4 0;
#X connect 4 0 34 0;
#X connect 5 0 7 0;
#X connect 7 0 8 0;
#X connect 8 0 36 0;
#X connect 9 0 11 0;
#X connect 11 0 37 0;
#X connect 12 0 22 0;
#X connect 13 0 12 0;
#X connect 14 0 12 1;
#X connect 15 0 23 0;
#X connect 16 0 15 1;
#X connect 17 0 15 0;
#X connect 18 0 24 0;
#X connect 19 0 18 1;
#X connect 20 0 18 0;
#X connect 22 0 39 0;
#X connect 23 0 32 0;
#X connect 24 0 35 0;
#X connect 25 0 18 2;
#X connect 26 0 15 2;
#X connect 27 0 12 2;
#X connect 28 0 19 0;
#X connect 28 0 25 0;
#X connect 29 0 16 0;
#X connect 29 0 26 0;
#X connect 30 0 14 0;
#X connect 30 0 27 0;
#X connect 31 0 36 1;
#X connect 32 0 31 0;
#X connect 33 0 34 1;
#X connect 34 0 21 0;
#X connect 35 0 33 0;
#X connect 36 0 21 0;
#X connect 37 0 21 0;
#X connect 38 0 37 1;
#X connect 39 0 38 0;
#X restore 89 174 pd using raw biquad~ objects;
#X floatatom 270 487 5 0 0 0 - - -, f 5;
#X obj 352 490 r \$0-loadbang;
#X obj 224 392 line~;
#X msg 286 346 \$1 10;
#X connect 0 0 7 0;
#X connect 2 0 3 0;
#X connect 2 0 8 0;
#X connect 3 0 11 0;
#X connect 4 0 3 1;
#X connect 5 0 3 2;
#X connect 6 0 1 0;
#X connect 7 0 6 0;
#X connect 9 0 4 0;
#X connect 9 0 5 0;
#X connect 10 0 6 1;
#X connect 11 0 10 0;
#X restore 38 269 pd workings;
#X obj 470 379 s \$0-low;
#X obj 528 382 s \$0-mid;
#X obj 589 382 s \$0-high;
#X obj 656 379 s \$0-gain;
#X obj 412 295 u_dispatch \$0 low;
#X obj 412 317 u_dispatch \$0 mid;
#X obj 412 339 u_dispatch \$0 high;
#X obj 412 361 u_dispatch \$0 gain;
#X obj 176 115 ui_vs \$0 mid 0 1;
#X obj 214 115 ui_vs \$0 high 0 1;
#X obj 252 115 ui_vs \$0 gain 0 1;
#X obj 462 141 s \$0-loadbang;
#X obj 434 105 bng 15 250 50 0 empty empty empty 17 7 0 10 -262144
-1 -1;
#X obj 463 66 loadbang;
#X obj 107 139 bng 15 250 50 0 empty empty flat 2 -8 0 10 -262144 -1
-1;
#X msg 187 228 low 0.5 \, mid 0.5 \, high 0.5 \, gain 0.5;
#N canvas 294 50 539 663 workings 0;
#X obj 80 36 inlet~ signal;
#X obj 225 580 outlet~;
#X obj 306 454 r \$0-gain;
#N canvas 0 50 462 312 rh_scalelog 0;
#X obj 20 155 exp;
#X obj 20 107 *;
#X obj 20 130 +;
#X obj 98 87 log;
#X obj 194 84 log;
#X obj 123 123 t b f;
#X obj 123 145 -;
#X obj 20 183 outlet;
#X obj 20 19 inlet;
#X obj 98 23 inlet;
#X obj 194 24 inlet;
#X connect 0 0 7 0;
#X connect 1 0 2 0;
#X connect 2 0 0 0;
#X connect 3 0 2 1;
#X connect 3 0 5 0;
#X connect 4 0 6 0;
#X connect 5 0 6 0;
#X connect 5 1 6 1;
#X connect 6 0 1 1;
#X connect 8 0 1 0;
#X connect 9 0 3 0;
#X connect 10 0 4 0;
#X restore 305 542 pd rh_scalelog;
#X msg 352 518 0.1;
#X msg 398 518 10;
#X obj 225 553 *~;
#N canvas 41 50 825 716 using 0;
#X obj 66 25 inlet~;
#X obj 66 80 biquad~ 1.86972 -0.872325 0.000650245 0.00130049 0.000650245
;
#X text 185 59 lo x3;
#X obj 66 100 biquad~ 1.86972 -0.872325 0.000650245 0.00130049 0.000650245
;
#X obj 66 120 biquad~ 1.86972 -0.872325 0.000650245 0.00130049 0.000650245
;
#X obj 194 172 biquad~ 1.36591 -0.385279 0.307361 0 -0.307361;
#X text 329 152 mid x3;
#X obj 194 192 biquad~ 1.36591 -0.385279 0.307361 0 -0.307361;
#X obj 194 212 biquad~ 1.36591 -0.385279 0.307361 0 -0.307361;
#X obj 336 263 biquad~ 1.63386 -0.729864 0.840931 -1.68186 0.840931
;
#X text 476 241 hi x2;
#X obj 336 283 biquad~ 1.63386 -0.729864 0.840931 -1.68186 0.840931
;
#N canvas 0 50 454 304 scalelog 0;
#X obj 20 155 exp;
#X obj 20 107 *;
#X obj 20 130 +;
#X obj 98 87 log;
#X obj 194 84 log;
#X obj 123 123 t b f;
#X obj 123 145 -;
#X obj 20 183 outlet;
#X obj 20 19 inlet;
#X obj 100 51 inlet;
#X obj 205 47 inlet;
#X connect 0 0 7 0;
#X connect 1 0 2 0;
#X connect 2 0 0 0;
#X connect 3 0 2 1;
#X connect 3 0 5 0;
#X connect 4 0 6 0;
#X connect 5 0 6 0;
#X connect 5 1 6 1;
#X connect 6 0 1 1;
#X connect 8 0 1 0;
#X connect 9 0 3 0;
#X connect 10 0 4 0;
#X restore 409 404 pd scalelog;
#X obj 402 320 r \$0-high;
#X msg 433 369 0.2;
#N canvas 0 50 454 304 scalelog 0;
#X obj 20 155 exp;
#X obj 20 107 *;
#X obj 20 130 +;
#X obj 98 87 log;
#X obj 194 84 log;
#X obj 123 123 t b f;
#X obj 123 145 -;
#X obj 20 183 outlet;
#X obj 20 19 inlet;
#X obj 100 51 inlet;
#X obj 205 47 inlet;
#X connect 0 0 7 0;
#X connect 1 0 2 0;
#X connect 2 0 0 0;
#X connect 3 0 2 1;
#X connect 3 0 5 0;
#X connect 4 0 6 0;
#X connect 5 0 6 0;
#X connect 5 1 6 1;
#X connect 6 0 1 1;
#X connect 8 0 1 0;
#X connect 9 0 3 0;
#X connect 10 0 4 0;
#X restore 419 516 pd scalelog;
#X msg 443 481 0.2;
#X obj 412 432 r \$0-mid;
#N canvas 0 50 454 304 scalelog 0;
#X obj 20 155 exp;
#X obj 20 107 *;
#X obj 20 130 +;
#X obj 98 87 log;
#X obj 194 84 log;
#X obj 123 123 t b f;
#X obj 123 145 -;
#X obj 20 183 outlet;
#X obj 20 19 inlet;
#X obj 100 51 inlet;
#X obj 205 47 inlet;
#X connect 0 0 7 0;
#X connect 1 0 2 0;
#X connect 2 0 0 0;
#X connect 3 0 2 1;
#X connect 3 0 5 0;
#X connect 4 0 6 0;
#X connect 5 0 6 0;
#X connect 5 1 6 1;
#X connect 6 0 1 1;
#X connect 8 0 1 0;
#X connect 9 0 3 0;
#X connect 10 0 4 0;
#X restore 429 626 pd scalelog;
#X msg 453 591 0.2;
#X obj 422 542 r \$0-low;
#X obj 119 472 outlet~;
#X obj 355 346 - 0.2;
#X obj 215 344 - 0.2;
#X obj 88 344 - 0.2;
#X msg 486 591 7.5;
#X msg 476 480 7.5;
#X msg 466 369 7.5;
#X obj 453 567 r \$0-loadbang;
#X obj 443 458 r \$0-loadbang;
#X obj 433 345 r \$0-loadbang;
#X obj 212 389 line~;
#X msg 217 369 \$1 10;
#X obj 95 394 line~;
#X obj 43 418 *~;
#X msg 96 373 \$1 10;
#X obj 153 418 *~;
#X obj 279 423 *~;
#X obj 312 399 line~;
#X msg 317 379 \$1 10;
#X connect 0 0 1 0;
#X connect 0 0 5 0;
#X connect 0 0 9 0;
#X connect 1 0 3 0;
#X connect 3 0 4 0;
#X connect 4 0 34 0;
#X connect 5 0 7 0;
#X connect 7 0 8 0;
#X connect 8 0 36 0;
#X connect 9 0 11 0;
#X connect 11 0 37 0;
#X connect 12 0 22 0;
#X connect 13 0 12 0;
#X connect 14 0 12 1;
#X connect 15 0 23 0;
#X connect 16 0 15 1;
#X connect 17 0 15 0;
#X connect 18 0 24 0;
#X connect 19 0 18 1;
#X connect 20 0 18 0;
#X connect 22 0 39 0;
#X connect 23 0 32 0;
#X connect 24 0 35 0;
#X connect 25 0 18 2;
#X connect 26 0 15 2;
#X connect 27 0 12 2;
#X connect 28 0 19 0;
#X connect 28 0 25 0;
#X connect 29 0 16 0;
#X connect 29 0 26 0;
#X connect 30 0 14 0;
#X connect 30 0 27 0;
#X connect 31 0 36 1;
#X connect 32 0 31 0;
#X connect 33 0 34 1;
#X connect 34 0 21 0;
#X connect 35 0 33 0;
#X connect 36 0 21 0;
#X connect 37 0 21 0;
#X connect 38 0 37 1;
#X connect 39 0 38 0;
#X restore 89 174 pd using raw biquad~ objects;
#X floatatom 270 487 5 0 0 0 - - -, f 5;
#X obj 352 490 r \$0-loadbang;
#X obj 224 392 line~;
#X msg 286 346 \$1 10;
#X connect 0 0 7 0;
#X connect 2 0 3 0;
#X connect 2 0 8 0;
#X connect 3 0 11 0;
#X connect 4 0 3 1;
#X connect 5 0 3 2;
#X connect 6 0 1 0;
#X connect 7 0 6 0;
#X connect 9 0 4 0;
#X connect 9 0 5 0;
#X connect 10 0 6 1;
#X connect 11 0 10 0;
#X restore 138 269 pd workings;
#X obj 138 115 ui_vs \$0 low 0 1;
#X obj 534 4 declare -path ../../ressources/core;
#X obj 534 34 declare -path ../../ressources/rj;
#X connect 3 0 11 0;
#X connect 4 0 28 0;
#X connect 7 0 8 0;
#X connect 7 0 9 0;
#X connect 9 0 16 0;
#X connect 11 0 5 0;
#X connect 16 0 17 0;
#X connect 17 0 18 0;
#X connect 18 0 19 0;
#X connect 24 0 23 0;
#X connect 25 0 23 0;
#X connect 25 0 27 0;
#X connect 26 0 27 0;
#X connect 27 0 9 0;
#X connect 28 0 6 0;
#X coords 0 -1 1 1 190 70 1 100 100;
