#N canvas 159 67 678 486 10;
#X declare -path ../../ressources/core;
#X declare -path ../../ressources/rj;
#X obj 387 302 u_dispatch \$0 freq;
#N canvas 172 83 586 377 LICENSE-GPL 0;
#X text 57 88 This program is free software: you can redistribute it
and/or modify it under the terms of the GNU General Public License
as published by the Free Software Foundation \, either version 3 of
the License \, or (at your option) any later version.;
#X text 58 168 This program is distributed in the hope that it will
be useful \, but WITHOUT ANY WARRANTY \; without even the implied warranty
of MERCHANTABILITY or FITNESS FOR A PARTICULAR PURPOSE. See the GNU
General Public License for more details.;
#X text 57 261 You should have received a copy of the GNU General Public
License along with this program. If not \, see <http://www.gnu.org/licenses/>.
;
#X text 61 54 Copyright (C) 2009 \, Reality Jockey Ltd.;
#X text 60 325 See the file LICENSE.txt for the full license text.
;
#X restore 298 15 pd LICENSE-GPL;
#X text 35 69 ui_hsl \$0 name min max;
#X obj 387 324 u_dispatch \$0 Q;
#X obj 387 344 u_dispatch \$0 type;
#X obj 550 294 r \$0-type;
#X msg 548 316 set \$1;
#X obj 542 336 s \$0-type-rcv;
#X obj 101 101 cnv 15 188 68 empty \$0-background fx_filter 0 7 0 14
-260818 -1 0;
#X text 252 99 TYPE;
#X obj 258 118 vradio 26 1 0 2 \$0-type \$0-type-rcv empty 0 -8 0 10
-262144 -1 -1 1;
#X obj 100 115 ui_vsl \$0 freq 20 20000;
#X obj 142 115 ui_vs \$0 Q 0 10;
#X text 230 114 LP;
#X text 232 154 HP;
#X text 51 17 embedded rjdj e_beequad abstraction;
#N canvas 0 50 880 335 audio_stuff 0;
#X obj 198 52 inlet~;
#X obj 308 274 outlet~;
#X obj 228 274 outlet~;
#X obj 258 52 inlet~;
#X obj 20 147 line~;
#X obj 130 158 line~;
#X obj 131 216 *~;
#X obj 20 215 *~;
#X msg 20 120 \$1 10;
#X msg 130 131 \$1 10;
#X obj 284 220 *~;
#X obj 69 213 *~;
#X obj 20 63 r \$0-bypass;
#X obj 30 95 == 0;
#N canvas 200 58 989 545 filter 0;
#X obj 77 38 inlet~;
#X obj 278 25 inlet~;
#X obj 70 445 outlet~;
#X obj 246 453 outlet~;
#X obj 46 343 e_beequad;
#X msg 178 309 interp \$1;
#X obj 263 350 e_beequad;
#X obj 290 281 nbx 5 14 -1e+37 1e+37 0 1 empty empty empty 0 -8 0 10
-262144 -1 -1 2 256;
#X obj 337 135 u_lowpassq;
#X obj 533 134 u_highpassq;
#X obj 863 108 r \$0-type;
#X obj 679 55 r \$0-freq;
#X obj 781 56 r \$0-Q;
#X obj 378 401 list append;
#X obj 375 317 list append;
#X obj 877 174 pipe 10;
#X obj 816 285 select 0 1;
#X obj 373 188 == 0;
#X obj 525 200 spigot;
#X obj 583 188 == 1;
#X obj 866 134 change;
#X obj 725 243 f;
#X msg 787 157 0, f 1;
#X obj 315 200 spigot 1;
#X obj 905 205 t f f b;
#X connect 0 0 4 0;
#X connect 1 0 6 0;
#X connect 4 0 2 0;
#X connect 5 0 4 1;
#X connect 5 0 6 1;
#X connect 6 0 3 0;
#X connect 7 0 5 0;
#X connect 8 0 13 1;
#X connect 8 0 23 0;
#X connect 9 0 14 1;
#X connect 9 0 18 0;
#X connect 10 0 20 0;
#X connect 11 0 8 0;
#X connect 11 0 9 0;
#X connect 12 0 8 1;
#X connect 12 0 9 1;
#X connect 12 0 21 1;
#X connect 13 0 4 1;
#X connect 13 0 6 1;
#X connect 14 0 6 1;
#X connect 14 0 4 1;
#X connect 15 0 24 0;
#X connect 16 0 13 0;
#X connect 16 1 14 0;
#X connect 17 0 23 1;
#X connect 18 0 6 1;
#X connect 18 0 4 1;
#X connect 19 0 18 1;
#X connect 20 0 15 0;
#X connect 20 0 22 0;
#X connect 21 0 9 1;
#X connect 21 0 8 1;
#X connect 22 0 9 1;
#X connect 22 0 8 1;
#X connect 23 0 6 1;
#X connect 23 0 4 1;
#X connect 24 0 16 0;
#X connect 24 0 17 0;
#X connect 24 1 19 0;
#X connect 24 2 21 0;
#X restore 203 137 pd filter;
#X connect 0 0 6 1;
#X connect 0 0 14 0;
#X connect 3 0 10 1;
#X connect 3 0 14 1;
#X connect 4 0 7 0;
#X connect 4 0 11 0;
#X connect 5 0 6 0;
#X connect 5 0 10 0;
#X connect 6 0 2 0;
#X connect 7 0 2 0;
#X connect 8 0 4 0;
#X connect 9 0 5 0;
#X connect 10 0 1 0;
#X connect 11 0 1 0;
#X connect 12 0 13 0;
#X connect 12 0 9 0;
#X connect 13 0 8 0;
#X connect 14 0 7 1;
#X connect 14 1 11 1;
#X restore 40 282 pd audio_stuff;
#X obj 397 366 u_parameter \$0 bypass;
#X obj 424 467 midi-colors \$0 bypass \$0-bypass-rcv;
#X obj 362 557 s \$0-bypass;
#X obj 424 494 < 1;
#X obj 182 130 tgl 40 1 \$0-bypass \$0-bypass-rcv BYPASS 17 7 0 10
-262144 -1 -1 0 1;
#X obj 219 359 loadbang;
#X msg 214 391 bypass 0;
#X obj 412 273 module_loader fx_filter \$0 \$1;
#X obj 29 260 inlet~;
#X obj 132 259 inlet~;
#X obj 28 304 outlet~;
#X obj 118 311 outlet~;
#X obj 218 271 inlet data;
#X obj 218 293 outlet data;
#X obj 534 4 declare -path ../../ressources/core;
#X obj 534 34 declare -path ../../ressources/rj;
#X connect 0 0 3 0;
#X connect 3 0 4 0;
#X connect 4 0 17 0;
#X connect 5 0 6 0;
#X connect 6 0 7 0;
#X connect 16 0 27 0;
#X connect 16 1 28 0;
#X connect 18 0 20 0;
#X connect 20 0 19 0;
#X connect 22 0 23 0;
#X connect 23 0 0 0;
#X connect 24 0 0 0;
#X connect 25 0 16 0;
#X connect 26 0 16 1;
#X connect 29 0 30 0;
#X coords 0 -1 1 1 190 70 1 100 100;
