#N canvas 93 56 678 486 10;
#X declare -path ../../ressources/core;
#X declare -path ../../ressources/rj;
#N canvas 172 83 586 377 LICENSE-GPL 0;
#X text 57 88 This program is free software: you can redistribute it
and/or modify it under the terms of the GNU General Public License
as published by the Free Software Foundation \, either version 3 of
the License \, or (at your option) any later version.;
#X text 58 168 This program is distributed in the hope that it will
be useful \, but WITHOUT ANY WARRANTY \; without even the implied warranty
of MERCHANTABILITY or FITNESS FOR A PARTICULAR PURPOSE. See the GNU
General Public License for more details.;
#X text 57 261 You should have received a copy of the GNU General Public
License along with this program. If not \, see <http://www.gnu.org/licenses/>.
;
#X text 61 54 Copyright (C) 2009 \, Reality Jockey Ltd.;
#X text 60 325 See the file LICENSE.txt for the full license text.
;
#X restore 298 15 pd LICENSE-GPL;
#X text 35 69 ui_hsl \$0 name min max;
#X obj 347 374 u_dispatch \$0 wet;
#X obj 347 352 u_dispatch \$0 freq;
#N canvas 0 50 601 548 freqshift~ 0;
#X obj 75 336 outlet~;
#X obj 57 71 inlet~;
#X obj 134 334 outlet~;
#X obj 123 78 inlet~;
#X obj 305 110 r \$0-wet;
#X obj 141 285 c_xfade;
#X obj 68 286 c_xfade;
#N canvas 0 50 841 392 core 0;
#X obj 451 133 phasor~;
#X obj 451 186 cos~;
#X obj 497 184 cos~;
#X obj 364 86 inlet~;
#X obj 433 237 *~;
#X obj 365 287 outlet~;
#X obj 365 235 *~;
#N canvas 0 50 588 330 hilbert 0;
#X obj 105 92 biquad~ 0.83774 -0.06338 0.06338 -0.83774 1;
#X obj 105 66 biquad~ 1.94632 -0.94657 0.94657 -1.94632 1;
#X obj 86 149 biquad~ -0.02569 0.260502 -0.260502 0.02569 1;
#X obj 86 175 biquad~ 1.8685 -0.870686 0.870686 -1.8685 1;
#X obj 86 39 inlet~;
#X obj 105 121 outlet~;
#X obj 86 202 outlet~;
#X obj 502 39 inlet;
#X text 461 13 bang to clear;
#X text 80 16 signal in;
#X msg 502 112 clear;
#X connect 0 0 5 0;
#X connect 1 0 0 0;
#X connect 2 0 3 0;
#X connect 3 0 6 0;
#X connect 4 0 1 0;
#X connect 4 0 2 0;
#X connect 7 0 10 0;
#X connect 10 0 1 0;
#X connect 10 0 0 0;
#X connect 10 0 2 0;
#X connect 10 0 3 0;
#X restore 364 158 pd hilbert;
#X obj 497 164 +~ 0.25;
#X obj 462 81 route 0 1;
#X obj 487 107 * -1;
#X obj 464 58 list prepend 0;
#X obj 464 13 r \$0-freq;
#X obj 558 -15 r \$0-dir;
#X obj 464 35 f;
#X obj 558 7 t b f;
#X connect 0 0 1 0;
#X connect 0 0 8 0;
#X connect 1 0 6 1;
#X connect 2 0 4 1;
#X connect 3 0 7 0;
#X connect 4 0 5 0;
#X connect 6 0 5 0;
#X connect 7 0 6 0;
#X connect 7 1 4 0;
#X connect 8 0 2 0;
#X connect 9 0 0 0;
#X connect 9 1 10 0;
#X connect 10 0 0 0;
#X connect 11 0 9 0;
#X connect 12 0 14 0;
#X connect 13 0 15 0;
#X connect 14 0 11 0;
#X connect 15 0 14 0;
#X connect 15 1 11 1;
#X restore 143 195 pd core;
#N canvas 0 50 841 392 core 0;
#X obj 451 133 phasor~;
#X obj 451 186 cos~;
#X obj 497 184 cos~;
#X obj 364 86 inlet~;
#X obj 433 237 *~;
#X obj 365 287 outlet~;
#X obj 365 235 *~;
#N canvas 0 50 588 330 hilbert 0;
#X obj 105 92 biquad~ 0.83774 -0.06338 0.06338 -0.83774 1;
#X obj 105 66 biquad~ 1.94632 -0.94657 0.94657 -1.94632 1;
#X obj 86 149 biquad~ -0.02569 0.260502 -0.260502 0.02569 1;
#X obj 86 175 biquad~ 1.8685 -0.870686 0.870686 -1.8685 1;
#X obj 86 39 inlet~;
#X obj 105 121 outlet~;
#X obj 86 202 outlet~;
#X obj 502 39 inlet;
#X text 461 13 bang to clear;
#X text 80 16 signal in;
#X msg 502 112 clear;
#X connect 0 0 5 0;
#X connect 1 0 0 0;
#X connect 2 0 3 0;
#X connect 3 0 6 0;
#X connect 4 0 1 0;
#X connect 4 0 2 0;
#X connect 7 0 10 0;
#X connect 10 0 1 0;
#X connect 10 0 0 0;
#X connect 10 0 2 0;
#X connect 10 0 3 0;
#X restore 364 158 pd hilbert;
#X obj 497 164 +~ 0.25;
#X obj 464 13 r \$0-freq;
#X obj 558 -15 r \$0-dir;
#X obj 462 81 route 0 1;
#X obj 487 107 * -1;
#X obj 464 58 list prepend 0;
#X obj 464 35 f;
#X obj 558 7 t b f;
#X connect 0 0 1 0;
#X connect 0 0 8 0;
#X connect 1 0 6 1;
#X connect 2 0 4 1;
#X connect 3 0 7 0;
#X connect 4 0 5 0;
#X connect 6 0 5 0;
#X connect 7 0 6 0;
#X connect 7 1 4 0;
#X connect 8 0 2 0;
#X connect 9 0 14 0;
#X connect 10 0 15 0;
#X connect 11 0 0 0;
#X connect 11 1 12 0;
#X connect 12 0 0 0;
#X connect 13 0 11 0;
#X connect 14 0 13 0;
#X connect 15 0 14 0;
#X connect 15 1 13 1;
#X restore 73 195 pd core;
#X connect 1 0 6 0;
#X connect 1 0 8 0;
#X connect 3 0 5 0;
#X connect 3 0 7 0;
#X connect 4 0 5 2;
#X connect 4 0 6 2;
#X connect 5 0 2 0;
#X connect 6 0 0 0;
#X connect 7 0 5 1;
#X connect 8 0 6 1;
#X restore 30 284 pd freqshift~;
#X obj 363 429 u_parameter \$0 dir;
#X text 51 17 freqshift abstraction;
#X obj 101 101 cnv 15 188 68 empty \$0-background fx_freqshift 0 7
0 14 -262144 -1 0;
#X obj 220 102 vsl 70 17 1 0 0 0 \$0-presets \$0-presets-rcv PRESETS
2 7 0 10 -232576 -232576 -1 0 1;
#X obj 139 115 ui_vs \$0 wet 0 1;
#X obj 101 115 ui_vsl \$0 freq 0.1 3000;
#X obj 184 117 vradio 25 1 0 2 \$0-dir \$0-dir-rcv direction 25 20
0 10 -262144 -1 -1 0;
#X text 214 116 up;
#X text 211 148 down;
#X obj 348 322 module_loader fx_freqshift \$0 \$1;
#X obj 29 260 inlet~;
#X obj 29 306 outlet~;
#X obj 104 260 inlet~;
#X obj 130 310 outlet~;
#X obj 408 222 inlet data;
#X obj 408 244 outlet data;
#X obj 534 4 declare -path ../../ressources/core;
#X obj 534 34 declare -path ../../ressources/rj;
#X connect 2 0 5 0;
#X connect 3 0 2 0;
#X connect 4 0 16 0;
#X connect 4 1 18 0;
#X connect 14 0 3 0;
#X connect 15 0 4 0;
#X connect 17 0 4 1;
#X connect 19 0 20 0;
#X coords 0 -1 1 1 190 70 1 100 100;
