#N canvas 1 56 1362 685 10;
#X declare -path ../../ressources/core;
#X declare -path ../../ressources/rj;
#N canvas 20 56 1102 474 audio_stuff 0;
#X obj 198 52 inlet~;
#X obj 311 291 outlet~;
#X obj 406 291 outlet~;
#X obj 278 68 r \$0-amp;
#X obj 393 69 r \$0-hall;
#X obj 406 138 r \$0-damp;
#X obj 359 48 inlet~;
#X obj 311 264 c_xfade;
#X obj 405 266 c_xfade;
#X obj 451 234 pack 0 10;
#X obj 598 98 r \$0-wet;
#X obj 491 212 *;
#X obj 499 188 t f f;
#X msg 301 166 roomsize \$1;
#X msg 410 185 damping \$1;
#X msg 546 264 width \$1;
#X msg 546 308 dry \$1;
#X msg 546 330 print;
#X msg 546 352 freeze \$1;
#X msg 546 374 bypass \$1;
#X text 609 329 - print the current values of the above parameters
;
#X text 622 352 - start/stop freeze of reverb tail \, using 1 or 0
;
#X text 626 373 - bypass the reverb processing \, using a 1 or 0;
#X text 607 307 - level of unprocessed signal \, between 0 and 1 (default:
0);
#X text 611 286 - level of reverbed signal \, between 0 and 1 (default:
0.3);
#X text 633 241 - amount of damping of room's surfaces (default: 0.5)
;
#X text 615 265 - stereo width of reverb (default: 1);
#X text 637 219 - size of the room to be simulated (default=0.85);
#X obj 293 102 * 0.01;
#X msg 251 134 wet \$1;
#X obj 407 158 * 0.01;
#X obj 408 91 * 0.01;
#X msg 547 284 wet \$1;
#X msg 547 245 damping \$1;
#X msg 548 220 roomsize \$1;
#X obj 642 153 r \$0-freeze;
#X obj 245 213 freeverb~;
#X connect 0 0 7 0;
#X connect 0 0 36 0;
#X connect 3 0 28 0;
#X connect 4 0 31 0;
#X connect 5 0 30 0;
#X connect 6 0 8 0;
#X connect 6 0 36 1;
#X connect 7 0 1 0;
#X connect 8 0 2 0;
#X connect 9 0 8 2;
#X connect 9 0 7 2;
#X connect 10 0 12 0;
#X connect 11 0 9 0;
#X connect 12 0 11 0;
#X connect 12 1 11 1;
#X connect 13 0 36 0;
#X connect 14 0 36 0;
#X connect 18 0 36 0;
#X connect 28 0 29 0;
#X connect 29 0 36 0;
#X connect 30 0 14 0;
#X connect 31 0 13 0;
#X connect 35 0 18 0;
#X connect 36 0 7 1;
#X connect 36 1 8 1;
#X restore 110 298 pd audio_stuff;
#N canvas 172 83 586 377 LICENSE-GPL 0;
#X text 57 88 This program is free software: you can redistribute it
and/or modify it under the terms of the GNU General Public License
as published by the Free Software Foundation \, either version 3 of
the License \, or (at your option) any later version.;
#X text 58 168 This program is distributed in the hope that it will
be useful \, but WITHOUT ANY WARRANTY \; without even the implied warranty
of MERCHANTABILITY or FITNESS FOR A PARTICULAR PURPOSE. See the GNU
General Public License for more details.;
#X text 57 261 You should have received a copy of the GNU General Public
License along with this program. If not \, see <http://www.gnu.org/licenses/>.
;
#X text 61 54 Copyright (C) 2009 \, Reality Jockey Ltd.;
#X text 60 325 See the file LICENSE.txt for the full license text.
;
#X restore 298 15 pd LICENSE-GPL;
#X obj 249 448 u_dispatch \$0 amp;
#X obj 249 471 u_dispatch \$0 hall;
#X obj 456 480 loadbang;
#X obj 249 514 u_dispatch \$0 damp;
#N canvas 228 198 627 317 LICENSE-BSD 0;
#X text 121 56 This software is copyrighted by Miller Puckette \, Reality
Jockey Ltd. and others. The terms (the "Standard Improved BSD License")
apply to all files associated with the software unless explicitly disclaimed
in individual files.;
#X text 123 148 See the file LICENSE.txt for the full license text.
;
#X restore 563 420 pd LICENSE-BSD;
#X obj 249 537 u_dispatch \$0 wet;
#X msg 456 500 amp 80 \, hall 80 \, damp 60;
#X obj 249 493 u_parameter \$0 freeze;
#X obj 746 262 midi-colors \$0 freeze \$0-freeze-rcv;
#X obj 746 392 s \$0-freeze;
#X obj 101 101 cnv 15 188 68 empty \$0-background fx_freeverb 0 7 0
12 -262144 -1 0;
#X obj 100 115 ui_vs \$0 amp 60 100;
#X obj 138 115 ui_vs \$0 hall 0 100;
#X obj 220 102 vsl 70 17 1 0 0 0 \$0-presets \$0-presets-rcv PRESETS
2 5 0 10 -232576 -232576 -1 0 1;
#X obj 214 115 ui_vs \$0 damp 0 100;
#X obj 252 115 ui_vs \$0 wet 0 1;
#X obj 176 132 tgl 38 0 \$0-freeze \$0-freeze-rcv FREEZE 1 7 0 10 -262144
-1 -1 0 1;
#X obj 879 363 r \$0-freeze;
#X obj 1012 440 == 0;
#X obj 961 464 spigot 1;
#X obj 933 436 r \$0-wet;
#X obj 860 424 t f f;
#X obj 866 471 select 1 0;
#X obj 949 506 f;
#X obj 917 570 s \$0-wet;
#X obj 840 558 line;
#X obj 763 317 > 64;
#X msg 835 506 0.6 500;
#X obj 1079 282 route showLastUsed;
#X obj 1081 257 r RACK_ADMIN;
#X obj 934 403 spigot;
#X obj 988 374 == 0;
#X msg 949 528 \$1 600;
#X obj 261 396 module_loader fx_freeverb \$0 \$1;
#X obj 108 264 inlet~;
#X obj 205 265 inlet~;
#X obj 112 340 outlet~;
#X obj 205 344 outlet~;
#X obj 308 265 inlet data;
#X obj 308 287 outlet data;
#X text 51 17 abstraction using freeverb external;
#X obj 534 4 declare -path ../../ressources/core;
#X obj 534 34 declare -path ../../ressources/rj;
#X connect 0 0 38 0;
#X connect 0 1 39 0;
#X connect 2 0 3 0;
#X connect 3 0 9 0;
#X connect 4 0 8 0;
#X connect 5 0 7 0;
#X connect 8 0 2 0;
#X connect 9 0 5 0;
#X connect 10 0 28 0;
#X connect 19 0 32 0;
#X connect 20 0 21 1;
#X connect 21 0 25 1;
#X connect 22 0 21 0;
#X connect 23 0 24 0;
#X connect 23 1 20 0;
#X connect 24 0 29 0;
#X connect 24 1 25 0;
#X connect 25 0 34 0;
#X connect 27 0 26 0;
#X connect 28 0 11 0;
#X connect 29 0 27 0;
#X connect 30 0 33 0;
#X connect 31 0 30 0;
#X connect 32 0 23 0;
#X connect 33 0 32 1;
#X connect 34 0 27 0;
#X connect 35 0 2 0;
#X connect 36 0 0 0;
#X connect 37 0 0 1;
#X connect 40 0 41 0;
#X coords 0 -1 1 1 190 70 1 100 100;
