#N canvas 263 280 613 297 10;
#X obj 340 163 tgl 15 0 empty empty V 4 8 0 12 -4034 -4034 -1 0 1;
#X obj 340 200 tgl 15 0 empty empty X 4 8 0 12 -258113 -258113 -1 0
1;
#X text 360 159 Instances multiples;
#X obj 37 97 fx_formant;
#X text 211 229 vowels : type de voyelle;
#X text 212 253 transi(tion) : temps de passage d'une valeur à l'autre
;
#X text 217 275 Q : largeur des formants;
#X text 32 11 filtre à 3 formants (voyelles);
#X text 387 6 crédits : automatonism;
