#N canvas 159 67 678 486 10;
#X declare -path ../../ressources/core;
#X declare -path ../../ressources/rj;
#N canvas 0 50 989 545 filter 0;
#X obj 77 38 inlet~;
#X obj 278 25 inlet~;
#X obj 70 445 outlet~;
#X obj 246 453 outlet~;
#N canvas 0 50 1264 622 formant_filter 0;
#X obj 422 226 line~;
#X obj 504 220 line~;
#X obj 575 218 line~;
#X obj 332 81 inlet~;
#X text 325 61 SIGNAL IN;
#X obj 436 15 r \$0-vowels;
#X obj 332 622 outlet~;
#X obj 422 200 pack 0 50;
#X obj 500 198 pack 0 50;
#X obj 575 196 pack 0 50;
#X obj 589 49 r \$0-transition;
#X obj 372 161 tabread4 \$0-f1;
#X obj 436 37 / 127;
#X obj 436 59 * 20;
#X obj 436 81 + 1;
#X obj 493 165 tabread4 \$0-f2;
#X obj 609 158 tabread4 \$0-f3;
#N canvas 0 50 762 556 formant_frequencies_init 0;
#N canvas 221 50 515 702 formant-frequencies 0;
#X msg 61 638 270 2300 3000;
#X msg 71 606 400 2000 2550;
#X msg 87 578 530 1850 2500;
#X msg 103 549 660 1700 2400;
#X msg 121 519 730 1100 2450;
#X msg 143 488 570 850 2400;
#X msg 155 461 440 1000 2250;
#X msg 176 438 300 850 2250;
#X msg 193 405 640 1200 2400;
#X msg 211 379 490 1350 1700;
#X obj 58 687 outlet;
#X obj 62 13 inlet;
#X obj 62 85 i;
#X msg 231 355 300 2800 3300;
#X msg 250 325 430 2500 3100;
#X msg 262 302 600 2350 3000;
#X msg 277 277 860 2050 2850;
#X msg 296 252 850 1200 2800;
#X msg 310 230 590 900 2700;
#X msg 328 205 470 1150 2700;
#X msg 345 181 370 950 2650;
#X msg 361 156 760 1400 2800;
#X msg 378 135 500 1650 1950;
#X obj 62 111 route 1 2 3 4 5 6 7 8 9 10 11 12 13 14 15 16 17 18 19
20;
#X connect 0 0 10 0;
#X connect 1 0 10 0;
#X connect 2 0 10 0;
#X connect 3 0 10 0;
#X connect 4 0 10 0;
#X connect 5 0 10 0;
#X connect 6 0 10 0;
#X connect 7 0 10 0;
#X connect 8 0 10 0;
#X connect 9 0 10 0;
#X connect 11 0 12 0;
#X connect 12 0 23 0;
#X connect 13 0 10 0;
#X connect 14 0 10 0;
#X connect 15 0 10 0;
#X connect 16 0 10 0;
#X connect 17 0 10 0;
#X connect 18 0 10 0;
#X connect 19 0 10 0;
#X connect 20 0 10 0;
#X connect 21 0 10 0;
#X connect 22 0 10 0;
#X connect 23 0 0 0;
#X connect 23 1 1 0;
#X connect 23 2 2 0;
#X connect 23 3 3 0;
#X connect 23 4 4 0;
#X connect 23 5 5 0;
#X connect 23 6 6 0;
#X connect 23 7 7 0;
#X connect 23 8 8 0;
#X connect 23 9 9 0;
#X connect 23 10 13 0;
#X connect 23 11 14 0;
#X connect 23 12 15 0;
#X connect 23 13 16 0;
#X connect 23 14 17 0;
#X connect 23 15 18 0;
#X connect 23 16 19 0;
#X connect 23 17 20 0;
#X connect 23 18 21 0;
#X connect 23 19 22 0;
#X restore 194 255 pd formant-frequencies;
#X obj 194 277 unpack f f f;
#X obj 407 257 table \$0-f1 22;
#X obj 407 277 table \$0-f2 22;
#X obj 407 297 table \$0-f3 22;
#X obj 177 203 mod 20;
#X obj 168 139 f;
#X obj 199 165 + 1;
#X obj 156 178 - 1;
#X obj 177 225 + 1;
#X obj 84 128 until;
#X msg 79 96 22;
#X obj 93 64 t b b;
#X msg 180 114 0;
#X obj 269 321 tabwrite \$0-f1;
#X obj 269 351 tabwrite \$0-f2;
#X obj 269 381 tabwrite \$0-f3;
#X obj 60 23 loadbang;
#X obj 55 57 bng 15 250 50 0 empty empty empty 17 7 0 10 -262144 -1
-1;
#X connect 0 0 1 0;
#X connect 1 0 14 0;
#X connect 1 1 15 0;
#X connect 1 2 16 0;
#X connect 5 0 9 0;
#X connect 6 0 7 0;
#X connect 6 0 8 0;
#X connect 6 0 14 1;
#X connect 6 0 15 1;
#X connect 6 0 16 1;
#X connect 7 0 6 1;
#X connect 8 0 5 0;
#X connect 9 0 0 0;
#X connect 10 0 6 0;
#X connect 11 0 10 0;
#X connect 12 0 11 0;
#X connect 12 1 13 0;
#X connect 13 0 6 1;
#X connect 17 0 12 0;
#X connect 18 0 12 0;
#X restore 920 448 pd formant_frequencies_init;
#N canvas 0 50 822 622 r-channel 0;
#X obj 109 302 / 127;
#X obj 401 320 / 127;
#X obj 573 306 / 127;
#X obj 109 356 + 5;
#X obj 401 374 + 5;
#X obj 573 360 + 5;
#X obj 573 330 * 45;
#X obj 109 326 * 20;
#X obj 401 344 * 20;
#X obj 109 279 t f f f;
#X obj 52 457 vcf~ 207 5;
#X obj 52 501 vcf~ 207 5;
#X obj 53 558 vcf~ 207 5;
#X obj 332 421 vcf~ 2300 20;
#X obj 332 463 vcf~ 2300 20;
#X obj 332 509 vcf~ 2300 20;
#X obj 504 406 vcf~ 3000 50;
#X obj 504 434 vcf~ 3000 50;
#X obj 504 557 vcf~ 3000 50;
#X obj 109 381 t f f f;
#X obj 401 396 t f f f;
#X obj 573 382 t f f f;
#X obj 332 81 inlet~;
#X obj 332 190 lop~ 2000;
#X obj 332 169 lop~ 2000;
#X obj 332 148 lop~ 2000;
#X obj 332 126 lop~ 2000;
#X text 325 61 SIGNAL IN;
#X obj 130 227 r \$0-Q;
#X obj 332 622 outlet~;
#X obj 332 574 *~ 10;
#X obj 332 600 tanh~;
#X obj 422 226 inlet~;
#X obj 504 220 inlet~;
#X obj 575 218 inlet~;
#X connect 0 0 7 0;
#X connect 1 0 8 0;
#X connect 2 0 6 0;
#X connect 3 0 19 0;
#X connect 4 0 20 0;
#X connect 5 0 21 0;
#X connect 6 0 5 0;
#X connect 7 0 3 0;
#X connect 8 0 4 0;
#X connect 9 0 0 0;
#X connect 9 1 1 0;
#X connect 9 2 2 0;
#X connect 10 0 11 0;
#X connect 11 0 12 0;
#X connect 12 0 30 0;
#X connect 13 0 14 0;
#X connect 14 0 15 0;
#X connect 15 0 30 0;
#X connect 16 0 17 0;
#X connect 17 0 18 0;
#X connect 18 0 30 0;
#X connect 19 0 10 2;
#X connect 19 1 11 2;
#X connect 19 2 12 2;
#X connect 20 0 13 2;
#X connect 20 1 14 2;
#X connect 20 2 15 2;
#X connect 21 0 16 2;
#X connect 21 1 17 2;
#X connect 21 2 18 2;
#X connect 22 0 26 0;
#X connect 23 0 10 0;
#X connect 23 0 13 0;
#X connect 23 0 16 0;
#X connect 24 0 23 0;
#X connect 25 0 24 0;
#X connect 26 0 25 0;
#X connect 28 0 9 0;
#X connect 30 0 31 0;
#X connect 31 0 29 0;
#X connect 32 0 10 1;
#X connect 32 0 11 1;
#X connect 32 0 12 1;
#X connect 33 0 13 1;
#X connect 33 0 14 1;
#X connect 33 0 15 1;
#X connect 34 0 16 1;
#X connect 34 0 17 1;
#X connect 34 0 18 1;
#X restore 735 434 pd r-channel;
#X obj 802 98 inlet~;
#X obj 757 590 outlet~;
#N canvas 0 50 822 622 l-channel 0;
#X obj 109 302 / 127;
#X obj 401 320 / 127;
#X obj 573 306 / 127;
#X obj 109 356 + 5;
#X obj 401 374 + 5;
#X obj 573 360 + 5;
#X obj 573 330 * 45;
#X obj 109 326 * 20;
#X obj 401 344 * 20;
#X obj 109 279 t f f f;
#X obj 52 457 vcf~ 207 5;
#X obj 52 501 vcf~ 207 5;
#X obj 53 558 vcf~ 207 5;
#X obj 332 421 vcf~ 2300 20;
#X obj 332 463 vcf~ 2300 20;
#X obj 332 509 vcf~ 2300 20;
#X obj 504 406 vcf~ 3000 50;
#X obj 504 434 vcf~ 3000 50;
#X obj 504 557 vcf~ 3000 50;
#X obj 109 381 t f f f;
#X obj 401 396 t f f f;
#X obj 573 382 t f f f;
#X obj 332 81 inlet~;
#X obj 332 190 lop~ 2000;
#X obj 332 169 lop~ 2000;
#X obj 332 148 lop~ 2000;
#X obj 332 126 lop~ 2000;
#X text 325 61 SIGNAL IN;
#X obj 130 227 r \$0-Q;
#X obj 332 622 outlet~;
#X obj 332 574 *~ 10;
#X obj 332 600 tanh~;
#X obj 422 226 inlet~;
#X obj 504 220 inlet~;
#X obj 575 218 inlet~;
#X connect 0 0 7 0;
#X connect 1 0 8 0;
#X connect 2 0 6 0;
#X connect 3 0 19 0;
#X connect 4 0 20 0;
#X connect 5 0 21 0;
#X connect 6 0 5 0;
#X connect 7 0 3 0;
#X connect 8 0 4 0;
#X connect 9 0 0 0;
#X connect 9 1 1 0;
#X connect 9 2 2 0;
#X connect 10 0 11 0;
#X connect 11 0 12 0;
#X connect 12 0 30 0;
#X connect 13 0 14 0;
#X connect 14 0 15 0;
#X connect 15 0 30 0;
#X connect 16 0 17 0;
#X connect 17 0 18 0;
#X connect 18 0 30 0;
#X connect 19 0 10 2;
#X connect 19 1 11 2;
#X connect 19 2 12 2;
#X connect 20 0 13 2;
#X connect 20 1 14 2;
#X connect 20 2 15 2;
#X connect 21 0 16 2;
#X connect 21 1 17 2;
#X connect 21 2 18 2;
#X connect 22 0 26 0;
#X connect 23 0 10 0;
#X connect 23 0 13 0;
#X connect 23 0 16 0;
#X connect 24 0 23 0;
#X connect 25 0 24 0;
#X connect 26 0 25 0;
#X connect 28 0 9 0;
#X connect 30 0 31 0;
#X connect 31 0 29 0;
#X connect 32 0 10 1;
#X connect 32 0 11 1;
#X connect 32 0 12 1;
#X connect 33 0 13 1;
#X connect 33 0 14 1;
#X connect 33 0 15 1;
#X connect 34 0 16 1;
#X connect 34 0 17 1;
#X connect 34 0 18 1;
#X restore 375 447 pd l-channel;
#X connect 0 0 18 1;
#X connect 0 0 21 1;
#X connect 1 0 18 2;
#X connect 1 0 21 2;
#X connect 2 0 18 3;
#X connect 2 0 21 3;
#X connect 3 0 21 0;
#X connect 5 0 12 0;
#X connect 7 0 0 0;
#X connect 8 0 1 0;
#X connect 9 0 2 0;
#X connect 10 0 7 1;
#X connect 10 0 8 1;
#X connect 10 0 9 1;
#X connect 11 0 7 0;
#X connect 12 0 13 0;
#X connect 13 0 14 0;
#X connect 14 0 11 0;
#X connect 14 0 15 0;
#X connect 14 0 16 0;
#X connect 15 0 8 0;
#X connect 16 0 9 0;
#X connect 18 0 20 0;
#X connect 19 0 18 0;
#X connect 21 0 6 0;
#X restore 88 159 pd formant_filter;
#X obj 118 266 c_xfade;
#X obj 191 265 c_xfade;
#X obj 364 191 r \$0-wet;
#X msg 364 213 \$1 10;
#X connect 0 0 4 0;
#X connect 0 0 5 0;
#X connect 1 0 6 0;
#X connect 1 0 4 1;
#X connect 4 0 5 1;
#X connect 4 1 6 1;
#X connect 5 0 2 0;
#X connect 6 0 3 0;
#X connect 7 0 8 0;
#X connect 8 0 6 2;
#X connect 8 0 5 2;
#X restore 32 412 pd filter;
#X obj 101 101 cnv 15 188 68 empty \$0-background fx_formant 0 7 0
14 -260818 -1 0;
#X obj 101 101 cnv 15 188 68 empty \$0-background fx_formant 0 7 0
14 -260818 -1 0;
#X obj 31 376 inlet~;
#X obj 117 375 inlet~;
#X obj 28 434 outlet~;
#X obj 108 434 outlet~;
#X obj 169 418 inlet data;
#X obj 169 440 outlet data;
#X obj 412 273 module_loader fx_formant \$0 \$1;
#X text 113 40 formant filter from automatonism;
#X obj 412 295 u_dispatch \$0 Q;
#X obj 412 317 u_dispatch \$0 vowels;
#X obj 138 115 ui_vs \$0 Q 0 127;
#X obj 176 115 ui_vs \$0 vowels 0 127;
#X obj 412 339 u_dispatch \$0 transition;
#X obj 214 115 ui_vs \$0 transition 50 400;
#X obj 412 361 u_dispatch \$0 wet;
#X obj 252 115 ui_vs \$0 wet 0 1;
#X obj 444 137 loadbang;
#X msg 444 159 transition 50 \, Q 50;
#X obj 398 90 hradio 15 1 0 2 \$0-guitab \$0-guitab-rcv empty 0 -8
0 10 -191407 -1 -1 0;
#N canvas 675 54 685 529 multitab 0;
#X obj 131 80 r \$0-guitab;
#X obj 65 124 s \$0-guitab-rcv;
#X msg 38 100 set \$1;
#X text 232 279 Xunits/pixel Yunits/px gop xfrom yfrom xto yto width
heught xmargin ymargin;
#X obj 191 162 t f b;
#X obj 274 230 s \$0-multitab;
#X obj 160 199 * 100;
#X obj 162 220 + 100;
#X msg 152 400 donecanvasdialog 1 -1 1 0 0 1 1 190 70 100 \$1 \, dirty
0;
#X obj 110 298 t b f;
#X obj 162 242 pipe 100;
#X msg 230 194 donecanvasdialog 1 -1 0 0 0 1 1 190 70 100 \$1;
#X obj 283 141 f 100;
#X connect 0 0 2 0;
#X connect 0 0 4 0;
#X connect 2 0 1 0;
#X connect 4 0 6 0;
#X connect 4 1 12 0;
#X connect 6 0 7 0;
#X connect 7 0 10 0;
#X connect 7 0 12 1;
#X connect 8 0 5 0;
#X connect 9 1 8 0;
#X connect 10 0 9 0;
#X connect 11 0 5 0;
#X connect 12 0 11 0;
#X restore 453 55 pd multitab;
#X obj 376 29 namecanvas \$0-multitab;
#X obj 534 4 declare -path ../../ressources/core;
#X obj 534 34 declare -path ../../ressources/rj;
#X connect 0 0 5 0;
#X connect 0 1 6 0;
#X connect 3 0 0 0;
#X connect 4 0 0 1;
#X connect 7 0 8 0;
#X connect 9 0 11 0;
#X connect 11 0 12 0;
#X connect 12 0 15 0;
#X connect 15 0 17 0;
#X connect 19 0 20 0;
#X connect 20 0 11 0;
#X coords 0 0 1 1 190 70 1 100 100;
