#N canvas 713 56 613 297 10;
#X obj 340 163 tgl 15 0 empty empty V 4 8 0 12 -4034 -4034 -1 0 1;
#X obj 340 200 tgl 15 0 empty empty X 4 8 0 12 -258113 -258113 -1 0
1;
#X text 360 159 Instances multiples;
#X text 10 50 mise en oeuvre de l'abstraction rjdj e_beequad;
#X obj 85 125 fx_hip;
#X text 11 30 effet de filtre passe haut;
