#N canvas 713 56 622 370 10;
#X declare -path ../core;
#X declare -path ../rj;
#X obj 346 38 declare -path ../core;
#X obj 346 68 declare -path ../rj;
#X obj 340 163 tgl 15 0 empty empty V 4 8 0 12 -4034 -4034 -1 0 1;
#X obj 340 200 tgl 15 0 empty empty X 4 8 0 12 -258113 -258113 -1 0
1;
#X text 360 159 Instances multiples;
#X text 10 50 mise en oeuvre de l'abstraction rjdj e_beequad;
#X text 11 30 effet de filtre passe bas;
#X obj 65 129 fx_lop;
#X text 145 261 la section expérimentale LFO permet de faire varier
la fréquence en fonction de l'attaque du son entrant :;
#X text 243 299 delta = amplitude de la variation de fréquence;
#X text 244 321 speed = rapidité de variation;
