#N canvas 1 104 978 542 10;
#X declare -path ../../ressources/core;
#X declare -path ../../ressources/rj;
#N canvas 172 83 586 377 LICENSE-GPL 0;
#X text 57 88 This program is free software: you can redistribute it
and/or modify it under the terms of the GNU General Public License
as published by the Free Software Foundation \, either version 3 of
the License \, or (at your option) any later version.;
#X text 58 168 This program is distributed in the hope that it will
be useful \, but WITHOUT ANY WARRANTY \; without even the implied warranty
of MERCHANTABILITY or FITNESS FOR A PARTICULAR PURPOSE. See the GNU
General Public License for more details.;
#X text 57 261 You should have received a copy of the GNU General Public
License along with this program. If not \, see <http://www.gnu.org/licenses/>.
;
#X text 61 54 Copyright (C) 2009 \, Reality Jockey Ltd.;
#X text 60 325 See the file LICENSE.txt for the full license text.
;
#X restore 347 11 pd LICENSE-GPL;
#X text 35 69 ui_hsl \$0 name min max;
#N canvas 383 50 989 622 filter 0;
#X obj 27 25 inlet~;
#X obj 278 25 inlet~;
#X obj 70 445 outlet~;
#X obj 246 453 outlet~;
#X obj 46 343 e_beequad;
#X msg 178 309 interp \$1;
#X obj 263 350 e_beequad;
#X obj 290 281 nbx 5 14 -1e+37 1e+37 0 1 empty empty empty 0 -8 0 10
-262144 -1 -1 21 256;
#X obj 679 55 r \$0-freq;
#X obj 781 56 r \$0-Q;
#X obj 175 199 u_lowpassq;
#X obj 224 98 f;
#X floatatom 526 463 5 0 0 0 - - -, f 5;
#X floatatom 256 496 5 0 0 0 - - -, f 5;
#X obj 509 228 r \$0-delta;
#N canvas 0 50 1002 622 lfo 0;
#X obj 87 500 line;
#X obj 87 522 mtof;
#X obj 364 291 +;
#X obj 412 291 * 0.9;
#X obj 395 247 * 0.1;
#X obj 393 218 t f f;
#X obj 338 325 -;
#X obj 380 348 max 0;
#X obj 395 84 env~;
#X obj 392 377 *;
#X obj 765 449 r \$0-delta;
#X obj 468 377 r \$0-freq;
#X obj 392 399 change;
#X obj 445 427 +;
#X obj 468 399 ftom;
#X msg 444 337;
#X obj 440 502 pack f f;
#X msg 369 483 \$1 \$2;
#X obj 730 226 r \$0-speed;
#X obj 432 442 min 127;
#X obj 432 464 max 0;
#X obj 756 372 * 1;
#X obj 716 292 t b f f;
#X obj 759 324 + 10;
#X obj 775 483 t f f;
#X obj 775 505 abs;
#X obj 775 527 mtof;
#X msg 880 455 0;
#X obj 775 549 - 8.175;
#X obj 862 531 > 0;
#X obj 862 553 - 0.5;
#X obj 775 571 *;
#X obj 862 575 * 10;
#X obj 654 501 *;
#X obj 394 186 / 127;
#X obj 721 407 sqrt;
#X obj 395 152 spigot;
#X obj 654 163 r \$0-no_lfo;
#X obj 634 214 s \$0-delta;
#X msg 624 182 0;
#X obj 365 22 inlet~;
#X obj 87 544 outlet;
#X obj 439 98 r \$0-delta;
#X connect 0 0 1 0;
#X connect 1 0 41 0;
#X connect 2 0 3 0;
#X connect 2 0 6 1;
#X connect 3 0 2 1;
#X connect 4 0 2 0;
#X connect 5 0 6 0;
#X connect 5 1 4 0;
#X connect 6 0 7 0;
#X connect 7 0 9 0;
#X connect 8 0 36 0;
#X connect 9 0 12 0;
#X connect 10 0 24 0;
#X connect 11 0 14 0;
#X connect 12 0 13 0;
#X connect 13 0 19 0;
#X connect 14 0 13 1;
#X connect 16 0 17 0;
#X connect 17 0 0 0;
#X connect 18 0 16 1;
#X connect 18 0 22 0;
#X connect 19 0 20 0;
#X connect 20 0 16 0;
#X connect 22 0 33 0;
#X connect 22 1 23 0;
#X connect 22 1 35 0;
#X connect 22 2 21 1;
#X connect 23 0 21 0;
#X connect 24 0 25 0;
#X connect 24 1 29 0;
#X connect 25 0 26 0;
#X connect 26 0 28 0;
#X connect 27 0 24 0;
#X connect 28 0 31 0;
#X connect 29 0 30 0;
#X connect 30 0 32 0;
#X connect 31 0 33 0;
#X connect 32 0 31 1;
#X connect 33 0 9 1;
#X connect 34 0 5 0;
#X connect 35 0 33 1;
#X connect 36 0 34 0;
#X connect 37 0 39 0;
#X connect 39 0 38 0;
#X connect 40 0 8 0;
#X connect 42 0 36 1;
#X restore 305 131 pd lfo;
#X connect 0 0 4 0;
#X connect 0 0 15 0;
#X connect 1 0 6 0;
#X connect 1 0 15 0;
#X connect 4 0 2 0;
#X connect 5 0 4 1;
#X connect 5 0 6 1;
#X connect 6 0 3 0;
#X connect 7 0 5 0;
#X connect 8 0 11 0;
#X connect 9 0 10 1;
#X connect 10 0 4 1;
#X connect 10 0 6 1;
#X connect 11 0 10 0;
#X connect 15 0 10 0;
#X restore 30 292 pd filter;
#X obj 552 170 u_dispatch \$0 Q;
#X text 51 17 embedded rjdj e_lowpass abstraction;
#X obj 101 101 cnv 15 188 68 empty \$0-background fx_lop 0 7 0 14 -262144
-1 0;
#X obj 100 115 ui_vsl \$0 freq 20 20000;
#X obj 142 115 ui_vs \$0 Q 0 10;
#X text 58 401 messages transitant entre module_loader et module_declare
;
#X text 81 492 \$0-slot (pour être sauvegardé dans scenes);
#X text 82 461 \$0-hasFocus (pour retour / interaction gui);
#X text 83 437 \$0-busy (pour activation / désactivation);
#X obj 552 106 module_loader fx_lop \$0 \$1;
#X obj 29 260 inlet~;
#X obj 112 262 inlet~;
#X obj 30 321 outlet~;
#X obj 120 329 outlet~;
#X obj 217 240 inlet data;
#X obj 217 262 outlet data;
#X msg 495 46 curve 1 \, freq2 1000 \, threshold 100;
#X obj 777 143 u_dispatch \$0 delta;
#X obj 214 115 ui_vsl \$0 speed 1 1000;
#X obj 252 115 ui_vs \$0 delta -30 30;
#X text 243 115 LFO;
#X obj 274 102 bng 15 250 50 0 \$0-no_lfo empty empty 17 7 0 10 -262144
-1 -1;
#X obj 549 192 u_dispatch \$0 freq;
#X obj 555 245 u_parameter \$0 speed;
#X msg 692 74 speed 1 \, delta 0 \, freq 20000 \, Q 0.5;
#X obj 795 31 loadbang;
#X obj 534 4 declare -path ../../ressources/core;
#X obj 534 34 declare -path ../../ressources/rj;
#X connect 2 0 15 0;
#X connect 2 1 16 0;
#X connect 3 0 25 0;
#X connect 12 0 3 0;
#X connect 13 0 2 0;
#X connect 14 0 2 1;
#X connect 17 0 18 0;
#X connect 17 0 12 0;
#X connect 19 0 12 0;
#X connect 25 0 26 0;
#X connect 26 0 20 0;
#X connect 27 0 12 0;
#X connect 28 0 27 0;
#X coords 0 -1 1 1 190 70 1 100 100;
