#N struct 4776-multiband float f1 float f2 float f3 float t1 float
t2 float t3 float t4;
#N canvas 184 57 907 616 10;
#X declare -stdpath extra/rj/;
#X obj 100 501 stereo_outlet~;
#X obj 94 351 stereo_inlet~;
#N canvas 0 50 834 520 audio_stuff 0;
#X obj 157 52 inlet~;
#X obj 227 52 inlet~;
#X obj 220 355 outlet~;
#X obj 140 355 outlet~;
#X obj 126 175 core/bandCompressor \$0;
#X obj 128 140 core/filtering \$0;
#X obj 311 179 core/bandCompressor \$0;
#X obj 313 144 core/filtering \$0;
#X obj 545 59 inlet;
#X obj 554 117 switch~;
#X connect 0 0 5 0;
#X connect 1 0 7 0;
#X connect 4 0 3 0;
#X connect 5 0 4 0;
#X connect 5 1 4 1;
#X connect 5 2 4 2;
#X connect 5 3 4 3;
#X connect 6 0 2 0;
#X connect 7 0 6 0;
#X connect 7 1 6 1;
#X connect 7 2 6 2;
#X connect 7 3 6 3;
#X connect 8 0 9 0;
#X restore 101 396 pd audio_stuff;
#X obj 512 219 switch~;
#X obj 677 898 pointer multiband;
#X msg 291 136 pos 0 0;
#N canvas 148 50 1205 591 struct_stuff 0;
#X obj 416 166;
#X obj 510 191 route click;
#X obj 512 215 list split 1;
#X obj 515 234 list trim;
#X obj 285 145 spigot;
#X msg 343 87 0;
#X msg 354 109 1;
#X obj 328 413 expr (abs($f1-$f2)< 5)+2* (abs($f1-$f3)< 5)+4*( abs($f1-$f4)<
5);
#X msg 290 167 \$1;
#X obj 245 452 list prepend;
#X obj 313 60 route mouse mouseup motion;
#X obj 222 479 route 1 3 2 4 6;
#X obj 416 123 spigot;
#X msg 453 87 0;
#X msg 464 109 1;
#X obj 901 171 set \$0-multiband f1;
#X obj 895 260 set \$0-multiband f2;
#X obj 913 376 set \$0-multiband f3;
#X obj 491 369 get \$0-multiband f1 f2 f3;
#N canvas 523 118 657 481 multiband_template 0;
#X obj -42 115 outlet;
#X obj -124 60 struct \$0-multiband float f1 float f2 float f3 float
t1 float t2 float t3 float t4;
#X obj -114 171 filledpolygon 555 555 3 0 0 f1 0 f1 50 0 50 0 0;
#X obj -113 233 filledpolygon 50 50 3 f2 0 f3 0 f3 50 f2 50 f2 0;
#X obj -113 264 filledpolygon 55 55 3 f3 0 150 0 150 50 f3 50 f3 0
;
#X obj -114 201 filledpolygon 550 550 3 f1 0 f2 0 f2 50 f1 50 f1 0
;
#X obj -71 308 drawpolygon -x 0 4 0 t1 f1 t1;
#X obj -74 346 drawpolygon -x 0 4 f1 t2 f2 t2;
#X obj -74 377 drawpolygon -x 0 4 f2 t3 f3 t3;
#X obj -76 414 drawpolygon -x 0 4 f3 t4 150 t4;
#X connect 1 0 0 0;
#X restore 503 169 pd multiband_template;
#X obj 53 143 unpack f f;
#X obj 419 376 -;
#X obj 67 71 bng 15 250 50 0 empty empty empty 17 7 0 10 -262144 -1
-1;
#X obj 222 350 -;
#X obj 406 311 t b b b;
#X obj 271 77 t b f;
#X obj 290 118 f;
#X obj 268 103 delay 1;
#X obj 692 492 list prepend;
#X obj 333 196 unpack f f;
#X obj 268 356 -;
#X obj 695 517 route 1 2 4 8;
#X obj 879 504 set \$0-multiband t1;
#X obj 889 574 set \$0-multiband t2;
#X obj 1044 525 set \$0-multiband t3;
#X obj 1091 585 set \$0-multiband t4;
#X obj 684 417 expr (abs($f1-($f2/2))< 10)+2* (abs($f1-($f2+$f3)/2)<
10)+4* (abs($f1-($f3+$f4)/2)< 10)+8*(abs($f1-($f4+150)/2)< 10);
#X obj 533 456 + 15;
#X obj 533 476 * 0.5;
#X obj 204 549 s \$0-f1;
#X obj 464 254 t b a;
#X obj 493 293 t a a;
#X obj 354 552 s \$0-f2;
#X obj 480 551 s \$0-f3;
#N canvas 7 50 443 300 conv_freq 0;
#X obj 54 34 inlet;
#X obj 61 184 outlet;
#N canvas 0 50 458 308 rh_scalelog 0;
#X obj 20 155 exp;
#X obj 20 107 *;
#X obj 20 130 +;
#X obj 98 87 log;
#X obj 194 84 log;
#X obj 123 123 t b f;
#X obj 123 145 -;
#X obj 20 183 outlet;
#X obj 20 19 inlet;
#X obj 98 23 inlet;
#X obj 194 24 inlet;
#X connect 0 0 7 0;
#X connect 1 0 2 0;
#X connect 2 0 0 0;
#X connect 3 0 2 1;
#X connect 3 0 5 0;
#X connect 4 0 6 0;
#X connect 5 0 6 0;
#X connect 5 1 6 1;
#X connect 6 0 1 1;
#X connect 8 0 1 0;
#X connect 9 0 3 0;
#X connect 10 0 4 0;
#X restore 46 113 pd rh_scalelog;
#X msg 111 91 20;
#X msg 150 93 20000;
#X obj 44 90 / 150;
#X obj 143 69 loadbang;
#X connect 0 0 5 0;
#X connect 2 0 1 0;
#X connect 3 0 2 1;
#X connect 4 0 2 2;
#X connect 5 0 2 0;
#X connect 6 0 4 0;
#X connect 6 0 3 0;
#X restore 190 527 pd conv_freq;
#N canvas 7 50 443 300 conv_freq 0;
#X obj 54 34 inlet;
#X obj 61 184 outlet;
#N canvas 0 50 458 308 rh_scalelog 0;
#X obj 20 155 exp;
#X obj 20 107 *;
#X obj 20 130 +;
#X obj 98 87 log;
#X obj 194 84 log;
#X obj 123 123 t b f;
#X obj 123 145 -;
#X obj 20 183 outlet;
#X obj 20 19 inlet;
#X obj 98 23 inlet;
#X obj 194 24 inlet;
#X connect 0 0 7 0;
#X connect 1 0 2 0;
#X connect 2 0 0 0;
#X connect 3 0 2 1;
#X connect 3 0 5 0;
#X connect 4 0 6 0;
#X connect 5 0 6 0;
#X connect 5 1 6 1;
#X connect 6 0 1 1;
#X connect 8 0 1 0;
#X connect 9 0 3 0;
#X connect 10 0 4 0;
#X restore 46 113 pd rh_scalelog;
#X msg 111 91 20;
#X msg 150 93 20000;
#X obj 44 90 / 150;
#X obj 143 69 loadbang;
#X connect 0 0 5 0;
#X connect 2 0 1 0;
#X connect 3 0 2 1;
#X connect 4 0 2 2;
#X connect 5 0 2 0;
#X connect 6 0 4 0;
#X connect 6 0 3 0;
#X restore 478 529 pd conv_freq;
#N canvas 7 50 443 300 conv_freq 0;
#X obj 54 34 inlet;
#X obj 61 184 outlet;
#N canvas 0 50 458 308 rh_scalelog 0;
#X obj 20 155 exp;
#X obj 20 107 *;
#X obj 20 130 +;
#X obj 98 87 log;
#X obj 194 84 log;
#X obj 123 123 t b f;
#X obj 123 145 -;
#X obj 20 183 outlet;
#X obj 20 19 inlet;
#X obj 98 23 inlet;
#X obj 194 24 inlet;
#X connect 0 0 7 0;
#X connect 1 0 2 0;
#X connect 2 0 0 0;
#X connect 3 0 2 1;
#X connect 3 0 5 0;
#X connect 4 0 6 0;
#X connect 5 0 6 0;
#X connect 5 1 6 1;
#X connect 6 0 1 1;
#X connect 8 0 1 0;
#X connect 9 0 3 0;
#X connect 10 0 4 0;
#X restore 46 113 pd rh_scalelog;
#X msg 111 91 20;
#X msg 150 93 20000;
#X obj 44 90 / 150;
#X obj 143 69 loadbang;
#X connect 0 0 5 0;
#X connect 2 0 1 0;
#X connect 3 0 2 1;
#X connect 4 0 2 2;
#X connect 5 0 2 0;
#X connect 6 0 4 0;
#X connect 6 0 3 0;
#X restore 342 531 pd conv_freq;
#X obj 584 576 s \$0-t1;
#X obj 643 578 s \$0-t2;
#X obj 706 578 s \$0-t3;
#X obj 762 574 s \$0-t4;
#X obj 192 503 clip 0 54.84;
#X obj 344 505 clip 54.84 104.8;
#X obj 491 510 clip 104.8 150;
#N canvas 0 50 450 300 conv_db 0;
#X obj 157 89 inlet;
#X obj 174 246 outlet;
#X obj 194 149 / 50;
#X obj 206 172 * -120;
#X obj 217 203 + 20;
#X connect 0 0 2 0;
#X connect 2 0 3 0;
#X connect 3 0 4 0;
#X connect 4 0 1 0;
#X restore 563 552 pd conv_db;
#X obj 641 469 clip 0 50;
#N canvas 0 50 450 300 conv_db 0;
#X obj 157 89 inlet;
#X obj 174 246 outlet;
#X obj 194 149 / 50;
#X obj 206 172 * -120;
#X obj 217 203 + 20;
#X connect 0 0 2 0;
#X connect 2 0 3 0;
#X connect 3 0 4 0;
#X connect 4 0 1 0;
#X restore 648 549 pd conv_db;
#N canvas 0 50 450 300 conv_db 0;
#X obj 157 89 inlet;
#X obj 174 246 outlet;
#X obj 194 149 / 50;
#X obj 206 172 * -120;
#X obj 217 203 + 20;
#X connect 0 0 2 0;
#X connect 2 0 3 0;
#X connect 3 0 4 0;
#X connect 4 0 1 0;
#X restore 718 553 pd conv_db;
#N canvas 0 50 450 300 conv_db 0;
#X obj 157 89 inlet;
#X obj 174 246 outlet;
#X obj 194 149 / 50;
#X obj 206 172 * -120;
#X obj 217 203 + 20;
#X connect 0 0 2 0;
#X connect 2 0 3 0;
#X connect 3 0 4 0;
#X connect 4 0 1 0;
#X restore 803 553 pd conv_db;
#N canvas 0 50 450 300 conv_freq-pix 0;
#X msg 153 36 20;
#X msg 196 33 20000;
#N canvas 0 50 458 308 inv_scalelog 0;
#X obj 98 87 log;
#X obj 194 84 log;
#X obj 123 123 t b f;
#X obj 123 145 -;
#X obj 20 183 outlet;
#X obj 20 19 inlet;
#X obj 98 23 inlet;
#X obj 194 24 inlet;
#X obj 34 65 log;
#X obj 20 130 -;
#X obj 20 156 /;
#X connect 0 0 2 0;
#X connect 0 0 9 1;
#X connect 1 0 3 0;
#X connect 2 0 3 0;
#X connect 2 1 3 1;
#X connect 3 0 10 1;
#X connect 5 0 8 0;
#X connect 6 0 0 0;
#X connect 7 0 1 0;
#X connect 8 0 9 0;
#X connect 9 0 10 0;
#X connect 10 0 4 0;
#X restore 125 118 pd inv_scalelog;
#X obj 92 184 * 150;
#X obj 72 16 inlet;
#X obj 85 230 outlet;
#X obj 284 32 loadbang;
#X connect 0 0 2 1;
#X connect 1 0 2 2;
#X connect 2 0 3 0;
#X connect 3 0 5 0;
#X connect 4 0 2 0;
#X connect 6 0 1 0;
#X connect 6 0 0 0;
#X restore 899 145 pd conv_freq-pix;
#X obj 899 100 r \$0-f1;
#X obj 892 194 r \$0-f2;
#X obj 903 285 r \$0-f3;
#N canvas 0 50 450 300 conv_freq-pix 0;
#X msg 153 36 20;
#X msg 196 33 20000;
#N canvas 0 50 458 308 inv_scalelog 0;
#X obj 98 87 log;
#X obj 194 84 log;
#X obj 123 123 t b f;
#X obj 123 145 -;
#X obj 20 183 outlet;
#X obj 20 19 inlet;
#X obj 98 23 inlet;
#X obj 194 24 inlet;
#X obj 34 65 log;
#X obj 20 130 -;
#X obj 20 156 /;
#X connect 0 0 2 0;
#X connect 0 0 9 1;
#X connect 1 0 3 0;
#X connect 2 0 3 0;
#X connect 2 1 3 1;
#X connect 3 0 10 1;
#X connect 5 0 8 0;
#X connect 6 0 0 0;
#X connect 7 0 1 0;
#X connect 8 0 9 0;
#X connect 9 0 10 0;
#X connect 10 0 4 0;
#X restore 125 118 pd inv_scalelog;
#X obj 92 184 * 150;
#X obj 72 16 inlet;
#X obj 85 230 outlet;
#X obj 284 32 loadbang;
#X connect 0 0 2 1;
#X connect 1 0 2 2;
#X connect 2 0 3 0;
#X connect 3 0 5 0;
#X connect 4 0 2 0;
#X connect 6 0 1 0;
#X connect 6 0 0 0;
#X restore 892 235 pd conv_freq-pix;
#N canvas 0 50 450 300 conv_freq-pix 0;
#X msg 153 36 20;
#X msg 196 33 20000;
#N canvas 0 50 458 308 inv_scalelog 0;
#X obj 98 87 log;
#X obj 194 84 log;
#X obj 123 123 t b f;
#X obj 123 145 -;
#X obj 20 183 outlet;
#X obj 20 19 inlet;
#X obj 98 23 inlet;
#X obj 194 24 inlet;
#X obj 34 65 log;
#X obj 20 130 -;
#X obj 20 156 /;
#X connect 0 0 2 0;
#X connect 0 0 9 1;
#X connect 1 0 3 0;
#X connect 2 0 3 0;
#X connect 2 1 3 1;
#X connect 3 0 10 1;
#X connect 5 0 8 0;
#X connect 6 0 0 0;
#X connect 7 0 1 0;
#X connect 8 0 9 0;
#X connect 9 0 10 0;
#X connect 10 0 4 0;
#X restore 125 118 pd inv_scalelog;
#X obj 92 184 * 150;
#X obj 72 16 inlet;
#X obj 85 230 outlet;
#X obj 284 32 loadbang;
#X connect 0 0 2 1;
#X connect 1 0 2 2;
#X connect 2 0 3 0;
#X connect 3 0 5 0;
#X connect 4 0 2 0;
#X connect 6 0 1 0;
#X connect 6 0 0 0;
#X restore 913 354 pd conv_freq-pix;
#X obj 530 316 s \$0-pointer;
#X obj 1086 135 r \$0-pointer;
#X obj 1026 455 r \$0-pointer;
#X obj 924 123 clip 20 250;
#X obj 892 215 clip 250 2500;
#X obj 908 309 min 20000;
#X obj 913 334 max 2500;
#X obj 878 457 r \$0-t1;
#X obj 886 526 r \$0-t2;
#X obj 1035 473 r \$0-t3;
#X obj 1048 542 r \$0-t4;
#N canvas 0 50 450 300 conv_db-pix 0;
#X obj 77 69 - 20;
#X obj 73 101 / -120;
#X obj 110 126 * 50;
#X obj 74 45 clip -100 20;
#X obj 75 15 inlet;
#X obj 99 155 outlet;
#X connect 0 0 1 0;
#X connect 1 0 2 0;
#X connect 2 0 5 0;
#X connect 3 0 0 0;
#X connect 4 0 3 0;
#X restore 881 480 pd conv_db-pix;
#N canvas 0 50 450 300 conv_db-pix 0;
#X obj 77 69 - 20;
#X obj 73 101 / -120;
#X obj 110 126 * 50;
#X obj 74 45 clip -100 20;
#X obj 75 15 inlet;
#X obj 99 155 outlet;
#X connect 0 0 1 0;
#X connect 1 0 2 0;
#X connect 2 0 5 0;
#X connect 3 0 0 0;
#X connect 4 0 3 0;
#X restore 896 549 pd conv_db-pix;
#N canvas 0 50 477 502 data-struct-init 0;
#X obj 212 345 pointer;
#X text 230 300 go to (and output) "head" of the list;
#X obj 34 385 append \$0-multiband f1 f2 f3;
#X msg 212 321 traverse pd-\$1-data \, bang;
#X obj 188 286 f \$0;
#X msg 61 216 bang;
#X obj 34 356 unpack f f f;
#X msg 55 279 20 50 90;
#X obj 113 140 s pd-\$0-data;
#X msg 91 89 clear;
#X obj 55 59 t b b b;
#X obj 55 13 loadbang;
#X obj 107 417 outlet;
#X connect 0 0 2 3;
#X connect 2 0 12 0;
#X connect 3 0 0 0;
#X connect 4 0 3 0;
#X connect 5 0 4 0;
#X connect 6 0 2 0;
#X connect 6 1 2 1;
#X connect 6 2 2 2;
#X connect 7 0 6 0;
#X connect 9 0 8 0;
#X connect 10 0 7 0;
#X connect 10 1 4 0;
#X connect 10 2 9 0;
#X connect 11 0 10 0;
#X restore 507 270 pd data-struct-init;
#N canvas 0 50 450 300 conv_db-pix 0;
#X obj 77 69 - 20;
#X obj 73 101 / -120;
#X obj 110 126 * 50;
#X obj 74 45 clip -100 20;
#X obj 75 15 inlet;
#X obj 99 155 outlet;
#X connect 0 0 1 0;
#X connect 1 0 2 0;
#X connect 2 0 5 0;
#X connect 3 0 0 0;
#X connect 4 0 3 0;
#X restore 1038 501 pd conv_db-pix;
#N canvas 0 50 450 300 conv_db-pix 0;
#X obj 77 69 - 20;
#X obj 73 101 / -120;
#X obj 110 126 * 50;
#X obj 74 45 clip -100 20;
#X obj 75 15 inlet;
#X obj 99 155 outlet;
#X connect 0 0 1 0;
#X connect 1 0 2 0;
#X connect 2 0 5 0;
#X connect 3 0 0 0;
#X connect 4 0 3 0;
#X restore 1051 560 pd conv_db-pix;
#X obj 63 105 canvasposition 1;
#X obj 314 12 receivecanvas 2;
#X connect 1 0 2 0;
#X connect 2 0 3 0;
#X connect 3 0 40 0;
#X connect 4 0 8 0;
#X connect 5 0 4 1;
#X connect 6 0 4 1;
#X connect 7 0 9 1;
#X connect 8 0 21 0;
#X connect 9 0 11 0;
#X connect 10 0 25 0;
#X connect 10 1 5 0;
#X connect 10 1 13 0;
#X connect 10 2 12 0;
#X connect 11 0 51 0;
#X connect 11 1 51 0;
#X connect 11 2 52 0;
#X connect 11 3 53 0;
#X connect 11 4 53 0;
#X connect 12 0 29 0;
#X connect 13 0 12 1;
#X connect 14 0 12 1;
#X connect 18 0 7 1;
#X connect 18 0 36 1;
#X connect 18 1 7 2;
#X connect 18 1 36 2;
#X connect 18 2 7 3;
#X connect 18 2 36 3;
#X connect 19 0 1 0;
#X connect 20 0 21 1;
#X connect 20 0 23 1;
#X connect 20 1 30 1;
#X connect 21 0 7 0;
#X connect 21 0 36 0;
#X connect 22 0 81 0;
#X connect 23 0 9 0;
#X connect 24 0 14 0;
#X connect 24 1 6 0;
#X connect 24 2 81 0;
#X connect 25 0 27 0;
#X connect 25 1 26 1;
#X connect 26 0 4 0;
#X connect 27 0 26 0;
#X connect 28 0 31 0;
#X connect 29 0 23 0;
#X connect 29 1 30 0;
#X connect 30 0 37 0;
#X connect 31 0 54 0;
#X connect 31 1 56 0;
#X connect 31 2 57 0;
#X connect 31 3 58 0;
#X connect 36 0 28 1;
#X connect 37 0 38 0;
#X connect 38 0 55 0;
#X connect 40 0 24 0;
#X connect 40 1 41 0;
#X connect 41 1 18 0;
#X connect 41 1 65 0;
#X connect 44 0 39 0;
#X connect 45 0 43 0;
#X connect 46 0 42 0;
#X connect 51 0 44 0;
#X connect 52 0 46 0;
#X connect 53 0 45 0;
#X connect 54 0 47 0;
#X connect 55 0 28 0;
#X connect 56 0 48 0;
#X connect 57 0 49 0;
#X connect 58 0 50 0;
#X connect 59 0 15 0;
#X connect 60 0 68 0;
#X connect 61 0 69 0;
#X connect 62 0 70 0;
#X connect 63 0 16 0;
#X connect 64 0 17 0;
#X connect 66 0 15 1;
#X connect 66 0 17 1;
#X connect 66 0 16 1;
#X connect 67 0 34 1;
#X connect 67 0 35 1;
#X connect 67 0 33 1;
#X connect 67 0 32 1;
#X connect 68 0 59 0;
#X connect 69 0 63 0;
#X connect 70 0 71 0;
#X connect 71 0 64 0;
#X connect 72 0 76 0;
#X connect 73 0 77 0;
#X connect 74 0 79 0;
#X connect 75 0 80 0;
#X connect 76 0 32 0;
#X connect 77 0 33 0;
#X connect 78 0 41 0;
#X connect 79 0 34 0;
#X connect 80 0 35 0;
#X connect 81 0 20 0;
#X connect 82 0 10 0;
#X restore 250 46 pd struct_stuff;
#X obj 389 431 u_dispatch \$0 f1;
#X obj 390 454 u_dispatch \$0 f2;
#X obj 393 476 u_dispatch \$0 f3;
#X obj 391 564 u_dispatch \$0 t4;
#X obj 393 543 u_dispatch \$0 t3;
#X obj 392 520 u_dispatch \$0 t2;
#X obj 393 499 u_dispatch \$0 t1;
#X obj 550 432 u_dispatch \$0 r1;
#X obj 549 453 u_dispatch \$0 r2;
#X obj 550 476 u_dispatch \$0 r3;
#X obj 548 497 u_dispatch \$0 r4;
#X obj 223 85 nbx 3 14 0 20 0 0 empty empty empty -1 8 0 10 -262144
-1 -1 0 256;
#X obj 1 102 s \$0-r1;
#X obj 20 133 s \$0-r2;
#X obj 80 126 s \$0-r3;
#X obj 117 100 s \$0-r4;
#X obj 31 171 r \$0-r1;
#X obj 29 222 r \$0-r2;
#X msg 21 193 set \$1;
#X msg 23 249 set \$1;
#X msg 107 191 set \$1;
#X msg 101 248 set \$1;
#X obj 119 168 r \$0-r3;
#X obj 107 223 r \$0-r4;
#X obj 680 433 u_parameter \$0 in1;
#X obj 679 454 u_parameter \$0 in2;
#X obj 679 477 u_parameter \$0 in3;
#X obj 678 498 u_parameter \$0 in4;
#X obj 814 435 u_parameter \$0 out1;
#X obj 813 455 u_parameter \$0 out2;
#X obj 814 479 u_parameter \$0 out3;
#X obj 812 500 u_parameter \$0 out4;
#X obj 85 423 c_xfade;
#X obj 185 438 c_xfade;
#X obj 225 393 pack 0 10;
#X obj 654 541 u_parameter \$0 wet;
#X obj 312 337 r \$0-wet;
#X obj 643 182 s \$0-active;
#X obj 241 266 select 0;
#X msg 223 351 0;
#X msg 291 299 stop;
#X obj 229 327 delay 12;
#X obj 120 2 vsl 70 17 1 0 0 0 \$0-presets \$0-presets-rcv PRESETS
2 5 0 10 -232576 -232576 -1 0 1;
#N canvas 0 50 450 300 \$0-data 0;
#X scalar 4776-multiband 20 50 90 0 0 0 0 \;;
#X coords 0 0 150 50 150 50 2 0 0;
#X restore 1 14 pd \$0-data;
#X obj 9 64 nbx 3 14 0 20 0 0 empty empty empty -1 8 0 10 -162280 -1
-1 0 256;
#X obj 45 64 nbx 3 14 0 20 0 0 empty empty empty -1 8 0 10 -195336
-1 -1 0 256;
#X obj 81 64 nbx 3 14 0 20 0 0 empty empty empty -1 8 0 10 -63949 -1
-1 0 256;
#X obj 117 64 nbx 3 14 0 20 0 0 empty empty empty -1 8 0 10 -68202
-1 -1 0 256;
#X obj 153 15 vsl 9 22 0 1 0 0 \$0-in1 \$0-in1-rcv empty 0 -9 0 10
-162280 -1 -1 0 1;
#X obj 162 15 vsl 9 22 0 1 0 0 \$0-in2 \$0-in2-rcv empty 0 -9 0 10
-153923 -1 -1 0 1;
#X obj 171 15 vsl 9 22 0 1 0 0 \$0-in3 \$0-in3-rcv empty 0 -9 0 10
-2049 -1 -1 0 1;
#X obj 180 15 vsl 9 22 0 1 0 0 \$0-in4 \$0-in4-rcv empty 0 -9 0 10
-27051 -1 -1 0 1;
#X obj 153 53 vsl 9 22 0 4 0 0 \$0-out1 \$0-out1-rcv empty 0 -9 0 10
-162280 -1 -1 0 1;
#X obj 162 53 vsl 9 22 0 4 0 0 \$0-out2 \$0-out2-rcv empty 0 -9 0 10
-153923 -1 -1 0 1;
#X obj 171 53 vsl 9 22 0 4 0 0 \$0-out3 \$0-out3-rcv empty 0 -9 0 10
-2049 -1 -1 0 1;
#X obj 180 53 vsl 9 22 0 4 0 0 \$0-out4 \$0-out4-rcv empty 0 -9 0 10
-27051 -1 -1 0 1;
#X text 163 49 out;
#X text 161 16 in;
#X obj 156 38 hsl 32 13 0 1 0 0 \$0-wet \$0-wet-rcv wet 4 7 0 10 -204786
-1 -1 0 1;
#X text 0 62 r;
#X obj 371 160 rack_enableV2 200 80 4 8 0 1 fx_multiband \$1 \$0;
#X obj 410 392 rack_loader fx_multiband \$1 \$0;
#X connect 1 0 2 0;
#X connect 1 0 39 0;
#X connect 1 1 2 1;
#X connect 1 1 40 0;
#X connect 2 0 39 1;
#X connect 2 1 40 1;
#X connect 7 0 8 0;
#X connect 8 0 9 0;
#X connect 9 0 13 0;
#X connect 10 0 14 0;
#X connect 11 0 10 0;
#X connect 12 0 11 0;
#X connect 13 0 12 0;
#X connect 14 0 15 0;
#X connect 15 0 16 0;
#X connect 16 0 17 0;
#X connect 17 0 31 0;
#X connect 23 0 25 0;
#X connect 24 0 26 0;
#X connect 25 0 51 0;
#X connect 26 0 52 0;
#X connect 27 0 53 0;
#X connect 28 0 54 0;
#X connect 29 0 27 0;
#X connect 30 0 28 0;
#X connect 31 0 32 0;
#X connect 32 0 33 0;
#X connect 33 0 34 0;
#X connect 34 0 35 0;
#X connect 35 0 36 0;
#X connect 36 0 37 0;
#X connect 37 0 38 0;
#X connect 38 0 42 0;
#X connect 39 0 0 0;
#X connect 40 0 0 1;
#X connect 41 0 40 2;
#X connect 41 0 39 2;
#X connect 43 0 41 0;
#X connect 43 0 2 2;
#X connect 43 0 45 0;
#X connect 45 0 48 0;
#X connect 45 1 47 0;
#X connect 45 1 2 2;
#X connect 46 0 2 2;
#X connect 47 0 48 0;
#X connect 48 0 46 0;
#X connect 51 0 19 0;
#X connect 52 0 20 0;
#X connect 53 0 21 0;
#X connect 54 0 22 0;
#X connect 67 0 1 0;
#X connect 67 0 0 2;
#X connect 67 1 3 0;
#X connect 67 1 44 0;
#X connect 68 0 7 0;
#X coords 0 -1 1 1 190 78 1 0 0;
