#N canvas 492 56 678 486 10;
#X declare -path ../../ressources/core;
#X declare -path ../../ressources/rj;
#X obj 583 310 loadbang;
#N canvas 172 83 586 377 LICENSE-GPL 0;
#X text 57 88 This program is free software: you can redistribute it
and/or modify it under the terms of the GNU General Public License
as published by the Free Software Foundation \, either version 3 of
the License \, or (at your option) any later version.;
#X text 58 168 This program is distributed in the hope that it will
be useful \, but WITHOUT ANY WARRANTY \; without even the implied warranty
of MERCHANTABILITY or FITNESS FOR A PARTICULAR PURPOSE. See the GNU
General Public License for more details.;
#X text 57 261 You should have received a copy of the GNU General Public
License along with this program. If not \, see <http://www.gnu.org/licenses/>.
;
#X text 61 54 Copyright (C) 2009 \, Reality Jockey Ltd.;
#X text 60 325 See the file LICENSE.txt for the full license text.
;
#X restore 374 11 pd LICENSE-GPL;
#X text 35 69 ui_hsl \$0 name min max;
#X text 51 17 embedded rjdj e_pitchshift abstraction;
#X obj 294 282 u_dispatch \$0 pitch;
#X obj 294 322 u_dispatch \$0 size;
#N canvas 308 50 824 396 stereo_pitch_shift 0;
#N canvas 534 57 759 580 guts 0;
#X obj 286 395 *~;
#X obj 383 272 line~;
#X floatatom 340 86 0 0 0 0 - - -;
#X text 68 9 PITCH SHIFTER;
#X obj 383 246 pack 0 200;
#X obj 223 139 exp;
#X obj 224 238 /;
#X obj 276 183 * 0.001;
#X obj 518 361 line~;
#X obj 518 336 pack 0 200;
#X floatatom 518 285 0 0 0 0 - - -;
#X obj 286 421 +~;
#X obj 223 447 cos~;
#X obj 223 474 *~;
#X obj 291 522 +~;
#X obj 382 367 wrap~;
#X obj 445 400 *~;
#X obj 445 433 +~;
#X obj 382 460 cos~;
#X obj 382 481 *~;
#X obj 423 38 loadbang;
#X obj 277 204 t b f;
#X obj 382 346 +~ 0.5;
#X obj 223 395 -~ 0.5;
#X obj 223 421 *~ 0.5;
#X obj 382 399 -~ 0.5;
#X obj 382 432 *~ 0.5;
#X obj 223 181 - 1;
#X obj 230 115 * 0.05776;
#X obj 224 201 * -1;
#X text 262 141 speed;
#X text 262 148 change;
#X text 377 83 <--window (msec);
#X text 259 231 tape head;
#X obj 223 315 phasor~;
#X obj 518 312 max 1.5;
#X text 521 45 delay;
#X text 518 63 (msec);
#X obj 340 113 max 1;
#X text 260 244 rotation freq;
#X obj 230 59 inlet;
#X text 228 41 transposition;
#X obj 340 60 inlet;
#X text 337 42 windowsize;
#X obj 291 546 outlet~;
#X obj 37 58 inlet~;
#X obj 518 86 inlet;
#X msg 423 60 100;
#X msg 554 199 1.5;
#X obj 223 294 line~;
#X msg 224 275 \$1 30;
#X obj 21 392 delwrite~ \$0-del-1 5000;
#X obj 286 447 vd~ \$0-del-1;
#X obj 445 462 vd~ \$0-del-1;
#N canvas 0 50 450 300 feedback 0;
#X obj 274 36 r \$0-fback;
#X obj 258 140 line~;
#X msg 270 102 \$1 20;
#X obj 258 162 *~;
#X obj 323 117 inlet~;
#X obj 279 220 outlet~;
#X obj 275 73 * 0.0095;
#X obj 279 198 hip~ 5;
#X connect 0 0 6 0;
#X connect 1 0 3 0;
#X connect 2 0 1 0;
#X connect 3 0 7 0;
#X connect 4 0 3 1;
#X connect 6 0 2 0;
#X connect 7 0 5 0;
#X restore 67 224 pd feedback;
#X obj 64 265 clip~ -2 2;
#X floatatom 192 160 5 0 0 0 - - -, f 5;
#X obj 97 165 s \$0-fac;
#X obj 21 362 iemlib/lp8_cheb~ 20000 100;
#X obj 85 320 r \$0-antialiasing;
#X connect 0 0 11 0;
#X connect 1 0 0 1;
#X connect 1 0 16 1;
#X connect 2 0 38 0;
#X connect 4 0 1 0;
#X connect 5 0 27 0;
#X connect 5 0 56 0;
#X connect 5 0 57 0;
#X connect 6 0 50 0;
#X connect 7 0 21 0;
#X connect 8 0 11 1;
#X connect 8 0 17 1;
#X connect 9 0 8 0;
#X connect 10 0 35 0;
#X connect 11 0 52 0;
#X connect 12 0 13 0;
#X connect 13 0 14 0;
#X connect 14 0 44 0;
#X connect 14 0 54 0;
#X connect 15 0 16 0;
#X connect 15 0 25 0;
#X connect 16 0 17 0;
#X connect 17 0 53 0;
#X connect 18 0 19 0;
#X connect 19 0 14 1;
#X connect 20 0 47 0;
#X connect 20 0 48 0;
#X connect 21 0 6 0;
#X connect 21 1 6 1;
#X connect 22 0 15 0;
#X connect 23 0 24 0;
#X connect 24 0 12 0;
#X connect 25 0 26 0;
#X connect 26 0 18 0;
#X connect 27 0 29 0;
#X connect 28 0 5 0;
#X connect 29 0 6 0;
#X connect 34 0 0 0;
#X connect 34 0 23 0;
#X connect 34 0 22 0;
#X connect 35 0 9 0;
#X connect 38 0 7 0;
#X connect 38 0 4 0;
#X connect 40 0 28 0;
#X connect 42 0 2 0;
#X connect 45 0 58 0;
#X connect 46 0 10 0;
#X connect 47 0 2 0;
#X connect 48 0 10 0;
#X connect 49 0 34 0;
#X connect 50 0 49 0;
#X connect 52 0 13 1;
#X connect 53 0 19 1;
#X connect 54 0 55 0;
#X connect 55 0 58 0;
#X connect 58 0 51 0;
#X connect 59 0 58 1;
#X restore 78 148 pd guts;
#X obj 78 46 inlet~;
#X obj 59 331 outlet~;
#X obj 94 69 r \$0-pitch;
#X obj 124 120 r \$0-delay;
#X obj 108 94 r \$0-size;
#N canvas 228 198 627 317 LICENSE-BSD 0;
#X text 121 56 This software is copyrighted by Miller Puckette \, Reality
Jockey Ltd. and others. The terms (the "Standard Improved BSD License")
apply to all files associated with the software unless explicitly disclaimed
in individual files.;
#X text 123 148 See the file LICENSE.txt for the full license text.
;
#X restore 523 40 pd LICENSE-BSD;
#N canvas 485 78 759 580 guts 0;
#X obj 286 395 *~;
#X obj 383 272 line~;
#X floatatom 340 86 0 0 0 0 - - -;
#X text 68 9 PITCH SHIFTER;
#X obj 383 246 pack 0 200;
#X obj 223 139 exp;
#X obj 224 238 /;
#X obj 276 183 * 0.001;
#X obj 518 361 line~;
#X obj 518 336 pack 0 200;
#X floatatom 518 285 0 0 0 0 - - -;
#X obj 286 421 +~;
#X obj 223 447 cos~;
#X obj 223 474 *~;
#X obj 291 522 +~;
#X obj 382 367 wrap~;
#X obj 445 400 *~;
#X obj 445 433 +~;
#X obj 382 460 cos~;
#X obj 382 481 *~;
#X obj 423 38 loadbang;
#X obj 277 204 t b f;
#X obj 382 346 +~ 0.5;
#X obj 223 395 -~ 0.5;
#X obj 223 421 *~ 0.5;
#X obj 382 399 -~ 0.5;
#X obj 382 432 *~ 0.5;
#X obj 223 181 - 1;
#X obj 230 115 * 0.05776;
#X obj 224 201 * -1;
#X text 262 141 speed;
#X text 262 148 change;
#X text 377 83 <--window (msec);
#X text 259 231 tape head;
#X obj 223 315 phasor~;
#X obj 518 312 max 1.5;
#X text 521 45 delay;
#X text 518 63 (msec);
#X obj 340 113 max 1;
#X text 260 244 rotation freq;
#X obj 230 59 inlet;
#X text 228 41 transposition;
#X obj 340 60 inlet;
#X text 337 42 windowsize;
#X obj 27 456 delwrite~ \$0-del 5000;
#X obj 286 447 vd~ \$0-del;
#X obj 445 462 vd~ \$0-del;
#X obj 291 546 outlet~;
#X obj 20 58 inlet~;
#X obj 518 86 inlet;
#X msg 423 60 100;
#X msg 554 199 1.5;
#X obj 223 294 line~;
#X msg 224 275 \$1 30;
#N canvas 0 50 450 300 feedback 0;
#X obj 274 36 r \$0-fback;
#X obj 258 140 line~;
#X msg 270 102 \$1 20;
#X obj 258 162 *~;
#X obj 323 117 inlet~;
#X obj 279 220 outlet~;
#X obj 275 73 * 0.0095;
#X obj 279 198 hip~ 5;
#X connect 0 0 6 0;
#X connect 1 0 3 0;
#X connect 2 0 1 0;
#X connect 3 0 7 0;
#X connect 4 0 3 1;
#X connect 6 0 2 0;
#X connect 7 0 5 0;
#X restore 66 171 pd feedback;
#X obj 64 265 clip~ -2 2;
#X obj 21 362 iemlib/lp8_cheb~ 20000 100;
#X obj 85 320 r \$0-antialiasing;
#X connect 0 0 11 0;
#X connect 1 0 0 1;
#X connect 1 0 16 1;
#X connect 2 0 38 0;
#X connect 4 0 1 0;
#X connect 5 0 27 0;
#X connect 6 0 53 0;
#X connect 7 0 21 0;
#X connect 8 0 11 1;
#X connect 8 0 17 1;
#X connect 9 0 8 0;
#X connect 10 0 35 0;
#X connect 11 0 45 0;
#X connect 12 0 13 0;
#X connect 13 0 14 0;
#X connect 14 0 47 0;
#X connect 14 0 54 0;
#X connect 15 0 16 0;
#X connect 15 0 25 0;
#X connect 16 0 17 0;
#X connect 17 0 46 0;
#X connect 18 0 19 0;
#X connect 19 0 14 1;
#X connect 20 0 50 0;
#X connect 20 0 51 0;
#X connect 21 0 6 0;
#X connect 21 1 6 1;
#X connect 22 0 15 0;
#X connect 23 0 24 0;
#X connect 24 0 12 0;
#X connect 25 0 26 0;
#X connect 26 0 18 0;
#X connect 27 0 29 0;
#X connect 28 0 5 0;
#X connect 29 0 6 0;
#X connect 34 0 0 0;
#X connect 34 0 23 0;
#X connect 34 0 22 0;
#X connect 35 0 9 0;
#X connect 38 0 7 0;
#X connect 38 0 4 0;
#X connect 40 0 28 0;
#X connect 42 0 2 0;
#X connect 45 0 13 1;
#X connect 46 0 19 1;
#X connect 48 0 56 0;
#X connect 49 0 10 0;
#X connect 50 0 2 0;
#X connect 51 0 10 0;
#X connect 52 0 34 0;
#X connect 53 0 52 0;
#X connect 54 0 55 0;
#X connect 55 0 56 0;
#X connect 56 0 44 0;
#X connect 57 0 56 1;
#X restore 228 148 pd guts;
#X obj 228 46 inlet~;
#X obj 209 331 outlet~;
#X obj 244 69 r \$0-pitch;
#X obj 274 120 r \$0-delay;
#X obj 258 94 r \$0-size;
#X obj 58 256 c_xfade;
#X obj 201 255 c_xfade;
#X obj 345 183 r \$0-wet;
#X msg 330 210 \$1 5;
#N canvas 0 50 729 621 mode_synchro 0;
#X obj 269 81 r BPM;
#X obj 263 180 /;
#X msg 261 132 60000 \$1;
#X obj 343 153 r \$0-del;
#X obj 329 283 /;
#X obj 319 320 moses 1;
#X obj 290 367 /;
#X msg 281 340 1 \$1;
#X obj 289 400 + 0.5;
#X obj 369 398 + 0.5;
#X obj 371 428 int;
#X obj 285 429 int;
#X msg 291 464 1 \$1;
#X obj 295 487 /;
#X obj 347 227 t b f f;
#X obj 312 508 *;
#X obj 352 508 *;
#X obj 279 577 s \$0-delay;
#X obj 194 85 == 0;
#X obj 105 62 r \$0-del;
#X obj 294 531 spigot;
#X obj 154 395 r \$0-sync;
#X obj 229 223 f;
#X obj 149 432 t f f f;
#X obj 94 94 f;
#X obj 146 471 select 1 0;
#X floatatom 398 449 5 0 0 0 - - -, f 5;
#X floatatom 285 451 5 0 0 0 - - -, f 5;
#X obj 158 111 spigot 1;
#X obj 468 433 r \$0-size;
#X obj 424 583 -;
#X obj 441 483 t b f;
#X obj 484 458 / 2;
#X obj 485 591 max 0;
#X connect 0 0 2 0;
#X connect 1 0 22 0;
#X connect 2 0 1 0;
#X connect 3 0 4 0;
#X connect 4 0 5 0;
#X connect 5 0 7 0;
#X connect 5 1 9 0;
#X connect 6 0 8 0;
#X connect 7 0 6 0;
#X connect 8 0 11 0;
#X connect 9 0 10 0;
#X connect 10 0 16 0;
#X connect 10 0 26 0;
#X connect 11 0 12 0;
#X connect 11 0 27 0;
#X connect 12 0 13 0;
#X connect 13 0 15 0;
#X connect 14 0 4 0;
#X connect 14 1 4 1;
#X connect 14 2 15 1;
#X connect 14 2 16 1;
#X connect 15 0 20 0;
#X connect 16 0 20 0;
#X connect 18 0 28 1;
#X connect 19 0 24 0;
#X connect 20 0 30 0;
#X connect 21 0 23 0;
#X connect 22 0 14 0;
#X connect 23 0 25 0;
#X connect 23 1 20 1;
#X connect 23 2 18 0;
#X connect 24 0 28 0;
#X connect 25 0 22 0;
#X connect 25 1 24 0;
#X connect 28 0 30 0;
#X connect 29 0 32 0;
#X connect 30 0 33 0;
#X connect 31 0 30 0;
#X connect 31 1 30 1;
#X connect 32 0 31 0;
#X connect 33 0 17 0;
#X restore 534 111 pd mode_synchro;
#X obj 519 175 loadbang;
#X obj 524 209 samplerate~;
#X obj 661 225 abs;
#X obj 646 282 /;
#X obj 661 263 * 2.2;
#X obj 661 244 max 1;
#X obj 634 205 t b f;
#X obj 646 167 r \$0-fac;
#X obj 486 351 s \$0-antialiasing;
#X msg 463 291 30000;
#X connect 0 0 13 1;
#X connect 1 0 0 0;
#X connect 1 0 13 0;
#X connect 3 0 0 1;
#X connect 4 0 0 3;
#X connect 5 0 0 2;
#X connect 7 0 14 1;
#X connect 8 0 7 0;
#X connect 8 0 14 0;
#X connect 10 0 7 1;
#X connect 11 0 7 3;
#X connect 12 0 7 2;
#X connect 13 0 2 0;
#X connect 14 0 9 0;
#X connect 15 0 16 0;
#X connect 16 0 14 2;
#X connect 16 0 13 2;
#X connect 18 0 19 0;
#X connect 19 0 21 0;
#X connect 20 0 23 0;
#X connect 21 0 26 0;
#X connect 22 0 21 1;
#X connect 23 0 22 0;
#X connect 24 0 19 0;
#X connect 24 1 20 0;
#X connect 25 0 24 0;
#X connect 27 0 26 0;
#X restore 30 285 pd stereo_pitch_shift;
#X obj 294 341 u_dispatch \$0 wet;
#X msg 459 378 pitch 0 \, delay 1.5 \, size 100;
#X obj 294 360 u_dispatch \$0 fback;
#X obj 291 381 u_parameter \$0 sync;
#X obj 294 302 u_dispatch \$0 del;
#N canvas 0 50 450 300 affichage_BPM/factor 0;
#N canvas 0 50 458 308 inv_scalelog 0;
#X obj 98 87 log;
#X obj 194 84 log;
#X obj 123 123 t b f;
#X obj 123 145 -;
#X obj 20 183 outlet;
#X obj 20 19 inlet;
#X obj 98 23 inlet;
#X obj 194 24 inlet;
#X obj 34 65 log;
#X obj 20 130 -;
#X obj 20 156 /;
#X connect 0 0 2 0;
#X connect 0 0 9 1;
#X connect 1 0 3 0;
#X connect 2 0 3 0;
#X connect 2 1 3 1;
#X connect 3 0 10 1;
#X connect 5 0 8 0;
#X connect 6 0 0 0;
#X connect 7 0 1 0;
#X connect 8 0 9 0;
#X connect 9 0 10 0;
#X connect 10 0 4 0;
#X restore 96 126 pd inv_scalelog;
#X obj 117 154 * 127;
#X obj 33 26 r \$0-delay;
#X obj 79 188 r BPM;
#X obj 32 218 *;
#X obj 28 242 / 600;
#X obj 48 262 int;
#X obj 59 281 / 100;
#X msg 345 194 label bpm/\$1;
#X obj 172 38 loadbang;
#X obj 397 238 s \$0-bpm_factor-rcv;
#X msg 168 95 1.5;
#X obj 72 62 r \$0-size;
#X obj 55 106 t b f;
#X obj 42 131 +;
#X obj 72 84 / 2;
#X msg 185 70 4800;
#X connect 0 0 1 0;
#X connect 1 0 10 0;
#X connect 2 0 14 0;
#X connect 3 0 4 1;
#X connect 4 0 5 0;
#X connect 5 0 6 0;
#X connect 6 0 7 0;
#X connect 7 0 8 0;
#X connect 8 0 10 0;
#X connect 9 0 16 0;
#X connect 9 0 11 0;
#X connect 11 0 0 1;
#X connect 12 0 15 0;
#X connect 13 0 14 0;
#X connect 13 1 14 1;
#X connect 14 0 0 0;
#X connect 14 0 4 0;
#X connect 15 0 13 0;
#X connect 16 0 0 2;
#X restore 229 447 pd affichage_BPM/factor;
#X obj 291 401 u_parameter \$0 semitones;
#X obj 416 444 round_param \$0 pitch;
#X obj 516 422 r \$0-semitones;
#X obj 29 260 inlet~;
#X obj 155 234 inlet~;
#X obj 28 311 outlet~;
#X obj 131 322 outlet~;
#X obj 205 269 inlet data;
#X obj 205 291 outlet data;
#X obj 101 101 cnv 15 188 68 empty \$0-background fx_pitchshift 0 7
0 14 -262144 -1 0;
#X obj 411 157 vsl 70 17 1 0 0 0 \$0-presets \$0-presets-rcv PRESETS
2 5 0 10 -232576 -232576 -1 0 1;
#X obj 210 100 tgl 15 0 \$0-sync \$0-sync-rcv sync 1 5 0 10 -4032 -1
-1 0 1;
#X obj 100 115 ui_vsl \$0 del 1.5 4800;
#X obj 138 115 ui_vs \$0 pitch -12 12;
#X obj 176 115 ui_vs \$0 size 1 200;
#X obj 214 115 ui_vs \$0 fback 0 100;
#X obj 252 115 ui_vs \$0 wet 0 1;
#X obj 275 100 tgl 15 0 \$0-semitones \$0-semitones-rcv semitones -38
7 0 10 -257985 -1 -1 0 1;
#X obj 294 261 module_loader fx_pitchshift \$0 \$1;
#X obj 575 77 s \$0-w;
#X obj 618 77 s \$0-d;
#X obj 526 77 s \$0-fa;
#X obj 661 77 s \$0-fb;
#X obj 710 77 s \$0-xf;
#X obj 446 78 r \$0-pitch;
#N canvas 1 56 450 300 pitchift 1;
#X obj 418 113 fx_pitchshift/pitchshift~ 1000;
#X obj 181 94 switch~;
#X restore 584 126 pd pitchift;
#X obj 128 117 vsl 10 50 0 127 0 0 empty \$0-bpm_factor-rcv bpm/0 1
5 0 10 -44926 -1 -1 2129 1;
#X obj 534 4 declare -path ../../ressources/core;
#X obj 534 34 declare -path ../../ressources/rj;
#X text 529 102 autre implementation à étudier;
#X connect 0 0 8 0;
#X connect 4 0 11 0;
#X connect 5 0 7 0;
#X connect 6 0 18 0;
#X connect 6 1 19 0;
#X connect 7 0 9 0;
#X connect 8 0 4 0;
#X connect 9 0 10 0;
#X connect 10 0 13 0;
#X connect 11 0 5 0;
#X connect 15 0 14 0;
#X connect 16 0 6 0;
#X connect 17 0 6 1;
#X connect 20 0 21 0;
#X connect 20 0 31 0;
#X connect 31 0 4 0;
#X coords 0 -1 1 1 190 70 1 100 100;
