#N canvas 713 56 613 297 10;
#X obj 340 163 tgl 15 0 empty empty V 4 8 0 12 -4034 -4034 -1 0 1;
#X obj 340 200 tgl 15 0 empty empty X 4 8 0 12 -258113 -258113 -1 0
1;
#X text 360 159 Instances multiples;
#X text 12 14 filtre paramétrique;
#X text 22 57 nécessite l'external iemlib/para_bp2~;
#X obj 77 246 soundoutput;
#X obj 58 143 fx_parameq;
#N canvas 0 50 450 300 noise~ 0;
#X obj 90 102 noise~;
#X obj 150 102 noise~;
#X obj 92 134 *~ 0.2;
#X obj 82 193 outlet~;
#X obj 152 203 outlet~;
#X obj 152 134 *~ 0.2;
#X connect 0 0 2 0;
#X connect 1 0 5 0;
#X connect 2 0 3 0;
#X connect 5 0 4 0;
#X restore 61 104 pd noise~;
#X msg 356 49 \; pd dsp 1;
#X connect 6 0 5 0;
#X connect 6 1 5 1;
#X connect 7 0 6 0;
#X connect 7 1 6 1;
