#N canvas 646 56 707 623 10;
#X declare -path ../../ressources/core;
#X declare -path ../../ressources/rj;
#X obj 101 101 cnv 15 188 68 empty \$0-background fx_parameq2 0 7 0
14 -262144 -1 0;
#X obj 101 101 cnv 15 188 68 empty \$0-background fx_parameq2 0 7 0
14 -262144 -1 0;
#X obj 30 226 inlet~;
#X obj 138 225 inlet~;
#X obj 28 344 outlet~;
#X obj 139 344 outlet~;
#X obj 257 324 inlet data;
#X obj 257 346 outlet data;
#X obj 100 115 ui_vsl \$0 freq 20 9999;
#X obj 138 115 ui_vsl \$0 Q 0.1 10;
#N canvas 403 1048 1054 610 audio_stuf~ 1;
#X obj 37 37 inlet~;
#X obj 32 262 outlet~;
#X text 222 97 440;
#X text 239 120 1;
#X text 284 144 100;
#X obj 107 96 r \$0-freq;
#X obj 144 120 r \$0-Q;
#X obj 204 142 r \$0-gain;
#X obj 619 47 r \$0-bypass;
#X obj 644 87 == 0;
#X obj 644 109 switch~;
#X obj 106 165 u_peak 440 1 0;
#X obj 36 217 e_beequad;
#X obj 427 37 inlet~;
#X obj 422 262 outlet~;
#X obj 426 217 e_beequad;
#N canvas 1 56 1002 622 lfo 0;
#X obj 87 500 line;
#X obj 87 522 mtof;
#X obj 364 291 +;
#X obj 412 291 * 0.9;
#X obj 395 247 * 0.1;
#X obj 393 218 t f f;
#X obj 338 325 -;
#X obj 380 348 max 0;
#X obj 395 84 env~;
#X obj 392 377 *;
#X obj 765 449 r \$0-delta;
#X obj 468 377 r \$0-freq;
#X obj 392 399 change;
#X obj 431 451 +;
#X obj 468 399 ftom;
#X msg 444 337;
#X obj 440 542 pack f f;
#X msg 369 483 \$1 \$2;
#X obj 730 226 r \$0-speed;
#X obj 432 482 min 127;
#X obj 432 504 max 0;
#X obj 756 372 * 1;
#X obj 716 292 t b f f;
#X obj 759 324 + 10;
#X obj 775 483 t f f;
#X obj 775 505 abs;
#X obj 775 527 mtof;
#X msg 880 455 0;
#X obj 775 549 - 8.175;
#X obj 862 531 > 0;
#X obj 862 553 - 0.5;
#X obj 775 571 *;
#X obj 862 575 * 10;
#X obj 654 501 *;
#X obj 394 186 / 127;
#X obj 721 407 sqrt;
#X obj 395 152 spigot;
#X obj 654 163 r \$0-no_lfo;
#X obj 634 214 s \$0-delta;
#X msg 624 182 0;
#X obj 365 22 inlet~;
#X obj 87 544 outlet;
#X obj 439 98 r \$0-delta;
#X connect 0 0 1 0;
#X connect 1 0 41 0;
#X connect 2 0 3 0;
#X connect 2 0 6 1;
#X connect 3 0 2 1;
#X connect 4 0 2 0;
#X connect 5 0 6 0;
#X connect 5 1 4 0;
#X connect 6 0 7 0;
#X connect 7 0 9 0;
#X connect 8 0 36 0;
#X connect 9 0 12 0;
#X connect 10 0 24 0;
#X connect 11 0 14 0;
#X connect 12 0 13 0;
#X connect 13 0 19 0;
#X connect 14 0 13 1;
#X connect 16 0 17 0;
#X connect 17 0 0 0;
#X connect 18 0 16 1;
#X connect 18 0 22 0;
#X connect 19 0 20 0;
#X connect 20 0 16 0;
#X connect 22 0 33 0;
#X connect 22 1 23 0;
#X connect 22 1 35 0;
#X connect 22 2 21 1;
#X connect 23 0 21 0;
#X connect 24 0 25 0;
#X connect 24 1 29 0;
#X connect 25 0 26 0;
#X connect 26 0 28 0;
#X connect 27 0 24 0;
#X connect 28 0 31 0;
#X connect 29 0 30 0;
#X connect 30 0 32 0;
#X connect 31 0 33 0;
#X connect 32 0 31 1;
#X connect 33 0 9 1;
#X connect 34 0 5 0;
#X connect 35 0 33 1;
#X connect 36 0 34 0;
#X connect 37 0 39 0;
#X connect 39 0 38 0;
#X connect 40 0 8 0;
#X connect 42 0 36 1;
#X restore 305 81 pd lfo;
#X connect 0 0 12 0;
#X connect 0 0 16 0;
#X connect 5 0 11 0;
#X connect 6 0 11 1;
#X connect 7 0 11 2;
#X connect 8 0 9 0;
#X connect 9 0 10 0;
#X connect 11 0 12 1;
#X connect 11 0 15 1;
#X connect 12 0 1 0;
#X connect 13 0 15 0;
#X connect 13 0 16 0;
#X connect 15 0 14 0;
#X connect 16 0 11 0;
#X restore 29 282 pd audio_stuf~;
#X obj 412 295 u_dispatch \$0 Q;
#X obj 412 317 u_dispatch \$0 freq;
#X obj 412 339 u_dispatch \$0 gain;
#X obj 412 361 u_dispatch \$0 bypass;
#X obj 197 100 ui_tgl \$0 bypass -1 1 15;
#X obj 424 147 loadbang;
#X msg 424 169 freq 440 \, Q 1 \, gain 0 \, bypass 0;
#X obj 58 255 *~ 0;
#X obj 158 255 *~ 0;
#X obj 198 231 r \$0-bypass;
#X obj 412 273 module_loader fx_parameq2 \$0 \$1;
#X obj 176 115 ui_vs \$0 gain -30 20;
#X obj 414 433 u_dispatch \$0 delta;
#X obj 419 410 u_parameter \$0 speed;
#X text 550 385 LFO;
#X obj 214 115 ui_vsl \$0 speed 1 1000;
#X obj 252 115 ui_vs \$0 delta -30 30;
#X text 243 115 LFO;
#X obj 274 102 bng 15 250 50 0 \$0-no_lfo empty empty 17 7 0 10 -262144
-1 -1;
#X obj 534 4 declare -path ../../ressources/core;
#X obj 534 34 declare -path ../../ressources/rj;
#X connect 2 0 10 0;
#X connect 2 0 18 0;
#X connect 3 0 19 0;
#X connect 3 0 10 1;
#X connect 6 0 7 0;
#X connect 6 0 21 0;
#X connect 10 0 4 0;
#X connect 10 1 5 0;
#X connect 11 0 12 0;
#X connect 12 0 13 0;
#X connect 13 0 14 0;
#X connect 14 0 24 0;
#X connect 16 0 17 0;
#X connect 17 0 11 0;
#X connect 18 0 4 0;
#X connect 19 0 5 0;
#X connect 20 0 19 1;
#X connect 20 0 18 1;
#X connect 21 0 11 0;
#X connect 24 0 23 0;
#X coords 0 -1 1 1 190 70 1 100 100;
