#N canvas 646 56 678 486 10;
#X declare -path ../../ressources/core;
#X declare -path ../../ressources/rj;
#X obj 101 101 cnv 15 188 68 empty \$0-background fx_parameq 0 7 0
14 -262144 -1 0;
#X obj 101 101 cnv 15 188 68 empty \$0-background fx_parameq 0 7 0
14 -262144 -1 0;
#X obj 30 226 inlet~;
#X obj 138 225 inlet~;
#X obj 28 344 outlet~;
#X obj 139 344 outlet~;
#X obj 257 324 inlet data;
#X obj 257 346 outlet data;
#X obj 412 273 module_loader fx_parameq \$0 \$1;
#X obj 214 115 ui_vsl \$0 freq 20 9999;
#X obj 176 115 ui_vsl \$0 Q 0.1 10;
#N canvas 0 50 450 300 audio_stuf~ 0;
#X obj 37 37 inlet~;
#X obj 32 262 outlet~;
#X text 222 97 440;
#X text 239 120 1;
#X text 284 144 100;
#X obj 107 96 r \$0-freq;
#X obj 144 120 r \$0-Q;
#X obj 181 144 r \$0-gain;
#X obj 29 195 iemlib/para_bp2~ 440 1 0 40;
#X obj 279 47 r \$0-bypass;
#X obj 304 87 == 0;
#X obj 304 109 switch~;
#X connect 0 0 8 0;
#X connect 5 0 8 1;
#X connect 6 0 8 2;
#X connect 7 0 8 3;
#X connect 8 0 1 0;
#X connect 9 0 10 0;
#X connect 10 0 11 0;
#X restore 29 282 pd audio_stuf~;
#X obj 412 295 u_dispatch \$0 Q;
#X obj 412 317 u_dispatch \$0 freq;
#X obj 412 339 u_dispatch \$0 gain;
#X obj 412 361 u_dispatch \$0 bypass;
#X obj 107 130 ui_tgl \$0 bypass -1 1 15;
#X obj 424 147 loadbang;
#X msg 424 169 freq 440 \, Q 1 \, gain 0 \, bypass 0;
#X obj 58 255 *~ 0;
#X obj 158 255 *~ 0;
#X obj 198 231 r \$0-bypass;
#N canvas 0 50 450 300 audio_stuf~ 0;
#X obj 37 37 inlet~;
#X obj 32 262 outlet~;
#X text 222 97 440;
#X text 239 120 1;
#X text 284 144 100;
#X obj 107 96 r \$0-freq;
#X obj 144 120 r \$0-Q;
#X obj 181 144 r \$0-gain;
#X obj 29 195 iemlib/para_bp2~ 440 1 0 40;
#X obj 279 47 r \$0-bypass;
#X obj 304 87 == 0;
#X obj 304 109 switch~;
#X connect 0 0 8 0;
#X connect 5 0 8 1;
#X connect 6 0 8 2;
#X connect 7 0 8 3;
#X connect 8 0 1 0;
#X connect 9 0 10 0;
#X connect 10 0 11 0;
#X restore 139 282 pd audio_stuf~;
#X obj 252 115 ui_vs \$0 gain -100 20;
#X obj 534 4 declare -path ../../ressources/core;
#X obj 534 34 declare -path ../../ressources/rj;
#X connect 2 0 11 0;
#X connect 2 0 19 0;
#X connect 3 0 20 0;
#X connect 3 0 22 0;
#X connect 6 0 7 0;
#X connect 6 0 8 0;
#X connect 8 0 12 0;
#X connect 11 0 4 0;
#X connect 12 0 13 0;
#X connect 13 0 14 0;
#X connect 14 0 15 0;
#X connect 17 0 18 0;
#X connect 18 0 12 0;
#X connect 19 0 4 0;
#X connect 20 0 5 0;
#X connect 21 0 20 1;
#X connect 21 0 19 1;
#X connect 22 0 5 0;
#X coords 0 -1 1 1 190 70 1 100 100;
