#N canvas 60 56 678 587 10;
#X declare -path ../../ressources/core;
#X declare -path ../../ressources/rj;
#X obj 191 51 makenote 100 100;
#N canvas 145 50 577 652 random 0;
#X obj 100 99 select 1;
#X obj 100 35 inlet;
#X obj 174 203 * 200;
#X obj 174 231 t a a;
#X obj 449 409 outlet;
#X obj 174 144 random 4;
#X obj 174 169 + 1;
#X obj 174 268 delay;
#X obj 100 60 t a a;
#X obj 340 192 spigot 1;
#X obj 100 479 outlet;
#X obj 259 473 outlet;
#X obj 100 332 t b b b;
#X obj 269 39 inlet;
#X obj 449 380 - 1;
#X obj 259 367 random 40;
#X obj 259 387 + 40;
#X obj 100 451 m_majorscale 48;
#X obj 100 375 random 16;
#X connect 0 0 5 0;
#X connect 1 0 8 0;
#X connect 2 0 3 0;
#X connect 3 0 7 0;
#X connect 3 0 12 0;
#X connect 3 1 14 0;
#X connect 5 0 6 0;
#X connect 6 0 2 0;
#X connect 7 0 9 0;
#X connect 8 0 0 0;
#X connect 8 1 9 1;
#X connect 9 0 5 0;
#X connect 12 0 18 0;
#X connect 12 2 15 0;
#X connect 13 0 2 1;
#X connect 14 0 4 0;
#X connect 15 0 16 0;
#X connect 16 0 11 0;
#X connect 17 0 10 0;
#X connect 18 0 17 0;
#X restore 214 11 pd random notes;
#X obj 376 10 notein;
#X obj 368 78 pack f f;
#X msg 361 203 midinote \$1 \$2;
#N canvas 0 50 873 578 pool 0;
#X obj 92 213 inlet~;
#X obj 152 213 inlet~;
#X obj 101 421 outlet~;
#X obj 171 421 outlet~;
#X obj 237 169 route 1 2 3 4 5 6 7 8;
#X obj 224 144 pack f f f;
#X obj 274 9 inlet;
#X obj 309 35 route midinote;
#X obj 566 96 s \$0-channel;
#X obj 47 300 fx_resonator/resonator \$0-channel;
#X obj 570 60 param_bridge \$0 fdback;
#X obj 570 40 param_bridge \$0 lpfreq;
#X obj 427 390 fx_resonator/resonator \$0-channel;
#X obj 77 330 fx_resonator/resonator \$0-channel;
#X obj 97 360 fx_resonator/resonator \$0-channel;
#X obj 127 390 fx_resonator/resonator \$0-channel;
#X obj 347 300 fx_resonator/resonator \$0-channel;
#X obj 377 330 fx_resonator/resonator \$0-channel;
#X obj 397 360 fx_resonator/resonator \$0-channel;
#X obj 223 119 poly 8 1;
#X obj 453 113 spigot;
#X obj 453 172 delay 1000;
#X obj 580 10 r \$0-hold;
#X obj 372 124 spigot;
#X obj 309 78 t l b l;
#X obj 453 144 t b b;
#X msg 424 129 0;
#X msg 460 196 1;
#X obj 364 145 t b b;
#X msg 320 131 stop;
#X connect 0 0 9 0;
#X connect 0 0 12 0;
#X connect 0 0 13 0;
#X connect 0 0 14 0;
#X connect 0 0 15 0;
#X connect 0 0 16 0;
#X connect 0 0 17 0;
#X connect 0 0 18 0;
#X connect 1 0 9 1;
#X connect 1 0 12 1;
#X connect 1 0 13 1;
#X connect 1 0 14 1;
#X connect 1 0 15 1;
#X connect 1 0 16 1;
#X connect 1 0 17 1;
#X connect 1 0 18 1;
#X connect 4 0 9 2;
#X connect 4 1 13 2;
#X connect 4 2 14 2;
#X connect 4 3 15 2;
#X connect 4 4 16 2;
#X connect 4 5 17 2;
#X connect 4 6 18 2;
#X connect 4 7 12 2;
#X connect 5 0 4 0;
#X connect 6 0 7 0;
#X connect 7 0 19 0;
#X connect 9 0 2 0;
#X connect 9 1 3 0;
#X connect 10 0 8 0;
#X connect 11 0 10 0;
#X connect 12 0 2 0;
#X connect 12 1 3 0;
#X connect 13 0 2 0;
#X connect 13 1 3 0;
#X connect 14 0 2 0;
#X connect 14 1 3 0;
#X connect 15 0 2 0;
#X connect 15 1 3 0;
#X connect 16 0 2 0;
#X connect 16 1 3 0;
#X connect 17 0 2 0;
#X connect 17 1 3 0;
#X connect 18 0 2 0;
#X connect 18 1 3 0;
#X connect 19 0 5 0;
#X connect 19 1 5 1;
#X connect 19 2 5 2;
#X connect 20 0 25 0;
#X connect 21 0 27 0;
#X connect 23 0 28 0;
#X connect 24 0 19 0;
#X connect 24 1 23 0;
#X connect 24 2 20 0;
#X connect 25 0 21 0;
#X connect 25 1 26 0;
#X connect 26 0 23 1;
#X connect 27 0 23 1;
#X connect 28 0 29 0;
#X connect 28 1 26 0;
#X restore 95 322 pd pool;
#X obj 68 366 c_xfade;
#X obj 141 365 c_xfade;
#X obj 253 377 r \$0-wet;
#X obj 441 373 u_dispatch \$0 wet;
#X obj 417 411 u_dispatch \$0 fdback;
#X obj 417 431 u_dispatch \$0 lpfreq;
#X obj 243 202 tgl 40 0 \$0-hold \$0-hold-rcv HOLD 5 7 0 10 -261234
-1 -1 0 1;
#X obj 419 453 u_parameter \$0 hold;
#X obj 398 137 spigot;
#X text 301 216 <- ?;
#X obj 488 75 route note;
#X obj 374 41 spigot;
#X obj 419 483 u_parameter \$0 midiNoteIn;
#X obj 440 8 r \$0-midiNoteIn;
#X obj 114 231 inlet~;
#X obj 22 229 inlet~;
#X obj 54 401 outlet~;
#X obj 141 387 outlet~;
#X obj 515 37 inlet data;
#X obj 515 120 outlet data;
#X obj 101 101 cnv 15 188 68 empty \$0-background fx_resonator 0 7
0 14 -262144 -1 0;
#X obj 420 345 module_loader fx_resonator \$0 \$1;
#X obj 138 115 ui_vsl \$0 lpfreq 100 20000;
#X obj 176 115 ui_vs \$0 wet 0 1;
#X obj 100 115 ui_vs \$0 fdback 0.6 0.99;
#X obj 218 116 bng 15 50 30 0 empty empty midi 17 7 0 10 -262144 -1
-1;
#X obj 214 141 tgl 15 0 \$0-midiNoteIn \$0-midiNoteIn-rcv midiNoteIn
17 7 0 10 -262144 -1 -1 0 1;
#X obj 384 109 unpack f f;
#X obj 534 4 declare -path ../../ressources/core;
#X obj 534 34 declare -path ../../ressources/rj;
#X connect 1 0 0 0;
#X connect 1 1 0 1;
#X connect 1 2 0 2;
#X connect 2 0 17 0;
#X connect 2 1 3 1;
#X connect 3 0 4 0;
#X connect 3 0 33 0;
#X connect 4 0 5 2;
#X connect 5 0 6 1;
#X connect 5 1 7 1;
#X connect 6 0 22 0;
#X connect 7 0 23 0;
#X connect 8 0 7 2;
#X connect 8 0 6 2;
#X connect 9 0 10 0;
#X connect 10 0 11 0;
#X connect 11 0 13 0;
#X connect 13 0 18 0;
#X connect 14 0 31 0;
#X connect 16 0 4 0;
#X connect 16 0 33 0;
#X connect 17 0 3 0;
#X connect 19 0 17 1;
#X connect 20 0 5 1;
#X connect 20 0 7 0;
#X connect 21 0 5 0;
#X connect 21 0 6 0;
#X connect 24 0 16 0;
#X connect 24 0 25 0;
#X connect 24 0 27 0;
#X connect 27 0 9 0;
#X connect 33 0 14 0;
#X connect 33 1 14 1;
#X coords 0 -1 1 1 190 70 1 100 100;
