#N canvas 255 198 645 391 10;
#X obj 340 147 tgl 15 0 empty empty V 4 8 0 12 -4034 -4034 -1 0 1;
#X obj 340 184 tgl 15 0 empty empty X 4 8 0 12 -258113 -258113 -1 0
1;
#X text 360 143 Instances multiples;
#X obj 30 88 adc~;
#X text 36 17 Lecture de l'entrée à l'envers;
#X obj 36 122 fx_reverse;
#X obj 39 206 soundoutput;
#X text 198 216 rev-att : atténuation du signal direct en mode reverse
;
#X text 201 241 time : durée de l alecture en reverse;
#X text 194 260 loop : lecture répétée en mode reverse;
#X obj 140 304 vradio 14 1 0 4 empty empty empty 0 -8 0 10 -262144
-1 -1 1;
#X text 156 302 2;
#X text 156 317 1;
#X text 153 330 0.5;
#X text 153 344 0.25;
#X text 204 311 vitesse de lecture en mode reverse;
#X connect 3 0 5 0;
#X connect 3 1 5 1;
#X connect 5 0 6 0;
#X connect 5 1 6 1;
