#N canvas 0 50 1362 685 10;
#X declare -stdpath extra/rj/;
#X obj 112 340 stereo_outlet~;
#X obj 108 264 stereo_inlet~;
#N canvas 0 50 880 474 audio_stuff 0;
#X obj 198 52 inlet~;
#N canvas 0 50 953 691 guts 0;
#X obj 161 497 +~;
#X obj 520 105 inlet;
#X obj 184 407 *~;
#X obj 486 412 *~;
#X obj 285 412 *~;
#X obj 387 412 *~;
#X obj 443 546 -~;
#X obj 364 545 -~;
#X obj 239 537 +~;
#X obj 161 534 +~;
#X obj 162 444 +~;
#X obj 262 440 +~;
#X obj 464 501 -~;
#X obj 387 499 +~;
#X obj 239 500 -~;
#X obj 452 105 inlet;
#X obj 609 429 line~;
#X obj 509 374 line~;
#X obj 16 121 delread~ \$0-del1 58.6435;
#X obj 94 143 delread~ \$0-del2 69.4325;
#X obj 176 165 delread~ \$0-del3 74.5234;
#X obj 258 189 delread~ \$0-del4 86.1244;
#X obj 530 500 *~;
#X obj 599 501 *~;
#X obj 161 641 delwrite~ \$0-del1 58.6435;
#X obj 240 617 delwrite~ \$0-del2 69.4325;
#X obj 365 595 delwrite~ \$0-del3 74.5234;
#X obj 444 573 delwrite~ \$0-del4 86.1244;
#X obj 609 357 dbtorms;
#X obj 609 403 pack 0 30;
#X obj 520 211 pack 0 50;
#X obj 9 390 inlet~;
#X obj 530 525 outlet~;
#X obj 599 525 outlet~;
#X obj 520 187 / 200;
#X obj 520 162 clip 0 100;
#X obj 52 236 lop~;
#X obj 625 143 f \$3;
#X obj 696 143 f \$4;
#X obj 367 106 loadbang;
#X obj 625 167 moses 1;
#X msg 631 193 3000;
#X obj 705 193 clip 0 100;
#N canvas 345 88 355 597 early-reflect 0;
#X obj 119 477 delread~ \$0-ref6 13.645;
#X obj 119 453 delwrite~ \$0-ref6 13.645;
#X obj 106 400 delread~ \$0-ref5 16.364;
#X obj 106 376 delwrite~ \$0-ref5 16.364;
#X obj 102 324 delread~ \$0-ref4 19.392;
#X obj 102 300 delwrite~ \$0-ref4 19.392;
#X obj 106 247 delread~ \$0-ref3 25.796;
#X obj 106 223 delwrite~ \$0-ref3 25.796;
#X obj 107 169 delread~ \$0-ref2 43.5337;
#X obj 107 145 delwrite~ \$0-ref2 43.5337;
#X obj 110 90 delread~ \$0-ref1 75.2546;
#X obj 84 119 -~;
#X obj 49 119 +~;
#X obj 50 195 +~;
#X obj 85 196 -~;
#X obj 84 275 -~;
#X obj 49 274 +~;
#X obj 82 349 -~;
#X obj 48 350 +~;
#X obj 83 428 -~;
#X obj 49 428 +~;
#X obj 65 7 inlet~;
#X obj 110 66 delwrite~ \$0-ref1 75.2546;
#X obj 49 508 outlet~;
#X obj 119 507 outlet~;
#X connect 0 0 24 0;
#X connect 2 0 20 1;
#X connect 2 0 19 1;
#X connect 4 0 18 1;
#X connect 4 0 17 1;
#X connect 6 0 16 1;
#X connect 6 0 15 1;
#X connect 8 0 13 1;
#X connect 8 0 14 1;
#X connect 10 0 12 1;
#X connect 10 0 11 1;
#X connect 11 0 9 0;
#X connect 12 0 14 0;
#X connect 12 0 13 0;
#X connect 13 0 16 0;
#X connect 13 0 15 0;
#X connect 14 0 7 0;
#X connect 15 0 5 0;
#X connect 16 0 18 0;
#X connect 16 0 17 0;
#X connect 17 0 3 0;
#X connect 18 0 20 0;
#X connect 18 0 19 0;
#X connect 19 0 1 0;
#X connect 20 0 23 0;
#X connect 21 0 12 0;
#X connect 21 0 11 0;
#X connect 21 0 22 0;
#X restore 9 416 pd early-reflect;
#X obj 618 216 f;
#X obj 618 105 inlet;
#X obj 696 109 inlet;
#X obj 705 216 f;
#X obj 705 239 * 0.01;
#X obj 705 263 pack 0 50;
#X obj 705 287 line~;
#X obj 29 269 -~;
#X obj 28 300 *~;
#X obj 16 331 +~;
#X obj 132 240 lop~;
#X obj 106 274 -~;
#X obj 105 309 *~;
#X obj 95 333 +~;
#X obj 214 245 lop~;
#X obj 188 273 -~;
#X obj 187 314 *~;
#X obj 176 339 +~;
#X obj 308 249 lop~;
#X obj 281 274 -~;
#X obj 281 318 *~;
#X obj 258 342 +~;
#X obj 609 379 * 0.125;
#X text 403 10 control inlets:;
#X text 400 29 1: output level \, dB \, 0-100;
#X text 399 79 4: high frequency damping \, 0-100;
#X text 400 62 3: crossover frequency in Hz. (3000 default);
#X text 400 45 2: liveness \, 0-100 \, usually between 85 and 100;
#X obj 452 137 f 80;
#X obj 520 138 f 80;
#X obj 810 370 inlet;
#X obj 804 428 switch~;
#X connect 0 0 9 0;
#X connect 0 0 7 0;
#X connect 1 0 73 0;
#X connect 2 0 10 1;
#X connect 3 0 12 1;
#X connect 3 0 13 1;
#X connect 4 0 11 1;
#X connect 5 0 13 0;
#X connect 5 0 12 0;
#X connect 6 0 27 0;
#X connect 7 0 26 0;
#X connect 8 0 25 0;
#X connect 9 0 24 0;
#X connect 10 0 14 0;
#X connect 10 0 0 0;
#X connect 10 0 22 0;
#X connect 11 0 0 1;
#X connect 11 0 14 1;
#X connect 11 0 23 0;
#X connect 12 0 8 1;
#X connect 12 0 6 1;
#X connect 13 0 9 1;
#X connect 13 0 7 1;
#X connect 14 0 8 0;
#X connect 14 0 6 0;
#X connect 15 0 72 0;
#X connect 16 0 22 1;
#X connect 16 0 23 1;
#X connect 17 0 4 1;
#X connect 17 0 2 1;
#X connect 17 0 5 1;
#X connect 17 0 3 1;
#X connect 18 0 36 0;
#X connect 18 0 51 1;
#X connect 18 0 53 0;
#X connect 19 0 54 0;
#X connect 19 0 55 1;
#X connect 19 0 57 0;
#X connect 20 0 61 0;
#X connect 20 0 58 0;
#X connect 20 0 59 1;
#X connect 21 0 65 0;
#X connect 21 0 63 1;
#X connect 21 0 62 0;
#X connect 22 0 32 0;
#X connect 23 0 33 0;
#X connect 28 0 66 0;
#X connect 29 0 16 0;
#X connect 30 0 17 0;
#X connect 31 0 43 0;
#X connect 34 0 30 0;
#X connect 35 0 34 0;
#X connect 36 0 51 0;
#X connect 37 0 40 0;
#X connect 38 0 42 0;
#X connect 39 0 37 0;
#X connect 39 0 38 0;
#X connect 39 0 72 0;
#X connect 39 0 73 0;
#X connect 40 0 41 0;
#X connect 40 1 44 0;
#X connect 41 0 44 0;
#X connect 42 0 47 0;
#X connect 43 0 10 0;
#X connect 43 1 11 0;
#X connect 44 0 36 1;
#X connect 44 0 54 1;
#X connect 44 0 58 1;
#X connect 44 0 62 1;
#X connect 45 0 44 0;
#X connect 46 0 38 0;
#X connect 47 0 48 0;
#X connect 48 0 49 0;
#X connect 49 0 50 0;
#X connect 50 0 52 1;
#X connect 50 0 56 1;
#X connect 50 0 60 1;
#X connect 50 0 64 1;
#X connect 51 0 52 0;
#X connect 52 0 53 1;
#X connect 53 0 2 0;
#X connect 54 0 55 0;
#X connect 55 0 56 0;
#X connect 56 0 57 1;
#X connect 57 0 4 0;
#X connect 58 0 59 0;
#X connect 59 0 60 0;
#X connect 60 0 61 1;
#X connect 61 0 5 0;
#X connect 62 0 63 0;
#X connect 63 0 64 0;
#X connect 64 0 65 1;
#X connect 65 0 3 0;
#X connect 66 0 29 0;
#X connect 72 0 28 0;
#X connect 73 0 35 0;
#X connect 74 0 75 0;
#X restore 360 174 pd guts;
#X obj 311 291 outlet~;
#X obj 406 291 outlet~;
#X obj 372 79 r \$0-amp;
#X obj 384 99 r \$0-hall;
#X obj 395 120 r \$0-freq;
#X obj 416 139 r \$0-damp;
#X obj 359 48 inlet~;
#X obj 311 264 c_xfade;
#X obj 405 266 c_xfade;
#X obj 451 234 pack 0 10;
#X obj 598 98 r \$0-wet;
#X obj 491 212 *;
#X obj 499 188 t f f;
#X obj 520 36 select 0;
#X obj 520 58 delay 10;
#X msg 515 95 0;
#X connect 0 0 1 0;
#X connect 0 0 9 0;
#X connect 1 0 9 1;
#X connect 1 1 10 1;
#X connect 4 0 1 1;
#X connect 5 0 1 2;
#X connect 6 0 1 3;
#X connect 7 0 1 4;
#X connect 8 0 1 0;
#X connect 8 0 10 0;
#X connect 9 0 2 0;
#X connect 10 0 3 0;
#X connect 11 0 10 2;
#X connect 11 0 9 2;
#X connect 12 0 14 0;
#X connect 12 0 15 0;
#X connect 13 0 11 0;
#X connect 14 0 13 0;
#X connect 14 1 13 1;
#X connect 15 0 16 0;
#X connect 15 1 1 5;
#X connect 16 0 17 0;
#X connect 17 0 1 4;
#X restore 110 298 pd audio_stuff;
#X obj 583 310 loadbang;
#X msg 583 335 freq 0.8 \, mod 1.8;
#N canvas 172 83 586 377 LICENSE-GPL 0;
#X text 57 88 This program is free software: you can redistribute it
and/or modify it under the terms of the GNU General Public License
as published by the Free Software Foundation \, either version 3 of
the License \, or (at your option) any later version.;
#X text 58 168 This program is distributed in the hope that it will
be useful \, but WITHOUT ANY WARRANTY \; without even the implied warranty
of MERCHANTABILITY or FITNESS FOR A PARTICULAR PURPOSE. See the GNU
General Public License for more details.;
#X text 57 261 You should have received a copy of the GNU General Public
License along with this program. If not \, see <http://www.gnu.org/licenses/>.
;
#X text 61 54 Copyright (C) 2009 \, Reality Jockey Ltd.;
#X text 60 325 See the file LICENSE.txt for the full license text.
;
#X restore 298 15 pd LICENSE-GPL;
#X obj 450 294 r \$0-freq;
#X floatatom 450 316 5 0 0 0 - - -, f 5;
#X text 35 69 ui_hsl \$0 name min max;
#X text 51 17 embedded rjdj e_reverb abstraction;
#X text 138 237 This is Millers rev2 \, wrapped for rjlib;
#X obj 249 448 u_dispatch \$0 amp;
#X obj 249 471 u_dispatch \$0 hall;
#X obj 456 480 loadbang;
#X obj 249 493 u_dispatch \$0 freq;
#X obj 249 514 u_dispatch \$0 damp;
#X msg 456 500 amp 80 \, hall 80 \, freq 6000 \, damp 60;
#N canvas 228 198 627 317 LICENSE-BSD 0;
#X text 121 56 This software is copyrighted by Miller Puckette \, Reality
Jockey Ltd. and others. The terms (the "Standard Improved BSD License")
apply to all files associated with the software unless explicitly disclaimed
in individual files.;
#X text 123 148 See the file LICENSE.txt for the full license text.
;
#X restore 563 420 pd LICENSE-BSD;
#X obj 138 115 ui_vsl \$0 freq 20 20000;
#X obj 100 115 ui_vs \$0 amp 60 100;
#X obj 249 537 u_dispatch \$0 wet;
#X obj 176 115 ui_vs \$0 hall 0 100;
#X obj 426 237 switch~;
#X obj 220 102 vsl 70 17 1 0 0 0 \$0-presets \$0-presets-rcv PRESETS
2 5 0 10 -232576 -232576 -1 0 1;
#X obj 214 115 ui_vs \$0 damp 0 100;
#X obj 252 115 ui_vs \$0 wet 0 1;
#X obj 261 396 rack_loader fx_reverb \$1 \$0;
#X obj 159 205 rack_enableV2 200 80 4 8 0 1 fx_reverb \$1 \$0;
#X connect 1 0 2 0;
#X connect 1 1 2 1;
#X connect 2 0 0 0;
#X connect 2 1 0 1;
#X connect 3 0 4 0;
#X connect 4 0 11 0;
#X connect 6 0 7 0;
#X connect 11 0 12 0;
#X connect 12 0 14 0;
#X connect 13 0 16 0;
#X connect 14 0 15 0;
#X connect 15 0 20 0;
#X connect 16 0 11 0;
#X connect 26 0 11 0;
#X connect 27 0 1 0;
#X connect 27 0 0 2;
#X connect 27 1 22 0;
#X connect 27 1 26 0;
#X coords 0 -1 1 1 190 70 1 100 100;
