#N canvas 93 56 678 486 10;
#X declare -path ../../ressources/core;
#X declare -path ../../ressources/rj;
#N canvas 172 83 586 377 LICENSE-GPL 0;
#X text 57 88 This program is free software: you can redistribute it
and/or modify it under the terms of the GNU General Public License
as published by the Free Software Foundation \, either version 3 of
the License \, or (at your option) any later version.;
#X text 58 168 This program is distributed in the hope that it will
be useful \, but WITHOUT ANY WARRANTY \; without even the implied warranty
of MERCHANTABILITY or FITNESS FOR A PARTICULAR PURPOSE. See the GNU
General Public License for more details.;
#X text 57 261 You should have received a copy of the GNU General Public
License along with this program. If not \, see <http://www.gnu.org/licenses/>.
;
#X text 61 54 Copyright (C) 2009 \, Reality Jockey Ltd.;
#X text 60 325 See the file LICENSE.txt for the full license text.
;
#X restore 298 15 pd LICENSE-GPL;
#X text 35 69 ui_hsl \$0 name min max;
#X obj 347 374 u_dispatch \$0 wet;
#X text 51 17 ring modulator abstraction;
#N canvas 0 50 590 548 ring~ 0;
#X obj 75 336 outlet~;
#X obj 64 80 inlet~;
#X obj 201 184 osc~;
#X obj 100 232 *~;
#X obj 273 139 r \$0-freq;
#X obj 134 334 outlet~;
#X obj 123 78 inlet~;
#X obj 159 230 *~;
#X obj 68 286 c_xfade;
#X obj 141 285 c_xfade;
#X floatatom 280 173 5 0 0 0 - - -, f 5;
#X obj 259 260 r \$0-wet;
#X connect 1 0 3 0;
#X connect 1 0 8 0;
#X connect 2 0 3 1;
#X connect 2 0 7 1;
#X connect 3 0 8 1;
#X connect 4 0 2 0;
#X connect 4 0 10 0;
#X connect 6 0 7 0;
#X connect 6 0 9 0;
#X connect 7 0 9 1;
#X connect 8 0 0 0;
#X connect 9 0 5 0;
#X connect 11 0 9 2;
#X connect 11 0 8 2;
#X restore 30 284 pd ring~;
#X obj 347 352 u_dispatch \$0 freq;
#X obj 101 101 cnv 15 188 68 empty \$0-background fx_ring 0 7 0 14
-260818 -1 0;
#X obj 139 115 ui_vs \$0 wet 0 1;
#X obj 101 115 ui_vsl \$0 freq 0.1 3000;
#X obj 220 102 vsl 70 17 1 0 0 0 \$0-presets \$0-presets-rcv PRESETS
2 5 0 10 -232576 -232576 -1 0 1;
#X obj 346 310 module_loader fx_ring \$0 \$1;
#X obj 29 200 inlet~;
#X obj 125 202 inlet~;
#X obj 93 317 outlet~;
#X obj 29 306 outlet~;
#X obj 195 271 inlet data;
#X obj 195 441 outlet data;
#X obj 64 230 hip~ 5;
#X obj 125 224 hip~ 5;
#X obj 534 4 declare -path ../../ressources/core;
#X obj 534 34 declare -path ../../ressources/rj;
#X connect 4 0 14 0;
#X connect 4 1 13 0;
#X connect 5 0 2 0;
#X connect 10 0 5 0;
#X connect 11 0 17 0;
#X connect 12 0 18 0;
#X connect 15 0 16 0;
#X connect 15 0 10 0;
#X connect 17 0 4 0;
#X connect 18 0 4 1;
#X coords 0 -1 1 1 190 70 1 100 100;
