#N canvas 1 73 678 598 10;
#X declare -path ../../ressources/core;
#X declare -path ../../ressources/rj;
#N canvas 172 83 586 377 LICENSE-GPL 0;
#X text 57 88 This program is free software: you can redistribute it
and/or modify it under the terms of the GNU General Public License
as published by the Free Software Foundation \, either version 3 of
the License \, or (at your option) any later version.;
#X text 58 168 This program is distributed in the hope that it will
be useful \, but WITHOUT ANY WARRANTY \; without even the implied warranty
of MERCHANTABILITY or FITNESS FOR A PARTICULAR PURPOSE. See the GNU
General Public License for more details.;
#X text 57 261 You should have received a copy of the GNU General Public
License along with this program. If not \, see <http://www.gnu.org/licenses/>.
;
#X text 61 54 Copyright (C) 2009 \, Reality Jockey Ltd.;
#X text 60 325 See the file LICENSE.txt for the full license text.
;
#X restore 298 15 pd LICENSE-GPL;
#X obj 101 101 cnv 15 188 68 empty \$0-background fx_reverse 0 7 0
14 -262144 -1 0;
#X obj 220 102 vsl 70 17 1 0 0 0 \$0-presets \$0-presets-rcv PRESETS
2 5 0 10 -232576 -232576 -1 0 1;
#X obj 100 135 tgl 35 1 \$0-reverse \$0-reverse-rcv REVERSE 1 7 0 10
-262144 -1 -1 1 1;
#X obj 415 157 module_loader fx_reverse \$0 \$1;
#X obj 255 238 inlet data;
#X obj 34 240 inlet~ audio1;
#X obj 154 239 inlet~ audio2;
#X obj 25 324 outlet~ audio1;
#X obj 135 324 outlet~ audio2;
#X obj 255 260 outlet data;
#N canvas 563 79 671 538 reverse-line~ 0;
#X obj 35 296 line~;
#X msg 66 263 0;
#X obj 135 421 *~;
#X obj 240 312 line~;
#X msg 161 267 \$1 5;
#X obj 214 511 *~;
#X obj 492 171 select 1 0;
#X obj 69 232 delay 10;
#X msg 90 205 stop;
#X msg 424 275 0;
#X msg 429 213 stop;
#X obj 24 378 delread4~ \$0-dell;
#X obj 220 428 -~ 1;
#X obj 221 461 *~ -1;
#X obj 94 293 inlet~;
#X obj 78 561 outlet~;
#X obj 503 372 outlet;
#X obj 496 94 inlet;
#X obj 353 523 *~;
#X obj 482 504 *~;
#X obj 344 303 inlet~;
#X obj 403 565 outlet~;
#X obj 274 388 delread4~ \$0-delr;
#X obj 209 390 *~ 1;
#X obj 525 394 r \$0-rev-att;
#X obj 471 228 delay 9990;
#X obj 263 26 r \$0-time;
#X obj 263 48 t f f;
#X obj 336 128 * 1000;
#X obj 263 182 pack f f;
#X obj 573 214 r \$0-time;
#X obj 573 236 * 1000;
#X obj 573 258 - 10;
#X obj 496 116 t f f;
#X obj 471 270 spigot;
#X obj 494 251 r \$0-loop;
#X msg 570 319 1;
#X msg 263 214 set \$1 \$2;
#X obj 471 292 delay 11;
#X obj 584 344 s \$0-reverse;
#X obj 516 468 s \$0-reverse;
#X msg 524 439 0;
#X obj 42 344 delwrite~ \$0-dell 30000;
#X obj 292 354 delwrite~ \$0-delr 30000;
#X msg 273 244 5160.73 4128.58;
#X msg 329 273 stop;
#X obj 360 33 r \$0-speed;
#X obj 263 100 * 1;
#X obj 263 122 * 1000;
#X obj 263 144 + 1000;
#X obj 360 55 t b f;
#X connect 0 0 11 0;
#X connect 0 0 22 0;
#X connect 1 0 0 0;
#X connect 2 0 15 0;
#X connect 3 0 2 1;
#X connect 3 0 18 1;
#X connect 3 0 23 0;
#X connect 4 0 3 0;
#X connect 5 0 15 0;
#X connect 6 0 44 0;
#X connect 6 0 8 0;
#X connect 6 0 25 0;
#X connect 6 1 7 0;
#X connect 6 1 10 0;
#X connect 7 0 1 0;
#X connect 8 0 7 0;
#X connect 9 0 4 0;
#X connect 10 0 25 0;
#X connect 11 0 2 0;
#X connect 12 0 13 0;
#X connect 13 0 5 1;
#X connect 13 0 19 1;
#X connect 14 0 5 0;
#X connect 14 0 42 0;
#X connect 17 0 33 0;
#X connect 18 0 21 0;
#X connect 19 0 21 0;
#X connect 20 0 19 0;
#X connect 20 0 43 0;
#X connect 22 0 18 0;
#X connect 23 0 12 0;
#X connect 24 0 23 1;
#X connect 25 0 9 0;
#X connect 25 0 34 0;
#X connect 25 0 16 0;
#X connect 25 0 41 0;
#X connect 25 0 45 0;
#X connect 26 0 27 0;
#X connect 27 0 47 0;
#X connect 27 1 28 0;
#X connect 28 0 29 1;
#X connect 28 0 49 1;
#X connect 29 0 37 0;
#X connect 30 0 31 0;
#X connect 31 0 32 0;
#X connect 32 0 25 1;
#X connect 33 0 4 0;
#X connect 33 1 6 0;
#X connect 34 0 38 0;
#X connect 35 0 34 1;
#X connect 36 0 39 0;
#X connect 37 0 44 0;
#X connect 38 0 36 0;
#X connect 41 0 40 0;
#X connect 44 0 0 0;
#X connect 45 0 0 0;
#X connect 46 0 50 0;
#X connect 47 0 48 0;
#X connect 48 0 49 0;
#X connect 49 0 29 0;
#X connect 50 0 47 0;
#X connect 50 1 47 1;
#X restore 65 279 pd reverse-line~;
#X obj 353 365 midi-colors \$0 reverse \$0-reverse-rcv;
#X obj 354 417 s \$0-reverse;
#X obj 210 272 r \$0-reverse;
#X obj 359 395 > 0;
#X obj 426 311 r \$0-reverse;
#X obj 426 333 * 127;
#X obj 214 115 ui_vs \$0 rev-att 0 1;
#X obj 401 190 u_dispatch \$0 rev-att;
#X text 565 189 atténuation du signal direct en mode reverse;
#X obj 432 60 loadbang;
#X obj 135 135 tgl 35 1 \$0-loop \$0-loop-rcv LOOP 2 7 0 10 -262144
-1 -1 1 1;
#X obj 401 212 u_dispatch \$0 time;
#X obj 401 234 u_parameter \$0 loop;
#X obj 401 256 u_parameter \$0 reverse;
#X obj 150 115 bng 15 250 50 0 empty empty empty 17 7 0 10 -262144
-1 -1;
#X obj 252 115 ui_vs \$0 time 0.1 10;
#X obj 401 278 u_dispatch \$0 speed;
#X obj 170 114 vradio 14 1 0 4 empty empty empty 0 -8 0 10 -262144
-1 -1 3;
#X text 186 112 2;
#X text 186 127 1;
#X text 183 140 0.5;
#X text 183 153 0.25;
#X msg 432 82 rev-att 0 \, loop 0 \, time 10 \, speed 1;
#N canvas 0 50 450 300 set_speed 0;
#X obj 46 39 inlet;
#X obj 61 230 outlet;
#X obj 287 35 r \$0-speed;
#X obj 291 57 ftom;
#X obj 291 79 + 36.3763;
#X obj 291 101 / 12;
#X obj 291 123 - 1;
#X obj 291 145 * -1;
#X obj 291 167 + 0.5;
#X obj 291 189 int;
#X msg 291 211 set \$1;
#X obj 64 63 select 0 1 2 3;
#X msg 64 85 2;
#X msg 94 108 1;
#X msg 95 141 0.5;
#X msg 64 124 0.25;
#X obj 98 166 s \$0-speed;
#X connect 0 0 11 0;
#X connect 2 0 3 0;
#X connect 3 0 4 0;
#X connect 4 0 5 0;
#X connect 5 0 6 0;
#X connect 6 0 7 0;
#X connect 7 0 8 0;
#X connect 8 0 9 0;
#X connect 9 0 10 0;
#X connect 10 0 1 0;
#X connect 11 0 12 0;
#X connect 11 1 13 0;
#X connect 11 2 14 0;
#X connect 11 3 15 0;
#X connect 12 0 16 0;
#X connect 13 0 16 0;
#X connect 14 0 16 0;
#X connect 15 0 16 0;
#X restore 239 192 pd set_speed;
#X obj 534 4 declare -path ../../ressources/core;
#X obj 534 34 declare -path ../../ressources/rj;
#X connect 4 0 19 0;
#X connect 5 0 10 0;
#X connect 6 0 11 0;
#X connect 7 0 11 1;
#X connect 11 0 8 0;
#X connect 11 1 9 0;
#X connect 11 2 26 0;
#X connect 12 0 15 0;
#X connect 14 0 11 2;
#X connect 15 0 13 0;
#X connect 16 0 17 0;
#X connect 17 0 12 0;
#X connect 19 0 23 0;
#X connect 21 0 34 0;
#X connect 23 0 24 0;
#X connect 24 0 25 0;
#X connect 25 0 28 0;
#X connect 29 0 35 0;
#X connect 34 0 19 0;
#X connect 35 0 29 0;
#X coords 0 -1 1 1 190 70 1 100 100;
