#N canvas 427 88 853 532 10;
#X declare -path ../../ressources/core;
#X declare -path ../../ressources/rj;
#N canvas 172 83 586 377 LICENSE-GPL 0;
#X text 57 88 This program is free software: you can redistribute it
and/or modify it under the terms of the GNU General Public License
as published by the Free Software Foundation \, either version 3 of
the License \, or (at your option) any later version.;
#X text 58 168 This program is distributed in the hope that it will
be useful \, but WITHOUT ANY WARRANTY \; without even the implied warranty
of MERCHANTABILITY or FITNESS FOR A PARTICULAR PURPOSE. See the GNU
General Public License for more details.;
#X text 57 261 You should have received a copy of the GNU General Public
License along with this program. If not \, see <http://www.gnu.org/licenses/>.
;
#X text 61 54 Copyright (C) 2009 \, Reality Jockey Ltd.;
#X text 60 325 See the file LICENSE.txt for the full license text.
;
#X restore 298 15 pd LICENSE-GPL;
#N canvas 1 56 825 513 sub 0;
#X obj 188 70 inlet~;
#X obj 110 514 outlet~;
#N canvas 527 56 710 620 stuff 0;
#X obj 154 72 inlet~;
#X obj 156 490 outlet~;
#X msg 43 212 0;
#X obj 188 282 mtof;
#N canvas 0 50 450 300 sigmund 0;
#X obj 116 93 inlet~;
#X obj 76 246 outlet;
#X obj 119 176 sigmund~ -hop 256 notes;
#X connect 0 0 2 0;
#X connect 2 0 1 0;
#X restore 198 139 pd sigmund;
#X obj 283 262 - 24;
#X obj 146 452 *~;
#X obj 128 322 dbtorms;
#X obj 147 417 line~;
#X msg 127 386 \$1 15;
#X obj 214 341 osc~;
#X obj 249 297 * 2;
#X obj 251 334 osc~;
#X obj 321 299 s \$0-peak;
#X obj 246 490 outlet~;
#X obj 256 452 *~;
#X obj 403 99 inlet;
#X obj 406 122 switch~;
#X obj 233 243 - 12;
#X obj 284 206 moses 44;
#X obj 84 299 f;
#X obj 44 378 pack f f;
#X obj 44 406 s \$0-noteout;
#X obj 35 275 change;
#X msg 5 252 set 1;
#X obj 38 329 min 100;
#X obj 127 354 * 4;
#X obj 86 223 + 18;
#X obj 194 167 moses 32;
#X obj 29 186 moses 30;
#X floatatom 146 164 5 0 0 0 - - -, f 5;
#X obj 204 211 + 0.5;
#X obj 204 230 int;
#X obj 30 305 bng 15 250 50 0 empty empty empty 17 7 0 10 -262144 -1
-1;
#X floatatom 10 212 5 0 0 0 - - -, f 5;
#X obj 95 112 env~ 64;
#X obj 132 236 t b b f;
#X floatatom 93 146 5 0 0 0 - - -, f 5;
#X connect 0 0 4 0;
#X connect 0 0 35 0;
#X connect 2 0 23 0;
#X connect 3 0 10 0;
#X connect 3 0 11 0;
#X connect 4 0 28 0;
#X connect 4 0 30 0;
#X connect 5 0 3 0;
#X connect 6 0 1 0;
#X connect 7 0 26 0;
#X connect 8 0 6 0;
#X connect 8 0 15 0;
#X connect 9 0 8 0;
#X connect 10 0 6 1;
#X connect 11 0 12 0;
#X connect 12 0 15 1;
#X connect 15 0 14 0;
#X connect 16 0 17 0;
#X connect 18 0 3 0;
#X connect 19 0 18 0;
#X connect 19 1 5 0;
#X connect 20 0 7 0;
#X connect 20 0 25 0;
#X connect 21 0 22 0;
#X connect 23 0 20 0;
#X connect 23 0 33 0;
#X connect 24 0 23 0;
#X connect 25 0 21 0;
#X connect 25 0 7 0;
#X connect 26 0 9 0;
#X connect 27 0 20 1;
#X connect 28 1 31 0;
#X connect 29 0 2 0;
#X connect 29 0 34 0;
#X connect 29 1 27 0;
#X connect 31 0 32 0;
#X connect 32 0 19 0;
#X connect 32 0 36 0;
#X connect 32 0 13 0;
#X connect 35 0 29 0;
#X connect 35 0 37 0;
#X connect 36 0 20 0;
#X connect 36 1 24 0;
#X connect 36 2 21 1;
#X restore 193 332 pd stuff;
#X obj 331 72 inlet~;
#X obj 320 514 outlet~;
#X obj 115 292 *~;
#X obj 176 252 line~;
#X obj 173 204 dbtorms;
#X msg 171 227 \$1 20;
#X obj 173 181 r \$0-direct;
#X obj 375 292 *~;
#X obj 258 384 *~;
#X obj 433 332 line~;
#X obj 435 289 dbtorms;
#X msg 434 309 \$1 20;
#X obj 435 264 r \$0-oct1;
#X obj 443 212 line~;
#X obj 445 169 dbtorms;
#X msg 444 189 \$1 20;
#X obj 445 144 r \$0-oct2;
#X obj 186 388 *~;
#X obj 560 189 r \$0-bypass;
#X obj 560 212 == 0;
#X obj 177 433 tanh~;
#X obj 297 433 tanh~;
#X connect 0 0 2 0;
#X connect 0 0 5 0;
#X connect 2 0 20 0;
#X connect 2 1 11 0;
#X connect 3 0 2 0;
#X connect 3 0 10 0;
#X connect 5 0 23 0;
#X connect 6 0 5 1;
#X connect 6 0 10 1;
#X connect 7 0 8 0;
#X connect 8 0 6 0;
#X connect 9 0 7 0;
#X connect 10 0 24 0;
#X connect 11 0 23 0;
#X connect 11 0 24 0;
#X connect 12 0 11 1;
#X connect 13 0 14 0;
#X connect 14 0 12 0;
#X connect 15 0 13 0;
#X connect 16 0 20 1;
#X connect 17 0 18 0;
#X connect 18 0 16 0;
#X connect 19 0 17 0;
#X connect 20 0 23 0;
#X connect 20 0 24 0;
#X connect 21 0 22 0;
#X connect 22 0 2 1;
#X connect 23 0 1 0;
#X connect 24 0 4 0;
#X restore 79 298 pd sub;
#X obj 321 127 r \$0-peak;
#X obj 347 396 u_dispatch \$0 oct1;
#X obj 347 416 u_dispatch \$0 oct2;
#X obj 347 446 u_dispatch \$0 direct;
#N canvas 0 50 450 300 speed_lim 0;
#X obj 87 20 inlet;
#X obj 87 105 t b b a;
#X obj 83 278 list append;
#X obj 83 307 list trim;
#X msg 129 200 1;
#X msg 57 177 0;
#X obj 83 332 outlet;
#X obj 55 145 delay 100;
#X obj 83 249 metro 100;
#X obj 33 226 change;
#X connect 0 0 1 0;
#X connect 1 0 7 0;
#X connect 1 1 4 0;
#X connect 1 2 2 1;
#X connect 2 0 3 0;
#X connect 3 0 6 0;
#X connect 4 0 9 0;
#X connect 5 0 9 0;
#X connect 7 0 5 0;
#X connect 8 0 2 0;
#X connect 9 0 8 0;
#X restore 323 168 pd speed_lim;
#X obj 347 472 u_parameter \$0 bypass;
#X obj 101 101 cnv 15 188 68 empty \$0-background fx_sub 0 7 0 14 -262144
-1 0;
#X obj 220 102 vsl 70 17 1 0 0 0 \$0-presets \$0-presets-rcv PRESETS
2 7 0 10 -232576 -232576 -1 0 1;
#X obj 100 115 ui_vs \$0 oct1 0 100;
#X obj 174 115 ui_vs \$0 direct 0 100;
#X obj 136 115 ui_vs \$0 oct2 0 100;
#X obj 212 130 tgl 40 1 \$0-bypass \$0-bypass-rcv BYPASS 17 7 0 10
-262144 -1 -1 0 1;
#N canvas 801 170 450 370 midi2notename 0;
#N canvas 473 338 450 300 count 0;
#X obj 131 154 f 0;
#X obj 156 153 + 1;
#X msg 147 133 0;
#X obj 131 183 outlet;
#X obj 131 59 inlet;
#X obj 131 96 b;
#X obj 178 61 inlet;
#X obj 178 98 b;
#X connect 0 0 1 0;
#X connect 0 0 3 0;
#X connect 1 0 0 1;
#X connect 2 0 0 1;
#X connect 4 0 5 0;
#X connect 5 0 0 0;
#X connect 6 0 7 0;
#X connect 7 0 2 0;
#X restore 330 149 pd count;
#X msg 249 99 c \, c# \, d \, d# \, e \, f \, f# \, g \, g# \, a \,
a# \, b;
#X obj 249 124 t a b;
#X obj 249 173 list prepend;
#X msg 173 173 reset;
#X obj 249 74 t b b b;
#X text -2 92 Notes example:;
#X msg 114 174 print;
#X msg 114 149 dump;
#X obj 161 198 m_symbolarray;
#X obj 252 47 loadbang;
#X obj 165 93 mod 12;
#X obj 229 43 bng 15 250 50 0 empty empty empty 17 7 0 10 -262144 -1
-1;
#X obj 166 57 t f f;
#X obj 159 227 list append;
#X obj 166 34 - 24;
#X floatatom 177 145 5 0 0 0 - - -, f 5;
#X obj 188 122 div 12;
#X obj 171 6 t f f;
#X obj 164 251 list append;
#X obj 51 50 inlet;
#X obj 152 315 outlet;
#X msg 150 293 symbol \$1\$2;
#X connect 0 0 3 1;
#X connect 1 0 2 0;
#X connect 2 0 3 0;
#X connect 2 1 0 0;
#X connect 3 0 9 1;
#X connect 4 0 9 0;
#X connect 5 0 1 0;
#X connect 5 1 4 0;
#X connect 5 2 0 1;
#X connect 7 0 9 0;
#X connect 8 0 9 0;
#X connect 9 0 14 0;
#X connect 10 0 5 0;
#X connect 11 0 9 0;
#X connect 12 0 5 0;
#X connect 13 0 11 0;
#X connect 13 1 17 0;
#X connect 14 0 19 0;
#X connect 15 0 13 0;
#X connect 17 0 16 0;
#X connect 17 0 14 1;
#X connect 18 0 15 0;
#X connect 18 1 19 1;
#X connect 19 0 22 0;
#X connect 20 0 18 0;
#X connect 22 0 21 0;
#X restore 327 190 pd midi2notename;
#X symbolatom 183 100 5 0 0 0 - - -, f 5;
#X obj 499 192 r \$0-noteout;
#X msg 506 220 \$2 \$1;
#X obj 504 247 poly 1 1;
#X obj 514 274 pack f f;
#X msg 535 307 note \$1 \$2;
#X obj 586 403 select 1;
#X obj 577 446 f;
#X obj 614 463 == 0;
#X obj 587 382 > 0;
#X obj 584 347 midi-colors \$0 bypass \$0-bypass-rcv;
#X obj 652 414 r \$0-bypass;
#X obj 593 489 s \$0-bypass;
#X obj 252 115 ui_vs \$0 wet 0 1;
#X obj 347 494 u_dispatch \$0 wet;
#X obj 68 426 c_xfade;
#X obj 141 425 c_xfade;
#X obj 239 350 r \$0-wet;
#X obj 59 462 hip~ 20;
#X obj 149 462 hip~ 20;
#X obj 347 310 module_loader fx_sub \$0 \$1;
#X obj 128 226 inlet~;
#X obj 28 200 inlet~;
#X obj 65 500 outlet~;
#X obj 149 484 outlet~;
#X obj 199 268 inlet data;
#X obj 199 290 outlet data;
#X msg 239 372 \$1 10;
#X obj 534 4 declare -path ../../ressources/core;
#X obj 534 34 declare -path ../../ressources/rj;
#X connect 1 0 30 1;
#X connect 1 1 31 1;
#X connect 2 0 6 0;
#X connect 3 0 4 0;
#X connect 4 0 5 0;
#X connect 5 0 7 0;
#X connect 6 0 14 0;
#X connect 7 0 29 0;
#X connect 14 0 15 0;
#X connect 16 0 17 0;
#X connect 17 0 18 0;
#X connect 18 1 19 0;
#X connect 18 2 19 1;
#X connect 19 0 20 0;
#X connect 20 0 41 0;
#X connect 21 0 22 0;
#X connect 22 0 23 0;
#X connect 23 0 27 0;
#X connect 24 0 21 0;
#X connect 25 0 24 0;
#X connect 26 0 22 1;
#X connect 30 0 33 0;
#X connect 31 0 34 0;
#X connect 32 0 42 0;
#X connect 33 0 38 0;
#X connect 34 0 39 0;
#X connect 35 0 3 0;
#X connect 36 0 1 1;
#X connect 36 0 31 0;
#X connect 37 0 1 0;
#X connect 37 0 30 0;
#X connect 40 0 41 0;
#X connect 40 0 35 0;
#X connect 42 0 31 2;
#X connect 42 0 30 2;
#X coords 0 -1 1 1 190 70 1 100 100;
