#N canvas 448 85 894 552 10;
#X declare -path ../core;
#X declare -path ../rj;
#X obj 346 63 declare -path ../core;
#X obj 346 93 declare -path ../rj;
#X text 342 388 Instances multiples;
#X obj 320 389 tgl 15 0 empty empty V 4 8 0 12 -4034 -4034 -1 0 1;
#X obj 26 173 inst_headrush;
#X text 13 21 Emulateur de pédale sampleur Akai Headrush (fonction
sampleur uniquement), f 43;
#X text 63 285 TO DO : synchronisation paramétrable \, etc... \, lecture
à vitesse variable;
#X coords 0 552 1 551 190 70 0;
