#N canvas 462 56 981 595 10;
#X declare -path ../../ressources/core;
#X declare -path ../../ressources/rj;
#X obj 152 240 route note;
#X obj 32 163 notein 1;
#X obj 63 213 pack f f;
#X obj 52 187 spigot;
#X obj 77 58 r \$0-midiNoteIn;
#X obj 317 127 s \$0-freq1;
#X obj 396 134 s \$0-freq2;
#X obj 562 134 s \$0-square;
#X obj 623 262 u_parameter \$0 lowpass;
#X obj 623 282 u_parameter \$0 noize;
#X obj 469 137 s \$0-curve;
#X obj 638 133 s \$0-noize;
#N canvas 108 117 850 725 bassdrum 0;
#X obj 481 385 vline~;
#X obj 418 514 *~;
#X obj 351 345 *~;
#X msg 332 213 1.4 \, 0 \$1;
#X obj 351 370 +~;
#X obj 318 56 delay 5;
#X msg 482 360 0 5 \, 1 3 5 \, 0 \$1 8;
#X obj 552 265 switch~;
#X msg 439 317 0.25;
#X msg 530 217 1;
#X obj 566 191 delay;
#X msg 562 217 0;
#X obj 193 539 *~;
#X obj 216 487 vline~;
#X obj 399 564 +~;
#X obj 404 591 hip~ 10;
#X text 590 6 decay;
#X text 143 263 noiz;
#X obj 493 704 outlet~;
#X obj 404 633 lop~ 1000;
#X obj 330 233 vline~;
#X obj 604 511 r \$0-gain;
#X obj 587 22 r \$0-decay;
#X obj 595 104 + 10;
#X msg 530 116 stop;
#X obj 527 451 r \$0-lowpass;
#X obj 196 411 tabplay~ \$0-bassnoise;
#X obj 151 314 pow 4;
#X msg 211 457 0 1;
#X obj 373 9 inlet;
#X obj 494 683 tanh~;
#X obj 328 253 expr~ pow($v1 \, 5);
#X obj 357 395 osc~;
#X obj 357 420 *~ 1;
#X obj 356 446 tanh~;
#X obj 679 232 r \$0-square;
#X obj 662 359 + 1;
#X obj 72 147 r \$0-freq1;
#X obj 435 157 r \$0-freq2;
#X obj 190 52 r \$0-curve;
#X obj 142 278 r \$0-noize;
#X obj 511 55 *;
#X obj 318 78 f;
#X obj 337 136 *;
#X obj 414 185 *;
#X obj 316 103 t f f b f;
#X obj 148 441 *;
#X obj 136 378 t b f b;
#X obj 657 284 *;
#X obj 376 30 t b f b f f;
#X obj 492 661 *~;
#X obj 590 551 *;
#X obj 509 544 *;
#X connect 0 0 1 1;
#X connect 1 0 14 1;
#X connect 2 0 4 0;
#X connect 3 0 20 0;
#X connect 4 0 32 0;
#X connect 5 0 42 0;
#X connect 6 0 0 0;
#X connect 8 0 32 1;
#X connect 9 0 7 0;
#X connect 10 0 11 0;
#X connect 11 0 7 0;
#X connect 12 0 14 0;
#X connect 13 0 12 1;
#X connect 14 0 15 0;
#X connect 15 0 19 0;
#X connect 19 0 50 0;
#X connect 20 0 31 0;
#X connect 21 0 51 1;
#X connect 22 0 41 1;
#X connect 23 0 10 1;
#X connect 24 0 10 0;
#X connect 25 0 52 1;
#X connect 26 0 12 0;
#X connect 27 0 46 1;
#X connect 28 0 13 0;
#X connect 29 0 49 0;
#X connect 30 0 18 0;
#X connect 31 0 2 0;
#X connect 32 0 33 0;
#X connect 33 0 34 0;
#X connect 34 0 1 0;
#X connect 35 0 48 1;
#X connect 36 0 33 1;
#X connect 37 0 4 1;
#X connect 38 0 44 1;
#X connect 39 0 43 1;
#X connect 40 0 27 0;
#X connect 41 0 6 0;
#X connect 41 0 23 0;
#X connect 42 0 45 0;
#X connect 43 0 3 0;
#X connect 44 0 2 1;
#X connect 45 0 47 0;
#X connect 45 1 43 0;
#X connect 45 2 8 0;
#X connect 45 3 44 0;
#X connect 46 0 13 0;
#X connect 47 0 28 0;
#X connect 47 1 46 0;
#X connect 47 2 26 0;
#X connect 48 0 36 0;
#X connect 49 0 10 0;
#X connect 49 0 5 0;
#X connect 49 1 42 1;
#X connect 49 2 9 0;
#X connect 49 2 24 0;
#X connect 49 3 41 0;
#X connect 49 4 48 0;
#X connect 49 4 51 0;
#X connect 49 4 52 0;
#X connect 50 0 30 0;
#X connect 51 0 50 1;
#X connect 52 0 19 1;
#X restore 64 566 pd bassdrum;
#N canvas 0 50 650 490 bd-makenoise 0;
#X msg 30 27 0 \, 0.582156 \, 0.967879 \, 0.967879 \, -0.846448 \,
0.939307 \, 0.896449 \, -0.890497 \, -0.814304 \, -0.900021 \, -0.928593
\, 0.157146 \, 0.642872 \, 0.214291 \, 0.100002 \, -0.014286 \, -0.100002
\, 0.014286 \, 0.128574 \, 0.242863 \, -0.014286 \, -0.771446 \, -0.75716
\, -0.0441568 \, -0.0961061 \, -0.148055 \, -0.200005 \, -0.257149
\, 0.857162 \, 0.914307 \, 1.01431 \, -0.278578 \, -0.214291 \, -0.150003
\, -0.0857162 \, 0 \, 0.0857162 \, 0.171432 \, 0.257149 \, 0.292864
\, 0.328579 \, -0.985737 \, -0.776208 \, -0.557156 \, -0.0714302 \,
0.0714302 \, 0.214291 \, -0.0714302 \, -0.957165 \, -0.714302 \, -0.600014
\, -0.557156 \, -0.292864 \, -0.114288 \, 0.0285721 \, 0.200005 \,
0.428581 \, 0.500011 \, 0.971451 \, 0.942879 \, 0.82859 \, 0.68573
\, 0.442867 \, -0.171432 \, -0.895259 \, -1.09526 \, -1.03812 \, -0.695254
\, -0.0428581 \, -0.185719 \, -0.328579 \, -0.471439 \, 0.014286 \,
0.128574 \, 0.100002 \, 0.559537 \, 0.688111 \, 1.05955 \, 1.08812
\, -0.673825 \, -0.82859 \, -0.357151 \, -0.0214291 \, -0.14286 \,
-0.128574 \, 0.0809542 \, 0.290483 \, 0.500011 \, 0.742874 \, 0.557156
\, 0.371437 \, -0.214291 \, -0.290483 \, -0.366675 \, -0.442867 \,
-0.400009 \, -0.414295 \, -0.442867 \, -0.54287 \, -0.628586 \,;
#X obj 30 300 t b f;
#X obj 31 323 f;
#X obj 59 322 + 1;
#X obj 31 347 pack 0 0;
#X obj 31 369 s \$0-bassnoise;
#X obj 220 331 table \$0-bassnoise 100;
#X msg 96 306 0;
#X obj 29 2 loadbang;
#X connect 0 0 1 0;
#X connect 1 0 2 0;
#X connect 1 1 4 1;
#X connect 2 0 3 0;
#X connect 2 0 4 0;
#X connect 3 0 2 1;
#X connect 4 0 5 0;
#X connect 7 0 2 1;
#X connect 8 0 0 0;
#X restore 200 268 pd bd-makenoise;
#X obj 623 302 u_parameter \$0 curve;
#X obj 623 342 u_parameter \$0 noize;
#X obj 623 322 u_parameter \$0 square;
#X obj 59 295 poly 1 1;
#X obj 58 318 pack f f f;
#X obj 58 340 route 1;
#X obj 54 382 unpack f f;
#X obj 54 420 spigot;
#X obj 99 495 dbtorms;
#X obj 114 426 / 127;
#X obj 116 471 + 80;
#X obj 63 534 f;
#X obj 39 443 - 12;
#X obj 39 465 mtof;
#X obj 39 486 t b f;
#X obj 67 517 s \$0-freq1;
#X obj 623 364 u_dispatch \$0 freq2;
#X obj 623 386 u_dispatch \$0 decay;
#X obj 623 408 u_dispatch \$0 gain;
#X floatatom 136 401 5 0 0 0 - - -, f 5;
#X obj 114 448 * 22;
#X obj 624 459 s \$0-square;
#X obj 624 437 midi-colors \$0 square \$0-square-rcv 0.001 1000 log
;
#X obj 573 525 s \$0-curve;
#X obj 573 503 midi-colors \$0 curve \$0-curve-rcv 1 100 log;
#X obj 374 479 midi-colors \$0 noize \$0-noize-rcv 0 1 lin;
#X obj 374 501 s \$0-noize;
#X obj 543 543 midi-colors \$0 lowpass \$0-lowpass-rcv 100 10000 log
;
#X obj 543 565 s \$0-lowpass;
#N canvas 0 50 450 300 etude_morphing 0;
#X obj 125 100 hsl 128 30 0 1 0 0 MORPH MORPH-rcv A<--------->B 10
15 0 14 -262144 -1 -1 0 1;
#X obj 101 109 bng 20 250 50 0 MORPH-setA empty A 4 10 0 10 -262144
-1 -1;
#X obj 256 108 bng 20 250 50 0 MORPH-setB empty B 4 10 0 10 -262144
-1 -1;
#X msg 159 165 set \$1;
#X obj 157 196 s MORPH-rcv;
#X connect 0 0 3 0;
#X connect 3 0 4 0;
#X coords 0 -1 1 1 180 30 1 100 100;
#X restore 252 22 pd etude_morphing;
#X obj 101 101 cnv 15 188 68 empty \$0-background inst_bassdrum 0 7
0 14 -262144 -1 0;
#X obj 236 100 tgl 15 0 \$0-midiNoteIn \$0-midiNoteIn-rcv midiNoteIn
-50 7 0 10 -262144 -1 -1 0 1;
#X obj 100 114 ui_vsl \$0 freq2 1 1000;
#X obj 138 114 ui_vsl \$0 decay 10 2000;
#X obj 252 114 ui_vsl \$0 gain 0.1 10;
#X obj 233 118 vsl 19 48 100 10000 1 0 \$0-lowpass \$0-lowpass-rcv
lp 0 10 0 10 -262144 -1 -1 0 1;
#X obj 214 118 vsl 19 48 0 1 0 0 \$0-noize \$0-noize-rcv nz 0 10 0
10 -262144 -1 -1 0 1;
#X obj 195 118 vsl 19 48 1 100 1 0 \$0-curve \$0-curve-rcv cu 0 10
0 10 -262144 -1 -1 0 1;
#X obj 176 118 vsl 19 48 0.01 1000 1 0 \$0-square \$0-square-rcv sq
0 10 0 10 -262144 -1 -1 0 1;
#X obj 622 241 module_loader inst_bassdrum \$0 \$1;
#X obj 167 321 inlet~;
#X obj 166 405 outlet~;
#X obj 256 335 inlet~;
#X obj 267 407 outlet~;
#X obj 377 203 inlet data;
#X obj 379 229 outlet data;
#X obj 534 4 declare -path ../../ressources/core;
#X obj 534 34 declare -path ../../ressources/rj;
#X connect 0 0 17 0;
#X connect 1 0 3 0;
#X connect 1 1 2 1;
#X connect 2 0 17 0;
#X connect 3 0 2 0;
#X connect 4 0 3 1;
#X connect 8 0 9 0;
#X connect 9 0 14 0;
#X connect 12 0 55 0;
#X connect 12 0 57 0;
#X connect 14 0 16 0;
#X connect 15 0 30 0;
#X connect 16 0 15 0;
#X connect 17 0 18 0;
#X connect 17 1 18 1;
#X connect 17 2 18 2;
#X connect 18 0 19 0;
#X connect 19 0 20 0;
#X connect 20 0 21 0;
#X connect 20 1 21 1;
#X connect 20 1 23 0;
#X connect 20 1 33 0;
#X connect 21 0 26 0;
#X connect 22 0 25 1;
#X connect 23 0 34 0;
#X connect 24 0 22 0;
#X connect 25 0 12 0;
#X connect 26 0 27 0;
#X connect 27 0 28 0;
#X connect 28 0 25 0;
#X connect 28 1 29 0;
#X connect 30 0 31 0;
#X connect 31 0 32 0;
#X connect 34 0 24 0;
#X connect 36 0 35 0;
#X connect 38 0 37 0;
#X connect 39 0 40 0;
#X connect 41 0 42 0;
#X connect 53 0 8 0;
#X connect 54 0 55 0;
#X connect 56 0 57 0;
#X connect 58 0 0 0;
#X connect 58 0 59 0;
#X connect 58 0 53 0;
#X coords 0 -1 1 1 190 70 1 100 100;
