#N canvas 203 56 981 595 10;
#X declare -path ../../ressources/core;
#X declare -path ../../ressources/rj;
#N canvas 45 50 1063 709 loop_controls 0;
#X obj 60 12 inlet;
#X obj 205 160 f;
#X obj 205 127 t b;
#X obj 207 186 select 0 1 2 3 4;
#X text 488 268 0=empty;
#X text 491 285 1=stop;
#X text 491 301 2=play;
#X text 492 317 3=rec;
#X text 494 330 4=overdub;
#X msg 225 233 1;
#X msg 269 232 2;
#X obj 357 159 f;
#X obj 357 126 t b;
#X obj 359 185 select 0 1 2 3 4;
#X msg 358 229 3;
#X msg 406 229 4;
#X obj 382 309 f;
#X obj 467 271 vradio 15 1 0 8 empty empty empty 0 -6 0 8 -262144 -1
-1 0;
#X msg 472 68 dubstart;
#X msg 13 55 dubstop;
#X msg 18 170 playstart;
#X msg 17 133 playstop;
#X msg 471 102 dubflush \, dubstart;
#X msg 352 88 0;
#X msg 28 419 playstop \, recstop \, dubstop \, dubflush;
#X msg 13 98 recstop \, playresume;
#X obj 236 576 s \$0-recstart;
#X obj 361 573 s \$0-dubstart;
#X obj 478 577 s \$0-recstop;
#X obj 528 618 s \$0-dubstop;
#X obj 573 597 s \$0-playstart;
#X obj 686 584 s \$0-playstop;
#X obj 799 630 s \$0-playresume;
#X obj 491 484 symbol;
#X obj 606 487 outlet;
#X obj 344 530 select recstart dubstart recstop dubstop playstart playstop
playresume dubflush;
#X obj 813 586 s \$0-dubflush;
#X msg 470 35 recstart;
#X obj 123 25 symbol;
#X obj 643 223 t b;
#X obj 736 221 t b;
#X msg 655 266 play;
#X msg 759 263 rec;
#X obj 636 36 bng 15 250 50 0 empty empty empty 0 -6 0 8 -262144 -1
-1;
#N canvas 0 50 462 312 reset-loopmemory 0;
#X obj 88 93 symbol \$0-headrushloop1;
#X msg 132 149 \; \$1 const 0;
#X obj 29 29 inlet;
#X connect 0 0 1 0;
#X connect 2 0 0 0;
#X restore 636 60 pd reset-loopmemory;
#X obj 617 350 select 2;
#X msg 628 402 1;
#X msg 733 408 0;
#X obj 693 462 spigot;
#X obj 821 102 r \$0-snd-synchro;
#X obj 804 447 s \$0-resynchro;
#X obj 625 306 select \$0;
#X text 754 327 anti overload;
#X obj 144 54 select play rec init flushdub;
#X obj 321 14 route synchro;
#X obj 625 149 r \$0-led-play;
#X obj 744 146 r \$0-led-rec;
#X obj 635 179 r \$0-play-remote;
#X obj 754 176 r \$0-rec-remote;
#X connect 0 0 54 0;
#X connect 1 0 3 0;
#X connect 2 0 1 0;
#X connect 3 1 10 0;
#X connect 3 1 20 0;
#X connect 3 2 9 0;
#X connect 3 2 21 0;
#X connect 3 3 10 0;
#X connect 3 3 25 0;
#X connect 3 4 10 0;
#X connect 3 4 19 0;
#X connect 9 0 16 0;
#X connect 10 0 16 0;
#X connect 11 0 13 0;
#X connect 12 0 11 0;
#X connect 13 0 14 0;
#X connect 13 0 37 0;
#X connect 13 1 14 0;
#X connect 13 1 37 0;
#X connect 13 2 15 0;
#X connect 13 2 18 0;
#X connect 13 3 14 0;
#X connect 13 3 37 0;
#X connect 13 4 15 0;
#X connect 13 4 22 0;
#X connect 14 0 16 0;
#X connect 15 0 16 0;
#X connect 16 0 1 1;
#X connect 16 0 17 0;
#X connect 16 0 11 1;
#X connect 16 0 45 0;
#X connect 18 0 33 0;
#X connect 19 0 33 0;
#X connect 20 0 33 0;
#X connect 21 0 33 0;
#X connect 22 0 33 0;
#X connect 23 0 16 0;
#X connect 24 0 33 0;
#X connect 25 0 33 0;
#X connect 33 0 34 0;
#X connect 33 0 35 0;
#X connect 35 0 26 0;
#X connect 35 1 27 0;
#X connect 35 2 28 0;
#X connect 35 3 29 0;
#X connect 35 4 30 0;
#X connect 35 5 31 0;
#X connect 35 6 32 0;
#X connect 35 7 36 0;
#X connect 37 0 33 0;
#X connect 38 0 53 0;
#X connect 39 0 41 0;
#X connect 40 0 42 0;
#X connect 41 0 38 0;
#X connect 42 0 38 0;
#X connect 43 0 44 0;
#X connect 45 0 46 0;
#X connect 45 1 47 0;
#X connect 46 0 48 1;
#X connect 47 0 48 1;
#X connect 48 0 50 0;
#X connect 49 0 48 0;
#X connect 51 1 48 0;
#X connect 53 0 2 0;
#X connect 53 1 12 0;
#X connect 53 2 23 0;
#X connect 53 2 24 0;
#X connect 53 3 44 0;
#X connect 54 0 51 0;
#X connect 54 1 38 0;
#X connect 55 0 39 0;
#X connect 56 0 40 0;
#X connect 57 0 39 0;
#X connect 58 0 40 0;
#X restore 341 344 pd loop_controls;
#X msg 343 311 init;
#X obj 336 269 loadbang;
#X msg 471 271 play;
#X msg 427 273 rec;
#X obj 665 463 midi-colors \$0 led-play \$0-led-play-rcv;
#X obj 664 531 midi-colors \$0 led-rec \$0-led-rec-rcv;
#X obj 665 484 select 0;
#X obj 664 551 select 0;
#X obj 423 185 r CLOCK;
#X obj 431 245 select 0 96;
#X obj 428 218 spigot;
#N canvas 506 50 1011 683 gui-leds 0;
#X obj 185 9 inlet;
#X obj 278 14 symbol;
#X obj 44 43 select recstart dubstart recstop dubstop playstart playstop
playresume;
#X obj 95 235 s \$0-led-rec-rcv;
#X obj 299 157 s \$0-led-play-rcv;
#X msg 112 123 color 20 20 20;
#X msg 71 172 color 13 13 13;
#X msg 350 127 color 20 20 20;
#X msg 297 95 color 16 16 16;
#X obj 318 305 outlet play;
#X obj 108 305 outlet rec;
#X msg 62 269 127;
#X msg 130 269 0;
#X msg 312 269 127;
#X msg 380 269 0;
#X connect 0 0 1 0;
#X connect 1 0 2 0;
#X connect 2 0 6 0;
#X connect 2 1 6 0;
#X connect 2 2 5 0;
#X connect 2 3 5 0;
#X connect 2 4 8 0;
#X connect 2 5 7 0;
#X connect 2 6 8 0;
#X connect 5 0 3 0;
#X connect 5 0 12 0;
#X connect 6 0 3 0;
#X connect 6 0 11 0;
#X connect 7 0 4 0;
#X connect 7 0 14 0;
#X connect 8 0 4 0;
#X connect 8 0 13 0;
#X connect 11 0 10 0;
#X connect 12 0 10 0;
#X connect 13 0 9 0;
#X connect 14 0 9 0;
#X coords 0 683 1 682 100 25 0;
#X restore 341 367 pd gui-leds;
#N canvas 0 50 993 620 audio-stuff 0;
#X obj 374 416 tabwrite~ \$0-headrush;
#X msg 386 386 stop;
#X obj 77 373 timer;
#N canvas 0 50 889 368 tables 0;
#X obj 25 25 table \$0-headrush 4.41e+06;
#X obj 25 56 table \$0-headrushloop1 4.41e+06;
#X restore 692 28 pd tables;
#X obj 102 294 r \$0-recstart;
#X obj 160 337 r \$0-recstop;
#X obj 339 262 r \$0-recstart;
#X obj 391 297 r \$0-recstop;
#X obj 471 334 +;
#X obj 499 305 t b f;
#X obj 389 357 delay 46;
#X obj 574 249 r \$0-crossfade_time;
#X obj 458 254 r \$0-latence;
#X obj 75 459 s \$0-period;
#N canvas 0 50 494 257 store 0;
#X obj 33 35 inlet;
#X obj 52 143 outlet;
#X floatatom 124 57 7 0 0 0 - - -, f 7;
#X obj 98 98 f;
#X msg 144 99 set \$1;
#X obj 88 57 bng 15 250 50 0 empty empty Recall 0 -6 0 8 -262144 -1
-1;
#X connect 0 0 3 0;
#X connect 2 0 1 0;
#X connect 3 0 4 0;
#X connect 3 0 1 0;
#X connect 4 0 2 0;
#X connect 5 0 3 0;
#X coords 0 0 4.60803e-06 3.69603e-05 200 40 0;
#X restore 75 405 pd store period;
#X text 173 112 rec/overdub;
#X text 82 112 play/stop;
#X text 173 130 double click=flush;
#X obj 17 101 inlet~;
#X obj 518 659 outlet;
#N canvas 0 50 354 312 latence 0;
#X floatatom 43 228 5 0 0 1 crossfade_time(ms) - -, f 5;
#X floatatom 42 169 5 0 0 1 latence(msec) - -, f 5;
#X obj 86 93 loadbang;
#X msg 60 136 30;
#X msg 94 137 16;
#X obj 42 257 s \$0-crossfade_time;
#X obj 86 190 s \$0-latence;
#X text 47 27 latence & crossfade time adjust;
#X obj 238 106 r LATENCY;
#X obj 238 128 / 2;
#X connect 0 0 5 0;
#X connect 1 0 6 0;
#X connect 2 0 3 0;
#X connect 2 0 4 0;
#X connect 3 0 1 0;
#X connect 4 0 0 0;
#X connect 8 0 9 0;
#X connect 9 0 6 0;
#X restore 635 79 pd latence & crossfade time adjust;
#X obj 42 493 *~ 0.6;
#X obj 849 401 r \$0-playstart;
#X obj 723 525 r \$0-period;
#X obj 837 461 loadbang;
#X msg 843 497 0;
#N canvas 187 50 867 622 get_tableIds+Period 0;
#X obj 214 159 symbol \$0-headrushloop1;
#X obj 236 17 inlet;
#X obj 123 331 outlet;
#X obj 20 116 symbol \$0-headrush;
#X obj 176 67 t b f b f;
#X obj 68 195 pack s f;
#X obj 267 228 pack s f;
#X msg 45 260 table_id1 \$1 \$2;
#X msg 256 265 table_id2 \$1 \$2;
#X connect 0 0 6 0;
#X connect 1 0 4 0;
#X connect 3 0 5 0;
#X connect 4 0 3 0;
#X connect 4 1 5 1;
#X connect 4 2 0 0;
#X connect 4 3 6 1;
#X connect 5 0 7 0;
#X connect 6 0 8 0;
#X connect 7 0 2 0;
#X connect 8 0 2 0;
#X restore 733 572 pd get_tableIds+Period;
#X msg 523 599 synchro \$1;
#X obj 642 564 f \$0;
#X obj 650 534 t b;
#X obj 723 323 r \$0-snd-synchro;
#X obj 308 629 outlet~;
#X obj 389 627 outlet~;
#X obj 562 187 s \$0-crossfade_time;
#X obj 16 531 inst_headrush/dubrecorder \$0 \$0-headrushloop1;
#X obj 383 516 inst_headrush/dubplayer \$0 \$0-headrushloop1;
#X obj 232 584;
#X obj 361 448 inst_headrush/loopplayer \$0 \$0-headrush;
#X connect 1 0 0 0;
#X connect 2 0 14 0;
#X connect 4 0 2 0;
#X connect 5 0 2 1;
#X connect 6 0 0 0;
#X connect 7 0 10 0;
#X connect 8 0 10 1;
#X connect 9 0 8 0;
#X connect 9 1 8 1;
#X connect 10 0 1 0;
#X connect 11 0 9 0;
#X connect 12 0 8 0;
#X connect 14 0 13 0;
#X connect 18 0 0 0;
#X connect 18 0 21 0;
#X connect 21 0 34 0;
#X connect 22 0 29 0;
#X connect 23 0 26 0;
#X connect 24 0 25 0;
#X connect 25 0 26 0;
#X connect 26 0 19 0;
#X connect 27 0 19 0;
#X connect 28 0 27 0;
#X connect 29 0 28 0;
#X connect 30 0 29 0;
#X connect 35 0 32 0;
#X connect 37 0 31 0;
#X connect 37 1 27 0;
#X restore 134 261 pd audio-stuff;
#X obj 685 364 u_dispatch \$0 wet;
#X obj 685 386 u_dispatch \$0 vol;
#N canvas 0 50 494 446 vol 0;
#X obj -3 -16 inlet~;
#X obj 79 335 outlet~;
#X obj 82 14 dbtorms;
#X text 159 13 Vol (0-127);
#X obj 80 98 line~;
#X obj 34 139 *~;
#X msg 80 66 \$1 20;
#X obj 184 -12 r \$0-vol;
#X obj 297 -16 inlet~;
#X obj 379 335 outlet~;
#X obj 154 139 *~;
#X connect 0 0 5 0;
#X connect 2 0 6 0;
#X connect 4 0 5 1;
#X connect 4 0 10 1;
#X connect 5 0 1 0;
#X connect 6 0 4 0;
#X connect 7 0 2 0;
#X connect 8 0 10 0;
#X connect 10 0 9 0;
#X restore 138 319 pd vol;
#N canvas 0 50 450 300 stereo_reduce 0;
#X obj 89 47 inlet~;
#X obj 100 145 outlet~;
#X obj 229 47 inlet~;
#X obj 240 145 outlet~;
#X obj 60 98 *~ 0.5;
#X obj 150 88 *~ 0.5;
#X connect 0 0 1 0;
#X connect 0 0 4 0;
#X connect 2 0 3 0;
#X connect 2 0 5 0;
#X connect 4 0 3 0;
#X connect 5 0 1 0;
#X restore 135 286 pd stereo_reduce;
#X obj 68 426 c_xfade;
#X obj 141 425 c_xfade;
#X obj 259 400 r \$0-wet;
#X msg 669 429 127;
#X msg 575 523 127;
#X msg 560 485 0;
#X msg 728 428 0;
#X obj 585 160 r \$0-synchro;
#X obj 589 373 f;
#X obj 516 417 f;
#X obj 589 395 - 127;
#X obj 589 417 * -1;
#X obj 585 182 t b b;
#X obj 585 204 delay 50;
#X obj 35 202 inlet~;
#X obj 157 206 inlet~;
#X obj 69 461 outlet~;
#X obj 141 447 outlet~;
#X obj 320 76 inlet data;
#X obj 320 98 outlet data;
#X obj 669 510 bng 15 250 50 0 empty empty empty 17 7 0 10 -262144
-1 -1;
#X obj 760 490 t b;
#X obj 727 574 t b;
#X obj 101 101 cnv 15 188 68 empty \$0-background inst_headrush 0 7
0 12 -260818 -1 0;
#X obj 133 140 bng 30 50 30 0 \$0-snd-synchro empty empty 0 -6 0 8
-241291 -1 -1;
#X obj 133 140 bng 30 50 30 0 empty \$0-synchro SYNC 0 -6 0 8 -241291
-1 -1;
#X obj 165 140 tgl 30 0 \$0-led-rec \$0-led-rec-rcv empty 17 7 0 10
-195568 -195568 -195568 0 1;
#X obj 101 140 tgl 30 0 \$0-led-play \$0-led-play-rcv empty 17 7 0
10 -195568 -195568 -195568 0 1;
#X text 101 140 play;
#X text 101 154 stop;
#X text 169 140 rec;
#X text 169 154 dub;
#X obj 111 117 tgl 15 0 empty empty sync2mes 17 7 0 10 -262144 -1 -1
0 1;
#X obj 214 114 ui_vs \$0 vol 0 127;
#X obj 252 114 ui_vs \$0 wet 0 1;
#X text 217 100 dub out, f 4;
#X obj 687 238 module_loader inst_headrush \$0 \$1;
#X obj 531 452 f;
#X obj 332 414 f;
#X obj 764 4 declare -path ../../ressources/core;
#X obj 764 34 declare -path ../../ressources/rj;
#X connect 0 0 12 0;
#X connect 1 0 0 0;
#X connect 2 0 1 0;
#X connect 3 0 0 0;
#X connect 4 0 0 0;
#X connect 5 0 7 0;
#X connect 6 0 8 0;
#X connect 7 0 38 0;
#X connect 7 0 55 0;
#X connect 7 1 39 0;
#X connect 8 0 56 0;
#X connect 8 1 40 0;
#X connect 9 0 11 0;
#X connect 10 0 4 0;
#X connect 10 1 3 0;
#X connect 11 0 10 0;
#X connect 12 0 56 0;
#X connect 12 1 26 1;
#X connect 12 1 27 0;
#X connect 13 0 17 0;
#X connect 13 1 17 1;
#X connect 14 0 15 0;
#X connect 16 0 18 1;
#X connect 16 1 19 1;
#X connect 17 0 16 0;
#X connect 17 1 16 1;
#X connect 18 0 34 0;
#X connect 19 0 35 0;
#X connect 20 0 19 2;
#X connect 20 0 18 2;
#X connect 21 0 5 0;
#X connect 22 0 6 0;
#X connect 23 0 6 0;
#X connect 24 0 5 0;
#X connect 25 0 30 0;
#X connect 26 0 28 0;
#X connect 27 0 55 0;
#X connect 28 0 29 0;
#X connect 29 0 55 0;
#X connect 30 0 31 0;
#X connect 30 1 26 0;
#X connect 31 0 27 0;
#X connect 32 0 13 0;
#X connect 32 0 18 0;
#X connect 33 0 13 0;
#X connect 33 0 19 0;
#X connect 36 0 37 0;
#X connect 39 0 3 0;
#X connect 40 0 4 0;
#X connect 50 0 11 1;
#X connect 54 0 14 0;
#X connect 55 0 5 0;
#X connect 56 0 6 0;
#X coords 0 -1 1 1 190 70 1 100 100;
