#N struct 2062-symarray float x array symbols 2062-sym;
#N struct 2062-sym symbol name float on;
#N canvas 215 482 1362 691 10;
#X declare -path ../../ressources/core;
#X declare -path ../../ressources/rj;
#X declare -path ../../ressources/core/fid_abs_vanilia-0.4;
#N canvas 172 83 586 377 LICENSE-GPL 0;
#X text 57 88 This program is free software: you can redistribute it
and/or modify it under the terms of the GNU General Public License
as published by the Free Software Foundation \, either version 3 of
the License \, or (at your option) any later version.;
#X text 58 168 This program is distributed in the hope that it will
be useful \, but WITHOUT ANY WARRANTY \; without even the implied warranty
of MERCHANTABILITY or FITNESS FOR A PARTICULAR PURPOSE. See the GNU
General Public License for more details.;
#X text 57 261 You should have received a copy of the GNU General Public
License along with this program. If not \, see <http://www.gnu.org/licenses/>.
;
#X text 61 54 Copyright (C) 2009 \, Reality Jockey Ltd.;
#X text 60 325 See the file LICENSE.txt for the full license text.
;
#X restore 298 15 pd LICENSE-GPL;
#X text 18 40 ui_hsl \$0 name min max;
#X text 51 17 turntable simulation;
#X text 654 361 définir si source est table locale (1..4) ou fichier
enregistré (0);
#X text 654 338 nom du fichier wav enregistré;
#N canvas 316 158 823 490 gui_stuf 0;
#X obj 69 136 openpanel;
#X obj 85 36 r \$0-wavtable-snd;
#X obj 109 63 t f f;
#X obj 65 94 select 0;
#X obj 162 89 s \$0-wavtable;
#X obj 65 160 s \$0-wave_file;
#X obj 282 61 iemlib/splitfilename /;
#X obj 278 10 r \$0-wave_file;
#X obj 497 114 symbol;
#X msg 277 162 symbol table-\$1;
#X obj 315 43 symbol;
#N canvas 485 69 302 150 \$0-file 0;
#X obj 9 8 cnv 15 250 180 empty empty empty 20 12 0 14 -233017 -66577
0;
#X obj 52 72 vradio 15 1 0 2 \$0-disc_rpm \$0-disc_rpm-rcv empty 0
-8 0 10 -262144 -260097 -1 1;
#X obj 15 72 vradio 15 1 0 2 \$0-turntable_rpm \$0-turntable_rpm-rcv
empty 0 -8 0 10 -262144 -260097 -1 1;
#X obj 36 116 hradio 18 1 0 5 \$0-wavtable-snd \$0-wavtable-rcv wav_1_2_3_4
-20 9 0 16 -262144 -260097 -1 1;
#X text 31 70 45;
#X text 31 85 33;
#X symbolatom 13 154 21 0 0 0 - #0-file-rcv -, f 21;
#X text 8 56 Speed|Disc;
#X text 15 132 |;
#X text 15 138 V;
#X text 18 120 __;
#X obj 108 47 hsl 128 15 0 1 0 0 \$0-from \$0-from-rcv from -2 9 0
12 -262144 -1 -1 0 1;
#X obj 108 64 hsl 128 15 0 1 0 0 \$0-to \$0-to-rcv to -2 9 0 12 -262144
-1 -1 0 1;
#X obj 108 81 hsl 128 15 0 1 0 0 \$0-pos \$0-pos-rcv start_at_pos -2
9 0 12 -262144 -1 -1 0 1;
#X text 30 8 TURNTABLE;
#X obj 109 27 hsl 128 15 0 1 0 0 \$0-setpos \$0-curseur Dj.wav -2 -8
0 10 -262144 -1 -1 0 1;
#X obj 242 48 bng 15 250 50 0 \$0-set-from empty empty 17 7 0 10 -262144
-1 -1;
#X obj 242 65 bng 15 250 50 0 \$0-set-to empty empty 17 7 0 10 -262144
-1 -1;
#X obj 16 28 tgl 25 0 \$0-start \$0-start-rcv START 28 12 0 10 -262144
-1 -1 0 1;
#X obj 177 101 cnv 15 80 84 empty empty empty 20 12 0 14 -262130 -66577
0;
#X obj 234 119 bng 15 250 50 0 \$0-next_file \$0-next_file-rcv > 5
7 0 10 -262144 -1 -1;
#X obj 180 119 bng 15 250 50 0 \$0-prev_file \$0-prev_file-rcv < 5
7 0 10 -262144 -1 -1;
#X floatatom 196 120 5 0 0 0 - #0-index-rcv #0-index, f 5;
#X obj 180 139 bng 15 250 50 0 \$0-append empty append 17 7 0 10 -262144
-1 -1;
#X obj 180 169 bng 15 250 50 0 \$0-reset empty delete 17 7 0 10 -262144
-1 -1;
#X obj 180 154 bng 15 250 50 0 \$0-update empty update 17 7 0 10 -262144
-1 -1;
#X floatatom 136 100 5 0 0 0 fid_class #0-fid-rcv #0-fid, f 5;
#X obj 97 136 tgl 15 0 empty \$0-scratch_on scratch 17 7 0 10 -262144
-1 -1 0 1;
#X floatatom 87 171 10 0 127 0 start_note #0-start_note-rcv #0-start_note
, f 10;
#X symbolatom 115 171 6 0 0 0 - #0-start_note_display-rcv -, f 6;
#X text 176 100 liste sampl;
#X restore 72 212 pd \$0-file;
#X msg 509 195 label \$1;
#X obj 493 223 s \$0-curseur;
#X obj 652 167 list fromsymbol;
#X obj 685 213 list tosymbol;
#X obj 654 188 list split 22;
#X obj 619 238 s \$0-file-rcv;
#X msg 413 181 label ducon;
#X msg 262 285 next;
#X msg 214 255 prev;
#X msg 286 389 append;
#X obj 292 363 delay 1;
#X obj 277 327 r \$0-append;
#X obj 369 333 r \$0-reset;
#X msg 376 374 reset;
#X obj 213 232 r \$0-prev_file;
#X obj 261 262 r \$0-next_file;
#X obj 233 419 s \$0-subset;
#X obj 470 316 r \$0-update;
#X msg 473 358 update;
#N canvas 458 61 450 370 midi2notename 0;
#N canvas 473 338 450 300 count 0;
#X obj 131 154 f 0;
#X obj 156 153 + 1;
#X msg 147 133 0;
#X obj 131 183 outlet;
#X obj 131 59 inlet;
#X obj 131 96 b;
#X obj 178 61 inlet;
#X obj 178 98 b;
#X connect 0 0 1 0;
#X connect 0 0 3 0;
#X connect 1 0 0 1;
#X connect 2 0 0 1;
#X connect 4 0 5 0;
#X connect 5 0 0 0;
#X connect 6 0 7 0;
#X connect 7 0 2 0;
#X restore 330 149 pd count;
#X msg 249 99 c \, c# \, d \, d# \, e \, f \, f# \, g \, g# \, a \,
a# \, b;
#X obj 249 124 t a b;
#X obj 249 173 list prepend;
#X msg 173 173 reset;
#X obj 249 74 t b b b;
#X text -2 92 Notes example:;
#X msg 114 174 print;
#X msg 114 149 dump;
#X obj 161 198 m_symbolarray;
#X obj 252 47 loadbang;
#X obj 165 93 mod 12;
#X obj 229 43 bng 15 250 50 0 empty empty empty 17 7 0 10 -262144 -1
-1;
#X obj 166 57 t f f;
#X obj 159 227 list append;
#X obj 166 34 - 24;
#X floatatom 177 145 5 0 0 0 - - -, f 5;
#X obj 188 122 div 12;
#X obj 171 6 t f f;
#X obj 164 251 list append;
#X obj 37 27 r \$0-start_note-rcv;
#X obj 152 315 s \$0-start_note_display-rcv;
#X obj 51 50 route set;
#X msg 150 293 symbol (\$1\$2);
#X connect 0 0 3 1;
#X connect 1 0 2 0;
#X connect 2 0 3 0;
#X connect 2 1 0 0;
#X connect 3 0 9 1;
#X connect 4 0 9 0;
#X connect 5 0 1 0;
#X connect 5 1 4 0;
#X connect 5 2 0 1;
#X connect 7 0 9 0;
#X connect 8 0 9 0;
#X connect 9 0 14 0;
#X connect 10 0 5 0;
#X connect 11 0 9 0;
#X connect 12 0 5 0;
#X connect 13 0 11 0;
#X connect 13 1 17 0;
#X connect 14 0 19 0;
#X connect 15 0 13 0;
#X connect 17 0 16 0;
#X connect 17 0 14 1;
#X connect 18 0 15 0;
#X connect 18 1 19 1;
#X connect 19 0 23 0;
#X connect 20 0 22 0;
#X connect 22 0 18 0;
#X connect 23 0 21 0;
#X restore 38 298 pd midi2notename;
#X connect 0 0 5 0;
#X connect 1 0 2 0;
#X connect 2 0 3 0;
#X connect 2 1 4 0;
#X connect 3 0 0 0;
#X connect 3 0 8 0;
#X connect 3 1 9 0;
#X connect 6 1 8 0;
#X connect 7 0 10 0;
#X connect 8 0 14 0;
#X connect 9 0 14 0;
#X connect 10 0 6 0;
#X connect 12 0 13 0;
#X connect 14 0 16 0;
#X connect 15 0 12 0;
#X connect 15 0 17 0;
#X connect 16 0 15 0;
#X connect 16 2 15 0;
#X connect 18 0 13 0;
#X connect 19 0 28 0;
#X connect 20 0 28 0;
#X connect 21 0 28 0;
#X connect 22 0 21 0;
#X connect 23 0 22 0;
#X connect 24 0 25 0;
#X connect 25 0 28 0;
#X connect 26 0 20 0;
#X connect 27 0 19 0;
#X connect 29 0 30 0;
#X connect 30 0 28 0;
#X restore 361 73 pd gui_stuf;
#N canvas 108 77 1337 542 audio_stuf 0;
#X obj 718 175 == 0;
#X obj 339 81 moses 1;
#X obj 398 113 - 1;
#X obj 610 216 symbol;
#X obj 624 186 select 1;
#X obj 708 203 t f f;
#X obj 412 152 t f f;
#X obj 406 202 pack f f;
#X obj 338 50 r \$0-wavtable;
#X obj 618 111 r \$0-wave_file;
#X obj 719 147 r \$0-wavtable;
#X obj 664 249 spigot 0;
#X obj 163 467 inst_turntable/turntable.main;
#X msg 682 439 length \$1;
#X msg 671 301 openfile \$1;
#N canvas 115 56 662 447 loading_settings 0;
#X obj 14 309 outlet;
#X msg -136 272 vol \$1;
#X msg -134 149 from \$1;
#X msg -138 204 to \$1;
#X msg -30 265 pitch \$1;
#X msg 183 160 disc_rpm \$1;
#X msg 204 258 turntable_rpm \$1;
#X obj 299 113 select 0 1;
#X msg 300 142 45;
#X msg 337 146 33;
#X obj 210 103 select 0 1;
#X msg 211 132 45;
#X msg 248 136 33;
#X msg 119 227 pos \$1;
#X obj 105 180 pipe 10;
#X obj -132 129 r \$0-from;
#X obj -137 183 r \$0-to;
#X obj -138 249 r \$0-vol;
#X obj -30 235 r \$0-pitch;
#X obj 254 41 r \$0-disc_rpm;
#X obj 303 82 r \$0-turntable_rpm;
#X obj 124 128 r \$0-pos;
#X connect 1 0 0 0;
#X connect 2 0 0 0;
#X connect 3 0 0 0;
#X connect 4 0 0 0;
#X connect 5 0 0 0;
#X connect 6 0 0 0;
#X connect 7 0 8 0;
#X connect 7 1 9 0;
#X connect 8 0 6 0;
#X connect 9 0 6 0;
#X connect 10 0 11 0;
#X connect 10 1 12 0;
#X connect 11 0 5 0;
#X connect 12 0 5 0;
#X connect 13 0 0 0;
#X connect 14 0 13 0;
#X connect 15 0 2 0;
#X connect 16 0 3 0;
#X connect 17 0 1 0;
#X connect 18 0 4 0;
#X connect 19 0 10 0;
#X connect 20 0 7 0;
#X connect 21 0 14 0;
#X restore 94 387 pd loading_settings;
#X obj 236 271 r \$0-start;
#X msg 235 333 stop;
#X msg 111 222 pan 64 \, gain 100;
#X obj 126 199 loadbang;
#X obj 170 511 outlet~;
#X obj 280 511 outlet~;
#N canvas 63 55 765 513 scratching 0;
#X obj 193 94 unpack f f f f;
#X msg 37 263 scratch_speed \$1;
#X obj 142 123 - 0.5;
#X obj 221 122 - 0.5;
#X text 276 138 vitesse angulaire (produit scalaire accélération*coordonnées
centrées);
#X obj 77 311 outlet;
#X obj 194 8 r \$0-scratch;
#X obj 441 232 f;
#X obj 581 196 select 0;
#X msg 565 232 0;
#X obj 432 180 r \$0-start;
#X obj 349 16 r \$0-scratch_on;
#X msg 507 290 pan 64 \, gain 100 \, start;
#X msg 386 336 stop;
#X obj 261 259 * 100;
#X msg 164 278 gain \$1;
#X obj 357 96 spigot;
#X obj 443 68 r \$0-automute;
#X obj 441 261 select 0;
#X obj 65 186 expr -2*(-$f1*$f4+$f2*$f3)/($f1*$f1+$f2*$f2);
#X connect 0 0 2 0;
#X connect 0 1 3 0;
#X connect 0 2 19 2;
#X connect 0 3 19 3;
#X connect 1 0 5 0;
#X connect 2 0 19 0;
#X connect 3 0 19 1;
#X connect 6 0 0 0;
#X connect 7 0 18 0;
#X connect 8 0 7 0;
#X connect 8 1 9 0;
#X connect 9 0 18 0;
#X connect 10 0 7 1;
#X connect 11 0 8 0;
#X connect 11 0 16 0;
#X connect 12 0 5 0;
#X connect 13 0 5 0;
#X connect 14 0 15 0;
#X connect 15 0 5 0;
#X connect 16 0 14 0;
#X connect 17 0 16 1;
#X connect 18 0 13 0;
#X connect 18 1 12 0;
#X connect 19 0 1 0;
#X restore 25 130 pd scratching;
#X obj 435 519 s \$0-curseur;
#X obj 476 427 f;
#X obj 516 427 f;
#X obj 405 336 r \$0-set-from;
#X obj 515 336 r \$0-set-to;
#X obj 485 467 s \$0-from;
#X obj 575 467 s \$0-to;
#X obj 206 281 tgl 15 0 empty empty empty 17 7 0 10 -262144 -1 -1 0
1;
#X obj 234 299 select 0;
#X obj 344 300 r \$0-startpos;
#X obj 294 393 f;
#X obj 366 368 r \$0-pos;
#X obj 289 326 list prepend 0;
#X obj 293 347 route 1 0;
#X obj 268 376 t b;
#X msg 280 411 pan 64 \, gain 100 \, start \, pos \$1;
#X msg 201 430 pan 64 \, gain 100 \, start;
#X msg 352 498 set \$1;
#X obj 64 332 r \$0-setpos;
#X msg 58 359 pos \$1;
#X obj 114 68 inlet;
#X msg 355 243 table-stereo \$3-rec_in\$1 \, length \$2;
#X obj 495 213 list append \$0;
#X obj 453 178 tabread \$0-REC_LENGTH;
#X obj 682 328 r \$0-current_rec_length;
#X connect 0 0 5 0;
#X connect 1 1 2 0;
#X connect 2 0 6 0;
#X connect 3 0 11 0;
#X connect 4 0 3 0;
#X connect 5 0 4 0;
#X connect 5 1 11 1;
#X connect 6 0 7 0;
#X connect 6 1 46 0;
#X connect 7 0 45 0;
#X connect 8 0 1 0;
#X connect 9 0 3 0;
#X connect 10 0 0 0;
#X connect 11 0 14 0;
#X connect 12 0 20 0;
#X connect 12 1 21 0;
#X connect 12 2 24 1;
#X connect 12 2 25 1;
#X connect 12 2 40 0;
#X connect 13 0 12 0;
#X connect 14 0 12 0;
#X connect 15 0 12 0;
#X connect 16 0 30 0;
#X connect 16 0 31 0;
#X connect 17 0 12 0;
#X connect 18 0 12 0;
#X connect 19 0 18 0;
#X connect 22 0 12 0;
#X connect 24 0 28 0;
#X connect 25 0 29 0;
#X connect 26 0 24 0;
#X connect 27 0 25 0;
#X connect 31 0 17 0;
#X connect 31 1 35 0;
#X connect 32 0 35 1;
#X connect 33 0 38 0;
#X connect 34 0 33 1;
#X connect 35 0 36 0;
#X connect 36 0 37 0;
#X connect 36 1 39 0;
#X connect 37 0 33 0;
#X connect 38 0 12 0;
#X connect 39 0 12 0;
#X connect 40 0 23 0;
#X connect 41 0 42 0;
#X connect 42 0 12 0;
#X connect 43 0 12 0;
#X connect 44 0 12 0;
#X connect 45 0 44 0;
#X connect 46 0 7 1;
#X connect 47 0 13 0;
#X restore 9 473 pd audio_stuf;
#X obj 664 500 s \$0-start;
#X obj 708 579 s \$0-automute;
#X obj 674 440 s \$0-startpos;
#X obj 675 409 midi-colors \$0 startpos \$0-startpos-rcv 15;
#X obj 687 549 midi-colors \$0 automute \$0-automute-rcv 17;
#X obj 665 469 midi-colors \$0 start \$0-start-rcv 16;
#X obj 1034 439 change;
#X obj 1035 420 > 30;
#X obj 1034 559 change;
#X obj 1035 540 > 30;
#X obj 1035 400 midi-colors \$0 prev_file \$0-prev_file-rcv;
#X obj 1035 520 midi-colors \$0 next_file \$0-next_file-rcv;
#X obj 1034 462 select 1;
#X obj 1034 582 select 1;
#X obj 1034 620 s \$0-next_file-rcv;
#X obj 1034 490 s \$0-prev_file-rcv;
#X obj 439 416 u_parameter_subset \$0 disc_rpm;
#X obj 439 320 u_parameter_subset \$0 to;
#X obj 438 500 u_parameter_subset \$0 start;
#X obj 439 298 u_parameter_subset \$0 from;
#X obj 439 362 u_parameter_subset \$0 wavtable;
#X obj 439 394 u_parameter_subset \$0 turntable_rpm;
#X obj 439 436 u_parameter_subset \$0 pos;
#X obj 438 560 u_parameter_subset \$0 automute;
#X obj 442 584 u_parameter_subset \$0 startpos;
#X msg 643 608 set \$1;
#X obj 636 634 s \$0-index-rcv;
#X obj 441 604 u_subset \$0 filename;
#X obj 436 480 u_subset \$0 pitch;
#X obj 439 342 u_subset \$0 wave_file;
#X obj 439 456 u_subset \$0 vol;
#X obj 920 287 r \$0-enable;
#N canvas 0 50 450 300 wintablet 0;
#X obj 47 30 inlet;
#X obj 99 234 s \$0-scratch;
#X obj 142 92 unpack f f f f f;
#X obj 221 114 == 1;
#X obj 271 114 == 1;
#X obj 217 141 &&;
#N canvas 480 71 450 533 dx_dy/dt 0;
#X obj 57 23 inlet;
#X obj 150 22 inlet;
#X obj 101 201 -;
#X obj 88 119 t f f f;
#X obj 119 150 spigot 1;
#X obj 208 194 -;
#X obj 229 150 spigot 1;
#X obj 198 119 t f f f b;
#X obj 304 201 t b b;
#X obj 55 265 pack f f f f;
#X obj 123 174 t f b;
#X msg 171 204 0;
#X obj 338 21 inlet;
#X obj 91 74 spigot;
#X obj 336 51 change;
#X obj 336 87 select 1;
#X msg 338 128 1;
#X obj 171 74 spigot;
#X obj 49 300 outlet;
#X obj 233 307 *;
#X obj 178 278 t f f;
#X obj 244 278 t f f;
#X obj 179 306 *;
#X obj 179 328 +;
#X obj 174 388 sqrt;
#X obj 292 236 realtime;
#X obj 354 157 delay 1;
#X obj 114 239 / 0.02;
#X obj 203 220 / 0.02;
#X connect 0 0 13 0;
#X connect 1 0 17 0;
#X connect 2 0 27 0;
#X connect 3 0 2 1;
#X connect 3 0 9 0;
#X connect 3 1 2 0;
#X connect 3 2 4 0;
#X connect 4 0 10 0;
#X connect 5 0 28 0;
#X connect 6 0 5 1;
#X connect 7 0 5 1;
#X connect 7 0 9 1;
#X connect 7 1 5 0;
#X connect 7 2 6 0;
#X connect 7 3 26 0;
#X connect 8 0 25 0;
#X connect 8 1 25 1;
#X connect 9 0 18 0;
#X connect 10 0 2 1;
#X connect 10 1 11 0;
#X connect 11 0 4 1;
#X connect 11 0 6 1;
#X connect 12 0 14 0;
#X connect 13 0 3 0;
#X connect 14 0 15 0;
#X connect 14 0 13 1;
#X connect 14 0 17 1;
#X connect 15 0 16 0;
#X connect 16 0 6 1;
#X connect 16 0 4 1;
#X connect 17 0 7 0;
#X connect 19 0 23 1;
#X connect 20 0 22 0;
#X connect 20 1 22 1;
#X connect 21 0 19 0;
#X connect 21 1 19 1;
#X connect 22 0 23 0;
#X connect 23 0 24 0;
#X connect 26 0 8 0;
#X connect 27 0 9 2;
#X connect 27 0 20 0;
#X connect 28 0 9 3;
#X connect 28 0 21 0;
#X restore 104 203 pd dx_dy/dt;
#X obj 79 127 / 1023;
#X obj 257 180 s \$0-scratch_on;
#X obj 145 112 / 1023;
#X obj 144 129 - 0.5;
#X obj 129 152 * 0.66;
#X obj 123 173 + 0.5;
#X connect 0 0 2 0;
#X connect 2 0 7 0;
#X connect 2 1 9 0;
#X connect 2 3 3 0;
#X connect 2 4 4 0;
#X connect 3 0 5 0;
#X connect 4 0 5 1;
#X connect 5 0 6 2;
#X connect 5 0 8 0;
#X connect 6 0 1 0;
#X connect 7 0 6 0;
#X connect 9 0 10 0;
#X connect 10 0 11 0;
#X connect 11 0 12 0;
#X connect 12 0 6 1;
#X restore 182 544 pd wintablet;
#X msg 630 108 1 add \, 1 preset 5;
#X msg 636 54 1 add \, 1 preset 1;
#X obj 499 77 r assiettes_pool;
#X obj 498 102 fid_multiplex 3;
#X obj 500 140 route 1 2 3;
#X obj 437 520 u_parameter \$0 fid;
#X obj 432 541 u_parameter \$0 fid_size;
#N canvas 0 50 628 353 TODO 0;
#X text 41 55 Polyphonie;
#X text 39 88 note on active \, note off désactive une voix;
#X text 36 112 le numéro de note définit le numéro de subset (mapping
dans un tableau);
#X text 40 12 virer code sur fid_class et rendre compatible avec data_fidtouch
via data inlet;
#X restore 831 19 pd TODO;
#X msg 921 165 scratch_speed \$1;
#X obj 1070 132 -;
#X obj 1118 150 delay 100;
#X obj 1059 87 t f b f;
#X obj 1100 111 spigot;
#X msg 1143 82 1;
#X msg 1128 176 0;
#X obj 1070 169 * 4;
#X text 1053 67 [ctlin];
#X text 1016 52 Pour scratcher avec un controleur midi \, connecter
ici un objet;
#N canvas 231 50 939 473 touch_event 0;
#X obj 57 388 s \$0-scratch;
#N canvas 262 90 450 533 dx_dy/dt 0;
#X obj 57 23 inlet;
#X obj 150 22 inlet;
#X obj 101 201 -;
#X obj 208 194 -;
#X obj 55 265 pack f f f f;
#X obj 49 300 outlet;
#X obj 233 307 *;
#X obj 178 278 t f f;
#X obj 244 278 t f f;
#X obj 179 306 *;
#X obj 179 328 +;
#X obj 174 388 sqrt;
#X obj 114 239 / 0.08;
#X obj 203 220 / 0.08;
#X obj 257 23 inlet;
#X obj 350 22 inlet;
#X obj 88 119 t f f;
#X obj 198 119 t f f;
#X connect 0 0 16 0;
#X connect 1 0 17 0;
#X connect 2 0 12 0;
#X connect 3 0 13 0;
#X connect 4 0 5 0;
#X connect 6 0 10 1;
#X connect 7 0 9 0;
#X connect 7 1 9 1;
#X connect 8 0 6 0;
#X connect 8 1 6 1;
#X connect 9 0 10 0;
#X connect 10 0 11 0;
#X connect 12 0 4 2;
#X connect 12 0 7 0;
#X connect 13 0 4 3;
#X connect 13 0 8 0;
#X connect 14 0 2 1;
#X connect 15 0 3 1;
#X connect 16 0 2 1;
#X connect 16 0 4 0;
#X connect 16 1 2 0;
#X connect 17 0 3 1;
#X connect 17 0 4 1;
#X connect 17 1 3 0;
#X restore 57 354 pd dx_dy/dt;
#X obj 98 7 inlet touchevent;
#X obj 32 134 route addCursor updateCursor removeCursor;
#X text 92 423 touchEvent <noteId> addCursor <session_id> <xpos> <ypos>
;
#X text 92 439 touchEvent <noteId> updateCursor <session_id> <xpos>
<ypos>;
#X text 95 456 touchEvent <noteId> removeCursor <session_id>;
#X obj 69 69 list split 1;
#X obj 113 100 list trim;
#X msg 47 165 \$1 add \$2 \$3;
#X msg 111 187 \$1 update \$2 \$3;
#X msg 219 161 \$1 remove;
#X obj 53 237 fid_multiplex 1;
#X obj 54 264 route 1;
#X obj 145 321 unpack f f;
#X obj 58 320 unpack f f;
#X obj 296 372 s \$0-scratch_on;
#X msg 301 331 1;
#X obj 72 288 route update add remove;
#X msg 354 332 0;
#X connect 1 0 0 0;
#X connect 2 0 7 0;
#X connect 3 0 9 0;
#X connect 3 1 10 0;
#X connect 3 2 11 0;
#X connect 7 1 8 0;
#X connect 8 0 3 0;
#X connect 9 0 12 0;
#X connect 10 0 12 0;
#X connect 11 0 12 0;
#X connect 12 0 13 0;
#X connect 13 0 18 0;
#X connect 14 0 1 2;
#X connect 14 1 1 3;
#X connect 15 0 1 0;
#X connect 15 1 1 1;
#X connect 17 0 16 0;
#X connect 18 0 15 0;
#X connect 18 1 14 0;
#X connect 18 1 17 0;
#X connect 18 2 19 0;
#X connect 19 0 16 0;
#X restore 257 591 pd touch_event;
#X obj 441 644 u_parameter \$0 scroutch;
#X obj 841 243 s \$0-scroutch;
#X obj 1008 28 r \$0-scroutch;
#X obj 815 219 midi-colors \$0 scroutch \$0-curseur;
#X obj 101 101 cnv 15 188 68 empty \$0-background inst_turntable 0
7 0 12 -262144 -1 0;
#X obj 263 131 tgl 25 0 \$0-start \$0-start-rcv PLAY 2 13 0 10 -262144
-1 -1 0 1;
#X msg 18 155 1;
#X msg 365 104 vis 1 \, vis 1;
#X obj 365 125 s pd-\$0-file;
#X obj 13 185 s \$0-pitch;
#X obj 100 136 bng 15 250 50 0 empty empty empty 17 7 0 10 -262144
-1 -1;
#X obj 138 115 ui_vs \$0 vol 0 110;
#X obj 189 139 hradio 15 1 0 5 \$0-wavtable-snd \$0-wavtable-rcv wav_1_2_3_4
-6 9 0 12 -262144 -260097 -1 1;
#X obj 158 155 hsl 128 15 0 127 0 0 \$0-scroutch \$0-scroutch-rcv SCRATCH
12 8 0 10 -262144 -1 -1 0 1;
#X obj 160 155 hsl 128 15 0 1 0 0 \$0-setpos \$0-curseur Dj.wav -2
7 0 10 -262144 -1 -1 0 1;
#X obj 175 136 bng 15 250 50 0 \$0-next_file \$0-next_file-rcv > 5
7 0 10 -262144 -1 -1;
#N canvas 0 50 950 520 note_event 0;
#X obj 90 35 inlet;
#X obj 338 359 s \$0-subset;
#X msg 336 337 get \$1;
#X obj 277 217 r \$0-start_note;
#X obj 251 249 -;
#X obj 264 271 moses 0;
#X obj 218 217 spigot;
#X obj 136 142 poly 1 1;
#X obj 127 222 select 0;
#X msg 167 246 1;
#X msg 125 250 0;
#X obj 162 285 s \$0-start;
#X obj 132 172 t b f;
#X obj 130 203 f;
#X obj 316 302 change;
#X obj 97 67 unpack f f;
#X obj 208 58 pack f f;
#X obj 209 39 spigot;
#X obj 442 94 r \$0-midiNoteIn;
#X obj 208 88 unpack f f;
#X obj 212 13 notein;
#X connect 0 0 15 0;
#X connect 2 0 1 0;
#X connect 3 0 4 1;
#X connect 4 0 5 0;
#X connect 5 1 14 0;
#X connect 6 0 4 0;
#X connect 7 1 12 0;
#X connect 7 2 6 1;
#X connect 7 2 13 1;
#X connect 8 0 10 0;
#X connect 8 1 9 0;
#X connect 9 0 11 0;
#X connect 10 0 11 0;
#X connect 12 0 13 0;
#X connect 12 1 6 0;
#X connect 13 0 8 0;
#X connect 14 0 2 0;
#X connect 15 0 7 0;
#X connect 15 1 7 1;
#X connect 16 0 19 0;
#X connect 17 0 16 0;
#X connect 18 0 17 1;
#X connect 19 0 7 0;
#X connect 19 1 7 1;
#X connect 20 0 17 0;
#X connect 20 1 16 1;
#X restore 325 549 pd note_event;
#X obj 443 666 u_parameter \$0 midiNoteIn;
#X obj 442 622 u_parameter \$0 start_note;
#X obj 100 115 ui_vsl \$0 pitch 0.25 4;
#X obj 20 450 inlet~;
#X obj 15 512 outlet~;
#X obj 120 479 inlet~;
#X obj 101 512 outlet~;
#X obj 432 220 module_loader inst_turntable \$0 \$1;
#X obj 192 468 inlet data;
#X obj 203 492 outlet data;
#X obj 176 123 bng 15 250 50 0 \$0-prev_file \$0-prev_file-rcv < 5
7 0 10 -262144 -1 -1;
#N canvas 435 77 687 523 live_rec 0;
#X obj 299 204 r \$0-module-slot;
#N canvas 0 50 903 443 get_audio_from_module 0;
#X obj 192 151 select 0;
#X obj 70 242 print plug-in~;
#X obj 241 184 f;
#X obj 177 80 t f f;
#X msg 72 217 error - slot \$1 non affecté;
#X obj 459 342 outlet~;
#X obj 584 348 outlet~;
#X obj 143 5 inlet slot.name;
#X obj 427 143 list prepend 0;
#X obj 499 113 f;
#X obj 540 113 == 0;
#X obj 427 98 t f b;
#X obj 455 174 route 0 1;
#N canvas 0 50 450 300 receive~ 0;
#X obj 92 29 inlet;
#X obj 122 72 select 0;
#X obj 105 223 line~;
#X msg 97 200 0 20;
#X msg 197 124 set \$1-send-0;
#X msg 307 124 set \$1-send-1;
#X obj 197 157 receive~ 0-send-0;
#X obj 339 157 receive~ 0-send-1;
#X msg 150 193 1 20;
#X obj 31 151 switch~;
#X msg 98 126 1;
#X obj 40 96 delay 20;
#X msg 29 127 0;
#X msg 44 67 stop;
#X obj 130 318 outlet~;
#X obj 261 319 outlet~;
#X obj 161 283 *~;
#X obj 251 283 *~;
#X connect 0 0 1 0;
#X connect 1 0 3 0;
#X connect 1 0 11 0;
#X connect 1 1 4 0;
#X connect 1 1 5 0;
#X connect 1 1 10 0;
#X connect 1 1 13 0;
#X connect 1 1 8 0;
#X connect 2 0 16 1;
#X connect 2 0 17 1;
#X connect 3 0 2 0;
#X connect 4 0 6 0;
#X connect 5 0 7 0;
#X connect 6 0 16 0;
#X connect 7 0 17 0;
#X connect 8 0 2 0;
#X connect 10 0 9 0;
#X connect 11 0 12 0;
#X connect 12 0 9 0;
#X connect 13 0 11 0;
#X connect 16 0 14 0;
#X connect 17 0 15 0;
#X restore 455 240 pd receive~;
#N canvas 0 50 450 300 receive~ 0;
#X obj 92 29 inlet;
#X obj 122 72 select 0;
#X obj 105 223 line~;
#X msg 97 200 0 20;
#X msg 197 124 set \$1-send-0;
#X msg 307 124 set \$1-send-1;
#X obj 197 157 receive~ 0-send-0;
#X obj 339 157 receive~ 0-send-1;
#X msg 150 193 1 20;
#X obj 31 151 switch~;
#X msg 98 126 1;
#X obj 40 96 delay 20;
#X msg 29 127 0;
#X msg 44 67 stop;
#X obj 130 318 outlet~;
#X obj 261 319 outlet~;
#X obj 161 283 *~;
#X obj 251 283 *~;
#X connect 0 0 1 0;
#X connect 1 0 3 0;
#X connect 1 0 11 0;
#X connect 1 1 4 0;
#X connect 1 1 5 0;
#X connect 1 1 10 0;
#X connect 1 1 13 0;
#X connect 1 1 8 0;
#X connect 2 0 16 1;
#X connect 2 0 17 1;
#X connect 3 0 2 0;
#X connect 4 0 6 0;
#X connect 5 0 7 0;
#X connect 6 0 16 0;
#X connect 7 0 17 0;
#X connect 8 0 2 0;
#X connect 10 0 9 0;
#X connect 11 0 12 0;
#X connect 12 0 9 0;
#X connect 13 0 11 0;
#X connect 16 0 14 0;
#X connect 17 0 15 0;
#X restore 573 239 pd receive~;
#X msg 461 217 0;
#X msg 578 219 0;
#X text 612 270 assure un crossefade entre deux branchements successifs
;
#X msg 373 145 0;
#X obj 171 43 select 0;
#X obj 192 120 tabread SLOTS_MAP;
#X obj 666 25 r REFRESH_CONNEXIONS;
#X obj 705 202 tabread SLOTS_MAP;
#X obj 709 107 f;
#X msg 638 157 0;
#X obj 653 130 select 0;
#X connect 0 0 2 0;
#X connect 0 0 18 0;
#X connect 0 1 11 0;
#X connect 2 0 4 0;
#X connect 3 0 20 0;
#X connect 3 1 2 1;
#X connect 4 0 1 0;
#X connect 7 0 19 0;
#X connect 7 0 23 1;
#X connect 8 0 12 0;
#X connect 9 0 10 0;
#X connect 9 0 8 1;
#X connect 10 0 9 1;
#X connect 11 0 8 0;
#X connect 11 1 9 0;
#X connect 12 0 13 0;
#X connect 12 0 16 0;
#X connect 12 1 14 0;
#X connect 12 1 15 0;
#X connect 13 0 5 0;
#X connect 13 1 6 0;
#X connect 14 0 5 0;
#X connect 14 1 6 0;
#X connect 15 0 13 0;
#X connect 16 0 14 0;
#X connect 18 0 11 0;
#X connect 19 0 18 0;
#X connect 19 1 3 0;
#X connect 20 0 0 0;
#X connect 21 0 23 0;
#X connect 22 0 11 0;
#X connect 23 0 25 0;
#X connect 24 0 11 0;
#X connect 25 0 24 0;
#X connect 25 1 22 0;
#X restore 301 230 pd get_audio_from_module;
#N canvas 120 96 1125 554 live_recording 0;
#X obj 141 288 select 1 0;
#X msg 68 389 stop;
#X obj 222 342 timer;
#X obj 257 316 bng 15 250 50 0 empty empty empty 17 7 0 10 -262144
-1 -1;
#X obj 217 316 bng 15 250 50 0 empty empty empty 17 7 0 10 -262144
-1 -1;
#X obj 557 163 change;
#X obj 549 97 inlet;
#X obj 16 113 inlet~;
#X obj 261 111 inlet~;
#X obj 16 137 delwrite~ \$0-input-l 1000;
#X obj 16 160 delread~ \$0-input-l 20;
#X obj 260 132 delwrite~ \$0-input-r 1000;
#X obj 259 157 delread~ \$0-input-r 30;
#X obj 555 128 > 0;
#X obj 698 100 inlet target;
#X msg 698 122 set \$1-1;
#X msg 708 152 set \$1-2;
#X obj 641 482 outlet;
#X obj 42 512 tabwrite~ \$0-rec_in0-1;
#X obj 141 481 tabwrite~ \$0-rec_in0-2;
#X connect 0 0 2 0;
#X connect 0 0 18 0;
#X connect 0 0 19 0;
#X connect 0 1 1 0;
#X connect 0 1 2 1;
#X connect 1 0 18 0;
#X connect 1 0 19 0;
#X connect 2 0 17 0;
#X connect 3 0 2 1;
#X connect 4 0 2 0;
#X connect 5 0 0 0;
#X connect 6 0 13 0;
#X connect 7 0 9 0;
#X connect 8 0 11 0;
#X connect 10 0 18 0;
#X connect 12 0 19 0;
#X connect 13 0 5 0;
#X connect 14 0 15 0;
#X connect 14 0 16 0;
#X connect 15 0 18 0;
#X connect 16 0 19 0;
#X restore 310 329 pd live_recording;
#X obj 383 294 r \$0-rec;
#X obj 555 21 midi-colors \$0 rec \$0-rec-rcv;
#X obj 554 81 s \$0-rec;
#X obj 554 60 change;
#X obj 555 41 > 30;
#X obj 67 18 r \$0-rec;
#X obj 63 105 s \$0-rec-rcv;
#X msg 68 48 set \$1;
#X obj 260 17 select 0 1;
#X msg 216 42 color 5 5 -1;
#X msg 318 57 color 13 13 -1;
#X obj 456 133 r \$0-wavtable;
#X obj 456 155 moses 1;
#X obj 515 194 - 1;
#X obj 610 135 table \$0-rec_in0-1 100000;
#X obj 610 155 table \$0-rec_in0-2 100000;
#X obj 610 175 table \$0-rec_in1-1 100000;
#X obj 610 215 table \$0-rec_in2-1 100000;
#X obj 610 255 table \$0-rec_in3-1 100000;
#X obj 610 195 table \$0-rec_in1-2 100000;
#X obj 610 235 table \$0-rec_in2-2 100000;
#X obj 610 275 table \$0-rec_in3-2 100000;
#X obj 604 332 table \$0-REC_LENGTH 4;
#X obj 491 247 list append \$0;
#X msg 496 288 symbol \$2-rec_in\$1;
#X obj 480 399 tabwrite \$0-REC_LENGTH;
#X obj 414 469 s \$0-current_rec_length;
#X obj 419 433 spigot;
#X connect 0 0 1 0;
#X connect 1 0 2 0;
#X connect 1 1 2 1;
#X connect 2 0 28 0;
#X connect 2 0 30 0;
#X connect 3 0 2 2;
#X connect 4 0 7 0;
#X connect 6 0 5 0;
#X connect 7 0 6 0;
#X connect 8 0 10 0;
#X connect 8 0 11 0;
#X connect 10 0 9 0;
#X connect 11 0 12 0;
#X connect 11 1 13 0;
#X connect 12 0 9 0;
#X connect 13 0 9 0;
#X connect 14 0 15 0;
#X connect 14 0 30 1;
#X connect 15 1 16 0;
#X connect 16 0 26 0;
#X connect 16 0 28 1;
#X connect 26 0 27 0;
#X connect 27 0 2 3;
#X connect 30 0 29 0;
#X restore 1146 251 pd live_rec;
#X obj 193 121 bng 18 250 50 0 empty empty RecIn> 0 10 0 10 -261682
-1 -1;
#X floatatom 226 124 5 0 0 0 - #0-module-slot-rcv #0-module-slot,
f 5;
#X obj 263 106 tgl 25 0 \$0-rec \$0-rec-rcv REC 2 5 0 10 -262131 -262131
-1 0 1;
#X obj 486 55 namecanvas \$0-multitab;
#X obj 484 35 ui_multitab \$0;
#X obj 101 201 cnv 15 188 68 empty \$0-background inst_turntable 0
7 0 12 -262144 -1 0;
#X obj 126 219 bng 22 250 50 0 empty empty EDIT 1 11 0 9 -204800 -1
-1;
#X obj 152 220 vsl 70 17 1 0 0 0 \$0-presets \$0-presets-rcv Test 2
7 0 10 -232576 -232576 -1 0 1;
#X obj 227 251 tgl 17 0 \$0-startpos \$0-startpos-rcv STARTPOS 1 7
0 10 -262144 -1 -1 0 1;
#X obj 161 246 tgl 15 0 \$0-midiNoteIn \$0-midiNoteIn-rcv midiNoteIn
-50 7 0 10 -262144 -1 -1 0 1;
#X obj 231 230 tgl 15 0 \$0-automute \$0-automute-rcv AUTOMUTE 1 7
0 10 -262144 -1 -1 0 1;
#X obj 439 258 u_parameter \$0 module-slot;
#X obj 321 231 s ACTION;
#X obj 326 160 delay 100;
#X msg 327 205 select_module \$1;
#X obj 328 183 list append \$0-module-slot;
#X obj 101 301 cnv 15 188 68 empty \$0-background inst_turntable 0
7 0 12 -262144 -1 0;
#X obj 108 330 hsl 128 13 0 1 0 0 \$0-from \$0-from-rcv from -2 7 0
12 -262144 -1 -1 0 1;
#X obj 108 343 hsl 128 13 0 1 0 0 \$0-to \$0-to-rcv to -2 7 0 12 -262144
-1 -1 0 1;
#X obj 108 356 hsl 128 13 0 1 0 0 \$0-pos \$0-pos-rcv start_at_pos
-2 7 0 12 -262144 -1 -1 0 1;
#X obj 109 317 hsl 128 13 0 1 0 0 \$0-setpos \$0-curseur Dj.wav -2
7 0 10 -232576 -1 -1 0 1;
#X obj 239 329 bng 15 250 50 0 \$0-set-from empty empty 17 7 0 10 -262144
-1 -1;
#X obj 239 344 bng 15 250 50 0 \$0-set-to empty empty 17 7 0 10 -262144
-1 -1;
#X obj 101 401 cnv 15 188 68 empty \$0-background inst_turntable 0
7 0 12 -262144 -1 0;
#X obj 202 100 hradio 15 1 0 4 \$0-guitab \$0-guitab-rcv empty 0 -8
0 10 -191407 -1 -1 0;
#X obj 202 200 hradio 15 1 0 4 \$0-guitab \$0-guitab-rcv empty 0 -8
0 10 -191407 -1 -1 0;
#X obj 202 300 hradio 15 1 0 4 \$0-guitab \$0-guitab-rcv empty 0 -8
0 10 -191407 -1 -1 0;
#X obj 202 400 hradio 15 1 0 4 \$0-guitab \$0-guitab-rcv empty 0 -8
0 10 -191407 -1 -1 0;
#X floatatom 177 417 10 0 127 0 start_note #0-start_note-rcv #0-start_note
, f 10;
#X symbolatom 205 417 6 0 0 0 - #0-start_note_display-rcv -, f 6;
#X obj 162 451 bng 15 250 50 0 \$0-next_file \$0-next_file-rcv > 5
7 0 10 -262144 -1 -1;
#X obj 108 451 bng 15 250 50 0 \$0-prev_file \$0-prev_file-rcv < 5
7 0 10 -262144 -1 -1;
#X floatatom 124 452 5 0 0 0 - #0-index-rcv #0-index, f 5;
#X obj 180 438 bng 15 250 50 0 \$0-append empty append 17 7 0 10 -262144
-1 -1;
#X obj 230 439 bng 15 250 50 0 \$0-reset empty delete 17 7 0 10 -262144
-1 -1;
#X obj 180 453 bng 15 250 50 0 \$0-update empty update 17 7 0 10 -262144
-1 -1;
#X text 104 432 liste sampl;
#X obj 188 515 route wintablet touchEvent note scratch_speed;
#X msg 125 623 scratch_speed \$1;
#X obj 1154 4 declare -path ../../ressources/core;
#X obj 1154 34 declare -path ../../ressources/rj;
#X obj 1210 87 declare -path ../../ressources/core/fid_abs_vanilia-0.4
;
#X connect 6 0 80 0;
#X connect 6 1 82 0;
#X connect 10 0 9 0;
#X connect 11 0 8 0;
#X connect 12 0 7 0;
#X connect 13 0 19 0;
#X connect 14 0 13 0;
#X connect 15 0 20 0;
#X connect 16 0 15 0;
#X connect 17 0 14 0;
#X connect 18 0 16 0;
#X connect 19 0 22 0;
#X connect 20 0 21 0;
#X connect 23 0 29 0;
#X connect 24 0 36 0;
#X connect 25 0 45 0;
#X connect 26 0 24 0;
#X connect 27 0 28 0;
#X connect 27 1 32 0;
#X connect 28 0 23 0;
#X connect 29 0 37 0;
#X connect 30 0 31 0;
#X connect 31 0 34 0;
#X connect 32 0 33 0;
#X connect 34 0 77 0;
#X connect 36 0 27 0;
#X connect 37 0 35 0;
#X connect 40 0 44 0;
#X connect 41 0 44 0;
#X connect 42 0 43 0;
#X connect 43 0 44 0;
#X connect 45 0 46 0;
#X connect 46 0 30 0;
#X connect 48 0 6 0;
#X connect 49 0 55 0;
#X connect 50 0 54 0;
#X connect 51 0 49 1;
#X connect 51 1 53 0;
#X connect 51 1 50 0;
#X connect 51 2 52 0;
#X connect 52 0 49 0;
#X connect 53 0 52 1;
#X connect 54 0 52 1;
#X connect 55 0 48 0;
#X connect 59 0 76 0;
#X connect 61 0 51 0;
#X connect 62 0 60 0;
#X connect 65 0 68 0;
#X connect 66 0 67 0;
#X connect 69 0 65 0;
#X connect 77 0 59 0;
#X connect 79 0 80 0;
#X connect 81 0 82 0;
#X connect 83 0 99 0;
#X connect 84 0 85 0;
#X connect 84 0 125 0;
#X connect 88 0 101 0;
#X connect 94 0 66 0;
#X connect 99 0 26 0;
#X connect 101 0 103 0;
#X connect 102 0 100 0;
#X connect 103 0 102 0;
#X connect 125 0 39 0;
#X connect 125 1 58 0;
#X connect 125 2 75 0;
#X connect 125 3 126 0;
#X connect 126 0 6 0;
#X coords 0 0 1 1 190 70 1 100 100;
