#N canvas 551 -8 613 686 10;
#X declare -path ../core;
#X declare -path ../rj;
#X obj 386 37 declare -path ../core;
#X obj 386 67 declare -path ../rj;
#X obj 400 162 tgl 15 0 empty empty V 4 8 0 12 -4034 -4034 -1 0 1;
#X obj 400 199 tgl 15 0 empty empty X 4 8 0 12 -258113 -258113 -1 0
1;
#X text 420 158 Instances multiples;
#X obj 40 69 inst_modular;
#X text 250 94 <- nom du patch à charger dynamiquement;
#X text 32 12 INST_MODULAR;
#X text 11 162 le patch doit être contenu dans le dossier 'modular'
;
#X obj 112 272 r~ \$1-CV1;
#X text 193 271 à;
#X obj 225 272 r~ \$1-CV5;
#X text 38 300 Il est possible d'envoyer des CV (convertis en messages
ctl midi) depuis le patch modulaire vers le reste de la session.;
#X obj 91 342 s~ \$1-CVA;
#X obj 211 343 s~ \$1-CVE;
#X text 182 338 à;
#X text 33 234 Depuis le patch modulare \, des contrôles externes
sont accessibles sous forme de CVin's :;
#X text 46 380 Pour activer un CVout \, cliquer sur le bouton A/B/C/D/E
afin qu'il devienne jaune;
#X text 50 418 Pour affecter ce CVout à un paramètre d'un autre module
\, cliquer sur midi-learn \, puis sur le bouton A/B/C/D/E \, puis enfin
sur le contrôle désiré du module cible.;
#X obj 241 533 stereo_outlet~ \$1;
#X text 93 651 objets globaux :;
#X obj 242 650 r CLOCK;
#X obj 38 191 bng 15 250 50 0 empty empty empty 17 7 0 10 -203904 -1
-1;
#X text 55 185 <- pour ouvrir le patch;
#X text 46 484 En mode rack \, à l'intérieur du patch modulaire \,
l'audio est accessible avec les objets;
#X obj 244 507 stereo_inlet~ \$1;
#X text 37 561 En mode rack \, à l'intérieur du patch modulaire \,
la réception et l'envoi de données externes est assuré par les objets
;
#X obj 244 601 data_inlet \$1;
#X obj 242 626 data_outlet \$1;
#X text 24 27 permet de charger dynamiquement un patch modulaire;
#X text 24 43 Automatonism_1.1;
#X text 11 213 CVIN;
#X text 17 362 CVOUT;
#X text 20 465 INLETS / OULETS;
#X coords 0 686 1 685 190 70 0;
