#N canvas 248 65 981 595 10;
#X declare -path ../../ressources/core;
#X declare -path ../../ressources/rj;
#X declare -path ../../ressources/core/fid_abs_vanilia-0.4;
#X obj 45 216 pack f f;
#X obj 52 187 spigot;
#X obj 192 194 r \$0-midiNoteIn;
#X obj 596 325 u_parameter \$0 midiNoteIn;
#X obj 596 347 u_parameter \$0 mode;
#X obj 596 391 u_dispatch \$0 vol;
#N canvas 1 56 494 446 volpan 0;
#X obj -3 -16 inlet~;
#X obj 79 335 outlet~;
#X obj 155 332 outlet~;
#X obj 82 14 dbtorms;
#X text 159 13 Vol (0-127);
#X obj 80 98 line~;
#X obj 34 139 *~;
#X obj 50 -14 inlet~;
#X obj 74 147 *~;
#X msg 80 66 \$1 20;
#X obj 184 -12 r \$0-vol;
#X obj 82 36 * 0.2;
#X connect 0 0 6 0;
#X connect 3 0 11 0;
#X connect 5 0 6 1;
#X connect 5 0 8 1;
#X connect 6 0 1 0;
#X connect 7 0 8 0;
#X connect 8 0 2 0;
#X connect 9 0 5 0;
#X connect 10 0 3 0;
#X connect 11 0 9 0;
#X restore 58 307 pd volpan;
#X obj 596 413 u_parameter \$0 sustain;
#N canvas 0 50 941 597 recording 0;
#X obj 270 254 tabwrite~ \$0-tabosc;
#X obj 245 72 r LATENCY;
#X obj 245 94 / 2;
#X obj 272 160 delread~ \$0-lag;
#X obj 429 219 t b b;
#X obj 591 59 r \$0-seuil;
#X obj 444 147 change;
#X obj 413 76 env~;
#X obj 412 100 t f f;
#X obj 586 259 r \$0-recButton;
#X obj 351 56 delwrite~ \$0-lag 200;
#X obj 355 9 inlet~;
#X obj 614 322 + 1;
#X obj 619 295 mod 3;
#X text 672 319 0 standby;
#X text 674 338 1 arm;
#X text 676 361 2 rec;
#X obj 528 377 select 0 1 2;
#X obj 539 447 s \$0-recButton-rcv;
#X msg 441 405 label REC;
#X msg 546 408 label Waiting;
#X msg 676 408 label Recording;
#X obj 443 264 delay;
#X obj 663 160 - 3;
#X obj 675 110 r \$0-tabosc;
#X obj 675 132 route resize;
#X obj 663 185 / 44.1;
#X obj 498 173 select 1;
#X obj 527 203 spigot;
#X obj 591 176 == 1;
#X obj 437 125 > 80;
#X obj 400 314 delay 10;
#X obj 245 290 r \$0-tabosc;
#X obj 245 312 route resize;
#X obj 214 490 tabread \$0-tabosc;
#X obj 242 342 f;
#X obj 208 542 tabwrite \$0-tabosc;
#X obj 376 384 - 1;
#X msg 338 386 2;
#X obj 300 390 - 2;
#X msg 273 395 1;
#X obj 248 363 t f b b f b f;
#X msg 233 400 0;
#X obj 197 405 - 3;
#X obj 133 178 delread~ \$0-lag;
#X obj 165 121 - 10;
#X obj 175 144 max 0;
#X obj 557 327 f 1;
#X obj 19 237 r \$0-bank;
#X obj 18 268 makefilename \$0-tabosc-%d;
#X msg 69 318 set \$1;
#X connect 1 0 2 0;
#X connect 2 0 3 0;
#X connect 2 0 45 0;
#X connect 3 0 0 0;
#X connect 4 0 0 0;
#X connect 4 1 22 0;
#X connect 5 0 30 1;
#X connect 6 0 27 0;
#X connect 7 0 8 0;
#X connect 8 1 30 0;
#X connect 9 0 47 0;
#X connect 11 0 10 0;
#X connect 12 0 13 0;
#X connect 13 0 47 1;
#X connect 17 0 19 0;
#X connect 17 1 20 0;
#X connect 17 2 21 0;
#X connect 17 2 4 0;
#X connect 19 0 18 0;
#X connect 20 0 18 0;
#X connect 21 0 18 0;
#X connect 22 0 31 0;
#X connect 22 0 47 0;
#X connect 23 0 26 0;
#X connect 24 0 25 0;
#X connect 25 0 23 0;
#X connect 26 0 22 1;
#X connect 27 0 28 0;
#X connect 28 0 47 0;
#X connect 29 0 28 1;
#X connect 30 0 6 0;
#X connect 31 0 35 0;
#X connect 32 0 33 0;
#X connect 33 0 35 1;
#X connect 34 0 36 0;
#X connect 35 0 41 0;
#X connect 37 0 36 1;
#X connect 38 0 34 0;
#X connect 39 0 36 1;
#X connect 40 0 34 0;
#X connect 41 0 43 0;
#X connect 41 1 42 0;
#X connect 41 2 40 0;
#X connect 41 3 39 0;
#X connect 41 4 38 0;
#X connect 41 5 37 0;
#X connect 42 0 36 1;
#X connect 43 0 34 0;
#X connect 44 0 7 0;
#X connect 45 0 46 0;
#X connect 46 0 44 0;
#X connect 47 0 12 0;
#X connect 47 0 17 0;
#X connect 47 0 29 0;
#X connect 48 0 49 0;
#X connect 49 0 50 0;
#X connect 50 0 0 0;
#X connect 50 0 34 0;
#X connect 50 0 36 0;
#X restore 300 383 pd recording;
#X obj 596 435 u_parameter \$0 sens;
#X text 761 434 sensibilité déclenchement enregistrement;
#X text 751 347 0=sinus pur \, 1=tabosc;
#X obj 221 523 route note stop;
#X msg 274 555 stop;
#X obj 101 101 cnv 15 188 68 empty \$0-background inst_tabosc 0 7 0
12 -262144 -1 0;
#X obj 32 163 notein 1;
#X obj 252 100 tgl 15 0 \$0-midiNoteIn \$0-midiNoteIn-rcv Midi 16 7
0 8 -262144 -1 -1 0 1;
#X obj 238 100 vradio 14 1 0 5 \$0-tabsize \$0-tabsize-rcv empty 0
-8 0 10 -262144 -1 -1 4;
#X obj 252 115 ui_vs \$0 vol 0 127;
#X obj 103 114 hsl 50 15 8 500 1 0 \$0-sustain \$0-sustain-rcv sustain
-2 8 0 10 -262144 -1 -1 1800 1;
#X obj 205 110 vsl 15 30 95 70 0 0 \$0-sens \$0-sens-rcv sens -7 -7
0 10 -261234 -1 -1 0 1;
#X obj 182 144 bng 25 250 50 0 \$0-recButton \$0-recButton-rcv REC
2 10 0 10 -262144 -1 -1;
#X text 288 0 2048;
#X text 287 12 4096;
#X text 288 26 8192;
#X text 285 41 16384;
#X text 285 55 32768;
#X obj 189 108 bng 15 250 50 0 \$0-save empty S 5 7 0 10 -4034 -1 -1
;
#X obj 189 123 bng 15 250 50 0 \$0-open empty O 5 7 0 10 -203904 -1
-1;
#X obj 100 140 vsl 20 27 1 0 0 0 \$0-mode \$0-mode-rcv mode 0 -7 0
10 -262144 -1 -1 2600 1;
#N canvas 1 56 517 502 \$0-sinesum 0;
#N canvas 572 63 1103 563 reglages 0;
#X obj 400 169 vsl 50 128 0 0.3 0 0 \$0-harmo7 \$0-harmo7-rcv empty
0 -9 0 10 -262144 -1 -1 0 1;
#X obj 450 169 vsl 50 128 0 0.3 0 0 \$0-harmo8 \$0-harmo8-rcv empty
0 -9 0 10 -262144 -1 -1 0 1;
#X obj 328 21 unpack f f f f f f f f;
#X msg 313 -136 1 0 0 0 0 0 0 0;
#X msg 336 -106 0 1 0 0 0 0 0 0;
#X msg 131 -80 0 0 1 0 0 0 0 0;
#X msg 133 -54 0 0 0 1 0 0 0 0;
#X msg 132 -30 0 0 0 0 1 0 0 0;
#X msg 131 -7 0 0 0 0 0 1 0 0;
#X msg 132 26 0 0 0 0 0 0 1 0;
#X msg 134 52 0 0 0 0 0 0 0 1;
#X obj 400 117 bng 50 250 50 0 empty empty 7' 17 20 0 30 -262144 -1
-1;
#X obj 450 117 bng 50 250 50 0 empty empty 8' 17 20 0 30 -262144 -1
-1;
#X obj 300 169 vsl 50 128 0 0.3 0 0 \$0-harmo5 \$0-harmo5-rcv empty
0 -9 0 10 -262144 -1 -1 300 1;
#X obj 350 169 vsl 50 128 0 0.3 0 0 \$0-harmo6 \$0-harmo6-rcv empty
0 -9 0 10 -262144 -1 -1 9100 1;
#X obj 300 117 bng 50 250 50 0 empty empty 5' 17 20 0 30 -262144 -1
-1;
#X obj 350 117 bng 50 250 50 0 empty empty 6' 17 20 0 30 -262144 -1
-1;
#X obj 200 169 vsl 50 128 0 0.3 0 0 \$0-harmo3 \$0-harmo3-rcv empty
0 -9 0 10 -262144 -1 -1 6600 1;
#X obj 250 169 vsl 50 128 0 0.3 0 0 \$0-harmo4 \$0-harmo4-rcv empty
0 -9 0 10 -262144 -1 -1 11300 1;
#X obj 200 117 bng 50 250 50 0 empty empty 3' 17 20 0 30 -262144 -1
-1;
#X obj 250 117 bng 50 250 50 0 empty empty 4' 17 20 0 30 -262144 -1
-1;
#X obj 100 169 vsl 50 128 0 0.3 0 0 \$0-harmo1 \$0-harmo1-rcv empty
0 -9 0 10 -262144 -1 -1 12700 1;
#X obj 150 169 vsl 50 128 0 0.3 0 0 \$0-harmo2 \$0-harmo2-rcv empty
0 -9 0 10 -262144 -1 -1 11900 1;
#X obj 100 117 bng 50 250 50 0 empty empty 1' 17 20 0 30 -262144 -1
-1;
#X obj 150 117 bng 50 250 50 0 empty empty 2' 17 20 0 30 -262144 -1
-1;
#X obj 53 68 loadbang;
#X connect 2 0 21 0;
#X connect 2 1 22 0;
#X connect 2 2 17 0;
#X connect 2 3 18 0;
#X connect 2 4 13 0;
#X connect 2 5 14 0;
#X connect 2 6 0 0;
#X connect 2 7 1 0;
#X connect 3 0 2 0;
#X connect 4 0 2 0;
#X connect 5 0 2 0;
#X connect 6 0 2 0;
#X connect 7 0 2 0;
#X connect 8 0 2 0;
#X connect 9 0 2 0;
#X connect 10 0 2 0;
#X connect 11 0 9 0;
#X connect 12 0 10 0;
#X connect 15 0 7 0;
#X connect 16 0 8 0;
#X connect 19 0 5 0;
#X connect 20 0 6 0;
#X connect 23 0 3 0;
#X connect 24 0 4 0;
#X connect 25 0 23 0;
#X coords 0 -1 1 1 400 200 1 100 100;
#X restore 64 26 pd reglages;
#X obj 370 270 vsl 20 120 1 0 0 0 \$0-mode \$0-mode-rcv mode 0 -7 0
10 -262144 -1 -1 11900 1;
#X obj 188 288 s pd-\$0-sinesum;
#X msg 182 250 vis 0;
#X msg 256 247 vis 1;
#N canvas 0 50 450 250 (subpatch) 0;
#X array \$0-sinesum 259 float 0;
#X coords 0 1 258 -1 200 100 1 0 0;
#X restore 50 350 graph;
#X text 404 270 sinesum;
#X text 404 370 tabosc;
#X connect 3 0 2 0;
#X connect 4 0 2 0;
#X restore 695 252 pd \$0-sinesum;
#X obj 794 192 s pd-\$0-sinesum;
#X msg 819 166 vis 1;
#X obj 121 139 cnv 15 60 15 empty empty empty 20 12 0 14 -262130 -66577
0;
#X obj 167 139 bng 15 250 50 0 empty empty edit -15 -6 0 10 -262130
-1 -1;
#N canvas 1 56 696 300 sinesum 0;
#X obj 67 17 inlet;
#X obj 69 41 u_parameter \$0 harmo1;
#X obj 67 67 u_parameter \$0 harmo2;
#X obj 65 90 u_parameter \$0 harmo3;
#X obj 69 114 u_parameter \$0 harmo4;
#X obj 72 138 u_parameter \$0 harmo5;
#X obj 74 165 u_parameter \$0 harmo6;
#X obj 71 189 u_parameter \$0 harmo7;
#X obj 76 216 u_parameter \$0 harmo8;
#X connect 0 0 1 0;
#X connect 1 0 2 0;
#X connect 2 0 3 0;
#X connect 3 0 4 0;
#X connect 4 0 5 0;
#X connect 5 0 6 0;
#X connect 6 0 7 0;
#X connect 7 0 8 0;
#X restore 600 569 pd sinesum;
#X obj 278 445 r STOP;
#X text 215 154 740;
#X text 215 141 371;
#X text 215 128 186;
#X text 222 115 92;
#X text 222 102 46;
#X text 122 137 sinsum;
#X obj 121 154 hradio 15 1 0 4 \$0-bank \$0-bank-rcv A 50 8 0 12 -262144
-1 -1 0;
#X text 119 152 tabosc;
#N canvas 477 50 802 507 gestion 0;
#X obj 595 36 r \$0-bank;
#X obj 595 90 select 0 1 2 3;
#X msg 591 123 label A;
#X msg 601 143 label B;
#X msg 671 123 label C;
#X msg 681 143 label D;
#X obj 632 175 s \$0-bank-rcv;
#X obj 401 55 r \$0-tabsize;
#X obj 399 116 pow;
#X msg 399 96 2 \$1;
#X obj 399 76 + 11;
#X obj 399 138 + 3;
#X msg 410 164 resize \$1;
#X obj 114 82 table \$0-tabosc-0 32771;
#X obj 114 102 table \$0-tabosc-1 32771;
#X obj 114 122 table \$0-tabosc-2 32771;
#X obj 114 142 table \$0-tabosc-3 32771;
#X obj 409 237 list prepend 0;
#X obj 685 211 r \$0-bank;
#X obj 415 288 route 0 1 2 3;
#X obj 323 352 s \$0-tabosc-0;
#X obj 443 352 s \$0-tabosc-1;
#X obj 333 382 s \$0-tabosc-2;
#X obj 453 382 s \$0-tabosc-3;
#X obj 253 222 s \$0-tabosc;
#X obj 124 52 table \$0-tabosc 32771;
#X obj 74 224 table \$0-sizes 4;
#X obj 605 273 tabwrite \$0-sizes;
#N canvas 192 78 855 582 tabosc_loading/saving 0;
#X obj 566 197 r \$0-open;
#X obj 234 69 r \$0-save;
#X obj 566 219 openpanel;
#X obj 234 91 savepanel;
#X msg 253 202 0, f 2;
#X obj 166 239 spigot 1;
#X msg 251 159 1;
#X obj 180 352 soundfiler;
#X msg 311 224 write -wave \$1 \$2;
#X obj 243 593 s \$0-tabsize;
#X obj 532 80 r \$0-bank;
#X obj 460 142 makefilename \$0-tabosc-%d;
#X obj 409 417 tabwrite \$0-sizes;
#X obj 251 137 t b s s b;
#X obj 702 110 r \$0-bank;
#X obj 684 162 makefilename \$0-taboscfile-%d;
#X obj 566 244 list append \$0-taboscfile-0;
#X obj 566 266 unpack s s;
#X obj 522 490 s;
#X obj 311 203 list append \$0-tabosc-0;
#X msg 165 303 read -resize \$1 \$2-\$3;
#X obj 165 262 t l l;
#X msg 201 282 \$3;
#N canvas 0 50 450 300 size-to-index 0;
#X obj 113 48 inlet;
#X obj 101 302 outlet;
#X obj 109 93 log;
#X obj 111 72 - 3;
#X obj 109 128 / 0.693147;
#X obj 109 150 - 11;
#X obj 109 192 int;
#X obj 109 214 min 4;
#X obj 109 172 + 0.5;
#X obj 109 236 max 0;
#X connect 0 0 3 0;
#X connect 2 0 4 0;
#X connect 3 0 2 0;
#X connect 4 0 5 0;
#X connect 5 0 8 0;
#X connect 6 0 7 0;
#X connect 7 0 9 0;
#X connect 8 0 6 0;
#X connect 9 0 1 0;
#X restore 162 455 pd size-to-index;
#N canvas 0 50 1113 300 r-\$0taboscfile-# 0;
#X obj 88 241 outlet;
#X obj 24 27 r \$0-taboscfile-0;
#X obj 24 100 list append \$0-tabosc 0;
#X obj 198 25 r \$0-taboscfile-1;
#X obj 198 98 list append \$0-tabosc 1;
#X obj 374 26 r \$0-taboscfile-2;
#X obj 374 99 list append \$0-tabosc 2;
#X obj 551 24 r \$0-taboscfile-3;
#X obj 551 97 list append \$0-tabosc 3;
#X obj 44 67 check_wav_extension;
#X obj 204 67 check_wav_extension;
#X obj 374 67 check_wav_extension;
#X obj 564 67 check_wav_extension;
#X connect 1 0 9 0;
#X connect 2 0 0 0;
#X connect 3 0 10 0;
#X connect 4 0 0 0;
#X connect 5 0 11 0;
#X connect 6 0 0 0;
#X connect 7 0 12 0;
#X connect 8 0 0 0;
#X connect 9 0 2 0;
#X connect 10 0 4 0;
#X connect 11 0 6 0;
#X connect 12 0 8 0;
#X restore 54 186 pd r-\$0taboscfile-#;
#X obj 564 307 check_wav_extension;
#X connect 0 0 2 0;
#X connect 1 0 3 0;
#X connect 2 0 16 0;
#X connect 3 0 13 0;
#X connect 4 0 5 1;
#X connect 5 0 21 0;
#X connect 6 0 5 1;
#X connect 7 0 12 0;
#X connect 7 0 23 0;
#X connect 8 0 7 0;
#X connect 10 0 11 0;
#X connect 11 0 19 1;
#X connect 13 0 6 0;
#X connect 13 1 19 0;
#X connect 13 2 16 0;
#X connect 13 3 4 0;
#X connect 14 0 15 0;
#X connect 15 0 16 1;
#X connect 16 0 17 0;
#X connect 17 0 25 0;
#X connect 17 1 18 1;
#X connect 19 0 8 0;
#X connect 20 0 7 0;
#X connect 21 0 20 0;
#X connect 21 1 22 0;
#X connect 22 0 12 1;
#X connect 23 0 9 0;
#X connect 24 0 5 0;
#X connect 25 0 18 0;
#X restore 54 367 pd tabosc_loading/saving;
#X floatatom 355 166 5 0 0 0 - - -, f 5;
#X obj 125 412 loadbang;
#X obj 123 457 s \$0-sizes;
#X msg 122 431 const 32771;
#X obj 77 260 r \$0-bank;
#X obj 77 282 tabread \$0-sizes;
#N canvas 0 50 450 300 size-to-index 0;
#X obj 113 48 inlet;
#X obj 101 302 outlet;
#X obj 109 93 log;
#X obj 111 72 - 3;
#X obj 109 128 / 0.693147;
#X obj 109 150 - 11;
#X obj 109 272 pipe 10;
#X obj 109 192 int;
#X obj 109 214 min 4;
#X obj 109 172 + 0.5;
#X obj 109 236 max 0;
#X connect 0 0 3 0;
#X connect 2 0 4 0;
#X connect 3 0 2 0;
#X connect 4 0 5 0;
#X connect 5 0 9 0;
#X connect 6 0 1 0;
#X connect 7 0 8 0;
#X connect 8 0 10 0;
#X connect 9 0 7 0;
#X connect 10 0 6 0;
#X restore 72 305 pd size-to-index;
#X msg 72 327 set \$1;
#X obj 171 337 s \$0-tabsize-rcv;
#X connect 0 0 1 0;
#X connect 1 0 2 0;
#X connect 1 1 3 0;
#X connect 1 2 4 0;
#X connect 1 3 5 0;
#X connect 2 0 6 0;
#X connect 3 0 6 0;
#X connect 4 0 6 0;
#X connect 5 0 6 0;
#X connect 7 0 10 0;
#X connect 8 0 11 0;
#X connect 9 0 8 0;
#X connect 10 0 9 0;
#X connect 11 0 12 0;
#X connect 11 0 27 0;
#X connect 11 0 29 0;
#X connect 12 0 17 0;
#X connect 12 0 24 0;
#X connect 17 0 19 0;
#X connect 18 0 17 1;
#X connect 18 0 27 1;
#X connect 19 0 20 0;
#X connect 19 1 21 0;
#X connect 19 2 22 0;
#X connect 19 3 23 0;
#X connect 30 0 32 0;
#X connect 32 0 31 0;
#X connect 33 0 34 0;
#X connect 34 0 35 0;
#X connect 35 0 36 0;
#X connect 36 0 37 0;
#X restore 777 17 pd gestion banque_sons;
#X obj 418 211 r \$0-bank;
#X obj 420 231 makefilename \$0-tabosc-%d;
#X msg 421 252 set \$1;
#X msg 475 297 size \$1;
#X obj 518 274 tabread \$0-sizes;
#X obj 596 549 u_parameter \$0 bank;
#X obj 596 457 u_dispatch \$0 taboscfile-0;
#X obj 596 479 u_dispatch \$0 taboscfile-1;
#X obj 596 501 u_dispatch \$0 taboscfile-2;
#X obj 596 523 u_dispatch \$0 taboscfile-3;
#N canvas 715 54 624 538 midi_mapping 0;
#X obj 71 59 midi-colors \$0 recButton \$0-recButton-rcv;
#X obj 71 81 > 64;
#X obj 71 103 change;
#X obj 71 125 select 1;
#X obj 70 148 s \$0-recButton-rcv;
#X obj 61 219 midi-colors \$0 sustain \$0-sustain-rcv 8 500 log;
#X obj 61 241 s \$0-sustain;
#X obj 81 321 > 64;
#X obj 81 343 change;
#X obj 81 365 select 1;
#X obj 81 299 midi-colors \$0 bank \$0-bank-rcv;
#X obj 182 376 r \$0-bank;
#X obj 104 412 +;
#X obj 104 434 mod 4;
#X obj 104 456 s \$0-bank;
#X msg 91 388 1;
#X obj 251 149 midi-colors \$0 mode \$0-mode-rcv 0 1 lin;
#X obj 251 171 s \$0-mode;
#X connect 0 0 1 0;
#X connect 1 0 2 0;
#X connect 2 0 3 0;
#X connect 3 0 4 0;
#X connect 5 0 6 0;
#X connect 7 0 8 0;
#X connect 8 0 9 0;
#X connect 9 0 15 0;
#X connect 10 0 7 0;
#X connect 11 0 12 1;
#X connect 12 0 13 0;
#X connect 13 0 14 0;
#X connect 15 0 12 0;
#X connect 16 0 17 0;
#X restore 451 376 pd midi_mapping;
#X floatatom 543 333 5 0 0 0 - - -, f 5;
#X obj 158 114 tgl 15 0 \$0-monit \$0-monit-rcv IN 1 7 0 10 -262144
-1 -1 0 1;
#X obj 313 327 r \$0-monit;
#X obj 108 367 *~ 0;
#X obj 228 367 *~ 0;
#X obj 596 368 u_dispatch \$0 monit;
#X text 794 255 <- GUI pour sinesum;
#N canvas 1 56 450 300 sinesum_stuff 0;
#X obj 127 105 t b f;
#X obj 162 93 t b f;
#X obj 219 97 t b f;
#X obj 270 99 t b f;
#X obj 315 101 t b f;
#X obj 371 100 t b f;
#X obj 419 101 t b f;
#X obj 139 150 pack f f f f f f f f;
#X obj 107 266 s \$0-sinesum;
#X msg 112 212 sinesum 256 \$1 \$2 \$3 \$4 \$5 \$6 \$7 \$8;
#X obj 78 106 t b f;
#X obj 112 190 list append;
#X obj 32 183 t b b;
#X obj 16 65 r \$0-harmo1;
#X obj 106 45 r \$0-harmo2;
#X obj 161 70 r \$0-harmo3;
#X obj 216 45 r \$0-harmo4;
#X obj 266 65 r \$0-harmo5;
#X obj 316 45 r \$0-harmo6;
#X obj 376 65 r \$0-harmo7;
#X obj 426 45 r \$0-harmo8;
#X obj 32 161 delay 0;
#X obj 104 234 sinesum \$0-sinesum 256;
#X connect 0 0 21 0;
#X connect 0 1 7 1;
#X connect 1 0 21 0;
#X connect 1 1 7 2;
#X connect 2 0 21 0;
#X connect 2 1 7 3;
#X connect 3 0 21 0;
#X connect 3 1 7 4;
#X connect 4 0 21 0;
#X connect 4 1 7 5;
#X connect 5 0 21 0;
#X connect 5 1 7 6;
#X connect 6 0 21 0;
#X connect 6 1 7 7;
#X connect 7 0 11 1;
#X connect 9 0 22 0;
#X connect 10 0 21 0;
#X connect 10 1 7 0;
#X connect 11 0 9 0;
#X connect 12 0 11 0;
#X connect 12 1 7 0;
#X connect 13 0 10 0;
#X connect 14 0 0 0;
#X connect 15 0 1 0;
#X connect 16 0 2 0;
#X connect 17 0 3 0;
#X connect 18 0 4 0;
#X connect 19 0 5 0;
#X connect 20 0 6 0;
#X connect 21 0 12 0;
#X restore 700 217 pd sinesum_stuff;
#X obj 159 317 inlet~;
#X obj 261 309 inlet~;
#X obj 100 403 outlet~;
#X obj 225 416 outlet~;
#X obj 331 493 inlet data;
#X obj 358 529 outlet data;
#X obj 596 303 module_loader inst_tabosc \$0 \$1;
#X obj 43 274 u_makepoly2 16 1 inst_tabosc/module_tabosc \$0 \$0-tabosc
;
#X obj 954 4 declare -path ../../ressources/core;
#X obj 954 34 declare -path ../../ressources/rj;
#X obj 870 87 declare -path ../../ressources/core/fid_abs_vanilia-0.4
;
#X connect 0 0 72 0;
#X connect 1 0 0 0;
#X connect 2 0 1 1;
#X connect 3 0 4 0;
#X connect 4 0 62 0;
#X connect 5 0 7 0;
#X connect 6 0 67 0;
#X connect 6 1 68 0;
#X connect 7 0 9 0;
#X connect 9 0 52 0;
#X connect 12 0 72 0;
#X connect 12 1 13 0;
#X connect 13 0 72 0;
#X connect 15 0 1 0;
#X connect 15 1 0 1;
#X connect 32 0 31 0;
#X connect 34 0 32 0;
#X connect 36 0 13 0;
#X connect 46 0 47 0;
#X connect 46 0 50 0;
#X connect 47 0 48 0;
#X connect 48 0 72 1;
#X connect 49 0 72 1;
#X connect 50 0 49 0;
#X connect 50 0 57 0;
#X connect 51 0 35 0;
#X connect 52 0 53 0;
#X connect 53 0 54 0;
#X connect 54 0 55 0;
#X connect 55 0 51 0;
#X connect 59 0 60 1;
#X connect 59 0 61 1;
#X connect 60 0 67 0;
#X connect 61 0 68 0;
#X connect 62 0 5 0;
#X connect 65 0 8 0;
#X connect 65 0 60 0;
#X connect 66 0 61 0;
#X connect 66 0 8 0;
#X connect 69 0 12 0;
#X connect 69 0 70 0;
#X connect 71 0 3 0;
#X connect 72 0 6 0;
#X connect 72 1 6 1;
#X coords 0 -1 1 1 190 70 1 100 100;
