#N struct 7427-symarray float x array symbols 7427-sym;
#N struct 7427-sym symbol name float on;
#N struct 7428-symarray float x array symbols 7428-sym;
#N struct 7428-sym symbol name float on;
#N struct 7429-symarray float x array symbols 7429-sym;
#N struct 7429-sym symbol name float on;
#N canvas 100 -18 1213 690 10;
#N canvas 172 83 586 377 LICENSE-GPL 0;
#X text 57 88 This program is free software: you can redistribute it
and/or modify it under the terms of the GNU General Public License
as published by the Free Software Foundation \, either version 3 of
the License \, or (at your option) any later version.;
#X text 58 168 This program is distributed in the hope that it will
be useful \, but WITHOUT ANY WARRANTY \; without even the implied warranty
of MERCHANTABILITY or FITNESS FOR A PARTICULAR PURPOSE. See the GNU
General Public License for more details.;
#X text 57 261 You should have received a copy of the GNU General Public
License along with this program. If not \, see <http://www.gnu.org/licenses/>.
;
#X text 61 54 Copyright (C) 2009 \, Reality Jockey Ltd.;
#X text 60 325 See the file LICENSE.txt for the full license text.
;
#X restore 298 15 pd LICENSE-GPL;
#X obj 356 166 u_subset \$0 filename;
#X obj 806 28 r \$0-index;
#X msg 801 55 set \$1;
#X obj 801 77 s \$0-index-rcv;
#X obj 915 197 route note;
#X msg 501 189 set \$1;
#X obj 486 214 s \$0-index-rcv;
#N canvas 569 71 886 552 gestion 0;
#X msg 386 150 append;
#X obj 342 93 delay 1;
#X obj 327 57 r \$0-append;
#X obj 419 63 r \$0-reset;
#X msg 426 104 reset;
#X obj 283 189 s \$0-subset;
#X obj 520 46 r \$0-update;
#X msg 523 88 update;
#X msg 142 115 next;
#X msg 94 85 prev;
#X obj 93 62 r \$0-prev_file;
#X obj 141 92 r \$0-next_file;
#X obj 62 151 inlet current_index;
#X obj 27 37 r \$0-delete;
#X obj 41 187 f;
#X msg 41 209 delete \$1;
#X obj 488 249 list length;
#X obj 522 197 list trim;
#X obj 522 219 route <subset>;
#X obj 510 168 r \$0-lfilename;
#X obj 342 115 t b b;
#X obj 472 276 f;
#X obj 472 298 - 1;
#X obj 472 320 s \$0-index;
#X text 417 354 placement automatique au dernier élément de la liste
après message append;
#X connect 0 0 5 0;
#X connect 1 0 20 0;
#X connect 2 0 1 0;
#X connect 3 0 4 0;
#X connect 4 0 5 0;
#X connect 6 0 7 0;
#X connect 7 0 5 0;
#X connect 8 0 5 0;
#X connect 9 0 5 0;
#X connect 10 0 9 0;
#X connect 11 0 8 0;
#X connect 12 0 14 1;
#X connect 13 0 14 0;
#X connect 14 0 15 0;
#X connect 15 0 5 0;
#X connect 16 0 21 1;
#X connect 17 0 18 0;
#X connect 18 0 16 0;
#X connect 18 1 16 0;
#X connect 19 0 17 0;
#X connect 20 0 21 0;
#X connect 20 1 0 0;
#X connect 21 0 22 0;
#X connect 22 0 23 0;
#X restore 506 169 pd gestion subset;
#X text 641 363 au chargement de la scène / du préset : précharger
tous les samples dans des samplebank (à réception de lfilename);
#X obj 101 101 cnv 15 188 68 empty \$0-background inst_pcm 0 7 0 14
-260818 -1 0;
#X obj 290 63 tgl 15 0 \$0-loop \$0-loop-rcv LOOP 17 7 0 10 -262144
-1 -1 0 1;
#X obj 800 179 inlet~;
#X obj 856 181 inlet~;
#X obj 798 229 outlet~;
#X obj 856 230 outlet~;
#X obj 937 175 inlet data;
#X obj 938 232 outlet data;
#X obj 356 89 module_loader inst_pcm \$0 \$1;
#X obj 116 129 vsl 70 17 1 0 0 0 \$0-presets \$0-presets-rcv GrandPiano
2 5 0 10 -232576 -232576 -1 800 1;
#N canvas 675 54 685 529 multitab 0;
#X obj 131 80 r \$0-guitab;
#X obj 65 124 s \$0-guitab-rcv;
#X msg 38 100 set \$1;
#X text 232 279 Xunits/pixel Yunits/px gop xfrom yfrom xto yto width
heught xmargin ymargin;
#X obj 191 162 t f b;
#X obj 274 230 s \$0-multitab;
#X obj 160 199 * 100;
#X obj 162 220 + 100;
#X msg 152 400 donecanvasdialog 1 -1 1 0 0 1 1 190 70 100 \$1 \, dirty
0;
#X obj 110 298 t b f;
#X obj 162 242 pipe 100;
#X msg 230 194 donecanvasdialog 1 -1 0 0 0 1 1 190 70 100 \$1;
#X obj 283 141 f 100;
#X connect 0 0 2 0;
#X connect 0 0 4 0;
#X connect 2 0 1 0;
#X connect 4 0 6 0;
#X connect 4 1 12 0;
#X connect 6 0 7 0;
#X connect 7 0 10 0;
#X connect 7 0 12 1;
#X connect 8 0 5 0;
#X connect 9 1 8 0;
#X connect 10 0 9 0;
#X connect 11 0 5 0;
#X connect 12 0 11 0;
#X restore 603 51 pd multitab;
#X obj 526 25 namecanvas \$0-multitab;
#X obj 101 301 cnv 15 188 68 empty \$0-background inst_pcm 0 7 0 14
-260818 -1 0;
#X floatatom 165 328 10 0 127 0 root_key #0-root_key-rcv #0-root_key
, f 10;
#X symbolatom 193 328 6 0 0 0 - #0-root_key_display-rcv -, f 6;
#X floatatom 165 342 10 0 127 0 low_key #0-low_key-rcv #0-low_key,
f 10;
#X symbolatom 193 342 6 0 0 0 - #0-low_key_display-rcv -, f 6;
#X floatatom 165 356 10 0 127 0 high_key #0-high_key-rcv #0-high_key
, f 10;
#X symbolatom 193 356 6 0 0 0 - #0-high_key_display-rcv -, f 6;
#X obj 101 401 cnv 15 188 68 empty \$0-background inst_pcm 0 7 0 14
-260818 -1 0;
#X obj 105 431 hsl 100 15 0 127 0 0 \$0-start \$0-start-rcv START 4
8 0 10 -262144 -1 -1 0 1;
#X obj 105 446 hsl 100 15 0 127 0 0 \$0-end \$0-end-rcv END 4 8 0 10
-262144 -1 -1 0 1;
#X obj 356 276 u_parameter_subset \$0 root_key;
#X obj 356 296 u_parameter_subset \$0 low_key;
#X obj 356 316 u_parameter_subset \$0 high_key;
#X obj 213 447 tgl 15 0 \$0-loop \$0-loop-rcv LOOP 17 7 0 10 -262144
-1 -1 0 1;
#X obj 101 201 cnv 15 188 68 empty \$0-background inst_pcm 0 7 0 14
-260818 -1 0;
#X obj 170 200 hradio 15 1 0 5 \$0-guitab \$0-guitab-rcv empty 0 -8
0 10 -191407 -1 -1 0;
#X obj 127 242 cnv 12 1 1 empty \$0-samplename-rcv P200_Piano_C10(L).wav
2 6 0 10 -262144 -66577 0;
#X obj 183 219 bng 20 250 50 0 \$0-load_sample empty CHANGE 2 10 0
10 -262144 -1 -1;
#X obj 244 114 ui_vs \$0 vol 0 127;
#X obj 170 100 bng 15 250 50 0 empty empty EDIT 17 7 0 10 -262144 -1
-1;
#X obj 149 62 s \$0-guitab-rcv;
#X msg 170 35 1;
#X obj 101 501 cnv 15 188 68 empty \$0-background inst_pcm 0 7 0 14
-260818 -1 0;
#X obj 170 300 hradio 15 1 0 5 \$0-guitab \$0-guitab-rcv empty 0 -8
0 10 -191407 -1 -1 0;
#X obj 170 400 hradio 15 1 0 5 \$0-guitab \$0-guitab-rcv empty 0 -8
0 10 -191407 -1 -1 0;
#X obj 170 500 hradio 15 1 0 5 \$0-guitab \$0-guitab-rcv empty 0 -8
0 10 -191407 -1 -1 0;
#X obj 356 142 u_dispatch \$0 path;
#X obj 673 60 r \$0-load_sample;
#X obj 673 82 openpanel;
#X obj 673 166 s \$0-path;
#X obj 774 125 s \$0-filename;
#X msg 664 299 label \$1;
#X obj 649 199 r \$0-filename;
#X obj 664 321 s \$0-samplename-rcv;
#X obj 356 233 u_parameter_subset \$0 start;
#X obj 356 256 u_parameter_subset \$0 end;
#X obj 108 518 cnv 12 1 1 empty \$0-samplename-rcv P200_Piano_C10(L).wav
2 6 0 10 -262144 -66577 0;
#X obj 120 537 bng 15 250 50 0 \$0-append empty append 17 7 0 10 -262144
-1 -1;
#X obj 185 554 bng 15 250 50 0 \$0-reset empty reset_all 17 7 0 10
-262144 -1 -1;
#X obj 120 552 bng 15 250 50 0 \$0-update empty update 17 7 0 10 -262144
-1 -1;
#X obj 247 230 bng 15 250 50 0 \$0-update empty update 2 7 0 10 -258113
-1 -1;
#X obj 273 200 bng 15 250 50 0 \$0-next_file \$0-next_file-rcv > 5
7 0 10 -262144 -1 -1;
#X obj 259 200 bng 15 250 50 0 \$0-prev_file \$0-prev_file-rcv < 5
7 0 10 -262144 -1 -1;
#X floatatom 259 215 4 0 0 0 - #0-index-rcv -, f 4;
#X obj 273 300 bng 15 250 50 0 \$0-next_file \$0-next_file-rcv > 5
7 0 10 -262144 -1 -1;
#X obj 259 300 bng 15 250 50 0 \$0-prev_file \$0-prev_file-rcv < 5
7 0 10 -262144 -1 -1;
#X floatatom 259 315 4 0 0 0 - #0-index-rcv -, f 4;
#X obj 273 400 bng 15 250 50 0 \$0-next_file \$0-next_file-rcv > 5
7 0 10 -262144 -1 -1;
#X obj 259 400 bng 15 250 50 0 \$0-prev_file \$0-prev_file-rcv < 5
7 0 10 -262144 -1 -1;
#X floatatom 259 415 4 0 0 0 - #0-index-rcv -, f 4;
#X obj 247 330 bng 15 250 50 0 \$0-update empty update 2 7 0 10 -258113
-1 -1;
#X obj 247 430 bng 15 250 50 0 \$0-update empty update 2 7 0 10 -258113
-1 -1;
#X obj 271 500 bng 15 250 50 0 \$0-next_file \$0-next_file-rcv > 5
7 0 10 -262144 -1 -1;
#X obj 257 500 bng 15 250 50 0 \$0-prev_file \$0-prev_file-rcv < 5
7 0 10 -262144 -1 -1;
#X floatatom 257 515 4 0 0 0 - #0-index-rcv -, f 4;
#X obj 185 538 bng 15 250 50 0 \$0-delete empty delete 17 7 0 10 -262144
-1 -1;
#N canvas 458 61 643 448 midi2notename 0;
#N canvas 473 338 450 300 count 0;
#X obj 131 154 f 0;
#X obj 156 153 + 1;
#X msg 147 133 0;
#X obj 131 183 outlet;
#X obj 131 59 inlet;
#X obj 131 96 b;
#X obj 178 61 inlet;
#X obj 178 98 b;
#X connect 0 0 1 0;
#X connect 0 0 3 0;
#X connect 1 0 0 1;
#X connect 2 0 0 1;
#X connect 4 0 5 0;
#X connect 5 0 0 0;
#X connect 6 0 7 0;
#X connect 7 0 2 0;
#X restore 330 219 pd count;
#X msg 249 169 c \, c# \, d \, d# \, e \, f \, f# \, g \, g# \, a \,
a# \, b;
#X obj 249 194 t a b;
#X obj 249 243 list prepend;
#X msg 173 243 reset;
#X obj 249 144 t b b b;
#X text -2 162 Notes example:;
#X msg 114 244 print;
#X msg 114 219 dump;
#X obj 161 268 m_symbolarray;
#X obj 252 117 loadbang;
#X obj 165 163 mod 12;
#X obj 229 113 bng 15 250 50 0 empty empty empty 17 7 0 10 -262144
-1 -1;
#X obj 166 127 t f f;
#X obj 159 297 list append;
#X obj 166 104 - 24;
#X floatatom 177 215 5 0 0 0 - - -, f 5;
#X obj 188 192 div 12;
#X obj 171 76 t f f;
#X obj 164 321 list append;
#X obj 161 50 route set;
#X msg 150 363 symbol (\$1\$2);
#X obj 147 27 r \$0-root_key-rcv;
#X obj 152 385 s \$0-root_key_display-rcv;
#X connect 0 0 3 1;
#X connect 1 0 2 0;
#X connect 2 0 3 0;
#X connect 2 1 0 0;
#X connect 3 0 9 1;
#X connect 4 0 9 0;
#X connect 5 0 1 0;
#X connect 5 1 4 0;
#X connect 5 2 0 1;
#X connect 7 0 9 0;
#X connect 8 0 9 0;
#X connect 9 0 14 0;
#X connect 10 0 5 0;
#X connect 11 0 9 0;
#X connect 12 0 5 0;
#X connect 13 0 11 0;
#X connect 13 1 17 0;
#X connect 14 0 19 0;
#X connect 15 0 13 0;
#X connect 17 0 16 0;
#X connect 17 0 14 1;
#X connect 18 0 15 0;
#X connect 18 1 19 1;
#X connect 19 0 21 0;
#X connect 20 0 18 0;
#X connect 21 0 23 0;
#X connect 22 0 20 0;
#X restore 678 518 pd midi2notename;
#N canvas 458 61 643 448 midi2notename 0;
#N canvas 473 338 450 300 count 0;
#X obj 131 154 f 0;
#X obj 156 153 + 1;
#X msg 147 133 0;
#X obj 131 183 outlet;
#X obj 131 59 inlet;
#X obj 131 96 b;
#X obj 178 61 inlet;
#X obj 178 98 b;
#X connect 0 0 1 0;
#X connect 0 0 3 0;
#X connect 1 0 0 1;
#X connect 2 0 0 1;
#X connect 4 0 5 0;
#X connect 5 0 0 0;
#X connect 6 0 7 0;
#X connect 7 0 2 0;
#X restore 330 219 pd count;
#X msg 249 169 c \, c# \, d \, d# \, e \, f \, f# \, g \, g# \, a \,
a# \, b;
#X obj 249 194 t a b;
#X obj 249 243 list prepend;
#X msg 173 243 reset;
#X obj 249 144 t b b b;
#X text -2 162 Notes example:;
#X msg 114 244 print;
#X msg 114 219 dump;
#X obj 161 268 m_symbolarray;
#X obj 252 117 loadbang;
#X obj 165 163 mod 12;
#X obj 229 113 bng 15 250 50 0 empty empty empty 17 7 0 10 -262144
-1 -1;
#X obj 166 127 t f f;
#X obj 159 297 list append;
#X obj 166 104 - 24;
#X floatatom 177 215 5 0 0 0 - - -, f 5;
#X obj 188 192 div 12;
#X obj 171 76 t f f;
#X obj 164 321 list append;
#X obj 161 50 route set;
#X msg 150 363 symbol (\$1\$2);
#X obj 147 27 r \$0-low_key-rcv;
#X obj 152 385 s \$0-low_key_display-rcv;
#X connect 0 0 3 1;
#X connect 1 0 2 0;
#X connect 2 0 3 0;
#X connect 2 1 0 0;
#X connect 3 0 9 1;
#X connect 4 0 9 0;
#X connect 5 0 1 0;
#X connect 5 1 4 0;
#X connect 5 2 0 1;
#X connect 7 0 9 0;
#X connect 8 0 9 0;
#X connect 9 0 14 0;
#X connect 10 0 5 0;
#X connect 11 0 9 0;
#X connect 12 0 5 0;
#X connect 13 0 11 0;
#X connect 13 1 17 0;
#X connect 14 0 19 0;
#X connect 15 0 13 0;
#X connect 17 0 16 0;
#X connect 17 0 14 1;
#X connect 18 0 15 0;
#X connect 18 1 19 1;
#X connect 19 0 21 0;
#X connect 20 0 18 0;
#X connect 21 0 23 0;
#X connect 22 0 20 0;
#X restore 678 538 pd midi2notename;
#N canvas 458 61 643 448 midi2notename 0;
#N canvas 473 338 450 300 count 0;
#X obj 131 154 f 0;
#X obj 156 153 + 1;
#X msg 147 133 0;
#X obj 131 183 outlet;
#X obj 131 59 inlet;
#X obj 131 96 b;
#X obj 178 61 inlet;
#X obj 178 98 b;
#X connect 0 0 1 0;
#X connect 0 0 3 0;
#X connect 1 0 0 1;
#X connect 2 0 0 1;
#X connect 4 0 5 0;
#X connect 5 0 0 0;
#X connect 6 0 7 0;
#X connect 7 0 2 0;
#X restore 330 219 pd count;
#X msg 249 169 c \, c# \, d \, d# \, e \, f \, f# \, g \, g# \, a \,
a# \, b;
#X obj 249 194 t a b;
#X obj 249 243 list prepend;
#X msg 173 243 reset;
#X obj 249 144 t b b b;
#X text -2 162 Notes example:;
#X msg 114 244 print;
#X msg 114 219 dump;
#X obj 161 268 m_symbolarray;
#X obj 252 117 loadbang;
#X obj 165 163 mod 12;
#X obj 229 113 bng 15 250 50 0 empty empty empty 17 7 0 10 -262144
-1 -1;
#X obj 166 127 t f f;
#X obj 159 297 list append;
#X obj 166 104 - 24;
#X floatatom 177 215 5 0 0 0 - - -, f 5;
#X obj 188 192 div 12;
#X obj 171 76 t f f;
#X obj 164 321 list append;
#X obj 161 50 route set;
#X msg 150 363 symbol (\$1\$2);
#X obj 147 27 r \$0-high_key-rcv;
#X obj 152 385 s \$0-high_key_display-rcv;
#X connect 0 0 3 1;
#X connect 1 0 2 0;
#X connect 2 0 3 0;
#X connect 2 1 0 0;
#X connect 3 0 9 1;
#X connect 4 0 9 0;
#X connect 5 0 1 0;
#X connect 5 1 4 0;
#X connect 5 2 0 1;
#X connect 7 0 9 0;
#X connect 8 0 9 0;
#X connect 9 0 14 0;
#X connect 10 0 5 0;
#X connect 11 0 9 0;
#X connect 12 0 5 0;
#X connect 13 0 11 0;
#X connect 13 1 17 0;
#X connect 14 0 19 0;
#X connect 15 0 13 0;
#X connect 17 0 16 0;
#X connect 17 0 14 1;
#X connect 18 0 15 0;
#X connect 18 1 19 1;
#X connect 19 0 21 0;
#X connect 20 0 18 0;
#X connect 21 0 23 0;
#X connect 22 0 20 0;
#X restore 678 558 pd midi2notename;
#X text 98 414 loop_mode;
#N canvas 0 50 1288 620 mapped_sample_bank 0;
#X obj 98 82 list trim;
#X obj 98 104 route <subset>;
#X obj 86 53 r \$0-llow_key;
#X obj 283 68 list trim;
#X obj 285 91 route <subset>;
#X obj 281 47 r \$0-lhigh_key;
#X obj 104 143 list prepend low_key;
#X obj 285 113 list prepend high_key;
#X obj 503 68 list trim;
#X obj 505 91 route <subset>;
#X obj 501 47 r \$0-lfilename;
#X obj 505 113 list prepend filename;
#X obj 179 358 inst_pcm/u_mapped_samplebank \$0;
#X obj 663 68 list trim;
#X obj 665 91 route <subset>;
#X obj 661 47 r \$0-lroot_key;
#X obj 665 113 list prepend root_key;
#X obj 292 212 inlet;
#X obj 751 171 print root;
#X obj 104 165 print low;
#X obj 873 68 list trim;
#X obj 875 91 route <subset>;
#X obj 871 47 r \$0-lsr;
#X obj 875 113 list prepend sr;
#X obj 179 380 inst_pcm/u_mapped_samplebank \$0;
#X obj 179 402 inst_pcm/u_mapped_samplebank \$0;
#X obj 179 424 inst_pcm/u_mapped_samplebank \$0;
#X obj 179 448 inst_pcm/u_mapped_samplebank \$0;
#X obj 179 470 inst_pcm/u_mapped_samplebank \$0;
#X obj 179 492 inst_pcm/u_mapped_samplebank \$0;
#X obj 179 514 inst_pcm/u_mapped_samplebank \$0;
#X obj 449 358 inst_pcm/u_mapped_samplebank \$0;
#X obj 449 380 inst_pcm/u_mapped_samplebank \$0;
#X obj 449 402 inst_pcm/u_mapped_samplebank \$0;
#X obj 449 424 inst_pcm/u_mapped_samplebank \$0;
#X obj 449 448 inst_pcm/u_mapped_samplebank \$0;
#X obj 449 470 inst_pcm/u_mapped_samplebank \$0;
#X obj 449 492 inst_pcm/u_mapped_samplebank \$0;
#X obj 449 514 inst_pcm/u_mapped_samplebank \$0;
#X obj 709 358 inst_pcm/u_mapped_samplebank \$0;
#X obj 709 380 inst_pcm/u_mapped_samplebank \$0;
#X obj 709 402 inst_pcm/u_mapped_samplebank \$0;
#X obj 709 424 inst_pcm/u_mapped_samplebank \$0;
#X obj 709 448 inst_pcm/u_mapped_samplebank \$0;
#X obj 709 470 inst_pcm/u_mapped_samplebank \$0;
#X obj 709 492 inst_pcm/u_mapped_samplebank \$0;
#X obj 709 514 inst_pcm/u_mapped_samplebank \$0;
#X obj 979 358 inst_pcm/u_mapped_samplebank \$0;
#X obj 979 380 inst_pcm/u_mapped_samplebank \$0;
#X obj 979 402 inst_pcm/u_mapped_samplebank \$0;
#X obj 979 424 inst_pcm/u_mapped_samplebank \$0;
#X obj 979 448 inst_pcm/u_mapped_samplebank \$0;
#X obj 979 470 inst_pcm/u_mapped_samplebank \$0;
#X obj 979 492 inst_pcm/u_mapped_samplebank \$0;
#X obj 979 514 inst_pcm/u_mapped_samplebank \$0;
#X connect 0 0 1 0;
#X connect 1 0 6 0;
#X connect 1 1 6 0;
#X connect 2 0 0 0;
#X connect 3 0 4 0;
#X connect 4 0 7 0;
#X connect 4 1 7 0;
#X connect 5 0 3 0;
#X connect 6 0 12 0;
#X connect 6 0 19 0;
#X connect 7 0 12 0;
#X connect 8 0 9 0;
#X connect 9 0 11 0;
#X connect 9 1 11 0;
#X connect 10 0 8 0;
#X connect 11 0 12 0;
#X connect 12 0 24 0;
#X connect 13 0 14 0;
#X connect 14 0 16 0;
#X connect 14 1 16 0;
#X connect 15 0 13 0;
#X connect 16 0 12 0;
#X connect 16 0 18 0;
#X connect 17 0 12 0;
#X connect 20 0 21 0;
#X connect 21 0 23 0;
#X connect 21 1 23 0;
#X connect 22 0 20 0;
#X connect 23 0 12 0;
#X connect 24 0 25 0;
#X connect 25 0 26 0;
#X connect 26 0 27 0;
#X connect 27 0 28 0;
#X connect 28 0 29 0;
#X connect 29 0 30 0;
#X connect 30 0 31 0;
#X connect 31 0 32 0;
#X connect 32 0 33 0;
#X connect 33 0 34 0;
#X connect 34 0 35 0;
#X connect 35 0 36 0;
#X connect 36 0 37 0;
#X connect 37 0 38 0;
#X connect 38 0 39 0;
#X connect 39 0 40 0;
#X connect 40 0 41 0;
#X connect 41 0 42 0;
#X connect 42 0 43 0;
#X connect 43 0 44 0;
#X connect 44 0 45 0;
#X connect 45 0 46 0;
#X connect 46 0 47 0;
#X connect 47 0 48 0;
#X connect 48 0 49 0;
#X connect 49 0 50 0;
#X connect 50 0 51 0;
#X connect 51 0 52 0;
#X connect 52 0 53 0;
#X connect 53 0 54 0;
#X restore 391 366 pd mapped_sample_bank;
#X obj 355 400 r \$0-u_mapped_samplebank_output;
#X obj 355 449 fid_abs_vanilia-0.4/fid_multiplex 16;
#X obj 375 634 clone -x -s 1 16 s_playtable2;
#X obj 446 479 list split 2;
#X msg 449 508 \$2 \$1;
#X obj 449 530 list append;
#X obj 449 552 list trim;
#X msg 521 602 \$1 stop;
#X obj 448 572 route remove add;
#X obj 872 425 loadbang;
#X obj 373 667 *~;
#X obj 784 648 lop~ 1;
#X obj 890 593 r \$0-vol;
#X obj 890 615 dbtorms;
#X obj 530 658 *~;
#X obj 408 122 u_dispatch \$0 vol;
#X obj 673 104 splitfilename /;
#X obj 590 464 list split 1;
#X obj 612 558 dbtorms;
#X obj 612 580 list append;
#X floatatom 182 254 7 9000 196000 0 SampleRate #0-sr-rcv #0-sr, f
7;
#X obj 356 338 u_parameter_subset \$0 sr;
#X floatatom 567 245 5 0 0 0 - - -, f 5;
#X obj 158 219 bng 20 250 50 0 \$0-add_sample empty ADD 2 10 0 10 -262144
-1 -1;
#X text 111 222 SAMPLE;
#X obj 933 62 openpanel;
#X obj 1051 209 s \$0-path;
#X obj 1074 135 s \$0-filename;
#X obj 973 114 splitfilename /;
#X obj 933 40 r \$0-add_sample;
#X obj 933 84 t b s;
#X obj 883 136 s \$0-append;
#X msg 623 631 \$2 \$4 \$1 \$3;
#X msg 743 607 \$2 sr \$5;
#X obj 612 602 t l l;
#X obj 649 221 symbol;
#X obj 848 510 s \$0-sr;
#X msg 848 479 44100;
#X obj 583 136 splitfilename /;
#X obj 973 144 splitfilename /;
#X obj 1087 178 print splitpath;
#X obj 1089 282 print path;
#X obj 1103 246 r \$0-path;
#X obj 590 486 / 1.27;
#X connect 1 0 56 0;
#X connect 1 1 6 0;
#X connect 1 1 8 0;
#X connect 2 0 3 0;
#X connect 3 0 4 0;
#X connect 5 0 82 0;
#X connect 6 0 7 0;
#X connect 12 0 14 0;
#X connect 13 0 15 0;
#X connect 16 0 5 0;
#X connect 16 0 17 0;
#X connect 18 0 98 0;
#X connect 32 0 33 0;
#X connect 33 0 34 0;
#X connect 34 0 104 0;
#X connect 41 0 43 0;
#X connect 43 0 42 0;
#X connect 48 0 1 0;
#X connect 49 0 50 0;
#X connect 50 0 99 0;
#X connect 53 0 55 0;
#X connect 54 0 118 0;
#X connect 56 0 57 0;
#X connect 56 1 105 0;
#X connect 57 0 32 0;
#X connect 83 0 84 0;
#X connect 84 0 86 0;
#X connect 85 0 93 0;
#X connect 85 1 97 0;
#X connect 86 0 87 0;
#X connect 86 1 88 1;
#X connect 87 0 88 0;
#X connect 88 0 89 0;
#X connect 89 0 91 0;
#X connect 90 0 85 1;
#X connect 91 0 90 0;
#X connect 91 2 100 0;
#X connect 92 0 120 0;
#X connect 93 0 14 0;
#X connect 94 0 93 1;
#X connect 94 0 97 1;
#X connect 95 0 96 0;
#X connect 96 0 94 0;
#X connect 97 0 15 0;
#X connect 98 0 48 0;
#X connect 99 0 121 0;
#X connect 99 1 52 0;
#X connect 100 0 126 0;
#X connect 100 1 102 1;
#X connect 101 0 102 0;
#X connect 102 0 117 0;
#X connect 108 0 113 0;
#X connect 111 0 122 0;
#X connect 111 1 110 0;
#X connect 112 0 108 0;
#X connect 113 0 114 0;
#X connect 113 1 111 0;
#X connect 115 0 85 0;
#X connect 116 0 85 1;
#X connect 117 0 115 0;
#X connect 117 1 116 0;
#X connect 118 0 53 0;
#X connect 120 0 119 0;
#X connect 121 1 51 0;
#X connect 122 1 109 0;
#X connect 122 1 123 0;
#X connect 125 0 124 0;
#X connect 126 0 101 0;
#X coords 0 0 1 1 190 70 1 100 100;
