#N canvas 203 56 981 595 10;
#X declare -path ../../ressources/core;
#X declare -path ../../ressources/rj;
#X obj 191 51 makenote 100 100;
#N canvas 145 50 577 652 random 0;
#X obj 100 99 select 1;
#X obj 100 35 inlet;
#X obj 174 203 * 200;
#X obj 174 231 t a a;
#X obj 449 409 outlet;
#X obj 174 144 random 4;
#X obj 174 169 + 1;
#X obj 174 268 delay;
#X obj 100 60 t a a;
#X obj 340 192 spigot 1;
#X obj 100 479 outlet;
#X obj 259 473 outlet;
#X obj 100 332 t b b b;
#X obj 269 39 inlet;
#X obj 449 380 - 1;
#X obj 259 367 random 40;
#X obj 259 387 + 40;
#X obj 100 451 m_majorscale 48;
#X obj 100 375 random 16;
#X connect 0 0 5 0;
#X connect 1 0 8 0;
#X connect 2 0 3 0;
#X connect 3 0 7 0;
#X connect 3 0 12 0;
#X connect 3 1 14 0;
#X connect 5 0 6 0;
#X connect 6 0 2 0;
#X connect 7 0 9 0;
#X connect 8 0 0 0;
#X connect 8 1 9 1;
#X connect 9 0 5 0;
#X connect 12 0 18 0;
#X connect 12 2 15 0;
#X connect 13 0 2 1;
#X connect 14 0 4 0;
#X connect 15 0 16 0;
#X connect 16 0 11 0;
#X connect 17 0 10 0;
#X connect 18 0 17 0;
#X restore 214 11 pd random notes;
#X obj 259 390 delwrite~ \$0-line 10;
#X obj 275 441 delread~ \$0-line 10;
#X obj 221 523 route note;
#X obj 49 343 u_makepoly 8 1 inst_rhodey/s_rhodey \$0-MYINST;
#X obj 622 387 u_dispatch \$0 decay;
#X obj 622 283 u_dispatch \$0 tone;
#X obj 622 303 u_dispatch \$0 mod;
#X obj 622 324 u_dispatch \$0 vib-freq;
#X obj 622 346 u_dispatch \$0 vib-depth;
#X obj 621 366 u_dispatch \$0 adsr24;
#X obj 374 259 r \$0-decay;
#X msg 375 289 decay \$1;
#X obj 500 269 r \$0-tone;
#X msg 496 293 tone \$1;
#X obj 626 425 u_parameter \$0 midiNoteIn;
#X obj 626 491 u_dispatch \$0 vol;
#N canvas 0 50 494 446 vol 0;
#X obj -3 -16 inlet~;
#X obj 79 335 outlet~;
#X obj 155 332 outlet~;
#X obj 82 14 dbtorms;
#X text 159 13 Vol (0-127);
#X obj 80 98 line~;
#X obj 34 139 *~;
#X obj 50 -14 inlet~;
#X obj 74 147 *~;
#X msg 80 66 \$1 20;
#X obj 184 -12 r \$0-vol;
#X obj 82 36 * 0.2;
#X connect 0 0 6 0;
#X connect 3 0 11 0;
#X connect 5 0 6 1;
#X connect 5 0 8 1;
#X connect 6 0 1 0;
#X connect 7 0 8 0;
#X connect 8 0 2 0;
#X connect 9 0 5 0;
#X connect 10 0 3 0;
#X connect 11 0 9 0;
#X restore 127 372 pd vol;
#X obj 108 264 inlet~;
#X obj 230 258 inlet~;
#X obj 72 460 outlet~;
#X obj 206 469 outlet~;
#X obj 331 493 inlet data;
#X obj 358 529 outlet data;
#X obj 101 101 cnv 15 188 68 empty \$0-background inst_rhodey 0 7 0
14 -262144 -1 0;
#X obj 622 151 module_loader inst_rhodey \$0 \$1;
#X obj 100 115 ui_vs \$0 decay 1 3000;
#X obj 138 115 ui_vs \$0 tone 0 1;
#X obj 197 135 bng 15 250 50 0 empty empty empty 17 7 0 10 -262144
-1 -1;
#X obj 32 163 notein 1;
#X obj 45 216 pack f f;
#X obj 52 187 spigot;
#X obj 192 194 r \$0-midiNoteIn;
#X obj 227 153 tgl 15 0 \$0-midiNoteIn \$0-midiNoteIn-rcv omni_notein
-50 7 0 10 -262144 -1 -1 0 1;
#X obj 252 115 ui_vs \$0 vol 0 127;
#X obj 534 4 declare -path ../../ressources/core;
#X obj 534 34 declare -path ../../ressources/rj;
#X connect 1 0 0 0;
#X connect 1 1 0 1;
#X connect 1 2 0 2;
#X connect 3 0 22 0;
#X connect 4 0 5 0;
#X connect 4 0 29 0;
#X connect 4 1 26 0;
#X connect 5 0 18 0;
#X connect 5 1 18 1;
#X connect 6 0 16 0;
#X connect 7 0 8 0;
#X connect 8 0 9 0;
#X connect 9 0 10 0;
#X connect 10 0 11 0;
#X connect 11 0 6 0;
#X connect 12 0 13 0;
#X connect 13 0 5 1;
#X connect 14 0 15 0;
#X connect 15 0 5 1;
#X connect 16 0 17 0;
#X connect 18 0 21 0;
#X connect 18 1 2 0;
#X connect 19 0 21 0;
#X connect 20 0 22 0;
#X connect 23 0 4 0;
#X connect 23 0 24 0;
#X connect 26 0 7 0;
#X connect 30 0 32 0;
#X connect 30 1 31 1;
#X connect 31 0 5 0;
#X connect 32 0 31 0;
#X connect 33 0 32 1;
#X coords 0 -1 1 1 190 70 1 100 100;
