#N struct 1735-symarray float x array symbols 1735-sym;
#N struct 1735-sym symbol name float on;
#N struct 1736-symarray float x array symbols 1736-sym;
#N struct 1736-sym symbol name float on;
#N struct 1737-symarray float x array symbols 1737-sym;
#N struct 1737-sym symbol name float on;
#N canvas 1 59 1280 691 10;
#X declare -path ../../ressources/core;
#X declare -path ../../ressources/rj;
#X declare -path ../../ressources/core/fid_abs_vanilia-0.4;
#X text 395 69 ui_hsl \$0 name min max;
#X obj 580 102 vsl 70 17 1 0 0 0 \$0-presets \$0-presets-rcv TestDj
2 5 0 10 -232576 -232576 -1 0 1;
#X obj 101 101 cnv 15 188 68 empty \$0-background inst_pvoc 0 7 0 14
-262144 -1 0;
#X obj 101 117 vsl 70 17 1 0 0 0 \$0-presets \$0-presets-rcv TestDj
2 5 0 10 -232576 -232576 -1 0 1;
#N canvas 675 54 685 529 multitab 0;
#X obj 131 80 r \$0-guitab;
#X obj 65 124 s \$0-guitab-rcv;
#X msg 38 100 set \$1;
#X text 232 279 Xunits/pixel Yunits/px gop xfrom yfrom xto yto width
heught xmargin ymargin;
#X obj 191 162 t f b;
#X obj 274 230 s \$0-multitab;
#X obj 160 199 * 100;
#X obj 162 220 + 100;
#X msg 152 400 donecanvasdialog 1 -1 1 0 0 1 1 190 70 100 \$1 \, dirty
0;
#X obj 110 298 t b f;
#X obj 162 242 pipe 100;
#X msg 230 194 donecanvasdialog 1 -1 0 0 0 1 1 190 70 100 \$1;
#X obj 283 141 f 100;
#X connect 0 0 2 0;
#X connect 0 0 4 0;
#X connect 2 0 1 0;
#X connect 4 0 6 0;
#X connect 4 1 12 0;
#X connect 6 0 7 0;
#X connect 7 0 10 0;
#X connect 7 0 12 1;
#X connect 8 0 5 0;
#X connect 9 1 8 0;
#X connect 10 0 9 0;
#X connect 11 0 5 0;
#X connect 12 0 11 0;
#X restore 603 51 pd multitab;
#X obj 526 25 namecanvas \$0-multitab;
#X obj 101 301 cnv 15 188 68 empty \$0-background inst_pvoc 0 7 0 14
-262144 -1 0;
#X floatatom 163 325 10 0 127 0 root_key #0-root_key-rcv #0-root_key
, f 10;
#X symbolatom 191 325 6 0 0 0 - #0-root_key_display-rcv -, f 6;
#X floatatom 163 339 10 0 127 0 low_key #0-low_key-rcv #0-low_key,
f 10;
#X symbolatom 191 339 6 0 0 0 - #0-low_key_display-rcv -, f 6;
#X floatatom 163 353 10 0 127 0 high_key #0-high_key-rcv #0-high_key
, f 10;
#X symbolatom 191 353 6 0 0 0 - #0-high_key_display-rcv -, f 6;
#X obj 101 401 cnv 15 188 68 empty \$0-background inst_pvoc 0 7 0 14
-262144 -1 0;
#X obj 101 201 cnv 15 188 68 empty \$0-background inst_pvoc 0 7 0 14
-262144 -1 0;
#X obj 175 200 hradio 15 1 0 5 \$0-guitab \$0-guitab-rcv empty 0 -8
0 10 -191407 -1 -1 0;
#X obj 104 242 cnv 12 1 1 empty \$0-samplename-rcv Dj.wav 2 6 0 10
-262144 -66577 0;
#X obj 183 219 bng 20 250 50 0 \$0-load_sample empty CHANGE 2 10 0
10 -262144 -1 -1;
#X obj 244 114 ui_vs \$0 vol 0 127;
#X obj 175 100 bng 15 250 50 0 empty empty EDIT 17 7 0 10 -262144 -1
-1;
#X obj 149 62 s \$0-guitab-rcv;
#X msg 170 35 1;
#X obj 101 501 cnv 15 188 68 empty \$0-background inst_pvoc 0 7 0 14
-262144 -1 0;
#X obj 175 300 hradio 15 1 0 5 \$0-guitab \$0-guitab-rcv empty 0 -8
0 10 -191407 -1 -1 0;
#X obj 175 400 hradio 15 1 0 5 \$0-guitab \$0-guitab-rcv empty 0 -8
0 10 -191407 -1 -1 0;
#X obj 175 500 hradio 15 1 0 5 \$0-guitab \$0-guitab-rcv empty 0 -8
0 10 -191407 -1 -1 0;
#X obj 108 518 cnv 12 1 1 empty \$0-samplename-rcv Dj.wav 2 6 0 10
-262144 -66577 0;
#X obj 120 537 bng 15 250 50 0 \$0-append empty append 17 7 0 10 -262144
-1 -1;
#X obj 185 554 bng 15 250 50 0 \$0-reset empty reset_all 17 7 0 10
-262144 -1 -1;
#X obj 120 552 bng 15 250 50 0 \$0-update empty update 17 7 0 10 -262144
-1 -1;
#X obj 247 230 bng 15 250 50 0 \$0-update empty update 2 7 0 10 -258113
-1 -1;
#X obj 273 200 bng 15 250 50 0 \$0-next_file \$0-next_file-rcv > 5
7 0 10 -262144 -1 -1;
#X obj 259 200 bng 15 250 50 0 \$0-prev_file \$0-prev_file-rcv < 5
7 0 10 -262144 -1 -1;
#X floatatom 259 215 4 0 0 0 - #0-index-rcv -, f 4;
#X obj 273 300 bng 15 250 50 0 \$0-next_file \$0-next_file-rcv > 5
7 0 10 -262144 -1 -1;
#X obj 259 300 bng 15 250 50 0 \$0-prev_file \$0-prev_file-rcv < 5
7 0 10 -262144 -1 -1;
#X floatatom 259 315 4 0 0 0 - #0-index-rcv -, f 4;
#X obj 273 400 bng 15 250 50 0 \$0-next_file \$0-next_file-rcv > 5
7 0 10 -262144 -1 -1;
#X obj 259 400 bng 15 250 50 0 \$0-prev_file \$0-prev_file-rcv < 5
7 0 10 -262144 -1 -1;
#X floatatom 259 415 4 0 0 0 - #0-index-rcv -, f 4;
#X obj 251 330 bng 15 250 50 0 \$0-update empty update 2 7 0 10 -258113
-1 -1;
#X obj 247 430 bng 15 250 50 0 \$0-update empty update 2 7 0 10 -258113
-1 -1;
#X obj 271 500 bng 15 250 50 0 \$0-next_file \$0-next_file-rcv > 5
7 0 10 -262144 -1 -1;
#X obj 257 500 bng 15 250 50 0 \$0-prev_file \$0-prev_file-rcv < 5
7 0 10 -262144 -1 -1;
#X floatatom 257 515 4 0 0 0 - #0-index-rcv -, f 4;
#X obj 185 538 bng 15 250 50 0 \$0-delete empty delete 17 7 0 10 -262144
-1 -1;
#X floatatom 182 254 7 9000 196000 0 SampleRate #0-sr-rcv #0-sr, f
7;
#X obj 158 219 bng 20 250 50 0 \$0-add_sample empty ADD 2 10 0 10 -262144
-1 -1;
#X text 111 222 SAMPLE;
#X obj 386 203 module_loader inst_pvoc \$0 \$1;
#N canvas 0 50 632 411 load_samples 0;
#X obj 246 28 r \$0-index;
#X msg 241 55 set \$1;
#X obj 241 77 s \$0-index-rcv;
#X obj 113 60 r \$0-load_sample;
#X obj 113 82 openpanel;
#X obj 113 166 s \$0-path;
#X obj 214 125 s \$0-filename;
#X msg 104 299 label \$1;
#X obj 89 199 r \$0-filename;
#X obj 104 321 s \$0-samplename-rcv;
#X obj 113 104 splitfilename /;
#X obj 373 62 openpanel;
#X obj 491 209 s \$0-path;
#X obj 514 135 s \$0-filename;
#X obj 413 114 splitfilename /;
#X obj 373 40 r \$0-add_sample;
#X obj 373 84 t b s;
#X obj 323 136 s \$0-append;
#X obj 89 221 symbol;
#X obj 23 136 splitfilename /;
#X obj 413 144 splitfilename /;
#X connect 0 0 1 0;
#X connect 1 0 2 0;
#X connect 3 0 4 0;
#X connect 4 0 10 0;
#X connect 7 0 9 0;
#X connect 8 0 18 0;
#X connect 10 0 19 0;
#X connect 10 1 6 0;
#X connect 11 0 16 0;
#X connect 14 0 20 0;
#X connect 14 1 13 0;
#X connect 15 0 11 0;
#X connect 16 0 17 0;
#X connect 16 1 14 0;
#X connect 18 0 7 0;
#X connect 19 1 5 0;
#X connect 20 1 12 0;
#X restore 622 205 pd load_samples;
#N canvas 0 50 605 422 sauvegarde_parametres 0;
#X obj 132 25 inlet;
#X obj 126 103 u_subset \$0 filename;
#X obj 126 123 u_parameter_subset \$0 root_key;
#X obj 126 143 u_parameter_subset \$0 low_key;
#X obj 126 163 u_parameter_subset \$0 high_key;
#X obj 126 83 u_dispatch \$0 path;
#X obj 126 63 u_dispatch \$0 vol;
#X obj 126 185 u_parameter_subset \$0 sr;
#N canvas 569 71 886 552 gestion 0;
#X msg 386 150 append;
#X obj 342 93 delay 1;
#X obj 327 57 r \$0-append;
#X obj 419 63 r \$0-reset;
#X msg 426 104 reset;
#X obj 283 189 s \$0-subset;
#X obj 520 46 r \$0-update;
#X msg 523 88 update;
#X msg 142 115 next;
#X msg 94 85 prev;
#X obj 93 62 r \$0-prev_file;
#X obj 141 92 r \$0-next_file;
#X obj 62 151 inlet current_index;
#X obj 27 37 r \$0-delete;
#X obj 41 187 f;
#X msg 41 209 delete \$1;
#X obj 488 249 list length;
#X obj 522 197 list trim;
#X obj 522 219 route <subset>;
#X obj 510 168 r \$0-lfilename;
#X obj 342 115 t b b;
#X obj 472 276 f;
#X obj 472 298 - 1;
#X obj 472 320 s \$0-index;
#X text 417 354 placement automatique au dernier élément de la liste
après message append;
#X msg 171 249 set \$1;
#X obj 156 274 s \$0-index-rcv;
#X connect 0 0 5 0;
#X connect 1 0 20 0;
#X connect 2 0 1 0;
#X connect 3 0 4 0;
#X connect 4 0 5 0;
#X connect 6 0 7 0;
#X connect 7 0 5 0;
#X connect 8 0 5 0;
#X connect 9 0 5 0;
#X connect 10 0 9 0;
#X connect 11 0 8 0;
#X connect 12 0 14 1;
#X connect 12 0 25 0;
#X connect 13 0 14 0;
#X connect 14 0 15 0;
#X connect 15 0 5 0;
#X connect 16 0 21 1;
#X connect 17 0 18 0;
#X connect 18 0 16 0;
#X connect 18 1 16 0;
#X connect 19 0 17 0;
#X connect 20 0 21 0;
#X connect 20 1 0 0;
#X connect 21 0 22 0;
#X connect 22 0 23 0;
#X connect 25 0 26 0;
#X restore 259 223 pd gestion subset;
#X text 325 190 samplerate;
#X obj 126 207 u_parameter_subset \$0 pos;
#X obj 126 269 u_parameter_subset \$0 transpose;
#X obj 126 296 u_parameter \$0 module-slot;
#X connect 0 0 6 0;
#X connect 1 0 2 0;
#X connect 1 1 8 0;
#X connect 2 0 3 0;
#X connect 3 0 4 0;
#X connect 4 0 7 0;
#X connect 5 0 1 0;
#X connect 6 0 5 0;
#X connect 7 0 10 0;
#X connect 10 0 11 0;
#X connect 11 0 12 0;
#X restore 386 226 pd sauvegarde_parametres;
#N canvas 458 61 643 448 midi2notename 0;
#N canvas 473 338 450 300 count 0;
#X obj 131 154 f 0;
#X obj 156 153 + 1;
#X msg 147 133 0;
#X obj 131 183 outlet;
#X obj 131 59 inlet;
#X obj 131 96 b;
#X obj 178 61 inlet;
#X obj 178 98 b;
#X connect 0 0 1 0;
#X connect 0 0 3 0;
#X connect 1 0 0 1;
#X connect 2 0 0 1;
#X connect 4 0 5 0;
#X connect 5 0 0 0;
#X connect 6 0 7 0;
#X connect 7 0 2 0;
#X restore 330 219 pd count;
#X msg 249 169 c \, c# \, d \, d# \, e \, f \, f# \, g \, g# \, a \,
a# \, b;
#X obj 249 194 t a b;
#X obj 249 243 list prepend;
#X msg 173 243 reset;
#X obj 249 144 t b b b;
#X text -2 162 Notes example:;
#X msg 114 244 print;
#X msg 114 219 dump;
#X obj 161 268 m_symbolarray;
#X obj 252 117 loadbang;
#X obj 165 163 mod 12;
#X obj 229 113 bng 15 250 50 0 empty empty empty 17 7 0 10 -262144
-1 -1;
#X obj 166 127 t f f;
#X obj 159 297 list append;
#X obj 166 104 - 24;
#X floatatom 177 215 5 0 0 0 - - -, f 5;
#X obj 188 192 div 12;
#X obj 171 76 t f f;
#X obj 164 321 list append;
#X obj 161 50 route set;
#X msg 150 363 symbol (\$1\$2);
#X obj 147 27 r \$0-root_key-rcv;
#X obj 152 385 s \$0-root_key_display-rcv;
#X connect 0 0 3 1;
#X connect 1 0 2 0;
#X connect 2 0 3 0;
#X connect 2 1 0 0;
#X connect 3 0 9 1;
#X connect 4 0 9 0;
#X connect 5 0 1 0;
#X connect 5 1 4 0;
#X connect 5 2 0 1;
#X connect 7 0 9 0;
#X connect 8 0 9 0;
#X connect 9 0 14 0;
#X connect 10 0 5 0;
#X connect 11 0 9 0;
#X connect 12 0 5 0;
#X connect 13 0 11 0;
#X connect 13 1 17 0;
#X connect 14 0 19 0;
#X connect 15 0 13 0;
#X connect 17 0 16 0;
#X connect 17 0 14 1;
#X connect 18 0 15 0;
#X connect 18 1 19 1;
#X connect 19 0 21 0;
#X connect 20 0 18 0;
#X connect 21 0 23 0;
#X connect 22 0 20 0;
#X restore 328 318 pd midi2notename;
#N canvas 458 61 643 448 midi2notename 0;
#N canvas 473 338 450 300 count 0;
#X obj 131 154 f 0;
#X obj 156 153 + 1;
#X msg 147 133 0;
#X obj 131 183 outlet;
#X obj 131 59 inlet;
#X obj 131 96 b;
#X obj 178 61 inlet;
#X obj 178 98 b;
#X connect 0 0 1 0;
#X connect 0 0 3 0;
#X connect 1 0 0 1;
#X connect 2 0 0 1;
#X connect 4 0 5 0;
#X connect 5 0 0 0;
#X connect 6 0 7 0;
#X connect 7 0 2 0;
#X restore 330 219 pd count;
#X msg 249 169 c \, c# \, d \, d# \, e \, f \, f# \, g \, g# \, a \,
a# \, b;
#X obj 249 194 t a b;
#X obj 249 243 list prepend;
#X msg 173 243 reset;
#X obj 249 144 t b b b;
#X text -2 162 Notes example:;
#X msg 114 244 print;
#X msg 114 219 dump;
#X obj 161 268 m_symbolarray;
#X obj 252 117 loadbang;
#X obj 165 163 mod 12;
#X obj 229 113 bng 15 250 50 0 empty empty empty 17 7 0 10 -262144
-1 -1;
#X obj 166 127 t f f;
#X obj 159 297 list append;
#X obj 166 104 - 24;
#X floatatom 177 215 5 0 0 0 - - -, f 5;
#X obj 188 192 div 12;
#X obj 171 76 t f f;
#X obj 164 321 list append;
#X obj 161 50 route set;
#X msg 150 363 symbol (\$1\$2);
#X obj 147 27 r \$0-low_key-rcv;
#X obj 152 385 s \$0-low_key_display-rcv;
#X connect 0 0 3 1;
#X connect 1 0 2 0;
#X connect 2 0 3 0;
#X connect 2 1 0 0;
#X connect 3 0 9 1;
#X connect 4 0 9 0;
#X connect 5 0 1 0;
#X connect 5 1 4 0;
#X connect 5 2 0 1;
#X connect 7 0 9 0;
#X connect 8 0 9 0;
#X connect 9 0 14 0;
#X connect 10 0 5 0;
#X connect 11 0 9 0;
#X connect 12 0 5 0;
#X connect 13 0 11 0;
#X connect 13 1 17 0;
#X connect 14 0 19 0;
#X connect 15 0 13 0;
#X connect 17 0 16 0;
#X connect 17 0 14 1;
#X connect 18 0 15 0;
#X connect 18 1 19 1;
#X connect 19 0 21 0;
#X connect 20 0 18 0;
#X connect 21 0 23 0;
#X connect 22 0 20 0;
#X restore 328 338 pd midi2notename;
#N canvas 458 61 643 448 midi2notename 0;
#N canvas 473 338 450 300 count 0;
#X obj 131 154 f 0;
#X obj 156 153 + 1;
#X msg 147 133 0;
#X obj 131 183 outlet;
#X obj 131 59 inlet;
#X obj 131 96 b;
#X obj 178 61 inlet;
#X obj 178 98 b;
#X connect 0 0 1 0;
#X connect 0 0 3 0;
#X connect 1 0 0 1;
#X connect 2 0 0 1;
#X connect 4 0 5 0;
#X connect 5 0 0 0;
#X connect 6 0 7 0;
#X connect 7 0 2 0;
#X restore 330 219 pd count;
#X msg 249 169 c \, c# \, d \, d# \, e \, f \, f# \, g \, g# \, a \,
a# \, b;
#X obj 249 194 t a b;
#X obj 249 243 list prepend;
#X msg 173 243 reset;
#X obj 249 144 t b b b;
#X text -2 162 Notes example:;
#X msg 114 244 print;
#X msg 114 219 dump;
#X obj 161 268 m_symbolarray;
#X obj 252 117 loadbang;
#X obj 165 163 mod 12;
#X obj 229 113 bng 15 250 50 0 empty empty empty 17 7 0 10 -262144
-1 -1;
#X obj 166 127 t f f;
#X obj 159 297 list append;
#X obj 166 104 - 24;
#X floatatom 177 215 5 0 0 0 - - -, f 5;
#X obj 188 192 div 12;
#X obj 171 76 t f f;
#X obj 164 321 list append;
#X obj 161 50 route set;
#X msg 150 363 symbol (\$1\$2);
#X obj 147 27 r \$0-high_key-rcv;
#X obj 152 385 s \$0-high_key_display-rcv;
#X connect 0 0 3 1;
#X connect 1 0 2 0;
#X connect 2 0 3 0;
#X connect 2 1 0 0;
#X connect 3 0 9 1;
#X connect 4 0 9 0;
#X connect 5 0 1 0;
#X connect 5 1 4 0;
#X connect 5 2 0 1;
#X connect 7 0 9 0;
#X connect 8 0 9 0;
#X connect 9 0 14 0;
#X connect 10 0 5 0;
#X connect 11 0 9 0;
#X connect 12 0 5 0;
#X connect 13 0 11 0;
#X connect 13 1 17 0;
#X connect 14 0 19 0;
#X connect 15 0 13 0;
#X connect 17 0 16 0;
#X connect 17 0 14 1;
#X connect 18 0 15 0;
#X connect 18 1 19 1;
#X connect 19 0 21 0;
#X connect 20 0 18 0;
#X connect 21 0 23 0;
#X connect 22 0 20 0;
#X restore 328 358 pd midi2notename;
#X obj 651 237 inlet data;
#X obj 825 297 outlet data;
#X obj 480 280 inlet~;
#X obj 540 280 inlet~;
#X obj 477 531 outlet~;
#X obj 547 531 outlet~;
#X obj 200 115 ui_vs \$0 pos 0 1;
#N canvas 572 59 614 568 traduction_parmameters 0;
#X obj 46 74 list split 2;
#X msg 45 95 \$2 \$1;
#X obj 45 117 list append;
#X obj 45 139 list trim;
#X obj 155 180 route remove add;
#X obj 34 205 list split 1;
#X obj 33 249 dbtorms;
#X obj 33 271 list append;
#X msg 123 331 \$2 sr \$5;
#X obj 22 302 t l l;
#X obj 34 227 / 1.27;
#X msg 206 338 \$1 switchOff;
#X obj 45 161 route list;
#X obj 210 209 list split 2;
#X msg 210 231 \$2 \$1;
#X obj 207 253 list append;
#X obj 57 18 inlet;
#X obj 38 485 outlet;
#X obj 425 341 r \$0-vol;
#X obj 425 363 dbtorms;
#X obj 522 403 r \$0-pos;
#X msg 389 461 all playAtPos \$1;
#X msg 464 483 all vol \$1;
#X obj 45 373 list append 0;
#X msg 27 422 \$2 setArray \$4 \, \$2 rearm \, \$2 switchOn \, \$2
gain \$1 15 \, \$2 pitch \$3 \, \$2 sampleLength \$6 \, \$2 playAtPos
\$7;
#X connect 0 0 1 0;
#X connect 0 1 2 1;
#X connect 1 0 2 0;
#X connect 2 0 3 0;
#X connect 3 0 12 0;
#X connect 4 0 11 0;
#X connect 4 2 13 0;
#X connect 5 0 10 0;
#X connect 5 1 7 1;
#X connect 6 0 7 0;
#X connect 7 0 9 0;
#X connect 8 0 17 0;
#X connect 9 0 23 0;
#X connect 9 1 8 0;
#X connect 10 0 6 0;
#X connect 11 0 17 0;
#X connect 12 0 5 0;
#X connect 12 1 4 0;
#X connect 13 0 14 0;
#X connect 13 1 15 1;
#X connect 14 0 15 0;
#X connect 15 0 17 0;
#X connect 16 0 0 0;
#X connect 18 0 19 0;
#X connect 19 0 22 0;
#X connect 20 0 21 0;
#X connect 20 0 23 1;
#X connect 21 0 17 0;
#X connect 22 0 17 0;
#X connect 23 0 24 0;
#X connect 24 0 17 0;
#X restore 620 361 pd traduction_parmameters;
#X obj 615 266 route note aftertouch;
#X obj 235 342 tgl 14 0 \$0-learn_low \$0-learn_low-rcv empty 17 7
0 10 -262144 -1 -1 0 1;
#X obj 235 328 tgl 14 0 \$0-learn_root \$0-learn_root-rcv learn -10
-6 0 10 -262144 -1 -1 0 1;
#X obj 235 356 tgl 14 0 \$0-learn_high \$0-learn_high-rcv empty 17
7 0 10 -262144 -1 -1 0 1;
#N canvas 512 50 776 443 learn_keys 0;
#X obj 51 45 inlet;
#X obj 62 161 spigot;
#X obj 126 121 r \$0-learn_root;
#X obj 51 67 unpack f f;
#X obj 51 89 spigot;
#X obj 63 181 t f b;
#X msg 93 207 0;
#X obj 93 229 s \$0-learn_root-rcv;
#X obj 59 266 s \$0-root_key-rcv;
#X obj 272 161 spigot;
#X obj 273 181 t f b;
#X msg 303 207 0;
#X obj 532 161 spigot;
#X obj 533 181 t f b;
#X msg 563 207 0;
#X obj 336 121 r \$0-learn_low;
#X obj 596 121 r \$0-learn_high;
#X obj 303 229 s \$0-learn_low-rcv;
#X obj 269 266 s \$0-low_key-rcv;
#X obj 529 266 s \$0-high_key-rcv;
#X obj 563 229 s \$0-learn_high-rcv;
#X connect 0 0 3 0;
#X connect 1 0 5 0;
#X connect 2 0 1 1;
#X connect 3 0 4 0;
#X connect 3 1 4 1;
#X connect 4 0 1 0;
#X connect 4 0 9 0;
#X connect 4 0 12 0;
#X connect 5 0 8 0;
#X connect 5 1 6 0;
#X connect 6 0 7 0;
#X connect 9 0 10 0;
#X connect 10 0 18 0;
#X connect 10 1 11 0;
#X connect 11 0 17 0;
#X connect 12 0 13 0;
#X connect 13 0 19 0;
#X connect 13 1 14 0;
#X connect 14 0 20 0;
#X connect 15 0 9 1;
#X connect 16 0 12 1;
#X restore 378 384 pd learn_keys;
#X obj 105 316 tgl 15 0 \$0-transpose \$0-transpose-rcv transpose 17
7 0 10 -262144 -1 -1 0 1;
#X obj 859 175 r STOP;
#X msg 859 197 stop;
#X obj 101 137 bng 18 250 50 0 empty empty RecIn> 0 10 0 10 -261682
-1 -1;
#X obj 1009 204 r \$0-module-slot;
#X obj 1045 642 s ACTION;
#X obj 1050 571 delay 100;
#X msg 1051 616 select_module \$1;
#X obj 1052 594 list append \$0-module-slot;
#X floatatom 135 138 5 0 0 0 - #0-module-slot-rcv #0-module-slot,
f 5;
#N canvas 0 50 903 443 get_audio_from_module 0;
#X obj 192 151 select 0;
#X obj 70 242 print plug-in~;
#X obj 241 184 f;
#X obj 177 80 t f f;
#X msg 72 217 error - slot \$1 non affecté;
#X obj 459 342 outlet~;
#X obj 584 348 outlet~;
#X obj 143 5 inlet slot.name;
#X obj 427 143 list prepend 0;
#X obj 499 113 f;
#X obj 540 113 == 0;
#X obj 427 98 t f b;
#X obj 455 174 route 0 1;
#N canvas 0 50 450 300 receive~ 0;
#X obj 92 29 inlet;
#X obj 122 72 select 0;
#X obj 105 223 line~;
#X msg 97 200 0 20;
#X msg 197 124 set \$1-send-0;
#X msg 307 124 set \$1-send-1;
#X obj 197 157 receive~ 0-send-0;
#X obj 339 157 receive~ 0-send-1;
#X msg 150 193 1 20;
#X obj 31 151 switch~;
#X msg 98 126 1;
#X obj 40 96 delay 20;
#X msg 29 127 0;
#X msg 44 67 stop;
#X obj 130 318 outlet~;
#X obj 261 319 outlet~;
#X obj 161 283 *~;
#X obj 251 283 *~;
#X connect 0 0 1 0;
#X connect 1 0 3 0;
#X connect 1 0 11 0;
#X connect 1 1 4 0;
#X connect 1 1 5 0;
#X connect 1 1 10 0;
#X connect 1 1 13 0;
#X connect 1 1 8 0;
#X connect 2 0 16 1;
#X connect 2 0 17 1;
#X connect 3 0 2 0;
#X connect 4 0 6 0;
#X connect 5 0 7 0;
#X connect 6 0 16 0;
#X connect 7 0 17 0;
#X connect 8 0 2 0;
#X connect 10 0 9 0;
#X connect 11 0 12 0;
#X connect 12 0 9 0;
#X connect 13 0 11 0;
#X connect 16 0 14 0;
#X connect 17 0 15 0;
#X restore 455 240 pd receive~;
#N canvas 0 50 450 300 receive~ 0;
#X obj 92 29 inlet;
#X obj 122 72 select 0;
#X obj 105 223 line~;
#X msg 97 200 0 20;
#X msg 197 124 set \$1-send-0;
#X msg 307 124 set \$1-send-1;
#X obj 197 157 receive~ 0-send-0;
#X obj 339 157 receive~ 0-send-1;
#X msg 150 193 1 20;
#X obj 31 151 switch~;
#X msg 98 126 1;
#X obj 40 96 delay 20;
#X msg 29 127 0;
#X msg 44 67 stop;
#X obj 130 318 outlet~;
#X obj 261 319 outlet~;
#X obj 161 283 *~;
#X obj 251 283 *~;
#X connect 0 0 1 0;
#X connect 1 0 3 0;
#X connect 1 0 11 0;
#X connect 1 1 4 0;
#X connect 1 1 5 0;
#X connect 1 1 10 0;
#X connect 1 1 13 0;
#X connect 1 1 8 0;
#X connect 2 0 16 1;
#X connect 2 0 17 1;
#X connect 3 0 2 0;
#X connect 4 0 6 0;
#X connect 5 0 7 0;
#X connect 6 0 16 0;
#X connect 7 0 17 0;
#X connect 8 0 2 0;
#X connect 10 0 9 0;
#X connect 11 0 12 0;
#X connect 12 0 9 0;
#X connect 13 0 11 0;
#X connect 16 0 14 0;
#X connect 17 0 15 0;
#X restore 573 239 pd receive~;
#X msg 461 217 0;
#X msg 578 219 0;
#X text 612 270 assure un crossefade entre deux branchements successifs
;
#X msg 373 145 0;
#X obj 171 43 select 0;
#X obj 192 120 tabread SLOTS_MAP;
#X obj 666 25 r REFRESH_CONNEXIONS;
#X obj 705 202 tabread SLOTS_MAP;
#X obj 709 107 f;
#X msg 638 157 0;
#X obj 653 130 select 0;
#X connect 0 0 2 0;
#X connect 0 0 18 0;
#X connect 0 1 11 0;
#X connect 2 0 4 0;
#X connect 3 0 20 0;
#X connect 3 1 2 1;
#X connect 4 0 1 0;
#X connect 7 0 19 0;
#X connect 7 0 23 1;
#X connect 8 0 12 0;
#X connect 9 0 10 0;
#X connect 9 0 8 1;
#X connect 10 0 9 1;
#X connect 11 0 8 0;
#X connect 11 1 9 0;
#X connect 12 0 13 0;
#X connect 12 0 16 0;
#X connect 12 1 14 0;
#X connect 12 1 15 0;
#X connect 13 0 5 0;
#X connect 13 1 6 0;
#X connect 14 0 5 0;
#X connect 14 1 6 0;
#X connect 15 0 13 0;
#X connect 16 0 14 0;
#X connect 18 0 11 0;
#X connect 19 0 18 0;
#X connect 19 1 3 0;
#X connect 20 0 0 0;
#X connect 21 0 23 0;
#X connect 22 0 11 0;
#X connect 23 0 25 0;
#X connect 24 0 11 0;
#X connect 25 0 24 0;
#X connect 25 1 22 0;
#X restore 1011 230 pd get_audio_from_module;
#X obj 1024 107 list split 1;
#X obj 1080 143 list trim;
#X obj 1080 165 route remove;
#X obj 1213 186 list split 2;
#X obj 1172 400 s;
#X msg 1247 223 symbol \$1-extern;
#N canvas 120 96 1125 554 live_recording 0;
#X obj 42 512 tabwrite~ \$0-table-1;
#X obj 141 481 tabwrite~ \$0-table-2;
#X obj 141 288 select 1 0;
#X msg 68 389 stop;
#X obj 222 342 timer;
#X obj 257 316 bng 15 250 50 0 empty empty empty 17 7 0 10 -262144
-1 -1;
#X obj 217 316 bng 15 250 50 0 empty empty empty 17 7 0 10 -262144
-1 -1;
#X obj 557 163 change;
#X obj 549 97 inlet;
#X obj 16 113 inlet~;
#X obj 261 111 inlet~;
#X obj 16 137 delwrite~ \$0-input-l 1000;
#X obj 16 160 delread~ \$0-input-l 20;
#X obj 260 132 delwrite~ \$0-input-r 1000;
#X obj 259 157 delread~ \$0-input-r 30;
#X obj 555 128 > 0;
#X obj 489 483 outlet;
#X obj 698 100 inlet target;
#X msg 698 122 set \$1-1;
#X msg 708 152 set \$1-2;
#X obj 510 309 samplerate~;
#X obj 510 282 r pd-dsp-started;
#X obj 523 362 / 1000;
#X obj 462 414 *;
#X obj 462 436 pack f f;
#X obj 641 482 outlet;
#X obj 661 430 int;
#X obj 831 336 table \$0-table-1;
#X obj 831 356 table \$0-table-2;
#X text 836 288 dummy tables;
#X connect 2 0 0 0;
#X connect 2 0 1 0;
#X connect 2 0 4 0;
#X connect 2 1 3 0;
#X connect 2 1 4 1;
#X connect 3 0 0 0;
#X connect 3 0 1 0;
#X connect 4 0 23 0;
#X connect 4 0 26 0;
#X connect 5 0 4 1;
#X connect 6 0 4 0;
#X connect 7 0 2 0;
#X connect 8 0 15 0;
#X connect 9 0 11 0;
#X connect 10 0 13 0;
#X connect 12 0 0 0;
#X connect 14 0 1 0;
#X connect 15 0 7 0;
#X connect 17 0 18 0;
#X connect 17 0 19 0;
#X connect 18 0 0 0;
#X connect 19 0 1 0;
#X connect 20 0 22 0;
#X connect 20 0 24 1;
#X connect 21 0 20 0;
#X connect 22 0 23 1;
#X connect 23 0 24 0;
#X connect 24 0 16 0;
#X connect 26 0 25 0;
#X restore 1159 331 pd live_recording;
#X obj 1207 269 r \$0-rec;
#X obj 173 129 tgl 25 0 \$0-rec \$0-rec-rcv REC 2 5 0 10 -262131 -262131
-1 0 1;
#X obj 1265 21 midi-colors \$0 rec \$0-rec-rcv;
#X obj 1264 81 s \$0-rec;
#X obj 1264 60 change;
#X obj 1265 41 > 30;
#X obj 1303 265 list split 1;
#X obj 1015 391 s \$0-samplename-rcv;
#X obj 101 156 cnv 12 1 1 empty \$0-samplename-rcv Dj.wav 2 6 0 10
-262144 -66577 0;
#X msg 999 362 label ext_smpl(\$1ms);
#X obj 777 18 r \$0-rec;
#X obj 778 68 s \$0-rec-rcv;
#X msg 899 67 \$2 \$1;
#X obj 900 96 route remove;
#X msg 979 142 \$2;
#X floatatom 175 139 3 0 0 0 - - -, f 3;
#X msg 778 48 set \$1;
#X msg 926 42 color 5 5 -1;
#X msg 1028 57 color 13 13 -1;
#X obj 275 100 bng 15 250 50 0 \$0-next_file \$0-next_file-rcv > 5
7 0 10 -262144 -1 -1;
#X obj 261 100 bng 15 250 50 0 \$0-prev_file \$0-prev_file-rcv < 5
7 0 10 -262144 -1 -1;
#X floatatom 231 100 4 0 0 0 - #0-index-rcv -, f 4;
#X obj 684 542 table \$0-nop 16384;
#X obj 970 17 select 0;
#X obj 946 239 t f f;
#X obj 925 265 div 10;
#X obj 974 264 mod 10;
#X obj 931 290 pack f f;
#X msg 931 312 symbol \$1:\$2;
#X obj 921 334 s \$0-module-slot-display;
#X obj 133 138 cnv 15 40 15 empty empty empty 20 12 0 14 -261682 -66577
0;
#X symbolatom 135 138 5 0 0 0 - #0-module-slot-display -, f 5;
#X obj 615 321 fid_abs_vanilia-0.4/fid_multiplex 8 1;
#X msg 1002 454 all pitch \$1;
#X obj 144 419 vsl 40 40 0.25 4 1 0 empty empty allpitch 0 14 0 10
-262144 -1 -1 0 1;
#X obj 1114 428 vsl 15 128 0 1 0 0 empty empty empty 0 -9 0 10 -262144
-1 -1 0 1;
#X msg 1142 454 all locking \$1;
#X obj 623 390 clone -x -s 1 8 inst_pvoc/pvoc_read2 \$0;
#X msg 1019 432 1;
#N canvas 1 56 1288 620 mapped_sample_bank 0;
#X obj 98 82 list trim;
#X obj 98 104 route <subset>;
#X obj 86 53 r \$0-llow_key;
#X obj 283 68 list trim;
#X obj 285 91 route <subset>;
#X obj 281 47 r \$0-lhigh_key;
#X obj 104 143 list prepend low_key;
#X obj 285 113 list prepend high_key;
#X obj 503 68 list trim;
#X obj 505 91 route <subset>;
#X obj 501 47 r \$0-lfilename;
#X obj 505 113 list prepend filename;
#X obj 663 68 list trim;
#X obj 665 91 route <subset>;
#X obj 661 47 r \$0-lroot_key;
#X obj 665 113 list prepend root_key;
#X obj 292 212 inlet;
#X obj 873 68 list trim;
#X obj 875 91 route <subset>;
#X obj 871 47 r \$0-lsr;
#X obj 875 113 list prepend sr;
#X obj 35 550 r \$0-u_mapped_samplebank_output;
#X obj 34 577 outlet;
#X obj 89 358 inst_pvoc/u_mapped_samplebank \$0;
#X obj 1052 56 r \$0-ltranspose;
#X obj 1083 88 list trim;
#X obj 1085 111 route <subset>;
#X obj 1085 133 list prepend transpose;
#X obj 89 380 inst_pvoc/u_mapped_samplebank \$0;
#X obj 89 402 inst_pvoc/u_mapped_samplebank \$0;
#X obj 89 424 inst_pvoc/u_mapped_samplebank \$0;
#X obj 89 448 inst_pvoc/u_mapped_samplebank \$0;
#X obj 89 470 inst_pvoc/u_mapped_samplebank \$0;
#X obj 89 492 inst_pvoc/u_mapped_samplebank \$0;
#X obj 89 514 inst_pvoc/u_mapped_samplebank \$0;
#X obj 389 358 inst_pvoc/u_mapped_samplebank \$0;
#X obj 389 380 inst_pvoc/u_mapped_samplebank \$0;
#X obj 389 402 inst_pvoc/u_mapped_samplebank \$0;
#X obj 389 424 inst_pvoc/u_mapped_samplebank \$0;
#X obj 389 448 inst_pvoc/u_mapped_samplebank \$0;
#X obj 389 470 inst_pvoc/u_mapped_samplebank \$0;
#X obj 389 492 inst_pvoc/u_mapped_samplebank \$0;
#X obj 389 514 inst_pvoc/u_mapped_samplebank \$0;
#X obj 709 358 inst_pvoc/u_mapped_samplebank \$0;
#X obj 709 380 inst_pvoc/u_mapped_samplebank \$0;
#X obj 709 402 inst_pvoc/u_mapped_samplebank \$0;
#X obj 709 424 inst_pvoc/u_mapped_samplebank \$0;
#X obj 709 448 inst_pvoc/u_mapped_samplebank \$0;
#X obj 709 470 inst_pvoc/u_mapped_samplebank \$0;
#X obj 709 492 inst_pvoc/u_mapped_samplebank \$0;
#X obj 709 514 inst_pvoc/u_mapped_samplebank \$0;
#X obj 1009 358 inst_pvoc/u_mapped_samplebank \$0;
#X obj 1009 380 inst_pvoc/u_mapped_samplebank \$0;
#X obj 1009 402 inst_pvoc/u_mapped_samplebank \$0;
#X obj 1009 424 inst_pvoc/u_mapped_samplebank \$0;
#X obj 1009 448 inst_pvoc/u_mapped_samplebank \$0;
#X obj 1009 470 inst_pvoc/u_mapped_samplebank \$0;
#X obj 1009 492 inst_pvoc/u_mapped_samplebank \$0;
#X obj 1009 514 inst_pvoc/u_mapped_samplebank \$0;
#X connect 0 0 1 0;
#X connect 1 0 6 0;
#X connect 1 1 6 0;
#X connect 2 0 0 0;
#X connect 3 0 4 0;
#X connect 4 0 7 0;
#X connect 4 1 7 0;
#X connect 5 0 3 0;
#X connect 6 0 23 0;
#X connect 7 0 23 0;
#X connect 8 0 9 0;
#X connect 9 0 11 0;
#X connect 9 1 11 0;
#X connect 10 0 8 0;
#X connect 11 0 23 0;
#X connect 12 0 13 0;
#X connect 13 0 15 0;
#X connect 13 1 15 0;
#X connect 14 0 12 0;
#X connect 15 0 23 0;
#X connect 16 0 23 0;
#X connect 17 0 18 0;
#X connect 18 0 20 0;
#X connect 18 1 20 0;
#X connect 19 0 17 0;
#X connect 20 0 23 0;
#X connect 21 0 22 0;
#X connect 23 0 28 0;
#X connect 24 0 25 0;
#X connect 25 0 26 0;
#X connect 26 0 27 0;
#X connect 26 1 27 0;
#X connect 27 0 23 0;
#X connect 28 0 29 0;
#X connect 29 0 30 0;
#X connect 30 0 31 0;
#X connect 31 0 32 0;
#X connect 32 0 33 0;
#X connect 33 0 34 0;
#X connect 34 0 35 0;
#X connect 35 0 36 0;
#X connect 36 0 37 0;
#X connect 37 0 38 0;
#X connect 38 0 39 0;
#X connect 39 0 40 0;
#X connect 40 0 41 0;
#X connect 41 0 42 0;
#X connect 42 0 43 0;
#X connect 43 0 44 0;
#X connect 44 0 45 0;
#X connect 45 0 46 0;
#X connect 46 0 47 0;
#X connect 47 0 48 0;
#X connect 48 0 49 0;
#X connect 49 0 50 0;
#X connect 50 0 51 0;
#X connect 51 0 52 0;
#X connect 52 0 53 0;
#X connect 53 0 54 0;
#X connect 54 0 55 0;
#X connect 55 0 56 0;
#X connect 56 0 57 0;
#X connect 57 0 58 0;
#X restore 615 292 pd mapped_sample_bank;
#X obj 1303 287 print;
#X obj 615 314 print;
#X obj 1394 104 declare -path ../../ressources/core;
#X obj 1394 134 declare -path ../../ressources/rj;
#X obj 1378 203 declare -path ../../ressources/core/fid_abs_vanilia-0.4
;
#X connect 19 0 21 0;
#X connect 21 0 20 0;
#X connect 49 0 51 0;
#X connect 55 0 56 0;
#X connect 55 0 63 0;
#X connect 57 0 59 0;
#X connect 58 0 60 0;
#X connect 62 0 123 0;
#X connect 63 0 67 0;
#X connect 63 0 98 0;
#X connect 63 0 125 0;
#X connect 63 1 118 0;
#X connect 69 0 70 0;
#X connect 70 0 118 0;
#X connect 71 0 74 0;
#X connect 72 0 78 0;
#X connect 72 0 110 0;
#X connect 74 0 76 0;
#X connect 75 0 73 0;
#X connect 76 0 75 0;
#X connect 78 0 85 0;
#X connect 78 1 85 1;
#X connect 79 1 80 0;
#X connect 80 0 81 0;
#X connect 81 1 82 0;
#X connect 82 1 84 0;
#X connect 82 1 92 0;
#X connect 84 0 83 1;
#X connect 85 0 83 0;
#X connect 85 1 95 0;
#X connect 86 0 85 2;
#X connect 88 0 91 0;
#X connect 90 0 89 0;
#X connect 91 0 90 0;
#X connect 92 0 85 3;
#X connect 92 0 126 0;
#X connect 95 0 93 0;
#X connect 96 0 102 0;
#X connect 96 0 109 0;
#X connect 98 0 99 0;
#X connect 99 1 100 0;
#X connect 100 0 101 0;
#X connect 102 0 97 0;
#X connect 103 0 97 0;
#X connect 104 0 97 0;
#X connect 109 0 103 0;
#X connect 109 1 104 0;
#X connect 110 0 111 0;
#X connect 110 1 112 0;
#X connect 111 0 113 0;
#X connect 112 0 113 1;
#X connect 113 0 114 0;
#X connect 114 0 115 0;
#X connect 118 0 62 0;
#X connect 119 0 123 0;
#X connect 120 0 119 0;
#X connect 121 0 122 0;
#X connect 122 0 123 0;
#X connect 123 0 59 0;
#X connect 123 1 60 0;
#X connect 124 0 119 0;
#X connect 125 0 79 0;
#X connect 125 0 118 0;
#X connect 125 0 127 0;
#X coords 0 0 1 1 190 70 1 100 100;
