#N canvas 93 56 918 599 10;
#X declare -path ../../ressources/core;
#X declare -path ../../ressources/rj;
#N canvas 172 83 586 377 LICENSE-GPL 0;
#X text 57 88 This program is free software: you can redistribute it
and/or modify it under the terms of the GNU General Public License
as published by the Free Software Foundation \, either version 3 of
the License \, or (at your option) any later version.;
#X text 58 168 This program is distributed in the hope that it will
be useful \, but WITHOUT ANY WARRANTY \; without even the implied warranty
of MERCHANTABILITY or FITNESS FOR A PARTICULAR PURPOSE. See the GNU
General Public License for more details.;
#X text 57 261 You should have received a copy of the GNU General Public
License along with this program. If not \, see <http://www.gnu.org/licenses/>.
;
#X text 61 54 Copyright (C) 2009 \, Reality Jockey Ltd.;
#X text 60 325 See the file LICENSE.txt for the full license text.
;
#X restore 298 15 pd LICENSE-GPL;
#X obj 101 101 cnv 15 188 68 empty \$0-background inst_soundfile 0
7 0 14 -260818 -1 0;
#X obj 220 102 vsl 70 17 1 0 0 0 \$0-presets \$0-presets-rcv concret2
2 5 0 10 -232576 -232576 -1 0 1;
#X obj 346 339 u_dispatch \$0 file;
#X obj 217 412 r \$0-file;
#X obj 420 454 bng 15 250 50 0 empty empty empty 17 7 0 10 -262144
-1 -1;
#N canvas 0 50 577 600 extract_filename 0;
#X obj 156 25 inlet;
#X obj 264 360 outlet;
#X obj 50 132 list fromsymbol;
#X obj 38 182 list split 1;
#X obj 162 183 list length;
#X obj 171 212 - 1;
#X obj -9 295 spigot;
#X obj 64 228 != 47;
#X obj 341 247 list tosymbol;
#X obj 101 252 &&;
#X obj 121 226 != 0;
#X obj 97 207 t f f f;
#X obj 351 210 list append;
#X obj 485 175 list;
#X obj 100 284 select 0;
#X obj 281 161 select 47;
#X obj 35 156 t l l b;
#X obj 339 188 list append;
#X obj 91 104 t s b;
#X obj 170 72 symbol;
#X connect 0 0 19 0;
#X connect 2 0 16 0;
#X connect 3 0 6 0;
#X connect 3 1 11 0;
#X connect 4 0 5 0;
#X connect 5 0 3 1;
#X connect 6 0 16 0;
#X connect 7 0 9 0;
#X connect 8 0 1 0;
#X connect 9 0 14 0;
#X connect 9 0 6 1;
#X connect 10 0 9 1;
#X connect 11 0 7 0;
#X connect 11 1 10 0;
#X connect 11 2 15 0;
#X connect 12 0 8 0;
#X connect 13 0 17 1;
#X connect 14 0 12 0;
#X connect 15 1 17 0;
#X connect 16 0 3 0;
#X connect 16 1 4 0;
#X connect 17 0 12 1;
#X connect 17 0 13 0;
#X connect 18 0 2 0;
#X connect 18 1 17 1;
#X connect 19 0 18 0;
#X restore 215 445 pd extract_filename;
#X obj 139 123 cnv 8 150 15 empty \$0-filename_cnv-rcv 16_FINAL_Laisser_moi_danser.wav
2 8 0 12 -204786 -66577 0;
#X obj 207 498 s \$0-filename_cnv-rcv;
#X msg 214 474 label \$1;
#X obj 254 140 bng 30 250 50 0 empty empty OPEN 2 13 0 10 -262144 -1
-1;
#X obj 377 256 openpanel;
#X obj 477 268 s \$0-file;
#X obj 100 114 ui_vs \$0 vol 0 127;
#X obj 138 139 tgl 30 0 \$0-play \$0-play-rcv PLAY 2 13 0 10 -262144
-1 -1 0 1;
#N canvas 0 50 602 499 audio_stuff 0;
#X obj 133 22 r \$0-file;
#X msg 135 185 open \$1;
#X obj 149 206 readsf~ 2;
#X obj 202 361 s \$0-play;
#X obj 230 32 r \$0-play;
#X obj 233 64 select 0 1;
#X obj 273 97 delay 1;
#X msg 282 170 1;
#X msg 217 156 0;
#X obj 62 302 *~;
#X obj 371 242 r \$0-vol;
#X obj 368 272 dbtorms;
#X obj 362 295 line~;
#X msg 300 275 \$1 20;
#X obj 112 312 *~;
#X obj 66 359 outlet~;
#X obj 112 334 outlet~;
#X obj 188 244 list prepend 0;
#X obj 376 189 r \$0-loop;
#X obj 190 278 route 0 1;
#X msg 197 325 0;
#X obj 264 321 spigot;
#X obj 294 302 r \$0-play;
#X obj 83 148 symbol;
#X obj 142 51 symbol;
#X msg 274 400 0 \, 1;
#X obj 293 137 delay 1;
#X connect 0 0 24 0;
#X connect 1 0 2 0;
#X connect 2 0 9 0;
#X connect 2 1 14 0;
#X connect 2 2 17 0;
#X connect 4 0 5 0;
#X connect 5 0 8 0;
#X connect 5 1 6 0;
#X connect 6 0 23 0;
#X connect 6 0 26 0;
#X connect 7 0 2 0;
#X connect 8 0 2 0;
#X connect 9 0 15 0;
#X connect 10 0 11 0;
#X connect 11 0 13 0;
#X connect 12 0 9 1;
#X connect 12 0 14 1;
#X connect 13 0 12 0;
#X connect 14 0 16 0;
#X connect 17 0 19 0;
#X connect 18 0 17 1;
#X connect 19 0 20 0;
#X connect 19 1 21 0;
#X connect 20 0 3 0;
#X connect 21 0 25 0;
#X connect 22 0 21 1;
#X connect 23 0 1 0;
#X connect 24 0 23 1;
#X connect 25 0 3 0;
#X connect 26 0 7 0;
#X restore 51 303 pd audio_stuff;
#X obj 346 360 u_parameter \$0 play;
#X obj 346 382 u_dispatch \$0 vol;
#X obj 168 139 tgl 30 0 \$0-loop \$0-loop-rcv LOOP 2 13 0 10 -262144
-1 -1 0 1;
#X obj 346 410 u_parameter \$0 loop;
#N canvas 777 53 450 488 compteur 0;
#X obj 317 203 select 0 1;
#X obj 428 247 t b b;
#X obj 91 148 timer, f 15;
#X obj 206 192 metro 1000;
#X obj 85 173 / 1000;
#X obj 79 199 int;
#X obj 92 221 t f f;
#X msg 52 341 label \$1:\$2;
#X obj 89 280 makefilename %02d;
#X obj 54 367 s \$0-time;
#X obj 56 293 makefilename %02d;
#X obj 42 317 pack s s;
#X obj 35 240 div 60;
#X obj 83 257 mod 60;
#X msg 316 136 1;
#X msg 238 128 0;
#X obj 290 101 r \$0-play;
#X obj 280 168 t f;
#X connect 0 1 1 0;
#X connect 0 1 2 0;
#X connect 2 0 4 0;
#X connect 3 0 2 1;
#X connect 4 0 5 0;
#X connect 5 0 6 0;
#X connect 6 0 12 0;
#X connect 6 1 13 0;
#X connect 7 0 9 0;
#X connect 8 0 11 1;
#X connect 10 0 11 0;
#X connect 11 0 7 0;
#X connect 12 0 10 0;
#X connect 13 0 8 0;
#X connect 14 0 17 0;
#X connect 15 0 17 0;
#X connect 16 0 17 0;
#X connect 17 0 0 0;
#X connect 17 0 3 0;
#X restore 207 305 pd compteur;
#X obj 201 139 cnv 15 45 20 empty \$0-time 02:34 2 12 0 14 -204786
-66577 0;
#X obj 542 396;
#X obj 513 461 midi-colors \$0 play \$0-play-rcv;
#X obj 511 484 > 1;
#X obj 516 539 s \$0-play;
#X obj 511 508 change;
#X obj 621 354 > 1;
#X obj 621 378 change;
#X obj 623 331 midi-colors \$0 loop \$0-loop-rcv;
#X obj 626 409 s \$0-loop;
#X obj 204 154 tgl 15 0 empty empty mono 17 7 0 10 -262144 -1 -1 0
1;
#X obj 66 344 *~ 0;
#X obj 100 344 *~ 0;
#X obj 346 310 module_loader inst_soundfile \$0 \$1;
#X obj 29 260 inlet~;
#X obj 37 443 outlet~;
#X obj 117 448 outlet~;
#X obj 114 261 inlet~;
#X obj 229 256 inlet data;
#X obj 229 278 outlet data;
#X obj 644 4 declare -path ../../ressources/core;
#X obj 644 34 declare -path ../../ressources/rj;
#X connect 3 0 16 0;
#X connect 4 0 6 0;
#X connect 6 0 9 0;
#X connect 9 0 8 0;
#X connect 10 0 11 0;
#X connect 11 0 12 0;
#X connect 15 0 32 0;
#X connect 15 0 36 0;
#X connect 15 1 33 0;
#X connect 15 1 37 0;
#X connect 16 0 17 0;
#X connect 17 0 19 0;
#X connect 23 0 24 0;
#X connect 24 0 26 0;
#X connect 26 0 25 0;
#X connect 27 0 28 0;
#X connect 28 0 30 0;
#X connect 29 0 27 0;
#X connect 31 0 32 1;
#X connect 31 0 33 1;
#X connect 32 0 37 0;
#X connect 33 0 36 0;
#X connect 34 0 3 0;
#X connect 35 0 36 0;
#X connect 38 0 37 0;
#X connect 39 0 40 0;
#X coords 0 -1 1 1 190 70 1 100 100;
