#N canvas 719 143 933 824 10;
#X obj 101 139 cnv 15 298 20 empty m_description-rcv empty 1 10 0 12
-233017 -66577 0;
#X obj 663 220 r is_m_alive?;
#X obj 657 249 s yes_m_is_alive!;
#X obj 101 118 cnv 15 298 20 empty m_cat-rcv category:add-extension...
1 10 0 12 -262130 -66577 0;
#N canvas 896 143 1905 1025 dynamic_menu 1;
#X obj 566 198 route 1;
#X obj 561 164 route key motion;
#X msg 173 440 label \$1;
#X obj 80 290 +;
#X msg 410 284 -1;
#X msg 448 310 1;
#X msg 243 440 label;
#X obj 122 295 mod;
#X obj 275 597 list append;
#N canvas 1 56 450 300 list_drip 0;
#X obj 63 84 t a a;
#X obj 63 241 spigot;
#X obj 102 149 bang;
#X obj 102 168 1;
#X obj 223 149 route bang;
#X obj 183 150 bang;
#X obj 183 169 0;
#X obj 102 114 list split 2;
#X obj 232 379 list split;
#X obj 299 328 list length;
#X obj 299 350 >> 1;
#X obj 63 260 t a a a a;
#X obj 63 446 list split;
#X obj 130 398 list length;
#X obj 130 423 >> 1;
#X obj 31 19 inlet;
#X obj 290 175 outlet;
#X text 73 19 Copyright 2009 by Mathieu Bouchard;
#X obj 31 53 t b a;
#X obj 465 119 outlet;
#X text 520 121 signal end of list;
#X text 381 23 made compatible with [list-drip]: fbar 2009;
#N canvas 228 198 627 317 LICENSE-BSD 0;
#X text 121 56 This software is copyrighted by Miller Puckette \, Reality
Jockey Ltd. and others. The terms (the "Standard Improved BSD License")
apply to all files associated with the software unless explicitly disclaimed
in individual files.;
#X text 123 148 See the file LICENSE.txt for the full license text.
;
#X restore 523 60 pd LICENSE-BSD;
#X connect 0 0 1 0;
#X connect 0 1 7 0;
#X connect 1 0 11 0;
#X connect 2 0 3 0;
#X connect 3 0 1 1;
#X connect 4 1 16 0;
#X connect 5 0 6 0;
#X connect 6 0 1 1;
#X connect 7 0 2 0;
#X connect 7 2 4 0;
#X connect 7 2 5 0;
#X connect 8 0 0 0;
#X connect 9 0 10 0;
#X connect 10 0 8 1;
#X connect 11 0 12 0;
#X connect 11 1 13 0;
#X connect 11 2 8 0;
#X connect 11 3 9 0;
#X connect 12 1 0 0;
#X connect 13 0 14 0;
#X connect 14 0 12 1;
#X connect 15 0 18 0;
#X connect 18 0 19 0;
#X connect 18 1 0 0;
#X restore 213 531 pd list_drip;
#X obj 185 497 list fromsymbol;
#X msg 158 632 key 1 \$1 0 \, key 0 \$1 0;
#X obj 450 120 spigot;
#X msg 155 211 1;
#X obj 107 382 list split 1;
#X obj 129 326 text get effects;
#X obj 584 233 route Up Down Next Prior;
#X obj 132 260 text size effects;
#X obj 704 392 text size categories;
#X msg 641 291 -1;
#X msg 679 290 1;
#X obj 641 314 t f b;
#X obj 622 383 +;
#X obj 622 406 mod;
#X obj 622 429 text get categories;
#X obj 622 452 s \$0-current_category;
#X obj 290 190 r \$0-current_category;
#X msg 417 425 label;
#X msg 487 459 label category:\$1;
#X obj 289 220 t b s s b;
#X msg 554 299 0;
#X msg 80 192 -1;
#X obj 80 223 t b f b;
#X msg 17 444 127;
#X obj 509 494 s m_cat-rcv;
#X obj 450 97 inlet;
#X obj 85 111 inlet;
#X obj 394 685 outlet;
#X obj 194 474 s m_description-rcv;
#X obj 12 421 delay 10;
#X obj 22 385 t b b;
#X msg 475 405 symbol End;
#X obj 456 227 t b b;
#X obj 491 368 delay 1000;
#X obj 94 152 t b b b l;
#X obj 124 351 t l b;
#X text 694 629 triple click = select all;
#X msg 320 626 mouse \$1 \$2 1 0 \, mouseup \$1 \$2 1 \, mouse \$1
\$2 1 0 \, mouseup \$1 \$2 1;
#N canvas 1 56 450 300 vanilla_list2symbol 0;
#X obj 23 343 list tosymbol;
#X obj 86 234 list fromsymbol;
#X obj 86 149 list split 1;
#X obj 86 99 until;
#X obj 86 124 list append;
#X obj 180 149 bang;
#X obj 86 282 list prepend;
#X obj 200 282 t a;
#X obj 23 313 list append;
#X obj 86 258 list append 32;
#X obj 23 49 t b b a b, f 27;
#X obj 155 201 makefilename %s;
#X obj 86 171 route symbol;
#X obj 23 21 inlet;
#X obj 23 370 outlet;
#X text 249 34 credits : https://forum.pdpatchrepo.info/topic/10556/vanilla-list2symbol-abstraction-pd-0-47
;
#X connect 0 0 14 0;
#X connect 1 0 9 0;
#X connect 2 0 12 0;
#X connect 2 1 4 1;
#X connect 2 2 5 0;
#X connect 3 0 4 0;
#X connect 4 0 2 0;
#X connect 5 0 3 1;
#X connect 6 0 7 0;
#X connect 6 0 8 1;
#X connect 7 0 6 1;
#X connect 8 0 0 0;
#X connect 9 0 6 0;
#X connect 10 0 8 0;
#X connect 10 1 3 0;
#X connect 10 2 4 1;
#X connect 10 3 6 1;
#X connect 11 0 1 0;
#X connect 12 0 1 0;
#X connect 12 1 11 0;
#X connect 13 0 10 0;
#X restore 151 418 pd vanilla_list2symbol;
#X connect 0 0 16 0;
#X connect 1 0 0 0;
#X connect 2 0 38 0;
#X connect 3 0 7 0;
#X connect 4 0 3 0;
#X connect 5 0 3 0;
#X connect 6 0 38 0;
#X connect 7 0 3 1;
#X connect 7 0 15 0;
#X connect 8 0 47 0;
#X connect 9 0 11 0;
#X connect 10 0 9 0;
#X connect 11 0 37 0;
#X connect 12 0 1 0;
#X connect 13 0 12 1;
#X connect 14 0 10 0;
#X connect 14 1 48 0;
#X connect 15 0 45 0;
#X connect 16 0 42 0;
#X connect 16 1 5 0;
#X connect 16 2 20 0;
#X connect 16 3 19 0;
#X connect 17 0 7 1;
#X connect 18 0 23 1;
#X connect 19 0 21 0;
#X connect 20 0 21 0;
#X connect 21 0 22 0;
#X connect 21 1 18 0;
#X connect 22 0 23 0;
#X connect 23 0 22 1;
#X connect 23 0 24 0;
#X connect 24 0 25 0;
#X connect 24 0 28 0;
#X connect 26 0 29 0;
#X connect 27 0 34 0;
#X connect 28 0 34 0;
#X connect 29 0 31 0;
#X connect 29 1 17 1;
#X connect 29 2 15 3;
#X connect 29 3 27 0;
#X connect 29 3 6 0;
#X connect 30 0 21 0;
#X connect 31 0 32 0;
#X connect 32 0 40 0;
#X connect 32 1 3 1;
#X connect 32 2 17 0;
#X connect 33 0 11 0;
#X connect 35 0 12 0;
#X connect 36 0 44 0;
#X connect 39 0 33 0;
#X connect 40 0 39 0;
#X connect 40 1 8 0;
#X connect 41 0 11 0;
#X connect 42 0 43 0;
#X connect 42 1 4 0;
#X connect 43 0 41 0;
#X connect 44 0 31 0;
#X connect 44 1 13 0;
#X connect 44 2 30 0;
#X connect 44 3 8 1;
#X connect 45 0 14 0;
#X connect 45 1 8 0;
#X connect 47 0 37 0;
#X connect 48 0 2 0;
#X restore 231 541 pd dynamic_menu;
#X obj 134 475 r m_start_listen;
#X obj 306 474 iemguts/receivecanvas 1;
#X obj 231 564 iemguts/sendcanvas 1;
#X connect 1 0 2 0;
#X connect 4 0 7 0;
#X connect 5 0 4 0;
#X connect 6 0 4 1;
#X coords 0 -1 1 1 300 60 1 100 100;
