#N canvas 1 56 1905 1025 10;
#X declare -path ../../ressources/core;
#X declare -path ../../ressources/rj;
#X obj 38 509 tabread \$0-notes;
#X obj 38 529 tabread \$0-velocity;
#X obj 720 216 round_param \$0 beat;
#X obj 625 292 u_parameter \$0 beat;
#X text 132 45 1/4;
#X text 132 60 1/8;
#N canvas 519 65 1237 658 arpeggiator 0;
#X obj 607 109 route note;
#X obj 576 288 - 1;
#X obj 580 310 t b b f;
#X obj 566 380 tabwrite \$0-notes;
#X obj 603 355 tabwrite \$0-velocity;
#X obj 575 332 f;
#X obj 603 333 f;
#X obj 453 103 r \$0-beat;
#X msg 518 161 6;
#X obj 429 143 bng 15 250 50 0 empty empty empty 17 7 0 10 -262144
-1 -1;
#X obj 453 190 t f f;
#X msg 453 141 24;
#X msg 476 161 12;
#X msg 494 141 8;
#X obj 345 225 mod;
#X obj 809 234 select 0;
#X msg 842 260 1;
#X obj 500 386 mod;
#X msg 809 261 -1;
#X obj 813 324 f;
#X obj 811 284 +;
#X obj 812 353 max 0;
#X obj 873 308 min 6;
#X obj 346 248 spigot;
#X obj 447 368 f;
#X obj 346 269 select 0;
#X obj 499 365 + 1;
#X obj 436 341 t b b;
#X obj 452 406 select 0;
#X obj 410 454 f;
#X msg 452 427 0;
#X obj 409 493 tabread \$0-velocity;
#X obj 333 511 select 0;
#X obj 454 458 + 1;
#X obj 323 484 delay 1;
#X obj 411 474 t f f;
#X obj 409 560 pack f f;
#X msg 411 580 \$2 \$1;
#X obj 411 600 makenote 65 100;
#X obj 411 621 pack f f;
#X obj 474 521 tabread \$0-notes;
#X msg 411 642 note \$1 \$2;
#X obj 521 571 r \$0-duration;
#X obj 343 652 outlet;
#X obj 607 87 inlet;
#X msg 753 114 stop;
#X msg 555 161 3;
#X msg 535 141 4;
#X obj 453 122 select 0 1 2 3 4 5;
#X obj 748 83 r \$0-stop;
#X obj 607 152 spigot;
#X obj 664 128 r \$0-busy;
#X obj 280 200 spigot;
#X obj 352 175 r \$0-busy;
#X floatatom 811 306 5 0 0 0 - - -, f 5;
#X obj 18 82 r CLOCK;
#X msg 399 184 1;
#X obj 333 309 random 100;
#X obj 333 331 * 0.01;
#X obj 240 394 r \$0-prob;
#X obj 342 381 select 1;
#X obj 342 359 < 1;
#X obj 266 545 t f b;
#X obj 720 370 table \$0-notes 16;
#X obj 720 400 table \$0-velocity 16;
#X obj 577 268 poly 16 1;
#X obj 498 455 mod 16;
#X obj 623 188 list prepend 0;
#X obj 623 210 route 0 1 2;
#X obj 833 60 r \$0-oct;
#X obj 861 89 + 0.5;
#X obj 861 111 int;
#N canvas 0 50 450 300 1oct 0;
#X obj 308 90 inlet;
#X obj 308 215 outlet;
#X obj 219 95 unpack f f;
#X obj 219 117 t f f;
#X obj 248 151 + 12;
#X obj 219 179 pack f f;
#X connect 0 0 2 0;
#X connect 2 0 3 0;
#X connect 2 1 5 1;
#X connect 3 0 5 0;
#X connect 3 1 4 0;
#X connect 4 0 5 0;
#X connect 5 0 1 0;
#X restore 631 243 pd 1oct;
#N canvas 0 50 450 300 2oct 0;
#X obj 308 90 inlet;
#X obj 308 215 outlet;
#X obj 219 95 unpack f f;
#X obj 248 151 + 12;
#X obj 219 179 pack f f;
#X obj 219 117 t f f f;
#X obj 288 151 + 24;
#X connect 0 0 2 0;
#X connect 2 0 5 0;
#X connect 2 1 4 1;
#X connect 3 0 4 0;
#X connect 4 0 1 0;
#X connect 5 0 4 0;
#X connect 5 1 3 0;
#X connect 5 2 6 0;
#X connect 6 0 4 0;
#X restore 691 243 pd 2oct;
#X obj 99 17 r \$0-clock_synchro;
#X obj 119 124 spigot;
#X obj 224 44 == 0;
#X obj 363 23 r \$0-_bpm;
#X msg 337 79 tempo \$1 permin;
#X obj 360 43 * 24;
#X obj 319 119 metro 1 2880 permin;
#X obj 303 139 f;
#X obj 303 159 + 1;
#X obj 353 151 mod 1.57286e+06;
#X obj 211 245 mod 24;
#X obj 211 268 select 0;
#X obj 211 291 s \$0-tap;
#X obj 130 306 r BPM;
#X obj 63 362 f 120;
#X obj 22 214 r \$0-clock_synchro;
#X obj 20 269 select 1;
#X obj 45 461 s \$0-_bpm;
#X obj 109 399 spigot;
#X obj 228 89 &&;
#X obj 272 46 t b f;
#X obj 269 5 r \$0-busy;
#X obj 62 515 r \$0-_bpm;
#X obj 158 512 r BPM;
#X obj 70 559 select 120;
#X msg 126 593 0;
#X obj 126 616 s \$0-clock_synchro;
#X obj 324 542 r \$0-raccent;
#X obj 244 571 +;
#X obj 303 571 random 100;
#X obj 303 591 * 0.01;
#X obj 303 611 - 0.5;
#X obj 303 631 * 0;
#X floatatom 244 594 5 0 0 0 - - -, f 5;
#X connect 0 0 50 0;
#X connect 1 0 2 0;
#X connect 2 0 5 0;
#X connect 2 1 6 0;
#X connect 2 2 3 1;
#X connect 2 2 4 1;
#X connect 5 0 3 0;
#X connect 6 0 4 0;
#X connect 7 0 48 0;
#X connect 8 0 10 0;
#X connect 10 0 14 1;
#X connect 11 0 10 0;
#X connect 12 0 10 0;
#X connect 13 0 10 0;
#X connect 14 0 23 0;
#X connect 15 0 18 0;
#X connect 15 1 16 0;
#X connect 16 0 20 0;
#X connect 17 0 24 1;
#X connect 18 0 20 0;
#X connect 19 0 21 0;
#X connect 20 0 19 0;
#X connect 20 0 54 0;
#X connect 21 0 22 0;
#X connect 22 0 20 1;
#X connect 22 0 23 1;
#X connect 22 0 17 1;
#X connect 23 0 25 0;
#X connect 24 0 26 0;
#X connect 24 0 28 0;
#X connect 25 0 57 0;
#X connect 26 0 17 0;
#X connect 27 0 29 0;
#X connect 27 1 24 0;
#X connect 28 0 30 0;
#X connect 29 0 33 0;
#X connect 29 0 35 0;
#X connect 30 0 29 1;
#X connect 31 0 32 0;
#X connect 32 0 34 0;
#X connect 32 1 62 0;
#X connect 33 0 66 0;
#X connect 34 0 29 0;
#X connect 35 0 31 0;
#X connect 35 1 40 0;
#X connect 36 0 37 0;
#X connect 37 0 38 0;
#X connect 38 0 39 0;
#X connect 38 1 39 1;
#X connect 39 0 41 0;
#X connect 40 0 36 1;
#X connect 41 0 43 0;
#X connect 42 0 38 2;
#X connect 44 0 0 0;
#X connect 45 0 65 0;
#X connect 46 0 10 0;
#X connect 47 0 10 0;
#X connect 48 0 11 0;
#X connect 48 0 9 0;
#X connect 48 1 12 0;
#X connect 48 2 13 0;
#X connect 48 3 8 0;
#X connect 48 4 47 0;
#X connect 48 5 46 0;
#X connect 49 0 45 0;
#X connect 50 0 67 0;
#X connect 51 0 50 1;
#X connect 52 0 14 0;
#X connect 52 0 84 0;
#X connect 53 0 52 1;
#X connect 55 0 75 0;
#X connect 56 0 52 1;
#X connect 56 0 23 1;
#X connect 57 0 58 0;
#X connect 58 0 61 0;
#X connect 59 0 61 1;
#X connect 60 0 27 0;
#X connect 61 0 60 0;
#X connect 62 0 102 0;
#X connect 62 1 103 0;
#X connect 65 0 1 0;
#X connect 65 1 5 1;
#X connect 65 2 6 1;
#X connect 65 2 15 0;
#X connect 66 0 29 1;
#X connect 67 0 68 0;
#X connect 68 0 65 0;
#X connect 68 1 72 0;
#X connect 68 2 73 0;
#X connect 69 0 70 0;
#X connect 70 0 71 0;
#X connect 71 0 67 1;
#X connect 72 0 65 0;
#X connect 73 0 65 0;
#X connect 74 0 75 1;
#X connect 74 0 76 0;
#X connect 75 0 52 0;
#X connect 76 0 93 0;
#X connect 77 0 79 0;
#X connect 78 0 80 0;
#X connect 79 0 78 0;
#X connect 80 0 81 0;
#X connect 81 0 82 0;
#X connect 82 0 83 0;
#X connect 83 0 81 1;
#X connect 83 0 52 0;
#X connect 84 0 85 0;
#X connect 85 0 86 0;
#X connect 87 0 88 1;
#X connect 87 0 92 0;
#X connect 88 0 91 0;
#X connect 89 0 90 0;
#X connect 89 0 92 1;
#X connect 90 0 88 0;
#X connect 92 0 91 0;
#X connect 93 0 80 0;
#X connect 94 0 93 0;
#X connect 94 1 93 1;
#X connect 95 0 94 0;
#X connect 96 0 98 0;
#X connect 97 0 98 1;
#X connect 98 1 99 0;
#X connect 99 0 100 0;
#X connect 101 0 106 1;
#X connect 102 0 36 0;
#X connect 102 0 107 0;
#X connect 103 0 104 0;
#X connect 104 0 105 0;
#X connect 105 0 106 0;
#X connect 106 0 102 1;
#X restore 164 387 pd arpeggiator;
#X obj 654 340 u_dispatch \$0 duration;
#X obj 548 276 r STOP;
#X text 506 57 |;
#X text 505 67 °;
#X text 504 68 °;
#X text 576 67 |;
#X text 575 77 °;
#X text 574 78 °;
#X text 572 62 ~;
#X text 626 77 |;
#X text 625 87 °;
#X text 624 88 °;
#X text 629 72 ~;
#X text 629 76 ~;
#X text 686 87 |;
#X text 685 97 °;
#X text 684 98 °;
#X text 689 82 ~;
#X text 689 86 ~;
#X text 689 89 ~;
#X msg 267 283 note \$1 \$2;
#X obj 2 113 notein 1;
#X obj 22 137 spigot;
#X obj 47 8 r \$0-midiNoteIn;
#X obj 654 362 u_dispatch \$0 prob;
#X obj 684 0 tgl 30 0 MIDI_LEARN MIDI_LEARN-rcv midi-learn(1:cc1) 2
7 0 10 -262144 -1 -1 0 1;
#X obj 796 2 vsl 15 128 0 127 0 0 empty empty empty 0 -9 0 10 -262144
-1 -1 0 1;
#X msg 803 344 \; CTLIN \$1 1 1;
#X obj 329 415 midi-colors \$0 beat \$0-beat-rcv 0 5 lin;
#X obj 654 384 u_parameter \$0 bypass;
#X obj 396 300 r \$0-bypass;
#X obj 277 331 list prepend 0;
#X obj 269 360 route 0 1;
#X obj 50 348 r \$0-stop;
#X msg 50 370 stop;
#X obj 9 260 inlet~;
#X obj 7 278 outlet~;
#X obj 69 260 inlet~;
#X obj 67 278 outlet~;
#X obj 109 300 inlet data;
#X obj 167 441 outlet data;
#X obj 101 101 cnv 15 188 68 empty \$0-background midi_arpeggiator
0 7 0 14 -262144 -1 0;
#X text 132 86 1/16;
#X text 132 74 1/12;
#X obj 199 155 hradio 15 1 0 6 \$0-beat \$0-beat-rcv empty 0 -8 0 10
-262144 -1 -1 3;
#X obj 176 115 bng 25 250 50 0 empty empty reset 2 15 0 10 -204786
-1 -1;
#X obj 352 121 s \$0-stop;
#X text 204 135 |;
#X text 203 145 °;
#X text 202 146 °;
#X text 218 135 |;
#X text 217 145 °;
#X text 216 146 °;
#X text 220 130 ~;
#X text 248 134 |;
#X text 247 144 °;
#X text 246 145 °;
#X text 251 129 ~;
#X text 251 133 ~;
#X text 275 133 |;
#X text 276 143 °;
#X text 275 144 °;
#X text 278 128 ~;
#X text 278 132 ~;
#X text 278 135 ~;
#X text 233 135 |;
#X text 232 145 °;
#X text 231 146 °;
#X text 236 130 ~;
#X text 263 134 |;
#X text 262 144 °;
#X text 261 145 °;
#X text 266 129 ~;
#X text 266 133 ~;
#X text 235 124 3;
#X text 265 123 3;
#X obj 33 163 pack f f;
#X obj 312 74 tgl 15 0 \$0-midiNoteIn \$0-midiNoteIn-rcv midiNoteIn
-50 7 0 10 -262144 -1 -1 0 1;
#X obj 207 114 tgl 20 0 \$0-bypass \$0-bypass-rcv BYPASS 1 7 0 10 -262144
-1 -1 0 1;
#X obj 624 267 module_loader midi_arpeggiator \$0 \$1;
#X obj 149 155 hradio 15 1 0 3 \$0-oct \$0-oct-rcv OCT_1_2 0 9 0 10
-24198 -1 -1 0;
#X obj 654 406 u_parameter \$0 oct;
#X obj 329 445 midi-colors \$0 oct \$0-oct-rcv 0 2 lin;
#X obj 215 421 spigot 1;
#X obj 289 404 == 0;
#X obj 596 172 loadbang;
#X obj 486 55 namecanvas \$0-multitab;
#X obj 484 35 ui_multitab \$0;
#X obj 101 201 cnv 15 188 68 empty \$0-background midi_arpeggiator
0 7 0 14 -262144 -1 0;
#X obj 260 200 hradio 15 1 0 2 \$0-guitab \$0-guitab-rcv empty 0 -8
0 10 -191407 -1 -1 0;
#X obj 260 100 hradio 15 1 0 2 \$0-guitab \$0-guitab-rcv empty 0 -8
0 10 -191407 -1 -1 0;
#X obj 141 138 tgl 15 0 \$0-clock_synchro \$0-clock_synchro-rcv SYNC_TEMPO
0 7 0 10 -44926 -44926 -1 0 1;
#X obj 655 433 u_parameter \$0 clock_synchro;
#X obj 100 115 ui_vs \$0 _bpm 20 400;
#X obj 654 462 u_dispatch \$0 _bpm;
#X obj 260 216 bng 20 50 50 0 empty \$0-tap 120 0 10 0 12 -204800 -4160
-1;
#X floatatom 333 185 5 0 0 0 - - -, f 5;
#X obj 363 207 r \$0-_bpm;
#X msg 358 259 label \$1.;
#X obj 351 233 int;
#X obj 358 282 s \$0-tap;
#X obj 146 116 bng 20 50 50 0 empty \$0-tap 120 0 10 0 12 -204800 -4160
-1;
#X obj 670 515 u_dispatch \$0 raccent;
#X obj 176 215 ui_vs \$0 raccent 0 30;
#X msg 596 194 beat 3 \, prob 1 \, duration 100 \, clock_synchro 1
\, _bpm 120 \, raccent 0;
#X obj 100 215 ui_vs \$0 duration 10 400;
#X obj 138 215 ui_vs \$0 prob 0 1;
#X text 819 507 random accentuation;
#X obj 402 502 r \$0-_bpm;
#X obj 402 525 spigot;
#X obj 519 517 r \$0-clock_synchro;
#X obj 519 540 == 0;
#X msg 402 548 bpm \$1;
#X obj 478 636 midi-colors \$0 bypass \$0-bypass-rcv;
#X obj 478 659 < 1;
#X obj 478 682 s \$0-bypass;
#X obj 396 323 select 1;
#X obj 396 360 s \$0-stop;
#X text 468 355 reset;
#X obj 434 595 r BPM;
#X obj 399 623 f 120;
#X obj 519 580 select 1;
#X msg 510 156 color 17 17 -1;
#X msg 478 175 color 0 0 -1;
#X obj 655 433 u_parameter \$0 clock_synchro;
#X obj 474 111 r \$0-clock_synchro;
#X obj 474 132 select 0 1;
#X obj 463 203 s \$0-clock_synchro-rcv;
#X obj 1154 4 declare -path ../../ressources/core;
#X obj 1154 34 declare -path ../../ressources/rj;
#X connect 3 0 7 0;
#X connect 6 0 90 0;
#X connect 7 0 31 0;
#X connect 8 0 53 0;
#X connect 27 0 38 0;
#X connect 28 0 29 0;
#X connect 28 1 83 1;
#X connect 29 0 83 0;
#X connect 30 0 29 1;
#X connect 31 0 36 0;
#X connect 33 0 34 0;
#X connect 36 0 88 0;
#X connect 37 0 38 1;
#X connect 37 0 91 0;
#X connect 37 0 123 0;
#X connect 38 0 39 0;
#X connect 39 0 6 0;
#X connect 39 1 47 0;
#X connect 40 0 41 0;
#X connect 41 0 47 0;
#X connect 42 0 43 0;
#X connect 44 0 45 0;
#X connect 46 0 38 0;
#X connect 52 0 53 0;
#X connect 83 0 27 0;
#X connect 86 0 3 0;
#X connect 88 0 99 0;
#X connect 90 0 47 0;
#X connect 91 0 90 1;
#X connect 92 0 111 0;
#X connect 99 0 101 0;
#X connect 101 0 109 0;
#X connect 104 0 103 0;
#X connect 104 0 106 0;
#X connect 105 0 107 0;
#X connect 106 0 105 0;
#X connect 111 0 86 0;
#X connect 115 0 116 0;
#X connect 116 0 119 0;
#X connect 117 0 118 0;
#X connect 117 0 128 0;
#X connect 118 0 116 1;
#X connect 119 0 47 0;
#X connect 120 0 121 0;
#X connect 121 0 122 0;
#X connect 123 0 124 0;
#X connect 126 0 127 1;
#X connect 127 0 119 0;
#X connect 128 0 127 0;
#X connect 129 0 134 0;
#X connect 130 0 134 0;
#X connect 132 0 133 0;
#X connect 133 0 130 0;
#X connect 133 1 129 0;
#X coords 0 0 1 1 190 70 1 100 100;
