#N canvas 407 237 678 486 10;
#X declare -path ../../ressources/core;
#X declare -path ../../ressources/rj;
#N canvas 172 83 586 377 LICENSE-GPL 0;
#X text 57 88 This program is free software: you can redistribute it
and/or modify it under the terms of the GNU General Public License
as published by the Free Software Foundation \, either version 3 of
the License \, or (at your option) any later version.;
#X text 58 168 This program is distributed in the hope that it will
be useful \, but WITHOUT ANY WARRANTY \; without even the implied warranty
of MERCHANTABILITY or FITNESS FOR A PARTICULAR PURPOSE. See the GNU
General Public License for more details.;
#X text 57 261 You should have received a copy of the GNU General Public
License along with this program. If not \, see <http://www.gnu.org/licenses/>.
;
#X text 61 54 Copyright (C) 2009 \, Reality Jockey Ltd.;
#X text 60 325 See the file LICENSE.txt for the full license text.
;
#X restore 503 11 pd LICENSE-GPL;
#X obj 101 101 cnv 15 188 68 empty \$0-background module_template-0
0 7 0 14 -262144 -1 0;
#X obj 29 260 inlet~;
#X obj 81 259 inlet~;
#X obj 28 421 outlet~;
#X obj 92 420 outlet~;
#X obj 144 257 inlet data;
#X obj 157 413 outlet data;
#X obj 384 94 declare -path ../../ressources/core;
#X obj 384 124 declare -path ../../ressources/rj;
#X obj 190 301 module_loader module_template \$0 \$1;
#N canvas 0 50 450 300 your_stuff_here 0;
#X obj 34 72 inlet~;
#X obj 119 75 inlet~;
#X obj 34 245 outlet~;
#X obj 120 243 outlet~;
#X obj 206 76 inlet data;
#X obj 208 241 outlet data;
#X connect 0 0 2 0;
#X connect 1 0 3 0;
#X connect 4 0 5 0;
#X restore 28 341 pd your_stuff_here;
#X text 146 341 <-- Do the job here inside.;
#X text 30 51 1) rename this file with the name you choose for your
module, f 40;
#X text 414 276 2) In your new module file \,;
#X text 415 299 <- replace "module_template" by the name you choose
for it., f 30;
#X text 25 10 This a minimal module template. All objects here (except
comments) have to be kept.;
#X text 414 351 3) don't forget to document a help-file !;
#X connect 2 0 11 0;
#X connect 3 0 11 1;
#X connect 6 0 10 0;
#X connect 6 0 11 2;
#X connect 11 0 4 0;
#X connect 11 1 5 0;
#X connect 11 2 7 0;
#X coords 0 -1 1 1 190 70 1 100 100;
