#N canvas 417 96 926 486 10;
#X declare -path ../../ressources/core;
#X declare -path ../../ressources/rj;
#N canvas 172 83 586 377 LICENSE-GPL 0;
#X text 57 88 This program is free software: you can redistribute it
and/or modify it under the terms of the GNU General Public License
as published by the Free Software Foundation \, either version 3 of
the License \, or (at your option) any later version.;
#X text 58 168 This program is distributed in the hope that it will
be useful \, but WITHOUT ANY WARRANTY \; without even the implied warranty
of MERCHANTABILITY or FITNESS FOR A PARTICULAR PURPOSE. See the GNU
General Public License for more details.;
#X text 57 261 You should have received a copy of the GNU General Public
License along with this program. If not \, see <http://www.gnu.org/licenses/>.
;
#X text 61 54 Copyright (C) 2009 \, Reality Jockey Ltd.;
#X text 60 325 See the file LICENSE.txt for the full license text.
;
#X restore 298 15 pd LICENSE-GPL;
#X obj 101 101 cnv 15 188 68 empty \$0-background note_interpolations
0 7 0 14 -262144 -1 0;
#X obj 29 260 inlet~;
#X obj 111 259 inlet~;
#X obj 28 279 outlet~;
#X obj 112 278 outlet~;
#X obj 178 193 inlet data;
#X obj 174 397 outlet data;
#X obj 347 323 module_loader note_interpolations \$0 \$1;
#X obj 119 128 hradio 15 1 0 8 \$0-mode \$0-mode-rcv empty 0 -8 0 10
-262144 -1 -1 1;
#X obj 178 214 route note;
#X obj 178 238 list prepend 0;
#N canvas 0 50 450 300 stuff 0;
#X obj 168 84 inlet;
#X obj 168 254 outlet;
#X obj 168 129 route 0 1 2 3 4 5 6 7;
#X obj 168 170 unpack f f;
#X obj 168 214 pack f f;
#X obj 288 170 unpack f f;
#X obj 288 214 pack f f;
#X obj 288 192 expr 138-$f1;
#X obj 168 192 + 8;
#X connect 0 0 2 0;
#X connect 2 1 3 0;
#X connect 2 2 5 0;
#X connect 3 0 8 0;
#X connect 3 1 4 1;
#X connect 4 0 1 0;
#X connect 5 0 7 0;
#X connect 5 1 6 1;
#X connect 6 0 1 0;
#X connect 7 0 6 0;
#X connect 8 0 4 0;
#X restore 178 321 pd stuff;
#X obj 303 216 r \$0-mode;
#X obj 347 345 u_parameter \$0 mode;
#X obj 219 150 tgl 15 0 \$0-direct \$0-direct-rcv direct 17 7 0 10
-262144 -1 -1 0 1;
#X obj 347 365 u_parameter \$0 direct;
#X obj 267 287 spigot;
#X obj 303 256 r \$0-direct;
#X msg 195 363 note \$1 \$2;
#X text 458 61 todo : écrire un registre \, dans lequel sont mémorisées
les notes entrantes;
#X obj 484 4 declare -path ../../ressources/core;
#X obj 484 34 declare -path ../../ressources/rj;
#X connect 2 0 4 0;
#X connect 3 0 5 0;
#X connect 6 0 10 0;
#X connect 8 0 14 0;
#X connect 10 0 11 0;
#X connect 10 0 17 0;
#X connect 10 1 7 0;
#X connect 11 0 12 0;
#X connect 12 0 19 0;
#X connect 13 0 11 1;
#X connect 14 0 16 0;
#X connect 17 0 19 0;
#X connect 18 0 17 1;
#X connect 19 0 7 0;
#X coords 0 -1 1 1 190 70 1 100 100;
