#N canvas 713 50 613 434 10;
#X declare -path ../core;
#X declare -path ../rj;
#X obj 346 65 declare -path ../core;
#X obj 346 95 declare -path ../rj;
#X obj 390 230 tgl 15 0 empty empty V 4 8 0 12 -4034 -4034 -1 0 1;
#X obj 390 267 tgl 15 0 empty empty X 4 8 0 12 -258113 -258113 -1 0
1;
#X text 410 226 Instances multiples;
#X obj 32 117 note_16steps;
#X obj 50 252 hsl 64 15 0 127 0 1 \$0-scale \$0-scale-rcv dorian 3
7 0 10 -203904 -228856 -1 800 1;
#X obj 49 272 hsl 47 15 0 11 0 1 \$0-xpose \$0-xpose-rcv Xpose 3 7
0 10 -261682 -1 -1 100 1;
#X obj 53 232 hsl 64 15 0 100 0 1 \$0-offset \$0-offset-rcv OFFSET
3 7 0 10 -262144 -1 -1 4100 1;
#X text 130 230 décalage d'ambitus;
#X text 130 250 mode;
#X text 130 270 transposition (semitones);
#X floatatom 73 207 5 1 16 0 steps #0-cycle-rcv #0-cycle, f 5;
#X text 132 209 périodicité;
#X obj 48 309 vradio 10 1 0 4 empty empty empty 0 -8 0 10 -204786 -1
-1 1;
#X obj 69 338 vradio 10 1 0 4 empty empty empty 0 -8 0 10 -261234 -1
-1 0;
#X text 68 311 rappel d'un preset de scène;
#X text 83 350 enregistrement d'un preset de scène;
#X obj 60 400 tgl 10 0 \$0-random-3 \$0-random-3-rcv empty 17 7 0 10
-159681 -1 -1 0 1;
#X obj 70 400 tgl 10 0 \$0-random-4 \$0-random-4-rcv empty 17 7 0 10
-159681 -1 -1 0 1;
#X obj 80 400 tgl 10 0 \$0-random-5 \$0-random-5-rcv empty 17 7 0 10
-162280 -1 -1 0 1;
#X obj 90 400 tgl 10 0 \$0-random-6 \$0-random-6-rcv empty 17 7 0 10
-159681 -1 -1 0 1;
#X obj 100 400 tgl 10 0 \$0-random-7 \$0-random-7-rcv empty 17 7 0
10 -159681 -1 -1 0 1;
#X obj 110 400 tgl 10 0 \$0-random-8 \$0-random-8-rcv empty 17 7 0
10 -159681 -1 -1 0 1;
#X obj 120 400 tgl 10 0 \$0-random-9 \$0-random-9-rcv empty 17 7 0
10 -162280 -1 -1 0 1;
#X obj 130 400 tgl 10 0 \$0-random-10 \$0-random-10-rcv empty 17 7
0 10 -159681 -1 -1 0 1;
#X obj 140 400 tgl 10 0 \$0-random-11 \$0-random-11-rcv empty 17 7
0 10 -159681 -1 -1 0 1;
#X obj 150 400 tgl 10 0 \$0-random-12 \$0-random-12-rcv empty 17 7
0 10 -159681 -1 -1 0 1;
#X obj 160 400 tgl 10 0 \$0-random-13 \$0-random-13-rcv empty 17 7
0 10 -162280 -1 -1 0 1;
#X obj 170 400 tgl 10 0 \$0-random-14 \$0-random-14-rcv empty 17 7
0 10 -159681 -1 -1 0 1;
#X obj 180 400 tgl 10 0 \$0-random-15 \$0-random-15-rcv empty 17 7
0 10 -159681 -1 -1 0 1;
#X obj 190 400 tgl 10 0 \$0-random-16 \$0-random-16-rcv empty 17 7
0 10 -159681 -1 -1 0 1;
#X obj 40 400 tgl 10 0 \$0-random-1 \$0-random-1-rcv empty 17 7 0 10
-162280 -1 -1 0 1;
#X obj 50 400 tgl 10 0 \$0-random-2 \$0-random-2-rcv empty 17 7 0 10
-159681 -1 -1 0 1;
#X text 216 391 cocher les cases dont la hauteur est modifiée aléatoirement
au tour suivant;
#X text 33 45 séquenceur style analogique inspiré des objets 8steps
et megasequencer de AUTOMATONISM_1.1;
#X obj 37 193 hradio 10 1 0 3 \$0-div \$0-div-rcv div 1 6 0 10 -159808
-258113 -4034 0;
#X text 120 192 div : choix de l'unité (double \, croche \, noire)
;
#X coords 0 434 1 433 190 70 0;
