#N canvas 156 56 678 486 10;
#X declare -path ../../ressources/core;
#X declare -path ../../ressources/rj;
#N canvas 172 83 586 377 LICENSE-GPL 0;
#X text 57 88 This program is free software: you can redistribute it
and/or modify it under the terms of the GNU General Public License
as published by the Free Software Foundation \, either version 3 of
the License \, or (at your option) any later version.;
#X text 58 168 This program is distributed in the hope that it will
be useful \, but WITHOUT ANY WARRANTY \; without even the implied warranty
of MERCHANTABILITY or FITNESS FOR A PARTICULAR PURPOSE. See the GNU
General Public License for more details.;
#X text 57 261 You should have received a copy of the GNU General Public
License along with this program. If not \, see <http://www.gnu.org/licenses/>.
;
#X text 61 54 Copyright (C) 2009 \, Reality Jockey Ltd.;
#X text 60 325 See the file LICENSE.txt for the full license text.
;
#X restore 298 15 pd LICENSE-GPL;
#X obj 101 101 cnv 15 188 68 empty \$0-background note_2param 0 7 0
14 -262144 -1 0;
#X obj 208 228 route note;
#X obj 29 260 inlet~;
#X obj 30 286 outlet~;
#X obj 99 260 inlet~;
#X obj 100 286 outlet~;
#X obj 208 206 inlet data;
#X obj 202 459 outlet data;
#X obj 367 241 module_loader note_2param \$0 \$1;
#X symbolatom 216 120 10 0 0 0 target #0-target-rcv #0-target, f 10
;
#X text 351 144 comment;
#X symbolatom 216 137 10 0 0 0 param_name #0-param_name-rcv #0-param_name
, f 10;
#X msg 178 392 note \$1 \$2;
#X floatatom 136 154 5 0 0 0 - - -, f 5;
#X obj 444 24 declare -path ../../ressources/core;
#X obj 444 54 declare -path ../../ressources/rj;
#X connect 2 0 13 0;
#X connect 2 1 8 0;
#X connect 3 0 4 0;
#X connect 5 0 6 0;
#X connect 7 0 2 0;
#X connect 7 0 9 0;
#X connect 13 0 8 0;
#X coords 0 -1 1 1 190 70 1 100 100;
