#N canvas 156 56 975 486 8;
#X declare -path ../../ressources/core;
#X declare -path ../../ressources/rj;
#N canvas 172 83 586 377 LICENSE-GPL 0;
#X text 57 88 This program is free software: you can redistribute it
and/or modify it under the terms of the GNU General Public License
as published by the Free Software Foundation \, either version 3 of
the License \, or (at your option) any later version.;
#X text 58 168 This program is distributed in the hope that it will
be useful \, but WITHOUT ANY WARRANTY \; without even the implied warranty
of MERCHANTABILITY or FITNESS FOR A PARTICULAR PURPOSE. See the GNU
General Public License for more details.;
#X text 57 261 You should have received a copy of the GNU General Public
License along with this program. If not \, see <http://www.gnu.org/licenses/>.
;
#X text 61 54 Copyright (C) 2009 \, Reality Jockey Ltd.;
#X text 60 325 See the file LICENSE.txt for the full license text.
;
#X restore 298 15 pd LICENSE-GPL;
#X obj 101 101 cnv 15 188 68 empty \$0-background note_randomize 0
7 0 14 -262144 -1 0;
#X obj 208 228 route note;
#X obj 100 115 ui_vs \$0 prob 0 100;
#X obj 487 263 u_dispatch \$0 prob;
#X obj 196 288 route 0;
#X msg 196 262 \$2 \$1;
#X msg 186 429 note \$1 0;
#X msg 292 390 note \$2 \$1;
#N canvas 1 56 450 300 probs 0;
#X obj 102 53 inlet;
#X obj 119 229 outlet;
#X obj 105 124 random 100;
#X obj 197 147 r \$0-prob;
#X obj 135 178 select 1;
#X obj 182 202 list append;
#X obj 105 146 <= 100;
#X obj 110 86 t b l;
#X connect 0 0 7 0;
#X connect 2 0 6 0;
#X connect 3 0 6 1;
#X connect 4 0 5 0;
#X connect 5 0 1 0;
#X connect 6 0 4 0;
#X connect 7 0 2 0;
#X connect 7 1 5 1;
#X restore 290 320 pd probs;
#X obj 487 285 u_dispatch \$0 accent;
#X obj 138 115 ui_vs \$0 accent 0 100;
#N canvas 0 50 450 300 accent 0;
#X obj 152 48 inlet;
#X obj 137 90 unpack f f;
#X obj 136 121 t f b;
#X obj 176 149 random 0;
#X obj 197 185 -;
#X obj 312 114 / 2;
#X obj 133 205 +;
#X obj 133 227 min 127;
#X obj 133 249 max 0;
#X obj 135 272 pack f f;
#X obj 135 294 outlet;
#X obj 268 76 r \$0-accent;
#X connect 0 0 1 0;
#X connect 1 0 2 0;
#X connect 1 1 9 1;
#X connect 2 0 6 0;
#X connect 2 1 3 0;
#X connect 3 0 4 0;
#X connect 4 0 6 1;
#X connect 5 0 4 1;
#X connect 6 0 7 0;
#X connect 7 0 8 0;
#X connect 8 0 9 0;
#X connect 9 0 10 0;
#X connect 11 0 3 1;
#X connect 11 0 5 0;
#X restore 293 350 pd accent;
#X obj 29 260 inlet~;
#X obj 20 403 outlet~;
#X obj 99 260 inlet~;
#X obj 90 403 outlet~;
#X obj 208 206 inlet data;
#X obj 202 459 outlet data;
#X obj 487 241 module_loader note_randomize \$0 \$1;
#N canvas 1 56 571 463 audio_stuff 0;
#X obj 29 70 inlet~;
#X obj 30 266 outlet~;
#X obj 99 70 inlet~;
#X obj 100 266 outlet~;
#X obj 191 79 inlet;
#X obj 223 231 spigot;
#X obj 218 197 unpack f f;
#X obj 230 313 f;
#X obj 55 178 *~;
#X obj 115 178 *~;
#X obj 115 132 vline~;
#X obj 226 275 t b b;
#X obj 291 307 dbtorms;
#X obj 217 351 pack f f;
#X msg 189 427 \$2 10 \, 0 10 \$1;
#X obj 335 226 r \$0-decay;
#X obj 18 236 c_xfade;
#X obj 91 235 c_xfade;
#X obj 209 150 r \$0-wet;
#X obj 253 111 route note;
#X obj 217 370 list prepend 0;
#X obj 349 360 == 0;
#X obj 354 313 f;
#X obj 217 389 route 0 1;
#X obj 165 132 vline~;
#X msg 279 427 \$2 10 \, 0 10 \$1;
#X obj 425 377 unpack f f;
#X obj 473 399 * 0.4;
#X obj 421 433 pack f f;
#X obj 435 287 unpack f f;
#X obj 483 309 * 0.4;
#X obj 431 343 pack f f;
#X connect 0 0 8 0;
#X connect 0 0 16 0;
#X connect 2 0 9 0;
#X connect 2 0 17 0;
#X connect 4 0 19 0;
#X connect 5 0 11 0;
#X connect 6 0 5 0;
#X connect 6 1 5 1;
#X connect 6 1 12 0;
#X connect 7 0 13 0;
#X connect 8 0 16 1;
#X connect 9 0 17 1;
#X connect 10 0 8 1;
#X connect 11 0 7 0;
#X connect 11 1 22 0;
#X connect 12 0 13 1;
#X connect 13 0 20 0;
#X connect 14 0 10 0;
#X connect 15 0 7 1;
#X connect 16 0 1 0;
#X connect 17 0 3 0;
#X connect 18 0 17 2;
#X connect 18 0 16 2;
#X connect 19 0 6 0;
#X connect 20 0 23 0;
#X connect 21 0 22 1;
#X connect 22 0 21 0;
#X connect 22 0 20 1;
#X connect 23 0 14 0;
#X connect 23 0 26 0;
#X connect 23 1 25 0;
#X connect 23 1 29 0;
#X connect 24 0 9 1;
#X connect 25 0 24 0;
#X connect 26 0 28 0;
#X connect 26 1 27 0;
#X connect 27 0 28 1;
#X connect 28 0 25 0;
#X connect 29 0 31 0;
#X connect 29 1 30 0;
#X connect 30 0 31 1;
#X connect 31 0 14 0;
#X restore 30 332 pd audio_stuff;
#X obj 488 305 u_dispatch \$0 decay;
#X obj 488 325 u_dispatch \$0 wet;
#X obj 252 115 ui_vs \$0 wet 0 1;
#X obj 214 115 ui_vsl \$0 decay 10 2000;
#X obj 488 344 u_parameter \$0 euclid;
#X obj 302 260 list prepend 0;
#X obj 302 279 route 0;
#N canvas 1 56 450 300 euclid 0;
#X obj 105 41 inlet;
#X obj 97 243 outlet;
#X obj 104 66 list split 1;
#X obj 126 101 t b l;
#X obj 121 124 f;
#X obj 136 145 + 1;
#X obj 169 150 mod 16;
#X obj 218 124 r \$0-euclid;
#X obj 280 92 r \$0-prob;
#X obj 343 108 t b f;
#X obj 210 212 list append;
#X obj 305 34 r STOP;
#X msg 292 53 0;
#X obj 356 80 r \$0-euclid;
#X obj 311 139 * 16;
#X obj 280 111 / 100;
#X obj 311 158 int;
#X obj 210 193 note_randomize/euclid;
#X connect 0 0 2 0;
#X connect 2 1 3 0;
#X connect 3 0 4 0;
#X connect 3 1 10 1;
#X connect 4 0 5 0;
#X connect 4 0 17 0;
#X connect 5 0 6 0;
#X connect 6 0 4 1;
#X connect 7 0 6 1;
#X connect 7 0 17 3;
#X connect 8 0 15 0;
#X connect 9 0 14 0;
#X connect 9 1 14 1;
#X connect 10 0 1 0;
#X connect 11 0 12 0;
#X connect 12 0 4 1;
#X connect 13 0 9 0;
#X connect 14 0 16 0;
#X connect 15 0 14 0;
#X connect 16 0 17 1;
#X connect 17 0 10 0;
#X restore 362 305 pd euclid;
#X obj 307 171 r \$0-euclid;
#X obj 176 115 ui_vs \$0 euclid 0 64;
#X text 126 114 <---MIDI--->;
#X text 225 118 <--AUDIO-->;
#X obj 660 85 round_param \$0 euclid;
#X text 180 138 steps;
#X obj 170 328 pipe f 0;
#X obj 691 150 vsl 15 128 0 300 0 0 empty empty empty 0 -9 0 10 -262144
-1 -1 0 1;
#X obj 484 4 declare -path ../../ressources/core;
#X obj 484 34 declare -path ../../ressources/rj;
#X connect 2 0 6 0;
#X connect 2 1 18 0;
#X connect 4 0 10 0;
#X connect 5 0 35 0;
#X connect 5 1 26 0;
#X connect 6 0 5 0;
#X connect 7 0 18 0;
#X connect 7 0 20 2;
#X connect 8 0 18 0;
#X connect 8 0 20 2;
#X connect 9 0 12 0;
#X connect 10 0 21 0;
#X connect 12 0 8 0;
#X connect 13 0 20 0;
#X connect 15 0 20 1;
#X connect 17 0 2 0;
#X connect 19 0 4 0;
#X connect 20 0 14 0;
#X connect 20 1 16 0;
#X connect 21 0 22 0;
#X connect 22 0 25 0;
#X connect 26 0 27 0;
#X connect 27 0 9 0;
#X connect 27 1 28 0;
#X connect 28 0 12 0;
#X connect 29 0 26 1;
#X connect 35 0 7 0;
#X connect 36 0 35 1;
#X coords 0 -1 1 1 190 70 1 100 100;
