#N struct 2779-symarray float x array symbols 2779-sym;
#N struct 2779-sym symbol name float on;
#N canvas 448 85 894 552 10;
#X text 45 56 interpolations http://poset.labri.fr/interpolations/
écriture de contraintes réactives pour improvisations pianistiques
(from JIM2016);
#X text 42 31 Inspiré du projet;
#X obj 409 286 tgl 15 0 \$0-direct \$0-direct-rcv direct 17 7 0 10
-262144 -1 -1 0 1;
#X text 546 282 transmission directe de la note originale;
#X floatatom 79 247 10 0 127 0 pivot #0-pivot-rcv #0-pivot, f 10;
#X symbolatom 107 247 6 0 0 0 - #0-pivot_display-rcv -, f 6;
#X floatatom 93 261 5 -4 4 0 scaling #0-scaling-rcv #0-scaling, f
5;
#X floatatom 93 345 5 -4 4 0 transpose - -, f 5;
#X text 191 271 1= aucun changement \; -1= miroir;
#X text 161 245 note centrale du pivot;
#X text 157 259 amplification autour du pivot;
#X text 171 340 transposition vers le haut ou le bas;
#X obj 46 127 note_interpol;
#X coords 0 552 1 551 190 70 0;
