#N canvas 65 59 991 595 10;
#X obj 176 202 switch~;
#X obj 175 181 r \$0-active;
#X obj 98 320 stereo_inlet~ \$0;
#X obj 95 344 stereo_outlet~ \$0;
#X obj 353 434 data_inlet \$0;
#X obj 358 529 data_outlet \$0;
#X obj 239 265 rack_loader pattern \$1 \$0;
#X obj 109 239 rack_enableV2 200 80 4 8 0 1 pattern \$1 \$0;
#N canvas 0 50 450 250 (subpatch) 0;
#X array \$0-random 12 float 3;
#A 0 0.44 0.18 0.24 0.54 0.49 0.77 0.02 0.74 0.96 0.84 0.19 0.03;
#X coords 0 1 12 0 200 140 1 0 0;
#X restore 599 59 graph;
#X obj 570 261 metro 200;
#X obj 242 123 tgl 15 0 empty empty start 17 7 0 10 -262144 -1 -1 0
1;
#X obj 570 283 f;
#X obj 627 295 + 1;
#X obj 625 324 mod 12;
#X obj 574 357 t f f;
#X obj 581 510 spigot;
#X obj 102 127 vsl 15 40 0 1 0 0 empty empty empty 0 -9 0 10 -262144
-1 -1 0 1;
#X obj 650 476 < 0;
#X obj 527 419 tabread \$0-pattern;
#X obj 655 396 tabread \$0-random;
#X obj 345 382 makenote 100 200;
#X obj 252 453 pack f f;
#X msg 259 481 note \$1 \$2;
#X obj 590 543 bng 15 250 50 0 empty empty empty 17 7 0 10 -262144
-1 -1;
#X floatatom 530 317 5 0 0 0 - - -, f 5;
#N canvas 0 50 450 250 (subpatch) 0;
#X array \$0-pattern 12 float 3;
#A 0 64 66 71 73 74 66 64 73 71 66 74 73;
#X coords 0 80 12 40 200 140 1 0 0;
#X restore 351 30 graph;
#X floatatom 575 464 5 0 0 0 - - -, f 5;
#X obj 353 169 hsl 200 18 0 12 0 0 empty empty empty -2 -8 0 10 -262144
-1 -1 0 1;
#X obj 524 463 int;
#X obj 131 39 notein;
#X floatatom 125 66 5 0 0 0 - - -, f 5;
#X obj 29 51 s \$0-pattern;
#X msg 41 7 0 64 66 71 73 74 66 64 73 71 66 74 73;
#X obj 153 150 hsl 128 15 40 208 0 0 empty empty empty -2 -8 0 10 -262144
-1 -1 0 1;
#X obj 677 267 /;
#X msg 678 244 15000 \$1;
#X msg 62 210 120;
#X obj 226 135 bng 15 250 50 0 empty empty set_120 17 7 0 10 -262144
-1 -1;
#X obj 666 518 tgl 15 0 empty empty empty 17 7 0 10 -262144 -1 -1 0
1;
#X text 90 415 TODO;
#X text 25 450 sauvegarde;
#X text 27 473 multiple patterns;
#X floatatom 185 135 5 0 0 0 bpm - -, f 5;
#X msg 273 198 set \$1;
#X text 118 122 100%;
#X text 119 153 0%;
#X text 103 110 remplissage;
#X obj 218 104 vsl 70 17 1 0 0 0 \$0-presets \$0-presets-rcv PRESETS
2 5 0 10 -232576 -232576 -1 0 1;
#X obj 814 302 list append;
#X obj 788 231 random 100;
#X obj 795 267 / 100;
#X obj 839 195 until;
#X msg 834 111 12;
#X obj 854 346 list;
#X obj 829 138 t b f b;
#X obj 746 353 list append;
#X msg 752 319 0;
#X obj 814 401 s \$0-random;
#X obj 196 113 bng 15 250 50 0 empty empty random 17 7 0 10 -262144
-1 -1;
#X obj 264 298 u_dispatch \$0 pattern;
#X obj 264 328 u_dispatch \$0 random;
#X connect 1 0 0 0;
#X connect 2 0 3 0;
#X connect 2 1 3 1;
#X connect 4 0 5 0;
#X connect 6 0 59 0;
#X connect 7 1 6 0;
#X connect 9 0 11 0;
#X connect 10 0 9 0;
#X connect 11 0 12 0;
#X connect 11 0 14 0;
#X connect 12 0 13 0;
#X connect 13 0 11 1;
#X connect 14 0 18 0;
#X connect 14 0 27 0;
#X connect 14 1 19 0;
#X connect 15 0 20 0;
#X connect 15 0 23 0;
#X connect 16 0 17 1;
#X connect 17 0 15 1;
#X connect 17 0 38 0;
#X connect 18 0 28 0;
#X connect 19 0 17 0;
#X connect 20 0 21 0;
#X connect 20 1 21 1;
#X connect 21 0 22 0;
#X connect 22 0 5 0;
#X connect 28 0 15 0;
#X connect 28 0 26 0;
#X connect 29 0 30 0;
#X connect 32 0 31 0;
#X connect 33 0 35 0;
#X connect 33 0 43 0;
#X connect 34 0 9 1;
#X connect 35 0 34 0;
#X connect 36 0 42 0;
#X connect 37 0 36 0;
#X connect 42 0 33 0;
#X connect 43 0 42 0;
#X connect 48 0 53 0;
#X connect 48 0 55 1;
#X connect 49 0 50 0;
#X connect 50 0 48 0;
#X connect 51 0 49 0;
#X connect 52 0 54 0;
#X connect 53 0 48 1;
#X connect 54 0 56 0;
#X connect 54 1 51 0;
#X connect 54 2 48 1;
#X connect 55 0 57 0;
#X connect 56 0 55 0;
#X connect 58 0 52 0;
#X connect 59 0 60 0;
#X coords 0 -1 1 1 190 70 1 100 100;
