#N struct mappings float y symbol module_name symbol param_name float
ccnum float min float max symbol mapping;
#N canvas 1 56 846 501 10;
#X declare -path ../../ressources/core;
#X declare -path ../../ressources/rj;
#N canvas 0 50 443 107 midi-learn-stuff 0;
#N canvas 137 50 1199 655 midi-learn 0;
#X msg 148 294 showLastUsed \$1;
#X msg 181 239 0;
#X obj 18 295 route lastUsed;
#X obj 148 182 select 1 0;
#X msg 70 79 set 0;
#X obj 420 404 select -1;
#X obj 394 494 list append;
#X obj 417 426 t b b;
#X obj 605 499 t b f;
#X msg 685 514 -1;
#X obj 368 460 delay 1;
#X obj 743 492 loadbang;
#X msg 519 503 1e+06;
#X obj 512 237 s MIDI_CTL_IN;
#X obj 510 197 pack f f;
#X obj 508 172 swap;
#X obj 476 351 list append -1;
#X obj 423 320 t l l;
#X obj 20 317 list;
#X obj 22 349 t b l;
#X obj 148 260 t f b;
#X msg 632 290 -1;
#X obj 18 396 delay 30;
#X obj 423 381 text search midi-mapping;
#X obj 484 555 text set midi-mapping;
#X obj 164 534 text sequence midi-mapping;
#X obj 163 432 delay 10;
#X floatatom 147 115 5 0 0 0 CTL - -, f 5;
#X obj 295 220 == 0;
#X text 293 238 ne pas transmettre les midi ctl quand on est en mode
midilearn, f 21;
#X obj 510 218 spigot 1;
#X msg 166 501 line 0 \, step;
#X obj 130 621 delay 10;
#X msg 306 503 step;
#X obj 34 124 bng 30 250 50 0 empty empty refresh -17 22 0 10 -262144
-1 -1;
#X msg 17 433 clear;
#X msg 361 650 0;
#X obj 516 110 r CTLIN;
#X obj 153 578 t b l l;
#X obj 214 610 spigot;
#X msg 252 560 \$3;
#X obj 266 588 >= 0;
#X text 252 21 1 click "midilearn";
#X text 252 41 2 move midi ctrl;
#X text 252 61 3 click gui slider;
#X text 414 20 Pour supprimer une affectation \, sauter l'etape 2,
f 17;
#X obj 100 130 tgl 30 0 empty empty midi-learn 2 7 0 10 -262144 -1
-1 0 1;
#X obj 17 266 r RACK_ADMIN;
#X obj 147 318 s RACK_ADMIN;
#X text 22 203 couleur du mode midilearn -->, f 15;
#X msg 141 215 44, f 5;
#X obj 464 267 print MIDI_CTL_IN;
#N canvas 428 159 752 256 dynamic-ctl-assign 0;
#X obj 0 0 r MIDI_CTL_IN;
#X text 185 0 param;
#X text 282 -1 cc;
#X text 344 -1 val min;
#X text 434 -1 val max;
#X text 541 -1 scale log/lin;
#X obj 0 560 ctl-assign3 27;
#X obj 0 100 ctl-assign3 4;
#X obj 0 540 ctl-assign3 26;
#X obj 0 140 ctl-assign3 6;
#X obj 0 120 ctl-assign3 5;
#X obj 0 20 ctl-assign3 0;
#X obj 0 40 ctl-assign3 1;
#X obj 0 60 ctl-assign3 2;
#X obj 0 200 ctl-assign3 9;
#X obj 0 80 ctl-assign3 3;
#X obj 0 480 ctl-assign3 23;
#X obj 0 160 ctl-assign3 7;
#X obj 0 180 ctl-assign3 8;
#X obj 0 220 ctl-assign3 10;
#X obj 0 240 ctl-assign3 11;
#X obj 0 260 ctl-assign3 12;
#X obj 0 280 ctl-assign3 13;
#X obj 0 300 ctl-assign3 14;
#X obj 0 320 ctl-assign3 15;
#X obj 0 340 ctl-assign3 16;
#X obj 0 360 ctl-assign3 17;
#X obj 0 380 ctl-assign3 18;
#X obj 0 400 ctl-assign3 19;
#X obj 0 420 ctl-assign3 20;
#X obj 0 440 ctl-assign3 21;
#X obj 0 460 ctl-assign3 22;
#X obj 0 500 ctl-assign3 24;
#X obj 0 520 ctl-assign3 25;
#X obj 0 580 ctl-assign3 28;
#X obj 0 600 ctl-assign3 29;
#X obj 0 620 ctl-assign3 30;
#X obj 0 640 ctl-assign3 31;
#X obj 0 660 ctl-assign3 32;
#X obj 0 680 ctl-assign3 33;
#X obj 0 700 ctl-assign3 34;
#X obj 0 720 ctl-assign3 35;
#X obj 0 740 ctl-assign3 36;
#X obj 0 760 ctl-assign3 37;
#X obj 0 780 ctl-assign3 38;
#X obj 0 800 ctl-assign3 39;
#X obj 0 820 ctl-assign3 40;
#X obj 0 840 ctl-assign3 41;
#X obj 0 860 ctl-assign3 42;
#X obj 0 880 ctl-assign3 43;
#X obj 0 900 ctl-assign3 44;
#X obj 0 920 ctl-assign3 45;
#X obj 0 940 ctl-assign3 46;
#X obj 0 960 ctl-assign3 47;
#X obj 0 980 ctl-assign3 48;
#X obj 0 1000 ctl-assign3 49;
#X obj 0 1020 ctl-assign3 50;
#X obj 0 1040 ctl-assign3 51;
#X obj 0 1060 ctl-assign3 52;
#X obj 0 1080 ctl-assign3 53;
#X obj 0 1100 ctl-assign3 54;
#X obj 0 1120 ctl-assign3 55;
#X obj 0 1140 ctl-assign3 56;
#X obj 0 1160 ctl-assign3 57;
#X obj 0 1180 ctl-assign3 58;
#X obj 0 1200 ctl-assign3 59;
#X obj 0 1220 ctl-assign3 60;
#X obj 0 1240 ctl-assign3 61;
#X obj 0 1260 ctl-assign3 62;
#X obj 0 1280 ctl-assign3 63;
#X obj 0 1300 ctl-assign3 64;
#X obj 0 1320 ctl-assign3 65;
#X obj 0 1340 ctl-assign3 66;
#X obj 0 1360 ctl-assign3 67;
#X obj 0 1380 ctl-assign3 68;
#X obj 0 1400 ctl-assign3 69;
#X obj 0 1420 ctl-assign3 70;
#X obj 0 1440 ctl-assign3 71;
#X obj 0 1460 ctl-assign3 72;
#X obj 0 1480 ctl-assign3 73;
#X obj 0 1500 ctl-assign3 74;
#X obj 0 1520 ctl-assign3 75;
#X obj 0 1540 ctl-assign3 76;
#X obj 0 1560 ctl-assign3 77;
#X obj 0 1580 ctl-assign3 78;
#X obj 0 1600 ctl-assign3 79;
#X obj 0 1620 ctl-assign3 80;
#X obj 0 1640 ctl-assign3 81;
#X obj 0 1660 ctl-assign3 82;
#X obj 0 1680 ctl-assign3 83;
#X obj 0 1700 ctl-assign3 84;
#X obj 0 1720 ctl-assign3 85;
#X obj 0 1740 ctl-assign3 86;
#X obj 0 1760 ctl-assign3 87;
#X obj 0 1780 ctl-assign3 88;
#X obj 0 1800 ctl-assign3 89;
#X obj 0 1820 ctl-assign3 90;
#X obj 0 1840 ctl-assign3 91;
#X obj 0 1860 ctl-assign3 92;
#X obj 0 1880 ctl-assign3 93;
#X obj 0 1900 ctl-assign3 94;
#X obj 0 1920 ctl-assign3 95;
#X obj 0 1940 ctl-assign3 96;
#X obj 0 1960 ctl-assign3 97;
#X obj 0 1980 ctl-assign3 98;
#X obj 0 2000 ctl-assign3 99;
#X text 654 -1 f.b.out;
#X connect 0 0 11 0;
#X connect 6 0 34 0;
#X connect 7 0 10 0;
#X connect 8 0 6 0;
#X connect 9 0 17 0;
#X connect 10 0 9 0;
#X connect 11 0 12 0;
#X connect 12 0 13 0;
#X connect 13 0 15 0;
#X connect 14 0 19 0;
#X connect 15 0 7 0;
#X connect 16 0 32 0;
#X connect 17 0 18 0;
#X connect 18 0 14 0;
#X connect 19 0 20 0;
#X connect 20 0 21 0;
#X connect 21 0 22 0;
#X connect 22 0 23 0;
#X connect 23 0 24 0;
#X connect 24 0 25 0;
#X connect 25 0 26 0;
#X connect 26 0 27 0;
#X connect 27 0 28 0;
#X connect 28 0 29 0;
#X connect 29 0 30 0;
#X connect 30 0 31 0;
#X connect 31 0 16 0;
#X connect 32 0 33 0;
#X connect 33 0 8 0;
#X connect 34 0 35 0;
#X connect 35 0 36 0;
#X connect 36 0 37 0;
#X connect 37 0 38 0;
#X connect 38 0 39 0;
#X connect 39 0 40 0;
#X connect 40 0 41 0;
#X connect 41 0 42 0;
#X connect 42 0 43 0;
#X connect 43 0 44 0;
#X connect 44 0 45 0;
#X connect 45 0 46 0;
#X connect 46 0 47 0;
#X connect 47 0 48 0;
#X connect 48 0 49 0;
#X connect 49 0 50 0;
#X connect 50 0 51 0;
#X connect 51 0 52 0;
#X connect 52 0 53 0;
#X connect 53 0 54 0;
#X connect 54 0 55 0;
#X connect 55 0 56 0;
#X connect 56 0 57 0;
#X connect 57 0 58 0;
#X connect 58 0 59 0;
#X connect 59 0 60 0;
#X connect 60 0 61 0;
#X connect 61 0 62 0;
#X connect 62 0 63 0;
#X connect 63 0 64 0;
#X connect 64 0 65 0;
#X connect 65 0 66 0;
#X connect 66 0 67 0;
#X connect 67 0 68 0;
#X connect 68 0 69 0;
#X connect 69 0 70 0;
#X connect 70 0 71 0;
#X connect 71 0 72 0;
#X connect 72 0 73 0;
#X connect 73 0 74 0;
#X connect 74 0 75 0;
#X connect 75 0 76 0;
#X connect 76 0 77 0;
#X connect 77 0 78 0;
#X connect 78 0 79 0;
#X connect 79 0 80 0;
#X connect 80 0 81 0;
#X connect 81 0 82 0;
#X connect 82 0 83 0;
#X connect 83 0 84 0;
#X connect 84 0 85 0;
#X connect 85 0 86 0;
#X connect 86 0 87 0;
#X connect 87 0 88 0;
#X connect 88 0 89 0;
#X connect 89 0 90 0;
#X connect 90 0 91 0;
#X connect 91 0 92 0;
#X connect 92 0 93 0;
#X connect 93 0 94 0;
#X connect 94 0 95 0;
#X connect 95 0 96 0;
#X connect 96 0 97 0;
#X connect 97 0 98 0;
#X connect 98 0 99 0;
#X connect 99 0 100 0;
#X connect 100 0 101 0;
#X connect 101 0 102 0;
#X connect 102 0 103 0;
#X connect 103 0 104 0;
#X connect 104 0 105 0;
#X restore 643 76 pd dynamic-ctl-assign;
#N canvas 0 50 998 439 dynamic-ctl-assign3-populating 0;
#X obj 132 300 s pd-dynamic-ctl-assign;
#X obj 166 124 f;
#X obj 253 138 + 1;
#X msg 203 100 0;
#X obj 153 54 t f b;
#X obj 185 194 * 20;
#X obj 136 91 until;
#X obj 128 228 + 20;
#X msg 370 166 clear \, obj 0 0 r MIDI_CTL_IN;
#X obj 187 169 t f f f;
#X obj 191 227 pack f f f;
#X obj 249 201 + 1;
#X msg 191 249 obj 0 \$1 ctl-assign3 \$2 \, connect \$2 0 \$3 0;
#X obj 94 22 inlet;
#X obj 398 303 s pd-edit_midi_mappings;
#X connect 1 0 2 0;
#X connect 1 0 9 0;
#X connect 2 0 1 1;
#X connect 3 0 1 1;
#X connect 4 0 6 0;
#X connect 4 1 3 0;
#X connect 4 1 8 0;
#X connect 5 0 7 0;
#X connect 6 0 1 0;
#X connect 7 0 10 0;
#X connect 8 0 0 0;
#X connect 9 0 5 0;
#X connect 9 1 10 1;
#X connect 9 2 11 0;
#X connect 10 0 12 0;
#X connect 11 0 10 2;
#X connect 12 0 0 0;
#X connect 13 0 4 0;
#X restore 643 41 pd dynamic-ctl-assign3-populating;
#X obj 207 726 list append;
#X obj 228 698 t b f;
#X msg 262 752 symbol ctl-assign3-\$1;
#X obj 213 738 send;
#X obj 228 669 f;
#X obj 229 640 t b a;
#X obj 269 673 + 1;
#X obj -12 477 s ctl-assign3.GLOBAL;
#X msg 643 14 100;
#X text 824 77 <- stockage dynamique des affectations midi;
#X text 690 14 <- spécifier le nombre max d'affectations midi simultanées
;
#X text 643 167 le message showLastUsed <color> envoyé sur le canal
RACK_ADMIN est reçu par les modules midi-colors (pour chaque élément
gui). Dès qu'un élément gui est activé par la souris \, il renvoie
un message lastUsed sur ce même canal RACK_ADMIN \, et la liste midi-mapping
est mise à jour.;
#N canvas 0 50 808 472 sauvegarde_affectation_midi_dans_scènes 0;
#X obj 32 168 r RJ_SCENE_LOAD;
#X obj 488 20 r RJ_SCENE_SAVE;
#X obj 28 196 list trim;
#X obj 33 228 route ctl-assign;
#X obj 37 63 r RJ_SCENE_RELOAD;
#X obj 34 107 outlet;
#X msg 33 84 clear;
#X text 17 2 Chargement d'une scène :;
#X text 19 41 1) réinitialiser l'objet text define "midi-mapping"
;
#X text 12 137 2) insérer les lignes ctl-assign;
#X msg 145 314 -1;
#X obj 145 290 loadbang;
#X msg 79 293 1e+06;
#X obj 44 345 text set midi-mapping;
#X obj 44 266 t a b;
#X obj 40 306 list;
#X text 17 385 3) valider;
#X obj 169 186 t a b;
#X obj 210 218 delay 500;
#X obj 210 408 s \$0-refresh;
#X text 463 71 se fait à l'intérieur des modules ctl-assign3;
#X text 463 48 Sauvegarde d'une scène :;
#X connect 0 0 17 0;
#X connect 2 0 3 0;
#X connect 3 0 14 0;
#X connect 4 0 6 0;
#X connect 6 0 5 0;
#X connect 10 0 13 2;
#X connect 11 0 10 0;
#X connect 12 0 13 1;
#X connect 14 0 15 0;
#X connect 14 1 12 0;
#X connect 15 0 13 0;
#X connect 17 0 2 0;
#X connect 17 1 18 0;
#X connect 18 0 19 0;
#X restore 747 256 pd sauvegarde_affectation_midi_dans_scènes;
#X obj 747 282 outlet;
#X obj 90 364 r \$0-refresh;
#X obj 149 18 r MIDI_LEARN;
#X msg 192 58 set \$1;
#X obj 214 94 s MIDI_LEARN-rcv;
#X obj 410 72 change;
#N canvas 0 50 450 300 edit_midi_mappings 0;
#X restore 667 112 pd edit_midi_mappings;
#X obj 397 290 list split 2;
#N canvas 552 70 603 300 edition_mapping(experimental) 0;
#X text 18 11 ctln;
#X text 111 12 affectation;
#X text 252 10 minvalue;
#X text 350 12 maxvalue;
#N canvas 682 50 815 534 mappings 0;
#X text 444 140 module_name;
#X text 488 202 param_name;
#X obj 243 66 struct mappings float y symbol module_name symbol param_name
float ccnum float min float max symbol mapping;
#X obj 51 129 filledpolygon 840 0 3 0 0 100 0 100 20 0 20 0 0;
#X obj 52 156 drawsymbol module_name 2 2 0;
#X obj 71 509 filledpolygon 840 0 3 500 0 600 0 600 20 500 20 500 0
;
#X obj 71 548 drawsymbol mapping 502 2 0;
#X obj 108 72 print;
#X obj 54 206 filledpolygon 640 0 3 100 0 200 0 200 20 100 20 100 0
;
#X obj 52 236 drawsymbol param_name 102 2 0;
#X obj 51 279 filledpolygon 460 0 3 200 0 300 0 300 20 200 20 200 0
;
#X obj 51 318 drawnumber ccnum 202 2 0;
#X obj 61 359 filledpolygon 246 0 3 300 0 400 0 400 20 300 20 300 0
;
#X obj 62 386 drawnumber min 302 2 0;
#X obj 61 429 filledpolygon 428 0 3 400 0 500 0 500 20 400 20 400 0
;
#X obj 61 468 drawnumber max 402 2 0;
#X connect 2 0 7 0;
#X restore 180 108 pd mappings;
#N canvas 0 50 718 219 mappings_edit 0;
#X scalar mappings 76 fx_dubdel-2 del 42 289 3023 log \;;
#X text 18 23 module param cc min max type;
#X scalar mappings 146 fx_dubdel-2 wet 53 0 100 lin \;;
#X restore 349 134 pd mappings_edit;
#X msg 84 166 traverse pd-mappings_edit \, bang;
#X obj 108 199 pointer;
#X obj 59 241 append mappings y;
#X msg 31 208 10;
#X connect 6 0 7 0;
#X connect 7 0 8 1;
#X connect 9 0 8 0;
#X restore 935 381 pd edition_mapping(experimental);
#X obj 579 457 list append;
#X obj 255 327 r MIDI_MAPPING_REFRESH;
#X obj 919 126 r \$0-mappings;
#X msg 923 102 \; pd-dynamic-ctl-assign vis 1;
#X obj 163 455 text size midi-mapping;
#X obj 165 478 select 0;
#X obj 242 388 list split 2;
#X obj 255 361 t l l;
#X obj 513 143 unpack f f;
#X obj 397 86 t f f;
#X obj 456 98 mod 128;
#X obj 397 111 div 128;
#X obj 405 155 pack f f;
#X obj 397 136 + 1;
#X msg 335 194 label midi-learn(\$1:cc\$2);
#X obj 151 130 bng 30 250 50 0 \$0-mappings empty Mappings... 2 7 0
10 -262144 -1 -1;
#X connect 0 0 48 0;
#X connect 1 0 0 0;
#X connect 1 0 28 0;
#X connect 2 0 18 0;
#X connect 3 0 50 0;
#X connect 3 1 1 0;
#X connect 4 0 46 0;
#X connect 4 0 71 0;
#X connect 5 0 7 0;
#X connect 5 1 8 0;
#X connect 6 0 24 0;
#X connect 7 0 10 0;
#X connect 7 1 12 0;
#X connect 8 0 6 0;
#X connect 8 1 24 1;
#X connect 9 0 24 2;
#X connect 10 0 6 0;
#X connect 11 0 9 0;
#X connect 12 0 24 1;
#X connect 14 0 30 0;
#X connect 15 0 14 0;
#X connect 15 0 27 0;
#X connect 15 0 72 0;
#X connect 15 1 14 1;
#X connect 16 0 76 0;
#X connect 17 0 23 0;
#X connect 17 1 16 0;
#X connect 18 0 19 0;
#X connect 19 0 1 0;
#X connect 19 0 4 0;
#X connect 19 0 22 0;
#X connect 19 1 74 0;
#X connect 20 0 0 0;
#X connect 20 0 28 0;
#X connect 20 1 21 0;
#X connect 21 0 16 1;
#X connect 21 0 27 0;
#X connect 21 0 72 0;
#X connect 22 0 35 0;
#X connect 22 0 26 0;
#X connect 22 0 36 0;
#X connect 23 0 5 0;
#X connect 25 0 38 0;
#X connect 26 0 80 0;
#X connect 28 0 30 1;
#X connect 30 0 13 0;
#X connect 31 0 25 0;
#X connect 32 0 33 0;
#X connect 33 0 25 0;
#X connect 34 0 22 0;
#X connect 35 0 61 0;
#X connect 36 0 58 1;
#X connect 37 0 84 0;
#X connect 38 0 32 0;
#X connect 38 1 39 0;
#X connect 38 2 40 0;
#X connect 39 0 59 0;
#X connect 40 0 41 0;
#X connect 41 0 39 1;
#X connect 46 0 3 0;
#X connect 46 0 70 0;
#X connect 47 0 2 0;
#X connect 50 0 20 0;
#X connect 54 0 57 0;
#X connect 55 0 54 0;
#X connect 55 1 56 0;
#X connect 56 0 57 1;
#X connect 58 0 60 0;
#X connect 58 0 55 0;
#X connect 59 0 58 0;
#X connect 59 1 54 1;
#X connect 60 0 58 1;
#X connect 62 0 53 0;
#X connect 66 0 67 0;
#X connect 68 0 22 0;
#X connect 69 0 3 0;
#X connect 69 0 70 0;
#X connect 70 0 46 0;
#X connect 70 0 71 0;
#X connect 72 0 85 0;
#X connect 74 0 17 0;
#X connect 74 1 76 1;
#X connect 76 0 6 1;
#X connect 77 0 83 0;
#X connect 78 0 79 0;
#X connect 80 0 81 0;
#X connect 81 1 31 0;
#X connect 82 0 23 0;
#X connect 83 0 82 0;
#X connect 83 1 6 1;
#X connect 84 0 15 0;
#X connect 84 1 15 1;
#X connect 84 1 16 1;
#X connect 85 0 87 0;
#X connect 85 1 86 0;
#X connect 86 0 88 1;
#X connect 87 0 89 0;
#X connect 88 0 90 0;
#X connect 89 0 88 0;
#X connect 90 0 71 0;
#X coords 0 655 1 654 120 60 0;
#X restore 23 43 pd midi-learn;
#X obj 24 65 s PdRacks.define.midi-mapping;
#X connect 0 0 1 0;
#X restore 208 48 pd midi-learn-stuff;
#X obj 260 140 bng 30 250 50 0 \$0-mappings empty Edit_Mappings...
-80 20 0 10 -261682 -1 -1;
#X obj 100 131 tgl 30 0 MIDI_LEARN MIDI_LEARN-rcv midi-learn(1:cc16)
2 7 0 10 -261682 -1 -1 0 1;
#N canvas 0 50 681 300 ctlin 0;
#X obj 163 219 s CTLIN;
#X obj 342 280 s SPEED_LIM;
#X msg 303 252 0;
#X msg 359 255 20;
#X obj 243 81 - 1;
#X obj 243 106 * 128;
#X obj 221 131 +;
#X obj 160 154 pack f f;
#X obj 160 36 ctlin;
#X connect 2 0 1 0;
#X connect 3 0 1 0;
#X connect 4 0 5 0;
#X connect 5 0 6 1;
#X connect 6 0 7 1;
#X connect 7 0 0 0;
#X connect 8 0 7 0;
#X connect 8 1 6 0;
#X connect 8 2 4 0;
#X restore 21 33 pd ctlin;
#N canvas 630 260 656 229 \$0-midi_devices 0;
#X obj 307 12 bng 20 250 50 0 empty empty REFRESH 22 7 0 10 -262144
-1 -1;
#X text 111 13 MIDI IN;
#X text 433 15 MIDI OUT;
#N canvas 1 56 1050 625 stuff 0;
#X obj 14 175 loadbang;
#N canvas 0 50 656 300 midi-devices-parsing 0;
#X obj 37 37 inlet;
#X obj 121 169 mediasettings/midisettings;
#X obj 121 194 route devicelist;
#X obj 121 219 route in out;
#X obj 283 115 t b b;
#X obj 121 244 route float;
#X obj 203 274 list;
#X msg 203 299 \$2 \$1;
#X obj 291 244 route float;
#X obj 97 474 text define midi-in;
#X obj 315 476 text define midi-out;
#X obj 210 398 text set midi-in;
#X msg 257 362 1e+06;
#X obj 216 328 t l b;
#X msg 373 299 \$2 \$1;
#X msg 427 362 1e+06;
#X obj 386 328 t l b;
#X obj 380 398 text set midi-out;
#X msg 343 147 clear;
#X obj 373 274 list;
#X msg 103 340 \; \$2-midi-in \$1;
#X msg 73 360 \; \$2-midi-out \$1;
#X msg 372 102 \; midi-in-global clear \; midi-out-global clear;
#X obj 295 37 inlet;
#X connect 0 0 4 0;
#X connect 1 0 2 0;
#X connect 2 0 3 0;
#X connect 3 0 5 0;
#X connect 3 1 8 0;
#X connect 4 0 1 0;
#X connect 4 1 18 0;
#X connect 4 1 22 0;
#X connect 5 1 6 0;
#X connect 6 0 7 0;
#X connect 6 0 20 0;
#X connect 7 0 13 0;
#X connect 8 1 19 0;
#X connect 12 0 11 1;
#X connect 13 0 11 0;
#X connect 13 1 12 0;
#X connect 14 0 16 0;
#X connect 15 0 17 1;
#X connect 16 0 17 0;
#X connect 16 1 15 0;
#X connect 18 0 9 0;
#X connect 18 0 10 0;
#X connect 19 0 14 0;
#X connect 19 0 21 0;
#X connect 23 0 1 0;
#X restore 26 237 pd midi-devices-parsing;
#X obj 544 145 list prepend add2;
#X obj 551 179 list trim;
#X msg 504 333;
#X obj 435 45 r midi-in-feedback;
#X obj 863 143 list prepend add2;
#X obj 863 168 list trim;
#X msg 735 334;
#X obj 784 35 r midi-out-feedback;
#X obj 785 116 route clear;
#X obj 463 118 route clear;
#X obj 434 239 t b;
#X obj 666 372 list append;
#X obj 434 289 t b b b b b b;
#X obj 404 374 list append;
#X obj 405 456 list append;
#X obj 208 504 list trim;
#X obj 645 231 loadbang;
#X text 619 605 get available devices for current driver;
#X obj 158 572 list prepend midi-dialog;
#X obj 158 594 list trim;
#X obj 158 616 s pd;
#X msg 542 534 1 0 0 0 0 0 0 0 0 3 1 0 0 0 0 0 0 0 2 4;
#X msg 194 195 device @out 1;
#X msg 734 281 set;
#X msg 602 280 set;
#X obj 210 451 list append 2 4;
#X obj 404 399 list append 0 0 0 0 0 0 0 0 0;
#X obj 404 424 list split 9;
#X obj 669 402 list append 0 0 0 0 0 0 0 0 0;
#X obj 669 427 list split 9;
#X obj 210 476 list prepend set;
#X msg 159 535 2 0 0 0 0 0 0 0 0 4 0 0 0 0 0 0 0 0 2 4;
#X obj 434 264 delay 100;
#X obj 156 97 r \$0-refresh;
#X obj 156 392 delay 2000;
#N canvas 0 50 1210 622 saving_state 0;
#X obj 211 109 r midi-out-save_device;
#X obj 61 206 r midi-out-feedback;
#X obj 61 231 route clear;
#X msg 179 258 set;
#X obj 196 346 s midi-out-recall_device;
#X obj 179 308 list;
#X msg 252 218 add2 \$2 \$1 \, addcomma;
#X msg 203 285 MIDI_Mix 0 \,;
#X obj 581 231 route clear;
#X msg 699 258 set;
#X obj 699 308 list;
#X msg 772 218 add2 \$2 \$1 \, addcomma;
#X msg 723 285 MIDI_Mix 0 \,;
#X obj 731 109 r midi-in-save_device;
#X obj 716 346 s midi-in-recall_device;
#X obj 581 206 r midi-in-feedback;
#X connect 0 0 6 0;
#X connect 1 0 2 0;
#X connect 2 0 3 0;
#X connect 3 0 7 0;
#X connect 5 0 4 0;
#X connect 6 0 7 0;
#X connect 7 0 5 0;
#X connect 8 0 9 0;
#X connect 9 0 12 0;
#X connect 10 0 14 0;
#X connect 11 0 12 0;
#X connect 12 0 10 0;
#X connect 13 0 11 0;
#X connect 15 0 8 0;
#X restore 893 294 pd saving_state;
#X obj 128 190 bng 15 250 50 0 empty empty empty 17 7 0 10 -262144
-1 -1;
#X connect 0 0 1 0;
#X connect 2 0 3 0;
#X connect 3 0 4 0;
#X connect 4 0 15 1;
#X connect 5 0 11 0;
#X connect 5 0 12 0;
#X connect 6 0 7 0;
#X connect 7 0 8 0;
#X connect 8 0 13 1;
#X connect 9 0 10 0;
#X connect 9 0 12 0;
#X connect 10 0 25 0;
#X connect 10 1 6 0;
#X connect 11 0 26 0;
#X connect 11 1 2 0;
#X connect 12 0 34 0;
#X connect 13 0 30 0;
#X connect 14 0 15 0;
#X connect 14 0 36 0;
#X connect 14 1 4 0;
#X connect 14 2 15 1;
#X connect 14 3 13 0;
#X connect 14 4 8 0;
#X connect 14 5 13 1;
#X connect 15 0 28 0;
#X connect 16 0 27 0;
#X connect 17 0 33 0;
#X connect 18 0 26 0;
#X connect 18 0 25 0;
#X connect 20 0 21 0;
#X connect 21 0 22 0;
#X connect 23 0 20 0;
#X connect 24 0 1 1;
#X connect 25 0 8 0;
#X connect 26 0 4 0;
#X connect 27 0 32 0;
#X connect 28 0 29 0;
#X connect 29 0 16 0;
#X connect 30 0 31 0;
#X connect 31 0 16 1;
#X connect 32 0 17 0;
#X connect 33 0 20 0;
#X connect 34 0 14 0;
#X connect 35 0 1 0;
#X connect 36 0 33 0;
#X connect 38 0 1 0;
#X restore 561 10 pd stuff;
#X obj 336 39 u_item midi-out 1;
#X obj 336 105 u_item midi-out 4;
#X obj 336 61 u_item midi-out 2;
#X obj 23 61 u_item midi-in 3;
#X obj 23 39 u_item midi-in 1;
#X obj 23 83 u_item midi-in 2;
#X obj 336 83 u_item midi-out 3;
#X obj 23 105 u_item midi-in 4;
#X obj 23 127 u_item midi-in 5;
#X obj 23 149 u_item midi-in 6;
#X obj 23 171 u_item midi-in 7;
#X obj 23 193 u_item midi-in 8;
#X obj 336 127 u_item midi-out 5;
#X obj 336 149 u_item midi-out 6;
#X obj 336 171 u_item midi-out 7;
#X obj 336 193 u_item midi-out 8;
#X restore 419 116 pd \$0-midi_devices;
#X obj 260 110 bng 30 250 50 0 empty empty show_midi_devices... -100
7 0 10 -262144 -1 -1;
#X msg 186 243 vis 1;
#X obj 186 265 s pd-\$0-midi_devices;
#X obj 661 48 declare -path ../../ressources/core;
#X obj 661 78 declare -path ../../ressources/rj;
#X connect 5 0 6 0;
#X connect 6 0 7 0;
#X coords 0 -1 1 1 190 70 1 100 100;
