#N canvas 301 56 991 595 10;
#X declare -path ../../ressources/core;
#X declare -path ../../ressources/rj;
#X obj 135 140 hsl 128 30 0 1 0 0 \$0-morph \$0-morph-rcv A<--------->B
10 15 0 14 -225271 -1 -1 0 1;
#X obj 111 149 bng 20 250 50 0 \$0-morph.setA \$0-morph.setA-rcv A
4 10 0 10 -261681 -1 -1;
#X obj 266 148 bng 20 250 50 0 \$0-morph.setB \$0-morph.setB-rcv B
4 10 0 10 -261681 -1 -1;
#X obj 271 202 r MORPH;
#X msg 271 227 set \$1;
#X obj 271 252 s MORPH-rcv;
#X obj 336 151 r \$0-morph;
#X obj 48 340 s \$0-morph-rcv;
#X obj 49 314 / 127;
#X obj 376 187 s MORPH;
#X obj 541 148 module_loader PdRacks.morphing \$0 \$1;
#X obj 49 289 midi-colors \$0 morph \$0-morph-rcv 0 0 no_morphing 36
;
#X obj 407 487 midi-colors \$0 morph.setB \$0-morph.setB-rcv 0 0 no_morphing
64;
#X obj 221 440 midi-colors \$0 morph.setA \$0-morph.setA-rcv 0 0 no_morphing
64;
#X obj 657 532 r \$0-morph.setB;
#X obj 817 541 r \$0-morph.setA;
#X obj 148 497 change;
#X obj 148 519 select 1;
#X obj 134 551 s \$0-morph.setA-rcv;
#X obj 148 475 > 20;
#X obj 318 507 change;
#X obj 318 529 select 1;
#X obj 318 485 > 20;
#X obj 304 561 s \$0-morph.setB-rcv;
#X obj 656 560 s MORPH-setB;
#X obj 820 564 s MORPH-setA;
#X obj 135 120 hsl 128 15 1 5001 1 0 MORPH.TIME MORPH.TIME-rcv MORP.TIME=0ms
2 8 0 10 -225271 -1 -1 0 1;
#X obj 545 260 r MORPH.TIME;
#X msg 545 282 set \$1;
#X obj 545 304 s MORPH.TIME-rcv;
#X msg 698 290 label MORP.TIME=\$1ms;
#X obj 687 252 int;
#X obj 687 274 - 1;
#X obj 741 48 declare -path ../../ressources/core;
#X obj 741 78 declare -path ../../ressources/rj;
#X connect 3 0 4 0;
#X connect 4 0 5 0;
#X connect 6 0 9 0;
#X connect 8 0 7 0;
#X connect 11 0 8 0;
#X connect 12 0 22 0;
#X connect 13 0 19 0;
#X connect 14 0 24 0;
#X connect 15 0 25 0;
#X connect 16 0 17 0;
#X connect 17 0 18 0;
#X connect 19 0 16 0;
#X connect 20 0 21 0;
#X connect 21 0 23 0;
#X connect 22 0 20 0;
#X connect 27 0 28 0;
#X connect 27 0 31 0;
#X connect 28 0 29 0;
#X connect 30 0 29 0;
#X connect 31 0 32 0;
#X connect 32 0 30 0;
#X coords 0 -1 1 1 190 70 1 100 100;
