#N canvas 305 56 1046 595 10;
#X declare -path ../../ressources/core;
#X declare -path ../../ressources/rj;
#X text 90 415 TODO;
#X text 25 450 sauvegarde;
#X text 27 473 multiple patterns;
#X msg 451 201 saveTo \$1;
#X obj 451 220 s RJ_SCENE_SAVE;
#X msg 609 340 1e+06;
#X obj 593 310 loadbang;
#X text 548 6 au niveau d'une scène \, sauvegarde des mappings midi
\, des paramètres globaux (main) \, des parametres de slot \, des
modules presets;
#X text 548 49 Au niveau des modules presets \, sauvegarde des floats
\, symbols \, lists;
#X obj 93 215 r \$0-morph.time;
#X obj 98 241 - 1;
#X obj 240 300 s \$0-morph.time-rcv;
#X obj 125 274 int;
#X obj 244 332 s MORPH.TIME;
#X msg 254 267 label MORPH.TIME=\$1ms;
#X obj 647 395 bng 15 250 50 0 empty empty empty 17 7 0 10 -262144
-1 -1;
#N canvas 0 50 450 300 text_define_pool 0;
#X obj 97 63 inlet;
#X obj 105 96 route 0 1 2 3 4 5 6 7;
#X obj 77 145 text define \$0-preset0;
#X obj 87 175 text define \$0-preset1;
#X obj 97 205 text define \$0-preset2;
#X obj 107 235 text define \$0-preset3;
#X obj 247 145 text define \$0-preset4;
#X obj 257 175 text define \$0-preset5;
#X obj 267 205 text define \$0-preset6;
#X obj 277 235 text define \$0-preset7;
#X connect 0 0 1 0;
#X connect 1 0 2 0;
#X connect 1 1 3 0;
#X connect 1 2 4 0;
#X connect 1 3 5 0;
#X connect 1 4 6 0;
#X connect 1 5 7 0;
#X connect 1 6 8 0;
#X connect 1 7 9 0;
#X restore 630 154 pd text_define_pool;
#X msg 623 132 \$1 clear;
#X obj 576 223 list prepend \$0-preset;
#X msg 583 246 symbol \$1\$2;
#X obj 269 525 delay 100;
#X obj 684 538 s;
#X obj 688 426 text tolist \$0-preset0;
#X obj 610 363 text set \$0-preset0;
#X obj 540 93 t b f f;
#N canvas 161 70 450 300 dump 0;
#X obj 63 34 inlet;
#X obj 63 56 select 0 1 2 3 4 5 6 7;
#N canvas 0 50 450 300 dump0 0;
#X obj 79 48 inlet;
#X obj 78 212 outlet;
#X obj 186 152 text fromlist \$0-preset0;
#X obj 76 182 text sequence \$0-preset0;
#X obj 176 121 list append;
#X obj 78 78 t b b;
#X obj 251 92 r \$0-dump.preset0;
#X msg 76 141 line 0 \, bang;
#X obj 195 66 bng 15 250 50 0 empty empty empty 17 7 0 10 -262144 -1
-1;
#X obj 76 204 print;
#X connect 0 0 5 0;
#X connect 3 0 1 0;
#X connect 3 0 9 0;
#X connect 4 0 2 0;
#X connect 5 0 7 0;
#X connect 5 1 4 0;
#X connect 6 0 4 1;
#X connect 7 0 3 0;
#X connect 8 0 4 0;
#X restore 72 138 pd dump0;
#N canvas 0 50 450 300 dump1 0;
#X obj 79 48 inlet;
#X obj 78 212 outlet;
#X obj 176 121 list append;
#X obj 78 78 t b b;
#X msg 76 141 line 0 \, bang;
#X obj 251 92 r \$0-dump.preset1;
#X obj 186 152 text fromlist \$0-preset1;
#X obj 76 182 text sequence \$0-preset1;
#X connect 0 0 3 0;
#X connect 2 0 6 0;
#X connect 3 0 4 0;
#X connect 3 1 2 0;
#X connect 4 0 7 0;
#X connect 5 0 2 1;
#X connect 7 0 1 0;
#X restore 85 160 pd dump1;
#N canvas 0 50 450 300 dump2 0;
#X obj 79 48 inlet;
#X obj 78 212 outlet;
#X obj 176 121 list append;
#X obj 78 78 t b b;
#X msg 76 141 line 0 \, bang;
#X obj 251 92 r \$0-dump.preset2;
#X obj 186 152 text fromlist \$0-preset2;
#X obj 76 182 text sequence \$0-preset2;
#X connect 0 0 3 0;
#X connect 2 0 6 0;
#X connect 3 0 4 0;
#X connect 3 1 2 0;
#X connect 4 0 7 0;
#X connect 5 0 2 1;
#X connect 7 0 1 0;
#X restore 92 180 pd dump2;
#N canvas 0 50 450 300 dump3 0;
#X obj 79 48 inlet;
#X obj 78 212 outlet;
#X obj 176 121 list append;
#X obj 78 78 t b b;
#X msg 76 141 line 0 \, bang;
#X obj 251 92 r \$0-dump.preset3;
#X obj 186 152 text fromlist \$0-preset3;
#X obj 76 182 text sequence \$0-preset3;
#X connect 0 0 3 0;
#X connect 2 0 6 0;
#X connect 3 0 4 0;
#X connect 3 1 2 0;
#X connect 4 0 7 0;
#X connect 5 0 2 1;
#X connect 7 0 1 0;
#X restore 108 204 pd dump3;
#N canvas 0 50 450 300 dump4 0;
#X obj 79 48 inlet;
#X obj 78 212 outlet;
#X obj 176 121 list append;
#X obj 78 78 t b b;
#X msg 76 141 line 0 \, bang;
#X obj 251 92 r \$0-dump.preset4;
#X obj 186 152 text fromlist \$0-preset4;
#X obj 76 182 text sequence \$0-preset4;
#X connect 0 0 3 0;
#X connect 2 0 6 0;
#X connect 3 0 4 0;
#X connect 3 1 2 0;
#X connect 4 0 7 0;
#X connect 5 0 2 1;
#X connect 7 0 1 0;
#X restore 202 138 pd dump4;
#N canvas 0 50 450 300 dump5 0;
#X obj 79 48 inlet;
#X obj 78 212 outlet;
#X obj 176 121 list append;
#X obj 78 78 t b b;
#X msg 76 141 line 0 \, bang;
#X obj 251 92 r \$0-dump.preset5;
#X obj 186 152 text fromlist \$0-preset5;
#X obj 76 182 text sequence \$0-preset5;
#X connect 0 0 3 0;
#X connect 2 0 6 0;
#X connect 3 0 4 0;
#X connect 3 1 2 0;
#X connect 4 0 7 0;
#X connect 5 0 2 1;
#X connect 7 0 1 0;
#X restore 215 160 pd dump5;
#N canvas 0 50 450 300 dump6 0;
#X obj 79 48 inlet;
#X obj 78 212 outlet;
#X obj 176 121 list append;
#X obj 78 78 t b b;
#X msg 76 141 line 0 \, bang;
#X obj 251 92 r \$0-dump.preset6;
#X obj 186 152 text fromlist \$0-preset6;
#X obj 76 182 text sequence \$0-preset6;
#X connect 0 0 3 0;
#X connect 2 0 6 0;
#X connect 3 0 4 0;
#X connect 3 1 2 0;
#X connect 4 0 7 0;
#X connect 5 0 2 1;
#X connect 7 0 1 0;
#X restore 225 182 pd dump6;
#N canvas 0 50 450 300 dump7 0;
#X obj 79 48 inlet;
#X obj 78 212 outlet;
#X obj 176 121 list append;
#X obj 78 78 t b b;
#X msg 76 141 line 0 \, bang;
#X obj 251 92 r \$0-dump.preset7;
#X obj 186 152 text fromlist \$0-preset7;
#X obj 76 182 text sequence \$0-preset7;
#X connect 0 0 3 0;
#X connect 2 0 6 0;
#X connect 3 0 4 0;
#X connect 3 1 2 0;
#X connect 4 0 7 0;
#X connect 5 0 2 1;
#X connect 7 0 1 0;
#X restore 238 204 pd dump7;
#X obj 47 247 s RJ_SCENE_LOAD;
#X connect 0 0 1 0;
#X connect 1 0 2 0;
#X connect 1 1 3 0;
#X connect 1 2 4 0;
#X connect 1 3 5 0;
#X connect 1 4 6 0;
#X connect 1 5 7 0;
#X connect 1 6 8 0;
#X connect 1 7 9 0;
#X connect 2 0 10 0;
#X connect 3 0 10 0;
#X connect 4 0 10 0;
#X connect 5 0 10 0;
#X connect 6 0 10 0;
#X connect 7 0 10 0;
#X connect 8 0 10 0;
#X connect 9 0 10 0;
#X restore 231 390 pd dump;
#X obj 783 222 u_dispatch \$0 dump.preset0;
#X obj 783 242 u_dispatch \$0 dump.preset1;
#X obj 783 264 u_dispatch \$0 dump.preset2;
#X obj 783 286 u_dispatch \$0 dump.preset3;
#X obj 783 306 u_dispatch \$0 dump.preset4;
#X obj 783 326 u_dispatch \$0 dump.preset5;
#X obj 783 348 u_dispatch \$0 dump.preset6;
#X obj 783 370 u_dispatch \$0 dump.preset7;
#X obj 714 467 list prepend \$0-dump.preset;
#X msg 712 499 symbol \$1\$2;
#X obj 451 182 symbol \$0-preset_manager;
#X obj 262 421 r \$0-preset_manager;
#X obj 101 101 cnv 15 188 68 empty \$0-background PdRacks.presets 0
7 0 14 -260818 -1 0;
#X obj 331 108 bng 15 250 50 0 empty empty empty 17 7 0 10 -262144
-1 -1;
#X obj 111 120 hsl 128 15 1 5001 1 0 \$0-morph.time \$0-morph.time-rcv
MORPH.TIME=0ms 2 8 0 10 -262144 -1 -1 0 1;
#X obj 249 103 bng 30 250 50 0 MORPH.STOP empty STOP 5 13 0 10 -262144
-1 -1;
#X obj 109 155 hradio 15 1 0 8 empty empty 1_2_3_4_5_6_7_8 0 8 0 13
-204786 -1 -260097 1;
#X obj 109 140 hradio 15 1 0 8 empty empty empty 0 -8 0 10 -261234
-1 -1 0;
#X text 250 118 MORPH;
#X text 235 151 <- load;
#X text 235 138 <- save;
#X obj 785 176 module_loader PdRacks.presets \$0 \$1;
#X obj 11 350 inlet~;
#X obj 71 350 inlet~;
#X obj 71 372 outlet~;
#X obj 11 372 outlet~;
#X obj 147 361 inlet data;
#X obj 147 383 outlet data;
#X obj 225 101 bng 15 250 50 0 empty empty empty 17 7 0 10 -262144
-1 -1;
#X msg 309 67 dump.preset\$1 bang;
#X msg 309 45 0 \, 1 \, 2 \, 3 \, 4 \, 5 \, 6 \, 7;
#X obj 448 140 bng 15 250 50 0 empty empty empty 17 7 0 10 -262144
-1 -1;
#N canvas 0 50 450 300 filter_only_floats 0;
#X obj 250 29 inlet;
#X obj 215 254 outlet;
#X obj 255 92 list split 2;
#X obj 295 119 route float;
#X obj 255 65 t l b;
#X obj 222 208 spigot;
#X msg 265 127 0;
#X msg 297 176 1;
#X obj 296 147 t b f b;
#X obj 222 230 list append;
#X connect 0 0 4 0;
#X connect 2 0 5 0;
#X connect 2 1 3 0;
#X connect 3 0 8 0;
#X connect 4 0 2 0;
#X connect 4 1 6 0;
#X connect 5 0 9 0;
#X connect 6 0 5 1;
#X connect 7 0 5 1;
#X connect 8 0 7 0;
#X connect 8 1 9 1;
#X connect 9 0 1 0;
#X restore 421 335 pd filter_only_floats;
#X obj 264 491 t b a;
#N canvas 0 50 560 415 filter_PdRacks.presets&slot 0;
#X obj 175 29 inlet;
#X obj 165 332 outlet;
#X obj 166 100 list split 1;
#X obj 53 166 select PdRacks.presets;
#X obj 165 209 list append;
#X obj 166 256 spigot;
#X obj 311 131 list split 1;
#X obj 177 63 t a b;
#X msg 266 213 0;
#X obj 345 207 t b a;
#X msg 318 219 1;
#X obj 361 260 list append;
#X obj 166 278 list append;
#X obj 288 171 select slot;
#X obj 54 140 iemlib/splitfilename -;
#X msg 104 234 symbol \$1-\$2;
#X connect 0 0 7 0;
#X connect 2 0 14 0;
#X connect 2 1 6 0;
#X connect 3 1 4 0;
#X connect 4 0 15 0;
#X connect 5 0 12 0;
#X connect 6 0 13 0;
#X connect 6 1 11 1;
#X connect 7 0 2 0;
#X connect 7 1 8 0;
#X connect 8 0 5 1;
#X connect 9 0 10 0;
#X connect 9 1 11 0;
#X connect 10 0 5 1;
#X connect 11 0 12 1;
#X connect 12 0 1 0;
#X connect 13 1 9 0;
#X connect 14 0 3 0;
#X connect 14 1 4 1;
#X connect 15 0 5 0;
#X restore 258 460 pd filter_PdRacks.presets&slot (needs_iemlib);
#X obj 445 393 print;
#X msg 507 74 0;
#X obj 437 510 list prepend add2;
#X obj 439 551 t a b;
#X obj 437 532 list trim;
#X msg 532 561 add2 @;
#X msg 439 577 @ @;
#X obj 911 48 declare -path ../../ressources/core;
#X obj 911 78 declare -path ../../ressources/rj;
#X connect 3 0 4 0;
#X connect 5 0 23 1;
#X connect 6 0 5 0;
#X connect 9 0 10 0;
#X connect 10 0 12 0;
#X connect 12 0 14 0;
#X connect 12 0 13 0;
#X connect 14 0 11 0;
#X connect 15 0 22 0;
#X connect 17 0 16 0;
#X connect 18 0 19 0;
#X connect 19 0 22 1;
#X connect 19 0 23 3;
#X connect 20 0 22 0;
#X connect 20 0 63 0;
#X connect 22 0 21 0;
#X connect 24 0 36 0;
#X connect 24 1 18 0;
#X connect 24 1 34 0;
#X connect 24 2 17 0;
#X connect 26 0 27 0;
#X connect 27 0 28 0;
#X connect 28 0 29 0;
#X connect 29 0 30 0;
#X connect 30 0 31 0;
#X connect 31 0 32 0;
#X connect 32 0 33 0;
#X connect 34 0 35 0;
#X connect 35 0 21 1;
#X connect 36 0 3 0;
#X connect 37 0 60 0;
#X connect 39 0 24 0;
#X connect 42 0 25 0;
#X connect 43 0 24 0;
#X connect 47 0 26 0;
#X connect 48 0 51 0;
#X connect 49 0 50 0;
#X connect 52 0 53 0;
#X connect 52 0 47 0;
#X connect 54 0 56 0;
#X connect 55 0 26 0;
#X connect 56 0 55 0;
#X connect 57 0 36 0;
#X connect 59 0 20 0;
#X connect 59 1 23 0;
#X connect 59 1 61 0;
#X connect 60 0 59 0;
#X connect 62 0 17 0;
#X connect 63 0 65 0;
#X connect 64 0 67 0;
#X connect 64 1 66 0;
#X connect 65 0 64 0;
#X connect 66 0 67 0;
#X coords 0 -1 1 1 190 70 1 100 100;
