#N canvas 644 56 632 300 10;
#X declare -path ../../ressources/core;
#X declare -path ../../ressources/rj;
#N canvas 0 50 1038 620 stuff 0;
#X obj 37 37 inlet;
#X obj 121 169 mediasettings/audiosettings;
#X obj 121 194 route device;
#X obj 203 274 route list;
#X obj 373 274 route list;
#X msg 388 29 driver 3;
#X msg 429 214 driver 4;
#X obj 534 435 select symbol;
#X msg 381 317 list \$2 \$1;
#X obj 448 368 list split 1;
#X obj 609 467 f;
#X floatatom 609 489 5 0 0 0 - - -, f 5;
#X obj 354 435 select symbol;
#X msg 201 317 list \$2 \$1;
#X obj 206 346 list split 1;
#X obj 429 467 f;
#X floatatom 429 489 5 0 0 0 - - -, f 5;
#X obj 121 219 route out in;
#X msg 187 111 driver \$1;
#X msg 343 119 \$2;
#X msg 386 120 \$3;
#X msg 437 125 symbol \$4;
#X msg 540 122 symbol \$5;
#N canvas 0 50 700 620 substitution_espace 0;
#X obj 156 43 inlet;
#X obj 235 566 outlet;
#X obj 285 492 s pd;
#X obj 275 236 list fromsymbol;
#X obj 230 313 list split 1;
#X obj 225 277 list;
#X obj 234 404 select 32;
#X msg 234 426 95;
#X obj 233 464 list append;
#X obj 233 486 list;
#X obj 244 47 bng 15 250 50 0 empty empty empty 17 7 0 10 -262144 -1
-1;
#X obj 233 508 list tosymbol;
#X obj 239 535 list append;
#X obj 244 96 t b s b;
#X connect 0 0 13 0;
#X connect 3 0 4 0;
#X connect 4 0 6 0;
#X connect 4 1 5 0;
#X connect 5 0 4 0;
#X connect 6 0 7 0;
#X connect 6 1 8 0;
#X connect 7 0 8 0;
#X connect 8 0 9 0;
#X connect 9 0 8 1;
#X connect 9 0 11 0;
#X connect 10 0 13 0;
#X connect 11 0 12 1;
#X connect 12 0 1 0;
#X connect 13 0 12 0;
#X connect 13 1 3 0;
#X connect 13 2 8 1;
#X restore 157 388 pd substitution_espace;
#N canvas 0 50 700 620 substitution_espace 0;
#X obj 156 43 inlet;
#X obj 235 566 outlet;
#X obj 285 492 s pd;
#X obj 275 236 list fromsymbol;
#X obj 230 313 list split 1;
#X obj 225 277 list;
#X obj 234 404 select 32;
#X msg 234 426 95;
#X obj 233 464 list append;
#X obj 233 486 list;
#X obj 244 47 bng 15 250 50 0 empty empty empty 17 7 0 10 -262144 -1
-1;
#X obj 233 508 list tosymbol;
#X obj 239 535 list append;
#X obj 244 96 t b s b;
#X connect 0 0 13 0;
#X connect 3 0 4 0;
#X connect 4 0 6 0;
#X connect 4 1 5 0;
#X connect 5 0 4 0;
#X connect 6 0 7 0;
#X connect 6 1 8 0;
#X connect 7 0 8 0;
#X connect 8 0 9 0;
#X connect 9 0 8 1;
#X connect 9 0 11 0;
#X connect 10 0 13 0;
#X connect 11 0 12 1;
#X connect 12 0 1 0;
#X connect 13 0 12 0;
#X connect 13 1 3 0;
#X connect 13 2 8 1;
#X restore 467 408 pd substitution_espace;
#X obj 162 592 s pd;
#X obj 342 481 bng 15 250 50 0 empty empty empty 17 7 0 10 -262144
-1 -1;
#X obj 548 467 bng 15 250 50 0 empty empty empty 17 7 0 10 -262144
-1 -1;
#X obj 587 532 pack f f f f f f;
#X obj 338 65 t b l l l l l l l;
#X msg 656 118 \$6;
#X msg 702 123 \$7;
#X msg 162 557 dsp 0 \, audio-dialog \$2 0 0 0 \$6 0 0 0 \$1 0 0 0
\$5 0 0 0 44100 \$3 0 \$4 \, dsp 1, f 61;
#X connect 0 0 29 0;
#X connect 1 0 2 0;
#X connect 2 0 17 0;
#X connect 3 0 13 0;
#X connect 4 0 8 0;
#X connect 5 0 29 0;
#X connect 6 0 29 0;
#X connect 7 0 10 0;
#X connect 7 0 27 0;
#X connect 8 0 9 0;
#X connect 9 0 24 0;
#X connect 9 1 10 1;
#X connect 10 0 11 0;
#X connect 10 0 28 1;
#X connect 12 0 15 0;
#X connect 12 0 26 0;
#X connect 13 0 14 0;
#X connect 14 0 23 0;
#X connect 14 1 15 1;
#X connect 15 0 16 0;
#X connect 15 0 28 0;
#X connect 17 0 3 0;
#X connect 17 1 4 0;
#X connect 18 0 1 0;
#X connect 19 0 28 2;
#X connect 20 0 28 3;
#X connect 21 0 12 1;
#X connect 22 0 7 1;
#X connect 23 0 12 0;
#X connect 24 0 7 0;
#X connect 28 0 32 0;
#X connect 29 0 1 0;
#X connect 29 1 18 0;
#X connect 29 2 19 0;
#X connect 29 3 20 0;
#X connect 29 4 21 0;
#X connect 29 5 22 0;
#X connect 29 6 30 0;
#X connect 29 7 31 0;
#X connect 30 0 28 4;
#X connect 31 0 28 5;
#X connect 32 0 25 0;
#X restore 72 259 pd stuff;
#X text 348 167 espaces remplacés par _ dans le nom des interfaces
;
#X text 283 204 <driver> <delay> <block> <device_out> <device_in> <nchan_out>
<nchan_in>;
#X msg 330 35 3 80 64 Speakers_(Realtek_High_Definiti Microphone_(Realtek_High_Defini
2 2;
#X msg 358 104 4 6 64 ASIO:ASIO4ALL_v2 ASIO:ASIO4ALL_v2 2 2;
#X obj 112 109 vradio 15 1 0 4 empty empty empty 0 -8 0 10 -262144
-1 -1 3;
#X text 132 108 mmio_interne;
#X text 130 140 asio4all 6ms;
#X obj 263 120 ui_tgl \$0 DSP -1 16 13;
#X obj 64 14 r \$0-DSP;
#X obj 33 83 s pd;
#X msg 44 40 dsp \$1;
#X obj 156 13 r pd;
#X obj 156 35 route dsp;
#X obj 156 57 s \$0-DSP-rcv;
#X text 258 103 DSP;
#X obj 247 138 bng 30 250 50 0 empty empty PANIC 2 15 0 10 -258113
-1 -1;
#X msg 234 225 \; pd dsp 0;
#X obj 206 173 select 0 1 2 3;
#X text 130 155 asio4all 4s 30ms;
#X msg 358 134 4 30 64 ASIO:ASIO4ALL_v2 ASIO:ASIO4ALL_v2 4 4;
#X text 130 124 asio4all 4s 12ms;
#X msg 275 76 4 12 64 ASIO:ASIO4ALL_v2 ASIO:ASIO4ALL_v2 4 4;
#X obj 484 4 declare -path ../../ressources/core;
#X obj 484 34 declare -path ../../ressources/rj;
#X connect 3 0 0 0;
#X connect 4 0 0 0;
#X connect 5 0 18 0;
#X connect 9 0 11 0;
#X connect 11 0 10 0;
#X connect 12 0 13 0;
#X connect 13 0 14 0;
#X connect 16 0 17 0;
#X connect 18 0 3 0;
#X connect 18 1 22 0;
#X connect 18 2 4 0;
#X connect 18 3 20 0;
#X connect 20 0 0 0;
#X connect 22 0 0 0;
#X coords 0 -1 1 1 190 70 1 100 100;
