#N canvas 117 484 1362 721 10;
#X declare -path ../../ressources/core;
#X declare -path ../../ressources/rj;
#X obj 237 459 i;
#X obj 237 488 change;
#N canvas 433 118 468 537 audio_feedback 0;
#X obj 132 400 *~;
#X obj 196 298 line~;
#X obj 186 213 t b b;
#X obj 239 248 del 5;
#X msg 242 271 0 5;
#X obj 75 351 osc~ 880;
#X obj 116 22 inlet;
#X obj 146 81 spigot 0, f 25;
#X obj 173 150 mod 24;
#X obj 44 188 == 0;
#X obj 29 252 sel 1;
#X obj 71 155 mod 96;
#X obj 42 221 change;
#X obj 193 186 select 0;
#X obj 165 105 t f f;
#X obj 132 456 dac~ 1 2 3 4;
#X obj 344 49 t f f;
#X msg 166 277 \$1 5;
#X obj 177 252 f;
#X obj 344 27 dbtorms;
#X obj 317 14 r \$0-click;
#X obj 56 98 r QUANTUM;
#X obj 56 120 * 24;
#X msg 24 290 880;
#X msg 80 292 1600;
#X connect 0 0 15 0;
#X connect 0 0 15 1;
#X connect 0 0 15 2;
#X connect 0 0 15 3;
#X connect 1 0 0 1;
#X connect 2 0 18 0;
#X connect 2 1 3 0;
#X connect 3 0 4 0;
#X connect 4 0 1 0;
#X connect 5 0 0 0;
#X connect 6 0 7 0;
#X connect 7 0 14 0;
#X connect 8 0 13 0;
#X connect 9 0 12 0;
#X connect 10 0 23 0;
#X connect 10 1 24 0;
#X connect 11 0 9 0;
#X connect 12 0 10 0;
#X connect 13 0 2 0;
#X connect 14 0 11 0;
#X connect 14 1 8 0;
#X connect 16 0 7 1;
#X connect 16 1 18 1;
#X connect 17 0 1 0;
#X connect 18 0 17 0;
#X connect 19 0 16 0;
#X connect 20 0 19 0;
#X connect 21 0 22 0;
#X connect 22 0 11 1;
#X connect 23 0 5 0;
#X connect 24 0 5 0;
#X restore 307 547 pd audio_feedback;
#X obj 370 12 midirealtimein;
#X obj 340 116 route 250 248 252;
#X obj 224 355 f;
#X obj 323 363 + 1;
#X obj 233 569 mod 4;
#X obj 181 569 div 4;
#X obj 163 653 + 1;
#X obj 223 653 + 1;
#X obj 201 438 / 24;
#X obj 428 139 s STOP;
#N canvas 0 50 727 534 tempo_calc 0;
#X obj 92 -2 inlet;
#X obj 89 119 t b b;
#X msg 86 200 60000 \$1;
#X obj 86 229 /;
#X obj 91 143 timer;
#X obj 66 335 +;
#X obj 91 170 moses 2000;
#X obj 65 370 + 0.5;
#X obj 69 405 int;
#X obj 94 438 t f f;
#X obj 69 573 s \$0-bpm-rcv;
#X text 286 501 si le tempo diverge trop \, passer outre le filtrage
pour atteindre la nouvelle valeur;
#X obj 47 485 change;
#X obj 197 568 outlet;
#X msg 51 536 set \$1;
#X obj 66 282 * 0.1;
#X obj 134 327 * 0.9;
#X floatatom 39 263 5 0 0 0 - - -, f 5;
#X floatatom 32 440 5 0 0 0 - - -, f 5;
#X obj 144 463 -;
#X obj 148 488 abs;
#X obj 193 505 > 1;
#X obj 263 431 change;
#X obj 284 172 select 1 0;
#X msg 312 238 1;
#X msg 330 272 0;
#X msg 386 247 0.1;
#X msg 403 276 0.9;
#X msg 253 136 1;
#X obj 96 254 t f;
#X obj 91 26 f;
#X obj 127 27 + 1;
#X obj 98 52 mod 24;
#X obj 93 78 select 0;
#X connect 0 0 30 0;
#X connect 1 0 4 0;
#X connect 1 1 4 1;
#X connect 2 0 3 0;
#X connect 3 0 17 0;
#X connect 3 0 29 0;
#X connect 4 0 6 0;
#X connect 5 0 7 0;
#X connect 5 0 16 0;
#X connect 6 0 2 0;
#X connect 6 1 28 0;
#X connect 7 0 8 0;
#X connect 8 0 9 0;
#X connect 8 0 12 0;
#X connect 8 0 18 0;
#X connect 9 0 19 1;
#X connect 9 1 19 0;
#X connect 12 0 13 0;
#X connect 12 0 14 0;
#X connect 14 0 10 0;
#X connect 15 0 5 0;
#X connect 16 0 5 1;
#X connect 19 0 20 0;
#X connect 20 0 21 0;
#X connect 21 0 22 0;
#X connect 22 0 23 0;
#X connect 23 0 24 0;
#X connect 23 0 25 0;
#X connect 23 1 26 0;
#X connect 23 1 27 0;
#X connect 24 0 15 1;
#X connect 25 0 16 1;
#X connect 25 0 5 1;
#X connect 26 0 15 1;
#X connect 27 0 16 1;
#X connect 28 0 23 0;
#X connect 29 0 15 0;
#X connect 30 0 32 0;
#X connect 31 0 30 1;
#X connect 32 0 31 0;
#X connect 32 0 33 0;
#X connect 33 0 1 0;
#X restore 403 222 pd tempo_calc;
#X obj 315 155 s PLAY;
#X floatatom 509 132 5 0 0 0 - - -, f 5;
#X obj 405 279 s BPM;
#X obj 239 206 r PLAY;
#X obj 385 163 t b b b;
#X obj 200 261 r \$0-localMetro;
#X msg 233 232 0;
#X obj 369 53 r \$0-slave;
#X obj 168 353 +;
#X msg 22 215 -2;
#X msg 44 279 2;
#X obj 169 34 tgl 15 0 \$0-slave \$0-slave-rcv SYNC 17 7 0 10 -4032
-1 -1 0 1;
#X obj 459 468 t b b;
#X obj 575 541 s \$0-bang-rcv;
#X msg 579 502 color 0 0;
#X obj 467 510 delay 100;
#X msg 577 479 color 17 17;
#X obj 324 463 spigot;
#X obj 243 292 spigot;
#X obj 415 409 r PLAY;
#X obj 451 377 r STOP;
#X msg 371 418 1;
#X msg 444 437 0;
#X msg 284 234 0, f 5;
#X msg 70 435 248;
#X obj 186 405 t f f b;
#X obj 44 366 r PLAY;
#X obj 38 343 r STOP;
#X msg 50 389 250;
#X msg 32 432 252;
#N canvas 0 50 450 300 barre 0;
#X obj 239 15 key;
#X obj 239 48 select 32;
#X obj 41 169 r PLAY;
#X obj 116 172 r STOP;
#X msg 63 202 1;
#X msg 116 211 0;
#X obj 65 242 f;
#X obj 66 267 select 1 0;
#X obj 107 297 s PLAY;
#X obj 47 298 s STOP;
#X obj 239 80 r TRANSPORT;
#X obj 239 107 route spacebar;
#X obj 241 155 t b;
#X obj 303 166 spigot 1;
#X connect 0 0 1 0;
#X connect 1 0 13 0;
#X connect 2 0 4 0;
#X connect 3 0 5 0;
#X connect 4 0 6 1;
#X connect 5 0 6 1;
#X connect 6 0 7 0;
#X connect 7 0 9 0;
#X connect 7 1 8 0;
#X connect 10 0 11 0;
#X connect 11 0 12 0;
#X connect 12 0 13 0;
#X connect 13 0 6 0;
#X restore 710 19 pd barre _espace;
#N canvas 0 50 450 300 initialisation@120bpm 0;
#X obj 105 42 loadbang;
#X obj 110 100 s \$0-bpm-rcv;
#X msg 123 67 120;
#X msg 158 130 0;
#X obj 157 164 s \$0-slave-rcv;
#X connect 0 0 2 0;
#X connect 0 0 3 0;
#X connect 2 0 1 0;
#X connect 3 0 4 0;
#X restore 696 56 pd initialisation@120bpm;
#N canvas 561 56 588 536 local_clock 0;
#X obj 154 64 inlet;
#X obj 156 104 t b b;
#X obj 172 136 delay 200;
#X obj 235 220 change;
#X obj 282 295 r BPM;
#X msg 282 318 60000 \$1;
#X obj 182 363 spigot;
#X msg 188 186 1;
#X msg 226 170 0;
#X obj 106 296 r PLAY;
#X obj 164 252 r STOP;
#X msg 174 292 0;
#X obj 116 335 delay 100;
#X obj 282 344 /;
#X obj 282 371 / 24;
#X obj 214 443 s \$0-localMetro;
#X obj 213 394 metro 100;
#X obj 55 179 == 0;
#X obj 45 221 s \$0-slave-rcv;
#X msg 219 306 0;
#X msg 51 198 set \$1;
#X obj 272 185 == 0;
#X obj 299 65 r \$0-sync-mode;
#X obj 217 283 select 0 1;
#X obj 221 243 t f f;
#X connect 0 0 1 0;
#X connect 1 0 2 0;
#X connect 1 1 8 0;
#X connect 2 0 7 0;
#X connect 3 0 17 0;
#X connect 3 0 24 0;
#X connect 4 0 5 0;
#X connect 5 0 13 0;
#X connect 6 0 16 0;
#X connect 7 0 3 0;
#X connect 8 0 3 0;
#X connect 9 0 12 0;
#X connect 10 0 11 0;
#X connect 11 0 16 0;
#X connect 12 0 6 0;
#X connect 13 0 14 0;
#X connect 14 0 16 1;
#X connect 16 0 15 0;
#X connect 17 0 20 0;
#X connect 19 0 16 0;
#X connect 20 0 18 0;
#X connect 21 0 3 0;
#X connect 22 0 21 0;
#X connect 23 0 19 0;
#X connect 23 1 6 0;
#X connect 24 0 23 0;
#X connect 24 1 6 1;
#X restore 475 187 pd local_clock;
#N canvas 0 50 762 490 boutonPlayPause_Gui 0;
#X obj 47 86 r STOP;
#X obj 120 200 r PLAY;
#X obj 332 420 select 0 1;
#X obj 397 447 s PLAY;
#X obj 337 448 s STOP;
#X obj 357 380 spigot 1;
#X obj 34 274 s \$0-playBtn-rcv;
#X obj 359 349 r \$0-playBtn;
#X msg 45 116 set 0 \, label [> \, color 20 20 -1;
#X msg 119 237 set 1 \, label || \, color 16 16 -1;
#X connect 0 0 8 0;
#X connect 1 0 9 0;
#X connect 2 0 4 0;
#X connect 2 1 3 0;
#X connect 5 0 2 0;
#X connect 7 0 5 0;
#X connect 8 0 6 0;
#X connect 9 0 6 0;
#X restore 694 87 pd boutonPlayPause_Gui;
#X obj 32 469 spigot;
#X obj 23 535 midiout;
#X obj 703 118 r PLAY;
#X obj 703 143 t b b;
#X msg 703 168 1;
#X obj 643 118 r STOP;
#X msg 643 143 0;
#X msg 799 116 tempo \$1;
#X obj 943 251 s BPM;
#X obj 959 373 s \$0-bpm-rcv;
#X msg 941 336 set \$1;
#X obj 119 15 r \$0-sync-mode;
#X obj 107 42 == 1;
#X obj 928 47 r \$0-sync-mode;
#X obj 916 74 == 2;
#X obj 914 102 change;
#X obj 335 235 r \$0-sync-mode;
#X obj 328 266 == 1;
#X obj 746 531 bng 15 50 10 0 empty empty empty 17 7 0 10 -262144 -1
-1;
#X obj 748 303 spigot;
#X obj 748 424 spigot;
#X obj 748 393 spigot;
#X obj 860 438 select 0;
#X obj 751 332 t f f;
#X msg 793 366 1;
#X obj 261 35 r #abl_link_num_peers;
#X obj 934 491 bng 15 250 50 0 empty empty empty 17 7 0 10 -262144
-1 -1;
#X obj 967 493 spigot;
#X obj 967 518 t b b;
#X msg 1052 469 0;
#X msg 851 263 0;
#X obj 114 487 r \$0-midiout;
#X obj 122 527 tgl 15 0 empty empty empty 17 7 0 10 -262144 -1 -1 0
1;
#X obj 119 583 mod 24;
#X obj 220 537 t f f f;
#X obj 407 576 pack f f f;
#X obj 355 638 s \$0-transport-rcv;
#X msg 402 615 label \$2:\$3:\$1;
#X obj 1052 244 r QUANTUM;
#X msg 1060 282 reset 0 \$1;
#X obj 1095 321 * 24;
#X obj 877 400 mod 192;
#X text 918 405 (=8x24);
#X obj 748 449 +;
#X obj 845 490 f;
#X obj 845 515 + 192;
#X obj 928 47 r \$0-sync-mode;
#X obj 544 379 s \$0-quantum-rcv;
#X msg 695 322 0;
#X floatatom 806 512 5 0 0 0 - - -, f 5;
#X obj 648 620 * 192;
#X floatatom 648 642 5 0 0 0 - - -, f 5;
#X obj 648 598 div 192;
#X obj 648 576 r \$0-clock;
#X msg 553 604 set \$1;
#X obj 553 626 s \$0-clock-rcv;
#X obj 270 511 r \$0-clock;
#X obj 550 421 r QUANTUM;
#N canvas 474 50 657 669 taptempo 0;
#X obj 134 170 timer;
#X obj 140 132 t b b;
#X obj 125 197 moses 4000;
#X obj 136 331 +;
#X obj 124 221 list append;
#X msg 158 421 60000 \$1;
#X obj 157 455 /;
#X msg 345 119 60000 \$1;
#X obj 344 153 /;
#X obj 124 244 list split 2;
#X msg 338 200 \$1 \$1;
#X obj 124 271 unpack f f;
#X obj 142 365 / 2;
#X obj 465 68 r BPM;
#X obj 315 541 s BPM;
#X obj 141 106 t b;
#X obj 96 59 r TAP;
#X floatatom 171 531 5 0 0 0 - - -, f 5;
#X obj 405 412 s \$0-bpm;
#X floatatom 409 373 5 0 0 0 - - -, f 5;
#X connect 0 0 2 0;
#X connect 1 0 0 0;
#X connect 1 1 0 1;
#X connect 2 0 4 0;
#X connect 3 0 12 0;
#X connect 4 0 9 0;
#X connect 5 0 6 0;
#X connect 6 0 14 0;
#X connect 6 0 17 0;
#X connect 6 0 18 0;
#X connect 7 0 8 0;
#X connect 8 0 10 0;
#X connect 9 0 4 1;
#X connect 9 0 11 0;
#X connect 9 2 4 1;
#X connect 10 0 4 1;
#X connect 11 0 3 0;
#X connect 11 1 3 1;
#X connect 12 0 5 0;
#X connect 13 0 7 0;
#X connect 15 0 1 0;
#X connect 16 0 15 0;
#X connect 19 0 18 0;
#X restore 481 27 pd taptempo;
#X obj 1023 182 loadbang;
#X msg 1023 204 connect 1;
#X obj 778 145 spigot;
#X obj 960 202 spigot;
#X obj 956 177 f;
#X obj 955 128 t f f;
#X obj 955 150 select 1;
#X obj 580 127 r BPM-rcv;
#X obj 580 149 s \$0-bpm;
#X obj 774 555 s _CLOCK;
#X obj 188 381 r _CLOCK;
#X obj 277 400 s _CLOCK;
#X obj 553 582 r _CLOCK;
#X obj 398 334 r _CLOCK;
#X obj 1020 577 s pd-\$0-groove;
#X msg 1024 544 vis 1;
#X obj 1065 521 r \$0-grv;
#X obj 788 173 abl_link~ 24 0 4 120;
#X obj 572 295 r QUANTUM;
#X msg 578 326 set \$1;
#X obj 503 280 loadbang;
#X msg 498 308 4;
#X obj 498 330 s QUANTUM;
#X obj 589 241 select;
#X obj 603 214 r BPM;
#X obj 650 227 r \$0-bpm;
#X obj 585 274 s \$0-bpm-rcv;
#X obj 592 178 r \$0-bpm;
#X msg 662 258 set \$1;
#X obj 732 253 f;
#X obj 920 530 s SYNC_PLAY;
#X obj 1149 38 r CTLIN;
#X obj 1147 103 route 4;
#X msg 1149 60 \$2 \$1;
#X obj 781 216 +;
#X obj 781 238 mod 96;
#X obj 1147 125 * 0.4;
#X obj 75 197 bng 15 250 50 0 empty empty + 5 7 0 10 -4032 -1 -1;
#X obj 50 196 bng 15 250 50 0 empty empty -resync 5 7 0 10 -4032 -1
-1;
#X text 1146 151 vers curseur offset;
#X obj 136 213 speed_lim;
#X obj 136 254 s \$0-clock;
#X obj 119 605 speed_lim;
#X obj 101 116 cnv 15 188 53 empty \$0-bang-rcv empty 1 5 0 10 -44926
-99865 0;
#X obj 310 86 spigot 1;
#X obj 251 100 tgl 39 0 \$0-playBtn \$0-playBtn-rcv || 2 20 0 30 -24198
-24198 -1 0 1;
#X obj 246 141 ui_tgl \$0 midiout 1 -1 18;
#X obj 203 130 cnv 15 40 40 empty empty empty 20 12 0 14 -257985 -66577
0;
#X obj 237 160 hsl 50 10 0 48 0 1 empty empty OFFSET 4 6 0 8 -257985
-1 -1 0 1;
#X floatatom 207 153 3 0 0 2 peers - -, f 3;
#X text 204 126 LINK;
#X obj 238 100 vradio 13 1 1 3 \$0-sync-mode empty NO 2 8 0 8 -4032
-1 -33289 2;
#X obj 136 191 r \$0-clock-rcv;
#X obj 104 114 hsl 40 12 0 92 0 0 \$0-click empty CLICK 4 5 0 8 -262144
-1 -1 0 1;
#X obj 146 112 bng 15 250 50 0 \$0-grv empty G 5 7 0 10 -232576 -1
-1;
#X obj 165 113 hsl 40 12 6 9 0 1 \$0-swing empty swing 2 6 0 10 -232576
-1 -1 1500 1;
#X obj 101 149 cnv 15 85 20 empty \$0-transport-rcv 96:1:1 4 12 0 14
-233017 -66577 0;
#X obj 101 127 bng 25 250 50 0 TAP empty TAP 2 10 0 14 -232576 -1 -159808
;
#X floatatom 129 139 5 20 300 2 bpm #0-bpm-rcv #0-bpm, f 5;
#X floatatom 168 142 5 1 99 2 Beats #0-quantum-rcv QUANTUM, f 5;
#X floatatom 152 236 5 0 0 0 - - -, f 5;
#X text 222 112 SYNC;
#X obj 207 112 tgl 15 0 \$0-swing_play \$0-swing_play-rcv [> 1 7 0
10 -232576 -232576 -1 0 1;
#N canvas 451 79 780 585 \$0-groove 0;
#X obj 609 213 t f f;
#X obj 626 295 mod 24;
#X obj 489 195 r BPM;
#X obj 503 321 phasor~;
#X obj 496 354 *~ 24;
#X obj 491 245 / 60;
#X msg 579 261 0;
#X obj 507 468 wrap~;
#X obj 517 540 f;
#X obj 567 557 + 1;
#X obj 636 535 mod 24;
#X obj 711 327 select 0;
#X obj 453 411 tabread4~ \$0-groove;
#X obj 666 175 r _CLOCK;
#X obj 506 569 +;
#X obj 705 230 div 24;
#X obj 513 632 s CLOCK;
#X obj 626 380 delay 100;
#X obj 626 358 t b b;
#X obj 671 426 change;
#X msg 703 407 1;
#X msg 653 407 0;
#X obj 498 518 spigot;
#N canvas 0 50 450 250 (subpatch) 0;
#X array \$0-groove 26 float 5;
#A 0 -0 -0.16129 -0.322581 -0.483871 -0.645161 -0.806452 -0.967742
-1.12903 -0.952381 -0.714286 -0.476191 -0.238095 -0 -0.16129 -0.322581
-0.483871 -0.645161 -0.806452 -0.967742 -1.12903 -0.952381 -0.714286
-0.476191 -0.238095 -0 -0.16129;
#X coords 0 3 25 -3 200 140 1 0 0;
#X restore 143 261 graph;
#X obj 705 252 * 24;
#X obj 160 524 s \$0-groove;
#X msg 154 481 const 0;
#X obj 507 493 threshold~ 0.1 1 0.999 1;
#X obj 148 111 tgl 15 0 empty empty GROOVE 17 7 0 10 -262144 -1 -1
1 1;
#X obj 320 161 r _CLOCK;
#X obj 314 194 spigot 1;
#X obj 318 228 s CLOCK;
#X obj 313 127 == 0;
#X obj 248 141 switch~;
#X obj 453 125 expr if ($f1<$f2 \, (6-$f2)*$f1/$f2 \, (6-$f2)*(12-$f1)/(12-$f2))
;
#X obj 462 167 tabwrite \$0-groove;
#X obj 442 3 t f f;
#X msg 678 57 7;
#X obj 456 384 +~ 1;
#X obj 143 214 hsl 128 15 6 9 0 0 empty empty empty -2 -8 0 10 -262144
-1 -1 4885 1;
#X msg 316 43 26;
#X obj 316 65 until;
#X obj 336 97 f;
#X obj 382 105 + 1;
#X msg 543 25 0;
#X obj 603 41 t b b f;
#X floatatom 96 241 5 0 0 0 - - -, f 5;
#X obj 444 51 mod 12;
#X text 152 266 ou tracer à la main;
#X text 131 186 2 Reglage du swing;
#X text 121 87 1 activer le;
#X obj 80 141 != 6;
#X obj 34 204 r \$0-swing;
#X obj 124 6 select 0;
#X msg 124 28 label OFF;
#X obj 12 65 s \$0-swing_play-rcv;
#X msg 254 77 label [>;
#X obj 226 8 t b;
#X obj 273 -20 r \$0-swing_play;
#X obj 226 52 select 0 1;
#X msg 228 101 label ||;
#X obj 268 3 t b f;
#X obj 226 30 f 1;
#X floatatom 361 19 5 0 0 0 - - -, f 5;
#X obj 275 23 spigot 1;
#X msg 601 582 1;
#X obj 420 602 spigot 1;
#X connect 0 0 1 0;
#X connect 0 1 15 0;
#X connect 1 0 11 0;
#X connect 1 0 18 0;
#X connect 2 0 5 0;
#X connect 3 0 4 0;
#X connect 4 0 7 0;
#X connect 4 0 38 0;
#X connect 5 0 3 0;
#X connect 6 0 3 1;
#X connect 6 0 8 1;
#X connect 7 0 27 0;
#X connect 8 0 9 0;
#X connect 8 0 14 0;
#X connect 9 0 10 0;
#X connect 10 0 8 1;
#X connect 11 0 6 0;
#X connect 12 0 7 0;
#X connect 13 0 0 0;
#X connect 14 0 66 0;
#X connect 15 0 24 0;
#X connect 17 0 21 0;
#X connect 18 0 17 0;
#X connect 18 1 20 0;
#X connect 19 0 22 1;
#X connect 20 0 19 0;
#X connect 21 0 19 0;
#X connect 22 0 8 0;
#X connect 24 0 14 1;
#X connect 26 0 25 0;
#X connect 27 0 22 0;
#X connect 28 0 32 0;
#X connect 28 0 33 0;
#X connect 28 0 53 0;
#X connect 28 0 64 1;
#X connect 29 0 30 0;
#X connect 30 0 31 0;
#X connect 32 0 30 1;
#X connect 34 0 35 0;
#X connect 36 0 47 0;
#X connect 36 1 35 1;
#X connect 37 0 34 1;
#X connect 38 0 12 0;
#X connect 39 0 45 0;
#X connect 39 0 46 0;
#X connect 39 0 51 0;
#X connect 40 0 41 0;
#X connect 41 0 42 0;
#X connect 42 0 43 0;
#X connect 42 0 36 0;
#X connect 43 0 42 1;
#X connect 44 0 42 1;
#X connect 45 0 40 0;
#X connect 45 1 44 0;
#X connect 45 2 34 1;
#X connect 47 0 34 0;
#X connect 51 0 28 0;
#X connect 52 0 39 0;
#X connect 53 0 54 0;
#X connect 53 1 57 0;
#X connect 54 0 55 0;
#X connect 56 0 55 0;
#X connect 57 0 62 0;
#X connect 58 0 61 0;
#X connect 58 0 63 0;
#X connect 59 0 60 0;
#X connect 59 1 56 0;
#X connect 60 0 55 0;
#X connect 61 0 64 0;
#X connect 61 1 62 1;
#X connect 62 0 59 0;
#X connect 62 0 66 1;
#X connect 64 0 62 0;
#X connect 65 0 66 1;
#X connect 66 0 16 0;
#X restore 892 574 pd \$0-groove;
#X obj 1241 248 declare -path ../../ressources/core;
#X obj 1241 278 declare -path ../../ressources/rj;
#X connect 0 0 1 0;
#X connect 1 0 26 0;
#X connect 1 0 82 0;
#X connect 3 0 151 0;
#X connect 4 0 14 0;
#X connect 4 1 18 0;
#X connect 4 2 12 0;
#X connect 5 0 22 1;
#X connect 5 0 118 0;
#X connect 6 0 5 1;
#X connect 7 0 10 0;
#X connect 8 0 9 0;
#X connect 9 0 83 1;
#X connect 10 0 83 2;
#X connect 11 0 0 0;
#X connect 13 0 16 0;
#X connect 17 0 20 0;
#X connect 17 0 37 0;
#X connect 18 0 5 0;
#X connect 18 1 13 0;
#X connect 18 2 46 0;
#X connect 19 0 5 0;
#X connect 20 0 32 0;
#X connect 21 0 151 1;
#X connect 22 0 5 1;
#X connect 23 0 22 0;
#X connect 24 0 22 0;
#X connect 26 0 29 0;
#X connect 26 1 30 0;
#X connect 28 0 27 0;
#X connect 29 0 28 0;
#X connect 30 0 27 0;
#X connect 31 0 2 0;
#X connect 32 0 5 1;
#X connect 33 0 35 0;
#X connect 34 0 36 0;
#X connect 35 0 31 1;
#X connect 36 0 31 1;
#X connect 37 0 5 1;
#X connect 38 0 48 0;
#X connect 39 0 81 0;
#X connect 39 1 31 0;
#X connect 39 1 11 0;
#X connect 39 2 38 0;
#X connect 40 0 42 0;
#X connect 41 0 43 0;
#X connect 42 0 48 0;
#X connect 43 0 48 0;
#X connect 48 0 49 0;
#X connect 50 0 51 0;
#X connect 51 0 52 0;
#X connect 52 0 67 1;
#X connect 52 0 75 1;
#X connect 53 0 54 0;
#X connect 54 0 67 1;
#X connect 54 0 69 1;
#X connect 54 0 92 1;
#X connect 55 0 109 0;
#X connect 58 0 57 0;
#X connect 59 0 60 0;
#X connect 60 0 25 0;
#X connect 61 0 62 0;
#X connect 62 0 63 0;
#X connect 63 0 68 1;
#X connect 63 0 109 1;
#X connect 63 0 112 0;
#X connect 64 0 65 0;
#X connect 65 0 32 1;
#X connect 67 0 71 0;
#X connect 68 0 91 0;
#X connect 69 0 68 0;
#X connect 70 0 72 0;
#X connect 70 0 74 0;
#X connect 70 0 75 0;
#X connect 70 0 92 0;
#X connect 70 0 137 0;
#X connect 71 0 69 0;
#X connect 71 1 89 0;
#X connect 72 0 69 1;
#X connect 73 0 156 0;
#X connect 75 0 76 0;
#X connect 76 0 78 0;
#X connect 76 1 77 0;
#X connect 77 0 75 1;
#X connect 79 0 48 1;
#X connect 79 0 80 0;
#X connect 81 0 149 0;
#X connect 82 0 8 0;
#X connect 82 1 7 0;
#X connect 83 0 85 0;
#X connect 85 0 84 0;
#X connect 86 0 87 0;
#X connect 86 0 88 0;
#X connect 87 0 124 0;
#X connect 88 0 93 1;
#X connect 88 0 89 1;
#X connect 88 0 98 1;
#X connect 88 0 100 1;
#X connect 88 0 142 1;
#X connect 89 0 70 0;
#X connect 91 0 116 0;
#X connect 92 0 93 0;
#X connect 92 0 91 1;
#X connect 92 0 97 0;
#X connect 93 0 92 1;
#X connect 96 0 92 1;
#X connect 98 0 99 0;
#X connect 100 0 98 0;
#X connect 101 0 100 0;
#X connect 102 0 103 0;
#X connect 104 0 39 0;
#X connect 105 0 7 1;
#X connect 105 0 8 1;
#X connect 107 0 108 0;
#X connect 108 0 124 0;
#X connect 109 0 124 0;
#X connect 110 0 56 0;
#X connect 110 0 58 0;
#X connect 111 0 110 0;
#X connect 112 0 113 0;
#X connect 112 1 110 1;
#X connect 113 0 111 0;
#X connect 114 0 115 0;
#X connect 117 0 39 0;
#X connect 119 0 102 0;
#X connect 120 0 6 0;
#X connect 122 0 121 0;
#X connect 123 0 122 0;
#X connect 124 0 141 0;
#X connect 124 3 110 0;
#X connect 124 3 111 1;
#X connect 125 0 126 0;
#X connect 126 0 95 0;
#X connect 127 0 128 0;
#X connect 128 0 129 0;
#X connect 130 1 135 0;
#X connect 130 1 136 0;
#X connect 131 0 130 0;
#X connect 132 0 130 1;
#X connect 134 0 16 0;
#X connect 134 0 55 0;
#X connect 135 0 133 0;
#X connect 136 0 130 1;
#X connect 136 0 55 0;
#X connect 138 0 140 0;
#X connect 139 0 143 0;
#X connect 140 0 139 0;
#X connect 141 0 142 0;
#X connect 142 0 67 0;
#X connect 144 0 24 0;
#X connect 145 0 23 0;
#X connect 149 0 83 0;
#X connect 151 0 4 0;
#X connect 155 0 141 1;
#X connect 159 0 147 0;
#X connect 167 0 148 0;
#X coords 0 -1 1 1 190 70 1 100 100;
