#N canvas 590 95 991 595 12;
#X obj 62 85 PdRacks.presets;
#X text 66 37 Gestionnaire de présets à l'intérieur d'une scène
;
#X text 309 90 sauvegarde des floats \, symbols \, lists;
#X text 95 210 MORPH.TIME lets you switch progressively between 2 presets
values, f 45;
#N canvas 0 50 450 300 tech_notes 0;
#X text 17 70 au niveau d'une scène \, sauvegarde des mappings midi
\, des paramètres globaux (main) \, des parametres de slot \, des
modules presets;
#X text 16 131 les paramètres dynamiques (slots \, modules actifs)
doivent être gérés dans le gestionnaire de scènes;
#X restore 672 237 pd tech_notes;
#X coords 0 595 1 594 190 70 0;
