#N canvas 673 79 711 569 10;
#X declare -path ../../ressources/core;
#X declare -path ../../ressources/rj;
#X obj 38 26 loadbang;
#X msg 38 47 1;
#X obj 36 68 v PdRacks;
#X obj 182 36 loadbang;
#X obj 185 63 f \$0;
#X obj 185 85 v PdRacks.DollarZero;
#N canvas 1 151 1083 443 audio_config 0;
#X obj 808 157 c_bus no-out;
#X obj 808 134 c_bus no-in;
#X obj 338 208 c_bus IN1;
#X obj 468 208 c_bus IN2;
#X obj 558 208 c_bus IN3;
#X obj 688 208 c_bus IN4;
#X obj 339 51 adc~ 1 2 3 4, f 51;
#X obj 339 78 c_tobus IN1;
#X obj 457 78 c_tobus IN2;
#X obj 576 78 c_tobus IN3;
#X obj 694 78 c_tobus IN4;
#X obj 344 378 dac~ 1 2 3 4, f 49;
#X obj 339 235 c_bus OUT1;
#X obj 468 233 c_bus OUT2;
#X obj 557 233 c_bus OUT3;
#X obj 687 231 c_bus OUT4;
#X obj 344 304 c_frombus OUT1;
#X obj 456 304 c_frombus OUT2;
#X obj 568 304 c_frombus OUT3;
#X obj 680 304 c_frombus OUT4;
#X obj 344 351 clip~ -1 1;
#X obj 457 351 clip~ -1 1;
#X obj 568 351 clip~ -1 1;
#X obj 680 351 clip~ -1 1;
#X obj 687 256 c_bus MASTER-l;
#X obj 687 279 c_bus MASTER-r;
#X obj 808 88 send~ 0-send-0;
#X obj 808 108 send~ 0-send-1;
#X text 919 96 dummy sends~;
#X obj 30 99 text define -k bus_out;
#A set no-out no-out no-out \; OUT(1/2) OUT1 OUT2 \; OUT(3/4) OUT3
OUT4 \; MASTER MASTER-r MASTER-l \; OUT(1/3) OUT1 OUT3 \; OUT(1/4)
OUT1 OUT4 \; OUT(2/3) OUT2 OUT3 \; OUT(2/4) OUT2 OUT4 \; OUT1 OUT1
OUT1 \; OUT2 OUT2 OUT2 \; OUT3 OUT3 OUT3 \; OUT4 OUT4 OUT4 \;;
#X obj 30 77 text define -k bus_in;
#A set no-in no-in no-in \; IN(1/2) IN1 IN2 \; IN(3/4) IN3 IN4 \; IN1
IN1 IN1 \; IN2 IN2 IN2 \; IN3 IN3 IN3 \; IN4 IN4 IN4 \; MASTER MASTER-r
MASTER-l \; MODULE no-in no-in \;;
#X text 911 141 dummy busses;
#X text 27 46 Définir ici les règles de câblage;
#X obj 344 326 hip~ 10;
#X obj 456 326 hip~ 10;
#X obj 568 326 hip~ 10;
#X obj 680 326 hip~ 10;
#X connect 2 0 12 0;
#X connect 3 0 13 0;
#X connect 4 0 14 0;
#X connect 5 0 15 0;
#X connect 6 0 7 0;
#X connect 6 0 2 0;
#X connect 6 0 3 0;
#X connect 6 0 4 0;
#X connect 6 0 5 0;
#X connect 6 1 8 0;
#X connect 6 2 9 0;
#X connect 6 3 10 0;
#X connect 15 0 24 0;
#X connect 16 0 33 0;
#X connect 17 0 34 0;
#X connect 18 0 35 0;
#X connect 19 0 36 0;
#X connect 20 0 11 0;
#X connect 21 0 11 1;
#X connect 22 0 11 2;
#X connect 23 0 11 3;
#X connect 24 0 25 0;
#X connect 33 0 20 0;
#X connect 34 0 21 0;
#X connect 35 0 22 0;
#X connect 36 0 23 0;
#X restore 53 231 pd audio_config;
#N canvas 370 92 903 300 text_define 0;
#X obj 29 58 text define -k colors;
#A set amp 3 \; vol 1 \; pitch 4 \; freq 5 \; wet 6 \; damp 7 \; Q
8 \; value 9 \; thresh 10 \; oct 16 \; delay -40256 \;;
#X obj 28 189 text define -k modules;
#A set audio_in entrée audio \; audio_out sortie audio \; audio_record
enregistreur de piste \; inst_8bits synthétiseur type 8 bits \; inst_rhodey
synthétiseur type Rhodes \; inst_sampler sampleur \; inst_turntable
platine tournedisque pour scratcher \; fx_reverb réverberation \;
fx_freeverb reverberation de qualité \; fx_dubdel delay avec retard
\; fx_hip filtre passe-haut \; fx_lop filtre passe-bas \; fx_filter
filtre polyvalent \; fx_lowhip filtre polyvalent continu \; fx_chorus
chorus \; fx_graindelay delay à grains \; fx_granulator granulateur(obsolete)
\; fx_dynproc processeur de dynamique \; fx_multiband processeur dynamique
multibandes \; fx_freqshift déplaceur de fréquences vers le haut
ou le bas \; fx_ring modulateur en anneau \; fx_pitchshift transposition
\; fx_resonator résonnateur accordé commandé par le clavier \; fx_vst
hôte de pluggin vst \;;
#X obj 33 235 r PdRacks.define.midi-mapping;
#X obj 32 255 text define midi-mapping;
#X text 206 50 couleurs des différents contrôleurs TODO : rendre
local à chaque type de module, f 36;
#X text 207 191 Liste des modules avec 1 phrase de description;
#X text 38 119 [text define -k bus_in] et [text define -k bus_out]
sont définis dans le subpatch [pd audio_config];
#X connect 2 0 3 0;
#X restore 54 208 pd text_define;
#N canvas 0 50 663 300 mesure_latence 0;
#N canvas 0 50 576 577 latence 0;
#X obj 83 224 delay 2000;
#X obj 324 303 line~;
#X obj 275 357 *~;
#X obj 251 331 osc~ 3000;
#X obj 177 145 spigot;
#X obj 93 247 t b b b;
#X msg 246 112 1;
#X obj 174 183 t b b;
#X msg 268 145 0;
#X obj 63 296 timer;
#X obj 78 44 bp~ 3000 100;
#X obj 159 109 bng 15 250 50 0 empty empty empty 17 7 0 10 -262144
-1 -1;
#X obj 86 14 inlet~;
#X msg 211 37 set 0.001 200 0.0008 100;
#X obj 174 83 threshold~ 0.01 200 0.008 100;
#X msg 312 276 1 \, 0 30;
#X obj 58 199 t b;
#X obj 36 341 s LATENCY;
#X msg 161 340 set \$1;
#X obj 76 371 s LATENCY-rcv;
#X msg 144 483 BIP;
#X obj 28 124 inlet;
#X obj 257 393 outlet~;
#X obj 97 524 symbol;
#X obj 97 549 outlet;
#X msg 52 446 Attendre_SVP...;
#X msg 221 496 LATENCE=\$1;
#X obj 271 457 r LATENCY;
#X connect 0 0 5 0;
#X connect 1 0 2 1;
#X connect 2 0 22 0;
#X connect 3 0 2 0;
#X connect 4 0 7 0;
#X connect 5 0 9 0;
#X connect 5 1 15 0;
#X connect 5 2 6 0;
#X connect 5 2 20 0;
#X connect 6 0 4 1;
#X connect 7 0 9 1;
#X connect 7 1 8 0;
#X connect 8 0 4 1;
#X connect 9 0 17 0;
#X connect 9 0 18 0;
#X connect 10 0 14 0;
#X connect 12 0 10 0;
#X connect 13 0 14 0;
#X connect 14 0 4 0;
#X connect 14 0 11 0;
#X connect 15 0 1 0;
#X connect 16 0 0 0;
#X connect 16 0 25 0;
#X connect 18 0 19 0;
#X connect 20 0 23 0;
#X connect 21 0 16 0;
#X connect 23 0 24 0;
#X connect 25 0 23 0;
#X connect 26 0 23 0;
#X connect 27 0 26 0;
#X restore 143 185 pd latence;
#X obj 101 103 bng 15 250 50 0 empty empty empty 17 7 0 10 -262144
-1 -1;
#X obj 225 157 adc~;
#X obj 230 227 dac~;
#X obj 150 114 cnv 15 120 15 empty \$0-latence_display-rcv LATENCE=111.565
2 8 0 12 -233017 -66577 0;
#X msg 130 212 label \$1;
#X obj 130 237 s \$0-latence_display-rcv;
#X obj 221 101 nbx 5 14 0 200 0 1 LATENCY LATENCY-rcv LATENCY(ms) -70
7 0 10 -262144 -1 -1 111.565 256;
#X connect 0 0 5 0;
#X connect 0 1 3 0;
#X connect 0 1 3 1;
#X connect 1 0 0 0;
#X connect 2 0 0 1;
#X connect 2 1 0 1;
#X connect 5 0 6 0;
#X coords 0 -1 1 1 180 30 2 100 100;
#X restore 100 140 pd mesure_latence;
#N canvas 274 141 450 300 init_scene 1;
#X msg 37 155 bang;
#X text 177 161 output all lines starting from current one to next
waiting point, f 34;
#X obj 29 211 text sequence scene_preset;
#X obj 116 7 loadbang;
#X obj 29 233 list trim;
#X obj 29 255 s RJ_SCENE_LOAD;
#X obj 264 62 s pd;
#X msg 249 29 dsp 1;
#X obj 26 21 inlet;
#X obj 116 29 delay 100;
#X msg 191 97 clear;
#X obj 305 101 s ctl-assign3.GLOBAL;
#X obj 155 59 t b b;
#X obj 155 81 delay 10;
#X obj 96 75 t b b;
#X obj 283 125 s PdRacks.define.midi-mapping;
#X msg 76 188 line 0;
#X obj 97 108 text size scene_preset;
#X obj 97 131 select 0;
#X connect 0 0 2 0;
#X connect 2 0 4 0;
#X connect 3 0 7 0;
#X connect 3 0 9 0;
#X connect 4 0 5 0;
#X connect 7 0 6 0;
#X connect 8 0 12 0;
#X connect 9 0 12 0;
#X connect 10 0 11 0;
#X connect 10 0 15 0;
#X connect 12 0 13 0;
#X connect 12 1 10 0;
#X connect 13 0 14 0;
#X connect 14 0 0 0;
#X connect 14 1 17 0;
#X connect 16 0 2 0;
#X connect 17 0 18 0;
#X connect 18 1 16 0;
#X restore 261 235 pd init_scene;
#X obj 241 115 bng 25 250 50 0 empty empty RECALL 3 13 0 12 -4034 -1
-1;
#X obj 55 307 bng 15 250 50 0 empty empty empty 17 7 0 10 -262144 -1
-1;
#X obj 151 375 r RJ_SCENE;
#X msg 55 327 \; RJ_SCENE_SAVE save;
#X obj 131 464 text delete scene_preset;
#X msg 100 425 -1;
#X obj 157 518 text set scene_preset;
#X msg 323 432 1e+06;
#X obj 151 397 t l b;
#X obj 203 115 bng 25 250 50 0 empty empty SAVE 3 13 0 12 -258113 -1
-1;
#X text 225 100 SCENE;
#X obj 295 382 iemguts/sendcanvas 1;
#X msg 326 277 dirty 1;
#X obj 158 266 t b b b;
#X obj 239 314 delay 1000;
#X msg 239 336 menusave;
#X obj 414 4 declare -path ../../ressources/core;
#X obj 414 34 declare -path ../../ressources/rj;
#X connect 0 0 1 0;
#X connect 1 0 2 0;
#X connect 3 0 4 0;
#X connect 4 0 5 0;
#X connect 10 0 9 0;
#X connect 11 0 13 0;
#X connect 12 0 18 0;
#X connect 15 0 14 0;
#X connect 17 0 16 1;
#X connect 18 0 16 0;
#X connect 18 1 17 0;
#X connect 19 0 23 0;
#X connect 22 0 21 0;
#X connect 23 0 13 0;
#X connect 23 0 24 0;
#X connect 23 1 15 0;
#X connect 23 2 22 0;
#X connect 24 0 25 0;
#X connect 25 0 21 0;
#X coords 0 -1 1 1 190 70 1 100 100;
