#N canvas 88 5 725 641 10;
#X declare -path ../core;
#X declare -path ../rj;
#X obj 466 60 declare -path ../core;
#X obj 466 90 declare -path ../rj;
#X text 10 239 configuration audio (nb d'entrées/sorties \, noms des
bus);
#X text 67 197 notamment :;
#X text 14 267 réglage de la latence;
#X text 23 20 PdRack.settings;
#X text 13 294 rappel / sauvegarde des réglages de scène (stockés
dans un objet text define -k scene_preset qui doit être présent dans
le patch principal);
#X text 18 107 PdRacks.settings contient tous les éléments globaux
(variables \, tableaux \, text define \, send~/receive~) permettant
une utilisation en standalone (statique) des modules de PdRacks. C'est
le module prérequis pour pouvoir utiliser le reste.;
#X text 35 378 Autres modules de service (facultatifs);
#X text 35 459 * PdRacks.morphing : gestion du morphing entre 2 instantanés
de réglages pour tous les modules du patch. Attention : ces 2 instantanés
ne sont pas sauvegardés avec la scène.;
#X text 34 409 * PdRacks.transport : métronome \, tempo \, commandes
play / stop \, synchro externe / ableton_link (expérimental) \, pour
tous les modules nécessitant une référence de temps commune.;
#X text 34 505 * PdRacks.midilearn : gestion des mappings avec des
contrôleurs externes (messages CTLIN uniquement) \, interface 'show_midi_devices'
pour afficher rapidement les périphériques midi disponibles;
#X text 34 568 * PdRacks.midi : pour mapper des événements noteon
/ off externes vers des messages CTLIN \, afin ensuite de contrôler
certains paramètres des modules avec ces déclencheurs noteON/OFF.
;
#X coords 0 641 1 640 190 70 0;
