#N canvas 293 116 991 595 10;
#X text 90 415 TODO;
#X text 25 450 sauvegarde;
#X text 27 473 multiple patterns;
#X obj 98 320 inlet~;
#X obj 95 344 outlet~;
#X obj 158 320 inlet~;
#X obj 155 344 outlet~;
#X obj 755 196 module_loader presets \$0 \$1;
#X msg 468 241 saveTo \$1;
#X obj 487 168 symbol \$0-ducon;
#X obj 331 108 bng 15 250 50 0 empty empty empty 17 7 0 10 -262144
-1 -1;
#X obj 435 326 r \$0-ducon;
#X obj 466 296 s RJ_SCENE_SAVE;
#X obj 445 382 list split 2;
#X obj 485 409 route float;
#X obj 445 355 t l b;
#X obj 412 498 spigot;
#X msg 455 417 0;
#X msg 487 466 1;
#X obj 496 136 t b b;
#X obj 688 319 text define \$0-preset1;
#X msg 823 285 1e+006;
#X obj 649 363 text set \$0-preset1;
#X obj 807 255 loadbang;
#X obj 486 437 t b f b;
#X msg 612 225 0;
#X msg 683 204 clear;
#X text 548 6 au niveau d'une scène \, sauvegarde des mappings midi
\, des paramètres globaux (main) \, des parametres de slot \, des
modules presets;
#X text 548 49 Au niveau des modules presets \, sauvegarde des floats
\, symbols \, lists;
#X obj 111 124 hsl 128 15 1 5001 1 0 \$0-morph.time \$0-morph.time-rcv
MORPH.TIME=0 2 8 0 10 -262144 -1 -1 0 1;
#X obj 249 103 bng 40 250 50 0 MORPH.STOP empty STOP 5 13 0 10 -262144
-1 -1;
#X obj 412 520 list append;
#X obj 109 155 hradio 15 1 0 8 empty empty empty 0 -8 0 10 -204786
-1 -1 3;
#X obj 109 140 hradio 15 1 0 8 empty empty empty 0 -8 0 10 -261234
-1 -1 0;
#X obj 98 219 r \$0-morph.time;
#X obj 98 241 - 1;
#X obj 240 300 s \$0-morph.time-rcv;
#X msg 254 267 label MORPH.TIME=\$1;
#X obj 125 274 int;
#X obj 244 332 s MORPH.TIME;
#X obj 278 220 u_dispatch \$0 morph.time;
#X text 250 118 MORPH;
#X connect 3 0 4 0;
#X connect 5 0 6 0;
#X connect 8 0 12 0;
#X connect 9 0 8 0;
#X connect 10 0 19 0;
#X connect 11 0 15 0;
#X connect 13 0 16 0;
#X connect 13 1 14 0;
#X connect 14 0 24 0;
#X connect 15 0 13 0;
#X connect 15 1 17 0;
#X connect 16 0 31 0;
#X connect 17 0 16 1;
#X connect 18 0 16 1;
#X connect 19 0 9 0;
#X connect 19 1 25 0;
#X connect 19 1 26 0;
#X connect 21 0 22 1;
#X connect 23 0 21 0;
#X connect 24 0 18 0;
#X connect 24 1 31 1;
#X connect 26 0 20 0;
#X connect 31 0 22 0;
#X connect 34 0 35 0;
#X connect 35 0 38 0;
#X connect 37 0 36 0;
#X connect 38 0 37 0;
#X connect 38 0 39 0;
#X coords 0 -1 1 1 190 70 1 100 100;
