#N canvas 0 50 790 417 10;
#X obj 261 178 == 0;
#X obj 191 168 f;
#X msg 114 246 color 15 15 -1;
#X msg 235 235 color 2 2 -1;
#X obj 274 92 == 0;
#X obj 189 144 spigot 1;
#X obj 366 135 spigot;
#X obj 281 37 inlet;
#X obj 406 214 +;
#X obj 437 187 * 10;
#X msg 406 321 127 \$1 1;
#X obj 525 97 inlet metro;
#X obj 627 297 * 10;
#X obj 502 313 pack f f;
#X msg 502 335 \$1 \$2 1;
#X obj 202 214 select 1 0;
#X msg 301 158 0;
#N canvas 0 50 450 300 snap 0;
#X obj 168 56 inlet metro;
#X obj 286 30 inlet active;
#X obj 278 78 switch~;
#X obj 168 78 spigot;
#X obj 202 159 snapshot~;
#X obj 199 211 outlet;
#X obj 202 181 change;
#X obj 330 124 symbol \$1-CV\$2;
#X obj 342 70 select 0 1;
#X obj 203 119 r~ 0-send-0;
#X msg 333 155 set \$1;
#X msg 318 195 set 0-send-0;
#X connect 0 0 3 0;
#X connect 1 0 2 0;
#X connect 1 0 3 1;
#X connect 1 0 8 0;
#X connect 3 0 4 0;
#X connect 4 0 6 0;
#X connect 6 0 5 0;
#X connect 7 0 10 0;
#X connect 8 0 11 0;
#X connect 8 1 7 0;
#X connect 9 0 4 0;
#X connect 10 0 9 0;
#X connect 11 0 9 0;
#X restore 516 231 pd snap;
#X obj 627 319 + \$3;
#X obj 374 170 f \$3;
#X obj 174 116 r \$1-\$2;
#X obj 111 267 s \$1-\$2-rcv;
#X obj 366 113 r \$1-\$2;
#X obj 437 165 r \$1-ID;
#X obj 405 351 s CTLIN;
#X obj 532 180 spigot 1;
#X obj 502 261 * 63.5;
#X obj 501 284 + 63.5;
#X obj 388 52 r \$1-cv\$2;
#X obj 288 200 s \$1-cv\$2;
#X connect 0 0 29 0;
#X connect 1 0 0 0;
#X connect 2 0 21 0;
#X connect 3 0 21 0;
#X connect 4 0 5 1;
#X connect 4 0 25 1;
#X connect 5 0 1 0;
#X connect 6 0 16 0;
#X connect 6 0 19 0;
#X connect 7 0 4 0;
#X connect 7 0 6 1;
#X connect 8 0 10 0;
#X connect 9 0 8 1;
#X connect 10 0 24 0;
#X connect 11 0 25 0;
#X connect 12 0 18 0;
#X connect 13 0 14 0;
#X connect 14 0 24 0;
#X connect 15 0 2 0;
#X connect 15 1 3 0;
#X connect 16 0 0 0;
#X connect 17 0 26 0;
#X connect 18 0 13 1;
#X connect 19 0 8 0;
#X connect 20 0 5 0;
#X connect 22 0 6 0;
#X connect 23 0 9 0;
#X connect 23 0 12 0;
#X connect 25 0 17 0;
#X connect 26 0 27 0;
#X connect 27 0 13 0;
#X connect 28 0 15 0;
#X connect 28 0 1 1;
#X connect 28 0 17 1;
