#N canvas 56 50 1280 695 10;
#X obj 10 4 cnv 5 5 5 empty empty AUTOMATONISM 0 12 0 15 -262144 -66577
0;
#X obj 220 264 kick 1;
#X obj 215 116 r CLOCK;
#X obj 215 160 select 0;
#X msg 208 184 1 \, 0 10;
#X obj 223 225 line~;
#X obj 226 412 stereo_outlet~ \$1;
#X obj 331 184 r~ \$1-CV1;
#X obj 215 138 mod 12;
#X connect 1 0 6 0;
#X connect 1 0 6 1;
#X connect 2 0 8 0;
#X connect 3 0 4 0;
#X connect 4 0 5 0;
#X connect 5 0 1 0;
#X connect 7 0 1 1;
#X connect 8 0 3 0;
