#N canvas 56 50 1280 695 10;
#X obj 10 4 cnv 5 5 5 empty empty AUTOMATONISM 0 12 0 15 -262144 -66577
0;
#X obj 215 86 r CLOCK;
#X obj 215 160 select 0;
#X msg 208 184 1 \, 0 10;
#X obj 223 225 line~;
#X obj 226 412 stereo_outlet~ \$1;
#X obj 215 108 mod 24;
#X obj 331 184 r~ \$1-CV1;
#X obj 422 179 r~ \$1-CV2;
#X obj 371 224 r~ \$1-CV3;
#X obj 462 219 r~ \$1-CV4;
#X obj 492 103 probability;
#X obj 385 30 select 0;
#X msg 378 54 1 \, 0 10;
#X obj 393 95 line~;
#X obj 285 111 mod 6;
#X obj 295 141 mod 12;
#X obj 220 264 kick 1;
#X connect 1 0 6 0;
#X connect 1 0 15 0;
#X connect 1 0 16 0;
#X connect 2 0 3 0;
#X connect 3 0 4 0;
#X connect 4 0 17 0;
#X connect 6 0 2 0;
#X connect 7 0 17 1;
#X connect 8 0 17 2;
#X connect 9 0 17 3;
#X connect 10 0 17 4;
#X connect 11 0 17 0;
#X connect 12 0 13 0;
#X connect 13 0 14 0;
#X connect 14 0 11 0;
#X connect 15 0 12 0;
#X connect 16 0 12 0;
#X connect 17 0 5 0;
#X connect 17 0 5 1;
