#N struct 1951-symarray float x array symbols 1951-sym;
#N struct 1951-sym symbol name float on;
#N canvas 1 56 1280 687 10;
#X declare -stdlib extra/Gem/gem;
#X declare -path ../../ressources/core;
#X declare -path ../../ressources/rj;
#X obj 806 28 r \$0-index;
#X msg 801 55 set \$1;
#X obj 801 77 s \$0-index-rcv;
#X obj 101 101 cnv 15 188 68 empty \$0-background video_carton-1 0
7 0 14 -262144 -1 0;
#X obj 290 63 tgl 15 0 \$0-loop \$0-loop-rcv LOOP 17 7 0 10 -262144
-1 -1 0 1;
#X obj 856 181 inlet~;
#X obj 798 219 outlet~;
#X obj 856 220 outlet~;
#X obj 937 175 inlet data;
#X obj 938 222 outlet data;
#X obj 526 25 namecanvas \$0-multitab;
#X obj 101 301 cnv 15 188 68 empty \$0-background video_carton-1 0
7 0 14 -262144 -1 0;
#X obj 101 401 cnv 15 188 68 empty \$0-background video_carton-1 0
7 0 14 -262144 -1 0;
#X obj 101 201 cnv 15 188 68 empty \$0-background video_carton-1 0
7 0 14 -262144 -1 0;
#X obj 200 200 hradio 15 1 0 6 \$0-guitab \$0-guitab-rcv empty 0 -8
0 10 -191407 -1 -1 0;
#X obj 125 232 bng 20 250 50 0 \$0-load_sample empty CHANGE 2 10 0
10 -262144 -1 -1;
#X obj 200 100 bng 15 250 50 0 empty empty EDIT 17 7 0 10 -191407 -1
-1;
#X obj 149 62 s \$0-guitab-rcv;
#X msg 170 35 1;
#X obj 101 501 cnv 15 188 68 empty \$0-background video_carton-1 0
7 0 14 -262144 -1 0;
#X obj 200 300 hradio 15 1 0 6 \$0-guitab \$0-guitab-rcv empty 0 -8
0 10 -191407 -1 -1 0;
#X obj 200 400 hradio 15 1 0 6 \$0-guitab \$0-guitab-rcv empty 0 -8
0 10 -191407 -1 -1 0;
#X obj 673 60 r \$0-load_sample;
#X obj 673 82 openpanel;
#X msg 649 241 label \$1;
#X obj 649 263 s \$0-samplename-rcv;
#X obj 165 223 bng 15 250 50 0 \$0-reset empty reset_all 17 7 0 10
-262144 -1 -1;
#X obj 247 250 bng 15 250 50 0 \$0-update empty update 2 7 0 10 -258113
-1 -1;
#X obj 273 220 bng 15 250 50 0 \$0-next_file \$0-next_file-rcv > 5
7 0 10 -262144 -1 -1;
#X obj 259 220 bng 15 250 50 0 \$0-prev_file \$0-prev_file-rcv < 5
7 0 10 -262144 -1 -1;
#X floatatom 259 235 4 0 0 0 - #0-index-rcv -, f 4;
#X obj 273 320 bng 15 250 50 0 \$0-next_file \$0-next_file-rcv > 5
7 0 10 -262144 -1 -1;
#X obj 259 320 bng 15 250 50 0 \$0-prev_file \$0-prev_file-rcv < 5
7 0 10 -262144 -1 -1;
#X floatatom 259 335 4 0 0 0 - #0-index-rcv -, f 4;
#X obj 273 420 bng 15 250 50 0 \$0-next_file \$0-next_file-rcv > 5
7 0 10 -262144 -1 -1;
#X obj 259 420 bng 15 250 50 0 \$0-prev_file \$0-prev_file-rcv < 5
7 0 10 -262144 -1 -1;
#X floatatom 259 435 4 0 0 0 - #0-index-rcv -, f 4;
#X obj 250 350 bng 15 250 50 0 \$0-update empty update 2 7 0 10 -258113
-1 -1;
#X obj 247 450 bng 15 250 50 0 \$0-update empty update 2 7 0 10 -258113
-1 -1;
#X obj 271 520 bng 15 250 50 0 \$0-next_file \$0-next_file-rcv > 5
7 0 10 -262144 -1 -1;
#X obj 257 520 bng 15 250 50 0 \$0-prev_file \$0-prev_file-rcv < 5
7 0 10 -262144 -1 -1;
#X floatatom 257 535 4 0 0 0 - #0-index-rcv -, f 4;
#X obj 165 236 bng 15 250 50 0 \$0-delete empty delete 17 7 0 10 -262144
-1 -1;
#N canvas 458 61 643 448 midi2notename 0;
#N canvas 473 338 450 300 count 0;
#X obj 131 154 f 0;
#X obj 156 153 + 1;
#X msg 147 133 0;
#X obj 131 183 outlet;
#X obj 131 59 inlet;
#X obj 131 96 b;
#X obj 178 61 inlet;
#X obj 178 98 b;
#X connect 0 0 1 0;
#X connect 0 0 3 0;
#X connect 1 0 0 1;
#X connect 2 0 0 1;
#X connect 4 0 5 0;
#X connect 5 0 0 0;
#X connect 6 0 7 0;
#X connect 7 0 2 0;
#X restore 330 219 pd count;
#X msg 249 169 c \, c# \, d \, d# \, e \, f \, f# \, g \, g# \, a \,
a# \, b;
#X obj 249 194 t a b;
#X obj 249 243 list prepend;
#X msg 173 243 reset;
#X obj 249 144 t b b b;
#X text -2 162 Notes example:;
#X msg 114 244 print;
#X msg 114 219 dump;
#X obj 161 268 m_symbolarray;
#X obj 252 117 loadbang;
#X obj 165 163 mod 12;
#X obj 229 113 bng 15 250 50 0 empty empty empty 17 7 0 10 -262144
-1 -1;
#X obj 166 127 t f f;
#X obj 159 297 list append;
#X obj 166 104 - 24;
#X floatatom 177 215 5 0 0 0 - - -, f 5;
#X obj 188 192 div 12;
#X obj 171 76 t f f;
#X obj 164 321 list append;
#X obj 161 50 route set;
#X msg 150 363 symbol (\$1\$2);
#X obj 147 27 r \$0-root_key-rcv;
#X obj 152 385 s \$0-root_key_display-rcv;
#X connect 0 0 3 1;
#X connect 1 0 2 0;
#X connect 2 0 3 0;
#X connect 2 1 0 0;
#X connect 3 0 9 1;
#X connect 4 0 9 0;
#X connect 5 0 1 0;
#X connect 5 1 4 0;
#X connect 5 2 0 1;
#X connect 7 0 9 0;
#X connect 8 0 9 0;
#X connect 9 0 14 0;
#X connect 10 0 5 0;
#X connect 11 0 9 0;
#X connect 12 0 5 0;
#X connect 13 0 11 0;
#X connect 13 1 17 0;
#X connect 14 0 19 0;
#X connect 15 0 13 0;
#X connect 17 0 16 0;
#X connect 17 0 14 1;
#X connect 18 0 15 0;
#X connect 18 1 19 1;
#X connect 19 0 21 0;
#X connect 20 0 18 0;
#X connect 21 0 23 0;
#X connect 22 0 20 0;
#X restore 347 245 pd midi2notename;
#X obj 103 232 bng 20 250 50 0 \$0-add_sample empty ADD 2 10 0 10 -262144
-1 -1;
#X obj 933 62 openpanel;
#X obj 1068 234 s \$0-path;
#X obj 973 114 splitfilename /;
#X obj 959 11 r \$0-add_sample;
#X obj 933 84 t b s;
#X obj 883 136 s \$0-append;
#X obj 649 221 symbol;
#X obj 973 144 splitfilename /;
#X obj 1130 301 print path;
#X obj 1129 278 r \$0-path;
#N canvas 375 147 849 522 parameters_saving 0;
#X obj 79 33 inlet;
#X msg 221 139 set \$1;
#X obj 206 164 s \$0-index-rcv;
#N canvas 569 71 886 552 gestion 0;
#X msg 386 150 append;
#X obj 342 93 delay 1;
#X obj 327 57 r \$0-append;
#X obj 419 63 r \$0-reset;
#X msg 426 104 reset;
#X obj 283 189 s \$0-subset;
#X obj 520 46 r \$0-update;
#X msg 523 88 update;
#X msg 142 115 next;
#X msg 94 85 prev;
#X obj 93 62 r \$0-prev_file;
#X obj 141 92 r \$0-next_file;
#X obj 62 151 inlet current_index;
#X obj 27 37 r \$0-delete;
#X obj 41 187 f;
#X msg 41 209 delete \$1;
#X obj 488 249 list length;
#X obj 522 197 list trim;
#X obj 522 219 route <subset>;
#X obj 342 115 t b b;
#X obj 472 276 f;
#X obj 472 298 - 1;
#X obj 472 320 s \$0-index;
#X text 417 354 placement automatique au dernier élément de la liste
après message append;
#X obj 510 168 r \$0-lload_image;
#X connect 0 0 5 0;
#X connect 1 0 19 0;
#X connect 2 0 1 0;
#X connect 3 0 4 0;
#X connect 4 0 5 0;
#X connect 6 0 7 0;
#X connect 7 0 5 0;
#X connect 8 0 5 0;
#X connect 9 0 5 0;
#X connect 10 0 9 0;
#X connect 11 0 8 0;
#X connect 12 0 14 1;
#X connect 13 0 14 0;
#X connect 14 0 15 0;
#X connect 15 0 5 0;
#X connect 16 0 20 1;
#X connect 17 0 18 0;
#X connect 18 0 16 0;
#X connect 18 1 16 0;
#X connect 19 0 20 0;
#X connect 19 1 0 0;
#X connect 20 0 21 0;
#X connect 21 0 22 0;
#X connect 24 0 17 0;
#X restore 283 110 pd gestion subset;
#X obj 76 226 u_parameter_subset \$0 root_key;
#X obj 76 92 u_dispatch \$0 path;
#X floatatom 287 195 5 0 0 0 - - -, f 5;
#X obj 280 15 loadbang;
#X obj 75 168 u_subset \$0 Y;
#X msg 306 36 path ../images/collections/default \, X 0 \, Y 0 \, layer
1 \, scale 1 \, rotZ 0 \, root_key 64 \, X/Y 1;
#X obj 76 143 u_subset \$0 X;
#X obj 76 116 u_subset \$0 load_image;
#X obj 76 246 u_subset \$0 scale;
#X obj 73 290 u_subset \$0 rotX;
#X obj 77 310 u_subset \$0 rotY;
#X obj 74 330 u_subset \$0 rotZ;
#X obj 75 198 u_subset \$0 Z;
#X obj 76 266 u_subset \$0 layer;
#X obj 76 422 u_subset \$0 X/Y;
#X obj 76 352 u_subset \$0 s_min;
#X obj 86 378 u_subset \$0 s_max;
#X obj 333 310 u_parameter \$0 fidmax;
#X obj 333 291 u_parameter \$0 fidmin;
#X obj 331 334 u_parameter \$0 target1;
#X obj 331 354 u_parameter \$0 target2;
#X obj 331 374 u_parameter \$0 target3;
#X obj 331 414 u_parameter \$0 mul1;
#X obj 331 434 u_parameter \$0 mul2;
#X obj 331 454 u_parameter \$0 mul3;
#X obj 331 475 u_dispatch \$0 fade;
#X connect 0 0 5 0;
#X connect 1 0 2 0;
#X connect 4 0 12 0;
#X connect 5 0 11 0;
#X connect 7 0 9 0;
#X connect 8 0 16 0;
#X connect 9 0 5 0;
#X connect 10 0 8 0;
#X connect 10 1 6 0;
#X connect 11 0 10 0;
#X connect 11 1 1 0;
#X connect 11 1 3 0;
#X connect 12 0 17 0;
#X connect 13 0 14 0;
#X connect 14 0 15 0;
#X connect 15 0 19 0;
#X connect 16 0 4 0;
#X connect 17 0 13 0;
#X connect 18 0 22 0;
#X connect 19 0 20 0;
#X connect 20 0 18 0;
#X connect 21 0 23 0;
#X connect 22 0 21 0;
#X connect 23 0 24 0;
#X connect 24 0 25 0;
#X connect 25 0 26 0;
#X connect 26 0 27 0;
#X connect 27 0 28 0;
#X connect 28 0 29 0;
#X restore 353 115 pd parameters_saving;
#X obj 524 5 ui_multitab \$0;
#N canvas 512 50 776 443 learn_keys 0;
#X obj 51 15 inlet;
#X obj 62 161 spigot;
#X obj 101 135 r \$0-learn_root;
#X obj 51 37 unpack f f;
#X obj 51 59 spigot;
#X obj 63 181 t f b;
#X msg 93 207 0;
#X obj 93 229 s \$0-learn_root-rcv;
#X obj 59 266 s \$0-root_key-rcv;
#X obj 36 341 spigot;
#X obj 36 363 t b b;
#X msg 106 381 0;
#X obj 53 84 t b f f f, f 30;
#X msg 129 312 1;
#X obj 36 385 delay 10;
#X obj 36 407 s \$0-update;
#X connect 0 0 3 0;
#X connect 1 0 5 0;
#X connect 2 0 1 1;
#X connect 3 0 4 0;
#X connect 3 1 4 1;
#X connect 4 0 12 0;
#X connect 5 0 8 0;
#X connect 5 1 6 0;
#X connect 5 1 13 0;
#X connect 6 0 7 0;
#X connect 9 0 10 0;
#X connect 10 0 14 0;
#X connect 10 1 11 0;
#X connect 11 0 9 1;
#X connect 12 0 9 0;
#X connect 12 1 1 0;
#X connect 13 0 9 1;
#X connect 14 0 15 0;
#X restore 933 271 pd learn_keys;
#X obj 103 215 bng 15 250 50 0 empty empty empty 17 7 0 10 -262144
-1 -1;
#X obj 356 89 module_loader video_carton \$0 \$1;
#N canvas 1 56 1280 620 mapped_properties_bank 0;
#X obj 275 34 inlet;
#X obj 285 581 outlet;
#X msg 694 306 EOM;
#X obj 693 283 r \$0-reset;
#X obj 591 52 u_sublist_dump \$0 root_key;
#X obj 591 72 u_sublist_dump \$0 X;
#X obj 591 92 u_sublist_dump \$0 Y;
#X obj 591 132 u_sublist_dump \$0 layer;
#X obj 591 152 u_sublist_dump \$0 scale;
#X obj 591 32 u_sublist_dump \$0 load_image;
#X obj 591 172 u_sublist_dump \$0 rotX;
#X obj 591 192 u_sublist_dump \$0 rotY;
#X obj 591 212 u_sublist_dump \$0 rotZ;
#X obj 591 112 u_sublist_dump \$0 Z;
#X obj 591 351 list prepend 0;
#X obj 827 391 list split 1;
#X obj 824 415 + 1;
#X obj 826 465 list append;
#X obj 591 232 u_sublist_dump \$0 X/Y;
#X obj 116 259 hradio 15 1 0 8 empty empty empty 0 -8 0 10 -262144
-1 -1 5;
#X msg 90 338 vis \$1 1;
#X text 411 480 u_mapped_properties renvoie les propriétés de l'élément
correspondant au numéro de note entrante;
#X obj 999 165 pix_buffer \$0-depot 32;
#X obj 960 126 r \$0-depot;
#X obj 827 435 moses 32;
#X obj 279 442 list split 1;
#X obj 316 471 list trim;
#X text 316 89 notein/noteout;
#X text 314 134 format d'entrée;
#X text 304 168 <note> <velocity>;
#X text 306 191 <sid> <note> <velocity>;
#X obj 279 420 clone video_carton/carton_textures_bank 32 \$0;
#X obj 800 258 u_sublist_dump \$0 s_min;
#X obj 810 284 u_sublist_dump \$0 s_max;
#X connect 0 0 14 0;
#X connect 2 0 14 0;
#X connect 3 0 2 0;
#X connect 4 0 14 0;
#X connect 5 0 14 0;
#X connect 6 0 14 0;
#X connect 7 0 14 0;
#X connect 8 0 14 0;
#X connect 9 0 14 0;
#X connect 10 0 14 0;
#X connect 11 0 14 0;
#X connect 12 0 14 0;
#X connect 13 0 14 0;
#X connect 14 0 31 0;
#X connect 15 0 16 0;
#X connect 15 1 17 1;
#X connect 16 0 24 0;
#X connect 17 0 31 0;
#X connect 18 0 14 0;
#X connect 19 0 20 0;
#X connect 20 0 31 0;
#X connect 23 0 22 0;
#X connect 24 0 17 0;
#X connect 25 1 26 0;
#X connect 26 0 1 0;
#X connect 31 0 25 0;
#X connect 31 1 15 0;
#X connect 32 0 14 0;
#X connect 33 0 14 0;
#X restore 915 299 pd mapped_properties_bank;
#X obj 935 443 declare -stdlib extra/Gem/gem;
#X obj 800 179 inlet~;
#X obj 1099 117 s \$0-load_image;
#X obj 649 199 r \$0-load_image;
#N canvas 0 50 450 300 macro 0;
#X obj 102 20 inlet;
#X obj 109 285 outlet;
#X obj 226 65 t b b b;
#X obj 87 253 s \$0-guitab-rcv;
#X msg 49 180 1;
#X obj 89 55 r \$0-update;
#X obj 89 77 delay 10;
#X msg 89 99 1;
#X obj 142 110 r \$0-append;
#X obj 143 134 spigot;
#X msg 226 112 1;
#X obj 143 156 t b b b;
#X msg 266 124 0;
#X obj 89 207 spigot;
#X obj 226 90 s \$0-add_sample;
#X obj 89 229 t f b;
#X msg 148 190 0;
#X obj 263 156 delay 20000;
#X msg 210 180 stop;
#X msg 174 204 1;
#X connect 0 0 2 0;
#X connect 2 0 10 0;
#X connect 2 1 17 0;
#X connect 2 2 14 0;
#X connect 4 0 13 1;
#X connect 4 0 1 0;
#X connect 5 0 6 0;
#X connect 6 0 7 0;
#X connect 7 0 13 0;
#X connect 8 0 9 0;
#X connect 9 0 11 0;
#X connect 10 0 9 1;
#X connect 11 0 4 0;
#X connect 11 1 19 0;
#X connect 11 2 12 0;
#X connect 11 2 18 0;
#X connect 12 0 9 1;
#X connect 13 0 15 0;
#X connect 15 0 3 0;
#X connect 15 1 16 0;
#X connect 16 0 13 1;
#X connect 17 0 12 0;
#X connect 18 0 17 0;
#X connect 19 0 3 0;
#X restore 379 184 pd macro;
#X msg 1071 197 symbol \$1/\$2;
#X obj 210 315 ui_vs \$0 layer 0 4;
#X floatatom 161 251 10 0 127 0 root_key #0-root_key-rcv #0-root_key
, f 10;
#X symbolatom 189 251 6 0 0 0 - #0-root_key_display-rcv -, f 6;
#X obj 234 251 tgl 14 0 \$0-learn_root \$0-learn_root-rcv learn -10
-6 0 10 -262144 -1 -1 0 1;
#X obj 176 515 ui_vs \$0 rotZ 0 360;
#X obj 138 515 ui_vs \$0 rotY 0 360;
#X obj 100 515 ui_vs \$0 rotX 0 360;
#X obj 104 216 cnv 12 1 1 empty \$0-samplename-rcv skyline1.jpg 2 6
0 10 -262144 -66577 0;
#N canvas 0 50 450 300 decode_spaces 1;
#X obj 163 52 inlet;
#X obj 161 240 outlet;
#X obj 161 95 symbol;
#X obj 176 130 symbol2list >;
#X obj 191 166 list2symbol;
#X connect 0 0 2 0;
#X connect 2 0 3 0;
#X connect 3 0 4 0;
#X connect 4 0 1 0;
#X restore 1111 46 pd decode_spaces;
#X text 1138 62 pour supprimer/rétablir espaces dans nom de fichier
(dep : zexy), f 34;
#X text 475 541 aftertouch <noteid> <target_name> <value>;
#X obj 915 247 route note aftertouch;
#X obj 562 320 r \$0-SSSAD;
#X obj 635 499 list prepend 0;
#X obj 620 444 spigot;
#X obj 766 324 list split 2;
#X obj 766 346 unpack f s;
#X obj 831 399 select remove;
#X msg 880 423 1;
#X msg 836 427 0;
#X obj 138 315 ui_vsl \$0 X/Y 0.2 5;
#X text 671 302 auto_refresh;
#X obj 200 500 hradio 15 1 0 6 \$0-guitab \$0-guitab-rcv empty 0 -8
0 10 -191407 -1 -1 0;
#X obj 101 601 cnv 15 188 68 empty \$0-background video_carton-1 0
7 0 14 -262144 -1 0;
#X obj 200 600 hradio 15 1 0 6 \$0-guitab \$0-guitab-rcv empty 0 -8
0 10 -191407 -1 -1 0;
#X obj 247 550 bng 15 250 50 0 \$0-update empty update 2 7 0 10 -258113
-1 -1;
#X floatatom 250 127 5 0 0 2 fidmin #0-fidmin-rcv #0-fidmin, f 5;
#X floatatom 250 155 5 0 0 2 fidmax #0-fidmax-rcv #0-fidmax, f 5;
#X obj 653 587 text define -k \$0-target;
#A set <none> \; _X \; _Y \; _Z \; layer \;;
#N canvas 88 53 780 486 gestion_affichage_mul 0;
#X obj 301 77 * 100;
#X obj 301 99 int;
#X obj 301 121 * 0.01;
#X obj 111 55 r \$0-mul1;
#X obj 112 162 s \$0-mul1-rcv;
#X obj 111 77 * 100;
#X obj 111 99 int;
#X obj 111 121 * 0.01;
#X obj 301 25 r \$0-mul2;
#X obj 235 244 s \$0-mul2-rcv;
#X msg 11 69 label;
#X obj 301 47 * 0.5;
#X obj 301 143 moses 0;
#X obj 301 162 * -1;
#X msg 237 200 label (\$1:-\$1);
#X msg 357 200 label (-\$1:\$1);
#X obj 571 77 * 100;
#X obj 571 99 int;
#X obj 571 121 * 0.01;
#X obj 571 47 * 0.5;
#X obj 571 143 moses 0;
#X obj 571 162 * -1;
#X msg 507 200 label (\$1:-\$1);
#X msg 627 200 label (-\$1:\$1);
#X obj 571 25 r \$0-mul3;
#X obj 505 244 s \$0-mul3-rcv;
#X msg 110 142 label *_\$1;
#X connect 0 0 1 0;
#X connect 1 0 2 0;
#X connect 2 0 12 0;
#X connect 3 0 5 0;
#X connect 5 0 6 0;
#X connect 6 0 7 0;
#X connect 7 0 26 0;
#X connect 8 0 11 0;
#X connect 10 0 4 0;
#X connect 10 0 9 0;
#X connect 11 0 0 0;
#X connect 12 0 13 0;
#X connect 12 1 15 0;
#X connect 13 0 14 0;
#X connect 14 0 9 0;
#X connect 15 0 9 0;
#X connect 16 0 17 0;
#X connect 17 0 18 0;
#X connect 18 0 20 0;
#X connect 19 0 16 0;
#X connect 20 0 21 0;
#X connect 20 1 23 0;
#X connect 21 0 22 0;
#X connect 22 0 25 0;
#X connect 23 0 25 0;
#X connect 24 0 19 0;
#X connect 26 0 4 0;
#X restore 321 615 pd gestion_affichage_mul;
#X obj 149 630 hsl 60 12 -360 360 0 0 \$0-mul1 \$0-mul1-rcv *_-360
1 8 0 9 -262144 -1 -1 0 1;
#X obj 240 655 u_rollmenu15 \$0 target 0 \$0-target3;
#X obj 149 644 hsl 60 12 -120 120 0 0 \$0-mul2 \$0-mul2-rcv (-51.86:51.86)
1 8 0 9 -262144 -1 -1 0 1;
#X obj 240 640 u_rollmenu15 \$0 target 0 \$0-target2;
#X obj 149 658 hsl 60 12 -80 80 0 0 \$0-mul3 \$0-mul3-rcv (40:-40)
1 8 0 9 -262144 -1 -1 0 1;
#X text 215 626 ->;
#X text 215 640 ->;
#X text 215 655 ->;
#X text 135 641 x;
#X text 135 654 y;
#X text 107 628 angle;
#X text 119 614 fidObject -> GEM;
#X obj 653 607 text define -k \$0-target_angle;
#A set <none> \; _rotX \; _rotY \; _rotZ \;;
#X obj 240 625 u_rollmenu15 \$0 target_angle 0 \$0-target1;
#X obj 634 315 r \$0-index;
#X obj 565 423 spigot;
#X obj 645 356 t b b;
#X msg 681 377 0;
#X obj 595 378 delay 100;
#X msg 645 405 1;
#X text 1108 152 le chemin est relatif au dossier contenant la fonction
ix_image ou pix_buffer;
#X obj 620 466 spigot;
#X obj 699 422 r \$0-guitab;
#N canvas 0 50 833 500 gestion_fiduciaux 0;
#X obj 44 35 r FID_CLASSES;
#X obj 223 85 r \$0-fidmin;
#X obj 322 95 r \$0-fidmax;
#X obj 6 178 r \$0-carton.add;
#X obj 148 177 r \$0-carton.remove;
#X obj 326 181 r \$0-carton.update;
#X obj 44 57 spigot;
#X obj 221 23 r \$0-busy;
#X obj 326 203 t f f f f;
#X obj 461 234 fid_abs_vanilia-0.4/fid_get x;
#X obj 550 321 fid_abs_vanilia-0.4/fid_get y;
#X obj 32 460 outlet;
#X obj 466 258 - 0.5;
#X obj 466 280 *;
#X obj 466 302 list prepend;
#X obj 343 412 list prepend;
#X obj 343 434 list prepend aftertouch;
#X obj 343 456 list trim;
#X text 550 460 aftertouch \$1 X \$3;
#X obj 523 250 r \$0-mul2;
#X obj 540 280 r \$0-target2;
#X obj 556 348 - 0.5;
#X obj 556 370 *;
#X obj 556 392 list prepend;
#X obj 613 340 r \$0-mul3;
#X obj 630 370 r \$0-target3;
#X obj 229 347 *;
#X obj 229 369 list prepend;
#X obj 286 317 r \$0-mul1;
#X obj 303 347 r \$0-target1;
#X text 553 175 mise à l'echelle;
#X obj 71 128 fid_abs_vanilia-0.4/fid_class \$0-carton 0 6;
#X obj 221 258 fid_abs_vanilia-0.4/fid_get alpha;
#X obj 221 292 / 3.14159;
#X obj 221 314 * 0.5;
#X obj 56 226 fid_abs_vanilia-0.4/fid_get fid;
#X obj 346 501 fid_abs_vanilia-0.4/fid_get fid;
#X obj 336 381 t f;
#X obj 6 200 t f f f;
#X obj 39 272 pack f f;
#X msg 36 366 note \$1 \$2 100;
#X obj 97 303 pack f f;
#X obj 148 199 t f f;
#X obj 135 278 fid_abs_vanilia-0.4/fid_get fid;
#X msg 89 330 note \$1 \$2 0;
#X connect 0 0 6 0;
#X connect 1 0 31 1;
#X connect 2 0 31 2;
#X connect 3 0 38 0;
#X connect 4 0 42 0;
#X connect 5 0 8 0;
#X connect 6 0 31 0;
#X connect 7 0 6 1;
#X connect 8 0 32 0;
#X connect 8 1 10 0;
#X connect 8 2 9 0;
#X connect 8 3 37 0;
#X connect 9 0 12 0;
#X connect 10 0 21 0;
#X connect 12 0 13 0;
#X connect 13 0 14 0;
#X connect 14 0 15 0;
#X connect 15 0 16 0;
#X connect 16 0 17 0;
#X connect 17 0 11 0;
#X connect 19 0 13 1;
#X connect 20 0 14 1;
#X connect 21 0 22 0;
#X connect 22 0 23 0;
#X connect 23 0 15 0;
#X connect 24 0 22 1;
#X connect 25 0 23 1;
#X connect 26 0 27 0;
#X connect 27 0 15 0;
#X connect 28 0 26 1;
#X connect 29 0 27 1;
#X connect 32 0 33 0;
#X connect 33 0 34 0;
#X connect 34 0 26 0;
#X connect 35 0 39 1;
#X connect 37 0 15 1;
#X connect 38 0 8 0;
#X connect 38 1 39 0;
#X connect 38 2 35 0;
#X connect 39 0 40 0;
#X connect 40 0 11 0;
#X connect 41 0 44 0;
#X connect 42 0 41 0;
#X connect 42 1 43 0;
#X connect 43 0 41 1;
#X connect 44 0 11 0;
#X restore 566 141 pd gestion_fiduciaux;
#X obj 505 200 r \$0-carton.add;
#X obj 490 227 print carton.add;
#X obj 485 260 r \$0-carton.remove;
#X obj 470 287 print carton.remove;
#X obj 187 150 bng 15 250 50 0 \$0-update empty update 2 7 0 10 -258113
-1 -1;
#X obj 99 646 bng 15 250 50 0 \$0-update empty update 2 7 0 10 -258113
-1 -1;
#X obj 177 317 vsl 15 50 -0.01 1.01 0 0 \$0-s_min \$0-s_min-rcv empty
0 -9 0 10 -262144 -1 -1 0 1;
#X obj 193 317 vsl 15 50 -0.01 1.01 0 0 \$0-s_max \$0-s_max-rcv empty
0 -9 0 10 -262144 -1 -1 0 1;
#X obj 423 411 r \$0-s_min;
#X msg 423 432 set \$1;
#X obj 423 453 s \$0-s_min-rcv;
#X msg 333 442 set \$1;
#X obj 333 421 r \$0-s_max;
#X obj 333 463 s \$0-s_max-rcv;
#X obj 101 314 ui_vs \$0 scale 0.1 30;
#X msg 934 473 vis 5 1 \, vis 2 1 \, vis 3 1;
#X obj 103 114 ui_vs \$0 fade 0 2000;
#X obj 917 373 clone -s 1 video_carton/image_renderer2 20 \$0;
#X obj 916 340 fid_abs_vanilia-0.4/fid_multiplex 20 1;
#X obj 101 415 ui_vs \$0 X -10 10;
#X obj 142 415 ui_vs \$0 Y -10 10;
#X obj 183 415 ui_vs \$0 Z -10 10;
#X obj 1070 179 list prepend ../../medias/images/collections;
#X obj 306 3 declare -path ../../ressources/core;
#X obj 306 33 declare -path ../../ressources/rj;
#X connect 0 0 1 0;
#X connect 1 0 2 0;
#X connect 5 0 7 0;
#X connect 8 0 9 0;
#X connect 8 0 78 0;
#X connect 16 0 18 0;
#X connect 18 0 17 0;
#X connect 22 0 23 0;
#X connect 23 0 47 0;
#X connect 24 0 25 0;
#X connect 45 0 49 0;
#X connect 47 0 52 0;
#X connect 47 1 63 0;
#X connect 48 0 45 0;
#X connect 49 0 50 0;
#X connect 49 1 47 0;
#X connect 51 0 24 0;
#X connect 52 1 143 0;
#X connect 54 0 53 0;
#X connect 58 0 65 0;
#X connect 59 0 55 0;
#X connect 60 0 82 0;
#X connect 60 0 139 0;
#X connect 62 0 6 0;
#X connect 64 0 51 0;
#X connect 65 0 70 0;
#X connect 66 0 46 0;
#X connect 78 0 57 0;
#X connect 78 0 60 0;
#X connect 78 1 139 0;
#X connect 79 0 112 0;
#X connect 80 0 139 0;
#X connect 81 0 118 0;
#X connect 82 0 83 0;
#X connect 83 0 80 1;
#X connect 83 1 84 0;
#X connect 84 0 86 0;
#X connect 84 1 85 0;
#X connect 85 0 81 1;
#X connect 86 0 81 1;
#X connect 111 0 113 0;
#X connect 112 0 81 0;
#X connect 113 0 115 0;
#X connect 113 1 114 0;
#X connect 114 0 112 1;
#X connect 115 0 116 0;
#X connect 116 0 112 1;
#X connect 118 0 80 0;
#X connect 119 0 118 1;
#X connect 120 0 78 0;
#X connect 121 0 122 0;
#X connect 123 0 124 0;
#X connect 129 0 130 0;
#X connect 130 0 131 0;
#X connect 132 0 134 0;
#X connect 133 0 132 0;
#X connect 136 0 138 0;
#X connect 139 0 138 0;
#X connect 143 0 66 0;
#X coords 0 0 1 1 190 70 1 100 100;
