#N canvas 556 50 624 321 10;
#X obj 19 227 outlet~;
#X text 16 246 Signal outlet;
#X obj 19 121 inlet~;
#X text 17 101 Signal inlet;
#X obj 135 227 outlet~;
#X text 132 246 Signal outlet;
#X obj 246 231 outlet~;
#X text 243 250 Signal outlet;
#X obj 357 231 outlet~;
#X text 354 250 Signal outlet;
#X msg 65 159 20;
#X msg 450 147 20000;
#X text 155 293 Balandino Di Donato © 2013;
#X text 23 16 FILTERING This patch generates four band of the same
signal. The signal will be routed in four way and each signal will
be filtered with a band pass filter builded by a high-pass and low-pass
filter.;
#X obj 548 120 loadbang;
#X obj 18 180 filter, f 12;
#X obj 135 180 filter, f 11;
#X obj 246 180 filter, f 12;
#X obj 357 180 filter, f 13;
#X obj 171 131 r \$1-f1;
#X obj 256 127 r \$1-f2;
#X obj 350 131 r \$1-f3;
#X connect 2 0 15 0;
#X connect 2 0 16 0;
#X connect 2 0 17 0;
#X connect 2 0 18 0;
#X connect 10 0 15 1;
#X connect 11 0 18 2;
#X connect 14 0 10 0;
#X connect 14 0 11 0;
#X connect 15 0 0 0;
#X connect 16 0 4 0;
#X connect 17 0 6 0;
#X connect 18 0 8 0;
#X connect 19 0 16 1;
#X connect 19 0 15 2;
#X connect 20 0 16 2;
#X connect 20 0 17 1;
#X connect 21 0 17 2;
#X connect 21 0 18 1;
