#N canvas 267 164 1088 528 10;
#X declare -path ./rj;
#X declare -path ./utils;
#X obj 69 4 r fromGUI;
#X obj 57 27 list trim;
#X obj 871 55 declare -path ./rj;
#X obj 36 211 unpack f f;
#X obj 141 366 max 0.001;
#X obj 482 171 tgl 15 0 empty empty empty 17 7 0 10 -262144 -1 -1 0
1;
#X msg 502 173 start;
#X msg 502 199 stop;
#X obj 501 238 bng 15 250 50 0 empty empty empty 17 7 0 10 -262144
-1 -1;
#X obj 619 80 g_nbx dur;
#X obj 619 47 g_nbx loopstart;
#X obj 31 432 *;
#X msg 28 527 loopstart \$1 \, dur \$2;
#X obj 502 125 loadbang;
#X obj 141 491 pack f f;
#X obj 149 341 * 1000;
#N canvas 603 111 518 544 gestion_vitesse 0;
#X obj 40 415 send toGUI;
#X msg 248 489 speed \$1;
#X obj 285 452 * -1;
#X obj 304 377 moses 0;
#X obj 351 461 change;
#X msg 344 434 1;
#X msg 393 433 0;
#X msg 348 491 reverse \$1;
#X obj 285 203 f;
#X obj 76 12 r fromGUI;
#X obj 245 519 outlet;
#X obj 91 71 list trim;
#X obj 303 303 * 4;
#X msg 231 142 0.5;
#X obj 307 269 *;
#X obj 305 240 t f f;
#X obj 330 334 max 0.25;
#X obj 43 346 list prepend /speed\$1;
#X obj 70 93 route /speed\$1 /invert\$1 /normal\$1;
#X obj 270 117 loadbang;
#X msg 278 143 0;
#X connect 1 0 10 0;
#X connect 2 0 1 0;
#X connect 3 0 2 0;
#X connect 3 0 5 0;
#X connect 3 1 6 0;
#X connect 3 1 1 0;
#X connect 5 0 4 0;
#X connect 6 0 4 0;
#X connect 7 0 10 0;
#X connect 8 0 15 0;
#X connect 9 0 11 0;
#X connect 11 0 18 0;
#X connect 12 0 16 0;
#X connect 13 0 17 0;
#X connect 14 0 12 0;
#X connect 15 0 14 0;
#X connect 15 1 14 1;
#X connect 16 0 3 0;
#X connect 17 0 0 0;
#X connect 18 0 8 0;
#X connect 18 1 7 0;
#X connect 18 2 13 0;
#X connect 19 0 13 0;
#X connect 19 0 20 0;
#X connect 20 0 7 0;
#X restore 625 259 pd gestion_vitesse;
#N canvas 160 91 1191 540 selectionSample 0;
#X obj 50 31 r fromGUI;
#N canvas 0 50 973 557 loadsample 0;
#X floatatom 252 177 8 0 0 3 dur_in_smps - -, f 8;
#X floatatom 205 144 8 0 0 3 dur_in_ms - -, f 8;
#X symbolatom 107 205 80 0 0 3 table_name - -, f 80;
#X obj 174 107 unpack s f f f;
#X floatatom 269 145 6 0 0 3 samplerate - -, f 6;
#X obj 40 118 list;
#X msg 264 43 sr 44100;
#X msg 337 44 info;
#X obj 40 246 outlet;
#X obj 173 -3 inlet;
#X msg 174 43 open \, info;
#X msg 40 142 table-stereo \$1 \, sr \$4;
#X obj 95 24 route bang;
#X obj 251 244 outlet;
#X obj 174 78 u_samplebank2 /sample\$1;
#X connect 3 0 2 0;
#X connect 3 1 1 0;
#X connect 3 1 13 0;
#X connect 3 2 0 0;
#X connect 3 3 4 0;
#X connect 5 0 11 0;
#X connect 6 0 14 0;
#X connect 7 0 14 0;
#X connect 9 0 12 0;
#X connect 10 0 14 0;
#X connect 11 0 8 0;
#X connect 12 0 10 0;
#X connect 12 1 14 0;
#X connect 14 0 3 0;
#X connect 14 0 5 0;
#X restore 38 255 pd loadsample;
#X obj 130 290 s \$0-sample-duration-ms;
#X obj 118 373 t b;
#X obj 49 53 list trim;
#X obj 38 317 outlet;
#X obj 121 398 delay 300;
#X obj 58 479 s toGUI;
#X obj 122 450 list append /sample\$1-1 refresh;
#X obj 649 93 r filemenu;
#X obj 648 128 list prepend /menu\$1;
#X obj 425 492 s toGUI;
#X obj 45 94 unpack f s;
#X obj 119 155 makefilename ../sounds/%s.wav;
#X obj 119 204 list trim;
#X obj 119 179 list prepend open;
#X obj 49 72 route /menu\$1;
#X obj 219 18 loadbang;
#X obj 214 48 list append 0 \$2;
#X obj 425 426 pack f s;
#X obj 422 380 int;
#X obj 425 403 / 1000;
#X msg 428 448 \$2(\$1s);
#X obj 426 471 list prepend /menuLabel\$1;
#X obj 652 165 s toGUI;
#X obj 172 118 t s s;
#X msg 388 197 table-stereo /sampleExt \, sr 44100;
#X obj 414 86 t b f;
#X obj 403 35 inlet;
#X connect 0 0 4 0;
#X connect 1 0 3 0;
#X connect 1 0 5 0;
#X connect 1 1 2 0;
#X connect 1 1 20 0;
#X connect 3 0 6 0;
#X connect 4 0 16 0;
#X connect 6 0 8 0;
#X connect 8 0 7 0;
#X connect 9 0 10 0;
#X connect 10 0 24 0;
#X connect 12 1 25 0;
#X connect 13 0 15 0;
#X connect 14 0 1 0;
#X connect 15 0 14 0;
#X connect 16 0 12 0;
#X connect 17 0 18 0;
#X connect 18 0 12 0;
#X connect 19 0 22 0;
#X connect 20 0 21 0;
#X connect 21 0 19 0;
#X connect 22 0 23 0;
#X connect 23 0 11 0;
#X connect 25 0 13 0;
#X connect 25 1 19 1;
#X connect 26 0 5 0;
#X connect 27 0 26 0;
#X connect 27 1 2 0;
#X connect 28 0 27 0;
#X restore 582 207 pd selectionSample;
#X obj 863 91 declare -path ./utils;
#X obj 217 41 route range;
#X obj 221 119 unpack f f;
#X obj 189 147 / 44.1;
#X obj 253 148 / 44.1;
#X obj 169 266 -;
#X obj 30 461 +;
#X obj 171 107 t b l;
#X obj 30 261 f;
#X obj 201 232 swap;
#X obj 469 408 outlet~;
#X obj 549 405 outlet~;
#X obj 141 17 route /position\$1 /sample\$1-1;
#X obj 461 283 s_loopsmooth2 sample\$1-1;
#X obj 5 110 list split 2;
#X obj 47 80 route touch list;
#X text 763 125 ARGUMENTS;
#X text 785 154 \$1 : numéro d'instance;
#X text 783 175 \$2 : nom du fichier à charger par défaut;
#X obj 402 16 r \$0-sample-duration-ms;
#X obj 389 126 f;
#X obj 357 145 /;
#X text 368 43 reactualisation zone de selection;
#X obj 163 296 t f b f;
#X obj 55 401 -;
#X obj 249 528 s toGUI;
#X obj 94 277 t b f;
#X obj 383 75 t f f b f;
#X obj 267 80 list append;
#X obj 342 111 t b f;
#X obj 284 224 unpack f f;
#X obj 285 301 *;
#X obj 336 304 *;
#X obj 282 326 pack f f;
#X msg 286 505 list /myLCD-1 clear \, list /myLCD-1 paintrect \$1 0
\$2 1;
#X obj 195 438 pack f f;
#X floatatom 26 488 5 0 0 0 - - -, f 5;
#X obj 193 392 expr $f1/$f3 \; ($f1+$f2)/$f3+0.003;
#X obj 665 359 r looper1_touch;
#X obj 661 396 > 0;
#X obj 382 447 spigot;
#X obj 711 405 select 0;
#X msg 512 451 list /myLCD-1 clear;
#X obj 466 83 s \$1-sample-duration-ms;
#X obj 756 15 inlet ext;
#X connect 0 0 1 0;
#X connect 1 0 30 0;
#X connect 3 0 26 0;
#X connect 3 1 44 0;
#X connect 4 0 14 1;
#X connect 4 0 42 1;
#X connect 4 0 55 1;
#X connect 5 0 31 0;
#X connect 6 0 31 0;
#X connect 7 0 31 0;
#X connect 8 0 31 0;
#X connect 9 0 31 1;
#X connect 10 0 9 0;
#X connect 11 0 24 0;
#X connect 12 0 31 1;
#X connect 13 0 6 0;
#X connect 14 0 12 0;
#X connect 15 0 4 0;
#X connect 16 0 31 1;
#X connect 17 0 31 1;
#X connect 19 0 46 1;
#X connect 19 0 25 0;
#X connect 20 0 21 0;
#X connect 20 1 22 0;
#X connect 21 0 24 1;
#X connect 21 0 27 0;
#X connect 22 0 27 1;
#X connect 23 0 41 0;
#X connect 24 0 14 0;
#X connect 24 0 54 0;
#X connect 24 0 55 0;
#X connect 25 0 26 0;
#X connect 25 1 20 0;
#X connect 26 0 11 0;
#X connect 27 0 23 0;
#X connect 27 1 23 1;
#X connect 30 0 33 0;
#X connect 30 1 19 0;
#X connect 31 0 28 0;
#X connect 31 1 29 0;
#X connect 32 1 3 0;
#X connect 33 0 32 0;
#X connect 33 1 3 0;
#X connect 37 0 45 0;
#X connect 37 0 61 0;
#X connect 38 0 39 1;
#X connect 39 0 50 1;
#X connect 39 0 49 1;
#X connect 41 0 42 0;
#X connect 41 1 15 0;
#X connect 41 2 15 1;
#X connect 42 0 11 1;
#X connect 44 0 42 0;
#X connect 44 1 15 0;
#X connect 45 0 47 0;
#X connect 45 1 38 1;
#X connect 45 2 38 0;
#X connect 45 3 55 2;
#X connect 46 0 48 0;
#X connect 47 0 46 0;
#X connect 47 1 39 0;
#X connect 48 0 49 0;
#X connect 48 1 50 0;
#X connect 49 0 51 0;
#X connect 50 0 51 1;
#X connect 51 0 25 0;
#X connect 51 0 46 1;
#X connect 52 0 43 0;
#X connect 53 0 58 0;
#X connect 55 0 53 0;
#X connect 55 1 53 1;
#X connect 56 0 57 0;
#X connect 56 0 59 0;
#X connect 57 0 58 1;
#X connect 58 0 52 0;
#X connect 59 0 60 0;
#X connect 60 0 43 0;
#X connect 62 0 17 0;
