#N canvas 92 82 1095 495 10;
#X obj 413 177 timer;
#X obj 395 205 -;
#X obj 395 153 t f b;
#X obj 395 227 max;
#X obj 96 259 vline~;
#X msg 320 403 0 0;
#X obj 497 295 loadbang;
#X obj 497 350 s \$0-sr;
#N canvas 0 50 648 332 phase 0;
#X obj 67 148 u_listmap;
#X msg 67 122 \$1 1000;
#X obj 142 147 * 1e+007;
#X obj 42 173 list;
#X obj 48 30 inlet;
#X obj 42 203 outlet;
#X text 175 30 make a large phase-incrementor at samplerate;
#X obj 95 43 r \$0-sr;
#X obj 101 92 * 1;
#X obj 160 55 r \$0-speed;
#X obj 124 68 t b f;
#X connect 0 0 3 1;
#X connect 0 1 2 0;
#X connect 1 0 0 0;
#X connect 2 0 0 1;
#X connect 3 0 5 0;
#X connect 4 0 3 0;
#X connect 7 0 8 0;
#X connect 8 0 1 0;
#X connect 9 0 10 0;
#X connect 10 0 8 0;
#X connect 10 1 8 1;
#X restore 302 375 pd phase;
#X obj 829 28 inlet;
#X obj 827 96 u_dispatch \$0 sr;
#X obj 884 25 u_loader s_loopsmooth-\$1 \$0;
#X obj 644 281 r \$0-sr;
#X msg 651 368 sr \$1;
#X obj 210 245 r \$0-playolap;
#X obj 651 390 s \$0-playolap;
#X obj 327 112 max 10;
#X obj 302 194 f 10;
#X obj 827 117 u_dispatch \$0 dur;
#X obj 326 -2 r \$0-dur;
#X obj 27 353 outlet~;
#X obj 18 24 inlet;
#N canvas 0 50 463 289 startstop 0;
#X obj 39 59 list trim;
#X obj 39 83 route start stop bang;
#X obj 39 144 b;
#X obj 221 148 b;
#X obj 191 99 route 1 0;
#X obj 39 30 inlet;
#X obj 39 170 outlet;
#X obj 221 174 outlet;
#X connect 0 0 1 0;
#X connect 1 0 2 0;
#X connect 1 1 3 0;
#X connect 1 2 2 0;
#X connect 1 3 4 0;
#X connect 2 0 6 0;
#X connect 3 0 7 0;
#X connect 4 0 2 0;
#X connect 4 1 3 0;
#X connect 5 0 0 0;
#X restore 18 50 pd startstop;
#X obj 827 139 u_dispatch \$0 loopstart;
#X obj 827 167 s \$0-playolap;
#N canvas 0 50 543 347 loopstart 0;
#X obj 74 96 unpack 0 0;
#X obj 71 255 +;
#X obj 71 277 pack 0 0;
#X obj 74 56 inlet;
#X obj 71 304 outlet;
#X text 125 32 loop start;
#X obj 92 135 r \$0-loopstart;
#X obj 152 156 r \$0-sr;
#X obj 152 180 * 0.001;
#X obj 92 178 * 44.1;
#X connect 0 0 1 0;
#X connect 0 1 2 1;
#X connect 1 0 2 0;
#X connect 2 0 4 0;
#X connect 3 0 0 0;
#X connect 6 0 9 0;
#X connect 7 0 8 0;
#X connect 8 0 9 1;
#X connect 9 0 1 1;
#X restore 302 439 pd loopstart;
#X obj 405 331 outlet;
#X obj 28 329 *~;
#X obj 27 287 lop~ 5;
#X msg 27 232 1;
#X msg 60 232 0;
#X obj 104 230 r \$0-vline;
#X obj 302 465 s \$0-vline;
#X obj 18 74 s \$0-start;
#X obj 27 152 r \$0-start;
#X obj 60 180 r \$0-stop;
#X obj 99 74 s \$0-stop;
#X msg 96 206 stop;
#X obj 302 313 t b b b b b;
#X text 465 186 The time difference of elapsed time since loop start
and the new duration is \, when we have to restart the loop \, so we
reschedule the delay here. If difference is smaller than 0 \, it means
\, we've already read past the new loop end \, so restart the loop
immediatly (with delay=0);
#N canvas 0 50 650 457 delay 0;
#X obj 233 55 inlet;
#X obj 233 260 outlet;
#X obj 233 201 delay;
#X msg 142 136 stop;
#X obj 62 58 r \$0-start;
#X obj 142 57 r \$0-stop;
#X obj 233 164 spigot;
#X msg 272 135 1;
#X msg 303 136 0;
#X obj 62 83 t b b;
#X obj 142 87 t b b;
#X obj 308 261 outlet;
#X text 350 138 block delays when stopped;
#X text 362 258 signal end of loop;
#X connect 0 0 6 0;
#X connect 2 0 1 0;
#X connect 2 0 11 0;
#X connect 3 0 2 0;
#X connect 4 0 9 0;
#X connect 5 0 10 0;
#X connect 6 0 2 0;
#X connect 7 0 6 1;
#X connect 8 0 6 1;
#X connect 9 0 1 0;
#X connect 9 1 7 0;
#X connect 10 0 3 0;
#X connect 10 1 8 0;
#X restore 302 269 pd delay;
#N canvas 228 198 627 317 LICENSE-BSD 0;
#X text 121 56 This software is copyrighted by Miller Puckette \, Reality
Jockey Ltd. and others. The terms (the "Standard Improved BSD License")
apply to all files associated with the software unless explicitly disclaimed
in individual files.;
#X text 123 148 See the file LICENSE.txt for the full license text.
;
#X restore 674 36 pd LICENSE-BSD;
#X obj 775 335 r RJLIB;
#X obj 775 356 route sf-samplerate;
#X obj 775 378 s \$0-sr;
#X text 771 314 Allow global setting of soundfile samplerate;
#X obj 97 284 s_playolap2 \$1;
#X obj 825 50 u_dispatch \$0 reverse;
#N canvas 298 60 656 569 reverse-mode 0;
#X obj 138 133 +;
#X obj 164 86 * 2;
#X obj 180 201 * 44.1;
#X obj 133 265 f;
#X obj 76 205 select 0 1;
#X obj 238 55 r \$0-loopstart;
#X obj 120 54 r \$0-dur;
#X obj 238 119 r \$0-sr;
#X obj 245 144 / 1000;
#X obj 66 176 r \$0-reverse;
#X obj 183 354 s \$0-playolap;
#X msg 179 318 reverse-offset \$1;
#X msg 88 280 0;
#X obj 203 263 spigot;
#X obj 262 175 t b f;
#X obj 150 108 t b f;
#X obj 417 126 inlet;
#X connect 0 0 2 0;
#X connect 1 0 15 0;
#X connect 2 0 3 1;
#X connect 3 0 11 0;
#X connect 4 0 12 0;
#X connect 4 1 3 0;
#X connect 5 0 1 0;
#X connect 6 0 0 0;
#X connect 7 0 8 0;
#X connect 8 0 14 0;
#X connect 9 0 4 0;
#X connect 9 0 13 1;
#X connect 11 0 10 0;
#X connect 12 0 11 0;
#X connect 13 0 3 0;
#X connect 14 0 2 0;
#X connect 14 1 2 1;
#X connect 15 0 0 0;
#X connect 15 1 0 1;
#X connect 16 0 13 0;
#X restore 419 259 pd reverse-mode;
#X obj 718 272 r \$0-speed;
#X msg 497 321 44100;
#X obj 827 73 u_dispatch \$0 speed;
#X obj 112 353 outlet~;
#X obj 113 329 *~;
#X obj 356 75 / 1;
#X obj 406 46 t b f;
#X obj 429 18 r \$0-speed;
#X msg 704 360 speed \$1;
#X connect 0 0 1 1;
#X connect 1 0 3 0;
#X connect 2 0 1 0;
#X connect 2 1 0 1;
#X connect 3 0 40 0;
#X connect 4 0 46 0;
#X connect 5 0 25 0;
#X connect 6 0 50 0;
#X connect 8 0 25 0;
#X connect 9 0 47 0;
#X connect 10 0 18 0;
#X connect 12 0 13 0;
#X connect 13 0 15 0;
#X connect 14 0 46 1;
#X connect 16 0 2 0;
#X connect 16 0 17 1;
#X connect 17 0 40 0;
#X connect 18 0 23 0;
#X connect 19 0 54 0;
#X connect 21 0 22 0;
#X connect 22 0 33 0;
#X connect 22 1 36 0;
#X connect 23 0 24 0;
#X connect 25 0 32 0;
#X connect 27 0 20 0;
#X connect 28 0 27 0;
#X connect 28 0 53 0;
#X connect 29 0 28 0;
#X connect 30 0 28 0;
#X connect 31 0 4 0;
#X connect 34 0 29 0;
#X connect 35 0 30 0;
#X connect 35 0 37 0;
#X connect 37 0 4 0;
#X connect 38 0 8 0;
#X connect 38 1 5 0;
#X connect 38 3 17 0;
#X connect 38 4 0 0;
#X connect 40 0 38 0;
#X connect 40 1 26 0;
#X connect 40 1 48 0;
#X connect 42 0 43 0;
#X connect 43 0 44 0;
#X connect 46 0 27 1;
#X connect 46 1 53 1;
#X connect 47 0 51 0;
#X connect 49 0 57 0;
#X connect 50 0 7 0;
#X connect 51 0 10 0;
#X connect 53 0 52 0;
#X connect 54 0 16 0;
#X connect 55 0 54 0;
#X connect 55 1 54 1;
#X connect 56 0 55 0;
#X connect 57 0 15 0;
