#N canvas 0 0 450 300 10;
#X obj 247 152 u_dispatch \$1 \$2;
#X obj 250 126 inlet;
#X obj 252 195 outlet;
#X obj 126 144 list trim;
#X obj 116 107 list prepend set;
#X obj 83 74 r \$1-\$2;
#X obj 95 219 s \$1-\$2-rcv;
#X connect 0 0 2 0;
#X connect 1 0 0 0;
#X connect 3 0 6 0;
#X connect 4 0 3 0;
#X connect 5 0 4 0;
