#N canvas 358 -18 857 699 10;
#X obj 78 65 receive fromNetwork;
#X obj 75 226 send toGUI;
#X obj 83 145 symbol;
#X msg 77 174 list /catsPanel image \$1.jpg;
#X obj 471 86 gemwin;
#X obj 481 144 gemhead;
#X msg 357 171 open \$1.jpg;
#X obj 488 206 pix_texture;
#X obj 490 241 rectangle 5.6666 4;
#X msg 463 40 destroy;
#X obj 481 170 pix_image default.jpg;
#X obj 79 96 list trim;
#X obj 282 59 r REMOTE;
#X obj 80 121 route focus;
#N canvas 673 50 743 544 populating 0;
#X obj 216 101 inlet;
#X obj 185 120 route paintrect;
#X msg 78 87 paintrect 0.5 0.5 0.6 0.6 1 1 0 1;
#X obj 157 160 unpack f f f f f f f;
#X obj 82 384 color;
#X obj 390 289 pack f f f;
#X obj 419 192 r \$0-aspectRatio;
#X obj 245 306 *;
#X obj 80 345 gemhead;
#X obj 116 318 t b f;
#X obj 115 437 translateXYZ;
#X obj 147 486 rectangle;
#X obj 21 144 print route paintrect;
#X obj 151 205 expr ($f1+$f3)/2 \; ($f2+$f4)/2 \; $f3-$f1 \; $f4-$f2
;
#X obj 121 275 - 0.5;
#X obj 126 298 *;
#X obj 179 277 - 0.5;
#X obj 245 328 * 0.5;
#X obj 291 331 * 0.5;
#X obj 180 317 * -8;
#X obj 291 309 * -8;
#X connect 0 0 1 0;
#X connect 1 0 3 0;
#X connect 1 0 12 0;
#X connect 3 0 13 0;
#X connect 3 1 13 1;
#X connect 3 2 13 2;
#X connect 3 3 13 3;
#X connect 3 4 5 0;
#X connect 3 5 5 1;
#X connect 3 6 5 2;
#X connect 4 0 10 0;
#X connect 5 0 4 1;
#X connect 6 0 7 1;
#X connect 6 0 15 1;
#X connect 7 0 17 0;
#X connect 8 0 4 0;
#X connect 9 0 8 0;
#X connect 9 1 10 1;
#X connect 10 0 11 0;
#X connect 13 0 14 0;
#X connect 13 1 16 0;
#X connect 13 2 7 0;
#X connect 13 3 20 0;
#X connect 14 0 15 0;
#X connect 15 0 9 0;
#X connect 16 0 19 0;
#X connect 17 0 11 1;
#X connect 18 0 11 2;
#X connect 19 0 10 2;
#X connect 20 0 18 0;
#X restore 261 407 pd populating;
#X msg 197 367 paintrect 0.1 0.1 0.8 0.2 1 0 0;
#X obj 230 208 hsl 128 15 0.1 0.8 0 0 empty empty empty -2 -8 0 10
-262144 -1 -1 0 1;
#X obj 302 231 t f b b;
#X obj 186 238 t f f;
#X obj 254 286 + 0.1;
#X obj 83 302 pack f f;
#X obj 100 493 list split 1;
#X obj 98 520 text search controls;
#X msg 239 490 bal 65;
#X obj 123 565 moses 0;
#X obj 160 595 text get controls;
#X obj 157 615 list append;
#X msg 147 439 vol \$1;
#X msg 205 447 gain \$1;
#X obj 11 430 vsl 15 128 0 100 0 0 empty empty empty 0 -9 0 10 -262144
-1 -1 6200 1;
#X obj 31 430 vsl 15 128 0 127 0 0 empty empty empty 0 -9 0 10 -262144
-1 -1 0 1;
#X obj 157 637 list split 1;
#X obj 197 658 list trim;
#X obj 610 420 route vslider;
#X obj 500 587 t l l;
#X obj 688 130 gemhead;
#X obj 687 160 color 1 0 0;
#X obj 685 206 rectangle 1 0.4;
#X obj 695 88 bng 15 250 50 0 empty empty empty 17 7 0 10 -262144 -1
-1;
#X msg 553 10 dimen 640 480 \, buffer 1 \, create;
#X obj 261 429;
#X obj 554 31 route dimen;
#X obj 570 54 unpack f f;
#X obj 575 74 /;
#X obj 579 127 s \$0-aspectRatio;
#X obj 207 554 text define -k controls;
#A set vol vslider 0 0 0.1 0.4 0 100 \; wet vslider 0 0.7 0.1 0.3 0
1 \; del vslider 0.2 0.7 0.1 0.3 100 3000 \;;
#X obj 437 44 bng 15 250 50 0 empty empty empty 17 7 0 10 -262144 -1
-1;
#X msg 17 333 paintrect \$1 0.1 \$2 0.2 1 1 0 1;
#X obj 577 99 * 8;
#X obj 388 209 t b a;
#X obj 404 239 delay 100;
#X msg 512 649 paintrect \$1 \$2 \$3 \$4 1 1 1;
#X msg 472 674 paintrect \$1 \$5 \$3 \$4 0.4 0.4 0.4;
#X obj 597 538 expr $f1 \; $f2 \; $f1+$f3 \; $f2+$f4 \; $f5+$f2 \;
, f 22;
#X obj 597 447 expr $f1 \; $f2 \; $f3 \; $f4 \; (1-($f7-$f5)/($f6-$f5))*$f4
\; $f7;
#X obj 597 614 pack f f f f f f, f 28;
#X connect 0 0 11 0;
#X connect 2 0 3 0;
#X connect 2 0 6 0;
#X connect 3 0 1 0;
#X connect 5 0 10 0;
#X connect 6 0 49 0;
#X connect 7 0 8 0;
#X connect 9 0 4 0;
#X connect 10 0 7 0;
#X connect 11 0 13 0;
#X connect 12 0 11 0;
#X connect 13 0 2 0;
#X connect 13 1 21 0;
#X connect 15 0 14 0;
#X connect 16 0 17 0;
#X connect 17 0 18 0;
#X connect 17 1 15 0;
#X connect 18 0 20 0;
#X connect 18 1 19 0;
#X connect 19 0 20 1;
#X connect 20 0 47 0;
#X connect 21 0 22 0;
#X connect 21 1 26 1;
#X connect 22 0 24 0;
#X connect 23 0 21 0;
#X connect 24 1 25 0;
#X connect 25 0 26 0;
#X connect 26 0 31 0;
#X connect 27 0 21 0;
#X connect 28 0 21 0;
#X connect 29 0 27 0;
#X connect 30 0 28 0;
#X connect 31 1 32 0;
#X connect 32 0 33 0;
#X connect 33 0 54 0;
#X connect 34 0 52 0;
#X connect 34 1 51 0;
#X connect 35 0 36 0;
#X connect 36 0 37 0;
#X connect 38 0 35 0;
#X connect 39 0 4 0;
#X connect 39 0 41 0;
#X connect 41 0 42 0;
#X connect 42 0 43 0;
#X connect 42 1 43 1;
#X connect 43 0 48 0;
#X connect 46 0 4 0;
#X connect 47 0 14 0;
#X connect 48 0 44 0;
#X connect 49 0 50 0;
#X connect 49 1 10 0;
#X connect 50 0 5 0;
#X connect 51 0 14 0;
#X connect 52 0 14 0;
#X connect 53 0 55 0;
#X connect 53 1 55 1;
#X connect 53 2 55 2;
#X connect 53 3 55 3;
#X connect 53 4 55 4;
#X connect 54 0 53 0;
#X connect 54 1 53 1;
#X connect 54 2 53 2;
#X connect 54 3 53 3;
#X connect 54 4 53 4;
#X connect 54 5 55 5;
#X connect 55 0 34 0;
