#N canvas 516 131 450 300 10;
#X obj 62 15 inlet;
#X obj 62 259 outlet;
#X obj 66 89 iemlib/splitfilename .;
#X obj 204 118 select wav;
#X obj 88 181 list append;
#X msg 104 227 symbol \$1.\$2;
#X msg 197 146 wav;
#X msg 263 218 \$1.wav;
#X msg 210 203 wav;
#X obj 226 155 select symbol;
#X msg 309 50 symbol;
#X obj 296 21 loadbang;
#X obj 62 37 symbol;
#X connect 0 0 12 0;
#X connect 2 0 4 0;
#X connect 2 1 3 0;
#X connect 3 0 6 0;
#X connect 3 1 9 0;
#X connect 4 0 5 0;
#X connect 5 0 1 0;
#X connect 6 0 4 1;
#X connect 7 0 4 1;
#X connect 8 0 4 1;
#X connect 9 0 8 0;
#X connect 9 1 7 0;
#X connect 10 0 9 1;
#X connect 11 0 10 0;
#X connect 12 0 2 0;
