#N canvas 0 107 1382 715 12;
#X obj 1162 540 list trim;
#X text 913 201 no de controle;
#X obj 853 332 route 0, f 10;
#X obj 855 357 route 0;
#X obj 908 383 list prepend 0;
#X obj 853 270 speed_lim;
#X obj 1175 11 r ctl-assign3.GLOBAL;
#X obj 1173 34 route clear;
#X obj 852 245 route -1;
#X msg 994 419 midi-ctl \$1;
#X obj 901 449 list prepend;
#X obj 852 218 spigot;
#X msg 907 184 0;
#X obj 832 60 inlet;
#X msg 897 149 1;
#X msg 1255 414 remote \$1;
#X obj 1162 443 list prepend;
#X obj 952 4 r ctl-assign3-\$1;
#X obj 1165 621 s;
#N canvas 173 50 1301 641 gui_stuff 0;
#X msg 410 253 list \$1 \$2;
#X obj 87 382 s \$0-ccnum-rcv;
#X obj 104 308 r \$0-ccnum;
#X obj 225 385 f;
#X obj 105 332 int;
#X obj 224 258 r \$0-min;
#X msg 91 356 set \$1;
#X msg 72 451 label \$1;
#X obj 314 258 r \$0-max;
#X obj 211 289 t b f;
#X obj 301 289 t b f;
#X obj 25 173 symbol;
#X msg 218 585 range 1 100 \, log;
#X obj 204 493 s \$0-update;
#X obj 227 412 pack f f f s;
#X obj 170 530 s MIDI_MAPPING_REFRESH;
#X msg 464 373 symbol lin;
#X obj 488 301 loadbang;
#X msg 724 360 set 0 \, range -1e+030 1e+030;
#X obj 687 396 s \$0-min-rcv;
#X obj 797 396 s \$0-max-rcv;
#X obj 723 336 r \$0-clear;
#X obj 172 145 s \$0-module-name;
#X obj 25 129 r \$0-refresh;
#X text 115 93 <-indispensable?(cf focus);
#N canvas 678 99 620 392 focus 0;
#X obj 33 37 r FOCUS;
#X msg 82 155 symbol \$1-\$3;
#X obj 82 125 list;
#X obj 82 100 spigot;
#X obj 123 52 t b;
#X msg 127 74 1;
#X msg 216 54 0;
#X obj 82 182 select symbol;
#X msg 155 329 color 10 -1;
#X obj 331 213 r \$0-focus;
#X msg 331 237 1;
#X obj 331 283 change;
#X obj 240 368 select 1 0;
#X msg 269 226 0;
#X msg 247 254 1;
#X obj 315 445 t b;
#X obj 213 25 r \$0-clear;
#X obj 184 118 r \$0-module-name;
#X msg 356 352 setFocus \$1;
#X obj 356 411 s;
#X obj 377 380 r \$0-module-name;
#X text 320 155 slider caché sous la zone grise, f 16;
#X obj 153 295 r \$0-clear;
#X obj 317 468 s \$0-refresh;
#X text 355 443 <-indispensable?;
#X obj 123 26 inlet;
#X obj 42 374 s \$0-module_cnv-rcv;
#X msg 42 266 color 14 -1;
#X connect 0 0 3 0;
#X connect 1 0 7 0;
#X connect 2 0 1 0;
#X connect 3 0 2 0;
#X connect 4 0 5 0;
#X connect 5 0 3 1;
#X connect 6 0 3 1;
#X connect 7 0 27 0;
#X connect 7 0 14 0;
#X connect 7 1 8 0;
#X connect 7 1 13 0;
#X connect 8 0 26 0;
#X connect 9 0 10 0;
#X connect 10 0 11 0;
#X connect 11 0 12 0;
#X connect 11 0 15 0;
#X connect 11 0 18 0;
#X connect 12 0 27 0;
#X connect 12 1 8 0;
#X connect 13 0 11 0;
#X connect 14 0 11 0;
#X connect 15 0 23 0;
#X connect 16 0 6 0;
#X connect 17 0 7 1;
#X connect 18 0 19 0;
#X connect 20 0 19 1;
#X connect 22 0 8 0;
#X connect 25 0 4 0;
#X connect 27 0 26 0;
#X restore 1077 143 pd focus;
#N canvas 774 68 450 300 affichage_ccnum 0;
#X obj 92 151 s \$0-ccnum_cnv-rcv;
#X msg 147 124 label cc:\$1;
#X msg 65 122 label;
#X obj 71 94 r \$0-clear;
#X obj 171 44 r \$0-ccnum;
#X obj 171 102 int;
#X obj 270 46 r \$0-ccnum-rcv;
#X obj 278 82 route set;
#X connect 1 0 0 0;
#X connect 2 0 0 0;
#X connect 3 0 2 0;
#X connect 4 0 5 0;
#X connect 5 0 1 0;
#X connect 6 0 7 0;
#X connect 7 0 1 0;
#X restore 1081 175 pd affichage_ccnum;
#X msg 15 452 label;
#X obj 21 424 r \$0-clear;
#X obj 426 -4 inlet;
#X msg 330 156 set \$1;
#X obj 331 180 s \$0-ccnum-rcv;
#X obj 428 22 t l b;
#X obj 495 337 r \$0-clear;
#X obj 356 50 list split 3;
#X obj 173 121 unpack s s f;
#N canvas 571 50 932 480 affichage_min/max/mapping 0;
#X obj 287 79 r \$0-min;
#X obj 440 79 r \$0-max;
#X msg 289 181 label min:\$1;
#X obj 289 209 s \$0-min_cnv-rcv;
#X msg 439 181 label max:\$1;
#X obj 439 209 s \$0-max_cnv-rcv;
#X msg 355 42 label;
#X obj 361 14 r \$0-clear;
#X obj 78 33 inlet;
#X obj 79 131 route 0;
#X obj 79 162 route 0;
#X msg 147 200 0 \$1 \$2;
#X msg 221 288 label max:\$1;
#X obj 21 324 s \$0-min_cnv-rcv;
#X obj 21 349 s \$0-max_cnv-rcv;
#X msg 83 213 label;
#X obj 21 376 s \$0-mapping_cnv-rcv;
#X obj 196 233 unpack f f s;
#X msg 191 268 label min:\$1;
#X msg 242 314 label \$1;
#X obj 385 356 s \$0-min-rcv;
#X obj 385 386 s \$0-max-rcv;
#X msg 379 315 set \$1;
#X obj 287 156 f;
#X obj 438 156 f;
#X obj 631 206 s \$0-mapping_cnv-rcv;
#X msg 649 183 label \$1;
#X obj 287 102 t f b b;
#X obj 440 104 t b f b;
#X obj 630 152 symbol lin;
#X obj 743 35 r \$0-clear;
#X msg 743 60 symbol lin;
#X msg 455 315 set \$1;
#X obj 326 263 s \$0-mapping;
#X obj 736 123 r \$0-mapping;
#X obj 225 401 outlet;
#X obj 285 401 outlet;
#X obj 165 401 outlet;
#X connect 0 0 27 0;
#X connect 1 0 28 0;
#X connect 2 0 3 0;
#X connect 4 0 5 0;
#X connect 6 0 3 0;
#X connect 6 0 5 0;
#X connect 6 0 25 0;
#X connect 7 0 6 0;
#X connect 8 0 9 0;
#X connect 9 0 10 0;
#X connect 9 1 17 0;
#X connect 10 0 15 0;
#X connect 10 1 11 0;
#X connect 11 0 17 0;
#X connect 12 0 14 0;
#X connect 15 0 13 0;
#X connect 15 0 14 0;
#X connect 15 0 16 0;
#X connect 17 0 18 0;
#X connect 17 0 22 0;
#X connect 17 0 23 1;
#X connect 17 0 37 0;
#X connect 17 1 12 0;
#X connect 17 1 32 0;
#X connect 17 1 24 1;
#X connect 17 1 35 0;
#X connect 17 2 19 0;
#X connect 17 2 29 1;
#X connect 17 2 33 0;
#X connect 17 2 36 0;
#X connect 18 0 13 0;
#X connect 19 0 16 0;
#X connect 22 0 20 0;
#X connect 23 0 2 0;
#X connect 24 0 4 0;
#X connect 26 0 25 0;
#X connect 27 0 23 0;
#X connect 27 1 24 0;
#X connect 27 2 29 0;
#X connect 28 0 23 0;
#X connect 28 1 24 0;
#X connect 28 2 29 0;
#X connect 29 0 26 0;
#X connect 30 0 31 0;
#X connect 31 0 29 1;
#X connect 32 0 21 0;
#X connect 34 0 29 1;
#X restore 447 203 pd affichage_min/max/mapping;
#X obj 346 79 t l l;
#N canvas 0 50 531 659 get_name-pos/get_range 0;
#X obj 37 37 inlet;
#X obj 54 265 outlet;
#X obj 32 175 s;
#X obj 42 70 t b s;
#X obj 38 136 list trim;
#X obj 37 109 list append getNamePos \$0-rcv;
#X obj 51 226 r \$0-rcv;
#X obj 328 45 inlet param;
#X obj 323 128 list append;
#X obj 216 178 list append \$0-params;
#X obj 218 153 list prepend getParams;
#X obj 247 436 s \$0-min-rcv;
#X obj 357 436 s \$0-max-rcv;
#X obj 200 238 r \$0-params;
#X obj 199 261 list split 1;
#X obj 245 284 route 0;
#X obj 245 310 route 0;
#X msg 341 367 0 \$1 \$2;
#X msg 200 406 range \$1 \$2 \, \$3;
#X msg 341 398 range \$1 \$2 \, \$3;
#X text 327 236 range;
#X obj 371 284 r \$0-clear;
#X msg 383 320 range -1e+037 1e+037;
#X connect 0 0 3 0;
#X connect 3 0 5 0;
#X connect 3 0 8 0;
#X connect 3 1 2 1;
#X connect 4 0 2 0;
#X connect 5 0 4 0;
#X connect 6 0 1 0;
#X connect 7 0 8 1;
#X connect 8 0 10 0;
#X connect 9 0 4 0;
#X connect 10 0 9 0;
#X connect 13 0 14 0;
#X connect 14 1 15 0;
#X connect 15 0 16 0;
#X connect 15 1 19 0;
#X connect 15 1 18 0;
#X connect 16 1 17 0;
#X connect 17 0 19 0;
#X connect 17 0 18 0;
#X connect 18 0 11 0;
#X connect 19 0 12 0;
#X connect 21 0 22 0;
#X connect 22 0 11 0;
#X connect 22 0 12 0;
#X restore 30 197 pd get_name-pos/get_range;
#N canvas 0 50 450 300 affichage 0;
#X obj 61 21 inlet;
#X msg 55 80 label \$1;
#X msg 147 87 label;
#X obj 146 61 r \$0-clear;
#X obj 52 114 s \$0-module_cnv-rcv;
#X connect 0 0 1 0;
#X connect 1 0 4 0;
#X connect 2 0 4 0;
#X connect 3 0 2 0;
#X restore 26 225 pd affichage <module>(x:y);
#X obj 16 484 s \$0-param_cnv-rcv;
#X obj 203 464 list prepend <module> <param>;
#X obj 452 144 route bang;
#N canvas 0 50 733 422 bouton_delete 0;
#X obj 239 37 inlet;
#X obj 291 117 s \$0-cancel_cnv-rcv;
#X msg 270 75 label X;
#X msg 115 92 label;
#X obj 121 64 r \$0-clear;
#X obj 215 184 r \$0-deleteBtn;
#X obj 267 282 outlet;
#X obj 402 270 spigot;
#X obj 443 222 t b;
#X msg 447 244 1;
#X msg 536 224 0;
#X obj 533 195 r \$0-clear;
#X connect 0 0 2 0;
#X connect 0 0 8 0;
#X connect 2 0 1 0;
#X connect 3 0 1 0;
#X connect 4 0 3 0;
#X connect 5 0 7 0;
#X connect 7 0 6 0;
#X connect 8 0 9 0;
#X connect 9 0 7 1;
#X connect 10 0 7 1;
#X connect 11 0 10 0;
#X restore 664 104 pd bouton_delete;
#X msg 687 250 -1;
#X obj 664 132 t b b;
#X obj 606 159 s \$0-clear;
#X obj 446 403 r \$0-mapping;
#X obj 854 89 r \$0-clear;
#X obj 864 181 s \$0-mute-rcv;
#X obj 968 237 r \$0-mute;
#X obj 984 361 s \$0-mute-rcv;
#X msg 988 326 color 10 10 -1 \, label OFF;
#X msg 1055 292 color 16 16 -1 \, label ON;
#X msg 856 136 label \, set 1 \, color 10 10 -1;
#X msg 753 150 0;
#X obj 973 262 select 1 0;
#X connect 0 0 41 1;
#X connect 2 0 4 0;
#X connect 2 0 3 0;
#X connect 3 0 14 0;
#X connect 4 0 6 0;
#X connect 5 0 9 0;
#X connect 6 0 1 0;
#X connect 7 0 40 0;
#X connect 8 0 10 0;
#X connect 9 0 3 0;
#X connect 9 1 14 1;
#X connect 10 0 3 0;
#X connect 10 1 14 2;
#X connect 11 0 38 0;
#X connect 14 0 41 0;
#X connect 16 0 14 3;
#X connect 17 0 16 0;
#X connect 18 0 19 0;
#X connect 18 0 20 0;
#X connect 21 0 18 0;
#X connect 23 0 11 0;
#X connect 27 0 40 0;
#X connect 28 0 27 0;
#X connect 29 0 32 0;
#X connect 30 0 31 0;
#X connect 32 0 34 0;
#X connect 32 1 25 0;
#X connect 32 1 43 0;
#X connect 32 1 55 0;
#X connect 33 0 16 0;
#X connect 34 0 37 0;
#X connect 34 1 42 0;
#X connect 35 0 11 0;
#X connect 35 0 22 0;
#X connect 35 1 7 0;
#X connect 35 1 38 1;
#X connect 35 2 30 0;
#X connect 35 2 3 1;
#X connect 36 0 14 1;
#X connect 36 1 14 2;
#X connect 36 2 14 3;
#X connect 37 0 35 0;
#X connect 37 1 0 0;
#X connect 38 0 39 0;
#X connect 41 0 13 0;
#X connect 41 0 15 0;
#X connect 42 1 36 0;
#X connect 43 0 45 0;
#X connect 44 0 14 0;
#X connect 45 0 46 0;
#X connect 45 1 44 0;
#X connect 47 0 14 3;
#X connect 48 0 54 0;
#X connect 50 0 56 0;
#X connect 52 0 51 0;
#X connect 53 0 51 0;
#X connect 54 0 49 0;
#X connect 55 0 49 0;
#X connect 56 0 52 0;
#X connect 56 1 53 0;
#X restore 1018 58 pd gui_stuff;
#X obj 195 152 bng 15 250 50 0 empty empty empty 17 7 0 10 -262144
-1 -1;
#X obj 152 100 hsl 100 20 0 100 0 0 \$0-focus empty empty -2 -8 0 10
-262144 -1 -1 0 0;
#X obj 140 100 cnv 15 150 20 empty \$0-module_cnv-rcv empty 2 10 0
14 -233017 -1 0;
#X obj 457 101 nbx 5 18 1e+028 1e+030 1 0 \$0-min \$0-min-rcv empty
0 -8 0 14 -262144 -1 -1 1e+030 256;
#X obj 557 101 nbx 5 18 1e+028 1e+030 1 0 \$0-max \$0-max-rcv empty
0 -8 0 14 -262144 -1 -1 1e+030 256;
#X obj 754 186 outlet;
#X obj 540 100 cnv 15 100 20 empty \$0-max_cnv-rcv empty 2 10 0 14
-232576 -66577 0;
#X obj 951 26 t l l;
#X obj 951 55 t b l;
#X obj 1008 149 unpack s s f f f s;
#X obj 438 100 cnv 15 100 20 empty \$0-min_cnv-rcv empty 2 10 0 14
-262130 -66577 0;
#X obj 287 100 cnv 15 100 20 empty \$0-param_cnv-rcv empty 2 10 0 14
-261682 -66577 0;
#X obj 424 193 vsl 15 128 0 127 0 0 empty empty empty 0 -9 0 10 -262144
-1 -1 0 1;
#X msg 432 349 \; CTLIN \$1 1 1;
#X obj 855 419 list split 1;
#X obj 849 26 r \$0-update;
#X floatatom 1057 655 5 0 0 0 - - -, f 5;
#X obj 1173 58 s \$0-clear;
#X obj 1010 254 r \$0-clear;
#X obj 913 221 r \$0-ccnum;
#N canvas 0 50 513 299 rj-state-saving 0;
#X obj 92 53 r RJ_SCENE_SAVE;
#X obj 87 166 list append;
#X obj 82 110 spigot;
#X obj 53 141 t b;
#X obj 91 224 s RJ_SCENE;
#X obj 114 196 list prepend ctl-assign;
#X obj 126 83 > -1;
#X msg 177 124 0;
#X obj 185 80 r \$0-clear;
#X obj 123 21 r \$0-ccnum;
#X obj 322 124 r ctl-assign3-\$1;
#X obj 219 126 r \$0-update;
#X obj 277 29 inlet;
#X connect 0 0 2 0;
#X connect 1 0 5 0;
#X connect 2 0 3 0;
#X connect 3 0 1 0;
#X connect 5 0 4 0;
#X connect 6 0 2 1;
#X connect 7 0 2 1;
#X connect 8 0 7 0;
#X connect 9 0 6 0;
#X connect 10 0 1 1;
#X connect 11 0 1 1;
#X connect 12 0 6 0;
#X restore 1065 192 pd rj-state-saving;
#N canvas 0 50 706 446 mapping 0;
#X obj 160 47 inlet;
#X obj 165 306 outlet;
#X text 419 51 mode mapping;
#N canvas 0 50 458 308 rh_scalelog 0;
#X obj 20 155 exp;
#X obj 20 107 *;
#X obj 20 130 +;
#X obj 98 87 log;
#X obj 194 84 log;
#X obj 123 123 t b f;
#X obj 123 145 -;
#X obj 20 183 outlet;
#X obj 20 19 inlet;
#X obj 98 23 inlet;
#X obj 194 24 inlet;
#X connect 0 0 7 0;
#X connect 1 0 2 0;
#X connect 2 0 0 0;
#X connect 3 0 2 1;
#X connect 3 0 5 0;
#X connect 4 0 6 0;
#X connect 5 0 6 0;
#X connect 5 1 6 1;
#X connect 6 0 1 1;
#X connect 8 0 1 0;
#X connect 9 0 3 0;
#X connect 10 0 4 0;
#X restore 290 258 pd rh_scalelog;
#X msg 160 87 \$3 \$4 \$1 \$2;
#X obj 69 161 expr $f1/127*($f3-$f2)+$f2;
#X obj 290 199 unpack f f f;
#X obj 290 229 / 127;
#X obj 160 110 route lin log, f 33;
#X text 477 77 $f3=lin mode;
#X text 469 96 $f3=log mode;
#X connect 0 0 4 0;
#X connect 3 0 1 0;
#X connect 4 0 8 0;
#X connect 5 0 1 0;
#X connect 6 0 7 0;
#X connect 6 1 3 1;
#X connect 6 2 3 2;
#X connect 7 0 3 0;
#X connect 8 0 5 0;
#X connect 8 1 6 0;
#X restore 1162 416 pd mapping;
#X obj 1095 280 pack f f s;
#X msg 1010 280 0 0 lin;
#X obj 853 308 list prepend 0 0 lin;
#X obj 1178 575 r \$0-module-name;
#X floatatom 393 102 5 -1 127 0 - #0-ccnum-rcv #0-ccnum, f 5;
#X obj 389 100 cnv 15 50 20 empty \$0-ccnum_cnv-rcv empty 2 10 0 14
-204786 -66577 0;
#X obj 641 100 cnv 15 60 20 empty \$0-mapping_cnv-rcv empty 2 10 0
14 -261234 -66577 0;
#X obj 100 100 bng 20 250 50 0 \$0-deleteBtn empty X 5 10 0 18 -258113
-1 -1;
#X obj 100 100 cnv 20 20 20 empty \$0-cancel_cnv-rcv empty 5 10 0 18
-261234 -258113 0;
#X obj 954 174 r \$0-clear;
#X msg 797 129 0;
#X obj 1261 156 bng 15 250 50 0 empty empty empty 17 7 0 10 -262144
-1 -1;
#X obj 121 100 tgl 20 0 \$0-mute \$0-mute-rcv empty 2 10 0 10 -233017
-233017 -1 1 1;
#X obj 865 89 r \$0-mute;
#X obj 860 141 == 0;
#X obj 594 181 r \$0-mute-rcv;
#X obj 587 219 route set;
#X obj 752 158 spigot;
#X obj 836 180 spigot 1;
#X connect 0 0 18 0;
#X connect 2 0 3 0;
#X connect 2 1 41 0;
#X connect 3 0 34 0;
#X connect 3 1 4 0;
#X connect 4 0 41 0;
#X connect 5 0 44 0;
#X connect 6 0 7 0;
#X connect 7 0 37 0;
#X connect 7 0 52 0;
#X connect 8 0 5 0;
#X connect 9 0 10 1;
#X connect 10 0 0 0;
#X connect 11 0 8 0;
#X connect 12 0 11 1;
#X connect 13 0 59 0;
#X connect 13 0 60 0;
#X connect 14 0 11 1;
#X connect 14 0 59 1;
#X connect 15 0 16 1;
#X connect 16 0 0 0;
#X connect 17 0 27 0;
#X connect 27 0 28 0;
#X connect 27 1 19 0;
#X connect 28 0 14 0;
#X connect 28 1 29 0;
#X connect 29 1 9 0;
#X connect 29 1 15 0;
#X connect 29 2 8 1;
#X connect 29 2 40 0;
#X connect 29 3 42 0;
#X connect 29 4 42 1;
#X connect 29 5 42 2;
#X connect 32 0 33 0;
#X connect 34 1 10 0;
#X connect 35 0 28 0;
#X connect 38 0 43 0;
#X connect 39 0 8 1;
#X connect 41 0 16 0;
#X connect 42 0 44 1;
#X connect 43 0 44 1;
#X connect 44 0 2 0;
#X connect 45 0 18 1;
#X connect 51 0 12 0;
#X connect 52 0 59 1;
#X connect 53 0 37 0;
#X connect 55 0 56 0;
#X connect 56 0 60 1;
#X connect 57 0 58 0;
#X connect 58 0 56 0;
#X connect 59 0 25 0;
#X connect 60 0 11 0;
#X coords 0 -1 1 1 600 20 2 100 100;
