#N canvas 153 50 1198 630 10;
#X obj 105 2 inlet;
#X obj 104 25 unpack f f;
#X obj 174 124 int;
#X obj 85 117 int;
#X obj 88 580 pack f f;
#X obj 110 643 outlet;
#X obj 105 101 + 0.5;
#X obj 174 103 + 0.5;
#X obj 56 549 line;
#X obj 105 60 t f f;
#X obj 156 549 line;
#X msg 26 451 \$1 200;
#X msg 199 464 \$1 200;
#X obj 105 81 / \$1;
#X obj 174 81 / \$2;
#X obj 27 411 * \$1;
#X obj 192 418 * \$2;
#X text 723 23 arguments : \$1 largeur de frille \, \$2 hauteur de
grille \; \, \$3 nb de colonnes \, \$4 nombre de lignes;
#X obj 297 717 outlet;
#X msg 172 199 0;
#X obj 172 60 t f f b;
#X msg 230 197 1;
#X msg 251 499 1;
#X obj 292 534 select 0 1;
#X obj 332 591 list append 0 0;
#X obj 75 160 moses \$3;
#X obj 195 167 moses \$4;
#X msg 158 493 set \$1;
#X msg 63 497 set \$1;
#X obj 88 231 spigot 1;
#N canvas 0 50 582 467 ff_change 0;
#X obj 37 37 inlet;
#X obj 77 73 unpack f f;
#X obj 205 154 change -1;
#X obj 21 206 change -1;
#X obj 156 184 t b f;
#X obj 104 274 pack f f;
#X obj 93 417 outlet new;
#X obj 218 376 outlet previous;
#X obj 68 183 route 0 1;
#X msg 136 159 1;
#X msg 199 92 0;
#X obj 75 104 list prepend 0;
#X obj 111 303 t l b l b;
#X obj 201 348 list append -1 -1;
#X obj 42 137 t l b;
#X obj 374 -18 inlet;
#X obj 359 83 unpack f f;
#X msg 344 185 set \$1;
#X msg 404 145 set \$1;
#X obj 484 78 t l l;
#X connect 0 0 1 0;
#X connect 1 0 11 0;
#X connect 1 1 2 0;
#X connect 2 0 4 0;
#X connect 3 0 5 0;
#X connect 4 0 9 0;
#X connect 4 1 5 1;
#X connect 5 0 12 0;
#X connect 8 0 3 0;
#X connect 8 1 5 0;
#X connect 9 0 11 1;
#X connect 10 0 11 1;
#X connect 11 0 14 0;
#X connect 12 0 6 0;
#X connect 12 2 13 1;
#X connect 12 3 13 0;
#X connect 13 0 7 0;
#X connect 14 0 8 0;
#X connect 14 1 10 0;
#X connect 15 0 19 0;
#X connect 16 0 17 0;
#X connect 16 1 18 0;
#X connect 17 0 3 0;
#X connect 18 0 2 0;
#X connect 19 0 16 0;
#X connect 19 1 13 1;
#X restore 341 644 pd ff_change;
#X msg 268 564 -1 -1;
#X obj 531 697 outlet status;
#X msg 607 641 0;
#X msg 525 646 1;
#X obj 340 677 t l l l b;
#X obj 342 622 t l l;
#X obj 522 673 change;
#X obj 632 321 r INSERT;
#X obj 641 471 expr ($f1==$f3)&&($f2<=$f4);
#X obj 759 445 unpack f f;
#X obj 645 525 select 1;
#X obj 342 272 +;
#X msg 630 550 1;
#X obj 802 565 route -1;
#X obj 852 599 list prepend \$0;
#X obj 620 352 route \$0;
#X obj 638 381 list split 1;
#X obj 851 627 s INSERT;
#X obj 428 494 pack f f;
#X obj 314 408 f;
#X obj 23 342 t f b f f;
#X obj 310 437 pack f f;
#X obj 792 655 route -1;
#X obj 842 689 list prepend \$0;
#X obj 857 718 s REMOVE;
#X obj 979 445 unpack f f;
#X obj 865 525 select 1;
#X obj 840 352 route \$0;
#X obj 858 381 list split 1;
#X obj 852 321 r REMOVE;
#X obj 861 471 expr ($f1==$f3)&&($f2<$f4);
#X msg 902 556 -1;
#X obj 317 376 t b f f;
#X obj 318 306 pipe f 0;
#X obj 446 414 t l l l l;
#X obj 473 549;
#X obj 322 333 spigot 1;
#X obj 391 360 t f b b;
#X msg 440 343 0;
#X obj 477 376 delay 200;
#X msg 500 321 1;
#X obj 585 9 inlet;
#X obj 574 35 unpack f f;
#X obj 644 134 int;
#X obj 555 127 int;
#X obj 575 111 + 0.5;
#X obj 644 113 + 0.5;
#X obj 575 70 t f f;
#X obj 575 91 / \$1;
#X obj 644 91 / \$2;
#X obj 555 268 max 0;
#X obj 670 271 max 0;
#X msg 642 209 0;
#X obj 642 70 t f f b;
#X msg 700 207 1;
#X obj 545 170 moses \$3;
#X obj 665 177 moses \$4;
#X obj 557 300 pack f f;
#X obj 558 241 spigot 1;
#X msg 777 197 -1 -1;
#X obj 574 354 t l b;
#X obj 693 677 list append;
#X obj 770 613 t b l;
#X obj 85 258 max \$5;
#X obj 200 261 max \$6;
#X connect 0 0 1 0;
#X connect 1 0 9 0;
#X connect 1 1 20 0;
#X connect 2 0 26 0;
#X connect 3 0 25 0;
#X connect 4 0 5 0;
#X connect 6 0 3 0;
#X connect 7 0 2 0;
#X connect 8 0 4 0;
#X connect 9 0 13 0;
#X connect 9 1 28 0;
#X connect 10 0 4 1;
#X connect 11 0 8 0;
#X connect 12 0 10 0;
#X connect 13 0 6 0;
#X connect 14 0 7 0;
#X connect 15 0 11 0;
#X connect 16 0 12 0;
#X connect 19 0 23 0;
#X connect 19 0 29 1;
#X connect 20 0 14 0;
#X connect 20 1 27 0;
#X connect 20 2 21 0;
#X connect 21 0 29 1;
#X connect 22 0 23 0;
#X connect 23 0 31 0;
#X connect 23 0 33 0;
#X connect 23 1 24 0;
#X connect 24 0 36 0;
#X connect 25 0 29 0;
#X connect 25 1 19 0;
#X connect 26 0 95 0;
#X connect 26 1 19 0;
#X connect 27 0 10 0;
#X connect 28 0 8 0;
#X connect 29 0 94 0;
#X connect 30 0 35 0;
#X connect 30 1 92 1;
#X connect 31 0 36 0;
#X connect 33 0 37 0;
#X connect 34 0 37 0;
#X connect 35 0 93 0;
#X connect 35 1 18 0;
#X connect 35 2 40 0;
#X connect 35 2 56 0;
#X connect 35 3 34 0;
#X connect 36 0 30 0;
#X connect 36 1 40 0;
#X connect 36 1 56 0;
#X connect 37 0 32 0;
#X connect 38 0 46 0;
#X connect 39 0 41 0;
#X connect 40 0 39 2;
#X connect 40 1 39 3;
#X connect 41 0 43 0;
#X connect 42 0 64 0;
#X connect 43 0 42 0;
#X connect 44 1 45 0;
#X connect 45 0 48 0;
#X connect 46 1 47 0;
#X connect 47 1 39 0;
#X connect 49 0 24 1;
#X connect 50 0 52 0;
#X connect 51 0 15 0;
#X connect 51 1 22 0;
#X connect 51 2 49 0;
#X connect 51 3 50 1;
#X connect 52 0 65 0;
#X connect 53 1 54 0;
#X connect 54 0 55 0;
#X connect 56 0 61 2;
#X connect 56 1 61 3;
#X connect 57 0 62 0;
#X connect 58 1 59 0;
#X connect 59 1 61 0;
#X connect 60 0 58 0;
#X connect 61 0 57 0;
#X connect 62 0 42 0;
#X connect 63 0 15 0;
#X connect 63 0 50 0;
#X connect 63 1 16 0;
#X connect 63 1 52 1;
#X connect 63 2 42 1;
#X connect 64 0 67 0;
#X connect 65 0 18 0;
#X connect 65 1 30 1;
#X connect 65 2 40 0;
#X connect 65 3 56 0;
#X connect 67 0 68 0;
#X connect 68 0 63 0;
#X connect 68 1 70 0;
#X connect 68 2 69 0;
#X connect 69 0 67 1;
#X connect 70 0 71 0;
#X connect 71 0 67 1;
#X connect 72 0 73 0;
#X connect 73 0 78 0;
#X connect 73 1 84 0;
#X connect 74 0 87 0;
#X connect 75 0 86 0;
#X connect 76 0 75 0;
#X connect 77 0 74 0;
#X connect 78 0 79 0;
#X connect 79 0 76 0;
#X connect 80 0 77 0;
#X connect 81 0 88 0;
#X connect 82 0 88 1;
#X connect 83 0 89 1;
#X connect 84 0 80 0;
#X connect 84 2 85 0;
#X connect 85 0 89 1;
#X connect 86 0 89 0;
#X connect 86 1 83 0;
#X connect 86 1 90 0;
#X connect 87 0 82 0;
#X connect 87 1 83 0;
#X connect 87 1 90 0;
#X connect 88 0 91 0;
#X connect 89 0 81 0;
#X connect 90 0 65 0;
#X connect 91 0 65 0;
#X connect 91 1 34 0;
#X connect 92 0 53 0;
#X connect 93 0 92 0;
#X connect 93 1 44 0;
#X connect 94 0 51 0;
#X connect 95 0 16 0;
#X connect 95 0 42 1;
#X connect 95 0 49 1;
