#N canvas 13 50 1011 709 12;
#X obj 55 3 nbx 4 12 -0 -1 0 0 \$0-coarse_snd \$0-coarse_rcv empty
0 -6 0 10 -262144 -1 -1 -1 256;
#X obj 2 3 nbx 5 12 -0 -10 0 0 \$0-fine_snd \$0-fine_rcv empty 0 -6
0 10 -262144 -1 -1 -10 256;
#X obj 646 27 inlet;
#X obj 473 605 outlet;
#X obj 619 603 outlet;
#X obj 383 605 outlet;
#X obj 284 605 outlet;
#X obj 448 508 - 1;
#X obj 0 4 vsl 100 8 0 0 0 0 empty \$0-menubackground_rcv empty 12
6 0 8 -233017 -233017 -1 0 0;
#X obj 0 4 vsl 100 8 0 0 0 0 empty \$0-menuover_rcv empty 12 6 0 8
-241291 -241291 -1 0 0;
#X obj 0 4 vsl 100 8 0 0 0 0 empty \$0-menuafter_rcv empty 12 6 0 8
-233017 -233017 -1 0 0;
#X obj 0 2 cnv 10 100 12 \$0-titlebar_snd \$0-titlebar_rcv <select>
2 5 0 8 -195568 -1 0;
#N canvas 0 50 1011 709 init 0;
#X text 90 417 top item;
#X obj 27 455 s \$0-topitem;
#X floatatom 36 419 5 0 0 0 - - -, f 5;
#X floatatom 507 473 5 0 0 0 - - -, f 5;
#X text 560 475 font_size;
#X obj 498 505 s \$0-fontsize;
#X msg 38 397 0;
#X floatatom 208 456 5 0 0 0 - - -, f 5;
#X text 260 458 col_width;
#X obj 199 488 s \$0-colwidth;
#X obj 131 25 loadbang;
#X obj 9 3 inlet;
#X text 597 92 reglages par defaut;
#X obj 554 349 s \$0-titlebar_rcv;
#X msg 582 312 label <select>;
#X obj 119 58 route default col_width max_rows font font_size bang
;
#X obj 468 124 t b b b;
#X msg 481 320 11;
#X msg 501 226 col_width 100 \, max_rows 6 \, font_size 11;
#X text 373 268 max rows;
#X floatatom 319 269 5 0 0 0 - - -, f 5;
#X obj 310 301 s \$0-maxrows;
#X connect 2 0 1 0;
#X connect 3 0 5 0;
#X connect 6 0 2 0;
#X connect 7 0 9 0;
#X connect 10 0 15 0;
#X connect 11 0 15 0;
#X connect 14 0 13 0;
#X connect 15 0 18 0;
#X connect 15 0 6 0;
#X connect 15 1 7 0;
#X connect 15 2 20 0;
#X connect 15 4 17 0;
#X connect 15 5 16 0;
#X connect 16 0 18 0;
#X connect 16 1 6 0;
#X connect 16 2 14 0;
#X connect 17 0 3 0;
#X connect 18 0 15 0;
#X connect 20 0 21 0;
#X restore 724 124 pd init;
#X obj 778 93 bng 15 250 50 0 empty empty reset 0 -6 0 8 -262144 -1
-1;
#X text 695 -3 DROP-DOWN-MENU - Ver 0.39.2;
#X obj 422 343 change;
#N canvas 0 50 1011 709 gestion_zone_sensible_souris 0;
#X obj 97 55 * 10;
#X msg 98 91 set \$1;
#X obj 101 165 * 0.1;
#X msg 122 241 set \$1;
#X msg 193 240 0;
#X obj 73 335 * -1;
#X obj 100 110 s \$0-fine_rcv;
#X obj 102 143 r \$0-fine_snd;
#X obj 131 311 s \$0-coarse_rcv;
#X obj 69 29 r \$0-coarse_snd;
#X obj 104 186 int;
#X obj 400 383 r \$0-maxrows;
#X obj 307 299 r \$0-topitem;
#X obj 248 407 -;
#X obj 249 445 moses;
#X obj 337 531 +;
#X obj 382 615 s \$0-topitem;
#X obj 299 347 t f f f;
#X obj 240 542 +;
#X obj 255 578 max 0;
#X msg 62 570 1;
#X obj 478 520 f;
#X obj 355 486 -;
#X msg 232 627 show;
#X obj 304 649 s \$0-status;
#X obj 46 622 s \$0-cursor;
#X obj 155 536 - 1;
#X obj 176 493 moses 1;
#X obj 45 490 t b f b;
#X obj 365 420 t b f b;
#X connect 0 0 1 0;
#X connect 1 0 6 0;
#X connect 2 0 10 0;
#X connect 3 0 8 0;
#X connect 4 0 8 0;
#X connect 5 0 13 0;
#X connect 7 0 2 0;
#X connect 9 0 5 0;
#X connect 9 0 0 0;
#X connect 10 0 3 0;
#X connect 10 0 5 0;
#X connect 11 0 14 1;
#X connect 11 0 21 1;
#X connect 11 0 22 1;
#X connect 12 0 17 0;
#X connect 13 0 14 0;
#X connect 14 0 27 0;
#X connect 14 1 29 0;
#X connect 15 0 16 0;
#X connect 17 0 13 1;
#X connect 17 1 15 1;
#X connect 17 2 18 1;
#X connect 18 0 19 0;
#X connect 19 0 16 0;
#X connect 20 0 25 0;
#X connect 21 0 25 0;
#X connect 22 0 15 0;
#X connect 23 0 24 0;
#X connect 26 0 18 0;
#X connect 27 0 28 0;
#X connect 27 1 25 0;
#X connect 28 0 23 0;
#X connect 28 1 26 0;
#X connect 28 2 20 0;
#X connect 29 0 23 0;
#X connect 29 1 22 0;
#X connect 29 2 21 0;
#X restore 16 387 pd gestion_zone_sensible_souris;
#N canvas 0 50 869 348 list 0;
#X obj 205 60 inlet;
#X obj 311 268 outlet;
#X obj 169 178 list prepend;
#X obj 337 178 list append;
#X obj 312 233 list;
#X obj 207 94 route append prepend clear;
#X obj 333 129 t b;
#X obj 489 191 list split 1;
#X obj 533 226 t a b;
#X obj 560 262 + 1;
#X obj 519 262 f 1;
#X msg 464 130 0;
#X obj 514 300 outlet;
#X text 603 297 nb of items;
#X connect 0 0 5 0;
#X connect 2 0 4 0;
#X connect 3 0 4 0;
#X connect 4 0 2 1;
#X connect 4 0 3 1;
#X connect 4 0 1 0;
#X connect 5 0 2 0;
#X connect 5 0 7 0;
#X connect 5 1 3 0;
#X connect 5 1 7 0;
#X connect 5 2 6 0;
#X connect 6 0 4 0;
#X connect 6 0 11 0;
#X connect 6 0 7 0;
#X connect 7 1 8 0;
#X connect 8 0 7 0;
#X connect 8 1 10 0;
#X connect 9 0 10 1;
#X connect 10 0 9 0;
#X connect 10 0 12 0;
#X connect 11 0 10 0;
#X restore 702 206 pd list;
#X msg 717 167 clear;
#X msg 769 165 append;
#N canvas 173 50 855 586 affichage_des_elements_du_menu 0;
#X obj 365 69 inlet;
#X obj 212 205 list;
#N canvas 0 50 865 615 extract_items_from_list 0;
#X msg 442 185 0 \$1;
#X msg 441 213 1 \$1;
#X msg 441 239 2 \$1;
#X msg 440 264 3 \$1;
#X msg 485 185 4 \$1;
#X msg 485 212 5 \$1;
#X msg 487 241 6 \$1;
#X msg 485 265 7 \$1;
#X msg 531 186 8 \$1;
#X msg 530 214 9 \$1;
#X msg 531 240 10 \$1;
#X msg 529 265 11 \$1;
#X msg 585 186 12 \$1;
#X msg 585 213 13 \$1;
#X msg 587 242 14 \$1;
#X msg 584 266 15 \$1;
#X obj 90 293 unpack f s;
#X msg 641 186 16 \$1;
#X msg 640 214 17 \$1;
#X msg 640 240 18 \$1;
#X msg 639 265 19 \$1;
#X msg 695 185 20 \$1;
#X msg 696 212 21 \$1;
#X msg 696 238 22 \$1;
#X msg 695 264 23 \$1;
#X msg 750 185 24 \$1;
#X msg 750 213 25 \$1;
#X msg 751 239 26 \$1;
#X msg 749 264 27 \$1;
#X msg 802 186 28 \$1;
#X msg 802 213 29 \$1;
#X msg 804 242 30 \$1;
#X msg 801 266 31 \$1;
#X msg 855 187 32 \$1;
#X msg 852 215 33 \$1;
#X msg 856 241 34 \$1;
#X msg 854 266 35 \$1;
#X msg 909 188 36 \$1;
#X msg 909 215 37 \$1;
#X msg 911 244 38 \$1;
#X msg 907 268 39 \$1;
#X obj 473 104 unpack s s s s s s s s s s s s s s s s s s s s s s s
s s s s s s s s s s s s s s s s s;
#X obj 179 55 inlet;
#X obj 90 338 makefilename \$0-item%d;
#X obj 91 392 pack s s;
#X msg 88 436 \; \$1 label \$2;
#X connect 0 0 16 0;
#X connect 1 0 16 0;
#X connect 2 0 16 0;
#X connect 3 0 16 0;
#X connect 4 0 16 0;
#X connect 5 0 16 0;
#X connect 6 0 16 0;
#X connect 7 0 16 0;
#X connect 8 0 16 0;
#X connect 9 0 16 0;
#X connect 10 0 16 0;
#X connect 11 0 16 0;
#X connect 12 0 16 0;
#X connect 13 0 16 0;
#X connect 14 0 16 0;
#X connect 15 0 16 0;
#X connect 16 0 43 0;
#X connect 16 1 44 1;
#X connect 17 0 16 0;
#X connect 18 0 16 0;
#X connect 19 0 16 0;
#X connect 20 0 16 0;
#X connect 21 0 16 0;
#X connect 22 0 16 0;
#X connect 23 0 16 0;
#X connect 24 0 16 0;
#X connect 25 0 16 0;
#X connect 26 0 16 0;
#X connect 27 0 16 0;
#X connect 28 0 16 0;
#X connect 29 0 16 0;
#X connect 30 0 16 0;
#X connect 31 0 16 0;
#X connect 32 0 16 0;
#X connect 33 0 16 0;
#X connect 34 0 16 0;
#X connect 35 0 16 0;
#X connect 36 0 16 0;
#X connect 37 0 16 0;
#X connect 38 0 16 0;
#X connect 39 0 16 0;
#X connect 40 0 16 0;
#X connect 41 0 0 0;
#X connect 41 1 1 0;
#X connect 41 2 2 0;
#X connect 41 3 3 0;
#X connect 41 4 4 0;
#X connect 41 5 5 0;
#X connect 41 6 6 0;
#X connect 41 7 7 0;
#X connect 41 8 8 0;
#X connect 41 9 9 0;
#X connect 41 10 10 0;
#X connect 41 11 11 0;
#X connect 41 12 12 0;
#X connect 41 13 13 0;
#X connect 41 14 14 0;
#X connect 41 15 15 0;
#X connect 41 16 17 0;
#X connect 41 17 18 0;
#X connect 41 18 19 0;
#X connect 41 19 20 0;
#X connect 41 20 21 0;
#X connect 41 21 22 0;
#X connect 41 22 23 0;
#X connect 41 23 24 0;
#X connect 41 24 25 0;
#X connect 41 25 26 0;
#X connect 41 26 27 0;
#X connect 41 27 28 0;
#X connect 41 28 29 0;
#X connect 41 29 30 0;
#X connect 41 30 31 0;
#X connect 41 31 32 0;
#X connect 41 32 33 0;
#X connect 41 33 34 0;
#X connect 41 34 35 0;
#X connect 41 35 36 0;
#X connect 41 36 37 0;
#X connect 41 37 38 0;
#X connect 41 38 39 0;
#X connect 41 39 40 0;
#X connect 42 0 41 0;
#X connect 43 0 44 0;
#X connect 44 0 45 0;
#X restore 148 412 pd extract_items_from_list;
#X obj 130 111 route show hide;
#X obj 129 143 t b;
#N canvas 0 50 466 316 hide_items 0;
#X obj 51 52 inlet;
#X obj 139 183 makefilename \$0-item%d;
#X msg 80 112 0 \, 1 \, 2 \, 3 \, 4 \, 5 \, 6 \, 7 \, 8 \, 9 \, 10
\, 11 \, 12 \, 13 \, 14 \, 15 \, 16 \, 17 \, 18 \, 19 \, 20 \, 21 \,
22 \, 23 \, 24 \, 25 \, 26 \, 27 \, 28 \, 29 \, 30 \, 31 \, 32 \, 33
\, 34 \, 35 \, 36 \, 37 \, 38 \, 39;
#X msg 170 230 \; \$1 label;
#X connect 0 0 2 0;
#X connect 1 0 3 0;
#X connect 2 0 1 0;
#X restore 187 140 pd hide_items;
#X obj 423 249 r \$0-maxrows;
#X obj 269 307 list split 20;
#X obj 237 246 list split 0;
#X obj 463 99 r \$0-topitem;
#X obj 53 75 inlet;
#X msg 410 320 0;
#X obj 463 430 s \$0-scrollenable;
#X msg 327 352 1;
#X obj 442 378 change;
#X connect 0 0 1 1;
#X connect 1 0 8 0;
#X connect 3 0 4 0;
#X connect 3 1 5 0;
#X connect 4 0 1 0;
#X connect 6 0 7 1;
#X connect 7 0 2 0;
#X connect 7 0 13 0;
#X connect 7 2 2 0;
#X connect 7 2 11 0;
#X connect 8 1 7 0;
#X connect 9 0 8 1;
#X connect 10 0 3 0;
#X connect 11 0 14 0;
#X connect 13 0 14 0;
#X connect 14 0 12 0;
#X restore 332 251 pd affichage_des_elements_du_menu;
#X obj 0 5 cnv 1 1 1 empty \$0-item0 empty 4 18 1 8 -195568 -1 0;
#X obj 0 5 cnv 1 1 1 empty \$0-item1 empty 4 29 1 8 -195568 -1 0;
#X obj 0 5 cnv 1 1 1 empty \$0-item2 empty 4 40 1 8 -195568 -1 0;
#X obj 0 5 cnv 1 1 1 empty \$0-item3 empty 4 51 1 8 -195568 -1 0;
#X obj 0 5 cnv 1 1 1 empty \$0-item4 empty 4 62 1 8 -195568 -1 0;
#X obj 0 5 cnv 1 1 1 empty \$0-item5 empty 4 73 1 8 -195568 -1 0;
#X obj 0 5 cnv 1 1 1 empty \$0-item6 empty 4 84 1 8 -195568 -1 0;
#X obj 0 5 cnv 1 1 1 empty \$0-item7 empty 4 95 1 8 -195568 -1 0;
#X obj 0 5 cnv 1 1 1 empty \$0-item8 empty 4 106 1 8 -195568 -1 0;
#X obj 0 5 cnv 1 1 1 empty \$0-item9 empty 4 117 1 8 -195568 -1 0;
#X obj 0 5 cnv 1 1 1 empty \$0-item10 empty 4 128 1 8 -195568 -1 0
;
#X obj 0 5 cnv 1 1 1 empty \$0-item11 empty 4 139 1 8 -195568 -1 0
;
#X obj 0 5 cnv 1 1 1 empty \$0-item12 empty 4 150 1 8 -195568 -1 0
;
#X obj 0 5 cnv 1 1 1 empty \$0-item13 empty 4 161 1 8 -195568 -1 0
;
#X obj 0 5 cnv 1 1 1 empty \$0-item14 empty 4 172 1 8 -195568 -1 0
;
#X obj 0 5 cnv 1 1 1 empty \$0-item15 empty 4 183 1 8 -195568 -1 0
;
#X obj 0 5 cnv 1 1 1 empty \$0-item16 empty 4 194 1 8 -195568 -1 0
;
#X obj 0 5 cnv 1 1 1 empty \$0-item17 empty 4 205 1 8 -195568 -1 0
;
#X obj 0 5 cnv 1 1 1 empty \$0-item18 empty 4 216 1 8 -195568 -1 0
;
#X obj 0 5 cnv 1 1 1 empty \$0-item19 empty 4 227 1 8 -195568 -1 0
;
#X obj 0 5 cnv 1 1 1 empty \$0-item20 empty 4 238 1 8 -195568 -1 0
;
#X obj 0 5 cnv 1 1 1 empty \$0-item21 empty 4 249 1 8 -195568 -1 0
;
#X obj 0 5 cnv 1 1 1 empty \$0-item22 empty 4 260 1 8 -195568 -1 0
;
#X obj 0 5 cnv 1 1 1 empty \$0-item23 empty 4 271 1 8 -195568 -1 0
;
#X obj 0 5 cnv 1 1 1 empty \$0-item24 empty 4 282 1 8 -195568 -1 0
;
#X obj 0 5 cnv 1 1 1 empty \$0-item25 empty 4 293 1 8 -195568 -1 0
;
#X obj 0 5 cnv 1 1 1 empty \$0-item26 empty 4 304 1 8 -195568 -1 0
;
#X obj 0 5 cnv 1 1 1 empty \$0-item27 empty 4 315 1 8 -195568 -1 0
;
#X obj 0 5 cnv 1 1 1 empty \$0-item28 empty 4 326 1 8 -195568 -1 0
;
#X obj 0 5 cnv 1 1 1 empty \$0-item29 empty 4 337 1 8 -195568 -1 0
;
#X obj 0 5 cnv 1 1 1 empty \$0-item30 empty 4 348 1 8 -195568 -1 0
;
#X obj 0 5 cnv 1 1 1 empty \$0-item31 empty 4 359 1 8 -195568 -1 0
;
#X obj 0 5 cnv 1 1 1 empty \$0-item32 empty 4 370 1 8 -195568 -1 0
;
#X obj 0 5 cnv 1 1 1 empty \$0-item33 empty 4 381 1 8 -195568 -1 0
;
#X obj 0 5 cnv 1 1 1 empty \$0-item34 empty 4 392 1 8 -195568 -1 0
;
#X obj 0 5 cnv 1 1 1 empty \$0-item35 empty 4 403 1 8 -195568 -1 0
;
#X obj 0 5 cnv 1 1 1 empty \$0-item36 empty 4 414 1 8 -195568 -1 0
;
#X obj 0 5 cnv 1 1 1 empty \$0-item37 empty 4 425 1 8 -195568 -1 0
;
#X obj 0 5 cnv 1 1 1 empty \$0-item38 empty 4 436 1 8 -195568 -1 0
;
#X obj 0 5 cnv 1 1 1 empty \$0-item39 empty 4 447 1 8 -195568 -1 0
;
#X obj 0 5 cnv 1 1 1 empty \$0-item40 empty 4 458 1 8 -195568 -1 0
;
#X msg 758 54 max_rows 6;
#X obj 421 369 t f f;
#X obj 423 316 r \$0-cursor;
#X obj 333 222 r \$0-status;
#X obj 317 518 r \$0-cursor;
#N canvas 0 50 790 634 gestion_fond_popup 0;
#X obj 26 0 r \$0-maxrows;
#X msg 73 200 size \$2 \$1;
#X obj 74 124 f;
#X obj 91 165 pack f f;
#X obj 146 137 r \$0-colwidth;
#X obj 28 295 s \$0-menubackground_rcv;
#X obj 52 44 *;
#X obj 138 -2 r \$0-fontsize;
#X msg 199 201 size \$2 \$1;
#X obj 202 230 s \$0-menuafter_rcv;
#X obj 142 255 s \$0-menubackground_rcv;
#X obj 225 281 s \$0-menuover_rcv;
#X obj 191 171 pack 8 f;
#X obj 51 71 + 1;
#X obj 34 22 + 1;
#X obj 281 42 r \$0-status;
#X obj 277 73 route show hide;
#X obj 275 110 t b;
#X obj 339 115 t b;
#X connect 0 0 14 0;
#X connect 1 0 5 0;
#X connect 2 0 3 0;
#X connect 3 0 1 0;
#X connect 4 0 3 1;
#X connect 4 0 12 1;
#X connect 6 0 13 0;
#X connect 7 0 6 1;
#X connect 8 0 9 0;
#X connect 8 0 11 0;
#X connect 8 0 10 0;
#X connect 12 0 8 0;
#X connect 13 0 2 1;
#X connect 14 0 6 0;
#X connect 15 0 16 0;
#X connect 16 0 17 0;
#X connect 16 1 18 0;
#X connect 17 0 2 0;
#X connect 18 0 12 0;
#X restore 20 359 pd gestion_fond_popup;
#N canvas 0 50 574 352 gestion_selection_deroulante 0;
#X obj 232 94 r \$0-fontsize;
#X obj 145 168 * 10;
#X obj 220 168 * 10;
#X obj 372 109 r \$0-colwidth;
#X msg 367 181 size \$2 \$1;
#X obj 371 156 pack f f;
#X msg 130 232 size \$2 \$1;
#X obj 119 207 pack f f;
#X obj 35 139 r \$0-colwidth;
#X obj 164 122 + 1;
#X obj 123 277 s \$0-menuafter_rcv;
#X obj 363 226 s \$0-menuover_rcv;
#X floatatom 253 215 5 0 0 0 - - -, f 5;
#X obj 140 68 r \$0-cursor;
#X connect 0 0 1 1;
#X connect 0 0 2 1;
#X connect 1 0 7 0;
#X connect 2 0 5 0;
#X connect 2 0 12 0;
#X connect 3 0 5 1;
#X connect 4 0 11 0;
#X connect 5 0 4 0;
#X connect 6 0 10 0;
#X connect 7 0 6 0;
#X connect 8 0 7 1;
#X connect 9 0 2 0;
#X connect 13 0 1 0;
#X connect 13 0 9 0;
#X restore 19 335 pd gestion_selection_deroulante;
#N canvas 0 50 498 348 gestion_barre_de_titre 0;
#X obj 54 261 s \$0-titlebar_rcv;
#X obj 129 106 r \$0-colwidth;
#X msg 129 137 vis_size \$1 12;
#X obj 45 25 inlet;
#X msg 49 68 label \$1;
#X connect 1 0 2 0;
#X connect 2 0 0 0;
#X connect 3 0 4 0;
#X connect 4 0 0 0;
#X restore 683 561 pd gestion_barre_de_titre;
#N canvas 86 55 728 505 extraction_element_courant 0;
#X obj 277 6 inlet;
#X obj 108 465 outlet;
#X obj 65 209 list;
#X obj 65 243 list split;
#X obj 102 272 list split 1;
#X obj 119 43 r \$0-topitem;
#X obj 65 4 inlet;
#X obj 100 93 + 1;
#X obj 119 68 - 1;
#X obj 151 5 inlet;
#X obj 151 84 t b f;
#X obj 186 180 - 1;
#X obj 334 456 outlet;
#X obj 256 45 unpack f f;
#X obj 65 56 t b f b;
#X obj 256 85 unpack f f;
#X obj 218 309 pack s f;
#X msg 200 359 \$2 \$1;
#X obj 194 391 route 1 0;
#X obj 167 432 symbol;
#X obj 257 432 symbol;
#X connect 0 0 2 1;
#X connect 2 0 3 0;
#X connect 3 1 4 0;
#X connect 4 0 16 0;
#X connect 5 0 8 0;
#X connect 6 0 15 0;
#X connect 7 0 3 1;
#X connect 8 0 7 1;
#X connect 9 0 13 0;
#X connect 10 0 2 0;
#X connect 10 1 11 0;
#X connect 11 0 3 1;
#X connect 13 0 10 0;
#X connect 13 1 16 1;
#X connect 14 0 2 0;
#X connect 14 1 7 0;
#X connect 15 0 14 0;
#X connect 15 1 16 1;
#X connect 16 0 17 0;
#X connect 17 0 18 0;
#X connect 18 0 19 0;
#X connect 18 1 20 0;
#X connect 19 0 1 0;
#X connect 20 0 12 0;
#X restore 589 501 pd extraction_element_courant;
#N canvas 0 50 570 420 automation 0;
#X obj 92 -122 inlet;
#X obj 64 153 outlet;
#X obj 267 -108 inlet;
#X obj 138 -7 max 0;
#X obj 136 -32 min 0;
#X obj 94 48 + 1;
#X obj 84 -90 route float set;
#X obj 98 -59 t f b;
#X obj 232 -59 t f b;
#X msg 276 19 1;
#X msg 337 29 0;
#X obj 123 121 pack f f;
#X connect 0 0 6 0;
#X connect 2 0 4 1;
#X connect 3 0 5 0;
#X connect 4 0 3 0;
#X connect 5 0 11 0;
#X connect 6 0 7 0;
#X connect 6 1 8 0;
#X connect 7 0 4 0;
#X connect 7 1 9 0;
#X connect 8 0 4 0;
#X connect 8 1 10 0;
#X connect 9 0 11 1;
#X connect 10 0 11 1;
#X connect 11 0 1 0;
#X restore 648 258 pd automation;
#N canvas 0 50 478 328 gestion_flag_show 0;
#X msg 197 208 show;
#X obj 61 75 t b;
#X obj 192 151 change;
#X msg 98 108 1;
#X msg 188 123 0;
#X obj 47 43 r \$0-cursor;
#X obj 166 233 s \$0-status;
#X obj 195 179 select 1;
#X obj 226 66 r \$0-status;
#X obj 222 92 route hide;
#X connect 0 0 6 0;
#X connect 1 0 3 0;
#X connect 2 0 7 0;
#X connect 3 0 2 0;
#X connect 4 0 2 0;
#X connect 5 0 1 0;
#X connect 7 0 0 0;
#X connect 8 0 9 0;
#X connect 9 0 4 0;
#X restore 21 419 pd gestion_flag_show;
#N canvas 489 50 506 356 validation/gestion_flag_hide 0;
#X obj 61 268 outlet;
#X obj 220 273 outlet;
#X obj 202 40 inlet;
#X obj 274 40 inlet;
#X obj 55 46 inlet;
#X obj 203 232 symbol;
#X obj 137 115 delay 500;
#X obj 120 223 f;
#X obj 150 145 t b b b;
#X msg 223 163 hide;
#X obj 222 192 s \$0-status;
#X obj 130 92 t b;
#X connect 2 0 7 1;
#X connect 3 0 5 1;
#X connect 4 0 11 0;
#X connect 5 0 1 0;
#X connect 6 0 8 0;
#X connect 7 0 0 0;
#X connect 8 0 7 0;
#X connect 8 1 5 0;
#X connect 8 2 9 0;
#X connect 9 0 10 0;
#X connect 11 0 6 0;
#X restore 317 549 pd validation/gestion_flag_hide;
#X obj 430 450 +;
#X obj 443 399 r \$0-topitem;
#X obj 435 422 t b f;
#X obj 589 444 f;
#X obj 594 375 r \$0-status;
#X obj 600 402 route show;
#X obj 443 478 max 1;
#N canvas 0 50 466 316 gestion_nb_elements 0;
#X obj 143 21 inlet;
#X obj 231 190 s \$0-coarse_rcv;
#X msg 238 158 range \$1 -1;
#X obj 111 127 * 10;
#X obj 20 195 s \$0-fine_rcv;
#X msg 36 166 range \$1 -10;
#X obj 160 82 t f f;
#X obj 163 53 * -1;
#X connect 0 0 7 0;
#X connect 2 0 1 0;
#X connect 3 0 5 0;
#X connect 5 0 4 0;
#X connect 6 0 3 0;
#X connect 6 1 2 0;
#X connect 7 0 6 0;
#X restore 788 258 pd gestion_nb_elements;
#X msg 588 472 \$1 1;
#X obj 530 11 r \$1;
#X connect 2 0 12 0;
#X connect 2 0 17 0;
#X connect 2 0 71 0;
#X connect 7 0 3 0;
#X connect 7 0 73 1;
#X connect 13 0 12 0;
#X connect 15 0 63 0;
#X connect 17 0 70 2;
#X connect 17 0 20 1;
#X connect 17 1 81 0;
#X connect 17 1 71 1;
#X connect 18 0 17 0;
#X connect 19 0 17 0;
#X connect 62 0 12 0;
#X connect 63 0 74 0;
#X connect 63 1 77 0;
#X connect 64 0 15 0;
#X connect 65 0 20 0;
#X connect 66 0 73 0;
#X connect 70 0 4 0;
#X connect 70 0 73 2;
#X connect 70 0 69 0;
#X connect 70 1 69 0;
#X connect 71 0 70 1;
#X connect 73 0 6 0;
#X connect 73 1 5 0;
#X connect 74 0 80 0;
#X connect 75 0 76 0;
#X connect 76 0 74 0;
#X connect 76 1 74 1;
#X connect 77 0 82 0;
#X connect 78 0 79 0;
#X connect 79 0 77 0;
#X connect 80 0 7 0;
#X connect 82 0 70 0;
#X connect 83 0 12 0;
#X connect 83 0 17 0;
#X connect 83 0 71 0;
#X coords 0 -1 1 1 100 18 2 0 0;
