#N canvas 187 50 1067 519 10;
#X obj 429 87 text search colors;
#X obj 482 129 text get colors;
#X obj 429 108 route -1;
#X msg 446 497 color \$1 -1 -1;
#X obj 429 46 loadbang;
#X msg 408 458 color \$1 -1 -1;
#X obj 202 45 route showLastUsed;
#X obj 40 131 spigot;
#X obj 278 128 select 0;
#X obj 353 514 s \$3;
#X obj 429 67 list append \$2;
#X obj 73 510 r \$1-\$2-midi-ctl;
#X obj 72 532 outlet;
#X obj 110 135 spigot 1;
#X obj 167 97 == 0;
#X obj 33 231 list append;
#X obj 38 158 t b b;
#X obj 56 24 r \$1-\$2;
#X obj 32 257 s \$1-\$2;
#X obj 34 192 delay 10;
#X obj 204 20 r RACK_ADMIN;
#X obj 152 295 s \$1-RACK_ADMIN;
#X msg 358 429 color \$1 -1 -1;
#X obj 57 50 t a a a;
#X obj 352 353 > 0.5;
#X obj 353 375 select 0 1;
#X obj 152 271 list trim;
#X obj 489 150 unpack s f f;
#X obj 351 313 spigot;
#X obj 393 403 f;
#X obj 146 407 t b s;
#X obj 136 384 symbol;
#X obj 141 482 send, f 6;
#X obj 25 384 r control-\$1;
#X obj 64 467 route \$2;
#X text 18 444 OBSOLETE;
#X obj 24 405 route midi;
#X obj 133 334 r \$1-\$2-service;
#X obj 151 248 list append;
#X obj 152 199 list append lastUsed \$2;
#N canvas 0 50 450 300 check(\$4/\$5/\$6) 0;
#X obj 41 230 outlet;
#X obj 27 83 get_as float \$4;
#X obj 152 82 get_as float \$5;
#X obj 260 111 get_as symbol \$6;
#X obj 24 54 t b b b;
#X obj 49 117 t f f;
#X obj 94 138 !=;
#X obj 137 113 get_as float \$4;
#X obj 44 171 spigot;
#X obj 44 200 pack f f s;
#X msg 284 143 symbol lin;
#X obj 33 13 loadbang;
#X connect 1 0 5 0;
#X connect 2 0 6 1;
#X connect 2 0 9 1;
#X connect 2 1 7 0;
#X connect 3 0 9 2;
#X connect 3 1 10 0;
#X connect 4 0 1 0;
#X connect 4 1 2 0;
#X connect 4 2 3 0;
#X connect 5 0 8 0;
#X connect 5 1 6 0;
#X connect 6 0 8 1;
#X connect 7 0 6 1;
#X connect 8 0 9 0;
#X connect 9 0 0 0;
#X connect 10 0 9 2;
#X connect 11 0 4 0;
#X restore 233 221 pd check(\$4/\$5/\$6);
#X obj 141 436 list append \$2;
#X obj 144 459 list append;
#X obj 707 139 inlet F.B.out;
#X obj 134 358 route getParams setFBchannel;
#X obj 706 185 list prepend 0;
#X obj 701 209 route 0;
#X obj 742 381 noteout;
#X obj 746 235 unpack f f;
#X obj 750 282 t f f;
#X obj 786 329 div 128;
#X obj 786 351 + 1;
#X obj 748 303 mod 128;
#X obj 744 257 - 1;
#X obj 707 163 pipe 0;
#X text 850 267 il faudrait spécifier -1 comme valeur par défaut
, f 28;
#X text 835 186 le message setFBchannel est initialement envoyé par
le module ctl-assign3, f 32;
#X obj 666 446 morphing \$1 \$2 \$6;
#X text 836 442 getsion du morphing;
#X text 8 212 ?????;
#X obj 893 118 inlet test_color;
#X obj 455 214 f \$7;
#X obj 455 236 select 0;
#X obj 474 400 f 0;
#X connect 0 0 2 0;
#X connect 1 0 27 0;
#X connect 2 1 1 0;
#X connect 3 0 9 0;
#X connect 4 0 10 0;
#X connect 4 0 61 0;
#X connect 5 0 9 0;
#X connect 6 0 7 1;
#X connect 6 0 8 0;
#X connect 6 0 14 0;
#X connect 7 0 16 0;
#X connect 8 0 63 0;
#X connect 8 1 5 0;
#X connect 10 0 0 0;
#X connect 11 0 12 0;
#X connect 13 0 15 1;
#X connect 14 0 13 1;
#X connect 15 0 18 0;
#X connect 16 0 19 0;
#X connect 16 1 39 0;
#X connect 17 0 23 0;
#X connect 19 0 15 0;
#X connect 20 0 6 0;
#X connect 22 0 9 0;
#X connect 23 0 7 0;
#X connect 23 1 13 0;
#X connect 23 2 28 0;
#X connect 24 0 25 0;
#X connect 25 0 63 0;
#X connect 25 1 29 0;
#X connect 26 0 21 0;
#X connect 27 1 63 0;
#X connect 27 2 28 1;
#X connect 27 2 29 1;
#X connect 28 0 24 0;
#X connect 29 0 22 0;
#X connect 30 0 41 0;
#X connect 30 1 32 1;
#X connect 31 0 30 0;
#X connect 33 0 36 0;
#X connect 34 0 12 0;
#X connect 36 0 34 0;
#X connect 37 0 44 0;
#X connect 38 0 26 0;
#X connect 39 0 38 0;
#X connect 40 0 38 1;
#X connect 40 0 42 1;
#X connect 41 0 42 0;
#X connect 42 0 32 0;
#X connect 43 0 54 0;
#X connect 44 0 31 0;
#X connect 44 1 45 1;
#X connect 45 0 46 0;
#X connect 46 1 48 0;
#X connect 48 0 53 0;
#X connect 48 1 47 1;
#X connect 49 0 52 0;
#X connect 49 1 50 0;
#X connect 50 0 51 0;
#X connect 51 0 47 2;
#X connect 52 0 47 0;
#X connect 53 0 49 0;
#X connect 54 0 45 0;
#X connect 60 0 63 0;
#X connect 61 0 62 0;
#X connect 62 1 63 0;
#X connect 63 0 3 0;
