#N canvas 54 50 1194 562 10;
#X obj 94 143 outlet;
#X obj 357 107 list trim;
#X obj 90 35 r \$1-\$2;
#X obj 230 83 s control-\$3;
#X obj 356 80 list prepend lastUsed \$1-\$2;
#X obj 165 183 spigot;
#X obj 195 268 t l l;
#X obj 169 226 list append \$3;
#X msg 256 298 symbol \$3-\$1-midi-ctl;
#X msg 201 309 \$2;
#X obj 182 340 send;
#X obj 230 189 tgl 15 0 empty empty empty 17 7 0 10 -262144 -1 -1 1
1;
#X obj 217 131 r \$3-active;
#X obj 353 23 r \$3-RACK_ADMIN;
#X obj 361 132 s RACK_ADMIN;
#X obj 90 58 route remote midi-ctl;
#X obj 241 153 inlet active;
#N canvas 0 50 1288 691 gestion_presets_module 1;
#X obj 63 118 text size \$0-list-presets;
#X obj 272 531 text get \$0-list-presets;
#X msg 272 595 label \$1;
#X obj 270 620 s \$3-presets-rcv;
#X obj 14 143 s \$0-size;
#N canvas 491 151 386 286 \$0-presets 0;
#X obj 5 1 cnv 15 350 250 empty empty \$1-\$2 20 12 0 14 -233017 -66577
0;
#X obj 238 68 bng 40 250 50 0 \$0-ok empty empty 17 30 0 15 -4034 -1
-1;
#X obj 238 208 bng 40 250 50 0 \$0-cancel empty X 10 20 0 40 -4032
-1 -1;
#X obj 238 116 bng 40 250 50 0 \$0-save empty empty 2 30 0 15 -258113
-1 -1;
#X obj 166 35 vsl 150 25 1 0 0 0 \$3-presets \$3-presets-rcv <nouveau-preset>
2 15 0 14 -232576 -232576 -1 0 1;
#X text 7 42 Que veux-tu faire avec;
#X text 318 40 ?;
#X text 53 218 ANNULER;
#X text 53 124 SAUVER LES REGLAGES COURANTS DANS CE PRESET, f 24;
#X obj 237 160 bng 40 250 50 0 \$0-save-as empty empty 2 30 0 15 -260097
-1 -1;
#X text 51 74 LE RAPPELER (ET PERDRE LES REGLAGES COURANTS), f 25
;
#X symbolatom 105 191 15 0 0 0 - #0-save-as-name-rcv #0-save-as-name
, f 15;
#X text 52 163 SAUVER LES REGLAGES COURANTS DANS UN NOUVEAU PRESET
, f 26;
#X restore 802 54 pd \$0-presets;
#X obj 276 561 list split 1;
#N canvas 0 50 640 532 parse/drip 0;
#X obj 81 27 inlet flush;
#X obj 254 25 inlet append;
#X obj 84 403 outlet;
#X obj 80 74 list append;
#X obj 79 205 route @;
#X obj 78 139 list split 1;
#X obj 157 264 list prepend;
#X obj 80 170 list trim;
#X obj 236 308 list;
#X obj 87 343 list append;
#X obj 75 300 t b b b;
#X obj 173 111 list append;
#X obj 176 88 delay 1;
#X obj 128 236 t b a;
#X obj 158 170 t b b;
#X obj 88 372 list trim;
#X obj 80 47 t b;
#X text 275 94 next;
#X connect 0 0 16 0;
#X connect 1 0 3 1;
#X connect 3 0 5 0;
#X connect 4 0 10 0;
#X connect 4 1 13 0;
#X connect 5 0 7 0;
#X connect 5 1 11 1;
#X connect 5 2 14 0;
#X connect 6 0 8 0;
#X connect 6 0 9 1;
#X connect 7 0 4 0;
#X connect 8 0 6 1;
#X connect 9 0 15 0;
#X connect 10 0 12 0;
#X connect 10 1 6 1;
#X connect 10 1 9 1;
#X connect 10 2 9 0;
#X connect 11 0 5 0;
#X connect 12 0 11 0;
#X connect 13 0 12 0;
#X connect 13 1 6 0;
#X connect 14 0 6 1;
#X connect 14 1 9 0;
#X connect 15 0 2 0;
#X connect 16 0 3 0;
#X restore 589 575 pd parse/drip;
#X obj 588 611 outlet;
#N canvas 0 50 450 389 roll_preset_list 0;
#X obj 204 307 outlet;
#X obj 241 61 - 0.5;
#X obj 241 31 t f b;
#X msg 323 60 set 0.5;
#X obj 206 249 int;
#X obj 238 1 r \$3-presets;
#X obj 321 83 s \$3-presets-rcv;
#X obj 204 151 moses;
#X obj 207 228 t f f;
#X obj 238 111 r \$0-size;
#X obj 152 127 moses 0;
#X obj 134 184 +;
#X msg 149 161 -0.1;
#X msg 236 190 0;
#X obj 171 98 + 0;
#X obj 200 279 change;
#X connect 1 0 14 0;
#X connect 2 0 1 0;
#X connect 2 1 3 0;
#X connect 3 0 6 0;
#X connect 4 0 15 0;
#X connect 5 0 2 0;
#X connect 7 0 8 0;
#X connect 7 1 13 0;
#X connect 8 0 4 0;
#X connect 8 1 14 1;
#X connect 9 0 7 1;
#X connect 9 0 11 1;
#X connect 10 0 12 0;
#X connect 10 1 7 0;
#X connect 11 0 8 0;
#X connect 12 0 11 0;
#X connect 13 0 8 0;
#X connect 14 0 10 0;
#X connect 15 0 0 0;
#X restore 328 284 pd roll_preset_list;
#X obj 611 52 r \$3-presets;
#X obj 613 267 s pd-\$0-presets;
#X obj 638 92 t b;
#X obj 38 64 bng 15 250 50 0 empty empty empty 17 7 0 10 -262144 -1
-1;
#X obj 760 105 r \$0-ok;
#X obj 842 119 r \$0-cancel;
#X obj 761 154 t b b;
#X msg 819 176 vis 0;
#X text 812 26 popup;
#X obj 415 616 s \$0-preset-name;
#X msg 614 156 vis 1 \, vis 1;
#X obj 982 530 s \$0-save-as-name-rcv;
#X obj 986 476 makefilename Preset%d;
#X obj 987 433 + 1;
#X obj 990 397 r \$0-size;
#X msg 1007 506 set \$1;
#X obj 814 366 symbol;
#X obj 910 343 r \$0-save-as-name;
#X obj 810 342 r \$0-save-as;
#X obj 826 559 text set \$0-list-presets;
#X msg 877 526 1e+006;
#X obj 802 249 route local;
#X obj 771 300 u_collect;
#X obj 802 226 r \$3-SSSAD_ADMIN;
#X obj 996 89 s \$3-SSSAD_ADMIN;
#X msg 1001 61 savelocal;
#X obj 759 275 list append @;
#X obj 784 480 s \$3-SSSAD_ADMIN;
#X msg 789 452 savelocal;
#X msg 877 453 set \$1;
#X msg 807 504 Ducon Q 5.41224 @ freq 2217.83 @;
#X obj 703 646 s \$0-size;
#X obj 708 586 text size \$0-list-presets;
#X obj 721 546 delay 200;
#X obj 696 514 delay 100;
#X obj 701 324 r \$0-save;
#X obj 814 390 t s b;
#X obj 798 421 t b b s b;
#X obj 805 526 list;
#X obj 158 223 text define \$0-list-presets;
#X obj 157 20 loadbang;
#X obj 232 100 symbol \$1;
#X obj 109 55 t b b;
#X obj 495 16 symbol \$1;
#X obj 498 38 t b s;
#X obj 455 57 delay 100;
#X obj 452 108 s \$1_ADMIN;
#X obj 244 15 r \$1_ADMIN;
#X msg 451 83 refresh;
#X obj 244 49 route refresh;
#X obj 107 99 delay 100;
#X obj 444 4 bng 15 250 50 0 empty empty empty 17 7 0 10 -262144 -1
-1;
#X obj 90 12 bng 15 250 50 0 empty empty empty 17 7 0 10 -262144 -1
-1;
#X floatatom 103 154 5 0 0 0 - - -, f 5;
#X msg 335 126 write ../modules/presets/\$1.txt;
#X msg 168 195 clear \, read ../modules/presets/\$1.txt;
#X obj 686 374 symbol Preset1;
#X obj 615 130 delay 200;
#X text 911 249 fonctionne avec version modifiée de u_sssad, f 23
;
#X connect 0 0 4 0;
#X connect 0 0 63 0;
#X connect 1 0 6 0;
#X connect 2 0 3 0;
#X connect 2 0 19 0;
#X connect 6 0 2 0;
#X connect 6 0 66 1;
#X connect 6 1 7 1;
#X connect 7 0 8 0;
#X connect 9 0 1 0;
#X connect 9 0 29 1;
#X connect 10 0 12 0;
#X connect 12 0 67 0;
#X connect 13 0 0 0;
#X connect 14 0 16 0;
#X connect 15 0 17 0;
#X connect 16 0 7 0;
#X connect 16 1 17 0;
#X connect 17 0 11 0;
#X connect 20 0 11 0;
#X connect 22 0 25 0;
#X connect 22 0 26 1;
#X connect 23 0 22 0;
#X connect 24 0 23 0;
#X connect 25 0 21 0;
#X connect 26 0 46 0;
#X connect 27 0 26 0;
#X connect 28 0 26 0;
#X connect 30 0 29 1;
#X connect 31 0 36 0;
#X connect 32 0 40 0;
#X connect 33 0 31 0;
#X connect 35 0 34 0;
#X connect 36 0 32 0;
#X connect 38 0 37 0;
#X connect 39 0 40 0;
#X connect 40 0 48 0;
#X connect 42 0 41 0;
#X connect 43 0 42 0;
#X connect 43 0 53 0;
#X connect 44 0 40 0;
#X connect 44 0 43 0;
#X connect 45 0 66 0;
#X connect 46 0 47 0;
#X connect 46 1 30 0;
#X connect 47 0 44 0;
#X connect 47 1 38 0;
#X connect 47 2 39 0;
#X connect 47 3 17 0;
#X connect 48 0 29 0;
#X connect 50 0 52 0;
#X connect 51 0 65 0;
#X connect 52 0 60 0;
#X connect 52 1 51 0;
#X connect 53 0 54 0;
#X connect 54 0 55 0;
#X connect 54 1 64 0;
#X connect 55 0 58 0;
#X connect 57 0 59 0;
#X connect 58 0 56 0;
#X connect 59 0 52 0;
#X connect 60 0 0 0;
#X connect 61 0 53 0;
#X connect 62 0 52 0;
#X connect 64 0 49 0;
#X connect 65 0 49 0;
#X connect 66 0 47 0;
#X connect 67 0 20 0;
#X restore 507 149 pd gestion_presets_module;
#X text 507 120 gestion des présets au niveau du type de module;
#X obj 356 53 route lastUsed;
#X connect 1 0 14 0;
#X connect 2 0 15 0;
#X connect 4 0 1 0;
#X connect 5 0 7 0;
#X connect 6 0 9 0;
#X connect 6 1 8 0;
#X connect 7 0 6 0;
#X connect 8 0 10 1;
#X connect 9 0 10 0;
#X connect 12 0 5 1;
#X connect 12 0 11 0;
#X connect 13 0 19 0;
#X connect 15 0 0 0;
#X connect 15 1 5 0;
#X connect 15 2 3 0;
#X connect 16 0 5 1;
#X connect 16 0 11 0;
#X connect 17 0 0 0;
#X connect 19 0 4 0;
