#N canvas 623 80 739 519 10;
#X obj 461 212 text search colors;
#X obj 514 254 text get colors;
#X obj 461 233 route -1;
#X msg 560 380 color \$1 -1 -1;
#X obj 461 171 loadbang;
#X obj 552 301 f;
#X msg 463 321 color \$1 -1 -1;
#X obj 219 102 route showLastUsed;
#X obj 175 141 spigot;
#X obj 278 128 select 0;
#X obj 560 404 s \$3;
#X obj 461 192 list append \$2;
#X obj 73 510 r \$1-\$2-midi-ctl;
#X obj 72 532 outlet;
#X obj 60 158 spigot 1;
#X obj 114 132 == 0;
#X obj 72 241 list append;
#X obj 174 168 t b b;
#X obj 56 24 r \$1-\$2;
#X obj 72 270 s \$1-\$2;
#X obj 55 210 delay 10;
#X obj 221 77 r RACK_ADMIN;
#X obj 201 285 s \$1-RACK_ADMIN;
#X msg 352 429 color \$1 -1 -1;
#X obj 58 94 t a a a;
#X obj 319 333 > 0.5;
#X obj 314 361 select 0 1;
#X obj 210 257 list trim;
#X obj 521 275 unpack s f f;
#X obj 350 287 spigot;
#X obj 349 400 f;
#X obj 146 407 t b s;
#X obj 136 384 symbol;
#X obj 141 482 send, f 6;
#X obj 144 361 route getParams;
#X obj 25 384 r control-\$1;
#X obj 64 467 route \$2;
#X text 18 444 OBSOLETE;
#X obj 24 405 route midi;
#X obj 145 329 r \$1-\$2-service;
#X obj 204 236 list append;
#X obj 205 186 list append lastUsed \$2;
#N canvas 0 50 450 300 check(\$4/\$5/\$6) 0;
#X obj 41 230 outlet;
#X obj 27 83 get_as float \$4;
#X obj 152 82 get_as float \$5;
#X obj 260 111 get_as symbol \$6;
#X obj 24 54 t b b b;
#X obj 49 117 t f f;
#X obj 94 138 !=;
#X obj 137 113 get_as float \$4;
#X obj 44 171 spigot;
#X obj 44 200 pack f f s;
#X msg 284 143 symbol lin;
#X obj 33 13 loadbang;
#X connect 1 0 5 0;
#X connect 2 0 6 1;
#X connect 2 0 9 1;
#X connect 2 1 7 0;
#X connect 3 0 9 2;
#X connect 3 1 10 0;
#X connect 4 0 1 0;
#X connect 4 1 2 0;
#X connect 4 2 3 0;
#X connect 5 0 8 0;
#X connect 5 1 6 0;
#X connect 6 0 8 1;
#X connect 7 0 6 1;
#X connect 8 0 9 0;
#X connect 9 0 0 0;
#X connect 10 0 9 2;
#X connect 11 0 4 0;
#X restore 279 212 pd check(\$4/\$5/\$6);
#X obj 141 436 list append \$2;
#X obj 144 459 list append;
#X connect 0 0 2 0;
#X connect 1 0 28 0;
#X connect 2 1 1 0;
#X connect 3 0 10 0;
#X connect 4 0 11 0;
#X connect 5 0 3 0;
#X connect 6 0 10 0;
#X connect 7 0 8 1;
#X connect 7 0 9 0;
#X connect 7 0 15 0;
#X connect 8 0 17 0;
#X connect 9 0 5 0;
#X connect 9 1 6 0;
#X connect 11 0 0 0;
#X connect 12 0 13 0;
#X connect 14 0 16 1;
#X connect 15 0 14 1;
#X connect 16 0 19 0;
#X connect 17 0 20 0;
#X connect 17 1 41 0;
#X connect 18 0 24 0;
#X connect 20 0 16 0;
#X connect 21 0 7 0;
#X connect 23 0 10 0;
#X connect 24 0 8 0;
#X connect 24 1 14 0;
#X connect 24 2 29 0;
#X connect 25 0 26 0;
#X connect 26 0 5 0;
#X connect 26 1 30 0;
#X connect 27 0 22 0;
#X connect 28 1 5 0;
#X connect 28 2 29 1;
#X connect 28 2 30 1;
#X connect 29 0 25 0;
#X connect 30 0 23 0;
#X connect 31 0 43 0;
#X connect 31 1 33 1;
#X connect 32 0 31 0;
#X connect 34 0 32 0;
#X connect 35 0 38 0;
#X connect 36 0 13 0;
#X connect 38 0 36 0;
#X connect 39 0 34 0;
#X connect 40 0 27 0;
#X connect 41 0 40 0;
#X connect 42 0 40 1;
#X connect 42 0 44 1;
#X connect 43 0 44 0;
#X connect 44 0 33 0;
