#N canvas 464 84 809 392 10;
#X obj 116 56 r \$1-change;
#X obj 120 99 list append \$2;
#X msg 121 135 set \$1-\$2;
#X obj 138 212 outlet;
#X obj 130 170 iemlib/iem_receive \$1-\$2;
#X text 351 106 TO DO : vanilieser cet objet;
#X connect 0 0 1 0;
#X connect 1 0 2 0;
#X connect 2 0 4 0;
#X connect 4 0 3 0;
