#N canvas 101 -15 1213 725 10;
#X obj 219 365 list append;
#X obj 493 179 t b a;
#X msg 390 252 add;
#X obj 219 332 list prepend;
#X obj 221 440 s FROM_GUI;
#X obj 217 392 list trim;
#X msg 299 220 remove;
#X obj 228 413 t a b;
#X obj 201 298 r GO;
#X obj 300 266 t a b;
#X msg 371 221 focus;
#X msg 560 299 label \$1;
#X obj 290 304 symbol;
#X obj 481 263 symbol;
#X msg 631 268 label add:\$1;
#X obj 342 115 r ACTION;
#X obj 335 150 route remove focus;
#X obj 852 69 r REMOTE;
#X obj 906 131 list split 1;
#X obj 772 327 s COMMAND-rcv;
#X obj 852 89 route slot focus;
#X obj 771 235 list append;
#X obj 765 159 t f f;
#X msg 771 270 label \$3(\$1:\$2);
#X obj 768 209 pack f f;
#X obj 758 184 div 10;
#X obj 815 186 mod 10;
#X obj 819 110 select 0;
#X msg 385 476 symbol \$3;
#X obj 139 212 s COMMAND-HELP-rcv;
#X msg 135 188 label;
#X text 156 605 dépendance à zexy à supprimer;
#N canvas 0 50 450 300 aide_contextuelle 0;
#X obj 84 26 inlet;
#X obj 62 154 text get modules;
#X obj 57 183 list split 1;
#X obj 90 73 text search modules;
#X obj 86 111 select -1;
#X obj 279 181 s COMMAND-HELP-rcv;
#X msg 294 141 label \$1;
#X msg 316 102 label;
#X obj 99 204 zexy/list2symbol _;
#X connect 0 0 3 0;
#X connect 1 0 2 0;
#X connect 2 1 8 0;
#X connect 3 0 4 0;
#X connect 4 0 7 0;
#X connect 4 1 1 0;
#X connect 6 0 5 0;
#X connect 7 0 5 0;
#X connect 8 0 6 0;
#X restore 197 581 pd aide_contextuelle (COMMAND-HELP-rcv);
#X text 889 327 affichage de l'action en cours;
#X connect 0 0 5 0;
#X connect 1 0 2 0;
#X connect 1 1 0 1;
#X connect 1 1 13 0;
#X connect 2 0 3 1;
#X connect 3 0 0 0;
#X connect 5 0 7 0;
#X connect 6 0 9 0;
#X connect 7 0 4 0;
#X connect 7 1 10 0;
#X connect 8 0 3 0;
#X connect 9 0 12 0;
#X connect 9 1 0 1;
#X connect 10 0 9 0;
#X connect 11 0 19 0;
#X connect 12 0 3 1;
#X connect 12 0 11 0;
#X connect 13 0 14 0;
#X connect 13 0 32 0;
#X connect 14 0 19 0;
#X connect 15 0 16 0;
#X connect 16 0 6 0;
#X connect 16 0 30 0;
#X connect 16 1 10 0;
#X connect 16 2 1 0;
#X connect 17 0 20 0;
#X connect 18 0 21 1;
#X connect 20 0 27 0;
#X connect 20 1 18 0;
#X connect 21 0 23 0;
#X connect 21 0 28 0;
#X connect 22 0 25 0;
#X connect 22 1 26 0;
#X connect 23 0 19 0;
#X connect 24 0 21 0;
#X connect 25 0 24 0;
#X connect 26 0 24 1;
#X connect 27 1 22 0;
#X connect 28 0 32 0;
#X connect 30 0 29 0;
