#N canvas 0 50 1366 392 10;
#X obj 3 25 bng 30 250 50 0 \$0-save empty save 17 7 0 14 -258113 -66577
-1;
#X obj 63 28 bng 30 250 50 0 \$0-load empty load 17 7 0 14 -4034 -1
-1;
#X obj 186 105 r \$0-load;
#X text 341 172 if the load button is pressed;
#X obj 442 321 r SSSAD_ADMIN;
#X obj 442 376 route persist;
#X obj 442 346 list trim;
#X obj 442 432 list trim;
#X msg 96 239 save;
#X obj 118 444 s SSSAD_ADMIN;
#X obj 442 408 list prepend add SSSAD;
#X msg 140 404 set \, addsemi;
#X msg 96 472 add SSSAD_ADMIN set;
#X obj 96 215 r \$0-save;
#X obj 168 287 s SSSAD_SAVE;
#X text 180 32 original patch by frank barknecht (sssad);
#X obj 232 511 outlet;
#X obj 154 352 s RJ_SCENE_SAVE;
#X obj 411 218 r RJ_SCENE;
#X obj 411 268 list trim;
#X obj 411 246 list prepend add RJ_SCENE_LOAD;
#X msg 301 301 dirty 1;
#X obj 96 262 t b a b b b b;
#X obj 294 331 sendcanvas 1;
#X obj 61 286 t b b;
#X msg 19 341 menusave;
#X obj 17 319 delay 1000;
#X obj 375 145 s RJ_SCENE_RELOAD;
#X obj 190 132 t b b, f 27;
#X obj 72 143 r SAVE;
#X connect 2 0 28 0;
#X connect 4 0 6 0;
#X connect 5 0 10 0;
#X connect 6 0 5 0;
#X connect 7 0 16 0;
#X connect 8 0 22 0;
#X connect 10 0 7 0;
#X connect 11 0 16 0;
#X connect 12 0 16 0;
#X connect 13 0 8 0;
#X connect 18 0 20 0;
#X connect 19 0 16 0;
#X connect 20 0 19 0;
#X connect 21 0 23 0;
#X connect 22 0 24 0;
#X connect 22 1 9 0;
#X connect 22 1 17 0;
#X connect 22 2 11 0;
#X connect 22 4 14 0;
#X connect 22 5 21 0;
#X connect 24 0 26 0;
#X connect 24 1 12 0;
#X connect 25 0 23 0;
#X connect 26 0 25 0;
#X connect 28 0 16 0;
#X connect 28 1 27 0;
#X connect 29 0 8 0;
#X coords 0 -1 1 1 130 60 1 0 0;
