#N canvas 0 50 450 300 10;
#X obj 89 76 inlet;
#X obj 260 19 r \$1-change;
#X obj 259 115 list append \$2;
#X obj 167 76 inlet;
#X obj 159 110 spigot;
#X msg 217 80 1;
#X msg 274 227 symbol \$1-\$2;
#X obj 117 251 send;
#X obj 296 200 list append \$1 \$2;
#X obj 310 180 loadbang;
#X connect 0 0 7 0;
#X connect 1 0 2 0;
#X connect 1 0 5 0;
#X connect 2 0 6 0;
#X connect 3 0 4 0;
#X connect 4 0 7 0;
#X connect 5 0 4 1;
#X connect 6 0 7 1;
#X connect 8 0 6 0;
#X connect 9 0 8 0;
