#N canvas 0 50 1065 440 10;
#X obj 192 151 select 0;
#X obj 70 242 print plug-in~;
#X obj 241 184 f;
#X obj 177 80 t f f;
#X msg 72 217 error - slot \$1 non affecté;
#X obj 459 342 outlet~;
#X obj 584 348 outlet~;
#X obj 143 5 inlet slot.name;
#X obj 427 143 list prepend 0;
#X obj 499 113 f;
#X obj 540 113 == 0;
#X obj 427 98 t f b;
#X obj 455 174 route 0 1;
#N canvas 0 50 450 300 receive~ 0;
#X obj 92 29 inlet;
#X obj 122 72 select 0;
#X obj 105 223 line~;
#X msg 97 200 0 20;
#X msg 197 124 set \$1-send-0;
#X msg 307 124 set \$1-send-1;
#X obj 197 157 receive~ 0-send-0;
#X obj 339 157 receive~ 0-send-1;
#X msg 150 193 1 20;
#X obj 31 151 switch~;
#X msg 98 126 1;
#X obj 40 96 delay 20;
#X msg 29 127 0;
#X msg 44 67 stop;
#X obj 130 318 outlet~;
#X obj 261 319 outlet~;
#X obj 161 283 *~;
#X obj 251 283 *~;
#X connect 0 0 1 0;
#X connect 1 0 3 0;
#X connect 1 0 11 0;
#X connect 1 1 4 0;
#X connect 1 1 5 0;
#X connect 1 1 10 0;
#X connect 1 1 13 0;
#X connect 1 1 8 0;
#X connect 2 0 16 1;
#X connect 2 0 17 1;
#X connect 3 0 2 0;
#X connect 4 0 6 0;
#X connect 5 0 7 0;
#X connect 6 0 16 0;
#X connect 7 0 17 0;
#X connect 8 0 2 0;
#X connect 10 0 9 0;
#X connect 11 0 12 0;
#X connect 12 0 9 0;
#X connect 13 0 11 0;
#X connect 16 0 14 0;
#X connect 17 0 15 0;
#X restore 455 240 pd receive~;
#N canvas 0 50 450 300 receive~ 0;
#X obj 92 29 inlet;
#X obj 122 72 select 0;
#X obj 105 223 line~;
#X msg 97 200 0 20;
#X msg 197 124 set \$1-send-0;
#X msg 307 124 set \$1-send-1;
#X obj 197 157 receive~ 0-send-0;
#X obj 339 157 receive~ 0-send-1;
#X msg 150 193 1 20;
#X obj 31 151 switch~;
#X msg 98 126 1;
#X obj 40 96 delay 20;
#X msg 29 127 0;
#X msg 44 67 stop;
#X obj 130 318 outlet~;
#X obj 261 319 outlet~;
#X obj 161 283 *~;
#X obj 251 283 *~;
#X connect 0 0 1 0;
#X connect 1 0 3 0;
#X connect 1 0 11 0;
#X connect 1 1 4 0;
#X connect 1 1 5 0;
#X connect 1 1 10 0;
#X connect 1 1 13 0;
#X connect 1 1 8 0;
#X connect 2 0 16 1;
#X connect 2 0 17 1;
#X connect 3 0 2 0;
#X connect 4 0 6 0;
#X connect 5 0 7 0;
#X connect 6 0 16 0;
#X connect 7 0 17 0;
#X connect 8 0 2 0;
#X connect 10 0 9 0;
#X connect 11 0 12 0;
#X connect 12 0 9 0;
#X connect 13 0 11 0;
#X connect 16 0 14 0;
#X connect 17 0 15 0;
#X restore 573 239 pd receive~;
#X msg 461 217 0;
#X msg 578 219 0;
#X text 612 270 assure un crossefade entre deux branchements successifs
;
#X msg 373 145 0;
#X obj 295 7 r \$1-plugin;
#X obj 171 43 select 0;
#X obj 192 120 tabread SLOTS_MAP;
#X obj 666 25 r REFRESH_CONNEXIONS;
#X obj 709 155 - 1;
#X obj 705 202 tabread SLOTS_MAP;
#X obj 709 107 f;
#X msg 638 157 0;
#X obj 653 130 select 0;
#X obj 711 82 v \$1-slot;
#X obj 717 53 loadbang;
#X connect 0 0 2 0;
#X connect 0 0 18 0;
#X connect 0 1 11 0;
#X connect 2 0 4 0;
#X connect 3 0 21 0;
#X connect 3 1 2 1;
#X connect 4 0 1 0;
#X connect 7 0 20 0;
#X connect 8 0 12 0;
#X connect 9 0 10 0;
#X connect 9 0 8 1;
#X connect 10 0 9 1;
#X connect 11 0 8 0;
#X connect 11 1 9 0;
#X connect 12 0 13 0;
#X connect 12 0 16 0;
#X connect 12 1 14 0;
#X connect 12 1 15 0;
#X connect 13 0 5 0;
#X connect 13 1 6 0;
#X connect 14 0 5 0;
#X connect 14 1 6 0;
#X connect 15 0 13 0;
#X connect 16 0 14 0;
#X connect 18 0 11 0;
#X connect 19 0 20 0;
#X connect 20 0 18 0;
#X connect 20 1 3 0;
#X connect 21 0 0 0;
#X connect 22 0 28 0;
#X connect 23 0 24 0;
#X connect 24 0 11 0;
#X connect 25 0 27 0;
#X connect 26 0 11 0;
#X connect 27 0 26 0;
#X connect 27 1 23 0;
#X connect 28 0 25 0;
#X connect 29 0 28 0;
