#N canvas 0 50 658 424 10;
#X obj 479 299 list append;
#X obj 301 136 r \$2-\$1, f 8;
#X obj 234 253 s \$0-label;
#X obj 119 100 cnv 15 280 20 empty \$0-label empty 20 12 0 14 -233017
-66577 0;
#X msg 285 208 label \$1;
#X msg 189 207 label empty;
#X obj 292 180 symbol;
#X obj 69 169 r \$1-global;
#X obj 69 213 t b b;
#X obj 100 100 tgl 20 0 empty empty empty 17 7 0 10 -262144 -1 -1 0
1;
#X obj 69 191 route clear enumerate;
#X obj 124 280 spigot;
#X obj 124 302 t b;
#X obj 501 376 s \$1-feedback;
#X obj 252 386 s \$1-global;
#X msg 256 361 enumerate;
#X obj 268 324 t b b;
#X msg 423 333 clear;
#X obj 476 194 t b;
#X obj 476 216 f \$2;
#X obj 52 148 t b f;
#X connect 0 0 13 0;
#X connect 1 0 6 0;
#X connect 1 0 18 0;
#X connect 4 0 2 0;
#X connect 5 0 2 0;
#X connect 6 0 4 0;
#X connect 7 0 10 0;
#X connect 8 0 5 0;
#X connect 8 1 0 1;
#X connect 9 0 20 0;
#X connect 10 0 8 0;
#X connect 10 1 11 0;
#X connect 11 0 12 0;
#X connect 12 0 0 0;
#X connect 15 0 14 0;
#X connect 16 0 15 0;
#X connect 16 1 17 0;
#X connect 17 0 13 0;
#X connect 18 0 19 0;
#X connect 19 0 0 1;
#X connect 20 0 16 0;
#X connect 20 1 11 1;
#X coords 0 -1 1 1 300 20 1 100 100;
