#N canvas 57 385 1366 362 10;
#X obj 39 55 inlet fc;
#X obj 147 53 inlet Q;
#X obj 235 51 inlet peakGain;
#X obj 110 177 samplerate~;
#X obj 320 119 / 20;
#X obj 328 226 pow;
#X obj 320 141 t b f;
#X msg 320 203 10;
#X obj 396 257 s \$0-V;
#X obj 73 238 * 3.14159;
#X obj 73 260 /;
#X obj 75 155 t f b;
#X obj 42 96 t b f;
#X obj 200 301 moses 0;
#X obj 77 290 s \$0-K;
#X obj 233 99 t f f b b;
#X obj 161 84 t b f;
#X obj 160 267 s \$0-Q;
#X obj 297 329 t b;
#X obj 297 351 f;
#X obj 347 320 r \$0-K;
#X obj 566 370 r \$0-Q;
#X obj 280 374 t f f f f f f;
#X obj 540 397 expr 1/(1+$f1/$f2 + $f1*$f1);
#X obj 349 442 expr (1+$f3/$f2*$f1 +$f1*$f1)*$f4;
#X obj 364 407 r \$0-Q;
#X obj 485 411 r \$0-V;
#X text 596 442 a0;
#X obj 322 465 expr 2*($f1*$f1-1)*$f2;
#X text 572 460 a1;
#X obj 293 488 expr (1-$f3/$f2*$f1+$f1*$f1)*$f4;
#X text 564 487 a2;
#X obj 254 511 t b;
#X obj 268 534 f;
#X text 532 533 b1;
#X obj 236 569 expr (1-1/$f2*$f1+$f1*$f1)*$f4;
#X text 527 569 b2;
#X text 769 401 norm;
#X obj -213 339 t b;
#X obj -213 361 f;
#X obj -163 330 r \$0-K;
#X obj 135 321 r \$0-Q;
#X obj -230 384 t f f f f f f;
#X obj -111 404 r \$0-Q;
#X obj -25 401 r \$0-V;
#X text 86 452 a0;
#X obj -188 475 expr 2*($f1*$f1-1)*$f2;
#X text 62 470 a1;
#X text 54 497 a2;
#X obj -256 521 t b;
#X obj -242 544 f;
#X text 22 543 b1;
#X text 17 579 b2;
#X text 259 411 norm;
#X obj 227 324 r \$0-V;
#X obj -274 579 expr (1-$f3/$f2*$f1+$f1*$f1)*$f4;
#X obj 73 136 f \$1;
#X obj 173 122 f \$2;
#X obj 235 73 f \$3;
#X obj 317 92 loadbang;
#X obj 53 621 t f;
#X obj 139 621 t f;
#X obj 225 623 t f;
#X obj 310 625 t f;
#X obj 398 625 t f;
#X obj 142 680 pack f f f f f;
#X msg 466 630 \$2 \$1 \$5 \$4 \$3;
#X obj 464 658 outlet;
#X floatatom 123 216 5 0 0 0 - - -, f 5;
#X obj 53 643 * -1;
#X obj 139 643 * -1;
#X floatatom 158 445 5 0 0 0 - - -, f 5;
#X floatatom 540 419 5 0 0 0 - - -, f 5;
#X floatatom 328 248 5 0 0 0 - - -, f 5;
#X obj 32 348 expr 1/(1+$f3/$f2*$f1 + $f1*$f1);
#X obj -161 452 expr (1+$f1/$f2 +$f1*$f1)*$f4;
#X obj -217 498 expr (1-1/$f2*$f1+$f1*$f1)*$f4;
#X obj 372 183 abs;
#X text 552 72 http://www.earlevel.com/main/2013/10/13/biquad-calculator-v2/
;
#X text 565 40 based upon;
#X connect 0 0 12 0;
#X connect 1 0 16 0;
#X connect 2 0 58 0;
#X connect 3 0 10 1;
#X connect 3 0 68 0;
#X connect 4 0 6 0;
#X connect 5 0 8 0;
#X connect 5 0 73 0;
#X connect 6 0 7 0;
#X connect 6 1 77 0;
#X connect 7 0 5 0;
#X connect 9 0 10 0;
#X connect 10 0 14 0;
#X connect 11 0 9 0;
#X connect 11 1 3 0;
#X connect 12 0 58 0;
#X connect 12 1 56 1;
#X connect 13 0 38 0;
#X connect 13 1 18 0;
#X connect 15 0 13 0;
#X connect 15 1 4 0;
#X connect 15 2 56 0;
#X connect 15 3 57 0;
#X connect 16 0 58 0;
#X connect 16 1 57 1;
#X connect 18 0 19 0;
#X connect 19 0 22 0;
#X connect 20 0 19 1;
#X connect 21 0 23 1;
#X connect 22 0 35 0;
#X connect 22 1 32 0;
#X connect 22 2 30 0;
#X connect 22 3 28 0;
#X connect 22 4 24 0;
#X connect 22 5 23 0;
#X connect 23 0 24 3;
#X connect 23 0 28 1;
#X connect 23 0 30 3;
#X connect 23 0 35 3;
#X connect 23 0 72 0;
#X connect 24 0 64 0;
#X connect 25 0 24 1;
#X connect 25 0 30 1;
#X connect 25 0 35 1;
#X connect 26 0 24 2;
#X connect 26 0 30 2;
#X connect 26 0 35 2;
#X connect 28 0 33 1;
#X connect 28 0 63 0;
#X connect 30 0 62 0;
#X connect 32 0 33 0;
#X connect 33 0 61 0;
#X connect 35 0 60 0;
#X connect 38 0 39 0;
#X connect 39 0 42 0;
#X connect 40 0 39 1;
#X connect 41 0 74 1;
#X connect 42 0 55 0;
#X connect 42 1 49 0;
#X connect 42 2 76 0;
#X connect 42 3 46 0;
#X connect 42 4 75 0;
#X connect 42 5 74 0;
#X connect 43 0 55 1;
#X connect 43 0 75 1;
#X connect 43 0 76 1;
#X connect 44 0 55 2;
#X connect 44 0 75 2;
#X connect 44 0 76 2;
#X connect 46 0 50 1;
#X connect 46 0 63 0;
#X connect 49 0 50 0;
#X connect 50 0 61 0;
#X connect 54 0 74 2;
#X connect 55 0 60 0;
#X connect 56 0 11 0;
#X connect 57 0 17 0;
#X connect 58 0 15 0;
#X connect 59 0 58 0;
#X connect 60 0 69 0;
#X connect 61 0 70 0;
#X connect 62 0 65 2;
#X connect 63 0 65 3;
#X connect 64 0 65 4;
#X connect 65 0 66 0;
#X connect 66 0 67 0;
#X connect 69 0 65 0;
#X connect 70 0 65 1;
#X connect 74 0 46 1;
#X connect 74 0 55 3;
#X connect 74 0 71 0;
#X connect 74 0 75 3;
#X connect 74 0 76 3;
#X connect 75 0 64 0;
#X connect 76 0 62 0;
#X connect 77 0 5 1;
