#N canvas 0 50 1079 524 10;
#X obj 104 101 hsl 128 16 0 127 0 0 \$0-snd \$0-rcv dry=0.11811 10
7 0 10 -203904 -1 -1 1500 0;
#X obj 130 206 r \$0-snd;
#X obj 265 126 loadbang;
#X obj 117 412 s \$0-rcv;
#X msg 121 390 set \$1;
#X obj 129 291 s \$1-\$2;
#X obj 139 311 r \$1-\$2;
#X obj 324 277 list append \$2;
#X msg 326 316 label \$2=\$1;
#X obj 270 153 t b b b;
#X obj 333 191 list append \$2;
#X msg 363 359 label \$1;
#X obj 136 239 m_scale 0 127 \$3 \$4;
#X obj 140 341 m_scale \$3 \$4 0 127;
#X connect 1 0 12 0;
#X connect 2 0 9 0;
#X connect 4 0 3 0;
#X connect 6 0 7 0;
#X connect 6 0 13 0;
#X connect 7 0 8 0;
#X connect 8 0 3 0;
#X connect 9 2 10 0;
#X connect 10 0 11 0;
#X connect 11 0 3 0;
#X connect 12 0 5 0;
#X connect 13 0 4 0;
#X coords 0 -1 1 1 135 18 2 100 100;
