#N canvas 200 69 1349 665 10;
#X obj 100 100 hradio 15 1 0 1 empty empty \$2 1 8 0 10 -1 -1 -241291
0;
#X obj 100 120 t b;
#X obj 152 149 == 0;
#X obj 200 200 select 0 1;
#X obj 377 169 loadbang;
#X obj 100 145 f 1;
#X obj 95 265 s \$1-\$2;
#X obj 166 18 r \$1-\$2;
#X obj 195 49 r \$1-\$2-rcv;
#X obj 231 329 list append \$3 \$3 \$5;
#X obj 274 258 list append \$4 \$3 \$5;
#X msg 290 96 color \$2 \$1 \$3;
#X connect 0 0 1 0;
#X connect 1 0 5 0;
#X connect 2 0 5 1;
#X connect 3 0 9 0;
#X connect 3 1 10 0;
#X connect 4 0 9 0;
#X connect 5 0 6 0;
#X connect 7 0 2 0;
#X connect 7 0 3 0;
#X connect 8 0 3 0;
#X connect 8 0 2 0;
#X connect 9 0 11 0;
#X connect 10 0 11 0;
#X connect 11 0 0 0;
#X coords 0 -1 1 1 15 15 2 100 100;
