#N canvas 4 50 1353 685 10;
#X obj 283 124 loadbang;
#X obj 333 191 list append \$2;
#X obj 100 102 vsl 38 50 0 127 0 0 \$0-snd \$0-rcv empty 0 20 0 10
-262131 -1 -1 0 1;
#X obj 566 319 +;
#X msg 632 404 set \$1;
#X obj 554 191 t f f b;
#X obj 577 231 f;
#X obj 548 255 -;
#X obj 547 289 * 0.2;
#X msg 508 407 label \$1;
#X obj 69 430 int;
#X msg 748 410 label;
#X obj 100 122 cnv 1 1 1 empty \$0-cnv empty 0 12 0 10 -233017 -66577
0;
#X msg 73 551;
#X msg 73 494 label =\$1;
#X obj 73 529 s \$0-cnv;
#X msg 9 495 label;
#N canvas 0 50 458 308 rh_scalelog 0;
#X obj 20 155 exp;
#X obj 20 107 *;
#X obj 20 130 +;
#X obj 98 87 log;
#X obj 194 84 log;
#X obj 123 123 t b f;
#X obj 123 145 -;
#X obj 20 183 outlet;
#X obj 20 19 inlet;
#X obj 98 23 inlet;
#X obj 194 24 inlet;
#X connect 0 0 7 0;
#X connect 1 0 2 0;
#X connect 2 0 0 0;
#X connect 3 0 2 1;
#X connect 3 0 5 0;
#X connect 4 0 6 0;
#X connect 5 0 6 0;
#X connect 5 1 6 1;
#X connect 6 0 1 1;
#X connect 8 0 1 0;
#X connect 9 0 3 0;
#X connect 10 0 4 0;
#X restore 130 267 pd rh_scalelog;
#X obj 225 190 f \$3;
#X obj 275 190 f \$4;
#N canvas 0 50 458 308 inv_scalelog 0;
#X obj 98 87 log;
#X obj 194 84 log;
#X obj 123 123 t b f;
#X obj 123 145 -;
#X obj 20 183 outlet;
#X obj 20 19 inlet;
#X obj 98 23 inlet;
#X obj 194 24 inlet;
#X obj 34 65 log;
#X obj 20 130 -;
#X obj 20 156 /;
#X connect 0 0 2 0;
#X connect 0 0 9 1;
#X connect 1 0 3 0;
#X connect 2 0 3 0;
#X connect 2 1 3 1;
#X connect 3 0 10 1;
#X connect 5 0 8 0;
#X connect 6 0 0 0;
#X connect 7 0 1 0;
#X connect 8 0 9 0;
#X connect 9 0 10 0;
#X connect 10 0 4 0;
#X restore 156 336 pd inv_scalelog;
#X obj 131 232 / 127;
#X obj 177 364 * 127;
#X obj 129 291 s \$1-\$2;
#X obj 140 315 r \$1-\$2;
#X obj 308 149 t b b b;
#X obj 590 440 s \$0-rcv;
#X obj 547 151 r \$0-snd;
#X obj 67 405 * 100;
#X obj 76 457 * 0.01;
#X obj 626 182 t b f;
#X msg 626 248 0;
#X obj 624 140 midi-colors \$1 \$2 \$0-rcv \$3 \$4 log;
#X obj 626 338 t f f;
#X obj 59 380 speed_lim;
#X obj 629 370 speed_lim;
#X connect 0 0 25 0;
#X connect 1 0 9 0;
#X connect 3 0 21 0;
#X connect 3 0 6 1;
#X connect 3 0 4 0;
#X connect 4 0 26 0;
#X connect 5 0 7 0;
#X connect 5 2 6 0;
#X connect 6 0 7 1;
#X connect 6 0 3 1;
#X connect 7 0 8 0;
#X connect 8 0 3 0;
#X connect 9 0 26 0;
#X connect 10 0 29 0;
#X connect 11 0 26 0;
#X connect 14 0 15 0;
#X connect 16 0 15 0;
#X connect 17 0 23 0;
#X connect 18 0 17 1;
#X connect 18 0 20 1;
#X connect 19 0 17 2;
#X connect 19 0 20 2;
#X connect 20 0 22 0;
#X connect 21 0 17 0;
#X connect 22 0 33 0;
#X connect 24 0 20 0;
#X connect 24 0 34 0;
#X connect 25 0 18 0;
#X connect 25 1 19 0;
#X connect 25 2 1 0;
#X connect 27 0 5 0;
#X connect 28 0 10 0;
#X connect 29 0 14 0;
#X connect 30 0 31 0;
#X connect 30 1 6 0;
#X connect 31 0 3 0;
#X connect 32 0 30 0;
#X connect 33 0 35 0;
#X connect 33 1 6 1;
#X connect 34 0 28 0;
#X connect 35 0 4 0;
#X coords 0 -1 1 1 38 55 2 100 100;
