#N canvas 278 50 1075 586 10;
#X obj 69 308 c_frombus no-in;
#X obj 209 290 c_frombus no-in;
#X obj 576 350 u_dispatch \$0 in;
#N canvas 361 163 895 592 meter 0;
#X obj 22 27 inlet~;
#X obj 192 113 f;
#X msg 191 76 0;
#X obj 51 99 moses 0;
#X obj 194 51 del 1500;
#X msg 194 29 bang;
#X obj 89 28 inlet~;
#X obj 161 134 int;
#X obj 161 155 - 100;
#X obj 148 342 s \$0-vu;
#X msg 300 304 color \$1 -1;
#X msg 272 258 16;
#X msg 338 256 13;
#X obj 260 232 select 0 1;
#X msg 160 264 vis_size \$1 2;
#X obj 159 202 + 100;
#X obj 159 223 min 100;
#X obj 159 243 max 0;
#X msg 201 290 label \$1db;
#X obj 159 180 t f f f;
#X text 372 253 red for cliping;
#X obj 258 212 > -1;
#X msg 327 129 -100;
#X obj 38 72 env~ 8192 4096;
#X connect 0 0 23 0;
#X connect 1 0 3 1;
#X connect 2 0 3 1;
#X connect 3 1 1 0;
#X connect 3 1 5 0;
#X connect 3 1 7 0;
#X connect 4 0 2 0;
#X connect 5 0 4 0;
#X connect 6 0 23 0;
#X connect 7 0 8 0;
#X connect 8 0 19 0;
#X connect 10 0 9 0;
#X connect 11 0 10 0;
#X connect 12 0 10 0;
#X connect 13 0 11 0;
#X connect 13 1 12 0;
#X connect 14 0 9 0;
#X connect 15 0 16 0;
#X connect 16 0 17 0;
#X connect 17 0 14 0;
#X connect 18 0 9 0;
#X connect 19 0 15 0;
#X connect 19 1 18 0;
#X connect 19 2 21 0;
#X connect 21 0 13 0;
#X connect 22 0 19 0;
#X connect 23 0 3 0;
#X restore 86 425 pd meter;
#X obj 484 189 switch~;
#X obj 70 342 +~;
#X obj 211 333 +~;
#X obj 72 382 *~;
#X obj 205 379 *~;
#X obj 297 379 line~;
#X obj 363 419 dbtorms;
#X obj 420 328 r \$0-gain;
#X obj 576 376 u_dispatch \$0 gain;
#X obj 424 351 + 100;
#X msg 357 449 \$1 20;
#X obj 425 388 f;
#X obj 342 356 select 1 0;
#X msg 358 385 0;
#X obj 576 404 u_parameter \$0 mute;
#X obj 354 326 t f f;
#X obj 497 405 == 0;
#X obj 459 436 spigot 1;
#X obj 452 557 s \$0-mute;
#X obj 352 292 r \$0-mute;
#X obj 572 505 r \$0-mute;
#X obj 476 513 select 1;
#X obj 547 526 f;
#X obj 584 543 == 0;
#X obj 514 494 > 0;
#N canvas 0 50 482 428 selection_bus_sortie 0;
#X msg 52 245 label \$1;
#X obj 56 211 list split 1;
#X obj 192 255 unpack s s;
#X obj 115 96 select -1;
#X obj 192 284 outlet;
#X obj 259 287 outlet;
#N canvas 0 50 525 389 roll_bus_in 0;
#X obj 204 307 outlet;
#X obj 241 61 - 0.5;
#X msg 323 60 set 0.5;
#X obj 206 249 int;
#X obj 204 151 moses;
#X obj 207 228 t f f;
#X obj 152 127 moses 0;
#X obj 134 184 +;
#X msg 149 161 -0.1;
#X msg 236 190 0;
#X obj 171 98 + 0;
#X obj 200 279 change;
#X obj 241 31 t f b b;
#X obj 238 1 r \$0-bus_in;
#X obj 321 83 s \$0-bus_in-rcv;
#X obj 299 106 text size bus_in;
#X connect 1 0 10 0;
#X connect 2 0 14 0;
#X connect 3 0 11 0;
#X connect 4 0 5 0;
#X connect 4 1 9 0;
#X connect 5 0 3 0;
#X connect 5 1 10 1;
#X connect 6 0 8 0;
#X connect 6 1 4 0;
#X connect 7 0 5 0;
#X connect 8 0 7 0;
#X connect 9 0 5 0;
#X connect 10 0 6 0;
#X connect 11 0 0 0;
#X connect 12 0 1 0;
#X connect 12 1 2 0;
#X connect 12 2 15 0;
#X connect 13 0 12 0;
#X connect 15 0 4 1;
#X connect 15 0 7 1;
#X restore 72 11 pd roll_bus_in;
#X obj 119 30 r \$0-in;
#X obj 118 73 text search bus_in;
#X msg 172 147 list no-in no-in no-in;
#X obj 74 180 text get bus_in;
#X obj -25 262 s \$0-in;
#X obj 50 270 s \$0-bus_in-rcv;
#X obj 77 135 change -1;
#X obj 77 156 pipe 10;
#X obj 120 53 symbol;
#X connect 0 0 12 0;
#X connect 1 0 0 0;
#X connect 1 0 11 0;
#X connect 1 1 2 0;
#X connect 2 0 4 0;
#X connect 2 1 5 0;
#X connect 3 0 9 0;
#X connect 3 1 13 0;
#X connect 6 0 13 0;
#X connect 7 0 15 0;
#X connect 8 0 3 0;
#X connect 9 0 1 0;
#X connect 10 0 1 0;
#X connect 13 0 14 0;
#X connect 14 0 10 0;
#X connect 15 0 8 0;
#X restore 96 239 pd selection_bus_sortie;
#X obj 76 473 stereo_outlet~ \$0;
#X obj 101 101 cnv 15 188 68 empty \$0-background audio_in 0 7 0 14
-262144 -1 0;
#X obj 189 134 cnv 2 1 2 empty \$0-vu -100db 20 5 0 10 -24198 -1 0
;
#X text 195 108 src;
#X obj 142 128 tgl 40 0 \$0-mute \$0-mute-rcv MUTE 17 7 0 10 -262144
-1 -1 0 1;
#X obj 220 102 vsl 70 17 1 0 0 0 \$0-bus_in \$0-bus_in-rcv IN3 2 5
0 10 -191407 -191407 -1 0 1;
#X obj 487 124 module_declare audio_in \$0;
#X obj 575 323 module_loader audio_in \$0;
#X obj 514 467 midi-colors \$0 mute \$0-mute-rcv;
#X obj 101 115 ui_vs \$0 gain -100 27;
#X connect 0 0 5 0;
#X connect 1 0 6 0;
#X connect 2 0 12 0;
#X connect 5 0 7 0;
#X connect 6 0 8 0;
#X connect 7 0 3 0;
#X connect 7 0 30 0;
#X connect 8 0 3 1;
#X connect 8 0 30 1;
#X connect 9 0 8 1;
#X connect 9 0 7 1;
#X connect 10 0 14 0;
#X connect 11 0 13 0;
#X connect 12 0 18 0;
#X connect 13 0 15 0;
#X connect 14 0 9 0;
#X connect 15 0 21 0;
#X connect 16 0 17 0;
#X connect 16 1 15 0;
#X connect 17 0 14 0;
#X connect 19 0 16 0;
#X connect 19 1 20 0;
#X connect 20 0 21 1;
#X connect 21 0 10 0;
#X connect 23 0 19 0;
#X connect 24 0 26 1;
#X connect 25 0 26 0;
#X connect 26 0 27 0;
#X connect 27 0 22 0;
#X connect 28 0 25 0;
#X connect 29 0 0 0;
#X connect 29 1 1 0;
#X connect 36 0 4 0;
#X connect 37 0 2 0;
#X connect 38 0 28 0;
#X coords 0 -1 1 1 190 70 1 100 100;
