#N canvas 188 54 1075 486 10;
#N canvas 172 83 586 377 LICENSE-GPL 0;
#X text 57 88 This program is free software: you can redistribute it
and/or modify it under the terms of the GNU General Public License
as published by the Free Software Foundation \, either version 3 of
the License \, or (at your option) any later version.;
#X text 58 168 This program is distributed in the hope that it will
be useful \, but WITHOUT ANY WARRANTY \; without even the implied warranty
of MERCHANTABILITY or FITNESS FOR A PARTICULAR PURPOSE. See the GNU
General Public License for more details.;
#X text 57 261 You should have received a copy of the GNU General Public
License along with this program. If not \, see <http://www.gnu.org/licenses/>.
;
#X text 61 54 Copyright (C) 2009 \, Reality Jockey Ltd.;
#X text 60 325 See the file LICENSE.txt for the full license text.
;
#X restore 298 15 pd LICENSE-GPL;
#X msg 311 392 start;
#X msg 314 341 stop;
#X obj 223 414 writesf~ 2;
#X obj 498 288 bng 15 250 50 0 empty empty empty 17 7 0 10 -262144
-1 -1;
#N canvas 0 50 450 300 horodatage(zexy) 0;
#X obj 103 43 t b b;
#X obj 107 12 inlet;
#X obj 106 268 outlet;
#X obj 385 87 zexy/time -----------;
#X obj 326 123 makefilename %02d;
#X obj 353 175 pack symbol symbol symbol;
#X obj 466 121 makefilename %02d;
#X obj 506 141 makefilename %02d;
#X obj 101 213 list append;
#X obj 33 74 zexy/date -----------;
#X obj 58 119 makefilename %02d;
#X obj 187 119 makefilename %02d;
#X obj 38 139 makefilename %02d;
#X obj 33 165 pack symbol symbol symbol;
#X msg 99 233 symbol \$1-\$2-\$3_\$4h\$5'\$6;
#X connect 0 0 9 0;
#X connect 0 1 3 0;
#X connect 1 0 0 0;
#X connect 3 0 4 0;
#X connect 3 1 6 0;
#X connect 3 2 7 0;
#X connect 4 0 5 0;
#X connect 5 0 8 1;
#X connect 6 0 5 1;
#X connect 7 0 5 2;
#X connect 8 0 14 0;
#X connect 9 0 12 0;
#X connect 9 1 10 0;
#X connect 9 2 11 0;
#X connect 10 0 13 1;
#X connect 11 0 13 2;
#X connect 12 0 13 0;
#X connect 13 0 8 0;
#X connect 14 0 2 0;
#X restore 495 319 pd horodatage(zexy);
#X obj 250 218 change;
#X obj 287 253 select 0 1;
#X obj 398 297 t b b;
#X msg 320 82 color 3 3 -1;
#X msg 319 104 color 13 13 -1;
#X obj 61 198 timer, f 15;
#X obj 48 169 bng 15 250 50 0 empty empty empty 17 7 0 10 -262144 -1
-1;
#X obj 172 182 bng 15 250 50 0 empty empty empty 17 7 0 10 -262144
-1 -1;
#X obj 176 242 metro 1000;
#X obj 55 223 / 1000;
#X obj 49 249 int;
#X obj 62 271 t f f;
#X msg 22 391 label \$1:\$2;
#X obj 66 333 makefilename %02d;
#X obj 24 417 s \$0-time;
#X obj 26 343 makefilename %02d;
#X obj 12 367 pack s s;
#X obj 5 290 div 60;
#X obj 53 307 mod 60;
#N canvas 361 163 895 592 meter 0;
#X obj 22 27 inlet~;
#X obj 192 113 f;
#X msg 191 76 0;
#X obj 116 111 moses 0;
#X obj 194 51 del 1500;
#X msg 194 29 bang;
#X obj 89 28 inlet~;
#X obj 161 134 int;
#X obj 161 155 - 100;
#X obj 148 342 s \$0-vu;
#X msg 300 304 color \$1 -1;
#X msg 272 258 16;
#X msg 338 256 13;
#X obj 260 232 select 0 1;
#X msg 160 264 vis_size \$1 2;
#X obj 159 202 + 100;
#X obj 159 223 min 100;
#X obj 159 243 max 0;
#X msg 201 290 label \$1db;
#X obj 159 180 t f f f;
#X text 372 253 red for cliping;
#X obj 258 212 > -1;
#X msg 327 129 -100;
#X obj 38 72 env~ 8192 4096;
#X connect 0 0 23 0;
#X connect 1 0 3 1;
#X connect 2 0 3 1;
#X connect 3 1 1 0;
#X connect 3 1 5 0;
#X connect 3 1 7 0;
#X connect 4 0 2 0;
#X connect 5 0 4 0;
#X connect 6 0 23 0;
#X connect 7 0 8 0;
#X connect 8 0 19 0;
#X connect 10 0 9 0;
#X connect 11 0 10 0;
#X connect 12 0 10 0;
#X connect 13 0 11 0;
#X connect 13 1 12 0;
#X connect 14 0 9 0;
#X connect 15 0 16 0;
#X connect 16 0 17 0;
#X connect 17 0 14 0;
#X connect 18 0 9 0;
#X connect 19 0 15 0;
#X connect 19 1 18 0;
#X connect 19 2 21 0;
#X connect 21 0 13 0;
#X connect 22 0 19 0;
#X connect 23 0 3 0;
#X restore 107 421 pd meter;
#X msg 495 377 open ../../recordings/(\$2)\$1;
#X obj 101 101 cnv 15 188 68 empty \$0-background audio_record 0 7
0 14 -262144 -1 0;
#X symbolatom 106 130 20 0 0 0 - - -, f 20;
#X obj 250 129 tgl 40 0 empty empty REC 5 20 0 15 -261689 -261689 -1
0 1;
#X obj 118 147 cnv 15 100 20 empty \$0-time 00:20 20 12 0 14 -261682
-66577 0;
#X obj 189 118 cnv 2 1 2 empty \$0-vu -100db 20 5 0 10 -24198 -1 0
;
#X obj 848 148 r \$2-slot;
#X obj 838 180 div 10;
#X obj 506 347 list append -;
#X msg 850 234 list tranche.\$1;
#X obj 530 430 print;
#X floatatom 886 86 5 0 0 0 - - -, f 5;
#X msg 886 105 12;
#X obj 313 372 delay 100;
#X obj 583 156 module_loader audio_record \$0 \$1;
#X obj 236 279 inlet~;
#X obj 236 301 outlet~;
#X obj 95 383 outlet~;
#X obj 153 276 inlet~;
#X obj 431 207 inlet data;
#X obj 431 229 outlet data;
#X connect 1 0 3 0;
#X connect 2 0 3 0;
#X connect 4 0 5 0;
#X connect 5 0 28 0;
#X connect 5 0 34 0;
#X connect 6 0 7 0;
#X connect 6 0 14 0;
#X connect 7 0 2 0;
#X connect 7 0 9 0;
#X connect 7 1 8 0;
#X connect 7 1 10 0;
#X connect 7 1 11 0;
#X connect 8 0 39 0;
#X connect 8 1 5 0;
#X connect 9 0 29 0;
#X connect 10 0 29 0;
#X connect 11 0 15 0;
#X connect 12 0 11 0;
#X connect 13 0 11 1;
#X connect 14 0 11 1;
#X connect 15 0 16 0;
#X connect 16 0 17 0;
#X connect 17 0 23 0;
#X connect 17 1 24 0;
#X connect 18 0 20 0;
#X connect 19 0 22 1;
#X connect 21 0 22 0;
#X connect 22 0 18 0;
#X connect 23 0 21 0;
#X connect 24 0 19 0;
#X connect 26 0 3 0;
#X connect 26 0 36 0;
#X connect 29 0 6 0;
#X connect 32 0 33 0;
#X connect 33 0 35 0;
#X connect 34 0 26 0;
#X connect 35 0 34 1;
#X connect 37 0 38 0;
#X connect 38 0 33 0;
#X connect 39 0 1 0;
#X connect 41 0 42 0;
#X connect 41 0 25 1;
#X connect 41 0 3 1;
#X connect 44 0 3 0;
#X connect 44 0 25 0;
#X connect 44 0 43 0;
#X connect 45 0 46 0;
#X coords 0 -1 1 1 190 70 1 100 100;
