#N canvas 65 59 991 595 10;
#X obj 38 360 stereo_inlet~ \$0;
#X obj 35 384 stereo_outlet~ \$0;
#X text 90 415 TODO;
#X text 25 450 sauvegarde;
#X text 27 473 multiple patterns;
#X obj 218 104 vsl 70 17 1 0 0 0 \$0-presets \$0-presets-rcv PRESETS
2 5 0 10 -232576 -232576 -1 0 1;
#X obj 428 147 module_declare data_upic \$0;
#X obj 428 212 switch~;
#X obj 598 294 module_loader data_upic \$0;
#X obj 598 313 u_dispatch \$0 points;
#X obj 233 126 tgl 15 0 \$0-enable \$0-enable-rcv enable 17 7 0 10
-262144 -1 -1 1 1;
#X obj 371 17 r STOP;
#X msg 334 35 0;
#X msg 454 39 1;
#X obj 470 13 r PLAY;
#X obj 179 142 bng 15 250 50 0 \$0-get_calibration_points empty cal.
2 -5 0 8 -257985 -1 -1;
#X obj 598 332 u_dispatch \$0 transpose;
#X msg 327 196 set \$1;
#X obj 338 233 s \$0-enable-rcv;
#N canvas 0 50 843 626 communication_instance_video 0;
#X obj 148 59 r UPIC;
#X obj 164 104 unpack f f;
#X obj 214 251 s TO_VIDEO;
#X msg 205 346 note \$1 \$2;
#X obj 141 170 spigot;
#X obj 136 190 t b;
#X obj 176 124 r \$0-transpose;
#X obj 207 320 pack f f;
#X obj 186 193 spigot;
#X obj 210 166 t f f;
#X msg 296 281 stop;
#X obj 290 254 select 0;
#X obj 155 81 route note calibration_data;
#X obj 248 105 s \$0-points;
#X msg 422 306 UPIC get_calibration_points;
#X obj 42 406 route set_calibration_points;
#X obj 299 183 list prepend UPIC set_calibration_points;
#X obj 60 213 s \$0-noteout-rcv;
#X obj 456 282 r \$0-get_calibration_points;
#X obj 398 60 r \$0-busy;
#X obj 306 135 r \$0-enable;
#X obj 175 376 inlet;
#X obj 176 449 outlet;
#X msg 214 224 UPIC \$1;
#X text 127 17 récepteur global (cf [pd network] dans main patch;
#X obj 158 146 + 24;
#X connect 0 0 12 0;
#X connect 1 0 25 0;
#X connect 1 1 4 1;
#X connect 1 1 7 1;
#X connect 3 0 22 0;
#X connect 4 0 5 0;
#X connect 5 0 17 0;
#X connect 6 0 25 1;
#X connect 7 0 3 0;
#X connect 8 0 7 0;
#X connect 9 0 23 0;
#X connect 9 1 8 1;
#X connect 9 1 11 0;
#X connect 11 0 10 0;
#X connect 12 0 1 0;
#X connect 12 1 13 0;
#X connect 14 0 2 0;
#X connect 15 0 16 0;
#X connect 15 1 22 0;
#X connect 16 0 2 0;
#X connect 18 0 14 0;
#X connect 19 0 9 0;
#X connect 20 0 9 0;
#X connect 21 0 15 0;
#X connect 23 0 2 0;
#X connect 25 0 4 0;
#X connect 25 0 8 0;
#X restore 35 272 pd communication_instance_video;
#X obj 35 331 data_outlet \$0;
#X obj 37 196 data_inlet \$0;
#X obj 720 216 round_param \$0 beat;
#X obj 706 124 round_param \$0 transpose;
#X text 99 215 1 blanche;
#X text 99 235 2 noire;
#X text 199 215 3 croche;
#X text 199 235 4 double;
#X obj 599 370 u_parameter \$0 beat;
#X obj 138 114 vradio 14 1 0 4 \$0-beat \$0-beat-rcv empty 0 -8 0 10
-4032 -1 -1 3;
#X obj 177 100 tgl 15 0 \$0-sync \$0-sync-rcv sync 17 7 0 10 -4032
-1 -1 0 1;
#X obj 599 389 u_parameter \$0 sync;
#X obj 599 351 u_dispatch \$0 quarters;
#X obj 716 160 round_param \$0 quarters;
#X obj 101 114 bng 18 250 50 0 empty empty empty 17 7 0 10 -262144
-1 -1;
#X obj 119 114 bng 18 250 50 0 empty empty empty 17 7 0 10 -262144
-1 -1;
#X obj 185 9 r \$0-quarters;
#X obj 183 33 +;
#X msg 76 8 1;
#X obj 195 70 s \$0-quarters;
#X msg 51 42 -1;
#X obj 100 115 ui_vs \$0 quarters 1 64;
#X text 106 113 -|+;
#X text 156 154 1/16;
#X obj 363 429 r \$0-sync;
#X msg 381 477 UPIC start \$1;
#X obj 368 453 == 0;
#X obj 182 297 route note;
#N canvas 0 50 450 300 sync_flush 0;
#X obj 273 31 inlet;
#X obj 92 258 outlet;
#X obj 85 36 inlet flush;
#X obj 149 117 list prepend add2;
#X obj 153 151 list trim;
#X obj 247 164 t b a;
#X msg 201 208 addcomma;
#X msg 180 238;
#X msg 60 105 set;
#X obj 94 81 t b b;
#X obj 304 71 r \$0-sync;
#X obj 262 92 spigot;
#X obj 79 69 bng 15 250 50 0 empty empty empty 17 7 0 10 -262144 -1
-1;
#X obj 354 111 r \$0-sync;
#X obj 379 147 == 0;
#X obj 312 172 spigot 1;
#X connect 0 0 11 0;
#X connect 0 0 15 0;
#X connect 2 0 9 0;
#X connect 2 0 12 0;
#X connect 3 0 4 0;
#X connect 4 0 5 0;
#X connect 5 0 6 0;
#X connect 5 1 7 0;
#X connect 6 0 7 0;
#X connect 7 0 1 0;
#X connect 8 0 7 0;
#X connect 9 0 8 0;
#X connect 9 1 7 0;
#X connect 10 0 11 1;
#X connect 11 0 3 0;
#X connect 13 0 14 0;
#X connect 14 0 15 1;
#X connect 15 0 1 0;
#X restore 238 424 pd sync_flush;
#X obj 394 513 s TO_VIDEO;
#N canvas 0 50 623 588 lecture 0;
#X obj 341 26 r \$0-beat;
#X obj 246 176 mod;
#X obj 246 197 select 0;
#X obj 341 82 select 0 1 2 3;
#X msg 412 176 6;
#X obj 317 103 bng 15 250 50 0 empty empty empty 17 7 0 10 -262144
-1 -1;
#X msg 137 247 UPIC index \$1;
#X obj 131 312 s TO_VIDEO;
#X obj 480 214 * 24;
#X obj 480 188 r \$0-quarters;
#X obj 426 287 /;
#X obj 318 144 t f f;
#X obj 475 252 t b f;
#X obj 295 275 f;
#X obj 335 270 +;
#X obj 313 314 moses 1;
#X msg 359 347 0;
#X obj 310 350 t f;
#X obj 131 178 r \$0-sync;
#X obj 131 283 spigot;
#X obj 209 131 + 10;
#X obj 56 186 mod;
#X obj 56 207 select 0;
#X obj 36 51 r TICS;
#X obj 42 285 outlet;
#X msg 418 386 0;
#X obj 429 345 r PLAY;
#X obj 71 243 spigot;
#X obj 93 107 +;
#X obj 110 77 r \$0-offset;
#X msg 341 115 24;
#X msg 364 135 12;
#X msg 388 156 8;
#X connect 0 0 3 0;
#X connect 1 0 2 0;
#X connect 2 0 13 0;
#X connect 3 0 30 0;
#X connect 3 0 5 0;
#X connect 3 1 31 0;
#X connect 3 2 32 0;
#X connect 3 3 4 0;
#X connect 4 0 11 0;
#X connect 6 0 19 0;
#X connect 8 0 12 0;
#X connect 9 0 8 0;
#X connect 10 0 14 1;
#X connect 11 0 1 1;
#X connect 11 0 21 1;
#X connect 11 1 10 0;
#X connect 12 0 10 0;
#X connect 12 1 10 1;
#X connect 13 0 15 0;
#X connect 14 0 13 1;
#X connect 15 0 14 0;
#X connect 15 0 17 0;
#X connect 15 1 16 0;
#X connect 16 0 13 1;
#X connect 16 0 17 0;
#X connect 17 0 6 0;
#X connect 18 0 19 1;
#X connect 18 0 27 1;
#X connect 19 0 7 0;
#X connect 20 0 1 0;
#X connect 21 0 22 0;
#X connect 22 0 27 0;
#X connect 23 0 28 0;
#X connect 25 0 13 1;
#X connect 26 0 25 0;
#X connect 27 0 24 0;
#X connect 28 0 21 0;
#X connect 28 0 20 0;
#X connect 29 0 28 1;
#X connect 30 0 11 0;
#X connect 31 0 11 0;
#X connect 32 0 11 0;
#X restore 223 379 pd lecture synchro index;
#X msg 264 448 note \$1 \$2;
#X obj 180 125 bng 8 50 20 0 empty \$0-noteout-rcv NOTE 0 -4 0 7 -1
-258113 -1;
#X obj 248 155 hsl 40 15 0 24 0 0 \$0-offset \$0-offset-rcv OFFSET
4 6 0 10 -4032 -1 -1 0 1;
#X obj 599 411 u_parameter \$0 offset;
#X obj 828 258 round_param \$0 offset;
#X obj 248 140 hsl 40 15 0 0.3 0 0 \$0-margins \$0-margins-rcv MARGINS
1 6 0 10 -204786 -1 -1 0 1;
#X obj 600 476 u_parameter \$0 margins;
#X obj 485 439 r \$0-margins;
#X msg 501 473 UPIC margins \$1;
#X text 156 113 1/4;
#X text 156 128 1/8;
#X text 156 142 1/12;
#X obj 294 281 route enable;
#X obj 194 115 ui_vs \$0 transpose 24 103;
#X connect 0 0 1 0;
#X connect 0 1 1 1;
#X connect 6 0 7 0;
#X connect 6 0 17 0;
#X connect 8 0 9 0;
#X connect 9 0 16 0;
#X connect 11 0 12 0;
#X connect 12 0 17 0;
#X connect 13 0 17 0;
#X connect 14 0 13 0;
#X connect 16 0 32 0;
#X connect 17 0 18 0;
#X connect 19 0 47 0;
#X connect 21 0 63 0;
#X connect 28 0 31 0;
#X connect 31 0 54 0;
#X connect 32 0 28 0;
#X connect 34 0 40 0;
#X connect 35 0 38 0;
#X connect 36 0 37 1;
#X connect 37 0 39 0;
#X connect 38 0 37 0;
#X connect 40 0 37 0;
#X connect 44 0 46 0;
#X connect 45 0 49 0;
#X connect 46 0 45 0;
#X connect 47 0 48 1;
#X connect 47 1 20 0;
#X connect 48 0 51 0;
#X connect 50 0 48 0;
#X connect 51 0 20 0;
#X connect 54 0 57 0;
#X connect 58 0 59 0;
#X connect 59 0 49 0;
#X connect 63 0 18 0;
#X connect 63 1 19 0;
#X coords 0 -1 1 1 190 70 1 100 100;
