#N canvas 0 50 991 595 10;
#X obj 98 320 stereo_inlet~ \$0;
#X obj 95 344 stereo_outlet~ \$0;
#X text 90 415 TODO;
#X text 25 450 sauvegarde;
#X text 27 473 multiple patterns;
#X obj 218 104 vsl 70 17 1 0 0 0 \$0-presets \$0-presets-rcv PRESETS
2 5 0 10 -232576 -232576 -1 0 1;
#X obj 428 212 switch~;
#X obj 419 458 s TO_VIDEO;
#X obj 205 529 data_outlet \$0;
#X obj 205 496 data_inlet \$0;
#X obj 848 239 r CYCLOGROOVE;
#X obj 428 147 module_declare data_feuilleA4 \$0;
#X obj 598 294 module_loader data_feuilleA4 \$0;
#X msg 419 421 FEUILLEA4 \$1;
#X obj 454 307 r \$0-busy;
#X obj 344 276 r FEUILLEA4;
#X obj 300 340 route set_calibration_points;
#X obj 297 378 list prepend set_calibration_points;
#X obj 286 414 list trim;
#X obj 607 347 u_dispatch \$0 scale;
#X msg 578 465 FEUILLEA4 scale \$1;
#X obj 635 413 r \$0-scale;
#X obj 104 114 ui_vs \$0 scale 400 2000;
#X obj 259 223 t b b;
#X msg 272 282 1;
#X msg 255 277 0;
#X obj 260 310 change;
#X obj 182 146 tgl 15 0 empty empty Détection 17 7 0 10 -262144 -1
-1 1 1;
#X obj 255 255 delay 400;
#X obj 334 225 bng 15 250 50 0 empty empty empty 17 7 0 10 -262144
-1 -1;
#X msg 247 365 enable \$1;
#X connect 0 0 1 0;
#X connect 0 1 1 1;
#X connect 9 0 8 0;
#X connect 11 0 6 0;
#X connect 12 0 19 0;
#X connect 13 0 7 0;
#X connect 14 0 13 0;
#X connect 15 0 16 0;
#X connect 16 0 17 0;
#X connect 16 0 23 0;
#X connect 17 0 18 0;
#X connect 18 0 8 0;
#X connect 20 0 7 0;
#X connect 21 0 20 0;
#X connect 23 0 28 0;
#X connect 23 1 24 0;
#X connect 23 1 29 0;
#X connect 24 0 26 0;
#X connect 25 0 26 0;
#X connect 26 0 27 0;
#X connect 26 0 30 0;
#X connect 28 0 25 0;
#X connect 30 0 8 0;
#X coords 0 -1 1 1 190 70 1 100 100;
