#N canvas 407 237 678 486 10;
#N canvas 172 83 586 377 LICENSE-GPL 0;
#X text 57 88 This program is free software: you can redistribute it
and/or modify it under the terms of the GNU General Public License
as published by the Free Software Foundation \, either version 3 of
the License \, or (at your option) any later version.;
#X text 58 168 This program is distributed in the hope that it will
be useful \, but WITHOUT ANY WARRANTY \; without even the implied warranty
of MERCHANTABILITY or FITNESS FOR A PARTICULAR PURPOSE. See the GNU
General Public License for more details.;
#X text 57 261 You should have received a copy of the GNU General Public
License along with this program. If not \, see <http://www.gnu.org/licenses/>.
;
#X text 61 54 Copyright (C) 2009 \, Reality Jockey Ltd.;
#X text 60 325 See the file LICENSE.txt for the full license text.
;
#X restore 298 15 pd LICENSE-GPL;
#X obj 351 181 switch~;
#N canvas 349 164 1366 685 keyboard 0;
#X obj 70 -22 key;
#X obj 440 -21 keyup;
#X msg 446 436 \$1 0;
#X obj 253 634 outlet;
#X text 132 -19 touche appuyée;
#X text 543 -23 touche relachée;
#X text 240 488 message 'note on';
#X text 523 429 message 'note off';
#X text 19 332 numéro de note midi correspondant;
#N canvas 0 50 774 651 anti_repetition(windows) 0;
#X obj 31 8 inlet;
#X obj 395 21 inlet;
#X obj 34 521 outlet;
#X obj 571 498 outlet;
#X obj 106 132 change;
#X obj 173 265 select;
#X msg 225 82 set 0;
#X obj 92 185 t f f;
#X connect 0 0 4 0;
#X connect 1 0 5 0;
#X connect 1 0 3 0;
#X connect 4 0 7 0;
#X connect 5 0 6 0;
#X connect 6 0 4 0;
#X connect 7 0 2 0;
#X connect 7 1 5 1;
#X restore 106 193 pd anti_repetition(windows);
#N canvas 0 50 851 445 azerty_to_midi 0;
#X obj 123 66 inlet;
#X text 151 193 |Q|S|D|F|G|H|J|K|L|M|;
#X text 164 162 |Z|E| |T|Y|U| |O|P|;
#X obj 624 402 select 122 101 116 121 117 111 112;
#X obj 42 229 select 113 115 100 102 103 104 106 107 108 109;
#X msg 42 294 72;
#X msg 106 295 74;
#X msg 170 295 76;
#X msg 234 296 77;
#X msg 298 298 79;
#X msg 362 298 81;
#X msg 427 300 83;
#X msg 491 299 84;
#X msg 554 298 86;
#X msg 618 297 88;
#X msg 623 474 73;
#X msg 691 472 75;
#X msg 759 473 78;
#X msg 827 474 80;
#X msg 894 472 82;
#X msg 961 473 85;
#X msg 1029 473 87;
#X text 46 258 do;
#X text 107 260 ré;
#X text 175 261 mi;
#X text 239 262 fa;
#X text 302 262 sol;
#X text 366 262 la;
#X text 434 261 si;
#X text 498 262 do;
#X text 557 262 ré;
#X text 625 263 mi;
#X text 618 438 do#;
#X text 679 438 ré#;
#X text 765 439 fa#;
#X text 833 439 sol#;
#X text 900 437 la#;
#X text 966 437 do#;
#X text 1045 439 ré#;
#X obj 310 564 outlet;
#X text 204 72 conversion code ascii des touches en numéros de notes
midi;
#X connect 0 0 4 0;
#X connect 3 0 15 0;
#X connect 3 1 16 0;
#X connect 3 2 17 0;
#X connect 3 3 18 0;
#X connect 3 4 19 0;
#X connect 3 5 20 0;
#X connect 3 6 21 0;
#X connect 4 0 5 0;
#X connect 4 1 6 0;
#X connect 4 2 7 0;
#X connect 4 3 8 0;
#X connect 4 4 9 0;
#X connect 4 5 10 0;
#X connect 4 6 11 0;
#X connect 4 7 12 0;
#X connect 4 8 13 0;
#X connect 4 9 14 0;
#X connect 4 10 3 0;
#X connect 5 0 39 0;
#X connect 6 0 39 0;
#X connect 7 0 39 0;
#X connect 8 0 39 0;
#X connect 9 0 39 0;
#X connect 10 0 39 0;
#X connect 11 0 39 0;
#X connect 12 0 39 0;
#X connect 13 0 39 0;
#X connect 14 0 39 0;
#X connect 15 0 39 0;
#X connect 16 0 39 0;
#X connect 17 0 39 0;
#X connect 18 0 39 0;
#X connect 19 0 39 0;
#X connect 20 0 39 0;
#X connect 21 0 39 0;
#X restore 90 224 pd azerty_to_midi;
#N canvas 0 50 851 445 azerty_to_midi 0;
#X obj 123 66 inlet;
#X text 151 193 |Q|S|D|F|G|H|J|K|L|M|;
#X text 164 162 |Z|E| |T|Y|U| |O|P|;
#X obj 624 402 select 122 101 116 121 117 111 112;
#X obj 42 229 select 113 115 100 102 103 104 106 107 108 109;
#X msg 42 294 72;
#X msg 106 295 74;
#X msg 170 295 76;
#X msg 234 296 77;
#X msg 298 298 79;
#X msg 362 298 81;
#X msg 427 300 83;
#X msg 491 299 84;
#X msg 554 298 86;
#X msg 618 297 88;
#X msg 623 474 73;
#X msg 691 472 75;
#X msg 759 473 78;
#X msg 827 474 80;
#X msg 894 472 82;
#X msg 961 473 85;
#X msg 1029 473 87;
#X text 46 258 do;
#X text 107 260 ré;
#X text 175 261 mi;
#X text 239 262 fa;
#X text 302 262 sol;
#X text 366 262 la;
#X text 434 261 si;
#X text 498 262 do;
#X text 557 262 ré;
#X text 625 263 mi;
#X text 618 438 do#;
#X text 679 438 ré#;
#X text 765 439 fa#;
#X text 833 439 sol#;
#X text 900 437 la#;
#X text 966 437 do#;
#X text 1045 439 ré#;
#X obj 310 564 outlet;
#X text 204 72 conversion code ascii des touches en numéros de notes
midi;
#X connect 0 0 4 0;
#X connect 3 0 15 0;
#X connect 3 1 16 0;
#X connect 3 2 17 0;
#X connect 3 3 18 0;
#X connect 3 4 19 0;
#X connect 3 5 20 0;
#X connect 3 6 21 0;
#X connect 4 0 5 0;
#X connect 4 1 6 0;
#X connect 4 2 7 0;
#X connect 4 3 8 0;
#X connect 4 4 9 0;
#X connect 4 5 10 0;
#X connect 4 6 11 0;
#X connect 4 7 12 0;
#X connect 4 8 13 0;
#X connect 4 9 14 0;
#X connect 4 10 3 0;
#X connect 5 0 39 0;
#X connect 6 0 39 0;
#X connect 7 0 39 0;
#X connect 8 0 39 0;
#X connect 9 0 39 0;
#X connect 10 0 39 0;
#X connect 11 0 39 0;
#X connect 12 0 39 0;
#X connect 13 0 39 0;
#X connect 14 0 39 0;
#X connect 15 0 39 0;
#X connect 16 0 39 0;
#X connect 17 0 39 0;
#X connect 18 0 39 0;
#X connect 19 0 39 0;
#X connect 20 0 39 0;
#X connect 21 0 39 0;
#X restore 370 224 pd azerty_to_midi;
#X obj 70 111 select 119 120 99 118;
#X text 201 157 w x c v;
#X obj 427 127 select 119 120 99 118;
#N canvas 0 50 450 300 changement_octave 0;
#X obj 99 53 inlet down;
#X obj 189 53 inlet up;
#X obj 144 180 max -2;
#X obj 221 174 min 4;
#X obj 109 153 +;
#X msg 89 90 -1;
#X msg 186 92 1;
#X obj 126 127 r \$0-oct;
#X obj 232 197 s \$0-oct;
#X connect 0 0 5 0;
#X connect 1 0 6 0;
#X connect 2 0 3 0;
#X connect 3 0 8 0;
#X connect 4 0 2 0;
#X connect 5 0 4 0;
#X connect 6 0 4 0;
#X connect 7 0 4 1;
#X restore 58 141 pd changement_octave;
#X obj 211 287 * 12;
#X obj 60 290 +;
#X obj 521 297 * 12;
#X obj 370 300 +;
#X obj 219 376 r \$0-velo;
#N canvas 0 50 436 467 changement_velocite 0;
#X obj 99 53 inlet down;
#X obj 189 53 inlet up;
#X obj 87 170 +;
#X obj 195 122 r \$0-velo;
#X obj 119 295 s \$0-velo;
#X msg 89 90 -20;
#X msg 186 92 20;
#X obj 107 245 max 1;
#X obj 108 272 min 127;
#X msg 226 217 120;
#X obj 205 182 select 107 21;
#X msg 322 213 20;
#X connect 0 0 5 0;
#X connect 1 0 6 0;
#X connect 2 0 10 0;
#X connect 3 0 2 1;
#X connect 5 0 2 0;
#X connect 6 0 2 0;
#X connect 7 0 8 0;
#X connect 8 0 4 0;
#X connect 9 0 7 0;
#X connect 10 0 9 0;
#X connect 10 1 11 0;
#X connect 10 2 7 0;
#X connect 11 0 7 0;
#X restore 238 141 pd changement_velocite;
#X obj 353 -22 r \$0-busy;
#X obj 64 -2 spigot;
#X obj 484 8 spigot;
#X obj 220 262 r \$0-oct;
#X obj 530 272 r \$0-oct;
#X obj 64 256 - 48;
#X obj 388 258 - 48;
#X obj 134 427 pack f 80;
#X obj 74 68 spigot;
#X obj 494 78 spigot;
#X obj 363 48 r \$0-enable;
#X connect 0 0 23 0;
#X connect 1 0 24 0;
#X connect 2 0 3 0;
#X connect 9 0 10 0;
#X connect 9 1 11 0;
#X connect 10 0 27 0;
#X connect 11 0 28 0;
#X connect 12 0 15 0;
#X connect 12 1 15 1;
#X connect 12 2 21 0;
#X connect 12 3 21 1;
#X connect 12 4 9 0;
#X connect 14 4 9 1;
#X connect 16 0 17 1;
#X connect 17 0 29 0;
#X connect 18 0 19 1;
#X connect 19 0 2 0;
#X connect 20 0 29 1;
#X connect 22 0 23 1;
#X connect 22 0 24 1;
#X connect 23 0 30 0;
#X connect 24 0 31 0;
#X connect 25 0 16 0;
#X connect 26 0 18 0;
#X connect 27 0 17 0;
#X connect 28 0 19 0;
#X connect 29 0 3 0;
#X connect 30 0 12 0;
#X connect 31 0 14 0;
#X connect 32 0 30 1;
#X connect 32 0 31 1;
#X restore 210 261 pd keyboard;
#X obj 101 101 cnv 15 188 68 empty \$0-background data_azerty2midi
0 7 0 14 -260818 -1 0;
#X obj 29 260 stereo_inlet~ \$0;
#X obj 30 286 stereo_outlet~ \$0;
#X obj 117 345 data_inlet \$0;
#X obj 117 375 data_outlet \$0;
#X msg 260 342 note \$1 \$2;
#X floatatom 253 111 5 0 0 0 velocite #0-velo-rcv #0-velo, f 5;
#X obj 367 268 u_parameter \$0 velo;
#X obj 367 298 u_parameter \$0 oct;
#X floatatom 253 125 5 0 0 0 octave #0-oct-rcv #0-oct, f 5;
#X obj 115 140 cnv 10 10 20 empty empty empty 20 12 0 14 -99865 -66577
0;
#X obj 130 140 cnv 10 10 20 empty empty empty 20 12 0 14 -99865 -66577
0;
#X obj 157 140 cnv 10 10 20 empty empty empty 20 12 0 14 -99865 -66577
0;
#X obj 172 140 cnv 10 10 20 empty empty empty 20 12 0 14 -99865 -66577
0;
#X obj 186 140 cnv 10 10 20 empty empty empty 20 12 0 14 -99865 -66577
0;
#X obj 212 140 cnv 10 10 20 empty empty empty 20 12 0 14 -99865 -66577
0;
#X obj 226 140 cnv 10 10 20 empty empty empty 20 12 0 14 -99865 -66577
0;
#X text 103 154 |Q|S|D|F|G|H|J|K|L|M|;
#X text 109 143 |Z|E| |T|Y|U| |O|P|;
#X obj 367 241 module_loader data_azerty2midi \$0;
#X obj 353 112 module_declare data_azerty2midi \$0;
#X obj 461 352 loadbang;
#X msg 454 401 velo 80;
#X obj 258 140 tgl 30 0 \$0-enable \$0-enable-rcv ENABLE 2 15 0 8 -262144
-1 -1 0 1;
#X obj 367 328 u_parameter \$0 enable;
#X connect 2 0 8 0;
#X connect 4 0 5 0;
#X connect 6 0 7 0;
#X connect 8 0 7 0;
#X connect 10 0 11 0;
#X connect 11 0 27 0;
#X connect 22 0 10 0;
#X connect 23 0 1 0;
#X connect 24 0 25 0;
#X connect 25 0 10 0;
#X coords 0 -1 1 1 190 70 1 100 100;
