#N struct 1014-symarray float x array symbols 1014-sym;
#N struct 1014-sym symbol name float on;
#N canvas 407 237 678 486 10;
#N canvas 172 83 586 377 LICENSE-GPL 0;
#X text 57 88 This program is free software: you can redistribute it
and/or modify it under the terms of the GNU General Public License
as published by the Free Software Foundation \, either version 3 of
the License \, or (at your option) any later version.;
#X text 58 168 This program is distributed in the hope that it will
be useful \, but WITHOUT ANY WARRANTY \; without even the implied warranty
of MERCHANTABILITY or FITNESS FOR A PARTICULAR PURPOSE. See the GNU
General Public License for more details.;
#X text 57 261 You should have received a copy of the GNU General Public
License along with this program. If not \, see <http://www.gnu.org/licenses/>.
;
#X text 61 54 Copyright (C) 2009 \, Reality Jockey Ltd.;
#X text 60 325 See the file LICENSE.txt for the full license text.
;
#X restore 298 15 pd LICENSE-GPL;
#N canvas 0 50 1362 685 keyboard 0;
#X obj 70 -22 key;
#X obj 440 -21 keyup;
#X msg 446 436 \$1 0;
#X obj 253 634 outlet;
#X text 132 -19 touche appuyée;
#X text 543 -23 touche relachée;
#X text 240 488 message 'note on';
#X text 523 429 message 'note off';
#X text 19 332 numéro de note midi correspondant;
#N canvas 0 50 851 445 azerty_to_midi 0;
#X obj 123 66 inlet;
#X text 151 193 |Q|S|D|F|G|H|J|K|L|M|;
#X text 164 162 |Z|E| |T|Y|U| |O|P|;
#X obj 624 402 select 122 101 116 121 117 111 112;
#X obj 42 229 select 113 115 100 102 103 104 106 107 108 109;
#X msg 42 294 72;
#X msg 106 295 74;
#X msg 170 295 76;
#X msg 234 296 77;
#X msg 298 298 79;
#X msg 362 298 81;
#X msg 427 300 83;
#X msg 491 299 84;
#X msg 554 298 86;
#X msg 618 297 88;
#X msg 623 474 73;
#X msg 691 472 75;
#X msg 759 473 78;
#X msg 827 474 80;
#X msg 894 472 82;
#X msg 961 473 85;
#X msg 1029 473 87;
#X text 46 258 do;
#X text 107 260 ré;
#X text 175 261 mi;
#X text 239 262 fa;
#X text 302 262 sol;
#X text 366 262 la;
#X text 434 261 si;
#X text 498 262 do;
#X text 557 262 ré;
#X text 625 263 mi;
#X text 618 438 do#;
#X text 679 438 ré#;
#X text 765 439 fa#;
#X text 833 439 sol#;
#X text 900 437 la#;
#X text 966 437 do#;
#X text 1045 439 ré#;
#X obj 310 564 outlet;
#X text 204 72 conversion code ascii des touches en numéros de notes
midi;
#X connect 0 0 4 0;
#X connect 3 0 15 0;
#X connect 3 1 16 0;
#X connect 3 2 17 0;
#X connect 3 3 18 0;
#X connect 3 4 19 0;
#X connect 3 5 20 0;
#X connect 3 6 21 0;
#X connect 4 0 5 0;
#X connect 4 1 6 0;
#X connect 4 2 7 0;
#X connect 4 3 8 0;
#X connect 4 4 9 0;
#X connect 4 5 10 0;
#X connect 4 6 11 0;
#X connect 4 7 12 0;
#X connect 4 8 13 0;
#X connect 4 9 14 0;
#X connect 4 10 3 0;
#X connect 5 0 39 0;
#X connect 6 0 39 0;
#X connect 7 0 39 0;
#X connect 8 0 39 0;
#X connect 9 0 39 0;
#X connect 10 0 39 0;
#X connect 11 0 39 0;
#X connect 12 0 39 0;
#X connect 13 0 39 0;
#X connect 14 0 39 0;
#X connect 15 0 39 0;
#X connect 16 0 39 0;
#X connect 17 0 39 0;
#X connect 18 0 39 0;
#X connect 19 0 39 0;
#X connect 20 0 39 0;
#X connect 21 0 39 0;
#X restore 90 224 pd azerty_to_midi;
#N canvas 0 50 851 445 azerty_to_midi 0;
#X obj 123 66 inlet;
#X text 151 193 |Q|S|D|F|G|H|J|K|L|M|;
#X text 164 162 |Z|E| |T|Y|U| |O|P|;
#X obj 624 402 select 122 101 116 121 117 111 112;
#X obj 42 229 select 113 115 100 102 103 104 106 107 108 109;
#X msg 42 294 72;
#X msg 106 295 74;
#X msg 170 295 76;
#X msg 234 296 77;
#X msg 298 298 79;
#X msg 362 298 81;
#X msg 427 300 83;
#X msg 491 299 84;
#X msg 554 298 86;
#X msg 618 297 88;
#X msg 623 474 73;
#X msg 691 472 75;
#X msg 759 473 78;
#X msg 827 474 80;
#X msg 894 472 82;
#X msg 961 473 85;
#X msg 1029 473 87;
#X text 46 258 do;
#X text 107 260 ré;
#X text 175 261 mi;
#X text 239 262 fa;
#X text 302 262 sol;
#X text 366 262 la;
#X text 434 261 si;
#X text 498 262 do;
#X text 557 262 ré;
#X text 625 263 mi;
#X text 618 438 do#;
#X text 679 438 ré#;
#X text 765 439 fa#;
#X text 833 439 sol#;
#X text 900 437 la#;
#X text 966 437 do#;
#X text 1045 439 ré#;
#X obj 310 564 outlet;
#X text 204 72 conversion code ascii des touches en numéros de notes
midi;
#X connect 0 0 4 0;
#X connect 3 0 15 0;
#X connect 3 1 16 0;
#X connect 3 2 17 0;
#X connect 3 3 18 0;
#X connect 3 4 19 0;
#X connect 3 5 20 0;
#X connect 3 6 21 0;
#X connect 4 0 5 0;
#X connect 4 1 6 0;
#X connect 4 2 7 0;
#X connect 4 3 8 0;
#X connect 4 4 9 0;
#X connect 4 5 10 0;
#X connect 4 6 11 0;
#X connect 4 7 12 0;
#X connect 4 8 13 0;
#X connect 4 9 14 0;
#X connect 4 10 3 0;
#X connect 5 0 39 0;
#X connect 6 0 39 0;
#X connect 7 0 39 0;
#X connect 8 0 39 0;
#X connect 9 0 39 0;
#X connect 10 0 39 0;
#X connect 11 0 39 0;
#X connect 12 0 39 0;
#X connect 13 0 39 0;
#X connect 14 0 39 0;
#X connect 15 0 39 0;
#X connect 16 0 39 0;
#X connect 17 0 39 0;
#X connect 18 0 39 0;
#X connect 19 0 39 0;
#X connect 20 0 39 0;
#X connect 21 0 39 0;
#X restore 370 224 pd azerty_to_midi;
#X obj 70 111 select 119 120 99 118;
#X text 201 157 w x c v;
#X obj 427 127 select 119 120 99 118;
#N canvas 0 50 450 300 changement_octave 0;
#X obj 99 53 inlet down;
#X obj 189 53 inlet up;
#X obj 144 180 max -2;
#X obj 109 153 +;
#X msg 89 90 -1;
#X msg 186 92 1;
#X obj 126 127 r \$0-oct;
#X obj 232 197 s \$0-oct;
#X obj 221 174 min 7;
#X connect 0 0 4 0;
#X connect 1 0 5 0;
#X connect 2 0 8 0;
#X connect 3 0 2 0;
#X connect 4 0 3 0;
#X connect 5 0 3 0;
#X connect 6 0 3 1;
#X connect 8 0 7 0;
#X restore 58 141 pd changement_octave;
#X obj 211 287 * 12;
#X obj 60 290 +;
#X obj 521 297 * 12;
#X obj 370 300 +;
#X obj 219 376 r \$0-velo;
#N canvas 0 50 436 467 changement_velocite 0;
#X obj 99 53 inlet down;
#X obj 189 53 inlet up;
#X obj 87 170 +;
#X obj 195 122 r \$0-velo;
#X obj 119 295 s \$0-velo;
#X msg 89 90 -20;
#X msg 186 92 20;
#X obj 107 245 max 1;
#X obj 108 272 min 127;
#X msg 226 217 120;
#X obj 205 182 select 107 21;
#X msg 322 213 20;
#X connect 0 0 5 0;
#X connect 1 0 6 0;
#X connect 2 0 10 0;
#X connect 3 0 2 1;
#X connect 5 0 2 0;
#X connect 6 0 2 0;
#X connect 7 0 8 0;
#X connect 8 0 4 0;
#X connect 9 0 7 0;
#X connect 10 0 9 0;
#X connect 10 1 11 0;
#X connect 10 2 7 0;
#X connect 11 0 7 0;
#X restore 238 141 pd changement_velocite;
#X obj 353 -22 r \$0-busy;
#X obj 64 -2 spigot;
#X obj 484 8 spigot;
#X obj 220 262 r \$0-oct;
#X obj 530 272 r \$0-oct;
#X obj 64 256 - 48;
#X obj 388 258 - 48;
#X obj 177 477 pack f 80;
#X obj 74 68 spigot;
#X obj 494 78 spigot;
#X obj 363 48 r \$0-enable;
#X obj 52 355 t f f;
#X obj 700 290 table \$0-notes 127;
#X obj 82 382 tabread \$0-notes;
#X obj 87 407 == 0;
#X obj 72 533 tabwrite \$0-notes;
#X obj 49 438 spigot;
#X obj 49 460 t f b f;
#X msg 70 497 1;
#X obj 428 360 t f b f;
#X obj 492 403 tabwrite \$0-notes;
#X msg 492 380 0;
#X connect 0 0 22 0;
#X connect 1 0 23 0;
#X connect 2 0 3 0;
#X connect 9 0 26 0;
#X connect 10 0 27 0;
#X connect 11 0 14 0;
#X connect 11 1 14 1;
#X connect 11 2 20 0;
#X connect 11 3 20 1;
#X connect 11 4 9 0;
#X connect 13 4 10 0;
#X connect 15 0 16 1;
#X connect 16 0 32 0;
#X connect 17 0 18 1;
#X connect 18 0 40 0;
#X connect 19 0 28 1;
#X connect 21 0 22 1;
#X connect 21 0 23 1;
#X connect 22 0 29 0;
#X connect 23 0 30 0;
#X connect 24 0 15 0;
#X connect 25 0 17 0;
#X connect 26 0 16 0;
#X connect 27 0 18 0;
#X connect 28 0 3 0;
#X connect 29 0 11 0;
#X connect 30 0 13 0;
#X connect 31 0 29 1;
#X connect 31 0 30 1;
#X connect 32 0 37 0;
#X connect 32 1 34 0;
#X connect 34 0 35 0;
#X connect 35 0 37 1;
#X connect 37 0 38 0;
#X connect 38 0 28 0;
#X connect 38 1 39 0;
#X connect 38 2 36 1;
#X connect 39 0 36 0;
#X connect 40 0 2 0;
#X connect 40 1 42 0;
#X connect 40 2 41 1;
#X connect 42 0 41 0;
#X restore 201 221 pd keyboard;
#X obj 101 101 cnv 15 188 68 empty \$0-background data_azerty2midi
0 7 0 14 -262144 -1 0;
#X msg 191 259 note \$1 \$2;
#X floatatom 253 111 5 0 0 0 velocite #0-velo-rcv #0-velo, f 5;
#X obj 367 268 u_parameter \$0 velo;
#X obj 367 298 u_parameter \$0 oct;
#X floatatom 253 125 5 0 0 0 octave #0-oct-rcv #0-oct, f 5;
#X obj 115 140 cnv 10 10 20 empty empty empty 20 12 0 14 -99865 -66577
0;
#X obj 130 140 cnv 10 10 20 empty empty empty 20 12 0 14 -99865 -66577
0;
#X obj 157 140 cnv 10 10 20 empty empty empty 20 12 0 14 -99865 -66577
0;
#X obj 172 140 cnv 10 10 20 empty empty empty 20 12 0 14 -99865 -66577
0;
#X obj 186 140 cnv 10 10 20 empty empty empty 20 12 0 14 -99865 -66577
0;
#X obj 212 140 cnv 10 10 20 empty empty empty 20 12 0 14 -99865 -66577
0;
#X obj 226 140 cnv 10 10 20 empty empty empty 20 12 0 14 -99865 -66577
0;
#X text 103 154 |Q|S|D|F|G|H|J|K|L|M|;
#X text 109 143 |Z|E| |T|Y|U| |O|P|;
#X obj 461 352 loadbang;
#X msg 454 401 velo 80;
#X obj 258 140 tgl 30 0 \$0-enable \$0-enable-rcv ENABLE 2 15 0 8 -262144
-1 -1 0 1;
#X obj 367 328 u_parameter \$0 enable;
#X obj 138 116 bng 15 250 50 0 empty empty empty 17 7 0 10 -262144
-1 -1;
#N canvas 458 61 450 370 midi2notename 0;
#N canvas 473 338 450 300 count 0;
#X obj 131 154 f 0;
#X obj 156 153 + 1;
#X msg 147 133 0;
#X obj 131 183 outlet;
#X obj 131 59 inlet;
#X obj 131 96 b;
#X obj 178 61 inlet;
#X obj 178 98 b;
#X connect 0 0 1 0;
#X connect 0 0 3 0;
#X connect 1 0 0 1;
#X connect 2 0 0 1;
#X connect 4 0 5 0;
#X connect 5 0 0 0;
#X connect 6 0 7 0;
#X connect 7 0 2 0;
#X restore 330 149 pd count;
#X msg 249 99 c \, c# \, d \, d# \, e \, f \, f# \, g \, g# \, a \,
a# \, b;
#X obj 249 124 t a b;
#X obj 249 173 list prepend;
#X msg 173 173 reset;
#X obj 249 74 t b b b;
#X text -2 92 Notes example:;
#X msg 114 174 print;
#X msg 114 149 dump;
#X obj 161 198 m_symbolarray;
#X obj 252 47 loadbang;
#X obj 165 93 mod 12;
#X obj 229 43 bng 15 250 50 0 empty empty empty 17 7 0 10 -262144 -1
-1;
#X obj 166 57 t f f;
#X obj 159 227 list append;
#X obj 166 34 - 24;
#X floatatom 177 145 5 0 0 0 - - -, f 5;
#X obj 188 122 div 12;
#X obj 171 6 t f f;
#X obj 164 251 list append;
#X obj 51 50 inlet;
#X obj 164 273 outlet;
#X connect 0 0 3 1;
#X connect 1 0 2 0;
#X connect 2 0 3 0;
#X connect 2 1 0 0;
#X connect 3 0 9 1;
#X connect 4 0 9 0;
#X connect 5 0 1 0;
#X connect 5 1 4 0;
#X connect 5 2 0 1;
#X connect 7 0 9 0;
#X connect 8 0 9 0;
#X connect 9 0 14 0;
#X connect 10 0 5 0;
#X connect 11 0 9 0;
#X connect 12 0 5 0;
#X connect 13 0 11 0;
#X connect 13 1 17 0;
#X connect 14 0 19 0;
#X connect 15 0 13 0;
#X connect 17 0 16 0;
#X connect 17 0 14 1;
#X connect 18 0 15 0;
#X connect 18 1 19 1;
#X connect 19 0 21 0;
#X connect 20 0 18 0;
#X restore 277 366 pd midi2notename;
#X obj 255 292 unpack f f;
#X obj 161 121 cnv 15 20 15 empty \$0-notename-rcv e3 0 7 0 14 -232576
-66577 0;
#X obj 286 426 s \$0-notename-rcv;
#X msg 296 402 label \$1\$2;
#X msg 30 187 stop;
#X obj 367 241 module_loader data_azerty2midi \$0 \$1;
#X obj 29 260 inlet~;
#X obj 30 286 outlet~;
#X obj 89 260 inlet~;
#X obj 90 286 outlet~;
#X obj 137 355 inlet data;
#X obj 137 385 outlet data;
#X connect 1 0 21 0;
#X connect 1 0 3 0;
#X connect 3 0 34 0;
#X connect 5 0 6 0;
#X connect 6 0 20 0;
#X connect 17 0 18 0;
#X connect 18 0 5 0;
#X connect 22 0 26 0;
#X connect 23 0 22 0;
#X connect 26 0 25 0;
#X connect 27 0 34 0;
#X connect 28 0 5 0;
#X connect 29 0 30 0;
#X connect 31 0 32 0;
#X connect 33 0 34 0;
#X connect 33 0 28 0;
#X coords 0 -1 1 1 190 70 1 100 100;
