#N canvas 316 84 862 685 10;
#X declare -stdpath extra/rj/;
#X obj 112 340 stereo_outlet~;
#X obj 108 264 stereo_inlet~;
#N canvas 0 50 880 474 audio_stuff 0;
#X obj 198 52 inlet~;
#X obj 311 291 outlet~;
#X obj 406 291 outlet~;
#X obj 359 48 inlet~;
#X obj 311 264 c_xfade;
#X obj 405 266 c_xfade;
#X obj 451 234 pack 0 10;
#X obj 502 159 r \$0-wet;
#X obj 491 212 *;
#X obj 499 188 t f f;
#X obj 123 142 delwrite~ \$0-delay 3000;
#N canvas 16 50 1366 685 graindelread 0;
#X obj 258 405 *~;
#X floatatom 295 113 4 0 0 2 grain-rate - -, f 4;
#X obj 260 545 outlet~;
#X obj 258 142 phasor~;
#X obj 299 524 outlet~;
#X obj 258 359 *~;
#N canvas 0 50 450 300 pan 0;
#X obj 70 74 inlet~;
#X obj 70 200 outlet~;
#X obj 160 201 outlet~;
#X obj 178 70 inlet~;
#X obj 88 122 sig~ 1;
#X obj 88 148 -~;
#X obj 161 167 *~;
#X obj 70 172 *~;
#X text 237 71 0:left \, 1: right;
#X connect 0 0 7 0;
#X connect 0 0 6 0;
#X connect 3 0 6 1;
#X connect 3 0 5 1;
#X connect 4 0 5 0;
#X connect 5 0 7 1;
#X connect 6 0 2 0;
#X connect 7 0 1 0;
#X restore 259 458 pd pan;
#X text 311 457 0:left \, 1: right;
#N canvas 152 123 932 536 params 0;
#X obj 65 356 *~;
#X obj 64 403 +~;
#X obj 63 432 outlet~;
#X obj 66 116 inlet~;
#X text 68 96 grain phasor;
#X text 56 46 envelope phasor-in \, to only change settings when envelope
is zero. This is to avoid clicks.;
#X text 462 183 delay of grain in msec;
#X obj 498 231 r \$0-delay;
#X obj 477 210 r \$0-delay-r;
#X obj 647 240 outlet~;
#X obj 721 89 r \$0-pan-r;
#N canvas 763 409 494 345 randhold 0;
#X obj 120 63 noise~;
#X obj 120 249 outlet~;
#X obj 120 141 *~ 0;
#X obj 119 206 samphold~;
#X obj 200 67 inlet;
#X obj 46 162 inlet~;
#X text 51 37 sample noise on falling signal edges;
#X obj 120 169 +~ 0;
#X obj 200 94 unpack 0 0;
#X text 12 111 -1 .. 1 noise;
#X text 255 66 <width \, center>;
#X connect 0 0 2 0;
#X connect 2 0 7 0;
#X connect 3 0 1 0;
#X connect 4 0 8 0;
#X connect 5 0 3 1;
#X connect 7 0 3 0;
#X connect 8 0 2 1;
#X connect 8 1 7 1;
#X restore 647 166 pd randhold;
#X obj 477 277 pack 0 0;
#X obj 498 255 t b a;
#N canvas 0 50 494 345 randhold 0;
#X obj 120 63 noise~;
#X obj 120 249 outlet~;
#X obj 120 141 *~ 0;
#X obj 119 206 samphold~;
#X obj 200 67 inlet;
#X obj 46 162 inlet~;
#X text 51 37 sample noise on falling signal edges;
#X obj 120 169 +~ 0;
#X obj 200 94 unpack 0 0;
#X text 12 111 -1 .. 1 noise;
#X text 255 66 <width \, center>;
#X connect 0 0 2 0;
#X connect 2 0 7 0;
#X connect 3 0 1 0;
#X connect 4 0 8 0;
#X connect 5 0 3 1;
#X connect 7 0 3 0;
#X connect 8 0 2 1;
#X connect 8 1 7 1;
#X restore 389 304 pd randhold;
#X obj 171 287 pack 0 0;
#X obj 192 265 t b a;
#N canvas 0 50 494 345 randhold 0;
#X obj 120 63 noise~;
#X obj 120 249 outlet~;
#X obj 120 141 *~ 0;
#X obj 119 206 samphold~;
#X obj 200 67 inlet;
#X obj 46 162 inlet~;
#X text 51 37 sample noise on falling signal edges;
#X obj 120 169 +~ 0;
#X obj 200 94 unpack 0 0;
#X text 12 111 -1 .. 1 noise;
#X text 255 66 <width \, center>;
#X connect 0 0 2 0;
#X connect 2 0 7 0;
#X connect 3 0 1 0;
#X connect 4 0 8 0;
#X connect 5 0 3 1;
#X connect 7 0 3 0;
#X connect 8 0 2 1;
#X connect 8 1 7 1;
#X restore 83 314 pd randhold;
#X obj 171 220 r \$0-size-r;
#X obj 192 241 r \$0-size;
#X text 807 89 panning;
#X msg 695 66 0;
#X obj 695 45 loadbang;
#X text 121 432 to tabread4~/vd~;
#X obj 721 143 pack 0 0.5;
#X text 732 167 centered around 0.5;
#X text 204 179 grain size in msecs;
#X text 182 313 <width \, center>;
#X text 486 303 <width \, center>;
#X connect 0 0 1 0;
#X connect 1 0 2 0;
#X connect 3 0 0 0;
#X connect 3 0 17 0;
#X connect 3 0 14 0;
#X connect 3 0 11 0;
#X connect 7 0 13 0;
#X connect 8 0 12 0;
#X connect 10 0 24 0;
#X connect 11 0 9 0;
#X connect 12 0 14 1;
#X connect 13 0 12 0;
#X connect 13 1 12 1;
#X connect 14 0 1 1;
#X connect 15 0 17 1;
#X connect 16 0 15 0;
#X connect 16 1 15 1;
#X connect 17 0 0 1;
#X connect 18 0 15 0;
#X connect 19 0 16 0;
#X connect 21 0 24 0;
#X connect 22 0 21 0;
#X connect 24 0 11 1;
#X coords 0 0 1 1 170 60 0;
#X restore 490 296 pd params;
#N canvas 0 50 476 569 raised-cosine 0;
#X obj 119 40 inlet~;
#X obj 118 282 outlet~;
#X obj 119 196 cos~;
#X obj 119 95 -~ 0.5;
#X obj 119 173 clip~ -0.5 0.5;
#X obj 119 219 +~ 1;
#X obj 119 242 *~ 0.5;
#X text 169 204 raised;
#X obj 119 150 *~ 1;
#X floatatom 159 151 5 0 0 0 - - -, f 5;
#X obj 219 41 inlet;
#X text 277 43 bandwidth;
#X connect 0 0 3 0;
#X connect 2 0 5 0;
#X connect 3 0 8 0;
#X connect 4 0 2 0;
#X connect 5 0 6 0;
#X connect 6 0 1 0;
#X connect 8 0 4 0;
#X connect 9 0 8 1;
#X connect 10 0 8 1;
#X restore 258 296 pd raised-cosine;
#X obj 367 275 r \$0-bw;
#N canvas 0 50 1093 423 volume-hold 0;
#X obj 187 229 outlet~;
#X obj 274 171 pack 0 0;
#X obj 295 149 t b a;
#N canvas 0 50 494 345 randhold 0;
#X obj 120 63 noise~;
#X obj 120 249 outlet~;
#X obj 120 141 *~ 0;
#X obj 119 206 samphold~;
#X obj 200 67 inlet;
#X obj 46 162 inlet~;
#X text 51 37 sample noise on falling signal edges;
#X obj 120 169 +~ 0;
#X obj 200 94 unpack 0 0;
#X text 12 111 -1 .. 1 noise;
#X text 255 66 <width \, center>;
#X connect 0 0 2 0;
#X connect 2 0 7 0;
#X connect 3 0 1 0;
#X connect 4 0 8 0;
#X connect 5 0 3 1;
#X connect 7 0 3 0;
#X connect 8 0 2 1;
#X connect 8 1 7 1;
#X restore 186 198 pd randhold;
#X text 283 197 <width \, low border>;
#X obj 274 104 r \$0-vol-r;
#X obj 295 125 r \$0-vol;
#X obj 187 106 inlet~;
#X connect 1 0 3 1;
#X connect 2 0 1 0;
#X connect 2 1 1 1;
#X connect 3 0 0 0;
#X connect 5 0 1 0;
#X connect 6 0 2 0;
#X connect 7 0 3 0;
#X restore 275 328 pd volume-hold;
#X obj 375 77 r \$0-phase;
#X obj 258 77 r \$0-grain-rate;
#N canvas 0 50 450 300 randphase 0;
#X obj 123 207 s \$0-phase;
#X obj 123 146 random 10000;
#X obj 123 173 / 10000;
#X obj 136 94 r \$0-phase-rand;
#X obj 123 122 b;
#X obj 123 68 inlet;
#X connect 1 0 2 0;
#X connect 2 0 0 0;
#X connect 3 0 4 0;
#X connect 4 0 1 0;
#X connect 5 0 4 0;
#X restore 449 122 pd randphase;
#X text 113 78 dummy;
#X obj 60 77 inlet;
#X obj 375 100 route float;
#X text 387 52 phase: float = set \, else = rand;
#X obj 410 145 print rand;
#N canvas 172 83 586 377 LICENSE-GPL 0;
#X text 57 88 This program is free software: you can redistribute it
and/or modify it under the terms of the GNU General Public License
as published by the Free Software Foundation \, either version 3 of
the License \, or (at your option) any later version.;
#X text 58 168 This program is distributed in the hope that it will
be useful \, but WITHOUT ANY WARRANTY \; without even the implied warranty
of MERCHANTABILITY or FITNESS FOR A PARTICULAR PURPOSE. See the GNU
General Public License for more details.;
#X text 57 261 You should have received a copy of the GNU General Public
License along with this program. If not \, see <http://www.gnu.org/licenses/>.
;
#X text 61 54 Copyright (C) 2009 \, Reality Jockey Ltd.;
#X text 60 325 See the file LICENSE.txt for the full license text.
;
#X restore 812 39 pd LICENSE-GPL;
#X obj 277 383 vd~ \$0-delay;
#X connect 0 0 6 0;
#X connect 1 0 3 0;
#X connect 3 0 8 0;
#X connect 3 0 9 0;
#X connect 3 0 11 0;
#X connect 5 0 0 0;
#X connect 6 0 2 0;
#X connect 6 1 4 0;
#X connect 8 0 21 0;
#X connect 8 1 6 1;
#X connect 9 0 5 0;
#X connect 10 0 9 1;
#X connect 11 0 5 1;
#X connect 12 0 17 0;
#X connect 13 0 3 0;
#X connect 17 0 3 1;
#X connect 17 1 14 0;
#X connect 17 1 19 0;
#X connect 21 0 0 1;
#X restore 132 326 pd graindelread;
#X connect 0 0 4 0;
#X connect 0 0 10 0;
#X connect 3 0 5 0;
#X connect 3 0 10 0;
#X connect 4 0 1 0;
#X connect 5 0 2 0;
#X connect 6 0 5 2;
#X connect 6 0 4 2;
#X connect 7 0 9 0;
#X connect 8 0 6 0;
#X connect 9 0 8 0;
#X connect 9 1 8 1;
#X connect 11 0 4 1;
#X connect 11 1 5 1;
#X restore 110 298 pd audio_stuff;
#X obj 583 310 loadbang;
#N canvas 172 83 586 377 LICENSE-GPL 0;
#X text 57 88 This program is free software: you can redistribute it
and/or modify it under the terms of the GNU General Public License
as published by the Free Software Foundation \, either version 3 of
the License \, or (at your option) any later version.;
#X text 58 168 This program is distributed in the hope that it will
be useful \, but WITHOUT ANY WARRANTY \; without even the implied warranty
of MERCHANTABILITY or FITNESS FOR A PARTICULAR PURPOSE. See the GNU
General Public License for more details.;
#X text 57 261 You should have received a copy of the GNU General Public
License along with this program. If not \, see <http://www.gnu.org/licenses/>.
;
#X text 61 54 Copyright (C) 2009 \, Reality Jockey Ltd.;
#X text 60 325 See the file LICENSE.txt for the full license text.
;
#X restore 298 15 pd LICENSE-GPL;
#X text 35 69 ui_hsl \$0 name min max;
#X text 51 17 embedded rjdj e_reverb abstraction;
#N canvas 228 198 627 317 LICENSE-BSD 0;
#X text 121 56 This software is copyrighted by Miller Puckette \, Reality
Jockey Ltd. and others. The terms (the "Standard Improved BSD License")
apply to all files associated with the software unless explicitly disclaimed
in individual files.;
#X text 123 148 See the file LICENSE.txt for the full license text.
;
#X restore 563 420 pd LICENSE-BSD;
#X obj 480 98 switch~;
#X obj 244 333 u_dispatch \$0 vol;
#X obj 244 356 u_dispatch \$0 vol-r;
#X obj 244 378 u_dispatch \$0 pan-r;
#X obj 244 399 u_dispatch \$0 delay;
#X obj 244 422 u_dispatch \$0 delay-r;
#X obj 244 445 u_dispatch \$0 size;
#X obj 244 466 u_dispatch \$0 size-r;
#X obj 244 489 u_dispatch \$0 bw;
#X obj 248 534 u_dispatch \$0 wet;
#X obj 319 200 unpack f f;
#X obj 353 231 route -1;
#X obj 384 259 + 1;
#X obj 316 279 pack f f;
#X msg 343 255 -1;
#X obj 252 138 ui_vs \$0 vol 0 1;
#X obj 214 138 ui_vs \$0 vol-r 0 1;
#X obj 209 193 ui_vs \$0 pan-r 0 1;
#X obj 250 194 ui_vs \$0 wet 0 1;
#X obj 101 194 ui_vs \$0 delay 0 2000;
#X obj 138 138 ui_vsl \$0 pitch 0.5 2;
#X obj 56 535 s \$0-grain-rate;
#X obj 248 510 u_dispatch \$0 pitch;
#X obj 43 401 r \$0-size;
#X obj 124 401 r \$0-pitch;
#X obj 74 433 /;
#X obj 69 473 /;
#X obj 100 138 ui_vs \$0 size -100 300;
#X floatatom 103 503 5 0 0 0 - - -, f 5;
#X msg 73 452 2000 \$1;
#X obj 162 435 t b f;
#X msg 404 355 pan-r 0.787402 \, delay-r 400 \, delay 500 \, size-r
0 \, size 100 \, vol-r 0.133858 \, vol 0.409449 \, bw 1 \, phase 0.4819
\, grain-rate 20 \,;
#X obj 176 194 ui_vs \$0 size-r 0 100;
#X obj 139 195 ui_vs \$0 delay-r 0 100;
#X obj 176 138 ui_vs \$0 bw 1 20;
#X obj 253 58 rack_enableV2 200 80 4 8 0 1 fx_graindelay \$1 \$0;
#X obj 346 310 rack_loader fx_graindelay \$1 \$0;
#X connect 1 0 2 0;
#X connect 1 1 2 1;
#X connect 2 0 0 0;
#X connect 2 1 0 1;
#X connect 3 0 39 0;
#X connect 9 0 10 0;
#X connect 10 0 11 0;
#X connect 11 0 12 0;
#X connect 12 0 13 0;
#X connect 13 0 14 0;
#X connect 14 0 15 0;
#X connect 15 0 16 0;
#X connect 16 0 30 0;
#X connect 18 0 21 0;
#X connect 18 1 19 0;
#X connect 19 0 22 0;
#X connect 19 1 20 0;
#X connect 20 0 21 1;
#X connect 21 0 0 2;
#X connect 22 0 21 1;
#X connect 30 0 17 0;
#X connect 31 0 33 0;
#X connect 32 0 38 0;
#X connect 33 0 37 0;
#X connect 34 0 29 0;
#X connect 34 0 36 0;
#X connect 37 0 34 0;
#X connect 38 0 33 0;
#X connect 38 1 33 1;
#X connect 39 0 9 0;
#X connect 43 0 1 0;
#X connect 43 0 18 0;
#X connect 43 1 8 0;
#X connect 43 1 44 0;
#X connect 44 0 9 0;
#X coords 0 -1 1 1 190 150 1 100 100;
