#N canvas 0 73 678 486 10;
#N canvas 172 83 586 377 LICENSE-GPL 0;
#X text 57 88 This program is free software: you can redistribute it
and/or modify it under the terms of the GNU General Public License
as published by the Free Software Foundation \, either version 3 of
the License \, or (at your option) any later version.;
#X text 58 168 This program is distributed in the hope that it will
be useful \, but WITHOUT ANY WARRANTY \; without even the implied warranty
of MERCHANTABILITY or FITNESS FOR A PARTICULAR PURPOSE. See the GNU
General Public License for more details.;
#X text 57 261 You should have received a copy of the GNU General Public
License along with this program. If not \, see <http://www.gnu.org/licenses/>.
;
#X text 61 54 Copyright (C) 2009 \, Reality Jockey Ltd.;
#X text 60 325 See the file LICENSE.txt for the full license text.
;
#X restore 298 15 pd LICENSE-GPL;
#X obj 101 101 cnv 15 188 68 empty \$0-background fx_reverse 0 7 0
14 -260818 -1 0;
#X obj 220 102 vsl 70 17 1 0 0 0 \$0-presets \$0-presets-rcv PRESETS
2 5 0 10 -232576 -232576 -1 800 1;
#X obj 101 130 tgl 40 1 \$0-reverse \$0-reverse-rcv REVERSE 1 7 0 10
-262144 -1 -1 0 1;
#X obj 415 157 module_loader fx_reverse \$0 \$1;
#X obj 255 238 inlet data;
#X obj 34 240 inlet~ audio1;
#X obj 154 239 inlet~ audio2;
#X obj 25 324 outlet~ audio1;
#X obj 135 324 outlet~ audio2;
#X obj 255 260 outlet data;
#N canvas 563 79 671 538 reverse-line~ 0;
#X obj 35 206 line~;
#X msg 66 173 0;
#X obj 135 331 *~;
#X obj 240 222 line~;
#X msg 161 177 \$1 5;
#X obj 214 421 *~;
#X obj 492 81 select 1 0;
#X obj 69 142 delay 10;
#X msg 90 115 stop;
#X msg 424 185 0;
#X msg 386 163 stop;
#X obj 42 254 delwrite~ \$0-dell 20000;
#X msg 273 154 20000 10000;
#X obj 24 288 delread4~ \$0-dell;
#X obj 220 338 -~ 1;
#X obj 221 371 *~ -1;
#X obj 94 203 inlet~;
#X obj 78 471 outlet~;
#X obj 503 282 outlet;
#X obj 496 4 inlet;
#X obj 353 433 *~;
#X obj 482 414 *~;
#X obj 344 213 inlet~;
#X obj 403 475 outlet~;
#X obj 292 264 delwrite~ \$0-delr 20000;
#X obj 274 298 delread4~ \$0-delr;
#X obj 209 300 *~ 1;
#X obj 525 304 r \$0-rev-att;
#X obj 471 138 delay 9990;
#X obj 263 6 r \$0-time;
#X obj 263 28 t f f;
#X obj 263 50 * 2000;
#X obj 336 38 * 1000;
#X obj 263 102 pack f f;
#X obj 573 124 r \$0-time;
#X obj 573 146 * 1000;
#X obj 573 168 - 10;
#X obj 496 26 t f f;
#X obj 471 180 spigot;
#X obj 494 161 r \$0-loop;
#X msg 570 229 1;
#X msg 263 124 set \$1 \$2;
#X obj 471 202 delay 11;
#X obj 584 254 s \$0-reverse;
#X obj 516 378 s \$0-reverse;
#X msg 524 349 0;
#X connect 0 0 13 0;
#X connect 0 0 25 0;
#X connect 1 0 0 0;
#X connect 2 0 17 0;
#X connect 3 0 2 1;
#X connect 3 0 20 1;
#X connect 3 0 26 0;
#X connect 4 0 3 0;
#X connect 5 0 17 0;
#X connect 6 0 12 0;
#X connect 6 0 8 0;
#X connect 6 0 28 0;
#X connect 6 1 7 0;
#X connect 6 1 10 0;
#X connect 7 0 1 0;
#X connect 8 0 7 0;
#X connect 9 0 4 0;
#X connect 10 0 28 0;
#X connect 12 0 0 0;
#X connect 13 0 2 0;
#X connect 14 0 15 0;
#X connect 15 0 5 1;
#X connect 15 0 21 1;
#X connect 16 0 5 0;
#X connect 16 0 11 0;
#X connect 19 0 37 0;
#X connect 20 0 23 0;
#X connect 21 0 23 0;
#X connect 22 0 21 0;
#X connect 22 0 24 0;
#X connect 25 0 20 0;
#X connect 26 0 14 0;
#X connect 27 0 26 1;
#X connect 28 0 9 0;
#X connect 28 0 38 0;
#X connect 28 0 18 0;
#X connect 28 0 45 0;
#X connect 29 0 30 0;
#X connect 30 0 31 0;
#X connect 30 1 32 0;
#X connect 31 0 33 0;
#X connect 32 0 33 1;
#X connect 33 0 41 0;
#X connect 34 0 35 0;
#X connect 35 0 36 0;
#X connect 36 0 28 1;
#X connect 37 0 4 0;
#X connect 37 1 6 0;
#X connect 38 0 42 0;
#X connect 39 0 38 1;
#X connect 40 0 43 0;
#X connect 41 0 12 0;
#X connect 42 0 40 0;
#X connect 45 0 44 0;
#X restore 65 279 pd reverse-line~;
#X obj 353 365 midi-colors \$0 reverse \$0-reverse-rcv;
#X obj 354 417 s \$0-reverse;
#X obj 210 272 r \$0-reverse;
#X obj 359 395 > 0;
#X obj 426 281 r \$0-reverse;
#X obj 426 303 * 127;
#X obj 214 115 ui_vs \$0 rev-att 0 1;
#X obj 401 190 u_dispatch \$0 rev-att;
#X text 565 189 atténuation du signal direct en mode reverse;
#X obj 432 60 loadbang;
#X obj 143 130 tgl 40 1 \$0-loop \$0-loop-rcv LOOP 2 7 0 10 -262144
-1 -1 0 1;
#X obj 401 212 u_dispatch \$0 time;
#X obj 401 234 u_parameter \$0 loop;
#X obj 401 256 u_parameter \$0 reverse;
#X obj 180 115 bng 15 250 50 0 empty empty empty 17 7 0 10 -262144
-1 -1;
#X msg 432 82 rev-att 0 \, loop 0 \, time 10;
#X obj 252 115 ui_vs \$0 time 0.1 10;
#X connect 4 0 19 0;
#X connect 5 0 10 0;
#X connect 6 0 11 0;
#X connect 7 0 11 1;
#X connect 11 0 8 0;
#X connect 11 1 9 0;
#X connect 11 2 26 0;
#X connect 12 0 15 0;
#X connect 14 0 11 2;
#X connect 15 0 13 0;
#X connect 16 0 17 0;
#X connect 17 0 12 0;
#X connect 19 0 23 0;
#X connect 21 0 27 0;
#X connect 23 0 24 0;
#X connect 24 0 25 0;
#X connect 27 0 19 0;
#X coords 0 -1 1 1 190 70 1 100 100;
