#N canvas 713 50 613 297 10;
#X declare -path ../core;
#X declare -path ../rj;
#X obj 416 38 declare -path ../core;
#X obj 416 68 declare -path ../rj;
#X obj 340 163 tgl 15 0 empty empty V 4 8 0 12 -4034 -4034 -1 0 1;
#X obj 340 200 tgl 15 0 empty empty X 4 8 0 12 -258113 -258113 -1 0
1;
#X text 360 159 Instances multiples;
#X text 11 30 modulateur en anneau;
#X text 10 50 le signal d'entrée est multiplié par une onde sinus
pure;
#N canvas 0 50 450 250 (subpatch) 0;
#X coords 0 1 100 -1 190 70 1 0 0;
#X restore 100 100 graph;
#X obj 101 101 cnv 15 188 68 empty \$0-background fx_ring 0 7 0 14
-262144 -1 0;
#X obj 139 115 ui_vs \$0 wet 0 1;
#X obj 101 115 ui_vsl \$0 freq 0.1 3000;
#X obj 220 102 vsl 70 17 1 0 0 0 \$0-presets \$0-presets-rcv PRESETS
2 5 0 10 -232576 -232576 -1 0 1;
#X coords 0 297 1 296 190 70 0;
