#N canvas 0 73 678 486 10;
#N canvas 172 83 586 377 LICENSE-GPL 0;
#X text 57 88 This program is free software: you can redistribute it
and/or modify it under the terms of the GNU General Public License
as published by the Free Software Foundation \, either version 3 of
the License \, or (at your option) any later version.;
#X text 58 168 This program is distributed in the hope that it will
be useful \, but WITHOUT ANY WARRANTY \; without even the implied warranty
of MERCHANTABILITY or FITNESS FOR A PARTICULAR PURPOSE. See the GNU
General Public License for more details.;
#X text 57 261 You should have received a copy of the GNU General Public
License along with this program. If not \, see <http://www.gnu.org/licenses/>.
;
#X text 61 54 Copyright (C) 2009 \, Reality Jockey Ltd.;
#X text 60 325 See the file LICENSE.txt for the full license text.
;
#X restore 298 15 pd LICENSE-GPL;
#X obj 101 101 cnv 15 188 68 empty \$0-background fx_reverse 0 7 0
14 -262144 -1 0;
#X obj 220 102 vsl 70 17 1 0 0 0 \$0-presets \$0-presets-rcv PRESETS
2 5 0 10 -232576 -232576 -1 0 1;
#X obj 161 130 tgl 40 1 \$0-reverse \$0-reverse-rcv REVERSE 50 7 0
10 -262144 -1 -1 0 1;
#X obj 415 157 module_loader fx_reverse \$0 \$1;
#X obj 255 238 inlet data;
#X obj 34 240 inlet~ audio1;
#X obj 154 239 inlet~ audio2;
#X obj 25 324 outlet~ audio1;
#X obj 135 324 outlet~ audio2;
#X obj 255 260 outlet data;
#N canvas 0 50 671 538 reverse-line~ 0;
#X obj 35 206 line~;
#X msg 21 159 0;
#X obj 135 331 *~;
#X obj 240 222 line~;
#X msg 161 177 \$1 5;
#X obj 214 421 *~;
#X obj 492 81 select 1 0;
#X obj 95 145 delay 10;
#X msg 90 115 stop;
#X msg 439 168 0;
#X msg 386 163 stop;
#X obj 42 254 delwrite~ \$0-dell 20000;
#X obj 471 138 delay 10000;
#X msg 233 135 20000 10000;
#X obj 24 288 delread4~ \$0-dell;
#X obj 220 338 -~ 1;
#X obj 221 371 *~ -1;
#X obj 94 203 inlet~;
#X obj 78 471 outlet~;
#X obj 546 251 outlet;
#X obj 503 36 inlet;
#X obj 353 433 *~;
#X obj 482 414 *~;
#X obj 344 213 inlet~;
#X obj 403 475 outlet~;
#X obj 292 264 delwrite~ \$0-delr 20000;
#X obj 274 298 delread4~ \$0-delr;
#X obj 209 300 *~ 1;
#X obj 525 304 r \$0-rev-att;
#X connect 0 0 14 0;
#X connect 0 0 26 0;
#X connect 1 0 0 0;
#X connect 2 0 18 0;
#X connect 3 0 2 1;
#X connect 3 0 21 1;
#X connect 3 0 27 0;
#X connect 4 0 3 0;
#X connect 5 0 18 0;
#X connect 6 0 13 0;
#X connect 6 0 8 0;
#X connect 6 0 12 0;
#X connect 6 1 7 0;
#X connect 6 1 10 0;
#X connect 7 0 1 0;
#X connect 8 0 7 0;
#X connect 9 0 19 0;
#X connect 10 0 12 0;
#X connect 12 0 9 0;
#X connect 13 0 0 0;
#X connect 14 0 2 0;
#X connect 15 0 16 0;
#X connect 16 0 5 1;
#X connect 16 0 22 1;
#X connect 17 0 5 0;
#X connect 17 0 11 0;
#X connect 20 0 6 0;
#X connect 20 0 4 0;
#X connect 21 0 24 0;
#X connect 22 0 24 0;
#X connect 23 0 22 0;
#X connect 23 0 25 0;
#X connect 26 0 21 0;
#X connect 27 0 15 0;
#X connect 28 0 27 1;
#X restore 65 279 pd reverse-line~;
#X obj 353 365 midi-colors \$0 reverse \$0-reverse-rcv;
#X obj 354 417 s \$0-reverse;
#X obj 210 272 r \$0-reverse;
#X obj 230 365 s \$0-reverse-rcv;
#X msg 262 336 set \$1;
#X obj 359 395 > 0;
#X obj 426 281 r \$0-reverse;
#X obj 426 303 * 127;
#X obj 100 115 ui_vs \$0 rev-att 0 1;
#X obj 401 190 u_dispatch \$0 rev-att;
#X text 565 189 atténuation du signal direct en mode reverse;
#X connect 4 0 21 0;
#X connect 5 0 10 0;
#X connect 6 0 11 0;
#X connect 7 0 11 1;
#X connect 11 0 8 0;
#X connect 11 1 9 0;
#X connect 11 2 15 0;
#X connect 12 0 17 0;
#X connect 14 0 11 2;
#X connect 16 0 15 0;
#X connect 17 0 13 0;
#X connect 17 0 16 0;
#X connect 18 0 19 0;
#X connect 19 0 12 0;
#X coords 0 -1 1 1 190 70 1 100 100;
