#N struct 4086-symarray float x array symbols 4086-sym;
#N struct 4086-sym symbol name float on;
#N canvas 502 139 678 486 10;
#N canvas 172 83 586 377 LICENSE-GPL 0;
#X text 57 88 This program is free software: you can redistribute it
and/or modify it under the terms of the GNU General Public License
as published by the Free Software Foundation \, either version 3 of
the License \, or (at your option) any later version.;
#X text 58 168 This program is distributed in the hope that it will
be useful \, but WITHOUT ANY WARRANTY \; without even the implied warranty
of MERCHANTABILITY or FITNESS FOR A PARTICULAR PURPOSE. See the GNU
General Public License for more details.;
#X text 57 261 You should have received a copy of the GNU General Public
License along with this program. If not \, see <http://www.gnu.org/licenses/>.
;
#X text 61 54 Copyright (C) 2009 \, Reality Jockey Ltd.;
#X text 60 325 See the file LICENSE.txt for the full license text.
;
#X restore 298 15 pd LICENSE-GPL;
#X obj 475 94 switch~;
#N canvas 0 50 825 513 sub 1;
#X obj 188 70 inlet~;
#X obj 110 514 outlet~;
#N canvas 0 50 710 620 stuff 0;
#X obj 154 72 inlet~;
#X obj 156 490 outlet~;
#X msg 94 305 0;
#X obj 188 282 mtof;
#N canvas 0 50 450 300 sigmund 0;
#X obj 116 93 inlet~;
#X obj 102 208 outlet;
#X obj 219 137 block~ 64 1 0.0625;
#X obj 119 176 sigmund~ -npts 256 -hop 256 pitch;
#X connect 0 0 3 0;
#X connect 3 0 1 0;
#X restore 192 136 pd sigmund;
#X obj 283 262 - 24;
#X obj 146 452 *~;
#X obj 128 352 dbtorms;
#X obj 147 417 line~;
#X obj 81 156 env~ 128;
#X msg 127 386 \$1 15;
#X obj 44 212 moses 40;
#X obj 214 341 osc~;
#X obj 249 297 * 2;
#X obj 251 334 osc~;
#X obj 129 327 + 18;
#X obj 321 299 s \$0-peak;
#X obj 246 490 outlet~;
#X obj 256 452 *~;
#X obj 203 118 e_agc;
#X obj 403 99 inlet;
#X obj 406 122 switch~;
#X obj 194 167 moses 32;
#X obj 233 243 - 12;
#X obj 284 206 moses 44;
#N canvas 0 50 450 300 sigmund 0;
#X obj 116 93 inlet~;
#X obj 102 208 outlet;
#X obj 100 174 sigmund~ -npts 512 notes;
#X obj 315 17 switch~;
#X obj 219 137 _block~ 64 1 0.0625;
#X connect 0 0 2 0;
#X connect 2 0 1 0;
#X restore 322 166 pd sigmund;
#X obj 157 215 int;
#X obj 157 237 change;
#X obj 178 274 t b;
#X obj 107 255 f;
#X obj 136 196 + 0.5;
#X connect 0 0 9 0;
#X connect 0 0 19 0;
#X connect 2 0 7 0;
#X connect 2 0 29 0;
#X connect 3 0 12 0;
#X connect 3 0 13 0;
#X connect 4 0 22 0;
#X connect 5 0 3 0;
#X connect 6 0 1 0;
#X connect 7 0 10 0;
#X connect 8 0 6 0;
#X connect 8 0 18 0;
#X connect 9 0 11 0;
#X connect 10 0 8 0;
#X connect 11 0 2 0;
#X connect 11 1 29 1;
#X connect 12 0 6 1;
#X connect 13 0 14 0;
#X connect 14 0 18 1;
#X connect 15 0 7 0;
#X connect 18 0 17 0;
#X connect 19 0 4 0;
#X connect 20 0 21 0;
#X connect 22 1 30 0;
#X connect 23 0 3 0;
#X connect 24 0 23 0;
#X connect 24 1 5 0;
#X connect 26 0 27 0;
#X connect 27 0 28 0;
#X connect 27 0 24 0;
#X connect 27 0 16 0;
#X connect 28 0 29 0;
#X connect 29 0 15 0;
#X connect 30 0 26 0;
#X restore 193 332 pd stuff;
#X obj 331 72 inlet~;
#X obj 320 514 outlet~;
#X obj 115 292 *~;
#X obj 176 252 line~;
#X obj 173 204 dbtorms;
#X msg 171 227 \$1 20;
#X obj 173 181 r \$0-direct;
#X obj 375 292 *~;
#X obj 247 395 *~;
#X obj 433 332 line~;
#X obj 435 289 dbtorms;
#X msg 434 309 \$1 20;
#X obj 435 264 r \$0-oct1;
#X obj 443 212 line~;
#X obj 445 169 dbtorms;
#X msg 444 189 \$1 20;
#X obj 445 144 r \$0-oct2;
#X obj 187 395 *~;
#X obj 177 433 hip~ 5;
#X obj 560 189 r \$0-bypass;
#X obj 560 212 == 0;
#X connect 0 0 2 0;
#X connect 0 0 5 0;
#X connect 2 0 20 0;
#X connect 2 1 11 0;
#X connect 3 0 2 0;
#X connect 3 0 10 0;
#X connect 5 0 1 0;
#X connect 6 0 5 1;
#X connect 6 0 10 1;
#X connect 7 0 8 0;
#X connect 8 0 6 0;
#X connect 9 0 7 0;
#X connect 10 0 4 0;
#X connect 11 0 4 0;
#X connect 11 0 21 0;
#X connect 12 0 11 1;
#X connect 13 0 14 0;
#X connect 14 0 12 0;
#X connect 15 0 13 0;
#X connect 16 0 20 1;
#X connect 17 0 18 0;
#X connect 18 0 16 0;
#X connect 19 0 17 0;
#X connect 20 0 21 0;
#X connect 21 0 1 0;
#X connect 21 0 4 0;
#X connect 22 0 23 0;
#X connect 23 0 2 1;
#X restore 64 307 pd sub;
#X obj 459 21 module_declare fx_sub \$0;
#X obj 29 260 stereo_inlet~ \$0;
#X obj 112 340 stereo_outlet~ \$0;
#X obj 347 310 module_loader fx_sub \$0;
#X obj 321 127 r \$0-peak;
#X obj 347 396 u_dispatch \$0 oct1;
#X obj 347 416 u_dispatch \$0 oct2;
#X obj 347 446 u_dispatch \$0 direct;
#N canvas 0 50 450 300 speed_lim 0;
#X obj 87 20 inlet;
#X obj 87 105 t b b a;
#X obj 83 278 list append;
#X obj 83 307 list trim;
#X msg 129 200 1;
#X msg 57 177 0;
#X obj 83 332 outlet;
#X obj 55 145 delay 100;
#X obj 83 249 metro 100;
#X obj 33 226 change;
#X connect 0 0 1 0;
#X connect 1 0 7 0;
#X connect 1 1 4 0;
#X connect 1 2 2 1;
#X connect 2 0 3 0;
#X connect 3 0 6 0;
#X connect 4 0 9 0;
#X connect 5 0 9 0;
#X connect 7 0 5 0;
#X connect 8 0 2 0;
#X connect 9 0 8 0;
#X restore 323 168 pd speed_lim;
#X obj 347 472 u_parameter \$0 bypass;
#X obj 101 101 cnv 15 188 68 empty \$0-background fx_sub 0 7 0 14 -260818
-1 0;
#X obj 220 102 vsl 70 17 1 0 0 0 \$0-presets \$0-presets-rcv PRESETS
2 7 0 10 -232576 -232576 -1 0 1;
#X obj 136 115 ui_vs \$0 oct1 0 100;
#X obj 174 115 ui_vs \$0 direct 0 100;
#X obj 100 115 ui_vs \$0 oct2 0 100;
#X obj 212 130 tgl 40 1 \$0-bypass \$0-bypass-rcv BYPASS 17 7 0 10
-262144 -1 -1 0 1;
#N canvas 458 61 450 370 midi2notename 0;
#N canvas 473 338 450 300 count 0;
#X obj 131 154 f 0;
#X obj 156 153 + 1;
#X msg 147 133 0;
#X obj 131 183 outlet;
#X obj 131 59 inlet;
#X obj 131 96 b;
#X obj 178 61 inlet;
#X obj 178 98 b;
#X connect 0 0 1 0;
#X connect 0 0 3 0;
#X connect 1 0 0 1;
#X connect 2 0 0 1;
#X connect 4 0 5 0;
#X connect 5 0 0 0;
#X connect 6 0 7 0;
#X connect 7 0 2 0;
#X restore 330 149 pd count;
#X msg 249 99 c \, c# \, d \, d# \, e \, f \, f# \, g \, g# \, a \,
a# \, b;
#X obj 249 124 t a b;
#X obj 249 173 list prepend;
#X msg 173 173 reset;
#X obj 249 74 t b b b;
#X text -2 92 Notes example:;
#X msg 114 174 print;
#X msg 114 149 dump;
#X obj 161 198 m_symbolarray;
#X obj 252 47 loadbang;
#X obj 165 93 mod 12;
#X obj 229 43 bng 15 250 50 0 empty empty empty 17 7 0 10 -262144 -1
-1;
#X obj 166 57 t f f;
#X obj 159 227 list append;
#X obj 166 34 - 24;
#X floatatom 177 145 5 0 0 0 - - -, f 5;
#X obj 188 122 div 12;
#X obj 171 6 t f f;
#X obj 164 251 list append;
#X obj 51 50 inlet;
#X obj 152 315 outlet;
#X msg 150 293 symbol \$1\$2;
#X connect 0 0 3 1;
#X connect 1 0 2 0;
#X connect 2 0 3 0;
#X connect 2 1 0 0;
#X connect 3 0 9 1;
#X connect 4 0 9 0;
#X connect 5 0 1 0;
#X connect 5 1 4 0;
#X connect 5 2 0 1;
#X connect 7 0 9 0;
#X connect 8 0 9 0;
#X connect 9 0 14 0;
#X connect 10 0 5 0;
#X connect 11 0 9 0;
#X connect 12 0 5 0;
#X connect 13 0 11 0;
#X connect 13 1 17 0;
#X connect 14 0 19 0;
#X connect 15 0 13 0;
#X connect 17 0 16 0;
#X connect 17 0 14 1;
#X connect 18 0 15 0;
#X connect 18 1 19 1;
#X connect 19 0 22 0;
#X connect 20 0 18 0;
#X connect 22 0 21 0;
#X restore 327 190 pd midi2notename;
#X symbolatom 253 146 5 0 0 0 - - -, f 5;
#X connect 2 0 5 0;
#X connect 2 1 5 1;
#X connect 3 0 1 0;
#X connect 4 0 2 0;
#X connect 4 1 2 1;
#X connect 6 0 8 0;
#X connect 7 0 11 0;
#X connect 8 0 9 0;
#X connect 9 0 10 0;
#X connect 10 0 12 0;
#X connect 11 0 19 0;
#X connect 19 0 20 0;
#X coords 0 -1 1 1 190 70 1 100 100;
