#N canvas 302 50 767 480 10;
#X declare -stdpath extra/rj/;
#X obj 98 393 stereo_outlet~;
#X obj 100 236 stereo_inlet~;
#N canvas 289 76 585 411 audio_stuff 0;
#X obj 136 89 inlet~;
#X obj 242 239 outlet~;
#X obj 136 237 outlet~;
#X obj 201 91 inlet~;
#X obj 288 88 inlet midi;
#X obj -30 -7 text define -k 8bit;
#A set ($v1>>(11*$f2))|($v1%(11.2*$f2)) \; Autres possibilités (seule
la première ligne est active) \; ($v1%656)|($v1%(555+$f2)) \; ($v1%(11*$f2))|($v1%(11.2*$f2))
\; $v1 \;;
#X obj 78 71 iemguts/sendcanvas;
#X obj 0 0 tgl 15 0 empty empty empty 17 7 0 10 -262144 -1 -1 0 1;
#X obj 136 11 r \$0-edit;
#X msg 82 38 vis 1 \, editmode 0 \, mouse 0 0 0 0 \, mouseup 0 0 0
\, vis 0 \, menusave;
#N canvas 0 50 825 530 dynamic_patching 0;
#X obj 254 132 text get 8bit;
#X obj 254 155 list split 1;
#X obj 355 209 s \$0-chain;
#X obj 253 185 select symbol;
#X obj 358 186 t s s;
#X obj 257 79 metro 1000;
#X msg 257 104 0;
#X obj 257 14 loadbang;
#X obj 395 78 text set 8bit;
#X obj 416 13 r \$0-chain;
#X obj 419 45 t s b;
#X msg 475 55 0;
#X obj 276 53 bng 15 250 50 0 empty empty empty 17 7 0 10 -262144 -1
-1;
#X connect 0 0 1 0;
#X connect 1 0 3 0;
#X connect 3 1 4 0;
#X connect 4 0 2 0;
#X connect 4 1 3 1;
#X connect 5 0 6 0;
#X connect 6 0 0 0;
#X connect 7 0 5 0;
#X connect 9 0 10 0;
#X connect 10 0 8 0;
#X connect 10 1 11 0;
#X connect 11 0 8 1;
#X connect 12 0 5 0;
#X restore 373 298 pd dynamic_patching;
#X obj 121 158 inst_8bits/8bits_engine \$0;
#X obj 282 118 route 1 2;
#X obj 211 178 inst_8bits/8bits_engine \$0;
#X connect 0 0 2 0;
#X connect 3 0 1 0;
#X connect 4 0 12 0;
#X connect 8 0 9 0;
#X connect 9 0 6 0;
#X connect 11 0 1 0;
#X connect 11 0 2 0;
#X connect 12 0 11 0;
#X connect 12 1 13 0;
#X connect 13 0 1 0;
#X connect 13 0 2 0;
#X restore 103 287 pd audio_stuff;
#X obj 601 288 loadbang;
#X msg 601 313 freq 0.8 \, mod 1.8;
#N canvas 172 83 586 377 LICENSE-GPL 0;
#X text 57 88 This program is free software: you can redistribute it
and/or modify it under the terms of the GNU General Public License
as published by the Free Software Foundation \, either version 3 of
the License \, or (at your option) any later version.;
#X text 58 168 This program is distributed in the hope that it will
be useful \, but WITHOUT ANY WARRANTY \; without even the implied warranty
of MERCHANTABILITY or FITNESS FOR A PARTICULAR PURPOSE. See the GNU
General Public License for more details.;
#X text 57 261 You should have received a copy of the GNU General Public
License along with this program. If not \, see <http://www.gnu.org/licenses/>.
;
#X text 61 54 Copyright (C) 2009 \, Reality Jockey Ltd.;
#X text 60 325 See the file LICENSE.txt for the full license text.
;
#X restore 298 15 pd LICENSE-GPL;
#X obj 383 219 switch~;
#X obj 131 196 rack_enable 200 80 4 8 0 1 inst_8bits \$1;
#X obj 468 373 u_dispatch \$0 f3;
#X obj 467 352 u_dispatch \$0 f2;
#X obj 127 311 tabwrite~ scope;
#N canvas 0 50 450 250 (subpatch) 0;
#X array scope 2000 float 0;
#X coords 0 1 1999 -1 200 140 1;
#X restore 236 311 graph;
#X obj 269 296 bng 15 250 50 0 empty empty empty 17 7 0 10 -262144
-1 -1;
#X obj 101 121 bng 30 250 50 0 \$0-edit empty EDIT 0 20 0 10 -262144
-1 -1;
#X obj 35 137 r \$0-oct;
#X obj 34 163 t f b;
#X obj 44 190 delay 100;
#X obj 33 214 f;
#X obj 39 263 int;
#X obj 33 327 s \$0-oct;
#X obj 174 115 ui_vs \$0 oct -10.2 10.2;
#X obj 469 396 u_parameter \$0 chain;
#X obj 132 120 tgl 15 0 empty empty play_random 17 7 0 10 -262144 -1
-1 0 1;
#X obj 131 136 tgl 15 0 empty empty TEST 17 7 0 10 -262144 -1 -1 0
1;
#X obj 23 236 select;
#X obj 38 292 t f f;
#X obj 466 187 u_loader inst_8bits-\$1 \$0;
#X obj 468 416 u_dispatch \$0 oct;
#N canvas 0 50 528 477 midi_gen 0;
#X obj 213 371 outlet;
#X obj 97 25 inlet;
#X obj 267 25 inlet;
#X obj 230 247 notein;
#X msg 334 251 69 70;
#X msg 341 219 69 0;
#X floatatom 406 238 5 0 0 0 - - -, f 5;
#X msg 406 257 \$1 70;
#X obj 127 92 makenote 100 100;
#X obj 127 115 pack 0 0;
#N canvas 145 50 577 652 random 0;
#X obj 100 99 select 1;
#X obj 100 35 inlet;
#X obj 174 203 * 200;
#X obj 174 231 t a a;
#X obj 449 409 outlet;
#X obj 174 144 random 4;
#X obj 174 169 + 1;
#X obj 174 268 delay;
#X obj 100 60 t a a;
#X obj 340 192 spigot 1;
#X obj 100 479 outlet;
#X obj 259 473 outlet;
#X obj 100 332 t b b b;
#X obj 269 39 inlet;
#X obj 449 380 - 1;
#X obj 259 367 random 40;
#X obj 259 387 + 40;
#X obj 100 451 m_majorscale 48;
#X obj 100 375 random 16;
#X connect 0 0 5 0;
#X connect 1 0 8 0;
#X connect 2 0 3 0;
#X connect 3 0 7 0;
#X connect 3 0 12 0;
#X connect 3 1 14 0;
#X connect 5 0 6 0;
#X connect 6 0 2 0;
#X connect 7 0 9 0;
#X connect 8 0 0 0;
#X connect 8 1 9 1;
#X connect 9 0 5 0;
#X connect 12 0 18 0;
#X connect 12 2 15 0;
#X connect 13 0 2 1;
#X connect 14 0 4 0;
#X connect 15 0 16 0;
#X connect 16 0 11 0;
#X connect 17 0 10 0;
#X connect 18 0 17 0;
#X restore 127 56 pd random notes;
#X obj 303 180 select 0 1;
#X obj 230 286 poly 2 1;
#X obj 279 327 pack f f f;
#X connect 1 0 10 0;
#X connect 2 0 11 0;
#X connect 3 0 12 0;
#X connect 3 1 12 1;
#X connect 4 0 12 0;
#X connect 5 0 12 0;
#X connect 6 0 7 0;
#X connect 7 0 12 0;
#X connect 8 0 9 0;
#X connect 8 1 9 1;
#X connect 9 0 12 0;
#X connect 10 0 8 0;
#X connect 10 1 8 1;
#X connect 10 2 8 2;
#X connect 11 0 5 0;
#X connect 11 1 4 0;
#X connect 12 0 13 0;
#X connect 12 1 13 1;
#X connect 12 2 13 2;
#X connect 13 0 0 0;
#X restore 216 253 pd midi_gen;
#X obj 467 260 midi_enable inst_8bits \$1 \$0;
#X obj 220 102 vsl 70 17 1 0 0 0 \$0-presets \$0-presets-rcv Preset2
2 7 0 10 -232576 -232576 -1 800 1;
#X obj 252 115 ui_vs \$0 f3 1 256;
#X obj 213 115 ui_vs \$0 f2 1 256;
#X symbolatom 100 156 26 0 0 0 - #0-chain-rcv #0-chain, f 26;
#X connect 1 0 2 0;
#X connect 1 1 2 1;
#X connect 2 0 0 0;
#X connect 2 0 10 0;
#X connect 2 1 0 1;
#X connect 3 0 4 0;
#X connect 4 0 9 0;
#X connect 7 0 1 0;
#X connect 7 0 0 2;
#X connect 7 1 6 0;
#X connect 7 1 29 0;
#X connect 8 0 21 0;
#X connect 9 0 8 0;
#X connect 12 0 10 0;
#X connect 14 0 15 0;
#X connect 15 0 17 1;
#X connect 15 1 16 0;
#X connect 16 0 17 0;
#X connect 17 0 24 0;
#X connect 18 0 25 0;
#X connect 21 0 27 0;
#X connect 22 0 28 0;
#X connect 23 0 28 1;
#X connect 24 1 18 0;
#X connect 25 0 19 0;
#X connect 25 1 24 1;
#X connect 28 0 2 2;
#X connect 29 0 9 0;
#X coords 0 -1 1 1 190 70 1 100 100;
