#N canvas 505 142 858 519 10;
#X declare -path ressources/modules/modular/patch_editor_abs;
#X obj 728 34 r \$0-busy;
#X obj 728 56 switch~;
#X obj 608 180 module_loader inst_modular \$0;
#X obj 615 243 module_declare inst_modular \$0;
#X obj 100 125 ui_vs \$0 CV1 0 1;
#X obj 138 125 ui_vs \$0 CV2 0 1;
#X obj 176 125 ui_vs \$0 CV3 0 1;
#X obj 214 125 ui_vs \$0 CV4 0 1;
#X obj 252 125 ui_vs \$0 CV5 0 1;
#X text 28 8 OBJECTIF : permettre l'interaction avec rackpd d'un patch
modulaire AUTOMATONISM_1.1 qui devrait pouvoir être chargeable dynamiquement
;
#X obj 215 100 bng 15 250 50 0 \$0-A \$0-A-rcv A 3 7 0 10 -66577 -66577
-1;
#X obj 230 100 bng 15 250 50 0 \$0-B \$0-B-rcv B 3 7 0 10 -66577 -66577
-1;
#X obj 245 100 bng 15 250 50 0 \$0-C \$0-C-rcv C 3 7 0 10 -66577 -66577
-1;
#X obj 260 100 bng 15 250 50 0 \$0-D \$0-D-rcv D 3 7 0 10 -66577 -66577
-1;
#X obj 275 100 bng 15 250 50 0 \$0-E \$0-E-rcv E 3 7 0 10 -66577 -66577
-1;
#X text 261 62 \$0-CV1 à \$0-CV5 sont des macros utilisables comme
CVin's dans le patch modulaire;
#X text 159 207 sont des CVout's convertis dans le domaine discret
midi (0-127) pouvant être mappés (comme n'importe quel ctlin) avec
un paramètre d'un autre module;
#N canvas 0 50 450 300 CVin's(Mess2Sig) 0;
#X obj 34 88 sig~;
#X obj 31 110 lop~ 10;
#X obj 114 88 sig~;
#X obj 111 110 lop~ 10;
#X obj 194 88 sig~;
#X obj 191 110 lop~ 10;
#X obj 274 88 sig~;
#X obj 271 110 lop~ 10;
#X obj 364 88 sig~;
#X obj 361 110 lop~ 10;
#X obj 40 65 r \$0-CV1;
#X obj 120 65 r \$0-CV2;
#X obj 200 65 r \$0-CV3;
#X obj 285 65 r \$0-CV4;
#X obj 370 65 r \$0-CV5;
#X obj 33 134 s~ \$0-CV1;
#X obj 113 134 s~ \$0-CV2;
#X obj 193 134 s~ \$0-CV3;
#X obj 273 134 s~ \$0-CV4;
#X obj 363 134 s~ \$0-CV5;
#X connect 0 0 1 0;
#X connect 1 0 15 0;
#X connect 2 0 3 0;
#X connect 3 0 16 0;
#X connect 4 0 5 0;
#X connect 5 0 17 0;
#X connect 6 0 7 0;
#X connect 7 0 18 0;
#X connect 8 0 9 0;
#X connect 9 0 19 0;
#X connect 10 0 0 0;
#X connect 11 0 2 0;
#X connect 12 0 4 0;
#X connect 13 0 6 0;
#X connect 14 0 8 0;
#X restore 313 401 pd CVin's(Mess2Sig);
#X obj 197 100 bng 15 250 50 0 empty empty empty 17 7 0 10 -203904
-1 -1;
#N canvas 0 50 294 77 \$0-modular 0;
#X restore 43 297 pd \$0-modular;
#X obj 368 126 symbol;
#X msg 360 152 \; pd-\$1.pd vis 1;
#X obj 434 82 r \$0-modular_name;
#X symbolatom 218 114 10 0 0 0 - #0-modular_name-rcv #0-modular_name
, f 10;
#X obj 47 442 declare -path ressources/modules/modular/patch_editor_abs
;
#X obj 609 213 u_parameter \$0 modular_name;
#N canvas 127 101 649 421 dynamic_patching 0;
#X obj 48 261 s pd-\$0-modular;
#X msg 30 132 obj 0 0 modular/\$1 \$2;
#X obj 25 94 pack s \$0;
#X obj 227 198 loadbang;
#X obj 357 14 r \$0-modular_name;
#X obj 389 186 t b s b;
#X obj 349 88 select symbol;
#X obj 579 207 r \$0-busy;
#X obj 557 229 f;
#X obj 557 251 s \$0-busy;
#X msg 235 223 clear;
#X obj 359 59 t s s s;
#X obj 418 112 t b;
#X obj 418 134 delay 200;
#X obj 421 156 symbol;
#X msg 226 295 obj 20 0 +~ \, obj 40 0 +~ \, connect 1 0 2 0 \, loadbang
;
#X obj 389 208 delay 1;
#X obj 408 242 delay 1;
#X text 234 322 Création de deux objets arbitraires \, et connexion
pour réinitialiser le graphe de rendu dsp;
#X obj 357 36 symbol;
#X connect 1 0 0 0;
#X connect 2 0 1 0;
#X connect 3 0 10 0;
#X connect 4 0 19 0;
#X connect 5 0 16 0;
#X connect 5 1 2 0;
#X connect 5 2 10 0;
#X connect 6 1 12 0;
#X connect 7 0 8 1;
#X connect 8 0 9 0;
#X connect 10 0 0 0;
#X connect 11 0 6 1;
#X connect 11 1 6 0;
#X connect 11 2 14 1;
#X connect 12 0 13 0;
#X connect 13 0 14 0;
#X connect 14 0 5 0;
#X connect 15 0 0 0;
#X connect 16 0 15 0;
#X connect 16 0 17 0;
#X connect 17 0 8 0;
#X connect 19 0 11 0;
#X restore 608 329 pd dynamic_patching;
#X obj 470 114 symbol;
#X obj 533 374 u_dispatch \$0 cvA;
#X obj 533 394 u_dispatch \$0 cvB;
#X obj 533 414 u_dispatch \$0 cvC;
#X obj 533 434 u_dispatch \$0 cvD;
#X obj 533 454 u_dispatch \$0 cvE;
#X obj 673 374 u_dispatch \$0 CV1;
#X obj 673 394 u_dispatch \$0 CV2;
#X obj 673 414 u_dispatch \$0 CV3;
#X obj 673 434 u_dispatch \$0 CV4;
#X obj 673 454 u_dispatch \$0 CV5;
#N canvas 296 112 1061 524 CVout's(Sig2Mess) 0;
#X obj 481 61 metro 100;
#X obj 482 34 r \$0-busy;
#X obj 279 62 route showLastUsed;
#X obj 271 27 r RACK_ADMIN;
#X obj 495 212 modular/cvout \$0 E 10116;
#X obj 275 152 modular/cvout \$0 A 10112;
#X obj 485 152 modular/cvout \$0 B 10113;
#X obj 306 185 modular/cvout \$0 C 10114;
#X obj 495 182 modular/cvout \$0 D 10115;
#X connect 0 0 4 1;
#X connect 0 0 5 1;
#X connect 0 0 6 1;
#X connect 0 0 7 1;
#X connect 0 0 8 1;
#X connect 1 0 0 0;
#X connect 2 0 4 0;
#X connect 2 0 5 0;
#X connect 2 0 6 0;
#X connect 2 0 7 0;
#X connect 2 0 8 0;
#X connect 3 0 2 0;
#X restore 314 380 pd CVout's(Sig2Mess);
#X connect 0 0 1 0;
#X connect 2 0 25 0;
#X connect 18 0 20 0;
#X connect 20 0 21 0;
#X connect 22 0 27 0;
#X connect 25 0 28 0;
#X connect 27 0 20 1;
#X connect 28 0 29 0;
#X connect 29 0 30 0;
#X connect 30 0 31 0;
#X connect 31 0 32 0;
#X connect 32 0 33 0;
#X connect 33 0 34 0;
#X connect 34 0 35 0;
#X connect 35 0 36 0;
#X connect 36 0 37 0;
#X coords 0 -1 1 1 190 80 1 100 100;
