#N canvas 302 33 767 480 10;
#X declare -stdpath extra/rj/;
#X obj 292 90 tgl 15 0 empty empty empty 17 7 0 10 -262144 -1 -1 1
1;
#X obj 112 340 stereo_outlet~;
#X obj 122 259 stereo_inlet~;
#N canvas 289 76 450 300 audio_stuff 0;
#X obj 198 52 inlet~;
#X obj 278 164 outlet~;
#X obj 198 164 outlet~;
#N canvas 16 50 756 376 engine 0;
#X obj 151 427 s pd-\$0-core;
#X msg 363 419 connect 0 0 3 0 \, connect 1 0 3 1 \, connect 2 0 3
1 \, connect 3 0 4 0;
#X obj 241 270 t b b l;
#X obj 250 307 delay 100;
#X obj 176 310 delay 200;
#X obj 547 222 r \$0-f3;
#X obj 473 258 f;
#X obj 513 257 f;
#X obj 478 297 s \$0-p1;
#X obj 548 297 s \$0-p1;
#X obj 477 222 r \$0-f2;
#X obj 33 174 s~ \$0-in;
#X obj 49 248 catch~ \$0-out;
#X obj 50 416 outlet~;
#X obj 211 239 pack s \$0;
#X obj 250 83 r \$0-preset;
#X obj 248 103 text get 8bit;
#X obj 390 240 t b b;
#X msg 159 362 clear \, obj 0 0 r~ \$2-in \, obj 100 0 r \$2-p1 \,
obj 200 0 r \$2-p2 \, obj 0 20 expr~ \$1 \, obj 0 40 throw~ \$2-out
;
#X obj 47 118 phasor~;
#X obj 24 61 mtof;
#X obj 50 19 inlet;
#X obj 114 26 t f b;
#X msg 132 60 0;
#X obj 375 88 line~;
#X msg 346 43 0 \, 441000 \$1;
#X obj 187 69 * 12;
#X obj 87 63 +;
#X obj 151 104 t b f;
#X obj 245 32 r \$0-oct;
#X obj 254 125 list split 1;
#X obj 301 237 s \$0-oct;
#X obj 129 202 r \$0-chain;
#X obj 219 152 s \$0-chain;
#X obj 58 316 /~ 256;
#X obj 78 279 expr~ $v1%256;
#X obj 60 355 hip~ 5;
#N canvas 0 50 450 300 \$0-core 0;
#X obj 0 0 r~ 3652-in;
#X obj 100 0 r 3652-p1;
#X obj 200 0 r 3652-p2;
#X obj 0 20 expr~ ($v1%(11*$f2))|($v1%(11.2*$f2));
#X obj 0 40 throw~ 3652-out;
#X connect 0 0 3 0;
#X connect 1 0 3 1;
#X connect 2 0 3 1;
#X connect 3 0 4 0;
#X restore 122 152 pd \$0-core;
#X floatatom 11 116 5 0 0 0 - - -, f 5;
#X floatatom 7 89 5 0 0 0 - - -, f 5;
#X obj 56 142 *~ 524288;
#X obj 62 90 / 2048;
#X connect 1 0 0 0;
#X connect 2 0 4 0;
#X connect 2 1 3 0;
#X connect 2 2 18 0;
#X connect 3 0 1 0;
#X connect 4 0 17 0;
#X connect 5 0 7 0;
#X connect 6 0 8 0;
#X connect 7 0 9 0;
#X connect 10 0 6 0;
#X connect 12 0 35 0;
#X connect 14 0 2 0;
#X connect 15 0 16 0;
#X connect 16 0 30 0;
#X connect 17 0 6 0;
#X connect 17 1 7 0;
#X connect 18 0 0 0;
#X connect 19 0 40 0;
#X connect 20 0 41 0;
#X connect 21 0 22 0;
#X connect 22 0 27 0;
#X connect 22 1 23 0;
#X connect 23 0 19 1;
#X connect 26 0 28 0;
#X connect 27 0 20 0;
#X connect 28 0 27 0;
#X connect 28 1 27 1;
#X connect 29 0 26 0;
#X connect 30 0 33 0;
#X connect 30 1 31 0;
#X connect 32 0 14 0;
#X connect 34 0 36 0;
#X connect 35 0 34 0;
#X connect 36 0 13 0;
#X connect 40 0 11 0;
#X connect 41 0 19 0;
#X connect 41 0 38 0;
#X restore 329 106 pd engine;
#X obj 298 52 inlet~;
#X obj 356 75 inlet midi;
#X obj 383 142 inlet;
#X obj 350 238 line~;
#X obj 345 173 / 127;
#X msg 338 200 \$1 20;
#X obj 300 265 *~;
#X obj -30 -7 text define -k 8bit;
#A set $v1<<2|$v1%($f2*111) 0 \; ($v1/128)<<7 0 \; $v1 0 \; $v1*$v1
-6 \; (($v1%($f2+44))>>$v1*$v1)^($v1%$f2) -1 \; ($v1%(11*$f2))|($v1%(11.2*$f2))
-10 \;;
#X obj 74 61 iemguts/sendcanvas;
#X obj 0 0 tgl 15 0 empty empty empty 17 7 0 10 -262144 -1 -1 0 1;
#X obj 136 11 r \$0-edit;
#X msg 82 38 vis 1 \, editmode 0 \, mouse 0 0 0 0 \, mouseup 0 0 0
\, vis 0 \, menusave;
#X connect 0 0 2 0;
#X connect 3 0 10 0;
#X connect 4 0 1 0;
#X connect 5 0 3 0;
#X connect 6 0 8 0;
#X connect 7 0 10 1;
#X connect 8 0 9 0;
#X connect 9 0 7 0;
#X connect 10 0 1 0;
#X connect 10 0 2 0;
#X connect 14 0 15 0;
#X connect 15 0 12 0;
#X restore 116 287 pd audio_stuff;
#X obj 703 310 loadbang;
#X msg 703 335 freq 0.8 \, mod 1.8;
#N canvas 172 83 586 377 LICENSE-GPL 0;
#X text 57 88 This program is free software: you can redistribute it
and/or modify it under the terms of the GNU General Public License
as published by the Free Software Foundation \, either version 3 of
the License \, or (at your option) any later version.;
#X text 58 168 This program is distributed in the hope that it will
be useful \, but WITHOUT ANY WARRANTY \; without even the implied warranty
of MERCHANTABILITY or FITNESS FOR A PARTICULAR PURPOSE. See the GNU
General Public License for more details.;
#X text 57 261 You should have received a copy of the GNU General Public
License along with this program. If not \, see <http://www.gnu.org/licenses/>.
;
#X text 61 54 Copyright (C) 2009 \, Reality Jockey Ltd.;
#X text 60 325 See the file LICENSE.txt for the full license text.
;
#X restore 298 15 pd LICENSE-GPL;
#X obj 570 294 r \$0-freq;
#X floatatom 570 316 5 0 0 0 - - -, f 5;
#X obj 475 94 switch~;
#X obj 563 88 s \$0-active;
#X obj 230 207 notein;
#X obj 371 163 u_loader inst_8bits-\$1 \$0;
#X obj 371 56 rack_enable 200 80 4 8 0 1 inst_8bits \$1;
#X obj 467 260 midi_enable inst_8bits \$1 \$0;
#X obj 219 237 poly 1 1;
#X obj 483 377 u_dispatch \$0 f3;
#X obj 467 352 u_dispatch \$0 f2;
#X obj 252 100 ui_vs \$0 f3 1 256;
#X obj 601 157 mtof;
#X floatatom 595 184 5 0 0 0 - - -, f 5;
#X floatatom 595 203 5 0 0 0 - - -, f 5;
#X floatatom 595 127 5 0 0 0 - - -, f 5;
#X msg 334 211 69 70;
#X obj 123 386 tabwrite~ scope;
#X obj 68 398;
#N canvas 0 50 450 250 (subpatch) 0;
#X array scope 2000 float 0;
#X coords 0 1 1999 -1 200 140 1;
#X restore 243 281 graph;
#X obj 141 210 bng 15 250 50 0 empty empty empty 17 7 0 10 -262144
-1 -1;
#X msg 341 179 69 0;
#X floatatom 406 198 5 0 0 0 - - -, f 5;
#X msg 406 217 \$1 70;
#X obj 140 139 bng 30 250 50 0 \$0-edit empty EDIT 0 20 0 10 -262144
-1 -1;
#X obj 127 52 makenote 100 100;
#X obj 127 75 pack 0 0;
#N canvas 145 50 577 652 random 0;
#X obj 100 99 select 1;
#X obj 100 35 inlet;
#X obj 174 203 * 200;
#X obj 174 231 t a a;
#X obj 449 409 outlet;
#X obj 174 144 random 4;
#X obj 174 169 + 1;
#X obj 174 268 delay;
#X obj 100 60 t a a;
#X obj 340 192 spigot 1;
#X obj 100 479 outlet;
#X obj 259 473 outlet;
#X obj 100 332 t b b b;
#X obj 269 39 inlet;
#X obj 449 380 - 1;
#X obj 259 367 random 40;
#X obj 259 387 + 40;
#X obj 100 451 m_majorscale 48;
#X obj 100 375 random 16;
#X connect 0 0 5 0;
#X connect 1 0 8 0;
#X connect 2 0 3 0;
#X connect 3 0 7 0;
#X connect 3 0 12 0;
#X connect 3 1 14 0;
#X connect 5 0 6 0;
#X connect 6 0 2 0;
#X connect 7 0 9 0;
#X connect 8 0 0 0;
#X connect 8 1 9 1;
#X connect 9 0 5 0;
#X connect 12 0 18 0;
#X connect 12 2 15 0;
#X connect 13 0 2 1;
#X connect 14 0 4 0;
#X connect 15 0 16 0;
#X connect 16 0 11 0;
#X connect 17 0 10 0;
#X connect 18 0 17 0;
#X restore 127 16 pd random notes;
#X msg 252 23 500;
#X obj 418 290 u_dispatch \$0 oct;
#X obj 35 137 r \$0-oct;
#X obj 34 163 t f b;
#X obj 44 190 delay 100;
#X obj 33 214 f;
#X obj 39 263 int;
#X obj 41 309 s \$0-oct;
#X obj 100 115 ui_vs \$0 oct -10.2 10.2;
#X obj 458 396 u_parameter \$0 chain;
#X obj 139 113 tgl 15 0 empty empty play_random 17 7 0 10 -262144 -1
-1 0 1;
#X obj 160 125 tgl 15 0 empty empty empty 17 7 0 10 -262144 -1 -1 0
1;
#X obj 303 140 select 0 1;
#X obj 213 100 ui_vs \$0 f2 1 256;
#X obj 170 152 hradio 15 1 0 8 \$0-preset empty preset 2 5 0 10 -204800
-260097 -1 5;
#X symbolatom 146 138 20 0 0 0 - #0-chain-rcv #0-chain, f 20;
#X obj 23 236 select;
#X obj 42 289 t f f;
#X connect 2 0 3 0;
#X connect 2 1 3 1;
#X connect 3 0 1 0;
#X connect 3 0 24 0;
#X connect 3 1 1 1;
#X connect 4 0 5 0;
#X connect 5 0 17 0;
#X connect 7 0 8 0;
#X connect 11 0 15 0;
#X connect 11 1 15 1;
#X connect 13 0 2 0;
#X connect 13 0 1 2;
#X connect 13 1 0 0;
#X connect 13 1 9 0;
#X connect 13 1 10 0;
#X connect 14 0 17 0;
#X connect 15 1 3 2;
#X connect 15 2 3 3;
#X connect 16 0 44 0;
#X connect 17 0 16 0;
#X connect 19 0 20 0;
#X connect 20 0 21 0;
#X connect 22 0 19 0;
#X connect 23 0 15 0;
#X connect 27 0 24 0;
#X connect 28 0 15 0;
#X connect 29 0 30 0;
#X connect 30 0 15 0;
#X connect 32 0 33 0;
#X connect 32 1 33 1;
#X connect 33 0 15 0;
#X connect 34 0 32 0;
#X connect 34 1 32 1;
#X connect 34 2 32 2;
#X connect 35 0 34 1;
#X connect 37 0 38 0;
#X connect 38 0 40 1;
#X connect 38 1 39 0;
#X connect 39 0 40 0;
#X connect 40 0 51 0;
#X connect 41 0 52 0;
#X connect 45 0 34 0;
#X connect 46 0 47 0;
#X connect 47 0 28 0;
#X connect 47 1 23 0;
#X connect 51 1 41 0;
#X connect 52 0 42 0;
#X connect 52 1 51 1;
#X coords 0 -1 1 1 190 70 1 100 100;
