#N canvas 282 182 882 720 10;
#X obj 369 245 switch~;
#X obj 220 102 vsl 70 17 1 0 0 0 \$0-presets \$0-presets-rcv PRESETS
2 5 0 10 -232576 -232576 -1 0 1;
#X obj 29 260 stereo_inlet~ \$0;
#X obj 27 278 stereo_outlet~ \$0;
#X obj 114 314 data_inlet \$0;
#X obj 99 379 data_outlet \$0;
#X obj 490 320 table \$0-notes 6;
#X obj 490 350 table \$0-velocity 6;
#X obj 38 509 tabread \$0-notes;
#X obj 38 529 tabread \$0-velocity;
#X obj 74 417 r;
#X obj 720 216 round_param \$0 beat;
#X obj 625 292 u_parameter \$0 beat;
#X text 132 86 1/16;
#X text 132 45 1/4;
#X text 132 60 1/8;
#X text 132 74 1/12;
#N canvas 0 50 1237 658 arpeggiator 0;
#X obj 377 59 route note;
#X obj 376 148 - 1;
#X obj 380 170 t b b f;
#X obj 366 240 tabwrite \$0-notes;
#X obj 403 215 tabwrite \$0-velocity;
#X obj 375 192 f;
#X obj 403 193 f;
#X obj 223 53 r \$0-beat;
#X msg 288 111 6;
#X obj 199 93 bng 15 250 50 0 empty empty empty 17 7 0 10 -262144 -1
-1;
#X obj 223 140 t f f;
#X msg 223 91 24;
#X msg 246 111 12;
#X msg 264 91 8;
#X obj 125 172 r CLOCK;
#X obj 205 225 mod;
#X obj 483 53 notein;
#X obj 377 128 poly 6;
#X obj 579 184 select 0;
#X msg 612 210 1;
#X obj 270 336 mod;
#X msg 579 211 -1;
#X obj 583 274 f;
#X obj 581 234 +;
#X obj 582 303 max 0;
#X obj 643 258 min 6;
#X obj 206 248 spigot;
#X obj 217 318 f;
#X obj 206 269 select 0;
#X obj 269 315 + 1;
#X obj 206 291 t b b;
#X obj 222 356 select 0;
#X obj 180 404 f;
#X msg 222 377 0;
#X obj 179 443 tabread \$0-velocity;
#X obj 151 463 select 0;
#X obj 224 408 + 1;
#X obj 268 405 mod 6;
#X obj 93 434 delay 1;
#X obj 181 424 t f f;
#X obj 179 510 pack f f;
#X msg 181 530 \$2 \$1;
#X obj 181 550 makenote 65 100;
#X obj 181 571 pack f f;
#X obj 244 471 tabread \$0-notes;
#X msg 181 592 note \$1 \$2;
#X obj 291 521 r \$0-duration;
#X obj 113 602 outlet;
#X obj 377 37 inlet;
#X msg 553 81 stop;
#X msg 325 111 3;
#X msg 305 91 4;
#X obj 223 72 select 0 1 2 3 4 5;
#X obj 548 50 r \$0-stop;
#X obj 377 102 spigot;
#X obj 434 78 r \$0-busy;
#X obj 125 194 spigot;
#X obj 183 172 r \$0-busy;
#X connect 0 0 54 0;
#X connect 1 0 2 0;
#X connect 2 0 5 0;
#X connect 2 1 6 0;
#X connect 2 2 3 1;
#X connect 2 2 4 1;
#X connect 5 0 3 0;
#X connect 6 0 4 0;
#X connect 7 0 52 0;
#X connect 8 0 10 0;
#X connect 10 0 15 1;
#X connect 11 0 10 0;
#X connect 12 0 10 0;
#X connect 13 0 10 0;
#X connect 14 0 56 0;
#X connect 15 0 26 0;
#X connect 16 0 54 0;
#X connect 16 1 17 1;
#X connect 17 0 1 0;
#X connect 17 1 5 1;
#X connect 17 2 6 1;
#X connect 17 2 18 0;
#X connect 18 0 21 0;
#X connect 18 1 19 0;
#X connect 19 0 23 0;
#X connect 20 0 27 1;
#X connect 21 0 23 0;
#X connect 22 0 24 0;
#X connect 23 0 22 0;
#X connect 24 0 25 0;
#X connect 25 0 23 1;
#X connect 25 0 26 1;
#X connect 25 0 20 1;
#X connect 26 0 28 0;
#X connect 27 0 29 0;
#X connect 27 0 31 0;
#X connect 28 0 30 0;
#X connect 29 0 20 0;
#X connect 30 0 32 0;
#X connect 30 1 27 0;
#X connect 31 0 33 0;
#X connect 32 0 36 0;
#X connect 32 0 39 0;
#X connect 33 0 32 1;
#X connect 34 0 35 0;
#X connect 35 0 38 0;
#X connect 35 1 40 0;
#X connect 36 0 37 0;
#X connect 37 0 32 1;
#X connect 38 0 32 0;
#X connect 39 0 34 0;
#X connect 39 1 44 0;
#X connect 40 0 41 0;
#X connect 41 0 42 0;
#X connect 42 0 43 0;
#X connect 42 1 43 1;
#X connect 43 0 45 0;
#X connect 44 0 40 1;
#X connect 45 0 47 0;
#X connect 46 0 42 2;
#X connect 48 0 0 0;
#X connect 49 0 17 0;
#X connect 50 0 10 0;
#X connect 51 0 10 0;
#X connect 52 0 11 0;
#X connect 52 0 9 0;
#X connect 52 1 12 0;
#X connect 52 2 13 0;
#X connect 52 3 8 0;
#X connect 52 4 51 0;
#X connect 52 5 50 0;
#X connect 53 0 49 0;
#X connect 54 0 17 0;
#X connect 55 0 54 1;
#X connect 56 0 15 0;
#X connect 57 0 56 1;
#X restore 114 347 pd arpeggiator;
#X obj 167 155 hradio 15 1 0 6 \$0-beat \$0-beat-rcv empty 0 -8 0 10
-262144 -1 -1 4;
#X obj 260 122 bng 30 250 50 0 empty empty reset 2 15 0 10 -204786
-1 -1;
#X obj 261 156 s \$0-stop;
#X obj 654 340 u_dispatch \$0 duration;
#X obj 100 115 ui_vs \$0 duration 10 400;
#X obj 548 276 r STOP;
#X obj 481 293;
#X text 506 57 |;
#X text 505 67 °;
#X text 504 68 °;
#X text 576 67 |;
#X text 575 77 °;
#X text 574 78 °;
#X text 572 62 ~;
#X text 626 77 |;
#X text 625 87 °;
#X text 624 88 °;
#X text 629 72 ~;
#X text 629 76 ~;
#X text 686 87 |;
#X text 685 97 °;
#X text 684 98 °;
#X text 689 82 ~;
#X text 689 86 ~;
#X text 689 89 ~;
#X text 172 133 |;
#X text 171 143 °;
#X text 170 144 °;
#X text 186 133 |;
#X text 185 143 °;
#X text 184 144 °;
#X text 188 128 ~;
#X text 216 132 |;
#X text 215 142 °;
#X text 214 143 °;
#X text 219 127 ~;
#X text 219 131 ~;
#X text 246 131 |;
#X text 245 141 °;
#X text 244 142 °;
#X text 249 126 ~;
#X text 249 130 ~;
#X text 249 133 ~;
#X text 201 133 |;
#X text 200 143 °;
#X text 199 144 °;
#X text 204 128 ~;
#X text 231 132 |;
#X text 230 142 °;
#X text 229 143 °;
#X text 234 127 ~;
#X text 234 131 ~;
#X text 203 122 3;
#X text 233 121 3;
#X obj 348 160 module_declare midi_arpeggiator \$0;
#X obj 624 267 module_loader midi_arpeggiator \$0;
#X obj 243 296 notein;
#X obj 246 325 pack f f;
#X msg 262 365 note \$1 \$2;
#X connect 2 0 3 0;
#X connect 2 1 3 1;
#X connect 4 0 17 0;
#X connect 12 0 21 0;
#X connect 17 0 5 0;
#X connect 19 0 20 0;
#X connect 23 0 20 0;
#X connect 72 0 0 0;
#X connect 73 0 12 0;
#X connect 74 0 75 0;
#X connect 74 1 75 1;
#X connect 75 0 76 0;
#X connect 76 0 17 0;
#X coords 0 -1 1 1 190 70 1 100 100;
