#N canvas 347 151 882 720 10;
#X obj 38 509 tabread \$0-notes;
#X obj 38 529 tabread \$0-velocity;
#X obj 720 216 round_param \$0 beat;
#X obj 625 292 u_parameter \$0 beat;
#X text 132 45 1/4;
#X text 132 60 1/8;
#N canvas 529 62 1237 658 arpeggiator 0;
#X obj 377 59 route note;
#X obj 376 148 - 1;
#X obj 380 170 t b b f;
#X obj 366 240 tabwrite \$0-notes;
#X obj 403 215 tabwrite \$0-velocity;
#X obj 375 192 f;
#X obj 403 193 f;
#X obj 223 53 r \$0-beat;
#X msg 288 111 6;
#X obj 199 93 bng 15 250 50 0 empty empty empty 17 7 0 10 -262144 -1
-1;
#X obj 223 140 t f f;
#X msg 223 91 24;
#X msg 246 111 12;
#X msg 264 91 8;
#X obj 115 175 mod;
#X obj 579 184 select 0;
#X msg 612 210 1;
#X obj 270 336 mod;
#X msg 579 211 -1;
#X obj 583 274 f;
#X obj 581 234 +;
#X obj 582 303 max 0;
#X obj 643 258 min 6;
#X obj 116 198 spigot;
#X obj 217 318 f;
#X obj 116 219 select 0;
#X obj 269 315 + 1;
#X obj 206 291 t b b;
#X obj 222 356 select 0;
#X obj 180 404 f;
#X msg 222 377 0;
#X obj 179 443 tabread \$0-velocity;
#X obj 103 461 select 0;
#X obj 224 408 + 1;
#X obj 268 405 mod 6;
#X obj 93 434 delay 1;
#X obj 181 424 t f f;
#X obj 179 510 pack f f;
#X msg 181 530 \$2 \$1;
#X obj 181 550 makenote 65 100;
#X obj 181 571 pack f f;
#X obj 244 471 tabread \$0-notes;
#X msg 181 592 note \$1 \$2;
#X obj 291 521 r \$0-duration;
#X obj 113 602 outlet;
#X obj 377 37 inlet;
#X msg 553 81 stop;
#X msg 325 111 3;
#X msg 305 91 4;
#X obj 223 72 select 0 1 2 3 4 5;
#X obj 548 50 r \$0-stop;
#X obj 377 102 spigot;
#X obj 434 78 r \$0-busy;
#X obj 80 146 spigot;
#X obj 93 122 r \$0-busy;
#X floatatom 460 143 5 0 0 0 - - -, f 5;
#X obj 377 128 poly 6 1;
#X floatatom 581 256 5 0 0 0 - - -, f 5;
#X obj 35 122 r CLOCK;
#X msg 109 99 1;
#X obj 490 320 table \$0-notes 6;
#X obj 490 350 table \$0-velocity 6;
#X obj 103 259 random 100;
#X obj 103 281 * 0.01;
#X obj 10 344 r \$0-prob;
#X obj 112 331 select 1;
#X obj 112 309 < 1;
#X obj 36 495 t f b;
#X obj 105 546 / 100;
#X obj 36 517 *;
#X obj 73 521 random 30;
#X obj 105 568 + 0.85;
#X connect 0 0 51 0;
#X connect 1 0 2 0;
#X connect 2 0 5 0;
#X connect 2 1 6 0;
#X connect 2 2 3 1;
#X connect 2 2 4 1;
#X connect 5 0 3 0;
#X connect 6 0 4 0;
#X connect 7 0 49 0;
#X connect 8 0 10 0;
#X connect 10 0 14 1;
#X connect 11 0 10 0;
#X connect 12 0 10 0;
#X connect 13 0 10 0;
#X connect 14 0 23 0;
#X connect 15 0 18 0;
#X connect 15 1 16 0;
#X connect 16 0 20 0;
#X connect 17 0 24 1;
#X connect 18 0 20 0;
#X connect 19 0 21 0;
#X connect 20 0 19 0;
#X connect 20 0 57 0;
#X connect 21 0 22 0;
#X connect 22 0 20 1;
#X connect 22 0 23 1;
#X connect 22 0 17 1;
#X connect 23 0 25 0;
#X connect 24 0 26 0;
#X connect 24 0 28 0;
#X connect 25 0 62 0;
#X connect 26 0 17 0;
#X connect 27 0 29 0;
#X connect 27 1 24 0;
#X connect 28 0 30 0;
#X connect 29 0 33 0;
#X connect 29 0 36 0;
#X connect 30 0 29 1;
#X connect 31 0 32 0;
#X connect 32 0 35 0;
#X connect 32 1 67 0;
#X connect 33 0 34 0;
#X connect 34 0 29 1;
#X connect 35 0 29 0;
#X connect 36 0 31 0;
#X connect 36 1 41 0;
#X connect 37 0 38 0;
#X connect 38 0 39 0;
#X connect 39 0 40 0;
#X connect 39 1 40 1;
#X connect 40 0 42 0;
#X connect 41 0 37 1;
#X connect 42 0 44 0;
#X connect 43 0 39 2;
#X connect 45 0 0 0;
#X connect 46 0 56 0;
#X connect 47 0 10 0;
#X connect 48 0 10 0;
#X connect 49 0 11 0;
#X connect 49 0 9 0;
#X connect 49 1 12 0;
#X connect 49 2 13 0;
#X connect 49 3 8 0;
#X connect 49 4 48 0;
#X connect 49 5 47 0;
#X connect 50 0 46 0;
#X connect 51 0 56 0;
#X connect 52 0 51 1;
#X connect 53 0 14 0;
#X connect 54 0 53 1;
#X connect 56 0 1 0;
#X connect 56 1 5 1;
#X connect 56 2 6 1;
#X connect 56 2 15 0;
#X connect 56 2 55 0;
#X connect 58 0 53 0;
#X connect 59 0 53 1;
#X connect 59 0 23 1;
#X connect 62 0 63 0;
#X connect 63 0 66 0;
#X connect 64 0 66 1;
#X connect 65 0 27 0;
#X connect 66 0 65 0;
#X connect 67 0 69 0;
#X connect 67 1 70 0;
#X connect 68 0 71 0;
#X connect 69 0 37 0;
#X connect 70 0 68 0;
#X connect 71 0 69 1;
#X restore 114 407 pd arpeggiator;
#X obj 654 340 u_dispatch \$0 duration;
#X obj 548 276 r STOP;
#X text 506 57 |;
#X text 505 67 °;
#X text 504 68 °;
#X text 576 67 |;
#X text 575 77 °;
#X text 574 78 °;
#X text 572 62 ~;
#X text 626 77 |;
#X text 625 87 °;
#X text 624 88 °;
#X text 629 72 ~;
#X text 629 76 ~;
#X text 686 87 |;
#X text 685 97 °;
#X text 684 98 °;
#X text 689 82 ~;
#X text 689 86 ~;
#X text 689 89 ~;
#X msg 267 283 note \$1 \$2;
#X obj 2 113 notein 1;
#X obj 22 137 spigot;
#X obj 47 8 r \$0-midiNoteIn;
#X obj 654 362 u_dispatch \$0 prob;
#X obj 684 0 tgl 30 0 MIDI_LEARN MIDI_LEARN-rcv midi-learn(cc1) 2 7
0 10 -262144 -1 -1 0 1;
#X obj 796 2 vsl 15 128 0 127 0 0 empty empty empty 0 -9 0 10 -262144
-1 -1 0 1;
#X msg 803 344 \; CTLIN \$1 1 1;
#X obj 329 415 midi-colors \$0 beat \$0-beat-rcv 0 5 lin;
#X obj 654 384 u_parameter \$0 bypass;
#X obj 396 300 r \$0-bypass;
#X obj 277 331 list prepend 0;
#X obj 269 360 route 0 1;
#X obj 50 348 r \$0-stop;
#X msg 50 370 stop;
#X obj 9 260 inlet~;
#X obj 7 278 outlet~;
#X obj 69 260 inlet~;
#X obj 67 278 outlet~;
#X obj 109 300 inlet data;
#X obj 167 441 outlet data;
#X obj 101 101 cnv 15 188 68 empty \$0-background midi_arpeggiator
0 7 0 14 -262144 -1 0;
#X obj 220 102 vsl 70 17 1 0 0 0 \$0-presets \$0-presets-rcv PRESETS
2 5 0 10 -232576 -232576 -1 0 1;
#X text 132 86 1/16;
#X text 132 74 1/12;
#X obj 199 155 hradio 15 1 0 6 \$0-beat \$0-beat-rcv empty 0 -8 0 10
-262144 -1 -1 3;
#X obj 176 125 bng 30 250 50 0 empty empty reset 2 15 0 10 -204786
-1 -1;
#X obj 352 121 s \$0-stop;
#X obj 100 115 ui_vs \$0 duration 10 400;
#X text 204 135 |;
#X text 203 145 °;
#X text 202 146 °;
#X text 218 135 |;
#X text 217 145 °;
#X text 216 146 °;
#X text 220 130 ~;
#X text 248 134 |;
#X text 247 144 °;
#X text 246 145 °;
#X text 251 129 ~;
#X text 251 133 ~;
#X text 275 133 |;
#X text 276 143 °;
#X text 275 144 °;
#X text 278 128 ~;
#X text 278 132 ~;
#X text 278 135 ~;
#X text 233 135 |;
#X text 232 145 °;
#X text 231 146 °;
#X text 236 130 ~;
#X text 263 134 |;
#X text 262 144 °;
#X text 261 145 °;
#X text 266 129 ~;
#X text 266 133 ~;
#X text 235 124 3;
#X text 265 123 3;
#X obj 33 163 pack f f;
#X obj 312 74 tgl 15 0 \$0-midiNoteIn \$0-midiNoteIn-rcv midiNoteIn
-50 7 0 10 -262144 -1 -1 0 1;
#X obj 138 115 ui_vs \$0 prob 0 1;
#X obj 196 113 tgl 20 0 \$0-bypass \$0-bypass-rcv BYPASS 1 7 0 10 -262144
-1 -1 0 1;
#X obj 624 267 module_loader midi_arpeggiator \$0 \$1;
#X connect 3 0 7 0;
#X connect 6 0 47 0;
#X connect 7 0 31 0;
#X connect 8 0 54 0;
#X connect 27 0 38 0;
#X connect 28 0 29 0;
#X connect 28 1 85 1;
#X connect 29 0 85 0;
#X connect 30 0 29 1;
#X connect 31 0 36 0;
#X connect 33 0 34 0;
#X connect 37 0 38 1;
#X connect 38 0 39 0;
#X connect 39 0 6 0;
#X connect 39 1 47 0;
#X connect 40 0 41 0;
#X connect 41 0 47 0;
#X connect 42 0 43 0;
#X connect 44 0 45 0;
#X connect 46 0 38 0;
#X connect 53 0 54 0;
#X connect 85 0 27 0;
#X connect 89 0 3 0;
#X coords 0 -1 1 1 190 70 1 100 100;
