#N canvas 270 50 1066 602 10;
#N canvas 172 83 586 377 LICENSE-GPL 0;
#X text 57 88 This program is free software: you can redistribute it
and/or modify it under the terms of the GNU General Public License
as published by the Free Software Foundation \, either version 3 of
the License \, or (at your option) any later version.;
#X text 58 168 This program is distributed in the hope that it will
be useful \, but WITHOUT ANY WARRANTY \; without even the implied warranty
of MERCHANTABILITY or FITNESS FOR A PARTICULAR PURPOSE. See the GNU
General Public License for more details.;
#X text 57 261 You should have received a copy of the GNU General Public
License along with this program. If not \, see <http://www.gnu.org/licenses/>.
;
#X text 61 54 Copyright (C) 2009 \, Reality Jockey Ltd.;
#X text 60 325 See the file LICENSE.txt for the full license text.
;
#X restore 205 10 pd LICENSE-GPL;
#N canvas 120 50 1142 609 choose-scale 0;
#X obj 396 470 outlet;
#X obj 439 119 i;
#X obj 439 178 sel 0 1 2 3 4 5 6 7 8 9 10 11 12 13;
#X obj 439 31 inlet;
#X msg -1 273 label ionian;
#X msg 92 274 label dorian;
#X msg 177 276 label phrygian;
#X msg 277 277 label lydian;
#X msg 364 278 label aeolian;
#X msg 442 307 label whole;
#X msg 537 311 label chromatic;
#X msg 650 316 label harm-major;
#X msg 677 365 label lyd-minor;
#X msg 764 409 label ancient;
#X msg 902 423 label pelog;
#X msg 940 380 label tetra;
#X msg 968 309 label indian;
#X msg 1035 260 label slendro;
#X connect 1 0 2 0;
#X connect 2 0 4 0;
#X connect 2 1 5 0;
#X connect 2 2 6 0;
#X connect 2 3 7 0;
#X connect 2 4 8 0;
#X connect 2 5 9 0;
#X connect 2 6 10 0;
#X connect 2 7 11 0;
#X connect 2 8 12 0;
#X connect 2 9 13 0;
#X connect 2 10 15 0;
#X connect 2 11 16 0;
#X connect 2 12 14 0;
#X connect 2 13 17 0;
#X connect 3 0 1 0;
#X connect 4 0 0 0;
#X connect 5 0 0 0;
#X connect 6 0 0 0;
#X connect 7 0 0 0;
#X connect 8 0 0 0;
#X connect 9 0 0 0;
#X connect 10 0 0 0;
#X connect 11 0 0 0;
#X connect 12 0 0 0;
#X connect 13 0 0 0;
#X connect 14 0 0 0;
#X connect 15 0 0 0;
#X connect 16 0 0 0;
#X connect 17 0 0 0;
#X restore 34 519 pd choose-scale;
#N canvas 65 50 1204 721 scales-tables 0;
#X obj 11 17 loadbang;
#X obj 10 156 loadbang;
#X obj 15 269 loadbang;
#X obj 17 383 loadbang;
#X obj 18 503 loadbang;
#X obj 427 3 loadbang;
#X obj 429 98 loadbang;
#X obj 430 197 loadbang;
#X obj 431 294 loadbang;
#X obj 430 421 loadbang;
#X obj 20 598 loadbang;
#X obj 433 534 loadbang;
#X obj 822 12 loadbang;
#X obj 823 149 loadbang;
#X obj 818 293 loadbang;
#X obj 11 131 table \$0-ionian;
#X obj 8 248 table \$0-aeolian;
#X obj 16 361 table \$0-dorian;
#X obj 17 479 table \$0-phrygian;
#X obj 18 692 table \$0-lyd-minor;
#X obj 459 24 table \$0-chromatic;
#X obj 462 119 table \$0-ancient;
#X obj 464 218 table \$0-tetra;
#X obj 466 315 table \$0-indian;
#X obj 468 441 table \$0-siga;
#X obj 433 653 table \$0-harm-major;
#X obj 864 35 table \$0-pelog;
#X obj 823 267 table \$0-slendro;
#X obj 817 395 table \$0-whole;
#X msg 11 81 \; \$1-ionian 0 0 2 4 5 7 9 11 12 14 16 17 19 21 23 24
26 28 29 31 33 35 36 38 40 41 43 45 47 48;
#X msg 10 201 \; \$1-aeolian 0 0 2 3 5 7 8 10 12 14 15 17 19 20 22
24 26 27 29 31 32 34 36 38 39 41 43 44 46 48;
#X msg 16 312 \; \$1-dorian 0 0 2 3 5 7 9 10 12 14 15 17 19 21 22 24
26 27 29 31 33 34 36 38 39 41 43 45 46 48;
#X msg 17 432 \; \$1-phrygian 0 0 1 3 5 7 8 10 12 13 15 17 19 20 22
24 25 27 29 31 32 34 36 37 39 41 43 44 46 48;
#X msg 18 549 \; \$1-lydian 0 0 2 4 6 7 9 11 12 14 16 18 19 21 23 24
26 28 30 31 33 35 36 38 40 42 43 45 47 48;
#X msg 19 643 \; \$1-lyd-minor 0 0 2 3 6 7 9 11 12 14 15 18 19 21 23
24 26 27 30 31 33 35 36 38 39 42 43 45 47 48;
#X msg 427 50 \; \$1-chromatic 0 0 1 2 3 4 5 6 7 8 9 10 11 12 13 14
15 16 17 18 19 20 21 22 23 24 25 26 27 28;
#X msg 428 151 \; \$1-ancient 0 0 0.5 1 5 7 7.5 8 12 12.5 13 17 19
19.5 20 24 24.5 25 29 31 31.5 32 36 36.5 37 41 43 43.5 44 48;
#X msg 430 248 \; \$1-tetra 0 0 1 1.75 2 3 3.75 4 5 12 13 13.75 14
15 15.75 16 17 24 25 25.75 26 27 27.75 28 29 36 37 37.75 38 39;
#X msg 431 350 \; \$1-indian 0 0 0.9 1.14 1.8 2.04 2.94 3.18 3.84 4.08
4.9 5.22 5.88 6.12 7.02 7.92 8.16 8.82 9.06 9.96 10.2 10.86 11.1 12
12.9 13.14 13.8 14.04 14.94 15.18;
#X msg 430 468 \; \$1-siga 0 0 1.5 3.5 5.5 7 8.5 10.5 12 13.5 15.5
17.5 19 20.5 22.5 24 25.5 27.5 29.5 31 32.5 34.5 36 37.5 39.5 41.5
43 44.5 46.5 48.5;
#X msg 433 601 \; \$1-harm-major 0 0 2 4 5 7 8 11 12 14 16 17 19 20
23 24 26 28 29 31 32 35 36 38 40 41 43 44 47 48;
#X msg 822 73 \; \$1-pelog 0 0 1.5 2.5 3.5 7 8 10.5 12 13.5 14.5 15.5
19 20 22.5 24 25.5 26.5 27.5 31 32 34.5 36 37.5 38.5 39.5 42.5 43.5
45 46.5;
#X msg 823 218 \; \$1-slendro 0 0 2.5 5 7 9.5 12 14.5 17 19 21.5 24
26.5 29 31 33.5 36 38.5 41 43 45.5 47 49.5 52 54 56.5 59 61.5 64 66.5
;
#X msg 818 346 \; \$1-whole 0 0 2 4 6 8 10 12 14 16 18 20 22 24 26
28 30 32 34 36 38 40 42 44 46 48 50 52 54 56;
#X obj 11 39 f \$0;
#X obj 10 178 f \$0;
#X obj 15 291 f \$0;
#X obj 17 405 f \$0;
#X obj 18 525 f \$0;
#X obj 20 620 f \$0;
#X obj 427 25 f \$0;
#X obj 429 120 f \$0;
#X obj 430 219 f \$0;
#X obj 431 316 f \$0;
#X obj 430 443 f \$0;
#X obj 433 556 f \$0;
#X obj 822 34 f \$0;
#X obj 823 171 f \$0;
#X obj 818 315 f \$0;
#X obj 49 524 table \$0-lydian;
#X connect 0 0 44 0;
#X connect 1 0 45 0;
#X connect 2 0 46 0;
#X connect 3 0 47 0;
#X connect 4 0 48 0;
#X connect 5 0 50 0;
#X connect 6 0 51 0;
#X connect 7 0 52 0;
#X connect 8 0 53 0;
#X connect 9 0 54 0;
#X connect 10 0 49 0;
#X connect 11 0 55 0;
#X connect 12 0 56 0;
#X connect 13 0 57 0;
#X connect 14 0 58 0;
#X connect 44 0 29 0;
#X connect 45 0 30 0;
#X connect 46 0 31 0;
#X connect 47 0 32 0;
#X connect 48 0 33 0;
#X connect 49 0 34 0;
#X connect 50 0 35 0;
#X connect 51 0 36 0;
#X connect 52 0 37 0;
#X connect 53 0 38 0;
#X connect 54 0 39 0;
#X connect 55 0 40 0;
#X connect 56 0 41 0;
#X connect 57 0 42 0;
#X connect 58 0 43 0;
#X restore 53 371 pd scales-tables;
#X obj 371 5 r CLOCK;
#X obj 356 380 makenote 100 300;
#X obj 356 402 pack f f;
#X msg 363 422 note \$1 \$2;
#X obj 412 167 f;
#X obj 442 167 + 1;
#X obj 412 145 t b b;
#X obj 370 74 / 6;
#X obj 372 113 int;
#X obj 372 135 change;
#X obj 101 101 cnv 15 188 68 empty \$0-background note_16steps 0 7
0 14 -260818 -1 0;
#X obj 361 199 t f f f;
#X obj 660 217 s \$0-cursor;
#X obj 372 179 % 16;
#X obj 612 127 * 10;
#X obj 628 147 + 100;
#X msg 657 171 pos \$1 131;
#X msg 553 195 0;
#X obj 120 160 tgl 10 0 \$0-random-3 \$0-random-3-rcv empty 17 7 0
10 -159681 -1 -1 0 1;
#X obj 130 160 tgl 10 0 \$0-random-4 \$0-random-4-rcv empty 17 7 0
10 -159681 -1 -1 0 1;
#X obj 140 160 tgl 10 0 \$0-random-5 \$0-random-5-rcv empty 17 7 0
10 -162280 -1 -1 0 1;
#X obj 150 160 tgl 10 0 \$0-random-6 \$0-random-6-rcv empty 17 7 0
10 -159681 -1 -1 1 1;
#X obj 160 160 tgl 10 0 \$0-random-7 \$0-random-7-rcv empty 17 7 0
10 -159681 -1 -1 0 1;
#X obj 170 160 tgl 10 0 \$0-random-8 \$0-random-8-rcv empty 17 7 0
10 -159681 -1 -1 0 1;
#X obj 180 160 tgl 10 0 \$0-random-9 \$0-random-9-rcv empty 17 7 0
10 -162280 -1 -1 0 1;
#X obj 190 160 tgl 10 0 \$0-random-10 \$0-random-10-rcv empty 17 7
0 10 -159681 -1 -1 1 1;
#X obj 200 160 tgl 10 0 \$0-random-11 \$0-random-11-rcv empty 17 7
0 10 -159681 -1 -1 0 1;
#X obj 210 160 tgl 10 0 \$0-random-12 \$0-random-12-rcv empty 17 7
0 10 -159681 -1 -1 0 1;
#X obj 220 160 tgl 10 0 \$0-random-13 \$0-random-13-rcv empty 17 7
0 10 -162280 -1 -1 0 1;
#X obj 230 160 tgl 10 0 \$0-random-14 \$0-random-14-rcv empty 17 7
0 10 -159681 -1 -1 0 1;
#X obj 240 160 tgl 10 0 \$0-random-15 \$0-random-15-rcv empty 17 7
0 10 -159681 -1 -1 0 1;
#X obj 250 160 tgl 10 0 \$0-random-16 \$0-random-16-rcv empty 17 7
0 10 -159681 -1 -1 0 1;
#X obj 100 160 tgl 10 0 \$0-random-1 \$0-random-1-rcv empty 17 7 0
10 -162280 -1 -1 0 1;
#X obj 110 160 tgl 10 0 \$0-random-2 \$0-random-2-rcv empty 17 7 0
10 -159681 -1 -1 1 1;
#X obj 26 496 r \$0-scale;
#X obj 18 547 s \$0-scale-rcv;
#X obj 270 130 vradio 10 1 0 4 \$0-recall_preset \$0-recall_preset-rcv
empty 0 -8 0 10 -225271 -1 -1 2;
#X obj 280 130 vradio 10 1 0 4 empty empty empty 0 -8 0 10 -261234
-1 -1 0;
#X obj 371 27 spigot;
#N canvas 0 50 518 426 randomizing 0;
#X obj 122 38 inlet;
#X obj 137 150 tabread \$0-random;
#X obj 139 170 select 1;
#X obj 212 244 f;
#X obj 139 192 t b b;
#X obj 62 251 +;
#X obj 62 295 max 0;
#X obj 107 315 tabwrite \$0-step;
#X obj 62 273 min 29;
#X obj 272 123 tabread \$0-step;
#X obj 202 82 t f f f;
#X obj 63 219 - 6;
#X obj 61 194 random 13;
#X connect 0 0 10 0;
#X connect 1 0 2 0;
#X connect 2 0 4 0;
#X connect 3 0 7 1;
#X connect 4 0 12 0;
#X connect 4 1 3 0;
#X connect 5 0 8 0;
#X connect 6 0 7 0;
#X connect 8 0 6 0;
#X connect 9 0 5 1;
#X connect 10 0 1 0;
#X connect 10 1 3 1;
#X connect 10 2 9 0;
#X connect 11 0 5 0;
#X connect 12 0 11 0;
#X restore 348 248 pd randomizing;
#N canvas 303 50 1143 598 updating_random_toggles 0;
#X obj 111 60 r \$0-random-1;
#X obj 141 90 r \$0-random-2;
#X obj 161 120 r \$0-random-3;
#X obj 191 150 r \$0-random-4;
#X obj 261 60 r \$0-random-5;
#X obj 291 90 r \$0-random-6;
#X obj 311 120 r \$0-random-7;
#X obj 341 150 r \$0-random-8;
#X obj 899 251 table \$0-random 16;
#X msg 560 181 \$1 8;
#X msg 610 181 \$1 9;
#X msg 653 182 \$1 10;
#X msg 703 182 \$1 11;
#X msg 810 181 \$1 12;
#X msg 860 181 \$1 13;
#X msg 903 182 \$1 14;
#X msg 953 182 \$1 15;
#X obj 601 60 r \$0-random-9;
#X obj 631 90 r \$0-random-10;
#X obj 651 120 r \$0-random-11;
#X obj 681 150 r \$0-random-12;
#X obj 751 60 r \$0-random-13;
#X obj 781 90 r \$0-random-14;
#X obj 801 120 r \$0-random-15;
#X obj 831 150 r \$0-random-16;
#X obj 125 233 t b l;
#X obj 625 293 tabwrite \$0-random;
#X obj 615 233 t b l;
#X msg 395 314 -1;
#X obj 383 286 loadbang;
#X obj 356 349 array get \$0-random;
#X obj 381 405 s \$0-randoms;
#X obj 181 361 r \$0-randoms;
#X obj 198 395 spigot 1;
#X obj 356 371 t b l b;
#X msg 300 397 0;
#X msg 318 365 1;
#X obj 191 455 array set \$0-random;
#X obj 509 478 list split 1;
#X obj 567 505 list;
#X obj 538 435 t l b;
#X obj 597 542 f;
#X obj 497 513 t f b;
#X obj 502 577 s;
#X msg 481 555 set \$1;
#X obj 573 578 makefilename \$0-random-%d-rcv;
#X msg 70 181 \$1 0;
#X msg 120 181 \$1 1;
#X msg 163 182 \$1 2;
#X msg 213 182 \$1 3;
#X msg 320 181 \$1 4;
#X msg 370 181 \$1 5;
#X msg 413 182 \$1 6;
#X msg 463 182 \$1 7;
#X msg 740 506 16;
#X obj 710 533 - 1;
#X connect 0 0 46 0;
#X connect 1 0 47 0;
#X connect 2 0 48 0;
#X connect 3 0 49 0;
#X connect 4 0 50 0;
#X connect 5 0 51 0;
#X connect 6 0 52 0;
#X connect 7 0 53 0;
#X connect 9 0 27 0;
#X connect 10 0 27 0;
#X connect 11 0 27 0;
#X connect 12 0 27 0;
#X connect 13 0 27 0;
#X connect 14 0 27 0;
#X connect 15 0 27 0;
#X connect 16 0 27 0;
#X connect 17 0 9 0;
#X connect 18 0 10 0;
#X connect 19 0 11 0;
#X connect 20 0 12 0;
#X connect 21 0 13 0;
#X connect 22 0 14 0;
#X connect 23 0 15 0;
#X connect 24 0 16 0;
#X connect 25 0 30 0;
#X connect 25 1 26 0;
#X connect 27 0 30 0;
#X connect 27 1 26 0;
#X connect 28 0 30 1;
#X connect 29 0 28 0;
#X connect 30 0 34 0;
#X connect 32 0 33 0;
#X connect 33 0 37 0;
#X connect 33 0 40 0;
#X connect 34 0 36 0;
#X connect 34 1 31 0;
#X connect 34 2 35 0;
#X connect 35 0 33 1;
#X connect 36 0 33 1;
#X connect 38 0 42 0;
#X connect 38 1 39 0;
#X connect 39 0 38 0;
#X connect 40 0 38 0;
#X connect 40 1 54 0;
#X connect 41 0 45 0;
#X connect 41 0 55 0;
#X connect 42 0 44 0;
#X connect 42 1 41 0;
#X connect 44 0 43 0;
#X connect 45 0 43 1;
#X connect 46 0 25 0;
#X connect 47 0 25 0;
#X connect 48 0 25 0;
#X connect 49 0 25 0;
#X connect 50 0 25 0;
#X connect 51 0 25 0;
#X connect 52 0 25 0;
#X connect 53 0 25 0;
#X connect 54 0 41 1;
#X connect 55 0 41 1;
#X restore 36 256 pd updating_random_toggles;
#X obj 830 112 u_parameter_subset \$0 scale;
#X obj 830 132 u_parameter_subset \$0 offset;
#X obj 831 178 u_parameter_subset \$0 xpose;
#X obj 798 384 s \$0-subset;
#X msg 712 319 get \$1;
#X msg 802 320 set \$1;
#X obj 919 321 loadbang;
#X msg 923 387 reset \, append \, append \, append \, append;
#X obj 827 199 u_sublist \$0 steps 16;
#N canvas 707 62 648 428 updating_steps 0;
#X obj 251 131 metro 3000;
#X obj 263 102 r \$0-busy;
#X msg 395 164 -1;
#X obj 383 136 loadbang;
#X obj 198 245 spigot 1;
#X obj 356 221 t b l b;
#X msg 300 247 0;
#X msg 318 215 1;
#X obj 356 199 array get \$0-step;
#X obj 381 255 s \$0-steps;
#X obj 181 211 r \$0-steps;
#X obj 191 305 array set \$0-step;
#X obj 447 55 inlet;
#X connect 0 0 8 0;
#X connect 1 0 0 0;
#X connect 2 0 8 1;
#X connect 3 0 2 0;
#X connect 4 0 11 0;
#X connect 5 0 7 0;
#X connect 5 1 9 0;
#X connect 5 2 6 0;
#X connect 6 0 4 1;
#X connect 7 0 4 1;
#X connect 8 0 5 0;
#X connect 10 0 4 0;
#X connect 12 0 8 0;
#X restore 294 273 pd updating_steps;
#X obj 264 200 t f b;
#X obj 877 345 delay 10;
#X obj 678 397 loadbang;
#X msg 697 423 16;
#X obj 697 450 s \$0-cycle;
#X obj 827 221 u_parameter_subset \$0 cycle;
#X obj 826 457 r \$0-cycle;
#X obj 101 130 cnv 8 158 30 empty \$0-cycle_zone-rcv empty 20 12 0
14 -210727 -66577 0;
#X obj 230 131 cnv 10 10 28 empty \$0-cursor empty 20 12 0 14 -233017
-66577 0;
#N canvas 0 50 450 250 (subpatch) 0;
#X array \$0-step 16 float 3;
#A 0 11.6 29 14.5 14.5 -1 25 14.5 -1 5.8 4 17.4 17.4 10.6333 8.69995
21.2667 20.3;
#X coords 0 29 16 0 160 30 1 0 0;
#X restore 100 130 graph;
#X obj 851 496 * 10;
#X obj 851 518 - 2;
#X obj 768 562 s \$0-cycle_zone-rcv;
#X msg 815 543 vis_size \$1 30;
#X obj 172 115 hsl 64 15 0 13 0 1 \$0-scale \$0-scale-rcv ionian 3
7 0 10 -228992 -1 -1 0 1;
#X obj 241 115 hsl 47 15 0 11 0 1 \$0-xpose \$0-xpose-rcv Xpose:0 3
7 0 10 -261681 -1 -1 0 1;
#X obj 103 115 hsl 64 15 0 100 0 1 \$0-offset \$0-offset-rcv OFFSET
3 7 0 10 -262131 -1 -1 3150 1;
#X obj 476 167 r \$0-cycle;
#N canvas 0 50 450 594 note_seq 0;
#X obj 176 458 outlet;
#X obj 178 13 inlet;
#N canvas 120 50 1142 609 choose-scale 0;
#X obj 438 475 outlet;
#X obj 81 15 inlet;
#X msg 80 566 set \$1-ionian;
#X obj 24 150 loadbang;
#X msg 90 464 set \$1-dorian;
#X msg 110 340 set \$1-phrygian;
#X msg 125 238 set \$1-lydian;
#X msg 220 239 set \$1-aeolian;
#X msg 317 239 set \$1-whole;
#X msg 404 236 set \$1-chromatic;
#X msg 512 234 set \$1-harm-major;
#X msg 559 311 set \$1-lyd-minor;
#X msg 588 363 set \$1-ancient;
#X msg 827 283 set \$1-pelog;
#X msg 642 445 set \$1-tetra;
#X msg 817 455 set \$1-indian;
#X msg 989 300 set \$1-slendro;
#X obj 24 171 f \$0;
#X obj 81 125 sel 0 1 2 3 4 5 6 7 8 9 10 11 12 13;
#X obj 80 536 f;
#X obj 90 435 f;
#X obj 110 318 f;
#X obj 125 210 f;
#X obj 24 193 t f f f f;
#X obj 216 45 loadbang;
#X obj 216 66 f \$0;
#X obj 216 88 t f f f f;
#X obj 220 215 f;
#X obj 317 213 f;
#X obj 404 214 f;
#X obj 512 210 f;
#X obj 559 285 f;
#X obj 589 339 f;
#X obj 661 404 f;
#X obj 807 412 f;
#X obj 552 51 loadbang;
#X obj 552 72 f \$0;
#X obj 830 246 f;
#X obj 1000 257 f;
#X obj 552 94 t f f f f f f;
#X connect 1 0 18 0;
#X connect 2 0 0 0;
#X connect 3 0 17 0;
#X connect 4 0 0 0;
#X connect 5 0 0 0;
#X connect 6 0 0 0;
#X connect 7 0 0 0;
#X connect 8 0 0 0;
#X connect 9 0 0 0;
#X connect 10 0 0 0;
#X connect 11 0 0 0;
#X connect 12 0 0 0;
#X connect 13 0 0 0;
#X connect 14 0 0 0;
#X connect 15 0 0 0;
#X connect 16 0 0 0;
#X connect 17 0 23 0;
#X connect 18 0 19 0;
#X connect 18 1 20 0;
#X connect 18 2 21 0;
#X connect 18 3 22 0;
#X connect 18 4 27 0;
#X connect 18 5 28 0;
#X connect 18 6 29 0;
#X connect 18 7 30 0;
#X connect 18 8 31 0;
#X connect 18 9 32 0;
#X connect 18 10 33 0;
#X connect 18 11 34 0;
#X connect 18 12 37 0;
#X connect 18 13 38 0;
#X connect 19 0 2 0;
#X connect 20 0 4 0;
#X connect 21 0 5 0;
#X connect 22 0 6 0;
#X connect 23 0 19 1;
#X connect 23 1 20 1;
#X connect 23 2 21 1;
#X connect 23 3 22 1;
#X connect 24 0 25 0;
#X connect 25 0 26 0;
#X connect 26 0 27 1;
#X connect 26 1 28 1;
#X connect 26 2 29 1;
#X connect 26 3 30 1;
#X connect 27 0 7 0;
#X connect 28 0 8 0;
#X connect 29 0 9 0;
#X connect 30 0 10 0;
#X connect 31 0 11 0;
#X connect 32 0 12 0;
#X connect 33 0 14 0;
#X connect 34 0 15 0;
#X connect 35 0 36 0;
#X connect 36 0 39 0;
#X connect 37 0 13 0;
#X connect 38 0 16 0;
#X connect 39 0 31 1;
#X connect 39 1 32 1;
#X connect 39 2 33 1;
#X connect 39 3 34 1;
#X connect 39 4 37 1;
#X connect 39 5 38 1;
#X restore 75 229 pd choose-scale;
#X obj 194 375 +;
#X obj 242 307 r \$0-xpose;
#X obj 365 265 * 12;
#X obj 194 397 +;
#X obj 242 329 int;
#X obj 242 351 change;
#X obj 306 116 int;
#X obj 268 143 mod 15;
#X obj 352 141 div 15;
#X obj 315 239 - 28;
#X obj 223 206 moses 28.0001;
#X obj 194 419 +;
#X obj 216 234 t f b;
#X obj 311 262 t f b;
#X msg 237 425 0;
#X msg 430 361 48;
#X obj 219 176 +;
#X obj 222 73 tabread \$0-step;
#X obj 306 94 r \$0-offset;
#X msg 335 410 label Xpose:\$1;
#X obj 331 434 s \$0-xpose-rcv;
#X obj 67 181 r \$0-scale;
#X obj 203 282 tabread \$0-ionian;
#X obj 140 83 moses 0;
#X obj 178 35 t f f;
#X obj 83 150 tabwrite \$0-step;
#X obj 140 105 select -1;
#X msg 80 130 -1;
#X obj 67 203 int;
#X connect 1 0 27 0;
#X connect 2 0 25 0;
#X connect 3 0 6 0;
#X connect 4 0 7 0;
#X connect 5 0 6 1;
#X connect 6 0 14 0;
#X connect 7 0 8 0;
#X connect 8 0 3 1;
#X connect 8 0 22 0;
#X connect 9 0 10 0;
#X connect 9 0 11 0;
#X connect 10 0 19 1;
#X connect 11 0 5 0;
#X connect 12 0 16 0;
#X connect 13 0 15 0;
#X connect 13 1 12 0;
#X connect 14 0 0 0;
#X connect 15 0 25 0;
#X connect 15 1 17 0;
#X connect 16 0 25 0;
#X connect 16 1 18 0;
#X connect 17 0 14 1;
#X connect 18 0 14 1;
#X connect 19 0 13 0;
#X connect 20 0 26 0;
#X connect 21 0 9 0;
#X connect 22 0 23 0;
#X connect 24 0 31 0;
#X connect 25 0 3 0;
#X connect 26 0 29 0;
#X connect 26 1 19 0;
#X connect 27 0 20 0;
#X connect 27 1 28 1;
#X connect 29 1 30 0;
#X connect 30 0 28 0;
#X connect 31 0 2 0;
#X restore 363 353 pd note_seq;
#X obj 42 46 inlet~;
#X obj 42 68 outlet~;
#X obj 112 46 inlet~;
#X obj 112 68 outlet~;
#X obj 366 449 outlet data;
#X obj 476 310 inlet data;
#X obj 461 21 r \$0-busy;
#X obj 830 56 module_loader note_16steps \$0 \$1;
#X obj 386 498 midi-colors \$0 offset \$0-offset-rcv 0 100 lin 5;
#X obj 386 528 midi-colors \$0 scale \$0-scale-rcv 0 13 lin 98;
#X obj 342 560 midi-colors \$0 xpose \$0-xpose-rcv 0 11 lin 214;
#X obj 282 470 midi-colors \$0 recall_preset \$0-recall_preset-rcv
0 11 lin 204786;
#X text 260 125 p;
#X text 260 148 e;
#X text 260 155 t;
#X text 260 134 r;
#X text 260 141 s;
#X obj 254 101 nbx 3 14 1 16 0 0 \$0-cycle \$0-cycle-rcv steps -30
8 0 10 -262144 -1 -1 16 256;
#X obj 197 103 hradio 10 1 0 3 \$0-div \$0-div-rcv div 1 6 0 10 -159808
-258113 -4034 0;
#X obj 827 243 u_parameter \$0 div;
#X obj 469 60 r \$0-div;
#X obj 469 82 select 0 1 2;
#X msg 471 110 6;
#X msg 517 119 12;
#X msg 568 101 24;
#X msg 720 30 cycle 16 \, div 0 \, offset 50 \, xpose 0 \, scale 0
;
#X obj 655 10 loadbang;
#X msg 803 276 reset;
#X obj 849 155 u_sublist \$0 randoms 16;
#X obj 322 590 midi-colors \$0 cycle \$0-cycle-rcv 1 16 lin 0;
#X connect 1 0 38 0;
#X connect 3 0 41 0;
#X connect 4 0 5 0;
#X connect 4 1 5 1;
#X connect 5 0 6 0;
#X connect 6 0 77 0;
#X connect 7 0 8 0;
#X connect 8 0 7 1;
#X connect 9 0 7 0;
#X connect 10 0 11 0;
#X connect 11 0 12 0;
#X connect 12 0 16 0;
#X connect 14 0 42 0;
#X connect 14 1 72 0;
#X connect 14 2 17 0;
#X connect 16 0 14 0;
#X connect 17 0 18 0;
#X connect 18 0 19 0;
#X connect 19 0 15 0;
#X connect 20 0 17 0;
#X connect 37 0 1 0;
#X connect 39 0 48 0;
#X connect 40 0 54 0;
#X connect 41 0 10 0;
#X connect 44 0 45 0;
#X connect 45 0 101 0;
#X connect 46 0 52 0;
#X connect 48 0 47 0;
#X connect 49 0 47 0;
#X connect 50 0 55 0;
#X connect 51 0 47 0;
#X connect 52 0 59 0;
#X connect 54 0 49 0;
#X connect 54 1 53 0;
#X connect 55 0 51 0;
#X connect 56 0 57 0;
#X connect 57 0 58 0;
#X connect 59 0 92 0;
#X connect 60 0 64 0;
#X connect 64 0 65 0;
#X connect 65 0 67 0;
#X connect 67 0 66 0;
#X connect 71 0 16 1;
#X connect 72 0 4 0;
#X connect 73 0 74 0;
#X connect 75 0 76 0;
#X connect 78 0 77 0;
#X connect 79 0 41 1;
#X connect 80 0 44 0;
#X connect 93 0 94 0;
#X connect 94 0 95 0;
#X connect 94 1 96 0;
#X connect 94 2 97 0;
#X connect 95 0 10 1;
#X connect 96 0 10 1;
#X connect 97 0 10 1;
#X connect 98 0 80 0;
#X connect 99 0 98 0;
#X connect 100 0 47 0;
#X connect 101 0 46 0;
#X coords 0 -1 1 1 190 70 1 100 100;
