#N canvas 156 50 678 486 10;
#N canvas 172 83 586 377 LICENSE-GPL 0;
#X text 57 88 This program is free software: you can redistribute it
and/or modify it under the terms of the GNU General Public License
as published by the Free Software Foundation \, either version 3 of
the License \, or (at your option) any later version.;
#X text 58 168 This program is distributed in the hope that it will
be useful \, but WITHOUT ANY WARRANTY \; without even the implied warranty
of MERCHANTABILITY or FITNESS FOR A PARTICULAR PURPOSE. See the GNU
General Public License for more details.;
#X text 57 261 You should have received a copy of the GNU General Public
License along with this program. If not \, see <http://www.gnu.org/licenses/>.
;
#X text 61 54 Copyright (C) 2009 \, Reality Jockey Ltd.;
#X text 60 325 See the file LICENSE.txt for the full license text.
;
#X restore 298 15 pd LICENSE-GPL;
#X obj 101 101 cnv 15 188 68 empty \$0-background note_randomize 0
7 0 14 -262144 -1 0;
#X obj 208 228 route note;
#X obj 100 115 ui_vs \$0 prob 0 100;
#X obj 367 263 u_dispatch \$0 prob;
#X obj 196 288 route 0;
#X msg 196 262 \$2 \$1;
#X msg 186 429 note \$1 0;
#X msg 292 390 note \$2 \$1;
#N canvas 0 50 450 300 probs 0;
#X obj 102 53 inlet;
#X obj 119 229 outlet;
#X obj 105 124 random 100;
#X obj 197 147 r \$0-prob;
#X obj 135 178 select 1;
#X obj 182 202 list append;
#X obj 105 146 <= 100;
#X obj 110 86 t b l;
#X connect 0 0 7 0;
#X connect 2 0 6 0;
#X connect 3 0 6 1;
#X connect 4 0 5 0;
#X connect 5 0 1 0;
#X connect 6 0 4 0;
#X connect 7 0 2 0;
#X connect 7 1 5 1;
#X restore 290 320 pd probs;
#X obj 367 285 u_dispatch \$0 accent;
#X obj 150 115 ui_vs \$0 accent 0 100;
#N canvas 0 50 450 300 accent 0;
#X obj 152 48 inlet;
#X obj 137 90 unpack f f;
#X obj 136 121 t f b;
#X obj 176 149 random 0;
#X obj 197 185 -;
#X obj 312 114 / 2;
#X obj 133 205 +;
#X obj 133 227 min 127;
#X obj 133 249 max 0;
#X obj 135 272 pack f f;
#X obj 135 294 outlet;
#X obj 268 76 r \$0-accent;
#X connect 0 0 1 0;
#X connect 1 0 2 0;
#X connect 1 1 9 1;
#X connect 2 0 6 0;
#X connect 2 1 3 0;
#X connect 3 0 4 0;
#X connect 4 0 6 1;
#X connect 5 0 4 1;
#X connect 6 0 7 0;
#X connect 7 0 8 0;
#X connect 8 0 9 0;
#X connect 9 0 10 0;
#X connect 11 0 3 1;
#X connect 11 0 5 0;
#X restore 293 350 pd accent;
#X obj 29 260 inlet~;
#X obj 30 286 outlet~;
#X obj 99 260 inlet~;
#X obj 100 286 outlet~;
#X obj 208 206 inlet data;
#X obj 202 459 outlet data;
#X obj 367 241 module_loader note_randomize \$0 \$1;
#X connect 2 0 6 0;
#X connect 2 1 18 0;
#X connect 4 0 10 0;
#X connect 5 0 7 0;
#X connect 5 1 9 0;
#X connect 6 0 5 0;
#X connect 7 0 18 0;
#X connect 8 0 18 0;
#X connect 9 0 12 0;
#X connect 12 0 8 0;
#X connect 13 0 14 0;
#X connect 15 0 16 0;
#X connect 17 0 2 0;
#X connect 19 0 4 0;
#X coords 0 -1 1 1 190 70 1 100 100;
