#N canvas 469 26 678 489 10;
#X declare -stdpath extra/rj/;
#X obj 112 343 stereo_outlet~;
#X obj 29 263 stereo_inlet~;
#N canvas 172 83 586 377 LICENSE-GPL 0;
#X text 57 88 This program is free software: you can redistribute it
and/or modify it under the terms of the GNU General Public License
as published by the Free Software Foundation \, either version 3 of
the License \, or (at your option) any later version.;
#X text 58 168 This program is distributed in the hope that it will
be useful \, but WITHOUT ANY WARRANTY \; without even the implied warranty
of MERCHANTABILITY or FITNESS FOR A PARTICULAR PURPOSE. See the GNU
General Public License for more details.;
#X text 57 261 You should have received a copy of the GNU General Public
License along with this program. If not \, see <http://www.gnu.org/licenses/>.
;
#X text 61 54 Copyright (C) 2009 \, Reality Jockey Ltd.;
#X text 60 325 See the file LICENSE.txt for the full license text.
;
#X restore 298 18 pd LICENSE-GPL;
#X obj 377 233 switch~;
#X obj 304 470 midi-colors \$0 bypass \$0-bypass-rcv;
#X obj 242 560 s \$0-bypass;
#X obj 304 497 < 1;
#X obj 473 207 u_loaderV2 template1 \$1 \$0;
#X obj 347 263 midi_enableV2 template1 \$1 \$0;
#X obj 105 208 rack_enableV2 100 20 8 32 0 1 template1 \$1 \$0;
#X connect 4 0 6 0;
#X connect 6 0 5 0;
#X connect 9 0 1 0;
#X connect 9 0 0 2;
#X connect 9 1 3 0;
#X connect 9 1 8 0;
#X coords 0 489 1 488 190 70 0;
