#N canvas 0 50 842 538 10;
#X obj 55 303 catch~ \$0-out;
#X obj 50 506 outlet~;
#X obj 52 201 phasor~;
#X obj 50 155 mtof;
#X obj 50 3 inlet;
#X obj 52 83 t f b;
#X msg 99 135 0;
#X obj 106 86 * 12;
#X obj 53 133 +;
#X obj 63 109 t b f;
#X obj 50 351 /~ 256;
#X obj 52 328 expr~ $v1%256;
#X obj 47 376 hip~ 5;
#N canvas 0 50 450 300 \$0-core 0;
#X obj 0 0 r~ 2579-in;
#X obj 100 0 r 2579-p1;
#X obj 200 0 r 2579-p2;
#X obj 0 20 expr~ ($v1%6536)|($v1%(555+$f2));
#X obj 0 40 throw~ 2579-out;
#X connect 0 0 3 0;
#X connect 1 0 3 1;
#X connect 2 0 3 1;
#X connect 3 0 4 0;
#X restore 52 274 pd \$0-core;
#X obj 53 226 *~ 524288;
#X obj 50 175 / 2048;
#X text 131 130 reset phase;
#X text 121 228 (=65536*16);
#X obj 106 64 r \$1-oct;
#X obj 55 247 s~ \$0-in;
#X obj 371 322 s pd-\$0-core;
#X msg 512 268 connect 0 0 3 0 \, connect 1 0 3 1 \, connect 2 0 3
1 \, connect 3 0 4 0;
#X obj 487 177 t b b l;
#X obj 511 243 delay 100;
#X obj 483 321 delay 200;
#X obj 487 424 f;
#X obj 520 379 f;
#X obj 486 445 s \$0-p1;
#X obj 521 422 s \$0-p1;
#X obj 457 146 pack s \$0;
#X obj 486 344 t b b;
#X msg 553 208 clear \, obj 0 0 r~ \$2-in \, obj 100 0 r \$2-p1 \,
obj 200 0 r \$2-p2 \, obj 0 20 expr~ \$1 \, obj 0 40 throw~ \$2-out
;
#X obj 474 34 r \$1-chain;
#X obj 532 357 r \$1-f3;
#X obj 496 402 r \$1-f2;
#X obj 380 167 line~;
#X obj 381 126 / 127;
#X msg 379 147 \$1 20;
#X obj 58 447 *~;
#X obj 55 30 unpack f f;
#X obj 492 57 t b a;
#X obj 596 104 list append;
#X obj 494 88 random 300;
#X obj 497 109 delay;
#X connect 0 0 11 0;
#X connect 2 0 14 0;
#X connect 3 0 15 0;
#X connect 4 0 39 0;
#X connect 5 0 8 0;
#X connect 5 1 6 0;
#X connect 6 0 2 1;
#X connect 7 0 9 0;
#X connect 8 0 3 0;
#X connect 9 0 8 0;
#X connect 9 1 8 1;
#X connect 10 0 12 0;
#X connect 11 0 10 0;
#X connect 12 0 38 0;
#X connect 14 0 19 0;
#X connect 15 0 2 0;
#X connect 18 0 7 0;
#X connect 21 0 20 0;
#X connect 22 0 24 0;
#X connect 22 1 23 0;
#X connect 22 2 31 0;
#X connect 23 0 21 0;
#X connect 24 0 30 0;
#X connect 25 0 27 0;
#X connect 26 0 28 0;
#X connect 29 0 22 0;
#X connect 30 0 25 0;
#X connect 30 1 26 0;
#X connect 31 0 20 0;
#X connect 32 0 40 0;
#X connect 33 0 26 0;
#X connect 34 0 25 0;
#X connect 35 0 38 1;
#X connect 36 0 37 0;
#X connect 37 0 35 0;
#X connect 38 0 1 0;
#X connect 39 0 5 0;
#X connect 39 1 36 0;
#X connect 40 0 42 0;
#X connect 40 1 41 1;
#X connect 41 0 29 0;
#X connect 42 0 43 0;
#X connect 43 0 41 0;
