#N canvas 346 50 934 691 10;
#X obj 47 536 hip~ 20;
#X obj 106 536 hip~ 20;
#N canvas 0 50 989 545 filter 0;
#X obj 77 38 inlet~;
#X obj 278 25 inlet~;
#X obj 70 445 outlet~;
#X obj 246 453 outlet~;
#N canvas 648 50 605 607 coeffs_filtre 0;
#X obj 93 -3 inlet;
#X obj 139 380 outlet;
#X obj 93 293 u_lowpassq;
#X text 436 99 args: <freq> <BW>;
#X obj 341 276 u_highpassq;
#X obj 30 70 moses 1;
#X obj 227 9 inlet;
#X obj 45 43 * 2.2;
#X obj 107 96 moses 1.2;
#X obj 107 124 - 1.2;
#X obj 29 189 mtof;
#X obj 310 225 mtof;
#X obj 41 164 + 18;
#X obj 173 172 + 18;
#X obj 167 151 * 109;
#X obj 287 111 t b f f;
#X obj 126 28 f;
#X obj 276 69 * 6;
#X msg 197 100 0;
#X floatatom 29 211 10 0 0 0 - - -, f 10;
#X obj 42 142 * 115;
#X msg 139 214 0 0 1 0 0;
#X connect 0 0 16 0;
#X connect 2 0 1 0;
#X connect 4 0 1 0;
#X connect 5 0 20 0;
#X connect 5 1 8 0;
#X connect 6 0 17 0;
#X connect 7 0 5 0;
#X connect 8 0 21 0;
#X connect 8 1 9 0;
#X connect 9 0 14 0;
#X connect 10 0 2 0;
#X connect 10 0 19 0;
#X connect 11 0 4 0;
#X connect 12 0 10 0;
#X connect 13 0 11 0;
#X connect 14 0 13 0;
#X connect 15 0 16 0;
#X connect 15 1 2 1;
#X connect 15 2 4 1;
#X connect 16 0 7 0;
#X connect 17 0 15 0;
#X connect 18 0 14 0;
#X connect 20 0 12 0;
#X connect 21 0 1 0;
#X restore 370 213 pd coeffs_filtre;
#X obj 374 163 hsl 128 15 0 1 0 0 empty empty empty -2 -8 0 10 -262144
-1 -1 6350 1;
#X obj 566 171 hsl 128 15 0 1 0 0 empty empty Q -2 -8 0 10 -262144
-1 -1 6350 1;
#X obj 46 343 e_beequad;
#X msg 458 259 interp \$1;
#X obj 372 139 / 127;
#X obj 255 338 e_beequad;
#X obj 570 231 nbx 5 14 -1e+37 1e+37 0 1 empty empty empty 0 -8 0 10
-262144 -1 -1 19 256;
#X obj 583 137 / 127;
#X obj 476 35 loadbang;
#X msg 481 94 0.5;
#X obj 484 126 t f f;
#X obj 478 64 delay 2000;
#X obj 372 82 r \$0-ctlin_22_1;
#X obj 583 80 r \$0-ctlin_23_1;
#X obj 742 256 r \$1-f.freq;
#X obj 742 297 r \$1-f.Q;
#X connect 0 0 7 0;
#X connect 1 0 10 0;
#X connect 4 0 7 1;
#X connect 4 0 10 1;
#X connect 5 0 4 0;
#X connect 6 0 4 1;
#X connect 7 0 2 0;
#X connect 8 0 7 1;
#X connect 8 0 10 1;
#X connect 9 0 5 0;
#X connect 10 0 3 0;
#X connect 11 0 8 0;
#X connect 12 0 6 0;
#X connect 13 0 16 0;
#X connect 14 0 15 0;
#X connect 15 0 5 0;
#X connect 15 1 6 0;
#X connect 16 0 14 0;
#X connect 17 0 9 0;
#X connect 18 0 12 0;
#X connect 19 0 4 0;
#X connect 20 0 6 0;
#X restore 48 509 pd filter;
#N canvas 120 96 1125 554 live_recording 0;
#X obj 42 512 tabwrite~ \$0-table-1;
#X obj 141 481 tabwrite~ \$0-table-2;
#X obj 141 288 select 1 0;
#X msg 68 389 stop;
#X obj 222 342 timer;
#X floatatom 228 365 5 0 0 0 - - -, f 5;
#X obj 257 316 bng 15 250 50 0 empty empty empty 17 7 0 10 -262144
-1 -1;
#X obj 217 316 bng 15 250 50 0 empty empty empty 17 7 0 10 -262144
-1 -1;
#X obj 221 394 s \$0-duree;
#X obj 557 163 change;
#X obj 549 97 inlet;
#X obj 16 113 inlet~;
#X obj 261 111 inlet~;
#X obj 16 137 delwrite~ \$0-input-l 1000;
#X obj 16 160 delread~ \$0-input-l 20;
#X obj 260 132 delwrite~ \$0-input-r 1000;
#X obj 259 157 delread~ \$0-input-r 30;
#X obj 231 434 s \$1-duree;
#X obj 555 128 > 0;
#X connect 2 0 0 0;
#X connect 2 0 1 0;
#X connect 2 0 4 0;
#X connect 2 1 3 0;
#X connect 2 1 4 1;
#X connect 3 0 0 0;
#X connect 3 0 1 0;
#X connect 4 0 5 0;
#X connect 4 0 8 0;
#X connect 4 0 17 0;
#X connect 6 0 4 1;
#X connect 7 0 4 0;
#X connect 9 0 2 0;
#X connect 10 0 18 0;
#X connect 11 0 13 0;
#X connect 12 0 15 0;
#X connect 14 0 0 0;
#X connect 16 0 1 0;
#X connect 18 0 9 0;
#X restore 68 199 pd live_recording;
#X obj 198 118 tgl 15 0 empty empty empty 17 7 0 10 -262144 -1 -1 0
1;
#X obj 227 118 tgl 15 0 empty empty empty 17 7 0 10 -262144 -1 -1 0
1;
#X obj 258 118 tgl 15 0 empty empty empty 17 7 0 10 -262144 -1 -1 0
1;
#X obj 287 118 tgl 15 0 empty empty empty 17 7 0 10 -262144 -1 -1 0
1;
#X obj 198 98 tgl 15 0 empty empty empty 17 7 0 10 -262144 -1 -1 0
1;
#X obj 227 98 tgl 15 0 empty empty empty 17 7 0 10 -262144 -1 -1 0
1;
#X obj 258 98 tgl 15 0 empty empty empty 17 7 0 10 -262144 -1 -1 0
1;
#X obj 287 98 tgl 15 0 empty empty empty 17 7 0 10 -262144 -1 -1 0
1;
#X text 252 156 TAP;
#X text 222 156 PLAY;
#X text 189 156 STOP;
#N canvas 0 50 450 250 (subpatch) 0;
#X coords 0 1 100 -1 90 20 1 0 0;
#X restore 189 115 graph;
#X text 162 70 REVERSE;
#X text 226 72 <- ->;
#X text 283 154 REC_LIVE;
#X text 284 70 RECPAD;
#X text 161 47 AKAI MPKmini;
#X text 194 83 113 114 115 118;
#X text 197 136 116 117 38 39;
#X obj 53 169 inlet~;
#X obj 113 169 inlet~;
#X obj 185 175 r \$1-rec;
#X obj 403 320 r \$1-next_file;
#X obj 287 316 r \$1-prev_file;
#N canvas 5 50 895 534 sample_player2 0;
#X obj 178 458 outlet~;
#X obj 551 462 outlet~;
#X obj 117 16 inlet;
#X text 239 -87 sustain fine;
#X obj 443 69 *;
#X obj 400 28 r \$1-sustain;
#X obj 582 108 r \$1-offset;
#X obj 502 93 -;
#X obj 554 174 *;
#X obj 503 116 * -1;
#X obj 500 138 t b f;
#X msg 183 314 \$1 remove;
#X msg 46 288 \$2 \$1;
#X obj 46 310 route 0;
#X msg 36 338 \$1 remove;
#X msg 127 338 \$2 note \$2 \$1;
#X obj 186 271 r \$0-feedback;
#X obj 478 284 s \$1-global_sustain;
#X obj 554 245 s \$1-global_offset;
#X obj 487 -53 r \$0-duree;
#X obj 627 33 s \$1-global_duree;
#X obj 506 15 t b b f f f;
#X obj 194 367 fid_abs_vanilia-0.4/fid_multiplex 16 1;
#X msg 350 334 stop;
#X obj 215 144 route note aftertouch stop;
#X obj 438 138 max 50;
#X obj 218 421 clone -s 1 -x samplayerUnit3 16 \$0-table \$0-feedback
\$1;
#X obj 215 166 unpack f f;
#X obj 207 203 pipe f f 5;
#X obj 204 231 pack f f;
#X connect 2 0 24 0;
#X connect 4 0 7 0;
#X connect 4 0 25 0;
#X connect 5 0 4 0;
#X connect 6 0 8 0;
#X connect 7 0 9 0;
#X connect 8 0 18 0;
#X connect 9 0 10 0;
#X connect 10 0 8 0;
#X connect 10 1 8 1;
#X connect 11 0 22 0;
#X connect 12 0 13 0;
#X connect 13 0 14 0;
#X connect 13 1 15 0;
#X connect 14 0 22 0;
#X connect 15 0 22 0;
#X connect 16 0 11 0;
#X connect 19 0 21 0;
#X connect 21 0 8 0;
#X connect 21 0 4 0;
#X connect 21 2 4 1;
#X connect 21 3 7 1;
#X connect 21 4 20 0;
#X connect 22 0 26 0;
#X connect 23 0 22 0;
#X connect 24 0 27 0;
#X connect 24 1 22 0;
#X connect 24 2 23 0;
#X connect 25 0 17 0;
#X connect 26 0 0 0;
#X connect 26 1 1 0;
#X connect 27 0 28 0;
#X connect 27 1 28 1;
#X connect 28 0 29 0;
#X connect 28 1 29 1;
#X connect 29 0 12 0;
#X restore 45 482 pd sample_player2;
#X obj 44 567 outlet~;
#X obj 112 564 outlet~;
#X obj 388 539 outlet;
#X obj 379 508 pack f s;
#X obj 431 486 symbol \$0-table;
#X obj 431 465 loadbang;
#X obj 0 0 bng 15 250 50 0 empty empty empty 17 7 0 10 -262144 -1 -1
;
#X obj 573 585 s \$1-samplename;
#X msg 584 555 label \$1;
#X msg 404 343 next;
#X msg 322 339 prev;
#N canvas 103 181 1191 540 selectionSample 0;
#N canvas 152 207 973 557 loadsample 0;
#X floatatom 252 177 8 0 0 3 dur_in_smps - -, f 8;
#X floatatom 205 144 8 0 0 3 dur_in_ms - -, f 8;
#X symbolatom 107 205 80 0 0 3 table_name - -, f 80;
#X obj 174 107 unpack s f f f;
#X floatatom 269 145 6 0 0 3 samplerate - -, f 6;
#X obj 40 118 list;
#X msg 264 43 sr 44100;
#X msg 337 44 info;
#X obj 40 246 outlet;
#X obj 173 -3 inlet;
#X msg 174 43 open \, info;
#X msg 40 142 table-stereo \$1 \, sr \$4;
#X obj 95 24 route bang;
#X obj 251 244 outlet;
#X obj 277 16 loadbang;
#X obj 162 286 outlet name;
#X obj 174 78 u_samplebank2_nodrop \$0-table 0 4.41e+06;
#X connect 3 0 2 0;
#X connect 3 0 15 0;
#X connect 3 1 1 0;
#X connect 3 1 13 0;
#X connect 3 2 0 0;
#X connect 3 3 4 0;
#X connect 5 0 11 0;
#X connect 6 0 16 0;
#X connect 7 0 16 0;
#X connect 9 0 12 0;
#X connect 10 0 16 0;
#X connect 11 0 8 0;
#X connect 12 0 10 0;
#X connect 12 1 16 0;
#X connect 14 0 6 0;
#X connect 16 0 3 0;
#X connect 16 0 5 0;
#X restore 38 255 pd loadsample;
#X obj 38 317 outlet;
#X obj 130 290 outlet;
#X obj 50 31 inlet;
#X obj 105 330 outlet name;
#X connect 0 0 1 0;
#X connect 0 1 4 0;
#X connect 0 2 2 0;
#X connect 3 0 0 0;
#X restore 203 455 pd selectionSample;
#X obj 343 379 s \$1-subset;
#X obj 198 371 r \$1-filename;
#X msg 203 431 open \$1;
#X obj 203 403 symbol;
#X obj 587 529 symbol;
#X obj 758 255 inlet append;
#X obj 759 277 openpanel;
#X obj 762 325 s \$1-filename;
#X obj 717 301 t b s;
#X msg 520 348 append;
#X obj 619 318 delay 1;
#X floatatom 287 500 80 0 0 0 - - -, f 80;
#X obj 214 254 inlet notein;
#X obj 379 410 symbol;
#X obj 737 563 s \$0-curseur;
#X obj 326 568 s \$0-duree;
#X obj 372 437 splitfilename /;
#X text 485 437 iemlib external;
#X connect 0 0 29 0;
#X connect 1 0 30 0;
#X connect 2 0 0 0;
#X connect 2 1 1 0;
#X connect 23 0 3 0;
#X connect 24 0 3 1;
#X connect 25 0 3 2;
#X connect 26 0 38 0;
#X connect 27 0 39 0;
#X connect 28 0 2 0;
#X connect 28 1 2 1;
#X connect 32 0 31 0;
#X connect 33 0 32 1;
#X connect 34 0 33 0;
#X connect 37 0 36 0;
#X connect 37 0 55 0;
#X connect 38 0 41 0;
#X connect 39 0 41 0;
#X connect 40 2 32 0;
#X connect 40 2 52 0;
#X connect 40 2 56 0;
#X connect 42 0 44 0;
#X connect 43 0 40 0;
#X connect 44 0 43 0;
#X connect 44 0 57 0;
#X connect 45 0 37 0;
#X connect 46 0 47 0;
#X connect 47 0 49 0;
#X connect 49 0 51 0;
#X connect 49 1 48 0;
#X connect 50 0 41 0;
#X connect 51 0 50 0;
#X connect 53 0 28 0;
#X connect 57 1 45 0;
