#N canvas 242 42 810 619 10;
#X obj 246 191 textfile;
#X obj 353 278 list;
#X obj 178 257 delay 1;
#X obj 177 348 list trim;
#X obj 246 225 t b a;
#X obj 175 320 list append;
#X obj 245 278 list prepend;
#N canvas 103 181 1191 540 selectionSample 0;
#N canvas 0 50 973 557 loadsample 0;
#X floatatom 252 177 8 0 0 3 dur_in_smps - -, f 8;
#X floatatom 205 144 8 0 0 3 dur_in_ms - -, f 8;
#X symbolatom 107 205 80 0 0 3 table_name - -, f 80;
#X obj 174 107 unpack s f f f;
#X floatatom 269 145 6 0 0 3 samplerate - -, f 6;
#X obj 40 118 list;
#X msg 264 43 sr 44100;
#X msg 337 44 info;
#X obj 40 246 outlet;
#X obj 173 -3 inlet;
#X msg 174 43 open \, info;
#X msg 40 142 table-stereo \$1 \, sr \$4;
#X obj 95 24 route bang;
#X obj 251 244 outlet;
#X obj 277 16 loadbang;
#X obj 174 78 u_samplebank2_nodrop \$1;
#X connect 3 0 2 0;
#X connect 3 1 1 0;
#X connect 3 1 13 0;
#X connect 3 2 0 0;
#X connect 3 3 4 0;
#X connect 5 0 11 0;
#X connect 6 0 15 0;
#X connect 7 0 15 0;
#X connect 9 0 12 0;
#X connect 10 0 15 0;
#X connect 11 0 8 0;
#X connect 12 0 10 0;
#X connect 12 1 15 0;
#X connect 14 0 6 0;
#X connect 15 0 3 0;
#X connect 15 0 5 0;
#X restore 38 255 pd loadsample;
#X obj 38 317 outlet;
#X obj 119 204 list trim;
#X obj 119 179 list prepend open;
#X obj 219 18 loadbang;
#X obj 214 48 list append 0 \$2;
#X obj 130 290 outlet;
#X obj 50 31 inlet;
#X obj 119 155 makefilename %s.wav;
#X connect 0 0 1 0;
#X connect 0 1 6 0;
#X connect 2 0 0 0;
#X connect 3 0 2 0;
#X connect 4 0 5 0;
#X connect 7 0 8 0;
#X connect 8 0 3 0;
#X restore 163 525 pd selectionSample;
#N canvas 533 131 734 466 gestion_liste_fichiers 0;
#X obj 92 19 inlet;
#X obj 60 128 list split;
#X obj 65 177 list split 1;
#X obj 45 87 list append;
#X obj 358 24 inlet filemenu;
#X obj 66 243 outlet;
#X obj 41 43 t b f;
#X connect 0 0 6 0;
#X connect 1 1 2 0;
#X connect 2 0 5 0;
#X connect 3 0 1 0;
#X connect 4 0 3 1;
#X connect 6 0 3 0;
#X connect 6 1 1 1;
#X restore 142 397 pd gestion_liste_fichiers;
#X obj 265 568 outlet;
#X obj 325 329 list length;
#X obj 62 69 inlet down;
#X obj 138 66 inlet up;
#X obj 94 230 mod;
#X obj 41 232 +;
#X msg 38 186 1;
#X msg 77 187 -1;
#X obj 401 540 outlet;
#X obj 273 -40 inlet;
#X msg 247 50 symbol C:/Users/jyg/Desktop/Projets/AtelierSonMao/AtelierSon2015-2016/TravailSurSample/sounds/index.txt
;
#X obj 251 -3 openpanel;
#X msg 245 159 clear \, read \$1 cr \, rewind \, bang;
#X obj 82 -28 loadbang;
#X obj 82 -5 delay 100;
#X obj 528 284 iemlib/splitfilename /;
#X obj 295 434 list prepend;
#X msg 310 472 symbol \$1/\$2;
#X msg 243 24 set symbol \$1 \, bang;
#X obj 673 56 s \$2-bank;
#X obj 36 312 s \$2-index;
#X obj 34 334 r \$2-index;
#X obj 67 211 r \$2-index;
#X floatatom 72 288 5 0 0 0 - - -, f 5;
#X obj 253 125 t a b;
#X obj 252 104 r \$2-bank;
#X obj 37 370 pipe 100;
#X connect 0 0 4 0;
#X connect 0 1 5 0;
#X connect 1 0 6 1;
#X connect 2 0 0 0;
#X connect 3 0 8 1;
#X connect 4 0 2 0;
#X connect 4 1 6 0;
#X connect 5 0 3 0;
#X connect 5 0 10 0;
#X connect 6 0 1 0;
#X connect 6 0 5 1;
#X connect 7 1 9 0;
#X connect 8 0 17 0;
#X connect 8 0 25 0;
#X connect 10 0 13 1;
#X connect 11 0 16 0;
#X connect 12 0 15 0;
#X connect 13 0 29 0;
#X connect 13 0 32 0;
#X connect 14 0 13 0;
#X connect 15 0 14 0;
#X connect 16 0 14 0;
#X connect 18 0 20 0;
#X connect 19 0 28 0;
#X connect 20 0 27 0;
#X connect 21 0 0 0;
#X connect 22 0 23 0;
#X connect 23 0 19 0;
#X connect 24 0 25 1;
#X connect 25 0 26 0;
#X connect 26 0 7 0;
#X connect 27 0 19 0;
#X connect 30 0 35 0;
#X connect 31 0 14 1;
#X connect 33 0 21 0;
#X connect 33 0 24 0;
#X connect 33 1 6 1;
#X connect 34 0 33 0;
#X connect 35 0 8 0;
