#N canvas 0 65 1362 725 10;
#X declare -stdpath extra/rj;
#X declare -path sounds;
#X declare -stdpath extra/rj;
#X declare -stdpath extra/rj;
#X declare -stdpath extra/rj;
#X declare -stdpath extra/rj;
#X declare -stdpath extra/rj;
#X declare -stdpath extra/rj;
#X declare -stdpath extra/rj;
#X declare -stdpath extra/rj;
#X declare -stdpath extra/rj;
#X declare -stdpath extra/rj;
#X declare -stdpath extra/rj;
#X declare -stdpath extra/rj;
#X declare -stdpath extra/rj;
#X declare -stdpath extra/rj;
#X declare -stdpath extra/rj;
#X declare -stdpath extra/rj;
#X declare -path .;
#X declare -path C:/Users/jyg/Desktop/Projets/AtelierSonMao/AtelierSon2015-2016/TravailSurSample/sounds/
;
#X obj 74 8 declare -stdpath extra/rj;
#X floatatom 1003 57 5 0 0 0 - - -, f 5;
#X obj 1000 34 ctlin;
#X obj 47 536 hip~ 20;
#X obj 106 536 hip~ 20;
#N canvas 0 50 989 545 filter 0;
#X obj 77 38 inlet~;
#X obj 278 25 inlet~;
#X obj 70 445 outlet~;
#X obj 246 453 outlet~;
#N canvas 515 50 605 607 coeffs_filtre 0;
#X obj 93 -3 inlet;
#X obj 137 323 outlet;
#X obj 93 293 u_lowpassq;
#X text 436 99 args: <freq> <BW>;
#X obj 341 276 u_highpassq;
#X obj 30 70 moses 1;
#X obj 227 9 inlet;
#X obj 45 43 * 2.2;
#X obj 107 96 moses 1.2;
#X obj 107 124 - 1.2;
#X obj 219 243 f;
#X obj 55 232 t f b;
#X obj 411 234 f;
#X obj 307 220 t f b;
#X obj 29 189 mtof;
#X obj 133 204 mtof;
#X obj 41 164 + 18;
#X obj 42 142 * 109;
#X obj 173 172 + 18;
#X obj 167 151 * 109;
#X obj 287 111 t b f f;
#X obj 126 28 f;
#X obj 218 46 * 6;
#X floatatom 215 275 5 0 0 0 - - -, f 5;
#X floatatom 215 294 5 0 0 0 - - -, f 5;
#X floatatom 434 263 5 0 0 0 - - -, f 5;
#X connect 0 0 21 0;
#X connect 2 0 1 0;
#X connect 4 0 1 0;
#X connect 5 0 17 0;
#X connect 5 1 8 0;
#X connect 6 0 22 0;
#X connect 7 0 5 0;
#X connect 8 1 9 0;
#X connect 9 0 19 0;
#X connect 10 0 2 1;
#X connect 10 0 23 0;
#X connect 11 0 2 0;
#X connect 11 1 10 0;
#X connect 12 0 4 1;
#X connect 12 0 25 0;
#X connect 13 0 4 0;
#X connect 13 1 12 0;
#X connect 14 0 11 0;
#X connect 15 0 13 0;
#X connect 16 0 14 0;
#X connect 17 0 16 0;
#X connect 18 0 15 0;
#X connect 19 0 18 0;
#X connect 20 0 21 0;
#X connect 20 1 10 1;
#X connect 20 2 12 1;
#X connect 21 0 7 0;
#X connect 22 0 20 0;
#X connect 23 0 24 0;
#X restore 370 213 pd coeffs_filtre;
#X obj 374 163 hsl 128 15 0 1 0 0 empty empty empty -2 -8 0 10 -262144
-1 -1 6100 1;
#X obj 566 171 hsl 128 15 0 1 0 0 empty empty Q -2 -8 0 10 -262144
-1 -1 5100 1;
#X obj 46 343 e_beequad;
#X msg 458 259 interp \$1;
#X obj 372 139 / 127;
#X obj 255 338 e_beequad;
#X obj 570 231 nbx 5 14 -1e+037 1e+037 0 1 empty empty empty 0 -8 0
10 -262144 -1 -1 19 256;
#X obj 583 137 / 127;
#X obj 372 112 ctlin 22 1;
#X obj 583 110 ctlin 23 1;
#X obj 476 35 loadbang;
#X msg 481 94 0.5;
#X obj 484 126 t f f;
#X obj 478 64 delay 2000;
#X connect 0 0 7 0;
#X connect 1 0 10 0;
#X connect 4 0 7 1;
#X connect 4 0 10 1;
#X connect 5 0 4 0;
#X connect 6 0 4 1;
#X connect 7 0 2 0;
#X connect 8 0 7 1;
#X connect 8 0 10 1;
#X connect 9 0 5 0;
#X connect 10 0 3 0;
#X connect 11 0 8 0;
#X connect 12 0 6 0;
#X connect 13 0 9 0;
#X connect 14 0 12 0;
#X connect 15 0 18 0;
#X connect 16 0 17 0;
#X connect 17 0 5 0;
#X connect 17 1 6 0;
#X connect 18 0 16 0;
#X restore 48 509 pd filter;
#X obj 37 401 makenote 100 500;
#X obj 46 446 pack f f;
#X floatatom 76 334 5 0 0 0 - - -, f 5;
#X msg 28 351 64;
#X obj 987 300 FileSelect \$0-table;
#X text 492 167 You can add paths to search for soundfiles using "declare".
Just add [declare -path PATHNAME] to your _main.pd patch.;
#X obj 844 242 declare -path sounds;
#X obj 1023 223 select 1;
#X obj 1100 226 select 1;
#X obj 1041 175 change;
#X obj 1111 175 change;
#X obj 595 30 notein 1;
#X obj 626 81 > 0;
#X obj 589 111 spigot;
#X obj 586 149 bng 15 250 50 0 empty empty empty 17 7 0 10 -262144
-1 -1;
#X obj 288 417 env~;
#X obj 286 462 change;
#X obj 287 440 > 1;
#X obj 1179 293 change;
#X obj 1197 227 ctlin 118 1;
#X obj 1219 329 s REC_BUTTON;
#X obj 286 485 s PLAYING;
#N canvas 5 50 1362 392 midi_implementation 0;
#X text -131 319 bouton rec ctl 118;
#X text -163 406 bouton >> ctl 115;
#X text -163 426 bouton << ctl 114;
#X text -163 446 bouton loop/refresh ctl 113;
#X text -144 530 de ctl 20 à ctl 27;
#X text 261 454 de note 36 à note 51;
#X text -93 48 Sur AKAI MPK mini : prog 1;
#X obj 233 59 bng 15 250 50 0 empty empty empty 17 7 0 10 -262144 -1
-1;
#X obj 281 60 bng 15 250 50 0 empty empty empty 17 7 0 10 -262144 -1
-1;
#X obj 337 64 bng 15 250 50 0 empty empty empty 17 7 0 10 -262144 -1
-1;
#X text 232 38 <<;
#X text 276 37 >>;
#X text 215 12 PADS (CC \, BANK A);
#X text 156 36 Reverse;
#X text 335 41 REC;
#X obj 177 60 bng 15 250 50 0 empty empty empty 17 7 0 10 -262144 -1
-1;
#X text 164 84 113;
#X text 227 84 114;
#X text 275 82 115;
#X text 329 82 118;
#X obj 232 131 bng 15 250 50 0 empty empty empty 17 7 0 10 -262144
-1 -1;
#X obj 280 132 bng 15 250 50 0 empty empty empty 17 7 0 10 -262144
-1 -1;
#X obj 337 130 bng 15 250 50 0 empty empty empty 17 7 0 10 -262144
-1 -1;
#X obj 176 132 bng 15 250 50 0 empty empty empty 17 7 0 10 -262144
-1 -1;
#X text 168 110 PAD1;
#X text 228 110 PAD2;
#X text 273 109 PAD3;
#X text 332 109 PAD4;
#X text 170 156 44;
#X text 224 155 45;
#X text 286 155 46;
#X text 340 154 47;
#X obj 414 41 vsl 15 128 0 127 0 0 empty empty empty 0 -9 0 10 -262144
-1 -1 0 1;
#X obj 451 41 vsl 15 128 0 127 0 0 empty empty empty 0 -9 0 10 -262144
-1 -1 0 1;
#X obj 491 41 vsl 15 128 0 127 0 0 empty empty empty 0 -9 0 10 -262144
-1 -1 0 1;
#X obj 543 42 vsl 15 128 0 127 0 0 empty empty empty 0 -9 0 10 -262144
-1 -1 0 1;
#X obj 413 241 vsl 15 128 0 127 0 0 empty empty empty 0 -9 0 10 -262144
-1 -1 0 1;
#X obj 450 241 vsl 15 128 0 127 0 0 empty empty empty 0 -9 0 10 -262144
-1 -1 0 1;
#X obj 490 241 vsl 15 128 0 127 0 0 empty empty empty 0 -9 0 10 -262144
-1 -1 0 1;
#X obj 527 241 vsl 15 128 0 127 0 0 empty empty empty 0 -9 0 10 -262144
-1 -1 0 1;
#X text 408 178 20;
#X text 443 180 21;
#X text 489 180 22;
#X text 524 182 23;
#X text 410 387 24;
#X text 445 389 25;
#X text 491 389 26;
#X text 526 391 27;
#X text 403 13 from;
#X text 445 13 size;
#X text 488 3 filter Freq, f 6;
#X text 544 11 Q;
#X text 405 211 fine;
#X text 447 211 fine;
#X text 490 201 pad mix, f 3;
#X text 532 207 metro;
#X restore 390 213 pd midi_implementation;
#X obj 1027 247 bng 15 250 50 0 empty empty empty 17 7 0 10 -262144
-1 -1;
#X obj 1013 159 tgl 15 0 empty empty empty 17 7 0 10 -262144 -1 -1
0 1;
#X obj 1031 129 > 20;
#X obj 1116 132 > 20;
#X obj 1184 250 > 30;
#X obj 1092 268 bng 15 250 50 0 empty empty empty 17 7 0 10 -262144
-1 -1;
#N canvas 0 50 895 534 sample_player2 0;
#X obj 99 261 outlet~;
#X obj 262 264 outlet~;
#X obj 47 14 notein 1;
#X obj 45 36 pack f f;
#X msg 51 60 \$2 \$1;
#X obj 49 80 route 0;
#X msg 98 193 \$2 \$1;
#X msg 432 192 sustain \$1;
#X msg 157 191 \$1 0;
#X obj 357 106 hsl 128 15 0 1 0 1 empty empty empty -2 -8 0 10 -262144
-1 -1 12700 1;
#X obj 158 170 r \$0-feedback;
#X obj 635 27 hsl 128 15 0 1 0 1 empty empty empty -2 -8 0 10 -262144
-1 -1 0 1;
#X msg 558 200 offset \$1;
#X obj 349 54 / 127;
#X obj 564 -5 / 127;
#X obj 608 297 change;
#X msg 589 328 reverse \$1;
#X obj 546 130 * 2000;
#X obj 465 -5 r \$0-duree;
#X obj 154 31 inlet;
#X obj 515 29 t b b f f;
#X obj 564 -32 ctlin 20 1;
#X obj 349 27 ctlin 21 1;
#X obj 605 232 ctlin 113 1;
#X obj 611 263 > 20;
#X obj 709 114 / 127;
#X obj 712 140 hsl 128 15 0 1 0 1 empty empty empty -2 -8 0 10 -262144
-1 -1 3500 1;
#X text 719 63 fine;
#X obj 343 149 +;
#X text 370 1 sustain coarse;
#X obj 709 87 ctlin 24 1;
#X obj 625 92 +;
#X obj 650 60 t b f;
#X obj 742 163 / 25;
#X obj 779 189 - 0.02;
#X floatatom 779 211 5 0 0 0 - - -, f 5;
#X obj 229 -36 / 127;
#X obj 232 -10 hsl 128 15 0 1 0 1 empty empty empty -2 -8 0 10 -262144
-1 -1 11300 1;
#X obj 262 13 / 25;
#X obj 299 39 - 0.02;
#X floatatom 299 61 5 0 0 0 - - -, f 5;
#X text 239 -87 sustain fine;
#X obj 229 -63 ctlin 25 1;
#X obj 260 90 t b f;
#X obj 350 75 expr $f1*$f1;
#X obj 139 75 r FUNCTION_BUTTON;
#X obj 119 122 spigot 1;
#X obj 205 110 == 0;
#X obj 96 217 makepoly 16 1 samplayerUnit2 \$0-table \$0-feedback;
#X obj 454 163 *;
#X connect 2 0 3 0;
#X connect 2 1 3 1;
#X connect 3 0 4 0;
#X connect 4 0 5 0;
#X connect 5 1 46 0;
#X connect 6 0 48 0;
#X connect 7 0 48 1;
#X connect 8 0 48 0;
#X connect 9 0 28 0;
#X connect 10 0 8 0;
#X connect 11 0 31 0;
#X connect 12 0 48 1;
#X connect 13 0 44 0;
#X connect 14 0 11 0;
#X connect 15 0 16 0;
#X connect 16 0 48 1;
#X connect 17 0 12 0;
#X connect 18 0 20 0;
#X connect 19 0 4 0;
#X connect 20 0 17 0;
#X connect 20 1 13 0;
#X connect 20 2 17 1;
#X connect 20 3 49 1;
#X connect 21 0 14 0;
#X connect 22 0 13 0;
#X connect 23 0 24 0;
#X connect 24 0 15 0;
#X connect 25 0 26 0;
#X connect 26 0 33 0;
#X connect 28 0 49 0;
#X connect 30 0 25 0;
#X connect 31 0 17 0;
#X connect 32 0 31 0;
#X connect 32 1 31 1;
#X connect 33 0 34 0;
#X connect 34 0 32 0;
#X connect 34 0 35 0;
#X connect 36 0 37 0;
#X connect 37 0 38 0;
#X connect 38 0 39 0;
#X connect 39 0 40 0;
#X connect 39 0 43 0;
#X connect 42 0 36 0;
#X connect 43 0 28 0;
#X connect 43 1 28 1;
#X connect 44 0 9 0;
#X connect 45 0 47 0;
#X connect 46 0 6 0;
#X connect 47 0 46 1;
#X connect 48 0 0 0;
#X connect 48 1 1 0;
#X connect 49 0 7 0;
#X restore 45 482 pd sample_player2;
#X obj 1004 334 s \$0-duree;
#X obj 1019 107 ctlin 114;
#X obj 1150 111 ctlin 115;
#N canvas 0 50 593 498 boite-a-rythme-euclid 0;
#X obj 209 154 tgl 15 0 empty empty empty 17 7 0 10 -262144 -1 -1 0
1;
#X obj 337 288 euclid 13 0 32;
#X obj 195 197 c_multimetro 64 120;
#X obj 235 324 euclid 5 0 32;
#X obj 104 306 euclid 9 2 16;
#X obj 362 374 euclid 9 2 16;
#X msg 210 370 \; pad1 90;
#X msg 110 370 \; pad2 90;
#X msg 350 330 \; pad3 90;
#X connect 0 0 2 0;
#X connect 1 0 8 0;
#X connect 2 0 1 0;
#X connect 2 0 3 0;
#X connect 2 0 4 0;
#X connect 3 0 6 0;
#X connect 4 0 7 0;
#X restore 393 287 pd boite-a-rythme-euclid;
#N canvas 0 50 1362 549 boite_a_rytme_rjdj 0;
#X obj 137 177 c_multimetro 16 120;
#X obj 267 134 loadbang;
#X obj 137 227 select 0 4 8 12 15;
#X obj 137 152 tgl 15 0 empty empty empty 17 7 0 10 -262144 -1 -1 0
1;
#X obj 135 368 s \$0-drums;
#X obj 309 225 select 4 12;
#X obj 469 229 select 0 2 4 12;
#N canvas 0 50 450 300 rand 0;
#X obj 94 158 outlet;
#X obj 94 22 inlet;
#X obj 94 47 t b a;
#X obj 94 123 list prepend;
#X obj 94 99 + 500;
#X obj 94 73 random 1500;
#X connect 1 0 2 0;
#X connect 2 0 5 0;
#X connect 2 1 3 1;
#X connect 3 0 0 0;
#X connect 4 0 3 0;
#X connect 5 0 4 0;
#X restore 552 322 pd rand;
#N canvas 0 50 450 300 rand 0;
#X obj 94 158 outlet;
#X obj 94 22 inlet;
#X obj 94 47 t b a;
#X obj 94 123 list prepend;
#X obj 94 100 + 80;
#X obj 94 73 random 20;
#X floatatom 134 101 5 0 0 0 - - -, f 5;
#X connect 1 0 2 0;
#X connect 2 0 5 0;
#X connect 2 1 3 1;
#X connect 3 0 0 0;
#X connect 4 0 3 0;
#X connect 5 0 4 0;
#X connect 6 0 4 1;
#X restore 641 322 pd rand;
#N canvas 0 50 450 300 rand 0;
#X obj 94 158 outlet;
#X obj 94 22 inlet;
#X obj 94 47 t b a;
#X obj 94 123 list prepend;
#X obj 94 100 + 50;
#X obj 94 73 random 100;
#X connect 1 0 2 0;
#X connect 2 0 5 0;
#X connect 2 1 3 1;
#X connect 3 0 0 0;
#X connect 4 0 3 0;
#X connect 5 0 4 0;
#X restore 469 321 pd rand;
#N canvas 0 50 450 300 rand 0;
#X obj 94 100 + 100;
#X obj 94 158 outlet;
#X obj 94 22 inlet;
#X obj 94 47 t b a;
#X obj 94 123 list prepend;
#X obj 94 73 random 200;
#X connect 0 0 4 0;
#X connect 2 0 3 0;
#X connect 3 0 5 0;
#X connect 3 1 4 1;
#X connect 4 0 1 0;
#X connect 5 0 0 0;
#X restore 346 308 pd rand;
#N canvas 0 50 755 571 pass 0;
#X obj 67 88 random 100;
#X obj 67 158 sel 1;
#X obj 67 202 outlet;
#X obj 67 29 inlet;
#X obj 172 29 inlet;
#X obj 67 111 < 100;
#X obj 67 179 list;
#X obj 67 55 t b a;
#X floatatom 130 114 5 0 100 0 - - -, f 5;
#X msg 204 82 set \$1;
#X connect 0 0 5 0;
#X connect 1 0 6 0;
#X connect 3 0 7 0;
#X connect 4 0 5 1;
#X connect 4 0 9 0;
#X connect 5 0 1 0;
#X connect 6 0 2 0;
#X connect 7 0 0 0;
#X connect 7 1 6 1;
#X connect 8 0 5 1;
#X connect 9 0 8 0;
#X coords 0 -1 1 1 85 30 1 100 100;
#X restore 309 358 pd pass;
#X obj 309 392 s \$0-drums;
#X obj 469 395 s \$0-drums;
#X obj 643 404 s \$0-drums;
#X obj 641 230 select 8 11 14;
#N canvas 0 50 755 571 pass 0;
#X obj 67 88 random 100;
#X obj 67 158 sel 1;
#X obj 67 202 outlet;
#X obj 67 29 inlet;
#X obj 172 29 inlet;
#X obj 67 111 < 100;
#X obj 67 179 list;
#X obj 67 55 t b a;
#X floatatom 130 114 5 0 100 0 - - -, f 5;
#X msg 204 82 set \$1;
#X connect 0 0 5 0;
#X connect 1 0 6 0;
#X connect 3 0 7 0;
#X connect 4 0 5 1;
#X connect 4 0 9 0;
#X connect 5 0 1 0;
#X connect 6 0 2 0;
#X connect 7 0 0 0;
#X connect 7 1 6 1;
#X connect 8 0 5 1;
#X connect 9 0 8 0;
#X coords 0 -1 1 1 85 30 1 100 100;
#X restore 459 358 pd pass;
#N canvas 0 50 755 571 pass 0;
#X obj 67 88 random 100;
#X obj 67 158 sel 1;
#X obj 67 202 outlet;
#X obj 67 29 inlet;
#X obj 172 29 inlet;
#X obj 67 111 < 100;
#X obj 67 179 list;
#X obj 67 55 t b a;
#X floatatom 130 114 5 0 100 0 - - -, f 5;
#X msg 204 82 set \$1;
#X connect 0 0 5 0;
#X connect 1 0 6 0;
#X connect 3 0 7 0;
#X connect 4 0 5 1;
#X connect 4 0 9 0;
#X connect 5 0 1 0;
#X connect 6 0 2 0;
#X connect 7 0 0 0;
#X connect 7 1 6 1;
#X connect 8 0 5 1;
#X connect 9 0 8 0;
#X coords 0 -1 1 1 85 30 1 100 100;
#X restore 649 358 pd pass;
#X text 792 110 26;
#X text 827 112 27;
#X text 790 51 pad mix, f 3;
#X text 832 57 metro;
#X obj 576 44 / 127;
#X obj 572 70 * 141;
#X obj 574 95 + 39;
#X obj 570 146 /;
#X obj 509 14 vsl 15 128 0 127 0 0 empty empty empty 0 -9 0 10 -262144
-1 -1 0 1;
#X floatatom 588 180 5 0 0 0 - - -, f 5;
#X floatatom 662 109 5 0 0 0 - - -, f 5;
#X msg 571 123 15000 \$1;
#X msg 267 154 130;
#X msg 137 286 1 100;
#X msg 186 287 1 96;
#X msg 309 284 2 96;
#X msg 346 284 2 96;
#X msg 469 288 3 96;
#X msg 552 295 3 96;
#X msg 641 289 4 96;
#X obj 1026 289 r \$0-drums;
#X obj 911 131 ctlin 27 1;
#X obj 915 175 / 127;
#X obj 929 229 expr (($f1*2)-1)*(($f1*2)-1)* 100 \; 4*($f1>0.5);
#X obj 1021 44 vsl 15 128 0 127 0 0 empty empty empty 0 -9 0 10 -262144
-1 -1 0 1;
#X obj 1029 317 unpack f f;
#X obj 1028 340 +;
#X floatatom 1172 277 5 0 0 0 - - -, f 5;
#X obj 1021 373 pack f f;
#X msg 1021 403 \; pad\$1 \$2;
#X obj 575 17 ctlin 26 1;
#X floatatom 99 202 5 0 0 0 - - -, f 5;
#X obj 223 -126 ctlin 38;
#X obj 185 -12 change;
#X obj 191 -47 > 30;
#N canvas 0 50 657 669 taptempo 0;
#X obj 96 59 inlet;
#X obj 111 527 outlet ms;
#X obj 315 541 outlet bpm;
#X obj 141 106 select 1;
#X obj 134 170 timer;
#X obj 140 132 t b b;
#X obj 125 197 moses 4000;
#X obj 136 331 +;
#X obj 124 221 list append;
#X msg 158 421 60000 \$1;
#X obj 157 455 /;
#X obj 346 70 inlet;
#X msg 345 119 60000 \$1;
#X obj 344 153 /;
#X obj 124 244 list split 2;
#X msg 338 200 \$1 \$1;
#X obj 124 271 unpack f f;
#X obj 142 365 / 2;
#X connect 0 0 3 0;
#X connect 3 0 5 0;
#X connect 4 0 6 0;
#X connect 5 0 4 0;
#X connect 5 1 4 1;
#X connect 6 0 8 0;
#X connect 7 0 17 0;
#X connect 8 0 14 0;
#X connect 9 0 10 0;
#X connect 10 0 2 0;
#X connect 11 0 12 0;
#X connect 12 0 13 0;
#X connect 13 0 15 0;
#X connect 13 0 1 0;
#X connect 14 0 8 1;
#X connect 14 0 16 0;
#X connect 14 2 8 1;
#X connect 15 0 8 1;
#X connect 16 0 7 0;
#X connect 16 1 7 1;
#X connect 17 0 9 0;
#X connect 17 0 1 0;
#X restore 171 87 pd taptempo;
#X floatatom 171 109 5 0 0 0 - - -, f 5;
#X floatatom 260 117 5 0 0 0 - - -, f 5;
#X msg 242 35 1;
#X msg 379 -11 0;
#X obj 171 128 / 4;
#X msg 342 25 set 0;
#X obj 265 10 t b b;
#X obj 372 -117 ctlin 117;
#X obj 462 -107 ctlin 116;
#X obj 340 -88 > 30;
#X obj 327 -62 change;
#X obj 376 -50 select 1;
#X obj 450 -78 > 30;
#X obj 437 -52 change;
#X obj 486 -40 select 1;
#X connect 0 0 2 0;
#X connect 0 0 5 0;
#X connect 0 0 6 0;
#X connect 0 0 15 0;
#X connect 0 0 49 0;
#X connect 1 0 30 0;
#X connect 2 0 31 0;
#X connect 2 1 32 0;
#X connect 2 2 32 0;
#X connect 2 3 32 0;
#X connect 2 4 32 0;
#X connect 3 0 0 0;
#X connect 5 0 33 0;
#X connect 5 1 34 0;
#X connect 6 1 35 0;
#X connect 6 2 36 0;
#X connect 6 3 36 0;
#X connect 6 4 35 0;
#X connect 7 0 16 0;
#X connect 8 0 17 0;
#X connect 9 0 16 0;
#X connect 10 0 11 0;
#X connect 11 0 12 0;
#X connect 15 0 37 0;
#X connect 15 1 37 0;
#X connect 15 2 37 0;
#X connect 16 0 13 0;
#X connect 17 0 14 0;
#X connect 22 0 23 0;
#X connect 23 0 24 0;
#X connect 24 0 29 0;
#X connect 24 0 28 0;
#X connect 25 0 27 0;
#X connect 25 0 0 2;
#X connect 26 0 22 0;
#X connect 29 0 25 0;
#X connect 30 0 0 2;
#X connect 31 0 4 0;
#X connect 32 0 4 0;
#X connect 33 0 11 0;
#X connect 34 0 10 0;
#X connect 35 0 9 0;
#X connect 36 0 7 0;
#X connect 37 0 8 0;
#X connect 38 0 43 0;
#X connect 39 0 40 0;
#X connect 40 0 41 0;
#X connect 41 0 17 1;
#X connect 41 0 16 1;
#X connect 41 0 11 1;
#X connect 41 1 45 0;
#X connect 41 1 44 1;
#X connect 42 0 40 0;
#X connect 43 0 44 0;
#X connect 43 1 46 1;
#X connect 44 0 46 0;
#X connect 46 0 47 0;
#X connect 48 0 22 0;
#X connect 50 0 52 0;
#X connect 51 0 53 0;
#X connect 52 0 51 0;
#X connect 53 0 54 0;
#X connect 53 1 55 0;
#X connect 54 0 58 0;
#X connect 56 0 3 0;
#X connect 57 0 3 0;
#X connect 58 0 0 2;
#X connect 59 0 0 0;
#X connect 60 0 56 0;
#X connect 60 1 59 0;
#X connect 61 0 63 0;
#X connect 62 0 66 0;
#X connect 63 0 64 0;
#X connect 64 0 65 0;
#X connect 65 0 60 0;
#X connect 66 0 67 0;
#X connect 67 0 68 0;
#X connect 68 0 57 0;
#X restore 396 255 pd boite_a_rytme_rjdj;
#X obj 899 409 pad pad1 4000 36;
#X obj 555 313 catch~ pad-2;
#X obj 461 318 catch~ pad-1;
#N canvas 0 50 989 545 filter 0;
#X obj 77 38 inlet~;
#X obj 278 25 inlet~;
#X obj 70 445 outlet~;
#X obj 246 453 outlet~;
#N canvas 515 50 605 607 coeffs_filtre 0;
#X obj 93 -3 inlet;
#X obj 137 323 outlet;
#X obj 93 293 u_lowpassq;
#X text 436 99 args: <freq> <BW>;
#X obj 341 276 u_highpassq;
#X obj 30 70 moses 1;
#X obj 227 9 inlet;
#X obj 45 43 * 2.2;
#X obj 107 96 moses 1.2;
#X obj 107 124 - 1.2;
#X obj 219 243 f;
#X obj 55 232 t f b;
#X obj 411 234 f;
#X obj 307 220 t f b;
#X obj 29 189 mtof;
#X obj 133 204 mtof;
#X obj 41 164 + 18;
#X obj 42 142 * 109;
#X obj 173 172 + 18;
#X obj 167 151 * 109;
#X obj 287 111 t b f f;
#X obj 126 28 f;
#X obj 218 46 * 6;
#X floatatom 215 275 5 0 0 0 - - -, f 5;
#X floatatom 215 294 5 0 0 0 - - -, f 5;
#X floatatom 434 263 5 0 0 0 - - -, f 5;
#X connect 0 0 21 0;
#X connect 2 0 1 0;
#X connect 4 0 1 0;
#X connect 5 0 17 0;
#X connect 5 1 8 0;
#X connect 6 0 22 0;
#X connect 7 0 5 0;
#X connect 8 1 9 0;
#X connect 9 0 19 0;
#X connect 10 0 2 1;
#X connect 10 0 23 0;
#X connect 11 0 2 0;
#X connect 11 1 10 0;
#X connect 12 0 4 1;
#X connect 12 0 25 0;
#X connect 13 0 4 0;
#X connect 13 1 12 0;
#X connect 14 0 11 0;
#X connect 15 0 13 0;
#X connect 16 0 14 0;
#X connect 17 0 16 0;
#X connect 18 0 15 0;
#X connect 19 0 18 0;
#X connect 20 0 21 0;
#X connect 20 1 10 1;
#X connect 20 2 12 1;
#X connect 21 0 7 0;
#X connect 22 0 20 0;
#X connect 23 0 24 0;
#X restore 370 213 pd coeffs_filtre;
#X obj 374 163 hsl 128 15 0 1 0 1 empty empty empty -2 -8 0 10 -262144
-1 -1 6100 1;
#X obj 566 171 hsl 128 15 0 1 0 1 empty empty Q -2 -8 0 10 -262144
-1 -1 5100 1;
#X obj 46 343 e_beequad;
#X msg 458 259 interp \$1;
#X obj 372 139 / 127;
#X obj 255 338 e_beequad;
#X obj 570 231 nbx 5 14 -1e+037 1e+037 0 1 empty empty empty 0 -8 0
10 -262144 -1 -1 19 256;
#X obj 583 137 / 127;
#X obj 372 112 ctlin 22 1;
#X obj 583 110 ctlin 23 1;
#X obj 459 23 loadbang;
#X msg 483 63 0.5;
#X obj 503 102 t f f;
#X obj 569 38 delay 2000;
#X connect 0 0 7 0;
#X connect 1 0 10 0;
#X connect 4 0 7 1;
#X connect 4 0 10 1;
#X connect 5 0 4 0;
#X connect 6 0 4 1;
#X connect 7 0 2 0;
#X connect 8 0 7 1;
#X connect 8 0 10 1;
#X connect 9 0 5 0;
#X connect 10 0 3 0;
#X connect 11 0 8 0;
#X connect 12 0 6 0;
#X connect 13 0 9 0;
#X connect 14 0 12 0;
#X connect 15 0 18 0;
#X connect 16 0 17 0;
#X connect 17 0 5 0;
#X connect 17 1 6 0;
#X connect 18 0 16 0;
#X restore 477 352 pd filter;
#X obj 53 589 delwrite~ out-1 500;
#X obj 282 585 delwrite~ out-2 500, f 25;
#X obj 797 35 r REC_BUTTON;
#X obj 796 77 s FUNCTION_BUTTON;
#N canvas -104 199 1125 554 live_recording 1;
#X obj 50 333 tabwrite~ \$0-table-1;
#X obj 264 330 tabwrite~ \$0-table-2;
#X obj 725 98 select 1 0;
#X msg 734 132 stop;
#X obj 888 85 timer;
#X floatatom 894 108 5 0 0 0 - - -, f 5;
#X obj 923 59 bng 15 250 50 0 empty empty empty 17 7 0 10 -262144 -1
-1;
#X obj 883 59 bng 15 250 50 0 empty empty empty 17 7 0 10 -262144 -1
-1;
#X obj 887 137 s \$0-duree;
#X obj 663 64 change;
#X obj 715 22 inlet;
#X obj 148 37 inlet~;
#X obj 258 37 inlet~;
#X obj 241 94 delwrite~ \$0-input-l 1000;
#X obj -119 143 delread~ \$0-input-l 20;
#X obj 251 64 delwrite~ \$0-input-r 1000;
#X obj 281 204 delread~ \$0-input-r 30;
#X obj 897 177 s \$1-duree;
#X obj 721 53 > 0;
#X connect 2 0 0 0;
#X connect 2 0 1 0;
#X connect 2 0 4 0;
#X connect 2 1 3 0;
#X connect 2 1 4 1;
#X connect 3 0 0 0;
#X connect 3 0 1 0;
#X connect 4 0 5 0;
#X connect 4 0 8 0;
#X connect 4 0 17 0;
#X connect 6 0 4 1;
#X connect 7 0 4 0;
#X connect 9 0 2 0;
#X connect 10 0 18 0;
#X connect 11 0 13 0;
#X connect 12 0 15 0;
#X connect 14 0 0 0;
#X connect 16 0 1 0;
#X connect 18 0 9 0;
#X restore 68 179 pd live_recording;
#X symbolatom 849 363 30 0 0 0 - - -, f 30;
#X obj 972 281 bng 15 250 50 0 empty empty empty 17 7 0 10 -262144
-1 -1;
#X obj 467 446 *~ 1;
#X obj 535 443 *~ 1;
#X obj 854 212 declare -path .;
#X obj 198 118 tgl 15 0 empty empty empty 17 7 0 10 -262144 -1 -1 0
1;
#X obj 227 118 tgl 15 0 empty empty empty 17 7 0 10 -262144 -1 -1 0
1;
#X obj 258 118 tgl 15 0 empty empty empty 17 7 0 10 -262144 -1 -1 0
1;
#X obj 287 118 tgl 15 0 empty empty empty 17 7 0 10 -262144 -1 -1 0
1;
#X obj 198 98 tgl 15 0 empty empty empty 17 7 0 10 -262144 -1 -1 0
1;
#X obj 227 98 tgl 15 0 empty empty empty 17 7 0 10 -262144 -1 -1 0
1;
#X obj 258 98 tgl 15 0 empty empty empty 17 7 0 10 -262144 -1 -1 0
1;
#X obj 287 98 tgl 15 0 empty empty empty 17 7 0 10 -262144 -1 -1 0
1;
#X text 252 156 TAP;
#X text 222 156 PLAY;
#X text 189 156 STOP;
#N canvas 0 50 450 250 (subpatch) 0;
#X coords 0 1 100 -1 90 20 1 0 0;
#X restore 189 115 graph;
#X text 162 70 REVERSE;
#X text 226 72 <- ->;
#X text 283 154 REC_LIVE;
#X text 284 70 RECPAD;
#X text 161 47 AKAI MPKmini;
#X text 194 83 113 114 115 118;
#X text 197 136 116 117 38 39;
#X obj 771 592 s REMOTE_LOAD;
#X obj 767 510 openpanel;
#X obj 729 413 bng 50 250 50 0 empty empty CHARGER_COLLECTION 17 7
0 15 -262144 -1 -1;
#X obj 900 583 print;
#X obj 761 533 iemlib/splitfilename /;
#X obj 739 563 list append;
#X obj 916 562 iemlib/splitfilename -;
#X obj 604 363 bng 50 250 50 0 empty empty CHANGER_REPERTOIRE_TRAVAIL
17 7 0 15 -262144 -1 -1;
#X obj 604 484 openpanel;
#X obj 598 507 iemlib/splitfilename /;
#X obj 902 447 pad pad2 4000 37;
#X obj 911 482 pad pad3 4000 38;
#X obj 916 518 pad pad4 4000 39;
#X obj 1118 400 pad pad5 4000 40;
#X obj 1103 429 pad pad6 4000 41;
#X obj 1114 469 pad pad7 4000 42;
#X obj 1121 506 pad pad8 4000 43;
#X obj 822 302 s samplename;
#X obj 451 488 outlet~;
#X obj 521 488 outlet~;
#X obj 12 216 declare -path C:/Users/jyg/Desktop/Projets/AtelierSonMao/AtelierSon2015-2016/TravailSurSample/sounds/
;
#X obj 53 149 inlet~;
#X obj 113 149 inlet~;
#X obj 205 178 r \$1-rec;
#X obj 1158 64 r \$1-next_file;
#X obj 1168 34 r \$1-prev_file;
#X connect 2 1 1 0;
#X connect 3 0 45 0;
#X connect 3 0 52 0;
#X connect 4 0 21 0;
#X connect 4 0 46 0;
#X connect 4 0 53 0;
#X connect 5 0 3 0;
#X connect 5 1 4 0;
#X connect 6 0 7 0;
#X connect 6 1 7 1;
#X connect 7 0 35 0;
#X connect 8 0 6 0;
#X connect 9 0 6 0;
#X connect 10 0 36 0;
#X connect 10 1 50 0;
#X connect 10 1 91 0;
#X connect 13 0 10 0;
#X connect 13 0 29 0;
#X connect 14 0 10 1;
#X connect 14 0 34 0;
#X connect 15 0 13 0;
#X connect 16 0 14 0;
#X connect 17 0 19 0;
#X connect 17 1 18 0;
#X connect 18 0 19 1;
#X connect 19 0 20 0;
#X connect 21 0 23 0;
#X connect 22 0 27 0;
#X connect 23 0 22 0;
#X connect 24 0 26 0;
#X connect 25 0 33 0;
#X connect 31 0 15 0;
#X connect 31 0 30 0;
#X connect 32 0 16 0;
#X connect 33 0 24 0;
#X connect 35 0 5 0;
#X connect 35 1 5 1;
#X connect 37 0 31 0;
#X connect 38 0 32 0;
#X connect 42 0 44 1;
#X connect 43 0 44 0;
#X connect 44 0 52 0;
#X connect 44 1 53 0;
#X connect 47 0 48 0;
#X connect 51 0 10 0;
#X connect 52 0 92 0;
#X connect 53 0 93 0;
#X connect 75 0 78 0;
#X connect 76 0 75 0;
#X connect 78 0 79 0;
#X connect 78 1 80 0;
#X connect 79 0 74 0;
#X connect 79 0 77 0;
#X connect 80 1 79 1;
#X connect 81 0 82 0;
#X connect 82 0 83 0;
#X connect 83 0 74 0;
#X connect 95 0 49 0;
#X connect 96 0 49 1;
#X connect 97 0 49 2;
#X connect 98 0 10 1;
#X connect 99 0 10 0;
