#N canvas 13 50 1119 606 10;
#X text 426 283 original gain \, original pitch \, start at 500 ms
;
#X msg 341 418 sr 44100;
#X msg 458 481 stop;
#X text 504 484 stop playing;
#X obj 294 111 route 0;
#X obj 595 182 unpack f f;
#X obj 573 320 mtof;
#X obj 591 352 / 261.6;
#X obj 507 332 dbtorms;
#X obj 319 369 loadbang;
#X obj 192 521 s_playtable2;
#X obj 603 449 list prepend \$1;
#X obj 324 12 inlet;
#X msg 294 86 \$2 \$1;
#X obj 95 600 outlet~;
#X obj 221 628 outlet~;
#X obj 1027 398 s \$2;
#X obj 969 359 f;
#X obj 739 85 inlet parameters;
#X obj 828 338 t b b;
#X obj 699 429 symbol;
#X obj 573 427 pack f f f f;
#X obj 747 110 dispatch \$0;
#X obj 705 406 r \$0-table;
#X obj 638 361 r \$0-offset;
#X msg 491 591 \$1 \$2 \$3 \$4 \$5;
#X obj 673 479 list prepend 0;
#X obj 671 500 route 0;
#X obj 799 434 r \$0-reverse;
#X obj 783 592 * -1;
#X obj 841 609 +;
#X obj 718 636 pack s f f f f;
#X obj 615 543 list;
#X obj 883 113 u_dispatch;
#X text 988 118 à remplacer ultérieurement;
#X msg 875 363 0;
#X obj 937 383 t b;
#X msg 603 218 stop;
#X obj 788 260 delay;
#X obj 393 136 t l l b;
#X obj 222 253 switch~;
#X obj 563 387 s \$0-speed;
#N canvas 0 50 450 300 sustain 0;
#X obj 101 234 outlet;
#X obj 78 76 r \$0-sustain;
#X obj 192 133 r \$0-speed;
#X obj 115 188 / 1;
#X obj 155 160 t b f;
#X obj 229 223 max 20;
#X connect 1 0 3 0;
#X connect 2 0 4 0;
#X connect 3 0 5 0;
#X connect 4 0 3 0;
#X connect 4 1 3 1;
#X connect 5 0 0 0;
#X restore 850 182 pd sustain;
#X obj 752 222 t b f f;
#N canvas 0 50 450 300 sustain 0;
#X obj 101 234 outlet;
#X obj 78 76 r \$0-sustain;
#X obj 192 133 r \$0-speed;
#X obj 115 188 / 1;
#X obj 155 160 t b f;
#X connect 1 0 3 0;
#X connect 2 0 4 0;
#X connect 3 0 0 0;
#X connect 4 0 3 0;
#X connect 4 1 3 1;
#X restore 660 383 pd sustain;
#X obj 506 397 min 1.1;
#X obj 898 520 r \$0-sustain;
#X obj 737 545 unpack f s f f f f;
#X obj 506 367 max 0.2;
#X msg 248 462 fade 2 2;
#X obj 244 433 loadbang;
#X obj 968 195 r \$0-loop;
#X obj 592 154 list append;
#X obj 832 285 list prepend 0;
#X obj 836 313 select 0 1;
#X obj 418 9 r \$0-loop;
#X obj 324 36 list prepend 0;
#X obj 322 54 route 0 1;
#X msg 379 83 \$2 \$1;
#X obj 462 98 route 0;
#X msg 818 387 stop;
#N canvas 0 50 460 339 pan 0;
#X obj 234 244 * -1;
#X obj 232 220 - 1;
#X obj 213 175 min 0.8;
#X obj 214 197 max 0.2;
#X obj 236 120 * 0.6;
#X obj 236 145 + 0.2;
#X obj 208 30 mod 10;
#X obj 236 95 / 10;
#X obj 169 18 inlet m;
#X obj 110 273 outlet;
#X obj 234 266 outlet;
#X connect 0 0 10 0;
#X connect 1 0 0 0;
#X connect 2 0 3 0;
#X connect 3 0 1 0;
#X connect 3 0 9 0;
#X connect 4 0 5 0;
#X connect 5 0 2 0;
#X connect 6 0 7 0;
#X connect 7 0 4 0;
#X connect 8 0 6 0;
#X restore 180 443 pd pan;
#X obj 157 572 *~ 0.5;
#X obj 217 572 *~ 0.5;
#X msg 315 205 1;
#X obj 590 0 spigot;
#X obj 945 428 delay 100;
#X msg 717 21 0;
#X obj 588 38 f;
#X obj 588 60 select 0 1;
#X obj 659 24 r \$0-sync;
#X msg 689 75 1;
#X obj 658 110 spigot;
#X obj 599 87 r CLOCK;
#X obj 658 132 mod 6;
#X obj 694 152 select 0;
#X obj 694 174 t b b;
#X msg 778 172 0;
#X connect 1 0 10 1;
#X connect 2 0 10 1;
#X connect 4 1 39 0;
#X connect 5 0 8 0;
#X connect 5 1 43 0;
#X connect 5 1 61 0;
#X connect 6 0 7 0;
#X connect 7 0 21 1;
#X connect 7 0 41 0;
#X connect 8 0 48 0;
#X connect 9 0 1 0;
#X connect 10 0 62 0;
#X connect 10 1 63 0;
#X connect 11 0 26 0;
#X connect 12 0 56 0;
#X connect 13 0 4 0;
#X connect 17 0 16 0;
#X connect 17 0 36 0;
#X connect 18 0 22 0;
#X connect 19 0 2 0;
#X connect 19 1 17 0;
#X connect 20 0 11 1;
#X connect 21 0 11 0;
#X connect 23 0 20 0;
#X connect 24 0 21 2;
#X connect 25 0 10 0;
#X connect 26 0 27 0;
#X connect 27 0 32 0;
#X connect 27 1 47 0;
#X connect 28 0 26 1;
#X connect 29 0 31 2;
#X connect 30 0 31 3;
#X connect 31 0 10 0;
#X connect 32 0 25 0;
#X connect 35 0 40 0;
#X connect 36 0 66 0;
#X connect 36 0 67 0;
#X connect 37 0 66 0;
#X connect 38 0 53 0;
#X connect 39 0 5 0;
#X connect 39 1 64 0;
#X connect 39 1 52 1;
#X connect 39 2 37 0;
#X connect 42 0 38 1;
#X connect 43 0 38 0;
#X connect 43 1 6 0;
#X connect 43 2 17 1;
#X connect 44 0 21 3;
#X connect 45 0 21 0;
#X connect 46 0 30 1;
#X connect 47 1 31 0;
#X connect 47 2 31 1;
#X connect 47 3 29 0;
#X connect 47 4 30 0;
#X connect 47 5 31 4;
#X connect 48 0 45 0;
#X connect 49 0 10 1;
#X connect 50 0 49 0;
#X connect 51 0 53 1;
#X connect 52 0 5 0;
#X connect 53 0 54 0;
#X connect 54 0 19 0;
#X connect 54 1 65 0;
#X connect 55 0 56 1;
#X connect 56 0 57 0;
#X connect 57 0 13 0;
#X connect 57 1 58 0;
#X connect 58 0 59 0;
#X connect 59 0 19 0;
#X connect 59 1 39 0;
#X connect 61 0 62 1;
#X connect 61 1 63 1;
#X connect 62 0 14 0;
#X connect 63 0 15 0;
#X connect 64 0 40 0;
#X connect 64 0 65 1;
#X connect 65 0 68 0;
#X connect 66 0 35 0;
#X connect 67 0 65 1;
#X connect 68 0 69 0;
#X connect 69 0 52 0;
#X connect 69 1 71 0;
#X connect 70 0 68 1;
#X connect 71 0 72 1;
#X connect 72 0 74 0;
#X connect 73 0 72 0;
#X connect 74 0 75 0;
#X connect 75 0 76 0;
#X connect 76 0 52 0;
#X connect 76 1 77 0;
#X connect 77 0 72 1;
