#N canvas 555 52 742 515 10;
#X obj 51 28 inlet;
#X obj 260 474 outlet;
#X obj 191 240 readsf~ 2;
#X obj 133 306 tabwrite~;
#X obj 53 54 route read;
#X obj 74 123 list;
#X obj 77 145 unpack s s s;
#X obj 220 295 tabwrite~;
#X msg 128 266 set \$1;
#X msg 188 266 set \$1;
#X obj 61 85 route -resize -skip -raw -maxsize;
#X msg 64 196 open \$1;
#X obj 32 221 delay 1;
#X obj 34 266 t b b b;
#X msg 81 346 1;
#X msg 36 294 1;
#X obj 287 386 t b b;
#X msg 133 344 0;
#X obj 77 370 switch~ 1024 1 64;
#X obj 356 301 iemlib/soundfile_info;
#X obj 62 170 t b s s;
#X msg 354 272 read \$1;
#X obj 359 332 unpack f s f f f f s;
#X obj 260 448 f;
#X obj 529 305 print;
#X connect 0 0 4 0;
#X connect 2 0 3 0;
#X connect 2 1 7 0;
#X connect 2 2 16 0;
#X connect 4 0 10 0;
#X connect 5 0 6 0;
#X connect 6 0 20 0;
#X connect 6 1 8 0;
#X connect 6 2 9 0;
#X connect 8 0 3 0;
#X connect 9 0 7 0;
#X connect 10 0 5 0;
#X connect 10 4 5 0;
#X connect 11 0 2 0;
#X connect 12 0 13 0;
#X connect 13 0 15 0;
#X connect 13 2 14 0;
#X connect 13 2 3 0;
#X connect 13 2 7 0;
#X connect 14 0 18 0;
#X connect 15 0 2 0;
#X connect 16 0 23 0;
#X connect 16 1 17 0;
#X connect 17 0 18 0;
#X connect 19 0 22 0;
#X connect 19 0 24 0;
#X connect 20 0 12 0;
#X connect 20 1 11 0;
#X connect 20 2 21 0;
#X connect 21 0 19 0;
#X connect 22 2 23 1;
#X connect 23 0 1 0;
