#N canvas 117 202 1120 647 10;
#X obj 405 304 openpanel;
#X obj 314 208 bng 20 250 50 0 empty empty open-sample 0 -6 1 10 -262144
-1 -1;
#X obj 67 54 inlet;
#X obj 67 90 list trim;
#X obj 405 371 symbol;
#X obj 534 281 list append \$2;
#X obj 534 304 select 0;
#X obj 534 257 loadbang;
#X obj 260 361 / 1000;
#X obj 260 340 r \$0-sr;
#X obj 67 167 s \$0-sr;
#X obj 197 323 t a a;
#X obj 108 491 outlet;
#X obj 472 304 list;
#X obj 405 206 b;
#X msg 494 363 bang;
#X obj 405 402 list append \$1;
#X obj 405 486 s \$0-samples;
#X obj 133 221 r \$0-samples;
#X obj 197 302 f;
#X obj 67 122 route sr info open;
#X obj 108 383 symbol \$1;
#X obj 405 165 route bang;
#X obj 108 463 list;
#X obj 108 251 t b a;
#X obj 108 437 pack s 0 0 22050;
#X obj 217 411 r \$0-sr;
#X msg 405 426 read -resize \$1 \$2-1 \$2-2;
#N canvas 172 83 586 377 LICENSE-GPL 0;
#X text 57 88 This program is free software: you can redistribute it
and/or modify it under the terms of the GNU General Public License
as published by the Free Software Foundation \, either version 3 of
the License \, or (at your option) any later version.;
#X text 58 168 This program is distributed in the hope that it will
be useful \, but WITHOUT ANY WARRANTY \; without even the implied warranty
of MERCHANTABILITY or FITNESS FOR A PARTICULAR PURPOSE. See the GNU
General Public License for more details.;
#X text 57 261 You should have received a copy of the GNU General Public
License along with this program. If not \, see <http://www.gnu.org/licenses/>.
;
#X text 61 54 Copyright (C) 2009 \, Reality Jockey Ltd.;
#X text 60 325 See the file LICENSE.txt for the full license text.
;
#X restore 522 59 pd LICENSE-GPL;
#X obj 515 159 r RJLIB;
#X obj 515 180 route sf-samplerate;
#X obj 515 202 s \$0-sr;
#X text 511 138 Allow global setting of soundfile samplerate;
#X obj 197 361 / 44.1;
#X obj 514 93 table \$1-1 1e+007;
#X obj 514 115 table \$1-2 1e+007;
#X obj 405 452 sndfiler;
#X connect 0 0 4 0;
#X connect 1 0 0 0;
#X connect 2 0 3 0;
#X connect 3 0 20 0;
#X connect 4 0 16 0;
#X connect 5 0 6 0;
#X connect 6 1 4 0;
#X connect 7 0 5 0;
#X connect 8 0 33 1;
#X connect 9 0 8 0;
#X connect 11 0 33 0;
#X connect 11 1 25 2;
#X connect 13 0 4 0;
#X connect 14 0 0 0;
#X connect 15 0 4 0;
#X connect 16 0 27 0;
#X connect 18 0 24 0;
#X connect 19 0 11 0;
#X connect 20 0 10 0;
#X connect 20 1 24 0;
#X connect 20 2 22 0;
#X connect 21 0 25 0;
#X connect 22 0 14 0;
#X connect 22 1 13 0;
#X connect 23 0 12 0;
#X connect 24 0 21 0;
#X connect 24 1 19 0;
#X connect 25 0 23 0;
#X connect 26 0 25 3;
#X connect 27 0 36 0;
#X connect 29 0 30 0;
#X connect 30 0 31 0;
#X connect 33 0 25 1;
#X connect 36 0 17 0;
