#N canvas 0 50 804 583 10;
#X obj 115 15 inlet;
#X obj 79 483 outlet~;
#X obj 181 482 outlet~;
#X obj 104 185 readsf~ 2;
#X msg 336 51 open ../sound/bell.aiff 0 200 4 2 b;
#X msg 336 30 open ../sound/bell.aiff;
#X text 395 171 6 ../sounds/soundfonts/P200_Piano/P200_Piano_D5(L).wav
0.0864984 1;
#X obj 134 117 list prepend open;
#X obj 115 37 route stop open;
#X obj 134 139 list trim;
#X obj 174 84 list split 1;
#X obj 92 452 *~;
#X obj 280 112 unpack f f;
#X obj 154 445 *~;
#X obj 434 92 switch~;
#X msg 367 86 1;
#X msg 222 165 1;
#X msg 324 183 0;
#X obj 115 59 t b b;
#X obj 43 101 delay 10;
#X msg 66 136 0;
#X obj 35 175 delay 1;
#X msg 35 222 0;
#X msg 365 244 \$1 off;
#X obj 331 269 s \$2-sf_player_feedback;
#X obj 376 221 f \$1;
#X obj 301 207 delay 1;
#X obj 474 345 t f f;
#X obj 471 412 abs;
#X obj 565 411 abs;
#X obj 468 451 * 0.5;
#X obj 558 451 * 0.5;
#X obj 459 384 - 0.5;
#X obj 561 385 + 0.5;
#X obj 226 392 lop~ 10;
#X obj 286 392 lop~ 10;
#X obj 324 308 t f b;
#X obj 545 261 random 11, f 14;
#X obj 545 303 / 10;
#X obj 545 283 - 5;
#X obj 545 325 * 0;
#X obj 643 335 r \$2-spread;
#X obj 257 48 t b a b;
#X obj 279 85 delay 5;
#X connect 0 0 8 0;
#X connect 3 0 11 0;
#X connect 3 1 13 0;
#X connect 3 2 22 0;
#X connect 3 2 26 0;
#X connect 7 0 9 0;
#X connect 8 0 18 0;
#X connect 8 1 42 0;
#X connect 9 0 3 0;
#X connect 10 0 7 0;
#X connect 10 1 12 0;
#X connect 11 0 1 0;
#X connect 12 0 36 0;
#X connect 13 0 2 0;
#X connect 15 0 14 0;
#X connect 16 0 3 0;
#X connect 17 0 36 0;
#X connect 18 0 19 0;
#X connect 18 1 17 0;
#X connect 19 0 20 0;
#X connect 19 0 21 0;
#X connect 20 0 3 0;
#X connect 21 0 22 0;
#X connect 22 0 14 0;
#X connect 23 0 24 0;
#X connect 25 0 23 0;
#X connect 26 0 25 0;
#X connect 27 0 32 0;
#X connect 27 1 33 0;
#X connect 28 0 30 1;
#X connect 29 0 31 1;
#X connect 30 0 34 0;
#X connect 31 0 35 0;
#X connect 32 0 28 0;
#X connect 33 0 29 0;
#X connect 34 0 11 1;
#X connect 35 0 13 1;
#X connect 36 0 30 0;
#X connect 36 0 31 0;
#X connect 36 1 37 0;
#X connect 37 0 39 0;
#X connect 38 0 40 0;
#X connect 39 0 38 0;
#X connect 40 0 27 0;
#X connect 41 0 40 1;
#X connect 42 0 43 0;
#X connect 42 1 10 0;
#X connect 42 2 15 0;
#X connect 43 0 16 0;
