#N canvas 655 144 845 488 10;
#X obj 136 80 ctlin;
#X obj 178 131 pack f f f;
#X obj 158 230 mrpeach/packOSC;
#X msg 125 170 send /midi/ctlin \$1 \$2 \$3;
#X obj 188 262 mrpeach/udpsend;
#X msg 317 225 connect localhost 6666;
#X obj 330 187 loadbang;
#X obj 118 273 tgl 15 0 empty empty empty 17 7 0 10 -262144 -1 -1 1
1;
#X obj 513 53 vsl 15 128 0 127 0 0 empty empty empty 0 -9 0 10 -262144
-1 -1 8100 1;
#X obj 573 53 vsl 15 128 0 127 0 0 empty empty empty 0 -9 0 10 -262144
-1 -1 0 1;
#X obj 633 53 vsl 15 128 0 127 0 0 empty empty empty 0 -9 0 10 -262144
-1 -1 0 1;
#X obj 693 53 vsl 15 128 0 127 0 0 empty empty empty 0 -9 0 10 -262144
-1 -1 0 1;
#X obj 513 273 vsl 15 128 0 127 0 0 empty empty empty 0 -9 0 10 -262144
-1 -1 8100 0;
#X obj 573 273 vsl 15 128 0 127 0 0 empty empty empty 0 -9 0 10 -262144
-1 -1 7200 1;
#X obj 633 273 vsl 15 128 0 127 0 0 empty empty empty 0 -9 0 10 -262144
-1 -1 0 1;
#X obj 693 273 vsl 15 128 0 127 0 0 empty empty empty 0 -9 0 10 -262144
-1 -1 0 1;
#X msg 512 241 \$1 20 1;
#X msg 572 241 \$1 21 1;
#X msg 632 241 \$1 22 1;
#X msg 692 241 \$1 23 1;
#X msg 512 461 \$1 24 1;
#X msg 572 461 \$1 25 1;
#X msg 632 461 \$1 26 1;
#X msg 692 461 \$1 27 1;
#X msg 416 138 disconnect;
#X connect 0 0 1 0;
#X connect 0 1 1 1;
#X connect 0 2 1 2;
#X connect 1 0 3 0;
#X connect 2 0 4 0;
#X connect 3 0 2 0;
#X connect 4 0 7 0;
#X connect 5 0 4 0;
#X connect 6 0 5 0;
#X connect 8 0 16 0;
#X connect 9 0 17 0;
#X connect 10 0 18 0;
#X connect 11 0 19 0;
#X connect 12 0 20 0;
#X connect 13 0 21 0;
#X connect 14 0 22 0;
#X connect 15 0 23 0;
#X connect 16 0 3 0;
#X connect 17 0 3 0;
#X connect 18 0 3 0;
#X connect 19 0 3 0;
#X connect 20 0 3 0;
#X connect 21 0 3 0;
#X connect 22 0 3 0;
#X connect 23 0 3 0;
#X connect 24 0 4 0;
