#N canvas 0 50 615 426 10;
#X floatatom 348 246 5 0 0 1 beat_time - -, f 5;
#X floatatom 214 284 5 0 0 1 phase - -, f 5;
#X floatatom 503 351 5 0 0 1 tempo - -, f 5;
#X obj 56 222 outlet step;
#X obj 158 312 outlet phase;
#X obj 473 367 outlet tempo;
#X obj 344 293 outlet;
#X obj 154 59 inlet;
#X obj 289 11 loadbang;
#X obj 301 46 f \$4;
#X msg 300 76 tempo \$1;
#N canvas 113 -3 1366 725 stuff 0;
#X text 467 343 from:;
#X obj 39 317 list split 33;
#X obj 46 359 list split 3;
#X obj 46 381 unpack f f f;
#X obj 43 418 * 256;
#X obj 99 418 * 256;
#X obj 43 440 * 256;
#X obj 64 478 +;
#X obj 64 500 +;
#X obj 118 555 /;
#X msg 115 526 6e+007 \$1;
#X floatatom 130 143 5 0 0 0 BPM - -, f 5;
#X floatatom 195 349 3 0 0 0 - - -, f 3;
#X floatatom 222 349 3 0 0 0 - - -, f 3;
#X floatatom 249 349 3 0 0 0 - - -, f 3;
#X floatatom 276 349 3 0 0 0 - - -, f 3;
#X floatatom 303 350 5 0 0 0 - - -, f 5;
#X obj 195 323 unpack 0 0 0 0 0;
#X text 159 419 from:;
#X obj 140 292 list split 5;
#X obj 91 260 list split 39;
#X obj 325 504 phasor~;
#X obj 28 554 /;
#X msg 22 531 1e+006 \$1;
#X obj 463 441 t f f;
#X obj 465 493 -;
#X obj 489 471 int;
#X msg 381 476 0;
#X obj 234 380 expr (($f1*256+$f2)*256+$f3)*65536/1000000;
#X obj 471 540 t b f;
#X obj 398 552 wrap~;
#X obj 318 527 +~;
#X obj 465 515 +;
#X obj 428 413 expr ($f1*256+$f2)/1000000;
#X obj 235 447 change;
#X msg 243 406 set -1;
#X obj 54 224 spigot;
#X obj 105 104 bng 30 250 50 0 empty empty listen 17 7 0 10 -262144
-1 -1;
#X floatatom 649 643 5 0 0 0 - - -, f 5;
#X obj 215 577 threshold~ 0.999 0 1 0;
#X obj 131 37 inlet;
#X obj 121 66 route offset tempo reset;
#N canvas 0 50 661 410 offset 0;
#X obj 191 46 inlet;
#X obj 288 315 outlet;
#X obj 287 50 inlet bpm;
#X obj 220 321 t b;
#X msg 209 98 60000 \$1;
#X obj 209 120 /;
#X obj 215 264 delay;
#X obj 350 124 inlet offset;
#X obj 253 169 - 3;
#X floatatom 209 142 5 0 0 0 - - -, f 5;
#X obj 164 100 bng 15 250 50 0 empty empty empty 17 7 0 10 -262144
-1 -1;
#X connect 0 0 6 0;
#X connect 0 0 10 0;
#X connect 2 0 4 0;
#X connect 3 0 1 0;
#X connect 4 0 5 0;
#X connect 5 0 8 0;
#X connect 5 0 9 0;
#X connect 6 0 3 0;
#X connect 7 0 8 1;
#X connect 8 0 6 1;
#X restore 129 593 pd offset;
#X obj 263 601 metro;
#X msg 578 473 tempo \$1 permin;
#X obj 349 622 + 1;
#X obj 253 627 f;
#X obj 349 644 mod 96;
#X obj 207 613 + 1;
#X obj 129 615 t b b;
#X obj 163 662 select 0;
#X msg 725 555 0;
#X obj 252 683 outlet;
#X obj 580 451 * \$1;
#X obj 207 635 mod \$3;
#X obj 163 640 f \$2;
#X obj 567 514 loadbang;
#X obj 230 478 unpack f f;
#X obj 575 542 f \$3;
#X obj 563 565 * \$1;
#X obj 106 497 t f f;
#X obj 888 585 /;
#X msg 885 556 6e+007 \$1;
#X obj 53 199 t l l;
#X obj 405 99 list split 12;
#X obj 616 124 list split 8;
#X msg 906 163 symbol \$1:\$2:\$3:\$4:\$5:\$6:\$7:\$8;
#X symbolatom 184 119 30 0 0 0 - - -, f 30;
#X symbolatom 180 141 30 0 0 0 - - -, f 30;
#X obj 959 258 symbol;
#X obj 872 303 select symbol;
#X msg 872 325 1;
#X msg 915 333 0;
#X obj 992 210 spigot 1;
#X obj 992 232 t s b;
#X msg 1078 229 0;
#X msg 791 401 1;
#X text 837 406 auto reconnect;
#X obj 791 379 delay 1000;
#X text 620 72 https://github.com/westhom/AbletonLinkProtocol;
#X obj 53 177 mrpeach/udpreceive 20808 224.76.78.75;
#X obj 1026 661 outlet tempo;
#X obj 476 631 bang~;
#X obj 398 574 snapshot~;
#X obj 426 660 +;
#X obj 426 682 outlet;
#X obj 602 672 outlet;
#X connect 1 1 2 0;
#X connect 2 0 3 0;
#X connect 3 0 4 0;
#X connect 3 1 5 0;
#X connect 3 2 8 1;
#X connect 4 0 6 0;
#X connect 5 0 7 1;
#X connect 6 0 7 0;
#X connect 7 0 8 0;
#X connect 8 0 60 0;
#X connect 9 0 11 0;
#X connect 9 0 42 1;
#X connect 9 0 53 0;
#X connect 9 0 81 0;
#X connect 10 0 9 0;
#X connect 17 0 12 0;
#X connect 17 0 28 0;
#X connect 17 1 13 0;
#X connect 17 1 28 1;
#X connect 17 2 14 0;
#X connect 17 2 28 2;
#X connect 17 3 15 0;
#X connect 17 3 33 0;
#X connect 17 4 16 0;
#X connect 17 4 33 1;
#X connect 19 0 17 0;
#X connect 20 1 19 0;
#X connect 21 0 31 0;
#X connect 22 0 21 0;
#X connect 23 0 22 0;
#X connect 24 0 25 0;
#X connect 24 1 26 0;
#X connect 25 0 32 0;
#X connect 26 0 25 1;
#X connect 27 0 21 1;
#X connect 28 0 34 0;
#X connect 29 0 27 0;
#X connect 29 1 31 1;
#X connect 29 1 38 0;
#X connect 30 0 39 0;
#X connect 30 0 83 0;
#X connect 31 0 30 0;
#X connect 32 0 29 0;
#X connect 33 0 32 1;
#X connect 34 0 24 0;
#X connect 35 0 34 0;
#X connect 36 0 20 0;
#X connect 36 0 1 0;
#X connect 37 0 69 0;
#X connect 39 0 42 0;
#X connect 40 0 41 0;
#X connect 41 0 42 2;
#X connect 41 1 62 0;
#X connect 41 2 57 0;
#X connect 42 0 49 0;
#X connect 43 0 46 0;
#X connect 44 0 43 0;
#X connect 45 0 47 0;
#X connect 46 0 45 0;
#X connect 46 0 52 0;
#X connect 46 0 84 1;
#X connect 47 0 46 1;
#X connect 48 0 54 0;
#X connect 49 1 55 0;
#X connect 50 0 51 0;
#X connect 50 0 43 0;
#X connect 51 0 46 1;
#X connect 53 0 44 0;
#X connect 54 0 55 1;
#X connect 55 0 48 0;
#X connect 55 0 50 0;
#X connect 56 0 58 0;
#X connect 57 0 55 1;
#X connect 57 1 54 1;
#X connect 57 1 58 0;
#X connect 58 0 59 0;
#X connect 59 0 47 1;
#X connect 60 0 23 0;
#X connect 60 1 10 0;
#X connect 61 0 60 0;
#X connect 62 0 61 0;
#X connect 63 0 36 0;
#X connect 63 1 64 0;
#X connect 64 1 65 0;
#X connect 65 0 66 0;
#X connect 66 0 67 0;
#X connect 66 0 70 0;
#X connect 66 0 69 1;
#X connect 66 0 73 0;
#X connect 69 0 68 0;
#X connect 69 0 70 1;
#X connect 70 0 71 0;
#X connect 70 0 78 0;
#X connect 70 1 72 0;
#X connect 71 0 36 1;
#X connect 72 0 36 1;
#X connect 73 0 74 0;
#X connect 74 0 69 0;
#X connect 74 1 75 0;
#X connect 75 0 73 1;
#X connect 76 0 73 1;
#X connect 78 0 76 0;
#X connect 80 0 63 0;
#X connect 82 0 83 0;
#X connect 83 0 84 0;
#X connect 84 0 85 0;
#X coords 0 -1 1 1 400 60 1 100 100;
#X restore 121 122 pd stuff;
#X obj 500 319 change;
#X connect 7 0 11 0;
#X connect 8 0 9 0;
#X connect 9 0 10 0;
#X connect 10 0 11 0;
#X connect 11 0 3 0;
#X connect 11 1 4 0;
#X connect 11 3 12 0;
#X connect 12 0 5 0;
