#N canvas 608 147 706 300 10;
#X declare -path ../rj;
#X declare -path ../modules;
#X obj 86 90 aux_send~ 0;
#X text 116 30 permet de connecter dans un rack statique les entrées
auxiliaires ou side d'un module (exemple inst_sampler);
#X obj 596 95 declare -path ../rj;
#X obj 596 65 declare -path ../modules;
#X obj 94 144 inst_sampler;
#X obj 334 136 audio_in;
#X text 159 223 RecIn;
#X text 418 219 SetModule;
