#N canvas 0 50 450 300 10;
#X obj 203 61 inlet~;
#X obj 273 61 inlet~;
#X obj 77 98 loadbang;
#X obj 115 222 tabwrite SLOTS_MAP;
#X obj 205 169 pack f \$1;
#X obj 124 151 f \$0;
#X obj 176 103 s~ \$0-send-0;
#X obj 274 103 s~ \$0-send-1;
#X obj 130 131 bng 15 250 50 0 empty empty empty 17 7 0 10 -262144
-1 -1;
#X connect 0 0 6 0;
#X connect 1 0 7 0;
#X connect 2 0 5 0;
#X connect 4 0 3 0;
#X connect 5 0 4 0;
#X connect 8 0 5 0;
