#N canvas 324 77 802 300 10;
#X obj 42 220 send;
#X obj 24 107 inlet;
#X obj 116 25 r REFRESH_CONNEXIONS;
#X obj 159 166 tabread SLOTS_MAP;
#X obj 159 136 + 1;
#X msg 153 195 symbol \$1-data;
#X obj 120 80 v \$1-slot;
#X obj 120 102 select 0;
#X obj 221 68 loadbang;
#X connect 1 0 0 0;
#X connect 2 0 6 0;
#X connect 3 0 5 0;
#X connect 4 0 3 0;
#X connect 5 0 0 1;
#X connect 6 0 7 0;
#X connect 7 1 4 0;
#X connect 8 0 6 0;
