#N canvas 305 56 1112 607 10;
#X obj 447 26 table SLOTS_MAP 10000;
#X obj 66 239 r FROM_GUI;
#X text 618 18 table de correspondance entre slots et modules actifs
, f 31;
#N canvas 0 50 450 300 explications/projets 0;
#X text 42 55 réception fid add;
#X text 44 75 mapping modulename;
#X text 42 121 message add sid modulename;
#X text 42 140 connexion audio / data en fonction emplacement;
#X text 48 187 rackpd : valeurs réservées pour sid correspondant
à des valeurs particulières;
#X text 35 303 chaque objet est affecté à un slot;
#X text 78 333 slot fixe de rack (sid < 200);
#X text 112 361 sauvegardé dans le système d'enregistrement d'état
;
#X text 71 422 slot dynamique (sid > 200);
#X text 106 443 créé à la volée à partir de fiduciaux;
#X text 110 385 le système d'enregistrement d'état sauvegarde les
paramètre ainsi que les affectations de connexions;
#N canvas 0 50 620 425 TODO 0;
#X text 44 15 dans module_loader;
#X obj 105 66 s control-\$2;
#X text 203 66 ne respecte pas la syntaxe commune ($x-blabla);
#X obj 107 118 r \$2-hasFocus;
#X text 207 118 mécanisme à réimplémenter dans la gui ou ailleurs
;
#X obj 118 204 r \$2-preset-search;
#X text 73 170 dans module_loader/gestion_preset_module;
#X text 276 208 voir si cette "méthode" est appelée à un moment
donné;
#X obj 120 230 s \$2-presets-rcv;
#X text 271 230 où ça renvoie ?;
#X text 89 276 dans RackPd/stuff/creation dynamique d'objets/ :;
#X text 129 301 [text define module_register] à supprimer ?;
#X restore 102 259 pd TODO;
#X restore 751 96 pd explications/projets;
#N canvas 0 50 501 431 focus 0;
#X obj 155 54 inlet;
#X obj 21 280 select 0;
#X obj 61 154 tabread SLOTS_MAP;
#X obj 285 238 f;
#X obj 304 122 r REMOTE;
#X obj 313 147 route focus;
#X obj 312 169 list split 1;
#X msg 294 261 \; \$1-hasFocus 0;
#X msg 87 350 \; \$1-hasFocus 1;
#X obj 121 214 t f b;
#X obj 361 198 list split 1;
#X connect 0 0 2 0;
#X connect 1 1 8 0;
#X connect 2 0 9 0;
#X connect 3 0 7 0;
#X connect 4 0 5 0;
#X connect 5 0 6 0;
#X connect 6 1 10 0;
#X connect 9 0 1 0;
#X connect 9 1 3 0;
#X connect 10 0 3 1;
#X restore 161 341 pd focus;
#N canvas 0 50 783 539 remove 0;
#X obj 141 64 inlet;
#X obj 32 176 select 0;
#X obj 33 133 tabread SLOTS_MAP;
#X msg 151 237 \; \$1-channel remove \;;
#X obj 78 292 s REFRESH_CONNEXIONS;
#X obj 336 142 r INSERT_MODE;
#X obj 86 215 t b b f;
#X obj 328 184 spigot;
#X obj 184 91 t f f;
#X obj 506 117 / 10;
#X obj 505 139 int;
#X obj 506 161 * 10;
#X obj 553 323 tabread SLOTS_MAP;
#X obj 553 359 select 0;
#X obj 592 404 pack f f;
#X msg 591 427 \; \$1-channel slot \$2;
#X obj 530 288 t f f f;
#X obj 463 255 moses;
#X obj 507 188 + 10;
#X obj 463 92 t f f;
#X obj 328 210 f;
#X obj 381 254 + 1;
#X obj 410 398 s FROM_GUI;
#X msg 426 359 remove \$1;
#X text 492 46 faire remonter les cellules vers le haut;
#X obj 649 292 - 1;
#X obj 508 212 - 0;
#X floatatom 525 237 5 0 0 0 - - -, f 5;
#X floatatom 551 91 5 0 0 0 - - -, f 5;
#X obj 446 162 + 1;
#X obj 462 289 - 1;
#X msg 221 424 0;
#X obj 286 417 t b f;
#X obj 216 454 tabwrite SLOTS_MAP;
#X obj 553 401 f;
#X obj 548 435 - 1;
#X text 575 131 grille avec 10 de hauteur;
#X connect 0 0 8 0;
#X connect 1 1 6 0;
#X connect 2 0 1 0;
#X connect 5 0 7 1;
#X connect 6 0 4 0;
#X connect 6 1 7 0;
#X connect 6 2 3 0;
#X connect 7 0 20 0;
#X connect 8 0 2 0;
#X connect 8 1 20 1;
#X connect 9 0 10 0;
#X connect 10 0 11 0;
#X connect 11 0 18 0;
#X connect 12 0 13 0;
#X connect 13 0 34 0;
#X connect 13 1 14 0;
#X connect 14 0 15 0;
#X connect 16 0 21 0;
#X connect 16 1 12 0;
#X connect 16 2 25 0;
#X connect 16 2 34 1;
#X connect 17 0 16 0;
#X connect 17 1 30 0;
#X connect 18 0 26 0;
#X connect 19 0 29 0;
#X connect 19 1 9 0;
#X connect 20 0 19 0;
#X connect 21 0 17 0;
#X connect 23 0 22 0;
#X connect 25 0 14 1;
#X connect 26 0 17 1;
#X connect 26 0 27 0;
#X connect 28 0 9 0;
#X connect 29 0 17 0;
#X connect 30 0 32 0;
#X connect 30 0 23 0;
#X connect 31 0 33 0;
#X connect 32 0 31 0;
#X connect 32 1 33 1;
#X connect 34 0 35 0;
#X connect 35 0 32 0;
#X restore 87 340 pd remove;
#X obj 455 122 r module-0-rcv;
#N canvas 0 50 455 376 testing 0;
#X msg 99 204 remove 5;
#X msg 100 235 remove 4;
#X msg 46 64 add 5 obj1;
#X msg 60 90 add 4 obj1;
#X msg 76 124 add 5 obj2;
#X msg 90 150 add 4 obj2;
#X msg 150 90 add 6 obj1;
#X msg 166 124 add 6 obj2;
#X msg 110 265 remove 6;
#X msg 192 307 add 6 obj3;
#X obj 31 341 outlet;
#X text 74 38 sid ou numéro slot;
#X connect 0 0 10 0;
#X connect 1 0 10 0;
#X connect 2 0 10 0;
#X connect 3 0 10 0;
#X connect 4 0 10 0;
#X connect 5 0 10 0;
#X connect 6 0 10 0;
#X connect 7 0 10 0;
#X connect 8 0 10 0;
#X connect 9 0 10 0;
#X restore 41 66 pd testing;
#N canvas 0 50 877 563 add 0;
#X obj 93 24 inlet;
#X msg 84 264 \; \$2 add \$1;
#X obj 111 210 list append;
#X obj 86 61 t l l;
#X obj 82 136 tabread SLOTS_MAP;
#X msg 84 90 \$1;
#X obj 83 164 select 0;
#X obj 254 195 list append;
#X obj 56 362 s REFRESH_CONNEXIONS;
#X obj 64 238 t b l;
#X obj 204 445 s REFRESH_CONNEXIONS;
#X obj 218 341 t b l;
#X msg 263 373 \; \$1-channel replace \$3 \$2;
#X obj 248 216 list prepend 0;
#X text 365 206 0 = overwrite;
#X text 363 185 insert mode;
#X text 363 226 1 = insert;
#X obj 235 238 route 0 1;
#X msg 345 305 \; \$3 insert \$2 \$1;
#X obj 274 345 s REFRESH_CONNEXIONS;
#X obj 288 261 t b l;
#X obj 470 135 r INSERT_MODE;
#X connect 0 0 3 0;
#X connect 2 0 9 0;
#X connect 3 0 5 0;
#X connect 3 1 2 1;
#X connect 3 1 7 1;
#X connect 4 0 6 0;
#X connect 5 0 4 0;
#X connect 6 0 2 0;
#X connect 6 1 7 0;
#X connect 7 0 13 0;
#X connect 9 0 8 0;
#X connect 9 1 1 0;
#X connect 11 0 10 0;
#X connect 11 1 12 0;
#X connect 13 0 17 0;
#X connect 17 0 11 0;
#X connect 17 1 20 0;
#X connect 20 0 19 0;
#X connect 20 1 18 0;
#X connect 21 0 13 1;
#X restore 31 370 pd add;
#X obj 66 209 s FROM_GUI;
#N canvas 95 50 958 588 gui 0;
#X obj 117 375 list append;
#X obj 433 129 t b a;
#X msg 366 183 add;
#X obj 117 342 list prepend;
#X obj 115 402 list trim;
#X msg 239 170 remove;
#X obj 126 423 t a b;
#X obj 80 237 r GO;
#X obj 237 205 t a b;
#X msg 292 215 focus;
#X msg 474 271 label \$1;
#X obj 202 251 symbol;
#X obj 478 178 symbol;
#X msg 518 278 label add:\$1;
#X obj 279 16 r ACTION;
#X obj 792 19 r REMOTE;
#X obj 846 81 list split 1;
#X obj 712 277 s COMMAND-rcv;
#X obj 792 39 route slot focus;
#X obj 711 185 list append;
#X obj 705 109 t f f;
#X msg 711 220 label \$3(\$1:\$2);
#X obj 708 159 pack f f;
#X obj 698 134 div 10;
#X obj 755 136 mod 10;
#X obj 759 60 select 0;
#X msg 325 426 symbol \$3;
#X obj 79 162 s COMMAND-HELP-rcv;
#X msg 75 138 label;
#X text 96 555 dépendance à zexy à supprimer;
#N canvas 1 56 450 300 aide_contextuelle 1;
#X obj 84 26 inlet;
#X obj 62 154 text get modules;
#X obj 57 183 list split 1;
#X obj 90 73 text search modules;
#X obj 86 111 select -1;
#X obj 279 181 s COMMAND-HELP-rcv;
#X msg 294 141 label \$1;
#X msg 316 102 label;
#X obj 106 225 list2symbol _;
#X connect 0 0 3 0;
#X connect 1 0 2 0;
#X connect 2 1 8 0;
#X connect 3 0 4 0;
#X connect 4 0 7 0;
#X connect 4 1 1 0;
#X connect 6 0 5 0;
#X connect 7 0 5 0;
#X connect 8 0 6 0;
#X restore 137 531 pd aide_contextuelle (COMMAND-HELP-rcv);
#X text 829 277 affichage de l'action en cours;
#X obj 119 450 outlet;
#X obj 312 287 t a b;
#X msg 339 153 help;
#X obj 275 100 route remove focus help select_module;
#X obj 319 61 t a b;
#X msg 588 96 0;
#X obj 555 204 spigot;
#X obj 547 130 symbol;
#X obj 547 152 t b s;
#X msg 614 173 1;
#X obj 558 250 s;
#X obj 538 176 r GO;
#X obj 601 227 t a b;
#X msg 616 318 label select_source_module;
#X msg 677 246 label;
#X connect 0 0 4 0;
#X connect 1 0 2 0;
#X connect 1 1 0 1;
#X connect 1 1 12 0;
#X connect 2 0 3 1;
#X connect 3 0 0 0;
#X connect 4 0 6 0;
#X connect 5 0 8 0;
#X connect 6 0 32 0;
#X connect 6 1 9 0;
#X connect 7 0 3 0;
#X connect 8 0 11 0;
#X connect 8 1 0 1;
#X connect 9 0 33 0;
#X connect 10 0 17 0;
#X connect 11 0 3 1;
#X connect 11 0 10 0;
#X connect 12 0 13 0;
#X connect 12 0 30 0;
#X connect 13 0 17 0;
#X connect 14 0 36 0;
#X connect 15 0 18 0;
#X connect 16 0 19 1;
#X connect 18 0 25 0;
#X connect 18 1 16 0;
#X connect 19 0 21 0;
#X connect 19 0 26 0;
#X connect 20 0 23 0;
#X connect 20 1 24 0;
#X connect 21 0 17 0;
#X connect 22 0 19 0;
#X connect 23 0 22 0;
#X connect 24 0 22 1;
#X connect 25 1 20 0;
#X connect 26 0 30 0;
#X connect 28 0 27 0;
#X connect 33 0 3 1;
#X connect 33 1 0 1;
#X connect 34 0 8 0;
#X connect 35 0 5 0;
#X connect 35 0 28 0;
#X connect 35 1 9 0;
#X connect 35 2 34 0;
#X connect 35 3 39 0;
#X connect 35 4 1 0;
#X connect 36 0 35 0;
#X connect 36 1 37 0;
#X connect 37 0 38 1;
#X connect 38 0 44 0;
#X connect 39 0 40 0;
#X connect 40 0 41 0;
#X connect 40 0 45 0;
#X connect 40 1 42 1;
#X connect 41 0 38 1;
#X connect 43 0 38 0;
#X connect 44 0 42 0;
#X connect 44 1 37 0;
#X connect 44 1 46 0;
#X connect 45 0 17 0;
#X connect 46 0 17 0;
#X restore 70 184 pd gui (ex Rack-config);
#X obj 153 306 change;
#X obj 62 268 route add remove focus help;
#X obj 236 313 s HELP;
#X text 288 311 cf pd setfocus/help;
#X obj 114 321 r REMOVE;
#X obj 23 325 r INSERT;
#X connect 1 0 12 0;
#X connect 7 0 12 0;
#X connect 10 0 9 0;
#X connect 11 0 4 0;
#X connect 12 0 8 0;
#X connect 12 1 5 0;
#X connect 12 2 11 0;
#X connect 12 3 13 0;
#X connect 15 0 5 0;
#X connect 16 0 8 0;
