#N struct 9229-symarray float x array symbols 9229-sym;
#N struct 9229-sym symbol name float on;
#N canvas 474 211 1110 622 10;
#X obj 214 106 list split 1;
#X obj 253 135 list split 2;
#X obj 233 287 list prepend;
#X obj 233 309 list trim;
#X obj 233 331 route slot;
#X obj 118 432 iemlib/splitfilename -;
#X obj 337 395 mod 10;
#X obj 285 395 div 10;
#X obj 59 218 until;
#X msg 50 160 60;
#X obj 58 246 f;
#X obj 103 244 + 1;
#X obj 74 130 t b b;
#X msg 120 182 0;
#X obj 85 91 bng 15 250 50 0 empty empty empty 17 7 0 10 -262144 -1
-1;
#X obj 355 75 delay 1000;
#X obj 484 43 spigot 1;
#X msg 533 10 0;
#X msg 153 348 reset;
#X obj 355 97 t b b;
#X msg 401 121 1;
#X obj 337 417 * 80;
#X obj 285 417 * 200;
#X obj 205 578 s pd-\$0-export;
#X obj 144 369 m_symbolarray;
#X obj 133 314 t f f;
#X obj 285 368 t f f f;
#X obj 984 50 table \$0-slots 60;
#X obj 403 485 tabwrite \$0-slots;
#X msg 408 464 1 \$1;
#X obj 474 171 s \$0-slots;
#X msg 473 144 const 0;
#X obj 47 299 select 59;
#X obj 47 321 delay 100;
#X obj 401 442 f;
#X text 460 455 mémorisation des slots occupés;
#X obj 206 488 + 1;
#X obj 171 521 pack s f f f;
#X msg 590 293 loadbang;
#X msg 1045 371 1e+06;
#X obj 957 357 t a b;
#X msg 614 89 clear;
#X obj 214 35 spigot;
#X obj 214 13 r RJ_SCENE_LOAD;
#X obj 103 151 tgl 15 0 empty empty empty 17 7 0 10 -262144 -1 -1 0
1;
#X msg 397 152 0;
#X obj 519 345 r pd-\$0-export;
#X obj 519 367 list;
#X obj 519 433 text set \$0-export;
#X msg 593 405 1e+06;
#X obj 519 389 t l b;
#X obj 611 135 text define \$0-export;
#X obj 1009 423 text set \$0-scene;
#X obj 689 503 delay 1000;
#X obj 689 525 savepanel;
#X obj 612 112 text define \$0-scene;
#X msg 174 548 #X obj \$3 \$4 \$1 \$2;
#X obj 481 77 t b b b;
#X msg 674 88 write \$1;
#X msg 178 210 vis 1;
#X obj 181 184 select 1;
#N canvas 0 50 450 300 en-tête/declare 0;
#X obj 37 37 inlet;
#X obj 38 218 s pd-\$0-export;
#X msg 33 94 #N canvas 0 50 1046 598 10 \, #X declare -path ./ressources/core
\, #X declare -path ../ressources/rj \, #X declare -path ../ressources/modules
\, #X declare -path ../ressources/core/fid_abs_vanilia-0.4 \, #X obj
800 500 declare -path ../ressources/core \, #X obj 800 520 declare
-path ../ressources/rj \, #X obj 800 540 declare -path ../ressources/modules
;
#X text 216 223 seulement besoin de ../ressources/modules;
#X connect 0 0 2 0;
#X connect 2 0 1 0;
#X restore 505 203 pd en-tête/declare;
#X obj 673 42 r \$0-write;
#X obj 689 547 s \$0-write;
#N canvas 0 50 450 300 connecting_objects 0;
#X obj 145 45 inlet;
#X obj 149 238 until;
#X msg 140 180 60;
#X obj 148 266 f;
#X obj 193 264 + 1;
#X obj 93 312 tabread \$0-slots;
#X obj 91 373 spigot;
#X obj 148 288 t f f;
#X obj 171 364 select 1;
#X obj 171 386 f;
#X obj 211 388 + 1;
#X obj 118 420 f;
#X obj 118 442 t f f;
#X obj 152 471 - 1;
#X obj 118 504 pack f f;
#X obj -47 539 s pd-\$0-export;
#X obj 93 334 t f f f;
#X obj 91 395 select 1;
#X msg 118 526 #X connect \$2 0 \$1 0 \, #X connect \$2 1 \$1 1 \,
#X connect \$2 2 \$1 2;
#X msg 210 202 0;
#X msg 243 254 4;
#X obj 144 100 t b b b;
#X connect 0 0 21 0;
#X connect 1 0 3 0;
#X connect 2 0 1 0;
#X connect 3 0 4 0;
#X connect 3 0 7 0;
#X connect 4 0 3 1;
#X connect 5 0 16 0;
#X connect 6 0 17 0;
#X connect 7 0 5 0;
#X connect 8 0 9 0;
#X connect 9 0 10 0;
#X connect 9 0 11 1;
#X connect 10 0 9 1;
#X connect 11 0 12 0;
#X connect 12 0 14 0;
#X connect 12 1 13 0;
#X connect 13 0 14 1;
#X connect 14 0 18 0;
#X connect 16 0 6 1;
#X connect 16 1 6 0;
#X connect 16 2 8 0;
#X connect 17 0 11 0;
#X connect 18 0 15 0;
#X connect 19 0 3 1;
#X connect 20 0 9 1;
#X connect 21 1 2 0;
#X connect 21 2 20 0;
#X connect 21 2 19 0;
#X restore 793 469 pd connecting_objects;
#X obj 996 489 bng 15 250 50 0 empty empty empty 17 7 0 10 -262144
-1 -1;
#X text 1018 486 bang to output list;
#X text 1190 562 arguments: name of the text object or "-s struct-name"
, f 30;
#X obj 996 570 text tolist \$0-scene;
#X obj 689 431 t b b b b;
#N canvas 0 50 803 391 objets_de_service 0;
#X obj 107 39 inlet;
#X obj 76 200 s pd-\$0-export;
#X msg 74 106 #X obj 800 0 PdRacks.settings \, #X obj 800 80 PdRacks.transport
\, #X obj 800 240 PdRacks.midilearn \, #X obj 800 160 PdRacks.morphing
\, #X obj 800 320 PdRacks.midi 1;
#X connect 0 0 2 0;
#X connect 2 0 1 0;
#X restore 798 523 pd objets_de_service;
#X obj 923 620 s pd-\$0-export;
#X obj 1016 531 t b b;
#X msg 1082 531 #X obj 800 600 text define -k scene_preset;
#X obj 994 597 list prepend #A set;
#X text 128 115 Pour exporter une scène \, cocher cette case puis
cliquer sur la scène choisie, f 22;
#X obj 178 228 s pd-conduite;
#N canvas 0 50 450 300 ensure 0;
#X obj 209 30 inlet;
#X obj 150 245 outlet;
#X obj 251 77 iemlib/splitfilename .;
#X obj 335 106 select pd;
#X obj 218 150 list append;
#X obj 219 208 list append .pd;
#X msg 218 172 symbol \$1\$2;
#X msg 228 242 symbol \$1\$2;
#X msg 335 128 symbol;
#X obj 371 169 select symbol;
#X msg 459 146 symbol;
#X msg 377 200 symbol .\$1;
#X obj 457 120 loadbang;
#X connect 0 0 2 0;
#X connect 2 0 4 0;
#X connect 2 1 3 0;
#X connect 3 0 8 0;
#X connect 3 1 9 0;
#X connect 4 0 6 0;
#X connect 5 0 7 0;
#X connect 6 0 5 0;
#X connect 7 0 1 0;
#X connect 8 0 4 1;
#X connect 9 0 8 0;
#X connect 9 1 11 0;
#X connect 10 0 9 1;
#X connect 11 0 4 1;
#X connect 12 0 10 0;
#X restore 673 69 pd ensure .pd extension;
#X obj 249 461 symbol2list;
#X obj 43 459 select inst_modular;
#X msg -37 520 symbol inst_modular_standalone;
#X obj 335 573 text search \$0-scene;
#X obj 151 405 t s b s;
#X obj 335 525 symbol;
#X obj 43 482 t b b;
#X msg 335 548 list \$1 modular_name;
#X obj 336 596 text get \$0-scene 2;
#X obj 72 559 pack s f f f s;
#X msg 69 608 #X obj \$3 \$4 \$1 \$2 \$5;
#X obj 215 59 t a b b a;
#X obj 957 380 list;
#X connect 0 0 2 0;
#X connect 0 1 1 0;
#X connect 1 0 2 1;
#X connect 2 0 3 0;
#X connect 3 0 4 0;
#X connect 4 0 24 1;
#X connect 5 0 79 0;
#X connect 5 1 78 0;
#X connect 6 0 21 0;
#X connect 7 0 22 0;
#X connect 8 0 10 0;
#X connect 9 0 8 0;
#X connect 10 0 11 0;
#X connect 10 0 25 0;
#X connect 10 0 32 0;
#X connect 11 0 10 1;
#X connect 12 0 9 0;
#X connect 12 1 13 0;
#X connect 13 0 10 1;
#X connect 14 0 12 0;
#X connect 15 0 19 0;
#X connect 16 0 57 0;
#X connect 17 0 16 1;
#X connect 18 0 24 0;
#X connect 19 0 12 0;
#X connect 19 1 20 0;
#X connect 19 1 45 0;
#X connect 20 0 16 1;
#X connect 21 0 37 3;
#X connect 21 0 87 3;
#X connect 22 0 37 2;
#X connect 22 0 87 2;
#X connect 24 0 82 0;
#X connect 25 0 24 0;
#X connect 25 1 26 0;
#X connect 26 0 7 0;
#X connect 26 1 6 0;
#X connect 26 2 34 1;
#X connect 29 0 28 0;
#X connect 31 0 30 0;
#X connect 32 0 33 0;
#X connect 33 0 69 0;
#X connect 34 0 29 0;
#X connect 36 0 37 1;
#X connect 36 0 87 1;
#X connect 37 0 56 0;
#X connect 38 0 23 0;
#X connect 39 0 52 1;
#X connect 40 0 90 0;
#X connect 40 1 39 0;
#X connect 41 0 51 0;
#X connect 41 0 55 0;
#X connect 42 0 89 0;
#X connect 43 0 42 0;
#X connect 44 0 42 1;
#X connect 44 0 60 0;
#X connect 45 0 44 0;
#X connect 46 0 47 0;
#X connect 47 0 50 0;
#X connect 49 0 48 1;
#X connect 50 0 48 0;
#X connect 50 1 49 0;
#X connect 53 0 54 0;
#X connect 54 0 63 0;
#X connect 56 0 23 0;
#X connect 57 0 18 0;
#X connect 57 0 31 0;
#X connect 57 1 17 0;
#X connect 57 1 61 0;
#X connect 57 2 41 0;
#X connect 58 0 51 0;
#X connect 59 0 76 0;
#X connect 60 0 59 0;
#X connect 62 0 77 0;
#X connect 65 0 68 0;
#X connect 68 0 74 0;
#X connect 69 0 53 0;
#X connect 69 1 72 0;
#X connect 69 2 70 0;
#X connect 69 3 64 0;
#X connect 72 0 68 0;
#X connect 72 1 73 0;
#X connect 73 0 71 0;
#X connect 74 0 71 0;
#X connect 77 0 58 0;
#X connect 78 0 36 0;
#X connect 79 0 84 0;
#X connect 79 1 37 0;
#X connect 80 0 87 0;
#X connect 81 0 86 0;
#X connect 82 0 5 0;
#X connect 82 1 34 0;
#X connect 82 2 83 1;
#X connect 83 0 85 0;
#X connect 84 0 80 0;
#X connect 84 1 83 0;
#X connect 85 0 81 0;
#X connect 86 0 87 4;
#X connect 87 0 88 0;
#X connect 88 0 23 0;
#X connect 89 0 0 0;
#X connect 89 1 15 0;
#X connect 89 2 16 0;
#X connect 89 3 40 0;
#X connect 90 0 52 0;
#X coords 0 -1 1 1 190 70 1 100 100;
