#N canvas 0 50 902 498 16;
#X obj 330 132 ExportPatch;
#X text 143 137 1) cocher la case;
#X text 143 212 2) cliquer sur la scène à exporter;
#X text 42 19 ExportPatch permet d'exporter une scène sous forme de
patch statique (modules interconnectés avec des fils);
#X text 143 242 3) choisir un nom_de_patch.pd pour l'export;
#X text 54 278 ExportPatch inclut automatiquement les modules suivants
: PdRacks.settings \, PdRacks.transport \, PdRacks.midilearn \, PdRacks.morphing
\, PdRacks.midi et PdRacks.midi.devices;
#X text 52 368 Ajustements manuels à faire;
#X text 52 409 les connexions auxiliaires (SetModule) ne sont pas gérées.
Il faut recâbler à la main.;
