#N canvas 0 50 450 300 10;
#X obj 170 120 t l l;
#X obj 157 226 outlet;
#X obj 257 193 outlet;
#X obj 161 200 list append;
#X obj 159 175 t b;
#X obj 146 33 inlet;
#X obj 146 63 t b;
#X obj 141 93 list append \$2;
#X obj 151 146 route \$1;
#X connect 0 0 8 0;
#X connect 0 1 3 1;
#X connect 3 0 1 0;
#X connect 4 0 3 0;
#X connect 5 0 6 0;
#X connect 6 0 7 0;
#X connect 7 0 0 0;
#X connect 8 0 4 0;
#X connect 8 1 2 0;
