#N canvas 0 50 450 300 10;
#X obj 139 70 inlet;
#X obj 154 169 list append \$1;
#X obj 181 202 list append;
#X obj 191 258 symbol;
#X obj 191 280 outlet;
#X obj 139 92 route separator;
#X msg 191 236 \$1\$3\$2;
#X connect 0 0 5 0;
#X connect 1 0 2 0;
#X connect 2 0 6 0;
#X connect 3 0 4 0;
#X connect 5 0 1 1;
#X connect 5 1 1 0;
#X connect 6 0 3 0;
