#N canvas 0 50 545 520 10;
#X obj 22 27 inlet~;
#X obj 192 113 f;
#X msg 191 76 0;
#X obj 116 111 moses 0;
#X obj 194 51 del 1500;
#X msg 194 29 bang;
#X obj 89 28 inlet~;
#X obj 161 134 int;
#X obj 155 226 - 100;
#X msg 300 404 color \$1 -1;
#X msg 272 358 16;
#X msg 338 356 13;
#X obj 260 332 select 0 1;
#X msg 160 364 vis_size \$1 2;
#X obj 159 302 + 100;
#X obj 159 323 min 100;
#X msg 201 390 label \$1db;
#X obj 159 280 t f f f;
#X text 372 353 red for cliping;
#X obj 258 312 > -1;
#X msg 327 129 -100;
#X obj 38 72 env~ 8192 4096;
#X obj 148 442 s \$1-vu;
#X obj 157 179 speed_lim 30;
#X obj 416 37 loadbang;
#X obj 391 79 random 20;
#X obj 157 207 pipe f 1;
#X obj 161 156 change;
#X obj 159 343 max 1;
#X connect 0 0 21 0;
#X connect 1 0 3 1;
#X connect 2 0 3 1;
#X connect 3 1 1 0;
#X connect 3 1 5 0;
#X connect 3 1 7 0;
#X connect 4 0 2 0;
#X connect 5 0 4 0;
#X connect 6 0 21 0;
#X connect 7 0 27 0;
#X connect 8 0 17 0;
#X connect 9 0 22 0;
#X connect 10 0 9 0;
#X connect 11 0 9 0;
#X connect 12 0 10 0;
#X connect 12 1 11 0;
#X connect 13 0 22 0;
#X connect 14 0 15 0;
#X connect 15 0 28 0;
#X connect 16 0 22 0;
#X connect 17 0 14 0;
#X connect 17 1 16 0;
#X connect 17 2 19 0;
#X connect 19 0 12 0;
#X connect 20 0 17 0;
#X connect 21 0 3 0;
#X connect 23 0 26 0;
#X connect 24 0 25 0;
#X connect 25 0 26 1;
#X connect 26 0 8 0;
#X connect 27 0 23 0;
#X connect 28 0 13 0;
