#N canvas 2 61 1293 685 10;
#X obj 40 274 outlet;
#X obj 683 180 list trim;
#X obj 687 205 s RACK_ADMIN;
#N canvas 456 152 1288 691 gestion_presets_module 0;
#X obj 63 118 text size \$0-list-presets;
#X obj 272 531 text get \$0-list-presets;
#X msg 272 595 label \$1;
#X obj 14 143 s \$0-size;
#N canvas 388 378 386 286 \$0-presets 0;
#X obj 5 1 cnv 15 350 250 empty empty \$1 20 12 0 14 -233017 -66577
0;
#X obj 238 68 bng 40 250 50 0 \$0-ok empty empty 17 30 0 15 -4034 -1
-1;
#X obj 238 208 bng 40 250 50 0 \$0-cancel empty X 10 20 0 40 -4032
-1 -1;
#X obj 238 116 bng 40 250 50 0 \$0-save empty empty 2 30 0 15 -258113
-1 -1;
#X obj 166 35 vsl 150 25 1 0 0 0 \$2-presets \$2-presets-rcv Preset2
2 15 0 14 -232576 -232576 -1 0 1;
#X text 7 42 Que veux-tu faire avec;
#X text 318 40 ?;
#X text 53 218 ANNULER;
#X text 53 124 SAUVER LES REGLAGES COURANTS DANS CE PRESET, f 24;
#X obj 237 160 bng 40 250 50 0 \$0-save-as empty empty 2 30 0 15 -260097
-1 -1;
#X text 51 74 LE RAPPELER (ET PERDRE LES REGLAGES COURANTS), f 25
;
#X symbolatom 105 191 15 0 0 0 - #0-save-as-name-rcv #0-save-as-name
, f 15;
#X text 52 163 SAUVER LES REGLAGES COURANTS DANS UN NOUVEAU PRESET
, f 26;
#X restore 802 54 pd \$0-presets;
#X obj 276 561 list split 1;
#N canvas 0 50 640 532 parse/drip 0;
#X obj 81 27 inlet flush;
#X obj 254 25 inlet append;
#X obj 84 403 outlet;
#X obj 80 74 list append;
#X obj 79 205 route @;
#X obj 78 139 list split 1;
#X obj 157 264 list prepend;
#X obj 80 170 list trim;
#X obj 236 308 list;
#X obj 87 343 list append;
#X obj 75 300 t b b b;
#X obj 173 111 list append;
#X obj 176 88 delay 1;
#X obj 128 236 t b a;
#X obj 158 170 t b b;
#X obj 88 372 list trim;
#X obj 80 47 t b;
#X text 275 94 next;
#X connect 0 0 16 0;
#X connect 1 0 3 1;
#X connect 3 0 5 0;
#X connect 4 0 10 0;
#X connect 4 1 13 0;
#X connect 5 0 7 0;
#X connect 5 1 11 1;
#X connect 5 2 14 0;
#X connect 6 0 8 0;
#X connect 6 0 9 1;
#X connect 7 0 4 0;
#X connect 8 0 6 1;
#X connect 9 0 15 0;
#X connect 10 0 12 0;
#X connect 10 1 6 1;
#X connect 10 1 9 1;
#X connect 10 2 9 0;
#X connect 11 0 5 0;
#X connect 12 0 11 0;
#X connect 13 0 12 0;
#X connect 13 1 6 0;
#X connect 14 0 6 1;
#X connect 14 1 9 0;
#X connect 15 0 2 0;
#X connect 16 0 3 0;
#X restore 549 571 pd parse/drip;
#X obj 588 611 outlet;
#N canvas 1 56 1905 1025 roll_preset_list 0;
#X obj 204 307 outlet;
#X obj 241 31 t f b;
#X obj 206 249 int;
#X obj 204 151 moses;
#X obj 207 228 t f f;
#X obj 238 111 r \$0-size;
#X obj 152 127 moses 0;
#X obj 134 184 +;
#X msg 149 161 -0.1;
#X msg 236 190 0;
#X obj 171 98 + 0;
#X obj 200 279 change;
#X obj 286 158 + 1;
#X obj 238 1 r \$2-presets;
#X obj 321 83 s \$2-presets-rcv;
#X obj 241 61 - 0.9;
#X msg 323 60 set 0.9;
#X connect 1 0 15 0;
#X connect 1 1 16 0;
#X connect 2 0 11 0;
#X connect 3 0 4 0;
#X connect 3 1 9 0;
#X connect 4 0 2 0;
#X connect 4 1 10 1;
#X connect 5 0 7 1;
#X connect 5 0 12 0;
#X connect 6 0 8 0;
#X connect 6 1 3 0;
#X connect 7 0 4 0;
#X connect 8 0 7 0;
#X connect 9 0 4 0;
#X connect 10 0 6 0;
#X connect 11 0 0 0;
#X connect 12 0 3 1;
#X connect 13 0 1 0;
#X connect 15 0 10 0;
#X connect 16 0 14 0;
#X restore 341 355 pd roll_preset_list;
#X obj 613 267 s pd-\$0-presets;
#X obj 38 64 bng 15 250 50 0 empty empty empty 17 7 0 10 -262144 -1
-1;
#X obj 760 105 r \$0-ok;
#X obj 842 119 r \$0-cancel;
#X obj 761 154 t b b;
#X msg 819 176 vis 0;
#X text 812 26 popup;
#X obj 415 616 s \$0-preset-name;
#X msg 614 156 vis 1 \, vis 1;
#X obj 982 530 s \$0-save-as-name-rcv;
#X obj 986 476 makefilename Preset%d;
#X obj 987 433 + 1;
#X obj 990 397 r \$0-size;
#X msg 1007 506 set \$1;
#X obj 814 366 symbol;
#X obj 910 343 r \$0-save-as-name;
#X obj 810 342 r \$0-save-as;
#X obj 826 559 text set \$0-list-presets;
#X msg 877 526 1e+06;
#X obj 802 249 route local;
#X obj 771 300 u_collect;
#X msg 1001 61 savelocal;
#X obj 759 275 list append @;
#X msg 877 453 set \$1;
#X obj 703 646 s \$0-size;
#X obj 691 584 text size \$0-list-presets;
#X obj 696 545 delay 200;
#X obj 696 514 delay 100;
#X obj 701 324 r \$0-save;
#X obj 814 390 t s b;
#X obj 798 421 t b b s b;
#X obj 805 526 list;
#X obj 158 223 text define \$0-list-presets;
#X obj 157 20 loadbang;
#X obj 232 100 symbol \$1;
#X obj 109 55 t b b;
#X obj 495 16 symbol \$1;
#X obj 498 38 t b s;
#X obj 455 57 delay 100;
#X obj 452 108 s \$1_ADMIN;
#X obj 244 15 r \$1_ADMIN;
#X msg 451 83 refresh;
#X obj 244 49 route refresh;
#X obj 107 99 delay 100;
#X obj 444 4 bng 15 250 50 0 empty empty empty 17 7 0 10 -262144 -1
-1;
#X obj 90 12 bng 15 250 50 0 empty empty empty 17 7 0 10 -262144 -1
-1;
#X floatatom 103 154 5 0 0 0 - - -, f 5;
#X msg 239 165 write ../modules/presets/\$1.txt;
#X msg 168 195 clear \, read ../modules/presets/\$1.txt;
#X obj 686 374 symbol Preset1;
#X obj 615 130 delay 200;
#X text 911 249 fonctionne avec version modifiée de u_sssad, f 23
;
#X obj 143 389 moses 0;
#X obj 188 415 t b f;
#X obj 181 438 delay 40;
#X text 117 317 rappel du preset par son nom;
#X obj 140 365 text search \$0-list-presets;
#X obj 611 52 r \$2-presets;
#X obj 996 89 s \$2-SSSAD_ADMIN;
#X obj 802 226 r \$2-SSSAD_ADMIN;
#X msg 807 505 Preset3 vol 20.8163 @;
#X obj 720 474 s \$2-SSSAD_ADMIN;
#X msg 716 452 getValuesInto local;
#X obj 138 344 r \$2-preset-search;
#X obj 270 620 s \$2-presets-rcv;
#X obj 638 92 t b b;
#X connect 0 0 3 0;
#X connect 0 0 55 0;
#X connect 1 0 5 0;
#X connect 2 0 16 0;
#X connect 2 0 73 0;
#X connect 5 0 2 0;
#X connect 5 0 58 1;
#X connect 5 1 6 1;
#X connect 6 0 7 0;
#X connect 8 0 1 0;
#X connect 8 0 26 1;
#X connect 10 0 0 0;
#X connect 11 0 13 0;
#X connect 12 0 14 0;
#X connect 13 0 6 0;
#X connect 13 1 14 0;
#X connect 14 0 9 0;
#X connect 17 0 9 0;
#X connect 19 0 22 0;
#X connect 19 0 23 1;
#X connect 20 0 19 0;
#X connect 21 0 20 0;
#X connect 22 0 18 0;
#X connect 23 0 38 0;
#X connect 24 0 23 0;
#X connect 25 0 23 0;
#X connect 27 0 26 1;
#X connect 28 0 31 0;
#X connect 29 0 69 0;
#X connect 30 0 67 0;
#X connect 31 0 29 0;
#X connect 32 0 69 0;
#X connect 34 0 33 0;
#X connect 35 0 34 0;
#X connect 35 0 45 0;
#X connect 36 0 69 0;
#X connect 36 0 35 0;
#X connect 37 0 58 0;
#X connect 38 0 39 0;
#X connect 38 1 27 0;
#X connect 39 0 36 0;
#X connect 39 1 71 0;
#X connect 39 2 32 0;
#X connect 39 3 14 0;
#X connect 40 0 26 0;
#X connect 43 0 57 0;
#X connect 44 0 52 0;
#X connect 44 1 43 0;
#X connect 45 0 46 0;
#X connect 46 0 47 0;
#X connect 46 1 56 0;
#X connect 47 0 50 0;
#X connect 49 0 51 0;
#X connect 50 0 48 0;
#X connect 51 0 44 0;
#X connect 52 0 0 0;
#X connect 53 0 45 0;
#X connect 54 0 44 0;
#X connect 56 0 41 0;
#X connect 57 0 41 0;
#X connect 58 0 39 0;
#X connect 59 0 17 0;
#X connect 61 1 62 0;
#X connect 62 0 63 0;
#X connect 62 1 1 0;
#X connect 63 0 6 0;
#X connect 65 0 61 0;
#X connect 66 0 74 0;
#X connect 68 0 28 0;
#X connect 69 0 40 0;
#X connect 71 0 70 0;
#X connect 72 0 65 0;
#X connect 74 0 59 0;
#X connect 74 1 44 0;
#X restore 199 219 pd gestion_presets_module;
#X text 737 223 gestion des présets au niveau du type de module;
#X obj 676 123 route lastUsed;
#X obj 818 92 list prepend lastUsed;
#X msg 842 132 obj 0 0 r \$1 \, connect 1 0 0 0;
#X obj 841 155 s pd-\$0-receive;
#X obj 822 61 makefilename \$1-%d;
#N canvas 305 50 951 437 u_loader 0;
#X obj 150 196 list trim;
#X msg 150 328 setonly \$1;
#X obj 150 248 t a a;
#X obj 150 306 list;
#X obj 150 174 r RJ_SCENE_LOAD;
#X obj 151 144 s RJ_SCENE;
#X obj 475 98 r RJ_SCENE_SAVE;
#X msg 599 97 save;
#X obj 599 71 inlet;
#X obj 57 131 outlet;
#X text 35 94 Store presets;
#N canvas 228 198 627 317 LICENSE-BSD 0;
#X text 121 56 This software is copyrighted by Miller Puckette \, Reality
Jockey Ltd. and others. The terms (the "Standard Improved BSD License")
apply to all files associated with the software unless explicitly disclaimed
in individual files.;
#X text 123 148 See the file LICENSE.txt for the full license text.
;
#X restore 693 60 pd LICENSE-BSD;
#X obj 480 43 makefilename \$1-%d;
#X obj 151 54 r \$2-SSSAD_ADMIN;
#X obj 483 14 r \$2-ID;
#X obj 151 117 list prepend \$1-ID;
#X obj 150 222 route \$1-ID;
#X obj 182 270 s \$2-SSSAD;
#X obj 150 352 s \$2-SSSAD_ADMIN;
#X obj 475 214 s \$2-SSSAD_ADMIN;
#X obj 555 140 r \$2-busy;
#X obj 475 168 spigot 1;
#X obj 151 86 route persist target;
#X obj 341 138 list prepend \$1-ID;
#X obj 302 111 list split 1;
#X obj 300 202 list append;
#X obj 315 171 t b s;
#X obj 300 224 s;
#X connect 0 0 16 0;
#X connect 1 0 18 0;
#X connect 2 0 3 0;
#X connect 2 1 17 0;
#X connect 3 0 1 0;
#X connect 4 0 0 0;
#X connect 6 0 21 0;
#X connect 7 0 21 0;
#X connect 8 0 7 0;
#X connect 12 0 15 1;
#X connect 12 0 16 1;
#X connect 12 0 23 1;
#X connect 13 0 22 0;
#X connect 14 0 12 0;
#X connect 15 0 5 0;
#X connect 16 0 2 0;
#X connect 20 0 21 1;
#X connect 21 0 19 0;
#X connect 22 0 9 0;
#X connect 22 0 15 0;
#X connect 22 1 24 0;
#X connect 23 0 25 1;
#X connect 24 0 26 0;
#X connect 24 1 23 0;
#X connect 25 0 27 0;
#X connect 26 0 25 0;
#X connect 26 1 27 1;
#X restore 147 269 pd u_loader;
#X obj 825 32 r \$2-ID;
#X obj 676 150 list prepend;
#X obj 673 93 r \$2-RACK_ADMIN;
#N canvas 255 362 450 300 \$0-receive 0;
#X obj 4 47 outlet;
#X restore 89 28 pd \$0-receive \$1-ID;
#X obj 454 136 s control-\$2;
#N canvas 482 50 888 434 echanges_avec_GUI_(ON_FOCUS) 0;
#X obj 321 68 select 1;
#X msg 310 143 getValuesInto Remote;
#X obj 183 217 route Remote;
#X obj 122 161 spigot;
#X obj 131 266 list trim;
#X obj 287 41 t f f;
#X obj 319 114 delay 100;
#X obj 318 90 t b b b;
#X obj 313 320 list prepend nbInstances;
#X obj 315 290 v \$1-nbInstances;
#X obj 287 18 r \$2-hasFocus;
#X obj 291 165 s \$2-SSSAD_ADMIN;
#X obj 183 197 r \$2-SSSAD_ADMIN;
#X obj 63 88 r \$2-SSSAD;
#X obj 133 330 s REMOTE;
#X text 317 201 flush des valeurs des parametres lors du focus sur
l'objet;
#X text 295 -14 voir comment signaler ce focus;
#X obj 476 127 list prepend focus \$1 \$2;
#X obj 655 166 list append 0;
#X obj 716 33 r \$2-ID;
#X connect 0 0 7 0;
#X connect 1 0 11 0;
#X connect 2 0 14 0;
#X connect 3 0 4 0;
#X connect 4 0 14 0;
#X connect 5 0 3 1;
#X connect 5 1 0 0;
#X connect 6 0 1 0;
#X connect 7 0 6 0;
#X connect 7 1 9 0;
#X connect 7 2 17 0;
#X connect 8 0 4 0;
#X connect 9 0 8 0;
#X connect 10 0 5 0;
#X connect 12 0 2 0;
#X connect 13 0 3 0;
#X connect 17 0 18 0;
#X connect 18 0 4 0;
#X connect 19 0 18 1;
#X restore 146 314 pd echanges_avec_GUI_(ON_FOCUS);
#X text 867 240 revoir l'interface;
#X obj 103 164 u_dispatch \$2 slot;
#X text 464 116 global send (ne pas utiliser);
#N canvas 543 93 450 300 midi-ctl 0;
#X obj 59 49 inlet;
#X obj 85 128 t l l;
#X msg 146 158 symbol \$3-\$1-midi-ctl;
#X msg 91 169 \$2;
#X obj 72 200 send;
#X obj 142 17 r \$2-busy;
#X obj 59 106 list append \$2;
#X obj 60 79 spigot 1;
#X obj 152 241 bng 15 250 50 0 empty empty empty 17 7 0 10 -262144
-1 -1;
#X floatatom 173 222 5 0 0 0 - - -, f 5;
#X obj 386 41 vsl 15 128 0 127 0 0 empty empty empty 0 -9 0 10 -262144
-1 -1 0 1;
#X msg 376 180 \; CTLIN \$1 1 1;
#X connect 0 0 7 0;
#X connect 1 0 3 0;
#X connect 1 1 2 0;
#X connect 2 0 4 1;
#X connect 3 0 4 0;
#X connect 3 0 9 0;
#X connect 5 0 7 1;
#X connect 6 0 1 0;
#X connect 7 0 6 0;
#X connect 10 0 11 0;
#X restore 138 108 pd midi-ctl;
#N canvas 0 50 487 372 getNamePos 0;
#X obj 75 48 inlet;
#X obj 71 93 symbol;
#X obj 157 102 r \$2-slot;
#X obj 156 133 t f f;
#X obj 158 184 pack f f;
#X obj 149 158 div 10;
#X obj 206 160 mod 10;
#X obj 73 193 list append \$1;
#X obj 75 123 t b s;
#X obj 105 282 s;
#X msg 97 255 symbol \$1(\$2:\$3);
#X obj 86 231 list append # #;
#X connect 0 0 1 0;
#X connect 1 0 8 0;
#X connect 2 0 3 0;
#X connect 3 0 5 0;
#X connect 3 1 6 0;
#X connect 4 0 11 1;
#X connect 5 0 4 0;
#X connect 6 0 4 1;
#X connect 7 0 11 0;
#X connect 8 0 7 0;
#X connect 8 1 9 1;
#X connect 10 0 9 0;
#X connect 11 0 10 0;
#X restore 302 264 pd getNamePos;
#N canvas 0 50 450 300 getParams 0;
#X obj 93 40 inlet;
#X obj 105 104 list split 1;
#X obj 96 249 s;
#X obj 89 212 list append;
#X obj 88 151 t b l;
#X obj 90 234 list trim;
#X obj 85 174 list append getParams;
#X obj 88 129 list append \$2;
#X msg 183 217 symbol \$2-\$1-service;
#X connect 0 0 1 0;
#X connect 1 0 7 0;
#X connect 1 1 3 1;
#X connect 3 0 5 0;
#X connect 4 0 6 0;
#X connect 4 1 8 0;
#X connect 5 0 2 0;
#X connect 6 0 3 0;
#X connect 7 0 4 0;
#X connect 8 0 2 1;
#X restore 326 193 pd getParams;
#X obj 165 365 loadbang;
#X obj 165 515 + 1;
#X text 147 343 instantiation auto;
#X obj 166 545 v \$1-nbInstances;
#X obj 165 468 v \$1-nbInstances;
#X obj 196 513 s \$2-ID;
#X obj 165 491 t f f f;
#N canvas 1 56 560 403 affichage 0;
#X obj 208 84 inlet;
#X obj 228 142 select 0;
#X obj 228 163 delay 1000;
#X obj 226 185 v \$1-nbInstances;
#X obj 225 232 print \$1;
#X msg 225 208 \$1 instances présentes, f 13;
#X connect 0 0 1 0;
#X connect 1 0 2 0;
#X connect 2 0 3 0;
#X connect 3 0 5 0;
#X connect 5 0 4 0;
#X restore 266 492 pd affichage nb instances on loadbang;
#X obj 727 466 select 1 0;
#X msg 768 516 color 0 -1;
#X msg 805 484 color \$1 -1;
#X floatatom 814 463 5 0 0 0 - - -, f 5;
#X msg 758 546 color 44 -1;
#X obj 720 585 s \$2-background;
#X obj 727 358 r \$2-hasFocus;
#X obj 675 347 loadbang;
#N canvas 0 50 675 383 communication_avec_module_declare 0;
#X obj 42 16 loadbang;
#X obj 42 38 list append \$3;
#X text 198 134 <- pour éventuellement communiquer avec un "module_declare"
;
#X text 216 175 channels partagés avec module_declare;
#X text 211 214 slot busy hasFocus;
#X msg 96 100 1;
#X obj 84 211 spigot;
#X obj 82 162 r \$3-busy;
#X obj 84 233 s \$2-busy;
#X obj 84 321 spigot;
#X obj 84 343 s \$2-hasFocus;
#X obj 82 272 r \$3-hasFocus;
#X obj 93 135 s \$0-dollar3;
#X obj 123 185 r \$0-dollar3;
#X obj 123 295 r \$0-dollar3;
#X obj 244 311 spigot;
#X obj 283 285 r \$0-dollar3;
#X obj 242 262 r \$3-slot;
#X obj 243 365 s \$2-slot;
#X obj 424 311 spigot;
#X obj 463 285 r \$0-dollar3;
#X obj 422 262 r \$2-slot;
#X obj 414 377 s \$3-slot;
#X obj 244 333 spigot 1;
#X obj 389 339 t b a b;
#X msg 327 321 0;
#X msg 325 351 1;
#X obj 42 60 moses 1000;
#X text 139 62 si \$3 spécifié et > 1000 \, alors on ouvre un canal
de communication avec le module declare;
#X connect 0 0 1 0;
#X connect 1 0 27 0;
#X connect 5 0 12 0;
#X connect 6 0 8 0;
#X connect 7 0 6 0;
#X connect 9 0 10 0;
#X connect 11 0 9 0;
#X connect 13 0 6 1;
#X connect 14 0 9 1;
#X connect 15 0 23 0;
#X connect 16 0 15 1;
#X connect 17 0 15 0;
#X connect 19 0 24 0;
#X connect 20 0 19 1;
#X connect 21 0 19 0;
#X connect 23 0 18 0;
#X connect 24 0 26 0;
#X connect 24 1 22 0;
#X connect 24 2 25 0;
#X connect 25 0 23 1;
#X connect 26 0 23 1;
#X connect 27 1 5 0;
#X restore 326 536 pd communication_avec_module_declare;
#N canvas 0 50 450 300 hasFocus 0;
#X obj 44 30 inlet;
#X obj 23 171 s \$2-hasFocus;
#X obj 80 64 r \$0-dollar3;
#X obj 54 139 s \$3-hasFocus;
#X obj 24 90 list prepend 0;
#X obj 24 112 route 0 1;
#X text 112 203 cf [pd communication_avec_module_declare];
#X connect 0 0 4 0;
#X connect 2 0 4 1;
#X connect 4 0 5 0;
#X connect 5 0 1 0;
#X connect 5 1 3 0;
#X restore 224 97 pd hasFocus;
#N canvas 0 50 450 300 setFBChannel 0;
#X obj 93 40 inlet;
#X obj 105 104 list split 1;
#X obj 90 275 s;
#X obj 89 212 list append;
#X obj 88 151 t b l;
#X obj 90 234 list trim;
#X obj 88 129 list append \$2;
#X msg 183 217 symbol \$2-\$1-service;
#X obj 85 174 list append setFBchannel;
#X connect 0 0 1 0;
#X connect 1 0 6 0;
#X connect 1 1 3 1;
#X connect 3 0 5 0;
#X connect 4 0 8 0;
#X connect 4 1 7 0;
#X connect 5 0 2 0;
#X connect 6 0 4 0;
#X connect 7 0 2 1;
#X connect 8 0 3 0;
#X restore 366 167 pd setFBChannel;
#X text 388 218 demande transmise au midi-colors du paramètre concerné
pour obtenir les caractéristiques du mapping, f 27;
#X text 509 172 ouvertur d'un canal pour le feedback midi, f 18;
#X obj 168 410 select 0;
#X obj 487 433 - 1;
#X obj 487 455 s \$2-ID;
#X obj 168 388 list append \$3;
#X obj 503 410 moses 1000;
#X text 285 387 si 0<\$3<1000 \, il y a forçage du \$2-ID;
#X obj 574 438 t b;
#X msg 91 448 1;
#X obj 50 472 s \$2-busy;
#X obj 30 30 inlet;
#X obj 22 89 list split 1;
#X obj 19 113 select \$1;
#X obj 19 160 list append;
#X obj 19 182 list trim;
#X obj 28 56 route target;
#X obj 35 137 list prepend target;
#X msg 132 448 0;
#X obj 958 349 list append;
#X obj 973 392 s FOCUS;
#X text 1044 395 message global pour les instances ctl-assign3;
#X obj 124 53 route remote midi-ctl setFocus getNamePos getParams setFBchannel
getSssadChannel;
#N canvas 0 50 450 300 getSssadChannel 0;
#X obj 176 42 inlet;
#X obj 71 93 symbol;
#X obj 75 123 t b s;
#X obj 105 282 s;
#X obj 73 193 list append \$2-SSSAD;
#X connect 0 0 1 0;
#X connect 1 0 2 0;
#X connect 2 0 4 0;
#X connect 2 1 3 1;
#X connect 4 0 3 0;
#X restore 402 96 pd getSssadChannel;
#X obj 1153 264 s \$2-module_name;
#X obj 1152 203 r \$2-ID;
#X obj 1152 223 list prepend \$1;
#X msg 1152 245 symbol \$1-\$2;
#X obj 763 387 r \$2-ID;
#X obj 763 410 list prepend \$1;
#X msg 762 431 label \$1-\$2;
#X connect 1 0 2 0;
#X connect 3 0 0 0;
#X connect 5 0 12 0;
#X connect 6 0 12 1;
#X connect 7 0 8 0;
#X connect 9 0 6 0;
#X connect 9 0 7 0;
#X connect 9 0 61 1;
#X connect 11 0 9 0;
#X connect 12 0 1 0;
#X connect 13 0 5 0;
#X connect 14 0 64 0;
#X connect 18 0 0 0;
#X connect 23 0 47 0;
#X connect 24 0 26 0;
#X connect 27 0 29 0;
#X connect 29 0 24 0;
#X connect 29 1 28 0;
#X connect 29 2 30 0;
#X connect 31 0 35 0;
#X connect 31 0 61 0;
#X connect 31 1 32 0;
#X connect 32 0 36 0;
#X connect 33 0 36 0;
#X connect 34 0 33 0;
#X connect 35 0 36 0;
#X connect 37 0 31 0;
#X connect 38 0 32 0;
#X connect 44 0 27 0;
#X connect 44 0 51 0;
#X connect 44 1 48 0;
#X connect 45 0 46 0;
#X connect 47 0 44 0;
#X connect 48 0 45 0;
#X connect 48 0 51 0;
#X connect 48 1 50 0;
#X connect 50 0 27 0;
#X connect 50 0 60 0;
#X connect 51 0 52 0;
#X connect 53 0 58 0;
#X connect 54 0 55 0;
#X connect 54 1 56 1;
#X connect 55 0 56 0;
#X connect 55 1 59 0;
#X connect 56 0 57 0;
#X connect 57 0 0 0;
#X connect 58 0 54 0;
#X connect 58 1 0 0;
#X connect 59 0 56 0;
#X connect 60 0 52 0;
#X connect 61 0 62 0;
#X connect 64 0 18 0;
#X connect 64 1 20 0;
#X connect 64 2 40 0;
#X connect 64 3 21 0;
#X connect 64 4 22 0;
#X connect 64 5 41 0;
#X connect 64 6 65 0;
#X connect 64 7 15 0;
#X connect 67 0 68 0;
#X connect 68 0 69 0;
#X connect 69 0 66 0;
#X connect 70 0 71 0;
#X connect 71 0 72 0;
#X connect 72 0 36 0;
