#N canvas 0 50 957 591 10;
#X obj 38 138 r MORPH;
#X obj 116 -1 r MORPH-setA;
#X obj 219 -1 r MORPH-setB;
#X obj 115 65 f;
#X obj 209 68 f;
#X obj 39 540 s \$1-\$2;
#X obj 176 19 r \$1-\$2;
#X obj 38 514 expr $f1*$f3+(1-$f1)*$f2;
#X msg 71 214 1;
#X obj 79 239 &&;
#X msg 109 218 1;
#X obj 111 193 t b b;
#X obj 38 302 spigot;
#X obj 39 363 list prepend \$3;
#X obj 39 385 list trim;
#N canvas 0 50 462 312 rh_scalelog 0;
#X obj 20 155 exp;
#X obj 20 107 *;
#X obj 20 130 +;
#X obj 98 87 log;
#X obj 194 84 log;
#X obj 123 123 t b f;
#X obj 123 145 -;
#X obj 20 183 outlet;
#X obj 20 19 inlet;
#X obj 98 23 inlet;
#X obj 194 24 inlet;
#X connect 0 0 7 0;
#X connect 1 0 2 0;
#X connect 2 0 0 0;
#X connect 3 0 2 1;
#X connect 3 0 5 0;
#X connect 4 0 6 0;
#X connect 5 0 6 0;
#X connect 5 1 6 1;
#X connect 6 0 1 1;
#X connect 8 0 1 0;
#X connect 9 0 3 0;
#X connect 10 0 4 0;
#X restore 239 517 pd rh_scalelog;
#X obj 138 439 route lin log;
#X obj 37 412 route 0;
#X obj 348 284 r \$1-busy;
#X obj 39 334 spigot;
#X obj 139 283 &&;
#X obj 180 245 !=;
#X obj 203 142 t f b f;
#X obj 114 138 t f f;
#X obj 559 115 s \$1-\$2-morph_enable;
#X obj 556 62 loadbang;
#X msg 556 84 1;
#X obj 176 41 route float;
#X connect 0 0 12 0;
#X connect 1 0 3 0;
#X connect 2 0 4 0;
#X connect 3 0 23 0;
#X connect 4 0 22 0;
#X connect 6 0 27 0;
#X connect 7 0 5 0;
#X connect 8 0 9 0;
#X connect 9 0 20 0;
#X connect 10 0 9 1;
#X connect 11 0 9 0;
#X connect 11 1 10 0;
#X connect 12 0 19 0;
#X connect 13 0 14 0;
#X connect 14 0 17 0;
#X connect 15 0 5 0;
#X connect 16 0 7 0;
#X connect 16 1 15 0;
#X connect 17 0 7 0;
#X connect 17 1 16 0;
#X connect 18 0 19 1;
#X connect 19 0 13 0;
#X connect 20 0 12 1;
#X connect 21 0 20 1;
#X connect 22 0 7 2;
#X connect 22 0 11 0;
#X connect 22 0 15 2;
#X connect 22 1 21 0;
#X connect 22 2 21 1;
#X connect 23 0 7 1;
#X connect 23 0 8 0;
#X connect 23 0 15 1;
#X connect 23 1 21 0;
#X connect 25 0 26 0;
#X connect 26 0 24 0;
#X connect 27 0 3 1;
#X connect 27 0 4 1;
#X coords 0 591 1 590 190 70 0;
