#N canvas 0 50 450 300 10;
#X obj 83 178 param_bridge \$0 lpfreq;
#X text 42 42 forwards messages received on channel \$1-\$2 on its
outlet \, prepended with tag \$2;
#X msg 46 119 forwards inlet;
#X obj 292 131 s \$0-lpfreq;
#X floatatom 292 113 5 0 0 0 - - -, f 5;
#X obj 83 200 print output;
#X connect 0 0 5 0;
#X connect 2 0 0 0;
#X connect 4 0 3 0;
