#N struct 5976-symarray float x array symbols 5976-sym;
#N struct 5976-sym symbol name float on;
#N canvas 0 50 757 622 10;
#X declare -path ../rj;
#X declare -path ../;
#X declare -path ../core;
#X obj 58 30 declare -path ../rj;
#X obj 144 369 m_symbolarray;
#X obj 215 37 r RJ_SCENE_LOAD;
#X obj 214 106 list split 1;
#X obj 253 135 list split 2;
#X obj 233 287 list prepend;
#X obj 233 309 list trim;
#X obj 233 331 route slot;
#X obj 124 407 iemlib/splitfilename -;
#X obj 55 388 t f f f;
#X obj 72 420 mod 10;
#X obj -1 428 div 10;
#X obj 59 218 until;
#X msg 50 160 60;
#X obj 58 246 f;
#X obj 103 244 + 1;
#X obj 74 130 t b b;
#X msg 120 182 0;
#X obj 85 91 bng 15 250 50 0 empty empty empty 17 7 0 10 -262144 -1
-1;
#X obj 215 59 t a b b;
#X obj 355 75 delay 1000;
#X obj 484 43 spigot 1;
#X obj 484 65 t b b;
#X msg 530 79 0;
#X msg 419 234 reset;
#X obj 355 97 t b b;
#X msg 401 121 1;
#X obj 133 314 t f f b;
#X obj 99 526 pack f f s s;
#X obj 72 442 * 80;
#X obj -1 450 * 200;
#X msg 327 484 symbol;
#X obj 99 548 list prepend obj;
#X obj 99 570 list trim;
#X msg 449 274 clear;
#X obj 58 50 declare -path ../;
#X msg 154 462 symbol ../modules-static/\$1;
#X msg 314 447 symbol ../modules-static/fake;
#X obj 35 7 declare -path ../core;
#X obj 389 312 s pd-\$0-export;
#X obj 99 592 s pd-\$0-export;
#X connect 1 0 8 0;
#X connect 2 0 19 0;
#X connect 3 0 5 0;
#X connect 3 1 4 0;
#X connect 4 0 5 1;
#X connect 5 0 6 0;
#X connect 6 0 7 0;
#X connect 7 0 1 1;
#X connect 8 0 36 0;
#X connect 8 1 28 3;
#X connect 9 0 11 0;
#X connect 9 1 10 0;
#X connect 10 0 29 0;
#X connect 11 0 30 0;
#X connect 12 0 14 0;
#X connect 13 0 12 0;
#X connect 14 0 15 0;
#X connect 14 0 27 0;
#X connect 15 0 14 1;
#X connect 16 0 13 0;
#X connect 16 1 17 0;
#X connect 17 0 14 1;
#X connect 18 0 16 0;
#X connect 19 0 3 0;
#X connect 19 1 20 0;
#X connect 19 2 21 0;
#X connect 20 0 25 0;
#X connect 21 0 22 0;
#X connect 22 0 24 0;
#X connect 22 0 34 0;
#X connect 22 1 23 0;
#X connect 23 0 21 1;
#X connect 24 0 1 0;
#X connect 25 0 16 0;
#X connect 25 1 26 0;
#X connect 26 0 21 1;
#X connect 27 0 9 0;
#X connect 27 1 1 0;
#X connect 27 2 37 0;
#X connect 27 2 31 0;
#X connect 28 0 32 0;
#X connect 29 0 28 1;
#X connect 30 0 28 0;
#X connect 31 0 28 3;
#X connect 32 0 33 0;
#X connect 33 0 40 0;
#X connect 34 0 39 0;
#X connect 36 0 28 2;
#X connect 37 0 28 2;
