#N canvas 65 59 512 491 10;
#X obj 124 179 t f b;
#X obj 134 206 delay 100;
#X obj 123 230 f;
#X obj 139 359 int;
#X obj 123 292 select;
#X obj 138 388 t f f;
#X text 121 77 arrondi;
#X obj 125 113 r \$1-\$2;
#X obj 133 423 s \$1-\$2;
#X obj 150 329 + 0.5;
#X obj 255 147 inlet;
#X obj 122 144 spigot 1;
#X obj 74 262 moses 0;
#X obj 40 371 int;
#X obj 24 304 select;
#X obj 39 400 t f f;
#X obj 34 435 s \$1-\$2;
#X obj 51 341 - 0.5;
#X connect 0 0 2 1;
#X connect 0 1 1 0;
#X connect 1 0 2 0;
#X connect 2 0 12 0;
#X connect 3 0 5 0;
#X connect 4 1 9 0;
#X connect 5 0 8 0;
#X connect 5 1 4 1;
#X connect 7 0 11 0;
#X connect 9 0 3 0;
#X connect 10 0 11 1;
#X connect 11 0 0 0;
#X connect 12 0 14 0;
#X connect 12 1 4 0;
#X connect 13 0 15 0;
#X connect 14 1 17 0;
#X connect 15 0 16 0;
#X connect 15 1 14 1;
#X connect 17 0 13 0;
#X coords 0 491 1 490 190 70 0;
