#N canvas 203 56 625 417 10;
#X obj 143 121 ifft~;
#X obj 396 30 inlet;
#X obj 258 319 table \$0-harmonics 256;
#X obj 396 56 route sinesum;
#X obj 396 78 list split 1;
#X obj 437 131 s \$0-harmonics;
#X obj 154 65 tabreceive~ \$0-harmonics;
#X obj 435 105 list prepend 1;
#X obj 359 109 t b l;
#X obj 289 217 tabwrite~ \$1;
#X obj 71 253 block~ \$2;
#X connect 0 1 9 0;
#X connect 1 0 3 0;
#X connect 3 0 4 0;
#X connect 4 1 8 0;
#X connect 6 0 0 0;
#X connect 7 0 5 0;
#X connect 8 0 9 0;
#X connect 8 1 7 0;
