#N canvas 555 52 742 515 10;
#X obj 51 8 inlet;
#X obj 260 474 outlet;
#X obj 191 240 readsf~ 2;
#X obj 53 34 route read;
#X obj 179 114 list;
#X obj 220 295 tabwrite~;
#X msg 188 266 set \$1;
#X obj 61 85 route -resize -skip -raw -maxsize;
#X obj 356 301 iemlib/soundfile_info;
#X msg 354 272 read \$1;
#X obj 359 332 unpack f s f f f f s;
#X obj 260 448 f;
#X obj 489 438 outlet;
#X text 288 129 Right outlet outputs info as a list: samplerate \,
headersize \, num channels \, bytespersample \, & endianness ("b" or
"l").;
#X text 475 188 \$1 \$4 \$5 \$6 \$7;
#X obj 490 402 pack f f f f s;
#X obj 53 56 list trim;
#X obj 454 78 soundfiler;
#X msg 453 48 read -maxsize 1 \$1 \$2-l \$2-r;
#X obj 179 136 t l l;
#X obj 314 25 list append \$0-tab;
#X msg 221 157 \$1;
#X obj 530 213 table \$0-tab-l;
#X obj 530 233 table \$0-tab-r;
#X obj 629 441 outlet;
#X msg 214 410 stop;
#X obj 257 335 t b b b;
#X obj 66 492 *;
#X obj 175 469 samplerate~;
#N canvas 0 50 450 375 oversample 0;
#X obj 191 240 readsf~ 2;
#X obj 133 306 tabwrite~;
#X obj 77 145 unpack s s s;
#X obj 220 295 tabwrite~;
#X msg 128 266 set \$1;
#X msg 188 266 set \$1;
#X msg 64 196 open \$1;
#X obj 32 221 delay 1;
#X obj 34 266 t b b b;
#X msg 81 346 1;
#X msg 36 294 1;
#X msg 133 344 0;
#X obj 77 370 switch~ 1024 1 64;
#X obj 62 170 t b s s;
#X msg 72 396 0 \, 640 10000;
#X obj 67 445 snapshot~;
#X obj 257 335 t b b b;
#X obj 67 423 vline~;
#X obj 80 97 inlet;
#X obj 67 467 outlet;
#X connect 0 0 1 0;
#X connect 0 1 3 0;
#X connect 0 2 16 0;
#X connect 2 0 13 0;
#X connect 2 1 4 0;
#X connect 2 2 5 0;
#X connect 4 0 1 0;
#X connect 5 0 3 0;
#X connect 6 0 0 0;
#X connect 7 0 8 0;
#X connect 8 0 10 0;
#X connect 8 1 14 0;
#X connect 8 2 9 0;
#X connect 8 2 1 0;
#X connect 8 2 3 0;
#X connect 9 0 12 0;
#X connect 10 0 0 0;
#X connect 11 0 12 0;
#X connect 13 0 7 0;
#X connect 13 1 6 0;
#X connect 14 0 17 0;
#X connect 15 0 19 0;
#X connect 16 1 11 0;
#X connect 16 2 15 0;
#X connect 17 0 15 0;
#X connect 18 0 2 0;
#X restore 277 221 pd oversample;
#X connect 0 0 3 0;
#X connect 2 1 5 0;
#X connect 2 2 26 0;
#X connect 3 0 16 0;
#X connect 4 0 19 0;
#X connect 6 0 5 0;
#X connect 7 0 4 0;
#X connect 7 4 4 0;
#X connect 8 0 10 0;
#X connect 9 0 8 0;
#X connect 10 0 15 0;
#X connect 10 2 11 1;
#X connect 10 3 15 1;
#X connect 10 4 15 2;
#X connect 10 5 15 3;
#X connect 10 6 15 4;
#X connect 11 0 1 0;
#X connect 15 0 12 0;
#X connect 16 0 7 0;
#X connect 17 1 24 0;
#X connect 18 0 17 0;
#X connect 19 1 21 0;
#X connect 20 0 18 0;
#X connect 21 0 20 0;
#X connect 26 0 11 0;
