#N canvas 363 109 742 515 10;
#X obj 51 8 inlet;
#X obj 260 474 outlet;
#X obj 53 34 route read;
#X obj 179 114 list;
#X obj 61 85 route -resize -skip -raw -maxsize;
#X msg 273 309 read \$1;
#X obj 278 369 unpack f s f f f f s;
#X text 288 129 Right outlet outputs info as a list: samplerate \,
headersize \, num channels \, bytespersample \, & endianness ("b" or
"l").;
#X text 475 188 \$1 \$4 \$5 \$6 \$7;
#X obj 53 56 list trim;
#X obj 290 263 soundfiler;
#X msg 289 233 read -maxsize 1 \$1 \$2-l \$2-r;
#X obj 283 210 list append \$0-tab;
#X msg 247 178 \$1;
#X obj 530 213 table \$0-tab-l;
#X obj 530 233 table \$0-tab-r;
#X obj 629 441 outlet;
#X obj 118 372 *;
#X obj 150 305 samplerate~;
#N canvas 0 50 808 602 oversample 0;
#X obj 191 240 readsf~ 2;
#X obj 133 306 tabwrite~;
#X obj 220 295 tabwrite~;
#X msg 128 266 set \$1;
#X msg 188 266 set \$1;
#X msg 64 196 open \$1;
#X obj 32 221 delay 1;
#X obj 34 266 t b b b;
#X msg 81 346 1;
#X msg 36 294 1;
#X msg 133 344 0;
#X obj 62 170 t b s s;
#X obj 222 331 t b b b;
#X obj 80 97 inlet;
#X obj 67 467 outlet;
#X obj 77 370 switch~ 1024 1 64;
#X obj 223 467 outlet;
#X obj 389 174 array size;
#X obj 371 68 t b s;
#X obj 470 289 samplerate~;
#X obj 470 262 r pd-dsp-started;
#X obj 490 229 loadbang;
#X obj 386 292 * 1000;
#X obj 385 373 delay;
#X msg 320 346 stop;
#X obj 389 403 f;
#X obj 440 501 array size;
#X obj 350 501 array size;
#X obj 77 145 unpack s s s, f 16;
#X obj 389 196 t f f f;
#X obj 408 425 + 0;
#X obj 430 452 t f f f f f;
#X obj 386 314 * 0.9;
#X obj 386 248 / 2.822e+06;
#X text 357 40 autoresize;
#X connect 0 0 1 0;
#X connect 0 1 2 0;
#X connect 0 2 12 0;
#X connect 3 0 1 0;
#X connect 4 0 2 0;
#X connect 5 0 0 0;
#X connect 6 0 7 0;
#X connect 7 0 9 0;
#X connect 7 1 14 0;
#X connect 7 2 8 0;
#X connect 7 2 1 0;
#X connect 7 2 2 0;
#X connect 8 0 15 0;
#X connect 9 0 0 0;
#X connect 10 0 15 0;
#X connect 11 0 6 0;
#X connect 11 1 5 0;
#X connect 12 1 10 0;
#X connect 12 1 16 0;
#X connect 12 2 24 0;
#X connect 13 0 28 0;
#X connect 17 0 29 0;
#X connect 18 0 17 0;
#X connect 18 1 17 1;
#X connect 18 1 26 1;
#X connect 19 0 33 1;
#X connect 20 0 19 0;
#X connect 21 0 19 0;
#X connect 22 0 32 0;
#X connect 23 0 25 0;
#X connect 24 0 23 0;
#X connect 25 0 30 0;
#X connect 28 0 11 0;
#X connect 28 1 3 0;
#X connect 28 1 27 1;
#X connect 28 2 4 0;
#X connect 29 0 33 0;
#X connect 29 1 25 1;
#X connect 29 2 30 1;
#X connect 30 0 31 0;
#X connect 31 0 27 0;
#X connect 31 1 26 0;
#X connect 31 2 25 1;
#X connect 31 3 33 0;
#X connect 32 0 23 0;
#X connect 33 0 22 0;
#X restore 120 192 pd oversample;
#X obj 120 214 timer;
#X obj 120 236 * 64;
#X obj 120 258 * 0.001;
#X obj 120 280 t f b;
#X obj 120 437 spigot 1;
#X msg 176 399 1;
#X obj 241 407 t b f;
#X msg 241 429 0;
#X obj 179 136 t l l l b;
#X text 375 339 iemlib;
#X obj 275 338 soundfile_info;
#X connect 0 0 2 0;
#X connect 2 0 9 0;
#X connect 3 0 28 0;
#X connect 4 0 3 0;
#X connect 4 4 3 0;
#X connect 5 0 30 0;
#X connect 6 2 26 0;
#X connect 9 0 4 0;
#X connect 10 1 16 0;
#X connect 11 0 10 0;
#X connect 12 0 11 0;
#X connect 13 0 12 0;
#X connect 17 0 24 0;
#X connect 18 0 17 1;
#X connect 19 0 20 0;
#X connect 19 1 20 1;
#X connect 20 0 21 0;
#X connect 21 0 22 0;
#X connect 22 0 23 0;
#X connect 23 0 17 0;
#X connect 23 1 18 0;
#X connect 24 0 1 0;
#X connect 25 0 24 1;
#X connect 26 0 27 0;
#X connect 26 1 1 0;
#X connect 27 0 24 1;
#X connect 28 0 19 0;
#X connect 28 1 5 0;
#X connect 28 2 13 0;
#X connect 28 3 25 0;
#X connect 30 0 6 0;
