#N canvas 53 207 450 300 10;
#X obj 91 12 inlet;
#X obj 87 105 t b b a;
#X obj 83 278 list append;
#X obj 83 307 list trim;
#X msg 129 200 1;
#X msg 57 177 0;
#X obj 83 332 outlet;
#X obj 191 16 r SPEED_LIM;
#X obj 187 54 == 0;
#X obj 286 29 r SPEED_LIM;
#X obj 281 98 select 0;
#X obj 33 226 change;
#X obj 89 59 spigot 1;
#X obj 163 87 spigot 0;
#X obj 354 52 loadbang;
#X obj 354 74 f \$1;
#X obj 55 145 delay 150;
#X msg 208 130 150;
#X obj 83 249 metro 150;
#X connect 0 0 12 0;
#X connect 0 0 13 0;
#X connect 1 0 16 0;
#X connect 1 1 4 0;
#X connect 1 2 2 1;
#X connect 2 0 3 0;
#X connect 3 0 6 0;
#X connect 4 0 11 0;
#X connect 5 0 11 0;
#X connect 7 0 8 0;
#X connect 7 0 12 1;
#X connect 8 0 13 1;
#X connect 9 0 10 0;
#X connect 10 0 17 0;
#X connect 10 1 16 1;
#X connect 10 1 18 1;
#X connect 11 0 18 0;
#X connect 12 0 1 0;
#X connect 13 0 6 0;
#X connect 14 0 15 0;
#X connect 15 0 10 0;
#X connect 16 0 5 0;
#X connect 17 0 16 1;
#X connect 17 0 18 1;
#X connect 18 0 2 0;
