#N canvas 609 53 678 580 10;
#X obj 250 136 list fromsymbol;
#X obj 332 201 list length;
#X obj 161 305 list split;
#X obj 139 261 list append;
#X obj 269 203 f;
#X obj 193 325 list split 1;
#X obj 271 227 - 1;
#X obj 250 158 t b l l;
#X obj 241 272 +;
#X obj 161 189 t b b;
#X msg 348 167 0;
#X obj 392 448 list append;
#X obj 196 390 t b b;
#X obj 131 470 list tosymbol;
#X obj 392 470 list tosymbol;
#X obj 282 405 t b;
#X obj 107 405 spigot;
#X obj 110 431 t l b;
#X msg 177 411 1;
#X msg 191 440 0;
#X obj 382 314 list fromsymbol;
#X obj 382 336 unpack f f;
#X obj 196 368 select;
#X obj 382 292 list append '\$1;
#X obj 385 259 loadbang;
#X obj 54 52 inlet;
#X obj 54 74 route separator;
#X obj 254 72 symbol;
#X obj 254 94 t s b;
#X obj 47 136 list;
#X msg 47 158 symbol '\$1;
#X obj 106 524 outlet;
#X obj 392 492 outlet;
#X text 228 24 vanilia implementation of iemlib/splifilename;
#X connect 0 0 7 0;
#X connect 1 0 8 1;
#X connect 2 0 16 0;
#X connect 2 1 5 0;
#X connect 3 0 2 0;
#X connect 4 0 6 0;
#X connect 5 0 22 0;
#X connect 5 1 11 1;
#X connect 6 0 4 1;
#X connect 6 0 8 0;
#X connect 7 0 9 0;
#X connect 7 1 3 1;
#X connect 7 2 1 0;
#X connect 8 0 2 1;
#X connect 9 0 3 0;
#X connect 9 1 4 0;
#X connect 10 0 4 1;
#X connect 11 0 14 0;
#X connect 12 0 18 0;
#X connect 12 1 11 0;
#X connect 13 0 31 0;
#X connect 14 0 32 0;
#X connect 15 0 9 0;
#X connect 16 0 17 0;
#X connect 17 0 13 0;
#X connect 17 1 19 0;
#X connect 18 0 16 1;
#X connect 19 0 16 1;
#X connect 20 0 21 0;
#X connect 21 1 22 1;
#X connect 22 0 12 0;
#X connect 22 1 15 0;
#X connect 23 0 20 0;
#X connect 24 0 23 0;
#X connect 25 0 26 0;
#X connect 26 0 29 0;
#X connect 26 1 27 0;
#X connect 27 0 28 0;
#X connect 28 0 0 0;
#X connect 28 1 10 0;
#X connect 29 0 30 0;
#X connect 30 0 20 0;
