#N canvas 803 50 621 608 10;
#X obj 108 117 route addCursor removeCursor updateCursor;
#X obj 119 81 inlet;
#X obj 99 171 unpack f f f f;
#X obj 133 202 * 1024;
#X obj 203 198 * 768;
#X obj 137 271 / 200;
#X obj 203 272 / 80;
#X obj 137 293 int;
#X obj 203 294 int;
#X obj 138 439 * 10;
#X obj 138 461 +;
#X obj 137 487 tabread SLOTS_MAP;
#X obj 94 561 s;
#X msg 201 556 symbol \$1-channel;
#X obj 259 171 unpack f f f f;
#X obj 297 199 * 1024;
#X obj 363 198 * 768;
#X obj 297 301 pack f f;
#X msg 419 491 mouse mouseup \$1 \$2 0;
#X obj 294 246 -;
#X obj 363 242 -;
#X obj 67 243 t f f;
#X obj 175 245 t f f;
#X obj 35 460 -;
#X obj 88 460 -;
#X obj 35 482 pack f f;
#X obj 503 445 list append;
#X obj 457 171 t b;
#X obj 186 439 + 0;
#X obj 202 223 - 40;
#X obj 363 220 - 40;
#X obj 86 331 * 200;
#X obj 215 331 * 80;
#X msg 10 524 mouse mouse \$1 \$2 0 0 0;
#X msg 230 454 mouse motion \$1 \$2 0;
#X obj 86 368 * 0;
#X obj 185 370 * 0;
#X connect 0 0 2 0;
#X connect 0 1 27 0;
#X connect 0 2 14 0;
#X connect 1 0 0 0;
#X connect 2 2 3 0;
#X connect 2 3 4 0;
#X connect 3 0 21 0;
#X connect 4 0 29 0;
#X connect 5 0 7 0;
#X connect 6 0 8 0;
#X connect 7 0 9 0;
#X connect 7 0 31 0;
#X connect 8 0 28 0;
#X connect 8 0 32 0;
#X connect 9 0 10 0;
#X connect 10 0 11 0;
#X connect 11 0 13 0;
#X connect 13 0 12 1;
#X connect 14 2 15 0;
#X connect 14 3 16 0;
#X connect 15 0 19 0;
#X connect 16 0 30 0;
#X connect 17 0 34 0;
#X connect 17 0 26 1;
#X connect 18 0 12 0;
#X connect 19 0 17 0;
#X connect 20 0 17 1;
#X connect 21 0 23 0;
#X connect 21 1 5 0;
#X connect 22 0 24 0;
#X connect 22 1 6 0;
#X connect 23 0 25 0;
#X connect 24 0 25 1;
#X connect 25 0 33 0;
#X connect 25 0 26 1;
#X connect 26 0 18 0;
#X connect 27 0 26 0;
#X connect 28 0 10 1;
#X connect 29 0 22 0;
#X connect 30 0 20 0;
#X connect 31 0 35 0;
#X connect 32 0 36 0;
#X connect 33 0 12 0;
#X connect 34 0 12 0;
#X connect 35 0 23 1;
#X connect 35 0 19 1;
#X connect 36 0 20 1;
#X connect 36 0 24 1;
