#N canvas 0 50 734 413 10;
#X obj 121 60 inlet;
#X obj 350 13 r RJ_SCENE_SAVE;
#X obj 371 294 s RJ_SCENE;
#X obj 354 110 list append;
#X obj 362 49 route save;
#X obj 397 84 t b;
#X obj 366 151 unpack f f;
#X obj 376 208 pack f f;
#X obj 371 267 list prepend OBJ obj;
#X obj 104 140 list prepend \$1;
#X msg 105 179 \$1-\$2-\$3;
#X obj 399 230 list append \$1;
#X obj 371 181 * \$3;
#X obj 431 181 * \$4;
#X obj 99 238 outlet;
#X text 73 12 declare -stdpath extra/rj/;
#X connect 0 0 9 0;
#X connect 1 0 4 0;
#X connect 3 0 6 0;
#X connect 4 0 5 0;
#X connect 5 0 3 0;
#X connect 6 0 12 0;
#X connect 6 1 13 0;
#X connect 7 0 11 0;
#X connect 8 0 2 0;
#X connect 9 0 10 0;
#X connect 10 0 14 0;
#X connect 11 0 8 0;
#X connect 12 0 7 0;
#X connect 13 0 7 1;
