#N canvas 274 64 1060 494 10;
#X obj 489 316 list append;
#X obj 449 27 r \$2-\$1, f 8;
#X obj 234 253 s \$0-label;
#X obj 119 100 cnv 15 280 20 empty \$0-label MPKmini2 20 12 0 14 -233017
-66577 0;
#X msg 285 208 label \$1;
#X msg 189 207 label empty;
#X obj 292 180 symbol;
#X obj 69 169 r \$1-global;
#X obj 69 213 t b b;
#X obj 100 100 tgl 20 0 empty empty empty 17 7 0 10 -262144 -1 -1 0
1;
#X obj 69 191 route clear enumerate;
#X obj 124 280 spigot;
#X obj 124 302 t b;
#X obj 501 376 s \$1-feedback;
#X obj 252 386 s \$1-global;
#X msg 256 361 enumerate;
#X obj 268 324 t b b;
#X msg 423 333 clear;
#X obj 476 194 t b;
#X obj 476 216 f \$2;
#X obj 52 148 t b f;
#X obj 333 103 hradio 15 1 0 4 empty empty 1_2_3_4 2 8 0 13 -128992
-262144 -1 0;
#X obj 420 251 delay;
#X msg 330 278 1;
#N canvas 0 50 700 620 substitution_espace 0;
#X obj 156 43 inlet;
#X obj 235 566 outlet;
#X obj 285 492 s pd;
#X obj 275 236 list fromsymbol;
#X obj 230 313 list split 1;
#X obj 225 277 list;
#X obj 234 404 select 32;
#X msg 234 426 95;
#X obj 233 464 list append;
#X obj 233 486 list;
#X obj 244 47 bng 15 250 50 0 empty empty empty 17 7 0 10 -262144 -1
-1;
#X obj 233 508 list tosymbol;
#X obj 239 535 list append;
#X obj 244 96 t b s b;
#X connect 0 0 13 0;
#X connect 3 0 4 0;
#X connect 4 0 6 0;
#X connect 4 1 5 0;
#X connect 5 0 4 0;
#X connect 6 0 7 0;
#X connect 6 1 8 0;
#X connect 7 0 8 0;
#X connect 8 0 9 0;
#X connect 9 0 8 1;
#X connect 9 0 11 0;
#X connect 10 0 13 0;
#X connect 11 0 12 1;
#X connect 12 0 1 0;
#X connect 13 0 12 0;
#X connect 13 1 3 0;
#X connect 13 2 8 1;
#X restore 465 93 pd substitution_espace;
#X obj 451 65 symbol;
#X obj 645 206 select symbol;
#X obj 724 143 unpack s f;
#X obj 706 241 f;
#X msg 771 94 0;
#X msg 578 33 set 0;
#X obj 664 344 list append;
#X obj 665 381 s \$1-save_device;
#X obj 724 39 r \$1-recall_device;
#X obj 616 322 f;
#X obj 371 204 t b f f;
#X obj 724 61 t l b b;
#X msg 849 266 stop;
#X obj 878 156 delay 100;
#X obj 645 228 delay 10;
#X msg 619 409 symbol;
#X obj 492 441 route symbol;
#X obj 469 408 r \$1-receive;
#X connect 0 0 13 0;
#X connect 1 0 25 0;
#X connect 4 0 2 0;
#X connect 5 0 2 0;
#X connect 6 0 4 0;
#X connect 6 0 41 1;
#X connect 7 0 10 0;
#X connect 8 0 5 0;
#X connect 8 0 40 0;
#X connect 8 1 0 1;
#X connect 9 0 20 0;
#X connect 10 0 8 0;
#X connect 10 1 11 0;
#X connect 11 0 12 0;
#X connect 12 0 22 0;
#X connect 15 0 14 0;
#X connect 16 0 15 0;
#X connect 16 1 17 0;
#X connect 17 0 13 0;
#X connect 18 0 19 0;
#X connect 19 0 0 1;
#X connect 20 0 16 0;
#X connect 20 1 11 1;
#X connect 21 0 35 0;
#X connect 22 0 0 0;
#X connect 22 0 34 0;
#X connect 23 0 9 0;
#X connect 24 0 18 0;
#X connect 24 0 6 0;
#X connect 24 0 26 1;
#X connect 24 0 31 1;
#X connect 25 0 24 0;
#X connect 26 0 28 0;
#X connect 26 0 39 0;
#X connect 27 0 26 0;
#X connect 27 1 28 1;
#X connect 28 0 21 0;
#X connect 29 0 11 1;
#X connect 30 0 9 0;
#X connect 31 0 32 0;
#X connect 33 0 36 0;
#X connect 34 0 31 0;
#X connect 35 0 23 0;
#X connect 35 1 22 1;
#X connect 35 2 34 1;
#X connect 36 0 27 0;
#X connect 36 1 29 0;
#X connect 36 2 38 0;
#X connect 37 0 38 0;
#X connect 38 0 30 0;
#X connect 39 0 37 0;
#X connect 40 0 41 1;
#X connect 41 0 21 0;
#X connect 42 0 41 0;
#X coords 0 -1 1 1 300 20 1 100 100;
