#N canvas 158 56 1108 685 10;
#X obj 85 53 inlet;
#X obj 88 133 list trim;
#X obj 88 155 route list;
#X obj 134 269 list split 1;
#X obj 250 267 list split 1;
#X obj 240 405 list prepend low_key;
#X obj 368 454 list prepend high_key;
#X obj 237 557 outlet;
#X obj 174 298 route bang;
#X obj 304 298 route bang;
#X obj 33 243 spigot;
#X msg 173 230 1;
#X msg 197 450 EOM;
#X msg 260 227 0;
#X text 333 153 EOM = End Of Mapping;
#X obj 23 283 unpack f f;
#X obj 23 305 t f f;
#X obj 23 387 list prepend;
#X obj 23 424 list append;
#X obj 23 446 route 1 0;
#X text 63 469 si la note entrante ne satisfait pas le test \, faire
suivre à la cellule suivante;
#X msg 546 166 open file_not_found.wav;
#X obj 370 237 list split 1;
#X obj 404 298 route bang;
#X obj 469 350 list prepend filename;
#X obj 427 514 list prepend;
#X obj 418 560 t s s;
#X obj 428 593 select symbol;
#X msg 426 533 symbol \$1/\$2;
#X obj 570 237 list split 1;
#X obj 604 298 route bang;
#X obj 669 350 list prepend root_key;
#X obj 34 521 unpack f f;
#X obj 115 559 -;
#X obj 115 585 mtof;
#X obj 114 606 / 8.1758;
#X obj 511 40 r \$1-path;
#X obj 25 561 t b f f;
#X obj 69 673 pack f f;
#X obj 24 616 f;
#X obj 24 638 select 0;
#X obj 28 697 list append;
#X msg 25 720 \$1 remove;
#X obj 118 697 list append;
#X msg 124 719 \$2 \$1 \$3;
#X obj 385 101 tgl 15 0 empty empty empty 17 7 0 10 -262144 -1 -1 0
1;
#X obj 370 101 bng 15 250 50 0 empty empty empty 17 7 0 10 -262144
-1 -1;
#X obj 55 348 expr ($f1>=$f2)&&($f1<($f3+1));
#X obj 568 65 symbol;
#X msg 569 113 \$1/\$2;
#X obj 890 237 list split 1;
#X obj 924 298 route bang;
#X obj 989 350 list prepend transpose;
#X obj 114 628 list prepend 1;
#X obj 114 650 route 1;
#X msg 193 664 1;
#X obj 320 101 tgl 15 0 empty empty last 17 7 0 10 -262144 -1 -1 0
1;
#X obj 294 56 list split 1;
#X obj 35 790 s \$1-u_mapped_samplelist_output;
#X obj 454 655 symbol;
#X obj 155 183 route low_key high_key EOM filename root_key transpose
;
#X obj 127 744 list append <filename>;
#X obj 569 89 list prepend ../../medias/sounds/soundfonts;
#X connect 0 0 1 0;
#X connect 1 0 2 0;
#X connect 2 0 10 0;
#X connect 2 1 60 0;
#X connect 3 0 47 1;
#X connect 3 1 8 0;
#X connect 4 0 47 2;
#X connect 4 1 9 0;
#X connect 5 0 7 0;
#X connect 6 0 7 0;
#X connect 8 0 12 0;
#X connect 8 1 5 0;
#X connect 9 0 12 0;
#X connect 9 1 6 0;
#X connect 10 0 15 0;
#X connect 11 0 10 1;
#X connect 11 0 45 0;
#X connect 12 0 7 0;
#X connect 13 0 10 1;
#X connect 13 0 45 0;
#X connect 15 0 16 0;
#X connect 15 1 18 1;
#X connect 16 0 17 0;
#X connect 16 1 47 0;
#X connect 17 0 18 0;
#X connect 18 0 19 0;
#X connect 19 0 46 0;
#X connect 19 0 32 0;
#X connect 19 1 7 0;
#X connect 22 0 25 0;
#X connect 22 1 23 0;
#X connect 23 1 24 0;
#X connect 24 0 7 0;
#X connect 25 0 28 0;
#X connect 26 0 27 1;
#X connect 26 1 27 0;
#X connect 27 1 59 0;
#X connect 28 0 26 0;
#X connect 29 0 33 1;
#X connect 29 1 30 0;
#X connect 30 1 31 0;
#X connect 31 0 7 0;
#X connect 32 0 37 0;
#X connect 32 1 39 1;
#X connect 33 0 34 0;
#X connect 34 0 35 0;
#X connect 35 0 53 0;
#X connect 36 0 48 0;
#X connect 37 0 39 0;
#X connect 37 1 38 0;
#X connect 37 2 33 0;
#X connect 38 0 41 1;
#X connect 38 0 43 1;
#X connect 39 0 40 0;
#X connect 40 0 41 0;
#X connect 40 1 43 0;
#X connect 41 0 42 0;
#X connect 42 0 58 0;
#X connect 43 0 44 0;
#X connect 44 0 61 0;
#X connect 47 0 17 1;
#X connect 47 0 56 0;
#X connect 48 0 62 0;
#X connect 49 0 25 1;
#X connect 50 0 53 1;
#X connect 50 1 51 0;
#X connect 51 1 52 0;
#X connect 52 0 7 0;
#X connect 53 0 54 0;
#X connect 54 0 38 1;
#X connect 54 1 55 0;
#X connect 55 0 38 1;
#X connect 59 0 61 1;
#X connect 60 0 3 0;
#X connect 60 0 11 0;
#X connect 60 1 4 0;
#X connect 60 2 13 0;
#X connect 60 2 12 0;
#X connect 60 3 22 0;
#X connect 60 4 29 0;
#X connect 60 5 50 0;
#X connect 61 0 58 0;
#X connect 62 0 49 0;
#X coords 0 685 1 684 300 18 0;
