#N canvas 201 93 1108 685 10;
#X obj 85 53 inlet;
#X obj 88 133 list trim;
#X obj 88 155 route list;
#X obj 237 557 outlet;
#X obj 33 243 spigot;
#X msg 144 226 1;
#X msg 197 450 EOM;
#X msg 155 255 0;
#X text 333 153 EOM = End Of Mapping;
#X obj 23 283 unpack f f;
#X obj 23 305 t f f;
#X obj 23 387 list prepend;
#X obj 23 424 list append;
#X obj 23 446 route 1 0;
#X text 63 469 si la note entrante ne satisfait pas le test \, faire
suivre à la cellule suivante;
#X obj 34 521 unpack f f;
#X obj 24 616 f;
#X obj 24 646 select 0;
#X obj 24 707 list append;
#X msg 21 730 \$1 remove;
#X obj 294 56 list split 1;
#X obj 212 240 list split 1;
#X obj 55 348 ==;
#X obj 279 274 route bang;
#X obj 515 169 list split 1;
#X obj 325 234 text define \$0-values;
#X obj 748 349 text search \$0-values;
#X obj 748 374 select -1;
#X obj 491 311 list split 1;
#X obj 487 497 text set \$0-values;
#X msg 733 415 1e+015;
#X obj 518 358 route bang;
#X obj 544 263 list append;
#X obj 535 226 t b s s, f 28;
#X obj 558 395 list prepend;
#X msg 506 383 EOM;
#X msg 324 214 clear;
#X obj 144 696 list prepend;
#X msg 303 657 velocity \$1;
#X msg 138 637 line 0 \, bang;
#X obj 138 658 text sequence \$0-values;
#X obj 129 1 tgl 15 0 empty empty empty 17 7 0 10 -262144 -1 -1 0 1
;
#X obj 132 364 tgl 15 0 empty empty empty 17 7 0 10 -262144 -1 -1 0
1;
#X floatatom 211 284 5 0 0 0 - - -, f 5;
#X floatatom 23 327 5 0 0 0 - - -, f 5;
#X obj 509 453 list prepend;
#X obj 240 405 list prepend root_key;
#X obj 153 591 t b f b;
#X obj 26 553 t b f f;
#X obj 294 706 f \$1;
#X obj 35 790 s \$2-u_mapped_properties_output;
#X obj 297 764 s \$2-index;
#X obj 149 186 route root_key EOM;
#X connect 0 0 1 0;
#X connect 1 0 2 0;
#X connect 2 0 4 0;
#X connect 2 1 52 0;
#X connect 4 0 9 0;
#X connect 5 0 4 1;
#X connect 5 0 41 0;
#X connect 6 0 3 0;
#X connect 7 0 4 1;
#X connect 7 0 41 0;
#X connect 9 0 10 0;
#X connect 9 1 12 1;
#X connect 10 0 11 0;
#X connect 10 0 44 0;
#X connect 10 1 22 0;
#X connect 11 0 12 0;
#X connect 12 0 13 0;
#X connect 13 0 15 0;
#X connect 13 1 3 0;
#X connect 15 0 48 0;
#X connect 15 1 16 1;
#X connect 16 0 17 0;
#X connect 17 0 18 0;
#X connect 17 1 47 0;
#X connect 18 0 19 0;
#X connect 19 0 50 0;
#X connect 21 0 22 1;
#X connect 21 0 43 0;
#X connect 21 1 23 0;
#X connect 22 0 11 1;
#X connect 22 0 42 0;
#X connect 23 0 6 0;
#X connect 23 1 46 0;
#X connect 24 0 33 0;
#X connect 24 1 32 1;
#X connect 26 0 27 0;
#X connect 27 0 30 0;
#X connect 27 1 29 1;
#X connect 28 0 45 0;
#X connect 28 1 31 0;
#X connect 30 0 29 1;
#X connect 31 0 35 0;
#X connect 31 1 34 0;
#X connect 32 0 28 0;
#X connect 33 0 32 0;
#X connect 33 1 34 1;
#X connect 33 2 26 0;
#X connect 33 2 45 1;
#X connect 34 0 3 0;
#X connect 35 0 3 0;
#X connect 36 0 25 0;
#X connect 37 0 50 0;
#X connect 38 0 37 0;
#X connect 39 0 40 0;
#X connect 40 0 37 0;
#X connect 45 0 29 0;
#X connect 46 0 3 0;
#X connect 47 0 39 0;
#X connect 47 1 38 0;
#X connect 47 2 49 0;
#X connect 48 0 16 0;
#X connect 48 1 18 1;
#X connect 48 2 37 1;
#X connect 49 0 51 0;
#X connect 52 0 21 0;
#X connect 52 0 5 0;
#X connect 52 1 7 0;
#X connect 52 1 36 0;
#X connect 52 2 24 0;
#X coords 0 685 1 684 145 18 0;
