#N canvas 0 50 450 300 10;
#X obj 247 152 u_dispatch \$1 \$2;
#X obj 250 126 inlet;
#X obj 252 195 outlet;
#X obj 126 144 list trim;
#X obj 116 107 list prepend set;
#X obj 83 74 r \$1-\$2;
#X obj 95 219 s \$1-\$2-rcv;
#N canvas 0 50 450 300 speed_lim 0;
#X obj 87 20 inlet;
#X obj 87 105 t b b a;
#X obj 83 278 list append;
#X obj 83 307 list trim;
#X msg 129 200 1;
#X msg 57 177 0;
#X obj 83 332 outlet;
#X obj 55 145 delay 100;
#X obj 83 249 metro 100;
#X obj 33 226 change;
#X connect 0 0 1 0;
#X connect 1 0 7 0;
#X connect 1 1 4 0;
#X connect 1 2 2 1;
#X connect 2 0 3 0;
#X connect 3 0 6 0;
#X connect 4 0 9 0;
#X connect 5 0 9 0;
#X connect 7 0 5 0;
#X connect 8 0 2 0;
#X connect 9 0 8 0;
#X restore 119 170 pd speed_lim;
#X connect 0 0 2 0;
#X connect 1 0 0 0;
#X connect 3 0 7 0;
#X connect 4 0 3 0;
#X connect 5 0 4 0;
#X connect 7 0 6 0;
