#N canvas 17 105 734 322 10;
#X obj 206 122 list trim;
#X obj 208 99 list prepend set;
#X obj 208 77 r \$1-\$2;
#X obj 206 144 s \$1-\$2-rcv;
#X obj 55 92 inlet;
#X obj 55 152 outlet;
#X text 408 102 u_parameter_subset est à u_parameter ce que u_subset
est à u_dispatch, f 37;
#X obj 129 161 outlet;
#X obj 60 122 u_subset \$1 \$2;
#X connect 0 0 3 0;
#X connect 1 0 0 0;
#X connect 2 0 1 0;
#X connect 4 0 8 0;
#X connect 8 0 5 0;
#X connect 8 1 7 0;
