#N canvas 1 56 1905 1025 10;
#X obj 238 1 r \$0-\$1-menu;
#X obj 334 167 text size \$1;
#X obj 338 460 s \$0-\$1-menu-rcv;
#X obj 249 437 change -1;
#X obj 230 462 pipe 10;
#X obj 253 362 int;
#X obj 227 486 text get \$1;
#X obj 45 589 outlet;
#X obj 404 7 inlet;
#X obj 470 76 route label;
#X obj 563 100 symbol;
#X msg 470 120 label \$1;
#X obj 480 164 s \$0-\$1-menu-rcv;
#X obj 508 493 route list;
#X msg 554 548 label \$1;
#X obj 507 518 list split \$2;
#X obj 368 580 s \$0-\$1-menu-rcv;
#X obj 100 102 vsl 70 17 0 1 0 0 \$0-\$1-menu \$0-\$1-menu-rcv u_rollmenu
2 5 0 10 -191407 -191407 -1 160 1;
#X obj 445 283 symbol \$1;
#X obj 440 236 loadbang;
#X msg 441 323 label \$1;
#X obj 189 90 t f b b b;
#X msg 496 357 label u_rollmenu;
#X obj 288 542 t a a b;
#X obj 366 371 delay 2000;
#X obj 404 29 route float;
#X obj 189 516 route bang;
#X obj 189 538 t b;
#X obj 255 335 * 0.99999;
#X obj 328 247 - 1e-05;
#X msg 283 392 set -1;
#X obj 138 392 mod;
#X obj 337 63 loadbang;
#X floatatom 238 21 5 0 0 0 - - -, f 5;
#X obj 168 214 + 0;
#X obj 168 234 min 1;
#X obj 168 254 max 0;
#X obj 257 302 t f b;
#X obj 175 137 - 0.1;
#X msg 355 416 set 0.1;
#X obj 170 174 * 0.2;
#X obj 362 191 change;
#X connect 0 0 21 0;
#X connect 0 0 33 0;
#X connect 1 0 41 0;
#X connect 3 0 4 0;
#X connect 4 0 6 0;
#X connect 5 0 3 0;
#X connect 6 0 23 0;
#X connect 6 0 26 0;
#X connect 8 0 25 0;
#X connect 9 0 10 0;
#X connect 10 0 11 0;
#X connect 11 0 12 0;
#X connect 13 0 15 0;
#X connect 14 0 16 0;
#X connect 15 1 14 0;
#X connect 18 0 20 0;
#X connect 19 0 18 0;
#X connect 20 0 16 0;
#X connect 21 0 38 0;
#X connect 21 1 1 0;
#X connect 22 0 16 0;
#X connect 23 0 7 0;
#X connect 23 1 13 0;
#X connect 23 2 24 0;
#X connect 24 0 30 0;
#X connect 25 0 31 0;
#X connect 25 1 9 0;
#X connect 26 0 27 0;
#X connect 27 0 18 0;
#X connect 28 0 5 0;
#X connect 29 0 28 1;
#X connect 30 0 3 0;
#X connect 31 0 3 0;
#X connect 32 0 1 0;
#X connect 34 0 35 0;
#X connect 35 0 36 0;
#X connect 36 0 34 1;
#X connect 36 0 37 0;
#X connect 37 0 28 0;
#X connect 37 1 39 0;
#X connect 38 0 40 0;
#X connect 39 0 2 0;
#X connect 40 0 34 0;
#X connect 41 0 29 0;
#X connect 41 0 31 1;
#X coords 0 -1 1 1 70 22 2 100 100;
