#N canvas 56 50 1003 621 10;
#X obj 184 151 -;
#X obj 189 265 +;
#X msg 355 416 set \$1;
#X obj 240 135 f;
#X obj 184 176 * 0.4;
#X obj 184 201 / 1;
#X obj 267 297 t f f f;
#X obj 222 422 change -1;
#X obj 230 462 pipe 10;
#X obj 253 362 int;
#X obj 45 589 outlet;
#X obj 404 7 inlet;
#X obj 652 120 symbol;
#X msg 653 142 label \$1;
#X msg 522 564 label \$1;
#X obj 100 102 vsl 50 10 0 1 0 0 \$0-menu \$0-menu-rcv <none> 2 5 0
10 -191407 -191407 -1 39 1;
#X obj 440 236 loadbang;
#X msg 441 323 label \$1;
#X obj 189 90 t f b b b;
#X obj 365 126 spigot 1;
#X msg 496 357 label u_rollmenu;
#X msg 394 89 0;
#X obj 288 542 t a a b;
#X msg 388 256 1;
#X obj 371 211 delay 2000;
#X obj 189 516 route bang;
#X obj 189 538 t b;
#X obj 233 336 * 0.99999;
#X obj 328 247 - 1e-005;
#X msg 283 392 set -1;
#X obj 138 392 mod;
#X obj 337 63 loadbang;
#X obj 238 1 r \$0-menu;
#X obj 368 580 s \$0-menu-rcv;
#X obj 586 513 list split \$3;
#X obj 338 460 s \$0-menu-rcv;
#X obj 227 486 text get \$1-\$2;
#X obj 356 148 text size \$1-\$2;
#X obj 663 186 s \$0-menu-rcv;
#X obj 445 283 symbol \$2;
#X obj 507 451 list prepend \$3;
#X obj 476 483 route 0;
#X obj 551 484 list split 1;
#X obj 476 505 symbol;
#X obj 632 549 list split 1;
#X obj 707 275 text search \$1-\$2;
#X obj 710 299 select -1;
#X obj 653 98 route label set;
#X obj 407 44 route float;
#X obj 859 145 symbol;
#X obj 652 10 r \$4-rcv;
#X obj 271 578 s \$4;
#X obj 652 32 spigot;
#X obj 784 15 loadbang;
#X obj 784 37 list append \$4;
#X obj 784 59 select 0;
#X msg 824 82 1;
#X floatatom 222 444 5 0 0 0 - - -, f 5;
#X connect 0 0 4 0;
#X connect 1 0 6 0;
#X connect 2 0 35 0;
#X connect 3 0 1 1;
#X connect 3 0 0 1;
#X connect 4 0 5 0;
#X connect 5 0 1 0;
#X connect 6 0 27 0;
#X connect 6 1 2 0;
#X connect 6 2 3 1;
#X connect 7 0 8 0;
#X connect 7 0 57 0;
#X connect 8 0 36 0;
#X connect 9 0 7 0;
#X connect 11 0 48 0;
#X connect 12 0 13 0;
#X connect 13 0 38 0;
#X connect 14 0 33 0;
#X connect 16 0 39 0;
#X connect 17 0 33 0;
#X connect 18 0 0 0;
#X connect 18 1 3 0;
#X connect 18 2 21 0;
#X connect 18 3 19 0;
#X connect 19 0 37 0;
#X connect 20 0 33 0;
#X connect 21 0 19 1;
#X connect 22 0 10 0;
#X connect 22 0 51 0;
#X connect 22 1 40 0;
#X connect 22 2 24 0;
#X connect 23 0 19 1;
#X connect 24 0 23 0;
#X connect 24 0 29 0;
#X connect 25 0 26 0;
#X connect 25 1 22 0;
#X connect 26 0 39 0;
#X connect 27 0 9 0;
#X connect 28 0 27 1;
#X connect 29 0 7 0;
#X connect 30 0 7 0;
#X connect 31 0 37 0;
#X connect 32 0 18 0;
#X connect 34 1 44 0;
#X connect 36 0 25 0;
#X connect 37 0 5 1;
#X connect 37 0 28 0;
#X connect 37 0 30 1;
#X connect 39 0 17 0;
#X connect 40 0 41 0;
#X connect 41 0 43 0;
#X connect 41 1 42 0;
#X connect 42 1 34 0;
#X connect 43 0 14 0;
#X connect 44 0 43 0;
#X connect 45 0 46 0;
#X connect 46 1 48 0;
#X connect 47 0 12 0;
#X connect 47 1 49 0;
#X connect 48 0 30 0;
#X connect 48 1 47 0;
#X connect 49 0 45 0;
#X connect 50 0 52 0;
#X connect 52 0 48 0;
#X connect 53 0 54 0;
#X connect 54 0 55 0;
#X connect 55 1 56 0;
#X connect 56 0 52 1;
#X coords 0 -1 1 1 50 15 2 100 100;
