#N canvas 0 55 1920 1025 10;
#X obj 184 151 -;
#X obj 189 265 +;
#X obj 240 135 f;
#X obj 184 176 * 0.4;
#X obj 184 201 / 1;
#X obj 341 303 t f f f;
#X obj 238 1 r \$0-\$1-menu;
#X obj 353 153 text size \$1;
#X obj 338 460 s \$0-\$1-menu-rcv;
#X obj 249 437 change -1;
#X obj 230 462 pipe 10;
#X obj 253 362 int;
#X obj 227 486 text get \$1;
#X obj 45 589 outlet;
#X obj 404 7 inlet;
#X obj 470 76 route label;
#X obj 563 100 symbol;
#X msg 470 120 label \$1;
#X obj 480 164 s \$0-\$1-menu-rcv;
#X obj 508 493 route list;
#X msg 554 548 label \$1;
#X obj 507 518 list split \$2;
#X obj 368 580 s \$0-\$1-menu-rcv;
#X obj 100 102 vsl 70 17 0 1 0 0 \$0-\$1-menu \$0-\$1-menu-rcv 1erChoix
2 5 0 10 -191407 -191407 -1 1 1;
#X obj 445 283 symbol \$1;
#X obj 440 236 loadbang;
#X msg 441 323 label \$1;
#X obj 189 90 t f b b b;
#X obj 365 126 spigot 1;
#X msg 496 357 label u_rollmenu;
#X msg 394 89 0;
#X obj 288 542 t a a b;
#X msg 388 256 1;
#X obj 371 211 delay 2000;
#X obj 404 29 route float;
#X obj 312 209 - 1;
#X obj 189 516 route bang;
#X obj 189 538 t b;
#X obj 255 335 * 0.99999;
#X obj 328 247 - 1e-05;
#X msg 283 392 set -1;
#X obj 138 392 mod;
#X obj 337 63 loadbang;
#X floatatom 238 21 5 0 0 0 - - -, f 5;
#X floatatom 189 285 5 0 0 0 - - -, f 5;
#X msg 355 416 set \$1;
#X connect 0 0 3 0;
#X connect 1 0 5 0;
#X connect 1 0 44 0;
#X connect 2 0 1 1;
#X connect 2 0 0 1;
#X connect 3 0 4 0;
#X connect 4 0 1 0;
#X connect 5 0 38 0;
#X connect 5 1 45 0;
#X connect 5 2 2 1;
#X connect 6 0 27 0;
#X connect 6 0 43 0;
#X connect 7 0 4 1;
#X connect 7 0 35 0;
#X connect 7 0 39 0;
#X connect 7 0 41 1;
#X connect 9 0 10 0;
#X connect 10 0 12 0;
#X connect 11 0 9 0;
#X connect 12 0 31 0;
#X connect 12 0 36 0;
#X connect 14 0 34 0;
#X connect 15 0 16 0;
#X connect 16 0 17 0;
#X connect 17 0 18 0;
#X connect 19 0 21 0;
#X connect 20 0 22 0;
#X connect 21 1 20 0;
#X connect 24 0 26 0;
#X connect 25 0 24 0;
#X connect 26 0 22 0;
#X connect 27 0 0 0;
#X connect 27 1 2 0;
#X connect 27 2 30 0;
#X connect 27 3 28 0;
#X connect 28 0 7 0;
#X connect 29 0 22 0;
#X connect 30 0 28 1;
#X connect 31 0 13 0;
#X connect 31 1 19 0;
#X connect 31 2 33 0;
#X connect 32 0 28 1;
#X connect 33 0 32 0;
#X connect 33 0 40 0;
#X connect 34 0 41 0;
#X connect 34 1 15 0;
#X connect 36 0 37 0;
#X connect 37 0 24 0;
#X connect 38 0 11 0;
#X connect 39 0 38 1;
#X connect 40 0 9 0;
#X connect 41 0 9 0;
#X connect 42 0 7 0;
#X connect 45 0 8 0;
#X coords 0 -1 1 1 70 22 2 100 100;
