#N canvas 0 50 1120 647 10;
#X obj 405 304 openpanel;
#X obj 314 208 bng 20 250 50 0 empty empty open-sample 0 -6 1 10 -262144
-1 -1;
#X obj 67 54 inlet;
#X obj 67 90 list trim;
#X obj 405 371 symbol;
#X obj 534 281 list append \$2;
#X obj 534 304 select 0;
#X obj 534 257 loadbang;
#X obj 260 361 / 1000;
#X obj 260 340 r \$0-sr;
#X obj 67 167 s \$0-sr;
#X obj 197 323 t a a;
#X obj 108 491 outlet;
#X obj 472 304 list;
#X obj 405 206 b;
#X msg 494 363 bang;
#X obj 405 402 list append \$1;
#X obj 404 511 s \$0-samples;
#X obj 133 221 r \$0-samples;
#X obj 197 302 f;
#X obj 108 383 symbol \$1;
#X obj 405 165 route bang;
#X obj 108 463 list;
#X obj 108 251 t b a;
#X obj 217 411 r \$0-sr;
#N canvas 172 83 586 377 LICENSE-GPL 0;
#X text 57 88 This program is free software: you can redistribute it
and/or modify it under the terms of the GNU General Public License
as published by the Free Software Foundation \, either version 3 of
the License \, or (at your option) any later version.;
#X text 58 168 This program is distributed in the hope that it will
be useful \, but WITHOUT ANY WARRANTY \; without even the implied warranty
of MERCHANTABILITY or FITNESS FOR A PARTICULAR PURPOSE. See the GNU
General Public License for more details.;
#X text 57 261 You should have received a copy of the GNU General Public
License along with this program. If not \, see <http://www.gnu.org/licenses/>.
;
#X text 61 54 Copyright (C) 2009 \, Reality Jockey Ltd.;
#X text 60 325 See the file LICENSE.txt for the full license text.
;
#X restore 522 59 pd LICENSE-GPL;
#X obj 515 159 r RJLIB;
#X obj 515 180 route sf-samplerate;
#X obj 515 202 s \$0-sr;
#X text 511 138 Allow global setting of soundfile samplerate;
#X obj 197 361 / 44.1;
#X obj 614 488 s \$0-sr;
#X msg 614 468 \$1;
#X text 634 441 à partir de pd 0.48;
#X text 854 85 1e+07;
#X obj 514 93 table \$1-1 \$3;
#X obj 514 115 table \$1-2 \$3;
#X obj 404 482 min \$3;
#X obj 405 452 sndfiler;
#X text 672 281 <---- ouverture d'un fichier par défaut;
#X obj 108 437 pack s 0 0 44100;
#X obj 920 161 array size \$1-1;
#X floatatom 920 183 10 0 0 0 - - -, f 10;
#X obj 918 129 bng 15 250 50 0 empty empty empty 17 7 0 10 -262144
-1 -1;
#X msg 405 426 read \$1 \$2-1 \$2-2;
#X obj 67 122 route sr info open resize;
#X obj 355 86 array size \$1-1;
#X obj 355 116 array size \$1-2;
#X obj 270 186 change \$3;
#X connect 0 0 4 0;
#X connect 1 0 0 0;
#X connect 2 0 3 0;
#X connect 3 0 45 0;
#X connect 4 0 16 0;
#X connect 5 0 6 0;
#X connect 6 1 4 0;
#X connect 7 0 5 0;
#X connect 8 0 30 1;
#X connect 9 0 8 0;
#X connect 11 0 30 0;
#X connect 11 1 40 2;
#X connect 13 0 4 0;
#X connect 14 0 0 0;
#X connect 15 0 4 0;
#X connect 16 0 44 0;
#X connect 18 0 23 0;
#X connect 19 0 11 0;
#X connect 20 0 40 0;
#X connect 21 0 14 0;
#X connect 21 1 13 0;
#X connect 22 0 12 0;
#X connect 23 0 20 0;
#X connect 23 1 19 0;
#X connect 24 0 40 3;
#X connect 26 0 27 0;
#X connect 27 0 28 0;
#X connect 30 0 40 1;
#X connect 32 0 31 0;
#X connect 37 0 17 0;
#X connect 38 0 37 0;
#X connect 38 1 32 0;
#X connect 40 0 22 0;
#X connect 41 0 42 0;
#X connect 43 0 41 0;
#X connect 44 0 38 0;
#X connect 45 0 10 0;
#X connect 45 1 23 0;
#X connect 45 2 21 0;
#X connect 45 3 48 0;
#X connect 48 0 46 0;
#X connect 48 0 47 0;
#X connect 48 0 37 1;
