#N canvas 0 180 1071 515 10;
#X obj 17 47 inlet;
#X obj 32 294 outlet;
#X obj 32 123 u_dispatch \$1 l\$2;
#X obj 33 92 u_dispatch \$1 \$2;
#X obj 769 15 r \$1-l\$2;
#X obj 761 92 list length;
#X obj 627 131 mod;
#X obj 618 104 +;
#X msg 587 68 1;
#X msg 607 48 -1;
#X obj 605 222 outlet;
#X obj 632 77 r \$1-index;
#X obj 382 -2 r \$1-subset;
#N canvas 0 50 543 540 get 0;
#X obj 87 198 list append;
#X obj 87 169 t b f;
#X obj 202 404 s \$1-\$2;
#X obj 87 248 list split;
#X obj 85 220 list prepend zero;
#X obj 236 223 + 1;
#X obj 68 138 moses 0;
#X obj 70 92 inlet;
#X obj 247 189 * \$3;
#X obj 118 277 list split \$3;
#X obj 180 324 list trim;
#X obj 180 346 route <undefined>;
#X obj 301 375 list;
#X obj 298 23 r \$1-l\$2;
#X obj 298 45 list trim;
#X obj 298 67 route <sublist>;
#X connect 0 0 4 0;
#X connect 1 0 0 0;
#X connect 1 1 8 0;
#X connect 3 1 9 0;
#X connect 4 0 3 0;
#X connect 5 0 3 1;
#X connect 6 1 1 0;
#X connect 7 0 6 0;
#X connect 8 0 5 0;
#X connect 9 0 10 0;
#X connect 10 0 11 0;
#X connect 11 1 12 0;
#X connect 12 0 2 0;
#X connect 13 0 14 0;
#X connect 14 0 15 0;
#X connect 15 0 0 1;
#X connect 15 1 0 1;
#X restore 284 199 pd get;
#N canvas 0 50 760 388 append 0;
#X obj 141 62 inlet;
#X obj 298 23 r \$1-l\$2;
#X obj 290 251 list prepend;
#X obj 364 112 r \$1-\$2;
#X obj 146 113 t b;
#X obj 289 327 s \$1-l\$2;
#X obj 445 59 loadbang;
#X obj 445 81 f \$3;
#X obj 540 141 list append <undefined>;
#X obj 457 111 until;
#X obj 290 187 list append;
#X obj 583 174 list append <undefined>;
#X obj 290 282 list prepend <sublist>;
#X obj 298 45 list trim;
#X obj 298 67 route <sublist>;
#X obj 612 49 loadbang;
#X msg 609 79 <sublist>;
#X obj 609 101 s \$1-l\$2;
#X connect 0 0 4 0;
#X connect 1 0 13 0;
#X connect 2 0 12 0;
#X connect 3 0 10 1;
#X connect 4 0 10 0;
#X connect 6 0 7 0;
#X connect 7 0 9 0;
#X connect 8 0 11 0;
#X connect 8 0 10 1;
#X connect 9 0 8 0;
#X connect 10 0 2 0;
#X connect 11 0 8 1;
#X connect 12 0 5 0;
#X connect 13 0 14 0;
#X connect 14 0 2 1;
#X connect 14 1 2 1;
#X connect 15 0 16 0;
#X connect 16 0 17 0;
#X restore 377 87 pd append;
#N canvas 0 50 450 300 reset 0;
#X obj 192 100 inlet;
#X obj 186 133 t b;
#X obj 186 157 s \$1-l\$2;
#X obj 257 142 bng 15 250 50 0 empty empty empty 17 7 0 10 -262144
-1 -1;
#X connect 0 0 1 0;
#X connect 1 0 2 0;
#X connect 3 0 2 0;
#X restore 438 58 pd reset;
#N canvas 0 50 490 440 delete 0;
#X obj 117 32 inlet;
#X obj 277 168 list append;
#X obj 297 130 t b f;
#X obj 277 231 list split;
#X obj 275 190 list prepend zero;
#X obj 258 108 moses 0;
#X obj 420 178 + 1;
#X obj 290 322 list append;
#X obj 290 397 s \$1-l\$2;
#X obj 408 136 * \$3;
#X obj 233 279 list split \$3;
#X obj 354 267 list split \$3;
#X obj 48 73 r \$1-l\$2;
#X obj 48 95 list trim;
#X obj 48 117 route <sublist>;
#X obj 290 344 list prepend <sublist>;
#X connect 0 0 5 0;
#X connect 1 0 4 0;
#X connect 2 0 1 0;
#X connect 2 1 9 0;
#X connect 3 0 10 0;
#X connect 3 1 11 0;
#X connect 4 0 3 0;
#X connect 5 1 2 0;
#X connect 6 0 3 1;
#X connect 7 0 15 0;
#X connect 9 0 6 0;
#X connect 10 1 7 0;
#X connect 11 1 7 1;
#X connect 12 0 13 0;
#X connect 13 0 14 0;
#X connect 14 0 1 1;
#X connect 14 1 1 1;
#X connect 15 0 8 0;
#X restore 509 55 pd delete;
#X obj 279 72 s \$1-index;
#X obj 285 171 r \$1-index;
#N canvas 0 50 704 476 update 0;
#X obj 250 62 inlet;
#X obj 277 168 list append;
#X obj 277 139 t b f;
#X obj 277 231 list split;
#X obj 275 190 list prepend zero;
#X obj 258 108 moses 0;
#X obj 420 178 + 1;
#X obj 290 372 list append;
#X obj 290 445 s \$1-l\$2;
#X obj 524 273 r \$1-\$2;
#X obj 423 152 * \$3;
#X obj 348 267 list split \$3;
#X obj 400 337 list prepend;
#X obj 233 279 list split 1;
#X obj 358 23 r \$1-l\$2;
#X obj 358 45 list trim;
#X obj 358 67 route <sublist>;
#X obj 290 394 list prepend <sublist>;
#X connect 0 0 5 0;
#X connect 1 0 4 0;
#X connect 2 0 1 0;
#X connect 2 1 10 0;
#X connect 3 0 13 0;
#X connect 3 1 11 0;
#X connect 4 0 3 0;
#X connect 5 1 2 0;
#X connect 6 0 3 1;
#X connect 7 0 17 0;
#X connect 9 0 12 1;
#X connect 10 0 6 0;
#X connect 11 1 12 0;
#X connect 12 0 7 1;
#X connect 13 1 7 0;
#X connect 14 0 15 0;
#X connect 15 0 16 0;
#X connect 16 0 1 1;
#X connect 16 1 1 1;
#X connect 17 0 8 0;
#X restore 672 284 pd update;
#X obj 689 238 f;
#X obj 701 175 t b;
#X obj 381 23 route get append reset delete next prev update set;
#X obj 766 140 / \$3;
#X obj 766 162 + 1;
#X floatatom 850 116 5 0 0 0 - - -, f 5;
#X obj 481 119 bng 15 250 50 0 empty empty empty 17 7 0 10 -262144
-1 -1;
#X obj 384 66 bng 15 250 50 0 empty empty empty 17 7 0 10 -262144 -1
-1;
#X obj 396 248 s \$1-subset;
#X msg 392 218 append;
#X obj 158 209 r \$1-l\$2;
#X obj 158 231 list trim;
#X obj 158 253 route <sublist>;
#X obj 258 290 list prepend <sublist>;
#X obj 258 319 s \$1-l\$2;
#X obj 766 118 - 1;
#X obj 768 41 list trim;
#X obj 768 63 route <sublist>;
#X connect 0 0 3 0;
#X connect 2 0 1 0;
#X connect 3 0 2 0;
#X connect 4 0 36 0;
#X connect 5 0 25 0;
#X connect 5 0 35 0;
#X connect 6 0 10 0;
#X connect 6 0 13 0;
#X connect 6 0 7 1;
#X connect 6 0 20 1;
#X connect 7 0 6 0;
#X connect 8 0 7 0;
#X connect 9 0 7 0;
#X connect 11 0 7 1;
#X connect 11 0 20 1;
#X connect 12 0 22 0;
#X connect 18 0 13 0;
#X connect 20 0 19 0;
#X connect 21 0 20 0;
#X connect 22 0 17 0;
#X connect 22 1 14 0;
#X connect 22 2 15 0;
#X connect 22 3 16 0;
#X connect 22 4 8 0;
#X connect 22 5 9 0;
#X connect 22 6 21 0;
#X connect 22 7 19 0;
#X connect 23 0 24 0;
#X connect 24 0 6 1;
#X connect 26 0 15 0;
#X connect 27 0 14 0;
#X connect 29 0 28 0;
#X connect 30 0 31 0;
#X connect 31 0 32 0;
#X connect 32 1 33 0;
#X connect 33 0 34 0;
#X connect 35 0 23 0;
#X connect 36 0 37 0;
#X connect 37 0 5 0;
#X connect 37 1 5 0;
