#N canvas 351 145 959 515 10;
#X obj 17 47 inlet;
#X obj 32 294 outlet;
#X obj 32 123 u_dispatch \$1 l\$2;
#X obj 33 92 u_dispatch \$1 \$2;
#X obj 756 52 r \$1-l\$2;
#X obj 734 133 list length;
#X obj 627 131 mod;
#X obj 618 104 +;
#X msg 587 68 1;
#X msg 607 48 -1;
#X obj 605 222 outlet;
#X obj 632 77 r \$1-index;
#X obj 382 -2 r \$1-subset;
#N canvas 424 63 543 540 get 0;
#X obj 87 198 list append;
#X obj 87 169 t b f;
#X obj 202 404 s \$1-\$2;
#X obj 298 113 r \$1-l\$2;
#X obj 87 248 list split;
#X obj 85 220 list prepend zero;
#X obj 91 291 list split 1;
#X obj 236 223 + 1;
#X obj 68 138 moses 0;
#X obj 70 92 inlet;
#X obj 136 315 route symbol;
#X obj 153 366 symbol;
#X msg 256 260 symbol <undefined>;
#X obj 55 342 select <undefined>;
#X obj 298 145 list trim;
#X obj 298 167 route <subset>;
#X connect 0 0 5 0;
#X connect 1 0 0 0;
#X connect 1 1 7 0;
#X connect 3 0 14 0;
#X connect 4 1 6 0;
#X connect 5 0 4 0;
#X connect 6 0 10 0;
#X connect 7 0 4 1;
#X connect 8 1 1 0;
#X connect 9 0 8 0;
#X connect 10 0 13 0;
#X connect 10 1 2 0;
#X connect 11 0 2 0;
#X connect 12 0 10 0;
#X connect 13 1 11 0;
#X connect 14 0 15 0;
#X connect 15 0 0 1;
#X connect 15 1 0 1;
#X restore 284 199 pd get;
#N canvas 659 63 611 388 append 0;
#X obj 141 62 inlet;
#X obj 278 83 r \$1-l\$2;
#X obj 290 211 list prepend;
#X obj 448 163 r \$1-\$2;
#X obj 146 113 t b;
#X obj 290 275 s \$1-l\$2;
#X obj 290 187 list append <undefined>;
#X obj 335 121 list trim;
#X obj 335 143 route <subset>;
#X obj 290 233 list prepend <subset>;
#X connect 0 0 4 0;
#X connect 1 0 7 0;
#X connect 2 0 9 0;
#X connect 3 0 6 1;
#X connect 4 0 6 0;
#X connect 6 0 2 0;
#X connect 7 0 8 0;
#X connect 8 0 2 1;
#X connect 8 1 2 1;
#X connect 9 0 5 0;
#X restore 377 87 pd append;
#N canvas 0 50 450 300 reset 0;
#X obj 192 100 inlet;
#X obj 186 133 t b;
#X obj 186 157 s \$1-l\$2;
#X connect 0 0 1 0;
#X connect 1 0 2 0;
#X restore 438 58 pd reset;
#N canvas 619 73 490 440 delete 0;
#X obj 117 32 inlet;
#X obj 38 83 r \$1-l\$2;
#X obj 277 168 list append;
#X obj 277 139 t b f;
#X obj 277 231 list split;
#X obj 275 190 list prepend zero;
#X obj 258 108 moses 0;
#X obj 420 178 + 1;
#X obj 233 279 list split 1;
#X obj 354 267 list split 1;
#X obj 290 322 list append;
#X obj 290 385 s \$1-l\$2;
#X obj 38 115 list trim;
#X obj 38 137 route <subset>;
#X obj 290 344 list prepend <subset>;
#X connect 0 0 6 0;
#X connect 1 0 12 0;
#X connect 2 0 5 0;
#X connect 3 0 2 0;
#X connect 3 1 7 0;
#X connect 4 0 8 0;
#X connect 4 1 9 0;
#X connect 5 0 4 0;
#X connect 6 1 3 0;
#X connect 7 0 4 1;
#X connect 8 1 10 0;
#X connect 9 1 10 1;
#X connect 10 0 14 0;
#X connect 12 0 13 0;
#X connect 13 0 2 1;
#X connect 13 1 2 1;
#X connect 14 0 11 0;
#X restore 509 55 pd delete;
#X obj 279 72 s \$1-index;
#X obj 285 171 r \$1-index;
#N canvas 587 107 704 476 update 0;
#X obj 250 62 inlet;
#X obj 352 63 r \$1-l\$2;
#X obj 277 168 list append;
#X obj 277 139 t b f;
#X obj 277 231 list split;
#X obj 275 190 list prepend zero;
#X obj 258 108 moses 0;
#X obj 420 178 + 1;
#X obj 233 279 list split 1;
#X obj 348 267 list split 1;
#X obj 290 372 list append;
#X obj 290 445 s \$1-l\$2;
#X obj 558 313 r \$1-\$2;
#X obj 400 337 list prepend <undefined>;
#X obj 368 91 list trim;
#X obj 368 113 route <subset>;
#X obj 290 394 list prepend <subset>;
#X connect 0 0 6 0;
#X connect 1 0 14 0;
#X connect 2 0 5 0;
#X connect 3 0 2 0;
#X connect 3 1 7 0;
#X connect 4 0 8 0;
#X connect 4 1 9 0;
#X connect 5 0 4 0;
#X connect 6 1 3 0;
#X connect 7 0 4 1;
#X connect 8 1 10 0;
#X connect 9 1 13 0;
#X connect 10 0 16 0;
#X connect 12 0 13 1;
#X connect 13 0 10 1;
#X connect 14 0 15 0;
#X connect 15 0 2 1;
#X connect 15 1 2 1;
#X connect 16 0 11 0;
#X restore 672 284 pd update;
#X obj 689 238 f;
#X obj 701 175 t b;
#X obj 381 23 route get append reset delete next prev update set;
#X obj 768 81 list trim;
#X obj 768 103 route <subset>;
#X obj 770 188 r \$1-index;
#X connect 0 0 3 0;
#X connect 2 0 1 0;
#X connect 3 0 2 0;
#X connect 4 0 23 0;
#X connect 5 0 6 1;
#X connect 6 0 10 0;
#X connect 6 0 13 0;
#X connect 6 0 7 1;
#X connect 6 0 20 1;
#X connect 7 0 6 0;
#X connect 8 0 7 0;
#X connect 9 0 7 0;
#X connect 11 0 7 1;
#X connect 11 0 20 1;
#X connect 12 0 22 0;
#X connect 18 0 13 0;
#X connect 20 0 19 0;
#X connect 21 0 20 0;
#X connect 22 0 17 0;
#X connect 22 1 14 0;
#X connect 22 2 15 0;
#X connect 22 3 16 0;
#X connect 22 4 8 0;
#X connect 22 5 9 0;
#X connect 22 6 21 0;
#X connect 22 7 19 0;
#X connect 23 0 24 0;
#X connect 24 0 5 0;
#X connect 24 1 5 0;
#X connect 25 0 20 1;
