#N canvas 0 50 1349 665 10;
#X obj 283 124 loadbang;
#X obj 333 191 list append \$2;
#X obj 566 319 +;
#X msg 632 404 set \$1;
#X obj 554 191 t f f b;
#X obj 593 249 f;
#X obj 548 255 -;
#X obj 547 289 * 0.2;
#X msg 508 407 label \$1;
#X obj 189 416 int;
#X msg 748 410 label;
#X msg 378 95;
#X msg 182 485 label =\$1;
#X obj 138 553 s \$0-cnv;
#X msg 110 514 label;
#X obj 308 149 t b b b;
#X obj 590 440 s \$0-rcv;
#X obj 547 151 r \$0-snd;
#X obj 233 250 m_scale 0 127 \$3 \$4;
#X obj 243 290 s \$1-\$2;
#X obj 169 309 r \$1-\$2;
#X obj 305 364 m_scale \$3 \$4 0 127;
#X obj 183 392 * 100;
#X obj 194 460 * 0.01;
#X obj 626 194 t b f;
#X msg 626 248 0;
#X obj 0 0 cnv 15 15 15 \$0-cnv-pos \$0-cnv-pos-rcv empty 20 12 0 14
-233017 -66577 0;
#X obj 100 102 vsl 38 50 0 127 0 0 \$0-snd \$0-rcv empty 0 20 0 10
-166441 -1 -1 1 1;
#X obj 361 565 unpack f f;
#X floatatom 342 590 5 0 0 0 - - -, f 5;
#X floatatom 433 597 5 0 0 0 - - -, f 5;
#X msg 373 450 get_pos;
#X obj 373 481 s \$0-cnv-pos-rcv;
#X obj 273 473 r \$0-cnv-pos;
#X msg 553 492 pos 0 0;
#X obj 100 130 cnv 1 1 1 empty \$0-cnv =0.02 0 12 0 10 -233017 -66577
0;
#X obj 627 127 midi-colors \$1 \$2 \$0-rcv \$3 \$4 lin;
#X obj 169 360 speed_lim;
#X obj 669 360 speed_lim;
#X connect 0 0 15 0;
#X connect 1 0 8 0;
#X connect 2 0 5 1;
#X connect 2 0 18 0;
#X connect 2 0 3 0;
#X connect 3 0 16 0;
#X connect 4 0 6 0;
#X connect 4 2 5 0;
#X connect 5 0 6 1;
#X connect 5 0 2 1;
#X connect 6 0 7 0;
#X connect 7 0 2 0;
#X connect 8 0 16 0;
#X connect 9 0 23 0;
#X connect 10 0 16 0;
#X connect 12 0 13 0;
#X connect 14 0 13 0;
#X connect 15 2 1 0;
#X connect 17 0 4 0;
#X connect 18 0 19 0;
#X connect 20 0 21 0;
#X connect 20 0 37 0;
#X connect 21 0 5 1;
#X connect 21 0 38 0;
#X connect 22 0 9 0;
#X connect 23 0 12 0;
#X connect 24 0 25 0;
#X connect 24 1 5 0;
#X connect 25 0 2 0;
#X connect 28 0 29 0;
#X connect 28 1 30 0;
#X connect 31 0 32 0;
#X connect 33 0 28 0;
#X connect 34 0 32 0;
#X connect 36 0 24 0;
#X connect 37 0 22 0;
#X connect 38 0 3 0;
#X coords 0 -1 1 1 38 55 2 100 100;
