#N canvas 1 111 1282 556 10;
#X declare -stdpath extra/iemguts/;
#X declare -stdpath extra/rj/;
#X obj 0 0 tgl 36 0 \$0-tgl \$0-tgl-rcv empty 17 7 0 10 -262144 -262144
-262144 0 1;
#X obj 0 17 cnv 1 36 1 empty \$0-y-rcv empty 20 12 0 14 -4160 -66577
0;
#X obj 17 0 cnv 1 1 36 empty \$0-x-rcv empty 20 12 0 14 -258113 -66577
0;
#X obj 481 -40 declare -stdpath extra/iemguts/;
#X obj 122 -54 receivecanvas 0;
#X obj 272 -54 receivecanvas 1;
#X obj 282 -24 receivecanvas 2;
#N canvas 106 98 1040 617 stuff 0;
#X obj 211 -15 inlet;
#X obj 240 561 s \$0-x-rcv;
#X obj 379 551 s \$0-y-rcv;
#X obj 315 27 r \$0-tgl;
#X obj 284 97 spigot;
#X msg 315 55 1;
#X msg 348 74 0;
#X obj 281 120 route mouseup motion;
#X obj 267 150 unpack f f;
#N canvas 0 50 450 300 once 0;
#X obj 91 42 inlet;
#X obj 97 158 outlet;
#X obj 217 53 inlet;
#X obj 93 84 spigot 1;
#X obj 119 110 t a b;
#X msg 153 38 1;
#X msg 196 88 0;
#X connect 0 0 3 0;
#X connect 2 0 5 0;
#X connect 3 0 4 0;
#X connect 4 0 1 0;
#X connect 4 1 6 0;
#X connect 5 0 3 1;
#X connect 6 0 3 1;
#X restore 271 209 pd once;
#X obj 248 232 -;
#X obj 238 187 t f f f;
#N canvas 0 50 450 300 once 0;
#X obj 91 42 inlet;
#X obj 97 158 outlet;
#X obj 217 53 inlet;
#X obj 93 84 spigot 1;
#X obj 119 110 t a b;
#X msg 153 38 1;
#X msg 196 88 0;
#X connect 0 0 3 0;
#X connect 2 0 5 0;
#X connect 3 0 4 0;
#X connect 4 0 1 0;
#X connect 4 1 6 0;
#X connect 5 0 3 1;
#X connect 6 0 3 1;
#X restore 381 209 pd once;
#X obj 375 236 -;
#X obj 348 187 t f f f;
#X obj 361 292 * 0.2;
#X obj 251 292 * 0.2;
#X obj 218 322 +;
#X obj 260 338 f 0.5;
#X obj 219 370 clip 0 1;
#X obj 361 322 +;
#X obj 405 324 f 0.5;
#X obj 363 379 clip 0 1;
#X obj 215 412 t f f;
#X obj 364 407 t f f;
#X msg 239 541 pos \$1 0;
#X msg 377 530 pos 0 \$1;
#X obj 533 93 select 0 1;
#X msg 527 170 color 0 0 0;
#X obj 539 222 s \$0-tgl-rcv;
#X msg 647 140 color \$1 \$1 \$1;
#X floatatom 710 93 5 0 0 0 - - -, f 5;
#X msg 627 170 color 4 4 4;
#X obj 501 148 delay 300;
#X msg 554 124 stop;
#X obj 159 396 f;
#X obj 162 346 t b f;
#X obj 329 396 f;
#X obj 332 346 t b f;
#X obj 156 431 outlet;
#X obj 329 432 outlet;
#X obj 359 0 inlet;
#X obj 434 -1 inlet;
#X obj 443 32 - 1;
#X obj 449 65 * -1;
#X obj 483 439 - 1;
#X obj 484 473 * -1;
#X obj 683 510 outlet direction;
#X obj 251 270 / 35;
#X obj 361 270 / 35;
#X obj 247 449 * 35;
#X obj 377 429 * 35;
#X obj 690 271 t b f;
#X obj 866 315 f;
#X obj 822 316 +;
#X obj 786 315 f;
#X obj 742 316 +;
#X obj 707 315 + 1;
#X obj 663 316 f;
#X obj 650 442 pack f f;
#X obj 820 216 r \$0-tgl;
#X msg 830 242 0;
#X obj 675 344 > 4;
#X obj 651 373 select 1;
#X obj 652 396 f;
#X obj 646 486 expr ((abs($f1)<abs($f2))+1)*(abs($f1*$f2)>0) \;;
#X obj 608 368 change;
#X obj 207 267 t f f;
#X obj 901 370 outlet;
#X obj 241 498 * 1;
#X obj 380 501 * 1, f 4;
#X connect 0 0 4 0;
#X connect 3 0 5 0;
#X connect 4 0 7 0;
#X connect 5 0 4 1;
#X connect 5 0 12 1;
#X connect 5 0 9 1;
#X connect 5 0 27 0;
#X connect 5 0 68 0;
#X connect 6 0 4 1;
#X connect 6 0 27 0;
#X connect 6 0 68 0;
#X connect 7 0 6 0;
#X connect 7 1 8 0;
#X connect 8 0 11 0;
#X connect 8 1 14 0;
#X connect 9 0 10 1;
#X connect 10 0 48 0;
#X connect 10 0 52 0;
#X connect 11 0 10 1;
#X connect 11 1 10 0;
#X connect 11 2 9 0;
#X connect 12 0 13 1;
#X connect 13 0 49 0;
#X connect 13 0 54 0;
#X connect 14 0 13 1;
#X connect 14 1 13 0;
#X connect 14 2 12 0;
#X connect 15 0 20 0;
#X connect 16 0 17 0;
#X connect 17 0 36 0;
#X connect 18 0 17 1;
#X connect 19 0 18 0;
#X connect 19 0 23 0;
#X connect 20 0 38 0;
#X connect 21 0 20 1;
#X connect 22 0 21 0;
#X connect 22 0 24 0;
#X connect 23 0 35 1;
#X connect 23 1 50 0;
#X connect 24 0 37 1;
#X connect 24 1 51 0;
#X connect 25 0 1 0;
#X connect 26 0 2 0;
#X connect 27 0 33 0;
#X connect 27 1 32 0;
#X connect 27 1 34 0;
#X connect 28 0 29 0;
#X connect 30 0 29 0;
#X connect 31 0 30 0;
#X connect 32 0 29 0;
#X connect 33 0 28 0;
#X connect 34 0 33 0;
#X connect 35 0 39 0;
#X connect 36 0 35 0;
#X connect 36 1 19 0;
#X connect 37 0 45 0;
#X connect 38 0 37 0;
#X connect 38 1 22 0;
#X connect 41 0 19 0;
#X connect 42 0 43 0;
#X connect 43 0 44 0;
#X connect 44 0 22 0;
#X connect 45 0 46 0;
#X connect 46 0 40 0;
#X connect 48 0 16 0;
#X connect 49 0 15 0;
#X connect 50 0 69 0;
#X connect 51 0 70 0;
#X connect 52 0 58 0;
#X connect 52 1 56 0;
#X connect 53 0 54 1;
#X connect 54 0 53 0;
#X connect 54 0 59 1;
#X connect 55 0 56 1;
#X connect 56 0 55 0;
#X connect 56 0 64 1;
#X connect 57 0 58 1;
#X connect 58 0 57 0;
#X connect 58 0 62 0;
#X connect 59 0 65 0;
#X connect 60 0 61 0;
#X connect 61 0 53 0;
#X connect 61 0 55 0;
#X connect 61 0 58 1;
#X connect 62 0 66 0;
#X connect 63 0 64 0;
#X connect 64 0 59 0;
#X connect 65 0 47 0;
#X connect 66 0 63 0;
#X connect 69 0 25 0;
#X connect 70 0 26 0;
#X restore 183 52 pd stuff;
#X msg 181 14 0.5;
#X obj 192 -34 loadbang;
#N canvas 0 50 458 308 rh_scalelog 0;
#X obj 20 155 exp;
#X obj 20 107 *;
#X obj 20 130 +;
#X obj 98 87 log;
#X obj 194 84 log;
#X obj 123 123 t b f;
#X obj 123 145 -;
#X obj 20 183 outlet;
#X obj 20 19 inlet;
#X obj 98 23 inlet;
#X obj 194 24 inlet;
#X connect 0 0 7 0;
#X connect 1 0 2 0;
#X connect 2 0 0 0;
#X connect 3 0 2 1;
#X connect 3 0 5 0;
#X connect 4 0 6 0;
#X connect 5 0 6 0;
#X connect 5 1 6 1;
#X connect 6 0 1 1;
#X connect 8 0 1 0;
#X connect 9 0 3 0;
#X connect 10 0 4 0;
#X restore 102 226 pd rh_scalelog;
#X obj 197 149 f \$3;
#X obj 247 149 f \$4;
#N canvas 0 50 458 308 inv_scalelog 0;
#X obj 98 87 log;
#X obj 194 84 log;
#X obj 123 123 t b f;
#X obj 123 145 -;
#X obj 20 183 outlet;
#X obj 20 19 inlet;
#X obj 98 23 inlet;
#X obj 194 24 inlet;
#X obj 34 65 log;
#X obj 20 130 -;
#X obj 20 156 /;
#X connect 0 0 2 0;
#X connect 0 0 9 1;
#X connect 1 0 3 0;
#X connect 2 0 3 0;
#X connect 2 1 3 1;
#X connect 3 0 10 1;
#X connect 5 0 8 0;
#X connect 6 0 0 0;
#X connect 7 0 1 0;
#X connect 8 0 9 0;
#X connect 9 0 10 0;
#X connect 10 0 4 0;
#X restore 147 377 pd inv_scalelog;
#X obj 209 108 loadbang;
#N canvas 0 50 458 308 rh_scalelog 0;
#X obj 20 155 exp;
#X obj 20 107 *;
#X obj 20 130 +;
#X obj 98 87 log;
#X obj 194 84 log;
#X obj 123 123 t b f;
#X obj 123 145 -;
#X obj 20 183 outlet;
#X obj 20 19 inlet;
#X obj 98 23 inlet;
#X obj 194 24 inlet;
#X connect 0 0 7 0;
#X connect 1 0 2 0;
#X connect 2 0 0 0;
#X connect 3 0 2 1;
#X connect 3 0 5 0;
#X connect 4 0 6 0;
#X connect 5 0 6 0;
#X connect 5 1 6 1;
#X connect 6 0 1 1;
#X connect 8 0 1 0;
#X connect 9 0 3 0;
#X connect 10 0 4 0;
#X restore 350 217 pd rh_scalelog;
#N canvas 0 50 458 308 inv_scalelog 0;
#X obj 98 87 log;
#X obj 194 84 log;
#X obj 123 123 t b f;
#X obj 123 145 -;
#X obj 20 183 outlet;
#X obj 20 19 inlet;
#X obj 98 23 inlet;
#X obj 194 24 inlet;
#X obj 34 65 log;
#X obj 20 130 -;
#X obj 20 156 /;
#X connect 0 0 2 0;
#X connect 0 0 9 1;
#X connect 1 0 3 0;
#X connect 2 0 3 0;
#X connect 2 1 3 1;
#X connect 3 0 10 1;
#X connect 5 0 8 0;
#X connect 6 0 0 0;
#X connect 7 0 1 0;
#X connect 8 0 9 0;
#X connect 9 0 10 0;
#X connect 10 0 4 0;
#X restore 446 396 pd inv_scalelog;
#X obj 457 99 loadbang;
#X obj 445 140 f \$7;
#X obj 495 140 f \$8;
#X obj 83 248 s \$1-\$2;
#X obj 103 273 r \$1-\$2;
#X obj 34 118 list prepend;
#X obj 35 146 route 1 2;
#X obj 115 95 r \$0-x-type;
#X obj 94 308 list prepend;
#X obj 95 336 route 1 2;
#X obj 175 285 r \$0-x-type;
#X obj 304 118 list prepend;
#X obj 305 146 route 1 2;
#X obj 385 95 r \$0-y-type;
#X obj 344 308 list prepend;
#X obj 345 336 route 1 2;
#X obj 425 285 r \$0-y-type;
#X obj 352 243 s \$1-\$6;
#X obj 353 273 r \$1-\$6;
#X obj 38 186 m_scale 0 1 \$3 \$4;
#X obj 481 -20 declare -stdpath extra/rj/;
#X obj 38 406 m_scale \$3 \$4 0 1;
#X obj 278 186 m_scale 0 1 \$7 \$8;
#X obj 278 406 m_scale \$7 \$8 0 1;
#X obj 608 43 r control-\$1;
#X obj 603 88 symbol;
#X obj 650 217 send;
#X obj 604 58 route get_params midi;
#N canvas 1 56 450 300 init 0;
#X obj 57 99 loadbang;
#X obj 171 119 list append \$5;
#X obj 284 121 list append \$9;
#X obj 198 155 select lin log;
#X obj 308 155 select lin log;
#X msg 190 187 1;
#X msg 310 187 1;
#X msg 230 187 2;
#X msg 350 187 2;
#X obj 175 215 s \$0-x-type;
#X obj 325 215 s \$0-y-type;
#X connect 0 0 1 0;
#X connect 0 0 2 0;
#X connect 1 0 3 0;
#X connect 2 0 4 0;
#X connect 3 0 5 0;
#X connect 3 1 7 0;
#X connect 4 0 6 0;
#X connect 4 1 8 0;
#X connect 5 0 9 0;
#X connect 6 0 10 0;
#X connect 7 0 9 0;
#X connect 8 0 10 0;
#X restore 352 22 pd init;
#X obj 614 175 list append \$2 \$3 \$4 \$5;
#X obj 675 113 / 127;
#X obj 676 90 route \$2 \$6;
#X obj 719 113 / 127;
#X obj 604 116 t b b s;
#X obj 624 145 list append \$6 \$7 \$8 \$9;
#N canvas 378 122 450 281 displaying_values 0;
#X obj 74 59 int;
#X obj 74 37 * 100;
#X obj 73 80 * 0.01;
#X obj 73 13 r \$1-\$2;
#X obj 64 130 s \$0-xval;
#X obj 174 59 int;
#X obj 174 37 * 100;
#X obj 173 80 * 0.01;
#X obj 173 13 r \$1-\$6;
#X obj 164 130 s \$0-yval;
#X msg 320 84 label;
#X msg 314 158 color 0 \$1;
#X floatatom 328 124 5 0 0 0 - - -, f 5;
#X msg 39 103 label =\$1;
#X msg 172 103 label =\$1;
#X connect 0 0 2 0;
#X connect 1 0 0 0;
#X connect 2 0 13 0;
#X connect 3 0 1 0;
#X connect 5 0 7 0;
#X connect 6 0 5 0;
#X connect 7 0 14 0;
#X connect 8 0 6 0;
#X connect 10 0 9 0;
#X connect 10 0 4 0;
#X connect 11 0 4 0;
#X connect 12 0 11 0;
#X connect 13 0 4 0;
#X connect 14 0 9 0;
#X restore 855 -18 pd displaying_values;
#X obj 0 7 cnv 1 1 1 empty \$0-xval empty 1 6 0 10 -262144 -1 0;
#X obj 0 26 cnv 1 1 1 empty \$0-yval empty 1 6 0 10 -262144 -1 0;
#X obj 0 0 cnv 1 1 1 empty empty \$2 1 5 0 10 -1 -258699 0;
#X obj 0 19 cnv 1 1 1 empty empty \$6 2 5 0 10 -1 -62784 0;
#X obj 791 257 route showLastUsed;
#X obj 612 281 spigot;
#X obj 609 361 list append \$2;
#X msg 607 382 lastUsed \$1;
#X obj 850 283 select 0;
#X obj 983 278 s \$0-tgl-rcv;
#X msg 989 320 color 0 0 0;
#X msg 979 350 color \$1 \$1 \$1;
#X obj 644 336 list append \$6;
#X obj 613 301 select 1 2;
#X obj 445 26 r \$1-\$2-midi-ctl;
#X obj 447 50 r \$1-\$6-midi-ctl;
#X obj 608 403 s \$1-RACK_ADMIN;
#X obj 793 232 r RACK_ADMIN;
#X obj 294 43 change;
#X obj 294 65 s \$1-\$2-\$6-click;
#X obj 282 -4 receivecanvas 3;
#X obj 373 -53 receivecanvas 4;
#X connect 4 0 7 0;
#X connect 5 0 7 0;
#X connect 6 0 7 0;
#X connect 7 0 22 0;
#X connect 7 1 28 0;
#X connect 7 2 58 0;
#X connect 7 3 71 0;
#X connect 8 0 7 1;
#X connect 8 0 7 2;
#X connect 9 0 8 0;
#X connect 10 0 20 0;
#X connect 11 0 10 1;
#X connect 11 0 13 1;
#X connect 12 0 10 2;
#X connect 12 0 13 2;
#X connect 13 0 7 1;
#X connect 14 0 11 0;
#X connect 14 0 12 0;
#X connect 15 0 34 0;
#X connect 16 0 7 2;
#X connect 17 0 18 0;
#X connect 17 0 19 0;
#X connect 18 0 15 1;
#X connect 18 0 16 1;
#X connect 19 0 15 2;
#X connect 19 0 16 2;
#X connect 21 0 25 0;
#X connect 22 0 23 0;
#X connect 23 0 36 0;
#X connect 23 1 10 0;
#X connect 24 0 22 1;
#X connect 25 0 26 0;
#X connect 26 0 38 0;
#X connect 26 1 13 0;
#X connect 27 0 25 1;
#X connect 28 0 29 0;
#X connect 29 0 39 0;
#X connect 29 1 15 0;
#X connect 30 0 28 1;
#X connect 31 0 32 0;
#X connect 32 0 40 0;
#X connect 32 1 16 0;
#X connect 33 0 31 1;
#X connect 35 0 31 0;
#X connect 36 0 20 0;
#X connect 38 0 7 1;
#X connect 39 0 34 0;
#X connect 40 0 7 2;
#X connect 41 0 44 0;
#X connect 42 0 50 0;
#X connect 44 0 42 0;
#X connect 44 1 48 0;
#X connect 46 0 43 0;
#X connect 47 0 22 0;
#X connect 48 0 47 0;
#X connect 48 1 49 0;
#X connect 49 0 28 0;
#X connect 50 0 46 0;
#X connect 50 1 51 0;
#X connect 50 2 43 1;
#X connect 51 0 43 0;
#X connect 57 0 58 1;
#X connect 57 0 61 0;
#X connect 58 0 66 0;
#X connect 59 0 60 0;
#X connect 60 0 69 0;
#X connect 61 0 63 0;
#X connect 61 1 64 0;
#X connect 63 0 62 0;
#X connect 64 0 62 0;
#X connect 65 0 60 0;
#X connect 66 0 59 0;
#X connect 66 1 65 0;
#X connect 67 0 47 0;
#X connect 68 0 49 0;
#X connect 70 0 57 0;
#X connect 71 0 72 0;
#X connect 73 0 7 0;
#X connect 74 0 7 0;
#X coords 0 -1 1 1 36 36 2 0 0;
