#N canvas 625 223 366 560 10;
#X obj 83 126 symbol;
#X obj 82 396 makefilename %s%s;
#X obj 82 350 symbol;
#X obj 82 308 unpack s s;
#X obj 152 124 symbol;
#X msg 139 349 set \$1%s;
#X obj 83 35 inlet;
#X obj 82 505 outlet;
#X obj 152 35 inlet;
#X obj 82 280 symbol_buddy;
#X connect 0 0 9 0;
#X connect 1 0 7 0;
#X connect 2 0 1 0;
#X connect 3 0 2 0;
#X connect 3 1 5 0;
#X connect 4 0 9 1;
#X connect 5 0 1 0;
#X connect 6 0 0 0;
#X connect 8 0 4 0;
#X connect 9 0 3 0;
