#N canvas 129 26 1208 725 10;
#X obj 101 618 outlet;
#X obj 181 50 inlet;
#X obj 218 430 cvDrawCircle;
#X obj 36 167 loadbang;
#X msg 53 277 color \$1 \$2 \$3 \, width 3;
#X obj 132 578 cvDrawCircle;
#X msg 311 529 8;
#X msg 20 332 color \$1 \$2 \$3 \, width -1;
#X obj 223 466 t b;
#X msg 341 458 3;
#X obj 55 209 list append \$2 \$3 \$4;
#X obj 352 121 r \$1;
#X obj 281 355 t f b;
#X msg 363 404 8;
#X obj 314 504 loadbang;
#X obj 352 160 route float list;
#X obj 414 210 unpack f f;
#X obj 176 133 spigot;
#X obj 257 76 == 0;
#X obj 94 105 spigot 1;
#X obj 146 554 tabread \$1.x;
#X obj 187 530 tabread \$1.y;
#X obj 156 507 t f f;
#X msg 156 487 0;
#X obj 245 390 f;
#X obj 215 356 t a b;
#X obj 139 456 t a b;
#X connect 1 0 17 0;
#X connect 1 0 19 0;
#X connect 2 0 8 0;
#X connect 2 0 26 0;
#X connect 3 0 10 0;
#X connect 4 0 2 0;
#X connect 5 0 0 0;
#X connect 6 0 5 3;
#X connect 7 0 5 0;
#X connect 8 0 9 0;
#X connect 9 0 2 3;
#X connect 10 0 4 0;
#X connect 10 0 7 0;
#X connect 11 0 15 0;
#X connect 12 0 24 1;
#X connect 12 1 13 0;
#X connect 13 0 2 3;
#X connect 14 0 6 0;
#X connect 15 0 17 1;
#X connect 15 0 18 0;
#X connect 15 1 16 0;
#X connect 16 0 12 0;
#X connect 16 1 2 2;
#X connect 17 0 25 0;
#X connect 18 0 19 1;
#X connect 19 0 0 0;
#X connect 20 0 5 1;
#X connect 21 0 5 2;
#X connect 22 0 20 0;
#X connect 22 1 21 0;
#X connect 23 0 22 0;
#X connect 24 0 2 1;
#X connect 25 0 2 0;
#X connect 25 1 24 0;
#X connect 26 0 5 0;
#X connect 26 1 23 0;
