#N canvas 329 53 852 601 12;
#X obj 179 60 t a a;
#X obj 179 130 cvRouteContours 1;
#X text 408 86 détection des contours de taille A4;
#X text 440 107 (blancs sur fond noir);
#N canvas 0 50 959 715 selection_inner_contours(obsolete) 0;
#X obj 362 27 inlet outer_contour;
#X obj 65 22 inlet all_contours;
#X obj 51 79 t a a;
#X obj 314 266 cvContoursFeature BoundingRect;
#N canvas 0 50 450 300 critère_inclusion 0;
#X obj 78 40 inlet;
#X obj 267 50 inlet;
#X obj 123 413 outlet;
#X obj 69 96 unpack f f f f;
#X obj 279 96 unpack f f f f;
#X obj 296 195 +;
#X obj 239 132 t f f;
#X obj 356 195 +;
#X obj 299 132 t f f;
#X obj 73 125 t f f;
#X obj 102 166 +;
#X obj 137 124 t f f;
#X obj 170 164 +;
#X obj 88 266 >;
#X obj 128 266 <;
#X obj 198 266 >;
#X obj 238 266 <;
#X obj 101 322 &&;
#X obj 195 322 &&;
#X obj 296 170 - 5;
#X obj 356 170 - 5;
#X obj 218 173 + 5;
#X obj 240 207 + 5;
#X obj 127 371 &&;
#X connect 0 0 3 0;
#X connect 1 0 4 0;
#X connect 3 0 9 0;
#X connect 3 1 11 0;
#X connect 3 2 10 1;
#X connect 3 3 12 1;
#X connect 4 0 6 0;
#X connect 4 1 8 0;
#X connect 4 2 5 1;
#X connect 4 3 7 1;
#X connect 5 0 14 1;
#X connect 6 0 21 0;
#X connect 6 1 19 0;
#X connect 7 0 16 1;
#X connect 8 0 22 0;
#X connect 8 1 20 0;
#X connect 9 0 13 0;
#X connect 9 1 10 0;
#X connect 10 0 14 0;
#X connect 11 0 15 0;
#X connect 11 1 12 0;
#X connect 12 0 16 0;
#X connect 13 0 17 0;
#X connect 14 0 17 1;
#X connect 15 0 18 0;
#X connect 16 0 18 1;
#X connect 17 0 23 0;
#X connect 18 0 23 1;
#X connect 19 0 5 0;
#X connect 20 0 7 0;
#X connect 21 0 13 1;
#X connect 22 0 15 1;
#X connect 23 0 2 0;
#X restore 147 324 pd critère_inclusion;
#X obj 87 126 cvContoursFeature BoundingRect;
#X obj 445 73 t a b;
#X text 683 106 explode;
#N canvas 0 50 450 300 critère_inclusion 0;
#X obj 78 40 inlet;
#X obj 267 50 inlet;
#X obj 123 413 outlet;
#X obj 69 96 unpack f f f f;
#X obj 279 96 unpack f f f f;
#X obj 296 195 +;
#X obj 239 132 t f f;
#X obj 356 195 +;
#X obj 299 132 t f f;
#X obj 73 125 t f f;
#X obj 102 166 +;
#X obj 137 124 t f f;
#X obj 170 164 +;
#X obj 88 266 >;
#X obj 128 266 <;
#X obj 198 266 >;
#X obj 238 266 <;
#X obj 101 322 &&;
#X obj 195 322 &&;
#X obj 296 170 - 5;
#X obj 356 170 - 5;
#X obj 218 173 + 5;
#X obj 240 207 + 5;
#X obj 127 371 &&;
#X connect 0 0 3 0;
#X connect 1 0 4 0;
#X connect 3 0 9 0;
#X connect 3 1 11 0;
#X connect 3 2 10 1;
#X connect 3 3 12 1;
#X connect 4 0 6 0;
#X connect 4 1 8 0;
#X connect 4 2 5 1;
#X connect 4 3 7 1;
#X connect 5 0 14 1;
#X connect 6 0 21 0;
#X connect 6 1 19 0;
#X connect 7 0 16 1;
#X connect 8 0 22 0;
#X connect 8 1 20 0;
#X connect 9 0 13 0;
#X connect 9 1 10 0;
#X connect 10 0 14 0;
#X connect 11 0 15 0;
#X connect 11 1 12 0;
#X connect 12 0 16 0;
#X connect 13 0 17 0;
#X connect 14 0 17 1;
#X connect 15 0 18 0;
#X connect 16 0 18 1;
#X connect 17 0 23 0;
#X connect 18 0 23 1;
#X connect 19 0 5 0;
#X connect 20 0 7 0;
#X connect 21 0 13 1;
#X connect 22 0 15 1;
#X connect 23 0 2 0;
#X restore 190 361 pd critère_inclusion;
#N canvas 0 50 450 300 critère_inclusion 0;
#X obj 78 40 inlet;
#X obj 267 50 inlet;
#X obj 123 413 outlet;
#X obj 69 96 unpack f f f f;
#X obj 279 96 unpack f f f f;
#X obj 296 195 +;
#X obj 239 132 t f f;
#X obj 356 195 +;
#X obj 299 132 t f f;
#X obj 73 125 t f f;
#X obj 102 166 +;
#X obj 137 124 t f f;
#X obj 170 164 +;
#X obj 88 266 >;
#X obj 128 266 <;
#X obj 198 266 >;
#X obj 238 266 <;
#X obj 101 322 &&;
#X obj 195 322 &&;
#X obj 296 170 - 5;
#X obj 356 170 - 5;
#X obj 218 173 + 5;
#X obj 240 207 + 5;
#X obj 127 371 &&;
#X connect 0 0 3 0;
#X connect 1 0 4 0;
#X connect 3 0 9 0;
#X connect 3 1 11 0;
#X connect 3 2 10 1;
#X connect 3 3 12 1;
#X connect 4 0 6 0;
#X connect 4 1 8 0;
#X connect 4 2 5 1;
#X connect 4 3 7 1;
#X connect 5 0 14 1;
#X connect 6 0 21 0;
#X connect 6 1 19 0;
#X connect 7 0 16 1;
#X connect 8 0 22 0;
#X connect 8 1 20 0;
#X connect 9 0 13 0;
#X connect 9 1 10 0;
#X connect 10 0 14 0;
#X connect 11 0 15 0;
#X connect 11 1 12 0;
#X connect 12 0 16 0;
#X connect 13 0 17 0;
#X connect 14 0 17 1;
#X connect 15 0 18 0;
#X connect 16 0 18 1;
#X connect 17 0 23 0;
#X connect 18 0 23 1;
#X connect 19 0 5 0;
#X connect 20 0 7 0;
#X connect 21 0 13 1;
#X connect 22 0 15 1;
#X connect 23 0 2 0;
#X restore 257 397 pd critère_inclusion;
#N canvas 0 50 450 300 critère_inclusion 0;
#X obj 78 40 inlet;
#X obj 267 50 inlet;
#X obj 123 413 outlet;
#X obj 69 96 unpack f f f f;
#X obj 279 96 unpack f f f f;
#X obj 296 195 +;
#X obj 239 132 t f f;
#X obj 356 195 +;
#X obj 299 132 t f f;
#X obj 73 125 t f f;
#X obj 102 166 +;
#X obj 137 124 t f f;
#X obj 170 164 +;
#X obj 88 266 >;
#X obj 128 266 <;
#X obj 198 266 >;
#X obj 238 266 <;
#X obj 101 322 &&;
#X obj 195 322 &&;
#X obj 296 170 - 5;
#X obj 356 170 - 5;
#X obj 218 173 + 5;
#X obj 240 207 + 5;
#X obj 127 371 &&;
#X connect 0 0 3 0;
#X connect 1 0 4 0;
#X connect 3 0 9 0;
#X connect 3 1 11 0;
#X connect 3 2 10 1;
#X connect 3 3 12 1;
#X connect 4 0 6 0;
#X connect 4 1 8 0;
#X connect 4 2 5 1;
#X connect 4 3 7 1;
#X connect 5 0 14 1;
#X connect 6 0 21 0;
#X connect 6 1 19 0;
#X connect 7 0 16 1;
#X connect 8 0 22 0;
#X connect 8 1 20 0;
#X connect 9 0 13 0;
#X connect 9 1 10 0;
#X connect 10 0 14 0;
#X connect 11 0 15 0;
#X connect 11 1 12 0;
#X connect 12 0 16 0;
#X connect 13 0 17 0;
#X connect 14 0 17 1;
#X connect 15 0 18 0;
#X connect 16 0 18 1;
#X connect 17 0 23 0;
#X connect 18 0 23 1;
#X connect 19 0 5 0;
#X connect 20 0 7 0;
#X connect 21 0 13 1;
#X connect 22 0 15 1;
#X connect 23 0 2 0;
#X restore 300 434 pd critère_inclusion;
#X obj 396 150 cvRouteContours 1 2 3 4;
#X obj 383 239 cvContoursFeature BoundingRect;
#X obj 449 210 cvContoursFeature BoundingRect;
#X obj 518 183 cvContoursFeature BoundingRect;
#X obj 284 463 * 4;
#X obj 180 510 cvRouteContours 1 2 3 4;
#X obj 246 449 * 3;
#X obj 190 401 * 2;
#X obj 153 443 +;
#X obj 169 475 +;
#X obj 217 477 +;
#X obj 81 557 outlet inner_contours1;
#X obj 299 564 outlet inner_contours2;
#X obj 491 558 outlet inner_contours3;
#X obj 708 563 outlet inner_contours4;
#X msg 537 102 1 2 3 4;
#X obj 668 26 inlet;
#X obj 555 366 * 2;
#X obj 625 368 * 3;
#X obj 590 317 > 1;
#X obj 648 315 > 2;
#X obj 713 316 > 3;
#X obj 528 325 > 0;
#X connect 0 0 6 0;
#X connect 1 0 2 0;
#X connect 2 0 16 0;
#X connect 2 1 5 0;
#X connect 3 0 4 1;
#X connect 4 0 19 0;
#X connect 5 0 4 0;
#X connect 5 0 8 0;
#X connect 5 0 9 0;
#X connect 5 0 10 0;
#X connect 6 0 11 0;
#X connect 6 1 26 0;
#X connect 8 0 18 0;
#X connect 9 0 17 0;
#X connect 10 0 15 0;
#X connect 11 0 3 0;
#X connect 11 1 12 0;
#X connect 11 2 13 0;
#X connect 11 3 14 0;
#X connect 12 0 8 1;
#X connect 13 0 9 1;
#X connect 14 0 10 1;
#X connect 15 0 21 1;
#X connect 16 0 22 0;
#X connect 16 1 23 0;
#X connect 16 2 24 0;
#X connect 16 3 25 0;
#X connect 17 0 20 1;
#X connect 18 0 19 1;
#X connect 19 0 20 0;
#X connect 20 0 21 0;
#X connect 21 0 16 1;
#X connect 26 0 11 1;
#X restore 319 260 pd selection_inner_contours(obsolete);
#N canvas 0 50 993 468 critère_rectangleA4 0;
#X obj 120 24 inlet;
#X obj 94 314 outlet;
#X obj 119 63 cvContoursFeature MinAreaRect Area IsHole Perimeter;
#X obj 119 117 list append;
#X obj 603 15 t f f;
#X obj 609 39 *;
#X obj 608 74 * 0.21;
#X obj 604 102 * 0.297;
#X obj 671 -3 loadbang;
#X obj 572 -23 bng 15 250 50 0 empty empty empty 17 7 0 10 -262144
-1 -1;
#X obj 389 96 pack f f f;
#X obj 118 145 list split 2;
#X obj 716 38 r \$0-scale;
#X obj 596 -12 f \$1;
#X obj 518 -14 inlet;
#X obj 130 247 expr (($f1*$f2)>$f7*0.85)*(($f1*$f2)<$f7*1.15)*(($f1*$f2/$f4)<1.15)*(1-$f5)
, f 40;
#X connect 0 0 2 0;
#X connect 2 0 3 0;
#X connect 2 1 10 0;
#X connect 2 2 10 1;
#X connect 2 3 10 2;
#X connect 3 0 11 0;
#X connect 4 0 5 0;
#X connect 4 1 5 1;
#X connect 5 0 6 0;
#X connect 6 0 7 0;
#X connect 7 0 15 6;
#X connect 8 0 13 0;
#X connect 9 0 13 0;
#X connect 10 0 3 1;
#X connect 11 1 15 0;
#X connect 13 0 4 0;
#X connect 14 0 13 0;
#X connect 15 0 1 0;
#X restore 216 95 pd critère_rectangleA4;
#X obj 468 15 inlet scale;
#X obj 98 377 outlet big_contours_approx;
#X obj 379 208 outlet other_contours;
#X obj 150 30 inlet;
#X obj 598 351 outlet;
#X obj 442 147 select 1;
#X obj 698 223 delay 200;
#X msg 698 256 0;
#X obj 673 316 change;
#X msg 655 224 1;
#X obj 652 190 t b b;
#X connect 0 0 1 0;
#X connect 0 1 5 0;
#X connect 1 0 7 0;
#X connect 1 1 8 0;
#X connect 5 0 1 1;
#X connect 5 0 11 0;
#X connect 6 0 5 1;
#X connect 9 0 0 0;
#X connect 11 0 16 0;
#X connect 12 0 13 0;
#X connect 13 0 14 0;
#X connect 14 0 10 0;
#X connect 15 0 14 0;
#X connect 16 0 15 0;
#X connect 16 1 12 0;
