#N canvas 247 50 1033 706 24;
#X text 39 49 note on = 72 64;
#X text 45 79 note off = 72 0;
#X obj -187 532 route 9 10 11 12 13 14 15 16;
#X obj 41 5 inlet;
#X obj 252 621 module_synthetiser_upic2 \$1;
#X obj -53 621 module_synthetiser_upic2 \$1;
#X obj -97 669 module_synthetiser_upic2 \$1;
#X obj 207 673 module_synthetiser_upic2 \$1;
#X obj 160 720 module_synthetiser_upic2 \$1;
#X obj -142 719 module_synthetiser_upic2 \$1;
#X obj -186 760 module_synthetiser_upic2 \$1;
#X obj 118 763 module_synthetiser_upic2 \$1;
#X obj 41 194 pack f f f;
#X obj 40 249 route 1 2 3 4 5 6 7 8;
#X obj 41 147 poly 16;
#X obj 40 342 module_synthetiser_upic2 \$1;
#X obj 478 340 module_synthetiser_upic2 \$1;
#X obj 435 389 module_synthetiser_upic2 \$1;
#X obj 129 386 module_synthetiser_upic2 \$1;
#X obj 84 435 module_synthetiser_upic2 \$1;
#X obj 387 438 module_synthetiser_upic2 \$1;
#X obj 40 477 module_synthetiser_upic2 \$1;
#X obj 345 480 module_synthetiser_upic2 \$1;
#X connect 2 0 10 0;
#X connect 2 1 9 0;
#X connect 2 2 6 0;
#X connect 2 3 5 0;
#X connect 2 4 11 0;
#X connect 2 5 8 0;
#X connect 2 6 7 0;
#X connect 2 7 4 0;
#X connect 3 0 14 0;
#X connect 12 0 13 0;
#X connect 13 0 21 0;
#X connect 13 1 19 0;
#X connect 13 2 18 0;
#X connect 13 3 15 0;
#X connect 13 4 22 0;
#X connect 13 5 20 0;
#X connect 13 6 17 0;
#X connect 13 7 16 0;
#X connect 13 8 2 0;
#X connect 14 0 12 0;
#X connect 14 1 12 1;
#X connect 14 2 12 2;
