#N canvas 252 60 1073 640 12;
#N canvas 80 66 1034 716 scan 0;
#X obj 156 464 pix_data;
#X obj 292 238 until;
#X obj 489 10 inlet;
#X obj 694 16 inlet;
#X obj 691 70 unpack f f;
#X obj 489 66 unpack f f;
#N canvas 311 50 602 608 compteur 0;
#X obj 397 30 inlet from;
#X obj 201 21 inlet to;
#X obj 234 184 -;
#X obj 38 104 inlet;
#X obj 248 371 /;
#X obj 147 467 +;
#X obj 143 271 f;
#X obj 187 418 +;
#X obj 99 418 f;
#X obj 136 521 outlet;
#X obj 24 168 route bang;
#X obj 277 342 + 1;
#X obj 116 226 t f b f;
#X obj 97 344 expr 1/($f1+1)*$f2;
#X floatatom 124 164 5 0 0 0 - - -, f 5;
#X connect 0 0 2 1;
#X connect 0 0 5 1;
#X connect 1 0 2 0;
#X connect 2 0 6 1;
#X connect 2 0 13 1;
#X connect 3 0 10 0;
#X connect 4 0 7 1;
#X connect 5 0 9 0;
#X connect 6 0 4 0;
#X connect 7 0 8 1;
#X connect 8 0 7 0;
#X connect 8 0 5 0;
#X connect 10 0 8 0;
#X connect 10 1 12 0;
#X connect 10 1 14 0;
#X connect 11 0 4 1;
#X connect 12 0 13 0;
#X connect 12 1 6 0;
#X connect 12 2 11 0;
#X connect 13 0 8 1;
#X restore 464 402 pd compteur;
#N canvas 0 50 602 608 compteur 0;
#X obj 378 88 inlet from;
#X obj 178 91 inlet to;
#X obj 234 184 -;
#X obj 38 104 inlet;
#X obj 245 349 /;
#X obj 323 474 +;
#X obj 170 301 f;
#X obj 187 418 +;
#X obj 99 418 f;
#X obj 320 528 outlet;
#X obj 24 168 route bang;
#X obj 305 313 + 1;
#X obj 116 226 t f b f;
#X obj 106 342 expr 1/($f1+1)*$f2;
#X connect 0 0 2 1;
#X connect 0 0 5 1;
#X connect 1 0 2 0;
#X connect 2 0 6 1;
#X connect 2 0 13 1;
#X connect 3 0 10 0;
#X connect 4 0 7 1;
#X connect 5 0 9 0;
#X connect 6 0 4 0;
#X connect 7 0 8 1;
#X connect 8 0 7 0;
#X connect 8 0 5 0;
#X connect 10 0 8 0;
#X connect 10 1 12 0;
#X connect 11 0 4 1;
#X connect 12 0 13 0;
#X connect 12 1 6 0;
#X connect 12 2 11 0;
#X connect 13 0 8 1;
#X restore 268 403 pd compteur;
#X obj 738 381 f;
#X obj 803 380 + 1;
#X msg 792 338 0;
#X obj 315 140 t f f f b;
#X obj 180 345 t b b b b;
#X obj 402 693 outlet midiout;
#X text 481 105 x1;
#X text 585 108 y1;
#X text 689 115 x2;
#X text 807 117 y2;
#X obj 262 55 t b a a;
#X obj 396 89 pix_info;
#X obj 465 158 /;
#X obj 653 176 /;
#X obj 514 159 /;
#X obj 597 177 /;
#X obj 295 11 inlet;
#X obj 195 711 outlet;
#X obj 193 681 pack f f f;
#X obj 363 10 inlet resolution;
#X obj 382 36 int;
#X obj 135 146 min 256;
#X obj 132 107 max 1;
#X obj 899 152 r \$0-height;
#X obj 901 72 r \$0-width;
#X obj 345 459 loadbang;
#X msg 564 415 0.5;
#X obj 571 443 f;
#X obj 504 475 +;
#X obj 519 444 * 0.93;
#X obj 464 442 * 0.07;
#X obj 302 106 f \$1;
#X obj 253 614 t f f;
#X obj 722 571 outlet index;
#X obj 251 585 < 0.5;
#X obj 325 571 spigot \$3;
#X obj 845 32 inlet margins;
#X obj 570 303 expr $f1+($f2-$f1)*$f3/2 \; $f2-($f2-$f1)*$f3/2;
#X obj 357 262 expr $f1+($f2-$f1)*$f3/2 \; $f2-($f2-$f1)*$f3/2;
#X obj 504 500 - 0;
#X obj 334 513 * 0.8;
#X connect 0 2 38 0;
#X connect 0 2 42 0;
#X connect 1 0 12 0;
#X connect 2 0 5 0;
#X connect 3 0 4 0;
#X connect 4 0 23 0;
#X connect 4 1 21 0;
#X connect 5 0 20 0;
#X connect 5 1 22 0;
#X connect 6 0 0 3;
#X connect 6 0 26 2;
#X connect 7 0 0 2;
#X connect 7 0 26 1;
#X connect 8 0 9 0;
#X connect 8 0 41 0;
#X connect 9 0 8 1;
#X connect 10 0 8 1;
#X connect 11 0 1 0;
#X connect 11 1 7 0;
#X connect 11 2 6 0;
#X connect 11 3 10 0;
#X connect 12 0 0 0;
#X connect 12 1 7 0;
#X connect 12 2 6 0;
#X connect 12 3 8 0;
#X connect 18 0 39 0;
#X connect 18 1 0 1;
#X connect 18 2 19 0;
#X connect 19 1 20 1;
#X connect 19 1 23 1;
#X connect 19 2 21 1;
#X connect 19 2 22 1;
#X connect 20 0 46 0;
#X connect 21 0 45 1;
#X connect 22 0 45 0;
#X connect 23 0 46 1;
#X connect 24 0 18 0;
#X connect 26 0 25 0;
#X connect 27 0 28 0;
#X connect 28 0 30 0;
#X connect 29 0 39 1;
#X connect 30 0 29 0;
#X connect 33 0 34 0;
#X connect 34 0 37 0;
#X connect 36 0 37 0;
#X connect 36 0 47 0;
#X connect 37 0 36 1;
#X connect 38 0 36 0;
#X connect 39 0 11 0;
#X connect 40 0 26 0;
#X connect 40 1 13 0;
#X connect 42 0 40 0;
#X connect 43 0 42 1;
#X connect 44 0 45 2;
#X connect 44 0 46 2;
#X connect 45 0 6 1;
#X connect 45 1 6 2;
#X connect 46 0 7 1;
#X connect 46 1 7 2;
#X connect 47 0 48 0;
#X connect 48 0 43 0;
#X coords 0 0 1 1 200 200 0;
#X restore 104 272 pd scan;
#N canvas 106 50 1132 695 double_interpolation 0;
#X obj 386 368 *;
#X obj 349 323 t f f;
#X obj 309 355 - 1;
#X obj 308 377 * -1;
#X obj 311 408 *;
#X obj 318 441 +;
#X obj 505 359 *;
#X obj 468 314 t f f;
#X obj 428 346 - 1;
#X obj 427 368 * -1;
#X obj 430 399 *;
#X obj 437 432 +;
#X obj 303 515 outlet;
#X obj 360 491 pack f f;
#X floatatom 826 294 5 0 0 0 - - -, f 5;
#X obj 814 377 *;
#X obj 777 332 t f f;
#X obj 737 364 - 1;
#X obj 736 386 * -1;
#X obj 739 417 *;
#X obj 746 450 +;
#X obj 933 368 *;
#X obj 896 323 t f f;
#X obj 856 355 - 1;
#X obj 855 377 * -1;
#X obj 858 408 *;
#X obj 865 441 +;
#X obj 731 524 outlet;
#X obj 788 500 pack f f;
#X obj 51 6 inlet index;
#X obj 499 -13 inlet points;
#X obj 499 31 unpack f f f f f f f f;
#X obj 71 133 t f f f f;
#X connect 0 0 5 1;
#X connect 1 0 2 0;
#X connect 1 1 0 0;
#X connect 2 0 3 0;
#X connect 3 0 4 0;
#X connect 4 0 5 0;
#X connect 5 0 13 0;
#X connect 6 0 11 1;
#X connect 7 0 8 0;
#X connect 7 1 6 0;
#X connect 8 0 9 0;
#X connect 9 0 10 0;
#X connect 10 0 11 0;
#X connect 11 0 13 1;
#X connect 13 0 12 0;
#X connect 15 0 20 1;
#X connect 16 0 17 0;
#X connect 16 1 15 0;
#X connect 17 0 18 0;
#X connect 18 0 19 0;
#X connect 19 0 20 0;
#X connect 20 0 28 0;
#X connect 21 0 26 1;
#X connect 22 0 23 0;
#X connect 22 1 21 0;
#X connect 23 0 24 0;
#X connect 24 0 25 0;
#X connect 25 0 26 0;
#X connect 26 0 28 1;
#X connect 28 0 27 0;
#X connect 29 0 32 0;
#X connect 30 0 31 0;
#X connect 31 0 4 1;
#X connect 31 1 10 1;
#X connect 31 2 0 1;
#X connect 31 3 6 1;
#X connect 31 4 19 1;
#X connect 31 5 25 1;
#X connect 31 6 15 1;
#X connect 31 7 21 1;
#X connect 32 0 1 0;
#X connect 32 1 7 0;
#X connect 32 2 16 0;
#X connect 32 3 22 0;
#X restore 338 248 pd double_interpolation;
#X obj 94 -5 inlet pix;
#N canvas 628 61 479 602 timeline 0;
#X obj 124 409 line;
#X obj 125 338 f;
#X obj 122 307 metro 10000;
#X obj 427 75 tgl 15 0 empty empty empty 17 7 0 10 -262144 -1 -1 1
1;
#X msg 214 350 stop;
#X obj 82 -20 inlet speed;
#X obj 132 57 expr 1000/$f1;
#X obj 154 156 expr (1-$f2)* $f1;
#X obj 267 240 delay;
#X msg 257 270 1;
#X msg 122 190 stop;
#X obj 303 29 select 0;
#X obj 151 126 spigot;
#X msg 295 203 stop;
#X msg 173 228 1 \$1;
#X obj 290 -13 route float bang;
#X obj 396 31 t b;
#X obj 286 -36 inlet;
#X obj 125 94 t b f f;
#X obj 272 435 outlet bang;
#X obj 122 442 outlet index;
#X msg 123 364 0 \, 1 \$1;
#X connect 0 0 7 1;
#X connect 0 0 20 0;
#X connect 1 0 21 0;
#X connect 2 0 1 0;
#X connect 2 0 19 0;
#X connect 3 0 2 0;
#X connect 4 0 0 0;
#X connect 5 0 6 0;
#X connect 6 0 1 1;
#X connect 6 0 18 0;
#X connect 7 0 14 0;
#X connect 7 0 8 0;
#X connect 8 0 9 0;
#X connect 9 0 2 0;
#X connect 10 0 2 0;
#X connect 11 0 4 0;
#X connect 11 0 13 0;
#X connect 12 0 7 0;
#X connect 13 0 8 0;
#X connect 14 0 0 0;
#X connect 15 0 11 0;
#X connect 15 0 3 0;
#X connect 15 0 12 1;
#X connect 15 1 16 0;
#X connect 16 0 1 0;
#X connect 17 0 15 0;
#X connect 18 0 10 0;
#X connect 18 1 12 0;
#X connect 18 2 2 1;
#X connect 21 0 0 0;
#X restore 187 175 pd timeline;
#X obj 87 196 s \$0-width;
#X obj 172 198 s \$0-height;
#X obj 69 127 pix_info -----;
#X obj 795 8 r \$0-height;
#X obj 692 7 r \$0-width;
#X obj 653 87 change;
#X msg 802 96 set -1;
#X obj 187 129 expr 1/$f1;
#X obj 268 126 t b b;
#X msg 299 151 0;
#X obj 300 562 outlet midi_out;
#X obj 91 352 outlet scan_out;
#X obj 38 98 list trim;
#X obj 69 72 list prepend gem_state;
#X obj 813 71 change;
#X obj 814 41 t f f;
#X obj 666 193 pack f f;
#X msg 626 234 0 0 \$1 0 0 \$2 \$1 \$2;
#X msg 419 172 stop;
#N canvas 0 50 835 525 déclencheur_midi2 0;
#X obj 28 30 inlet valeur;
#X obj 315 5 inlet indice;
#X obj 315 83 t f f f;
#X obj 304 450 pack f f;
#X msg 301 333 0;
#X obj 282 481 outlet;
#X obj 320 396 swap;
#X msg 18 428 const 0;
#X obj 29 63 route stop;
#X msg 209 424 stop;
#X obj 27 368 t b b;
#X obj 450 17 * \$2;
#X obj 451 66 int;
#X obj 108 92 > 0;
#X obj 179 209 +;
#X obj 128 123 select 0 1;
#X msg 167 157 1;
#X obj 176 233 t f f;
#X obj 209 269 select 1;
#X obj 87 212 f;
#X obj 89 262 select 1 0;
#X obj 88 296 t b b;
#X msg 92 336 0;
#X obj 192 297 - 1;
#X obj 540 103 table \$0-bar2 \$2;
#X obj 330 148 tabread \$0-bar2;
#X obj 182 366 tabwrite \$0-bar2;
#X obj 18 453 s \$0-bar2;
#X obj 449 -8 / \$1;
#X msg 353 323 100;
#X connect 0 0 8 0;
#X connect 1 0 28 0;
#X connect 2 0 26 1;
#X connect 2 1 25 0;
#X connect 2 2 6 1;
#X connect 3 0 5 0;
#X connect 4 0 6 0;
#X connect 6 0 3 0;
#X connect 6 1 3 1;
#X connect 7 0 27 0;
#X connect 8 0 10 0;
#X connect 8 1 13 0;
#X connect 9 0 5 0;
#X connect 10 0 7 0;
#X connect 10 1 9 0;
#X connect 11 0 12 0;
#X connect 12 0 2 0;
#X connect 13 0 15 0;
#X connect 14 0 17 0;
#X connect 15 0 19 0;
#X connect 15 1 16 0;
#X connect 16 0 14 0;
#X connect 17 0 26 0;
#X connect 17 1 18 0;
#X connect 18 0 29 0;
#X connect 19 0 20 0;
#X connect 20 0 21 0;
#X connect 20 2 23 0;
#X connect 21 0 22 0;
#X connect 21 1 4 0;
#X connect 22 0 26 0;
#X connect 23 0 26 0;
#X connect 25 0 14 1;
#X connect 25 0 19 1;
#X connect 28 0 11 0;
#X connect 29 0 6 0;
#X restore 366 500 pd déclencheur_midi2;
#N canvas 0 50 835 525 pixel_event_tracker 0;
#X obj 28 30 inlet valeur;
#X obj 316 37 inlet indice;
#X obj 320 233 -;
#X obj 336 287 select -1 1;
#X obj 315 83 t f f f;
#X obj 304 450 pack f f;
#X msg 301 333 0;
#X msg 417 335 64;
#X obj 282 481 outlet;
#X obj 61 126 t f f f;
#X obj 315 195 tabread \$0-bar;
#X obj 69 238 tabwrite \$0-bar;
#X obj 320 396 swap;
#X obj 540 103 table \$0-bar \$1;
#X obj 18 453 s \$0-bar;
#X msg 18 428 const 0;
#X obj 118 76 route stop;
#X msg 209 424 stop;
#X obj 106 354 t b b;
#X connect 0 0 16 0;
#X connect 1 0 4 0;
#X connect 2 0 3 0;
#X connect 3 0 6 0;
#X connect 3 1 7 0;
#X connect 4 0 11 1;
#X connect 4 1 10 0;
#X connect 4 2 12 1;
#X connect 5 0 8 0;
#X connect 6 0 12 0;
#X connect 7 0 12 0;
#X connect 9 0 11 0;
#X connect 9 1 2 0;
#X connect 10 0 2 1;
#X connect 12 0 5 0;
#X connect 12 1 5 1;
#X connect 15 0 14 0;
#X connect 16 0 18 0;
#X connect 16 1 9 0;
#X connect 17 0 8 0;
#X connect 18 0 15 0;
#X connect 18 1 17 0;
#X restore 178 304 pd pixel_event_tracker;
#X obj 368 416 unpack f f;
#X obj 267 340 route stop;
#X msg 288 381 stop;
#X obj 390 441 swap;
#X obj 78 40 route gem_state duration float bang index point stop margins
;
#X obj 341 204 expr $f2/2+(1-$f1)*(1-$f2);
#X connect 0 0 15 0;
#X connect 0 1 24 0;
#X connect 0 2 24 1;
#X connect 1 0 0 2;
#X connect 1 1 0 3;
#X connect 2 0 29 0;
#X connect 3 0 30 0;
#X connect 6 0 0 0;
#X connect 6 1 4 0;
#X connect 6 2 5 0;
#X connect 7 0 19 0;
#X connect 8 0 9 0;
#X connect 9 0 20 0;
#X connect 10 0 9 0;
#X connect 11 0 3 0;
#X connect 12 0 3 1;
#X connect 12 1 13 0;
#X connect 13 0 3 1;
#X connect 16 0 6 0;
#X connect 17 0 16 0;
#X connect 18 0 10 0;
#X connect 19 0 18 0;
#X connect 19 1 20 1;
#X connect 20 0 21 0;
#X connect 21 0 1 1;
#X connect 22 0 24 0;
#X connect 23 0 14 0;
#X connect 24 0 26 0;
#X connect 25 0 28 0;
#X connect 25 1 28 1;
#X connect 26 0 27 0;
#X connect 26 1 25 0;
#X connect 27 0 23 0;
#X connect 28 0 23 0;
#X connect 28 1 23 1;
#X connect 29 0 17 0;
#X connect 29 1 11 0;
#X connect 29 2 3 1;
#X connect 29 3 12 0;
#X connect 29 4 30 0;
#X connect 29 5 1 1;
#X connect 29 6 22 0;
#X connect 29 7 0 4;
#X connect 29 7 30 1;
#X connect 30 0 1 0;
#X coords 0 0 1 1 85 20 0;
