#N canvas 30 -11 1011 709 12;
#X obj 26 20 inlet~;
#X obj 479 625 +~;
#N canvas 0 50 462 312 flip-flop 0;
#X obj 147 80 inlet;
#X obj 135 218 outlet;
#X obj 221 219 outlet;
#X obj 147 142 select 0 1;
#X msg 147 182 1;
#X msg 184 182 0;
#X obj 147 116 f 1;
#X msg 239 180 0;
#X msg 288 178 1;
#X obj 231 81 inlet;
#X connect 0 0 6 0;
#X connect 3 0 4 0;
#X connect 3 0 7 0;
#X connect 3 1 5 0;
#X connect 3 1 8 0;
#X connect 4 0 6 1;
#X connect 4 0 1 0;
#X connect 5 0 6 1;
#X connect 5 0 1 0;
#X connect 6 0 3 0;
#X connect 7 0 2 0;
#X connect 8 0 2 0;
#X connect 9 0 6 1;
#X restore 520 262 pd flip-flop;
#X obj 717 629 +~;
#X obj 521 293 select 1 0;
#X msg 337 491 stop;
#X obj 736 599 *~;
#X obj 498 590 *~;
#X obj 337 330 *~;
#N canvas 0 50 470 320 dubstart-dubstop 0;
#X obj 70 41 inlet;
#X obj 154 38 inlet;
#X obj 266 46 inlet;
#X obj 77 235 outlet~;
#X obj 207 204 tgl 15 0 empty empty empty 0 -6 0 8 -262144 -1 -1 0
1;
#X msg 139 136 1;
#X msg 204 177 0;
#X obj 206 95 delay 30;
#X obj 125 95 delay 30;
#X obj 164 253 line~;
#X msg 204 227 \$1 10;
#X obj 281 93 loadbang;
#X connect 0 0 8 0;
#X connect 1 0 7 0;
#X connect 2 0 8 1;
#X connect 2 0 7 1;
#X connect 4 0 10 0;
#X connect 5 0 4 0;
#X connect 6 0 4 0;
#X connect 7 0 6 0;
#X connect 8 0 5 0;
#X connect 9 0 3 0;
#X connect 10 0 9 0;
#X connect 11 0 6 0;
#X coords 0 0 1 1 200 40 1;
#X restore 277 157 pd dubstart-dubstop switch;
#X text 510 237 synchro;
#X obj 19 390 delwrite~ \$0-overdub 100;
#X obj 17 461 delread~ \$0-overdub 100;
#X obj 23 603 +~;
#X obj 414 312 t b;
#X msg 90 539 0;
#X msg 559 431 0;
#X msg 824 431 0;
#X obj 531 357 t b b;
#X obj 788 388 t b b;
#X obj 80 579 tabplay~ \$2;
#X obj 39 657 tabwrite~ \$2;
#X obj 254 59 r \$1-dubstop;
#X obj 379 82 r \$1-latence;
#X obj 25 420 r \$1-latence;
#X obj 139 50 r \$1-dubstart;
#X obj 522 200 r \$1-synchro;
#X obj 390 280 r \$1-playstop;
#X obj 56 483 r \$1-playresume;
#X obj 58 508 t b b;
#N canvas 0 50 459 428 flushing 0;
#X obj 276 91 timer;
#X obj 294 60 t b;
#X obj 244 192 delay;
#X msg 287 247 stop;
#X obj 143 290 delay;
#X obj 48 199 * 2;
#X msg 236 321 stop;
#X obj 170 228 +;
#X obj 168 198 t b f;
#X obj 166 381 tabwrite~ \$2;
#X obj 47 164 r \$1-latence;
#X obj 180 60 r \$1-synchro;
#X obj 273 22 r \$1-dubflush;
#X obj 44 261 r \$1-playresume;
#X obj 151 125 r \$1-playresume;
#X obj 315 288 r \$1-recstart;
#X obj 51 91 r \$1-crossfade_time;
#X obj 313 150 t f b;
#X connect 0 0 17 0;
#X connect 1 0 0 1;
#X connect 2 0 3 0;
#X connect 3 0 9 0;
#X connect 4 0 6 0;
#X connect 5 0 7 0;
#X connect 6 0 9 0;
#X connect 7 0 4 1;
#X connect 8 0 7 0;
#X connect 8 1 7 1;
#X connect 10 0 5 0;
#X connect 11 0 0 0;
#X connect 12 0 1 0;
#X connect 13 0 4 0;
#X connect 14 0 3 0;
#X connect 15 0 9 0;
#X connect 16 0 8 0;
#X connect 17 0 2 0;
#X connect 17 1 9 0;
#X restore 787 30 pd flushing memory;
#X obj 436 338 delay 1;
#X msg 430 367 stop;
#N canvas 0 50 466 316 enable 0;
#X obj 72 230 outlet~;
#X obj 146 71 delay;
#X obj 212 176 line~;
#X obj 238 70 loadbang;
#X obj 179 29 r \$1-period;
#X obj 66 29 r \$1-dubstart;
#X obj 285 29 r \$1-dubflush;
#X obj 28 76 r \$1-playstop;
#X msg 92 109 stop;
#X msg 216 144 \$1 10;
#X msg 197 99 1;
#X msg 248 103 0;
#X connect 1 0 10 0;
#X connect 2 0 0 0;
#X connect 3 0 11 0;
#X connect 4 0 1 1;
#X connect 5 0 1 0;
#X connect 6 0 11 0;
#X connect 7 0 8 0;
#X connect 8 0 1 0;
#X connect 9 0 2 0;
#X connect 10 0 9 0;
#X connect 11 0 9 0;
#X restore 608 446 pd enable table dubbing;
#X obj 659 245 bng 15 250 50 0 empty empty empty 0 -6 0 8 -262144 -1
-1;
#X obj 480 659 tabwrite~ \$2;
#X obj 468 484 tabplay~ \$2;
#X obj 756 559 tabplay~ \$2;
#X obj 716 658 tabwrite~ \$2;
#X obj 171 513 r \$1-playstart;
#X obj 817 596 hip~ 5;
#X obj 480 542 hip~ 5;
#X obj 80 604 hip~ 5;
#X connect 0 0 8 0;
#X connect 1 0 35 0;
#X connect 2 0 4 0;
#X connect 3 0 38 0;
#X connect 4 0 18 0;
#X connect 4 1 19 0;
#X connect 5 0 21 0;
#X connect 5 0 35 0;
#X connect 5 0 38 0;
#X connect 6 0 3 1;
#X connect 7 0 1 1;
#X connect 8 0 1 0;
#X connect 8 0 3 0;
#X connect 8 0 11 0;
#X connect 9 0 8 1;
#X connect 12 0 13 0;
#X connect 13 0 21 0;
#X connect 14 0 5 0;
#X connect 14 0 31 0;
#X connect 15 0 20 0;
#X connect 16 0 36 0;
#X connect 17 0 37 0;
#X connect 18 0 35 0;
#X connect 18 1 16 0;
#X connect 19 0 38 0;
#X connect 19 1 17 0;
#X connect 20 0 42 0;
#X connect 22 0 9 1;
#X connect 23 0 9 2;
#X connect 24 0 12 0;
#X connect 25 0 9 0;
#X connect 26 0 2 0;
#X connect 26 0 34 0;
#X connect 27 0 14 0;
#X connect 28 0 29 0;
#X connect 29 0 21 0;
#X connect 29 1 15 0;
#X connect 31 0 32 0;
#X connect 32 0 20 0;
#X connect 32 0 36 0;
#X connect 32 0 37 0;
#X connect 33 0 7 1;
#X connect 33 0 6 0;
#X connect 36 0 41 0;
#X connect 37 0 40 0;
#X connect 39 0 29 0;
#X connect 40 0 6 1;
#X connect 41 0 7 0;
#X connect 42 0 13 1;
