#N canvas 0 50 674 432 10;
#X obj 13 120 bng 15 250 50 0 empty empty empty 17 7 0 10 -262144 -1
-1;
#X obj 15 157 list append \$0 \$1;
#X obj 13 207 s \$2-timer;
#X obj 167 49 inlet;
#X msg 173 78 \$2 \$1;
#X obj 173 100 route 0;
#X msg 15 181 symbol \$1-start\$2;
#X obj 10 227 r \$0-start\$1;
#X obj 338 206 timer;
#X obj 271 68 r BPM;
#X msg 338 96 tempo \$1 permin;
#X obj 339 38 loadbang;
#X msg 339 60 120;
#X obj 173 122 t b;
#X obj 71 253 list append;
#X obj 63 319 list prepend;
#X obj 238 124 t b l b;
#X obj 344 245 t f f;
#X obj 285 314 pack f f;
#X obj 341 287 +;
#X obj 83 386 outlet;
#X msg 67 352 \$3 \$2 \$4 \$1 \$5;
#X text 202 350 note vel duration start_time stop_time;
#X connect 0 0 1 0;
#X connect 1 0 6 0;
#X connect 3 0 4 0;
#X connect 4 0 5 0;
#X connect 5 0 13 0;
#X connect 5 1 16 0;
#X connect 6 0 2 0;
#X connect 7 0 14 0;
#X connect 7 0 19 1;
#X connect 8 0 17 0;
#X connect 9 0 10 0;
#X connect 10 0 8 0;
#X connect 11 0 12 0;
#X connect 12 0 10 0;
#X connect 13 0 8 1;
#X connect 14 0 15 1;
#X connect 15 0 21 0;
#X connect 16 0 1 0;
#X connect 16 1 14 1;
#X connect 16 2 8 0;
#X connect 17 0 18 0;
#X connect 17 1 19 0;
#X connect 18 0 15 0;
#X connect 19 0 18 1;
#X connect 21 0 20 0;
