#N canvas 224 52 734 469 12;
#X obj 219 114 sig~ 1;
#X obj 72 11 inlet;
#X obj 152 117 symbol;
#X obj 385 192 switch~;
#X msg 396 158 1;
#X msg 460 133 0;
#X obj 88 214 *~;
#X obj 191 257 line~;
#X obj 42 286 outlet~;
#X obj 127 283 outlet~;
#X obj 43 258 hip~ 5;
#X obj 281 69 unpack f f;
#X obj 272 251 pack f f;
#X obj 271 225 *;
#X obj 326 289 *~;
#X obj 281 333 hip~ 5;
#X obj 219 134 lop~ 4;
#X obj 46 74 pack f f;
#X obj 165 19 route playAtSample setArray gain switchOff switchOn pitch
vol rearm;
#X msg 136 77 0;
#X obj 14 105 t b l;
#X msg 27 37 70;
#X obj 488 116 delay 20;
#X obj 390 81 t b;
#X msg 404 121 stop;
#X obj 494 79 t b b;
#X obj 41 137 vline~;
#X msg 520 159 0 20;
#X msg 104 140 setarray \$1-1;
#X msg 412 229 setarray \$1-2;
#X obj 80 165 bsaylor/pvoc~ \$1-sample-1 2048 4;
#X obj 387 253 bsaylor/pvoc~ \$1-sample-2 2048 4;
#X connect 0 0 16 0;
#X connect 1 0 18 0;
#X connect 2 0 28 0;
#X connect 2 0 29 0;
#X connect 4 0 3 0;
#X connect 5 0 3 0;
#X connect 6 0 10 0;
#X connect 7 0 6 1;
#X connect 7 0 14 1;
#X connect 10 0 8 0;
#X connect 11 0 13 0;
#X connect 11 1 12 1;
#X connect 12 0 7 0;
#X connect 13 0 12 0;
#X connect 14 0 15 0;
#X connect 15 0 9 0;
#X connect 16 0 30 1;
#X connect 16 0 31 1;
#X connect 17 0 20 0;
#X connect 18 0 17 0;
#X connect 18 1 2 0;
#X connect 18 1 19 0;
#X connect 18 2 11 0;
#X connect 18 3 25 0;
#X connect 18 4 4 0;
#X connect 18 4 23 0;
#X connect 18 5 0 0;
#X connect 18 6 13 1;
#X connect 18 7 19 0;
#X connect 19 0 17 1;
#X connect 20 0 21 0;
#X connect 20 1 26 0;
#X connect 21 0 17 1;
#X connect 22 0 5 0;
#X connect 23 0 24 0;
#X connect 24 0 22 0;
#X connect 25 0 22 0;
#X connect 25 0 19 0;
#X connect 25 1 27 0;
#X connect 26 0 30 0;
#X connect 26 0 31 0;
#X connect 27 0 7 0;
#X connect 28 0 30 0;
#X connect 29 0 31 0;
#X connect 30 0 6 0;
#X connect 31 0 14 0;
