#N canvas 458 362 450 300 10;
#X obj 130 59 inlet~;
#X obj 129 290 outlet~;
#X obj 198 29 inlet;
#X obj 325 55 inlet;
#X obj 251 95 loadbang;
#X obj 203 199 u_lowpassq;
#X obj 325 139 f \$2;
#X obj 203 140 f \$1;
#X obj 251 117 t b b;
#N canvas 172 83 586 377 LICENSE-GPL 0;
#X text 57 88 This program is free software: you can redistribute it
and/or modify it under the terms of the GNU General Public License
as published by the Free Software Foundation \, either version 3 of
the License \, or (at your option) any later version.;
#X text 58 168 This program is distributed in the hope that it will
be useful \, but WITHOUT ANY WARRANTY \; without even the implied warranty
of MERCHANTABILITY or FITNESS FOR A PARTICULAR PURPOSE. See the GNU
General Public License for more details.;
#X text 57 261 You should have received a copy of the GNU General Public
License along with this program. If not \, see <http://www.gnu.org/licenses/>.
;
#X text 61 54 Copyright (C) 2009 \, Reality Jockey Ltd.;
#X text 60 325 See the file LICENSE.txt for the full license text.
;
#X restore 322 19 pd LICENSE-GPL;
#X obj 192 56 route float;
#X obj 129 234 biquad~;
#X obj 129 256 biquad~;
#X msg 212 160 \$1 50;
#X msg 375 160 \$1 50;
#X obj 220 179 line 300 0.4;
#X obj 330 189 line 1 0.4;
#X connect 0 0 11 0;
#X connect 2 0 10 0;
#X connect 3 0 6 0;
#X connect 4 0 8 0;
#X connect 5 0 11 0;
#X connect 5 0 12 0;
#X connect 6 0 14 0;
#X connect 7 0 13 0;
#X connect 8 0 7 0;
#X connect 8 1 6 0;
#X connect 10 0 7 0;
#X connect 10 1 11 0;
#X connect 10 1 12 0;
#X connect 11 0 12 0;
#X connect 12 0 1 0;
#X connect 13 0 15 0;
#X connect 14 0 16 0;
#X connect 15 0 5 0;
#X connect 16 0 5 1;
