#N canvas 603 140 494 460 12;
#X obj 34 221 u_parameter \$0 <control-name>;
#X obj 35 258 vsl 15 128 0 127 0 0 \$0-<control-name> \$0-<control-name>-rcv
empty 0 -9 0 10 -262144 -1 -1 0 1;
#X obj 28 101 u_loader <module-name> \$0;
#X obj 380 69 r \$0-SSSAD;
#X obj 380 94 s dirty;
#X text 29 168 coupler chaque contrôleur avec un objet u_parameter
;
#X text 30 191 pour permettre une sauvegarde de l'état;
#X text 27 75 dans chaque module \, inclure un objet u_loader;
#X text 67 294 <- cliquer sur propriétés pour voir les noms;
#X connect 3 0 4 0;
