#N canvas 0 50 971 678 12;
#X obj 442 260 fiddle~;
#X obj 447 327 s \$0-resync;
#X obj 221 473 delwrite~ \$0-ligne-l 10000;
#X obj 277 441 delwrite~ \$0-ligne-r 10000;
#X obj 257 99 inlet~;
#X obj 192 96 inlet~;
#X obj 216 507 catch~ \$0-l;
#X obj 317 509 catch~ \$0-r;
#X obj 272 642 outlet~;
#X obj 361 640 outlet~;
#X obj 435 225 *~ 1;
#X obj 349 102 inlet;
#X obj 383 172 dbtorms;
#X obj 579 217 route 1 2 3 4 5 6 7 8;
#N canvas 0 50 494 446 volpan 0;
#X obj 132 163 * -1;
#X obj 150 96 / 127;
#X obj 132 135 - 1;
#X obj -3 -16 inlet~;
#X obj 318 -11 inlet;
#X obj 79 335 outlet~;
#X obj 155 332 outlet~;
#X obj 184 -12 inlet;
#X obj 69 29 dbtorms;
#X text 159 13 Vol (0-127);
#X text 304 19 Pan (0-127);
#X obj 80 98 line~;
#X obj 34 139 *~;
#X obj 217 254 line~;
#X obj 153 293 *~;
#X obj 147 249 line~;
#X obj 38 297 *~;
#X msg 146 216 \$1 40;
#X msg 217 222 \$1 40;
#X msg 80 66 \$1 100;
#X obj 50 -14 inlet~;
#X obj 74 147 *~;
#X obj 402 -9 inlet fadeout;
#X msg 365 66 0 300;
#X connect 0 0 17 0;
#X connect 1 0 2 0;
#X connect 1 0 18 0;
#X connect 2 0 0 0;
#X connect 3 0 12 0;
#X connect 4 0 1 0;
#X connect 7 0 8 0;
#X connect 8 0 19 0;
#X connect 11 0 12 1;
#X connect 11 0 21 1;
#X connect 12 0 16 0;
#X connect 13 0 14 1;
#X connect 14 0 6 0;
#X connect 15 0 16 1;
#X connect 16 0 5 0;
#X connect 17 0 15 0;
#X connect 18 0 13 0;
#X connect 19 0 11 0;
#X connect 20 0 21 0;
#X connect 21 0 14 0;
#X connect 22 0 23 0;
#X connect 23 0 11 0;
#X restore 310 601 pd volpan;
#X obj 496 526 loadbang;
#X msg 518 560 64;
#X obj 365 138 route sens vol pan;
#X obj 616 294 pitch_delay_unit \$0;
#X msg 435 532 90;
#X obj 614 422 pitch_delay_unit \$0;
#X obj 605 380 pitch_delay_unit \$0;
#X obj 607 351 pitch_delay_unit \$0;
#X obj 614 323 pitch_delay_unit \$0;
#X obj 603 508 pitch_delay_unit \$0;
#X obj 605 479 pitch_delay_unit \$0;
#X obj 612 451 pitch_delay_unit \$0;
#X obj 495 353 outlet;
#X obj 447 296 t b b;
#X obj 562 178 fid_multiplex 8;
#X connect 0 1 28 0;
#X connect 4 0 3 0;
#X connect 4 0 10 0;
#X connect 5 0 2 0;
#X connect 5 0 10 0;
#X connect 6 0 14 0;
#X connect 7 0 14 1;
#X connect 10 0 0 0;
#X connect 11 0 17 0;
#X connect 12 0 10 1;
#X connect 13 0 21 0;
#X connect 13 1 22 0;
#X connect 13 2 23 0;
#X connect 13 3 18 0;
#X connect 13 4 20 0;
#X connect 13 5 26 0;
#X connect 13 6 25 0;
#X connect 13 7 24 0;
#X connect 14 0 8 0;
#X connect 14 1 9 0;
#X connect 15 0 19 0;
#X connect 15 0 16 0;
#X connect 16 0 14 3;
#X connect 17 0 12 0;
#X connect 17 1 14 2;
#X connect 17 2 14 3;
#X connect 17 3 29 0;
#X connect 19 0 14 2;
#X connect 28 0 1 0;
#X connect 28 1 27 0;
#X connect 29 0 13 0;
