#N canvas 5 50 1088 612 10;
#X declare -path ./rj;
#X declare -path ./utils;
#X obj 141 31 list trim;
#X obj 871 105 declare -path ./rj;
#X obj 36 261 unpack f f;
#X obj 141 416 max 0.001;
#X obj 482 221 tgl 15 0 empty empty empty 17 7 0 10 -262144 -1 -1 0
1;
#X msg 572 210 start;
#X msg 502 249 stop;
#X obj 501 288 bng 15 250 50 0 empty empty empty 17 7 0 10 -262144
-1 -1;
#X obj 658 196 g_nbx dur;
#X obj 658 163 g_nbx loopstart;
#X obj 31 482 *;
#X msg 77 569 loopstart \$1 \, dur \$2;
#X obj 502 175 loadbang;
#X obj 141 541 pack f f;
#X obj 149 391 * 1000;
#N canvas 603 111 518 544 gestion_vitesse 0;
#X msg 248 489 speed \$1;
#X obj 285 452 * -1;
#X obj 304 377 moses 0;
#X obj 351 461 change;
#X msg 344 434 1;
#X msg 393 433 0;
#X msg 348 491 reverse \$1;
#X obj 285 203 f;
#X obj 245 519 outlet;
#X obj 303 303 * 4;
#X msg 231 142 0.5;
#X obj 307 269 *;
#X obj 305 240 t f f;
#X obj 330 334 max 0.25;
#X obj 270 117 loadbang;
#X msg 278 143 0;
#X obj 70 93 route /speed1 /invert1 /normal1;
#X obj 43 346 list prepend /speed1;
#X obj 91 71 inlet;
#X obj 415 135 outlet;
#X obj 40 415 send to\$3\$1;
#X connect 0 0 8 0;
#X connect 1 0 0 0;
#X connect 2 0 1 0;
#X connect 2 0 4 0;
#X connect 2 1 5 0;
#X connect 2 1 0 0;
#X connect 4 0 3 0;
#X connect 5 0 3 0;
#X connect 6 0 8 0;
#X connect 7 0 12 0;
#X connect 9 0 13 0;
#X connect 10 0 17 0;
#X connect 11 0 9 0;
#X connect 12 0 11 0;
#X connect 12 1 11 1;
#X connect 13 0 2 0;
#X connect 14 0 10 0;
#X connect 14 0 15 0;
#X connect 15 0 6 0;
#X connect 16 0 7 0;
#X connect 16 1 6 0;
#X connect 16 2 10 0;
#X connect 16 3 19 0;
#X connect 17 0 20 0;
#X connect 18 0 16 0;
#X restore 663 305 pd gestion_vitesse;
#N canvas 160 91 1191 540 selectionSample 0;
#N canvas 583 123 973 557 loadsample 0;
#X floatatom 252 177 8 0 0 3 dur_in_smps - -, f 8;
#X floatatom 205 144 8 0 0 3 dur_in_ms - -, f 8;
#X symbolatom 107 205 80 0 0 3 table_name - -, f 80;
#X obj 174 107 unpack s f f f;
#X floatatom 269 145 6 0 0 3 samplerate - -, f 6;
#X obj 40 118 list;
#X msg 264 43 sr 44100;
#X msg 337 44 info;
#X obj 40 246 outlet;
#X obj 173 -3 inlet;
#X msg 174 43 open \, info;
#X msg 40 142 table-stereo \$1 \, sr \$4;
#X obj 95 24 route bang;
#X obj 251 244 outlet;
#X obj 268 20 loadbang;
#X obj 174 78 u_samplebank2 /sample\$0;
#X connect 3 0 2 0;
#X connect 3 1 1 0;
#X connect 3 1 13 0;
#X connect 3 2 0 0;
#X connect 3 3 4 0;
#X connect 5 0 11 0;
#X connect 6 0 15 0;
#X connect 7 0 15 0;
#X connect 9 0 12 0;
#X connect 10 0 15 0;
#X connect 11 0 8 0;
#X connect 12 0 10 0;
#X connect 12 1 15 0;
#X connect 14 0 6 0;
#X connect 15 0 3 0;
#X connect 15 0 5 0;
#X restore 38 255 pd loadsample;
#X obj 130 290 s \$0-sample-duration-ms;
#X obj 38 317 outlet;
#X obj 649 93 r filemenu;
#X obj 45 94 unpack f s;
#X obj 119 204 list trim;
#X obj 119 179 list prepend open;
#X obj 219 18 loadbang;
#X obj 214 48 list append 0 \$2;
#X obj 119 155 makefilename ../sounds/%s.wav;
#X obj 652 165 s to\$3;
#X obj 49 72 route /menu1;
#X obj 648 128 list prepend /menu1;
#X text 354 22 charger au démarrage le sample par défaut (\$2);
#X obj 59 39 inlet;
#X obj 442 311 outlet;
#X connect 0 0 2 0;
#X connect 0 1 1 0;
#X connect 3 0 12 0;
#X connect 4 1 9 0;
#X connect 5 0 0 0;
#X connect 6 0 5 0;
#X connect 7 0 8 0;
#X connect 8 0 4 0;
#X connect 9 0 6 0;
#X connect 11 0 4 0;
#X connect 11 1 15 0;
#X connect 12 0 10 0;
#X connect 14 0 11 0;
#X restore 582 257 pd selectionSample;
#X obj 863 141 declare -path ./utils;
#X obj 217 91 route range;
#X obj 221 169 unpack f f;
#X obj 189 197 / 44.1;
#X obj 253 198 / 44.1;
#X obj 169 316 -;
#X obj 30 511 +;
#X obj 171 157 t b l;
#X obj 30 311 f;
#X obj 201 282 swap;
#X obj 469 458 outlet~;
#X obj 549 455 outlet~;
#X obj 5 160 list split 2;
#X obj 34 93 route touch list;
#X text 763 175 ARGUMENTS;
#X text 783 225 \$2 : nom du fichier à charger par défaut;
#X obj 402 66 r \$0-sample-duration-ms;
#X obj 389 176 f;
#X obj 357 195 /;
#X text 368 93 reactualisation zone de selection;
#X obj 163 346 t f b f;
#X obj 55 451 -;
#X obj 94 327 t b f;
#X obj 383 125 t f f b f;
#X obj 267 130 list append;
#X obj 342 161 t b f;
#X obj 284 274 unpack f f;
#X obj 285 351 *;
#X obj 336 354 *;
#X obj 282 376 pack f f;
#X floatatom 26 538 5 0 0 0 - - -, f 5;
#N canvas 0 50 450 300 network-synchro 0;
#X obj 160 225 outlet;
#X obj 320 133 t b;
#X obj 320 111 route /synchroIn;
#X obj 409 47 inlet;
#X obj 378 213 outlet;
#X connect 1 0 0 0;
#X connect 2 0 1 0;
#X connect 2 1 4 0;
#X connect 3 0 2 0;
#X restore 781 332 pd network-synchro;
#X text 783 246 \$3 : canal réception / émission OSC;
#N canvas 0 50 480 410 mixagelooper1 0;
#X obj 294 77 route /mixageXY;
#X obj 271 119 unpack f f;
#X obj 328 185 t f f;
#X obj 269 185 t f f;
#X obj 273 214 *;
#X obj 326 212 *;
#X obj 283 244 +;
#X obj 285 277 - 1;
#X obj 284 297 * -100;
#X obj 276 349 line~;
#X msg 284 324 \$1 20;
#X obj 50 388 outlet~;
#X obj 273 159 - 0.5;
#X obj 346 159 - 0.5;
#X obj 123 387 outlet~;
#X obj 39 34 inlet~;
#X obj 116 34 inlet~;
#X obj 62 244 *~;
#X obj 100 244 *~;
#X obj 300 379 dbtorms~;
#X obj 220 379 *~;
#N canvas 0 402 826 358 on/off 0;
#X obj 378 260 outlet~;
#X obj 432 203 line~;
#X msg 464 158 0.9 10;
#X msg 416 159 0 10;
#X obj 429 99 > 0;
#X obj 426 124 select 0 1;
#N canvas 0 50 450 300 compter_nb_events_touch 0;
#X obj 79 27 inlet;
#X obj 84 265 outlet;
#X obj 77 60 list split 2;
#X obj 77 82 unpack f f;
#X obj 147 116 select 0 1;
#X obj 144 223 max 0;
#X msg 134 140 -1;
#X msg 179 138 1;
#X floatatom 121 223 5 0 0 0 - - -, f 5;
#X obj 144 199 f;
#X obj 144 174 +;
#X obj 230 219 min 1;
#X connect 0 0 2 0;
#X connect 2 0 3 0;
#X connect 3 1 4 0;
#X connect 4 0 6 0;
#X connect 4 1 7 0;
#X connect 5 0 11 0;
#X connect 6 0 10 0;
#X connect 7 0 10 0;
#X connect 9 0 5 0;
#X connect 9 0 8 0;
#X connect 10 0 9 0;
#X connect 11 0 10 1;
#X connect 11 0 1 0;
#X restore 429 72 pd compter_nb_events_touch;
#X obj 348 74 bng 15 250 50 0 empty empty empty 17 7 0 10 -262144 -1
-1;
#X obj 428 43 inlet;
#X connect 1 0 0 0;
#X connect 2 0 1 0;
#X connect 3 0 1 0;
#X connect 4 0 5 0;
#X connect 5 0 3 0;
#X connect 5 1 2 0;
#X connect 6 0 4 0;
#X connect 8 0 6 0;
#X restore 402 135 pd on/off;
#X obj 273 44 inlet;
#X obj 425 43 inlet;
#X connect 0 0 1 0;
#X connect 1 0 12 0;
#X connect 1 1 13 0;
#X connect 2 0 5 0;
#X connect 2 1 5 1;
#X connect 3 0 4 0;
#X connect 3 1 4 1;
#X connect 4 0 6 0;
#X connect 5 0 6 1;
#X connect 6 0 7 0;
#X connect 7 0 8 0;
#X connect 8 0 10 0;
#X connect 9 0 19 0;
#X connect 10 0 9 0;
#X connect 12 0 3 0;
#X connect 13 0 2 0;
#X connect 15 0 17 0;
#X connect 16 0 18 0;
#X connect 17 0 11 0;
#X connect 18 0 14 0;
#X connect 19 0 20 1;
#X connect 20 0 17 1;
#X connect 20 0 18 1;
#X connect 21 0 20 0;
#X connect 22 0 0 0;
#X connect 23 0 21 0;
#X restore 466 377 pd mixagelooper1;
#X obj 141 67 route /position1 /sample1-1;
#X text 785 204 \$1 : non utilisé;
#X obj 145 8 inlet;
#X obj 762 515 s RJLIB;
#X msg 762 494 sf-samplerate 44100;
#X obj 757 464 loadbang;
#X obj 647 12 t b b;
#X obj 672 39 delay 400;
#X msg 647 34 1;
#X msg 672 61 0;
#X obj 659 92 change;
#X obj 659 114 switch~;
#X obj 753 120 tgl 15 0 empty empty empty 17 7 0 10 -262144 -1 -1 1
1;
#X obj 461 333 s_loopsmooth2 sample\$1-1;
#X obj 568 129 select 0 1;
#X connect 0 0 51 0;
#X connect 0 0 57 0;
#X connect 2 0 25 0;
#X connect 2 1 39 0;
#X connect 3 0 13 1;
#X connect 3 0 38 1;
#X connect 4 0 64 0;
#X connect 5 0 64 0;
#X connect 6 0 64 0;
#X connect 7 0 64 0;
#X connect 8 0 64 1;
#X connect 9 0 8 0;
#X connect 10 0 23 0;
#X connect 11 0 64 1;
#X connect 13 0 11 0;
#X connect 14 0 3 0;
#X connect 15 0 64 1;
#X connect 15 1 48 0;
#X connect 16 0 64 1;
#X connect 16 1 15 0;
#X connect 18 0 41 1;
#X connect 18 0 24 0;
#X connect 19 0 20 0;
#X connect 19 1 21 0;
#X connect 20 0 23 1;
#X connect 20 0 26 0;
#X connect 21 0 26 1;
#X connect 22 0 37 0;
#X connect 23 0 13 0;
#X connect 23 0 47 0;
#X connect 24 0 25 0;
#X connect 24 1 19 0;
#X connect 25 0 10 0;
#X connect 26 0 22 0;
#X connect 26 1 22 1;
#X connect 29 1 2 0;
#X connect 30 0 29 0;
#X connect 30 0 50 3;
#X connect 30 1 2 0;
#X connect 33 0 40 0;
#X connect 34 0 35 1;
#X connect 35 0 45 1;
#X connect 35 0 44 1;
#X connect 37 0 38 0;
#X connect 37 1 14 0;
#X connect 37 2 14 1;
#X connect 38 0 10 1;
#X connect 39 0 38 0;
#X connect 39 1 14 0;
#X connect 40 0 42 0;
#X connect 40 1 34 1;
#X connect 40 2 34 0;
#X connect 41 0 43 0;
#X connect 42 0 41 0;
#X connect 42 1 35 0;
#X connect 43 0 44 0;
#X connect 43 1 45 0;
#X connect 44 0 46 0;
#X connect 45 0 46 1;
#X connect 46 0 24 0;
#X connect 46 0 41 1;
#X connect 48 0 64 0;
#X connect 48 1 50 2;
#X connect 50 0 27 0;
#X connect 50 1 28 0;
#X connect 51 0 30 0;
#X connect 51 1 18 0;
#X connect 51 2 16 0;
#X connect 53 0 0 0;
#X connect 55 0 54 0;
#X connect 56 0 55 0;
#X connect 57 0 59 0;
#X connect 57 1 58 0;
#X connect 58 0 60 0;
#X connect 59 0 61 0;
#X connect 60 0 61 0;
#X connect 61 0 62 0;
#X connect 61 0 63 0;
#X connect 61 0 65 0;
#X connect 64 0 50 0;
#X connect 64 1 50 1;
#X connect 65 0 6 0;
#X connect 65 1 5 0;
