#N canvas 52 0 934 691 10;
#X obj 47 536 hip~ 20;
#X obj 106 536 hip~ 20;
#N canvas 0 50 989 545 filter 0;
#X obj 77 38 inlet~;
#X obj 278 25 inlet~;
#X obj 70 445 outlet~;
#X obj 246 453 outlet~;
#N canvas 166 108 605 607 coeffs_filtre 0;
#X obj 93 -3 inlet;
#X obj 137 323 outlet;
#X obj 93 293 u_lowpassq;
#X text 436 99 args: <freq> <BW>;
#X obj 341 276 u_highpassq;
#X obj 30 70 moses 1;
#X obj 227 9 inlet;
#X obj 45 43 * 2.2;
#X obj 107 96 moses 1.2;
#X obj 107 124 - 1.2;
#X obj 219 243 f;
#X obj 55 232 t f b;
#X obj 411 234 f;
#X obj 307 220 t f b;
#X obj 29 189 mtof;
#X obj 133 204 mtof;
#X obj 41 164 + 18;
#X obj 42 142 * 109;
#X obj 173 172 + 18;
#X obj 167 151 * 109;
#X obj 287 111 t b f f;
#X obj 126 28 f;
#X obj 218 46 * 6;
#X floatatom 215 275 5 0 0 0 - - -, f 5;
#X floatatom 215 294 5 0 0 0 - - -, f 5;
#X floatatom 434 263 5 0 0 0 - - -, f 5;
#X connect 0 0 21 0;
#X connect 2 0 1 0;
#X connect 4 0 1 0;
#X connect 5 0 17 0;
#X connect 5 1 8 0;
#X connect 6 0 22 0;
#X connect 7 0 5 0;
#X connect 8 1 9 0;
#X connect 9 0 19 0;
#X connect 10 0 2 1;
#X connect 10 0 23 0;
#X connect 11 0 2 0;
#X connect 11 1 10 0;
#X connect 12 0 4 1;
#X connect 12 0 25 0;
#X connect 13 0 4 0;
#X connect 13 1 12 0;
#X connect 14 0 11 0;
#X connect 15 0 13 0;
#X connect 16 0 14 0;
#X connect 17 0 16 0;
#X connect 18 0 15 0;
#X connect 19 0 18 0;
#X connect 20 0 21 0;
#X connect 20 1 10 1;
#X connect 20 2 12 1;
#X connect 21 0 7 0;
#X connect 22 0 20 0;
#X connect 23 0 24 0;
#X restore 370 213 pd coeffs_filtre;
#X obj 374 163 hsl 128 15 0 1 0 0 empty empty empty -2 -8 0 10 -262144
-1 -1 6350 1;
#X obj 566 171 hsl 128 15 0 1 0 0 empty empty Q -2 -8 0 10 -262144
-1 -1 7879 1;
#X obj 46 343 e_beequad;
#X msg 458 259 interp \$1;
#X obj 372 139 / 127;
#X obj 255 338 e_beequad;
#X obj 570 231 nbx 5 14 -1e+037 1e+037 0 1 empty empty empty 0 -8 0
10 -262144 -1 -1 19 256;
#X obj 583 137 / 127;
#X obj 476 35 loadbang;
#X msg 481 94 0.5;
#X obj 484 126 t f f;
#X obj 478 64 delay 2000;
#X obj 372 82 r \$0-ctlin_22_1;
#X obj 583 80 r \$0-ctlin_23_1;
#X obj 742 256 r \$1-f.freq;
#X obj 742 297 r \$1-f.Q;
#X connect 0 0 7 0;
#X connect 1 0 10 0;
#X connect 4 0 7 1;
#X connect 4 0 10 1;
#X connect 5 0 4 0;
#X connect 6 0 4 1;
#X connect 7 0 2 0;
#X connect 8 0 7 1;
#X connect 8 0 10 1;
#X connect 9 0 5 0;
#X connect 10 0 3 0;
#X connect 11 0 8 0;
#X connect 12 0 6 0;
#X connect 13 0 16 0;
#X connect 14 0 15 0;
#X connect 15 0 5 0;
#X connect 15 1 6 0;
#X connect 16 0 14 0;
#X connect 17 0 9 0;
#X connect 18 0 12 0;
#X connect 19 0 4 0;
#X connect 20 0 6 0;
#X restore 48 509 pd filter;
#X obj 37 401 makenote 100 500;
#X obj 46 446 pack f f;
#X floatatom 76 334 5 0 0 0 - - -, f 5;
#X msg 28 351 64;
#X obj 659 423 change;
#X obj 677 357 ctlin 118 1;
#X obj 699 459 s REC_BUTTON;
#X obj 664 380 > 30;
#X obj 484 464 s \$0-duree;
#N canvas 120 96 1125 554 live_recording 0;
#X obj 42 512 tabwrite~ \$0-table-1;
#X obj 141 481 tabwrite~ \$0-table-2;
#X obj 141 288 select 1 0;
#X msg 68 389 stop;
#X obj 222 342 timer;
#X floatatom 228 365 5 0 0 0 - - -, f 5;
#X obj 257 316 bng 15 250 50 0 empty empty empty 17 7 0 10 -262144
-1 -1;
#X obj 217 316 bng 15 250 50 0 empty empty empty 17 7 0 10 -262144
-1 -1;
#X obj 221 394 s \$0-duree;
#X obj 557 163 change;
#X obj 549 97 inlet;
#X obj 16 113 inlet~;
#X obj 261 111 inlet~;
#X obj 16 137 delwrite~ \$0-input-l 1000;
#X obj 16 160 delread~ \$0-input-l 20;
#X obj 260 132 delwrite~ \$0-input-r 1000;
#X obj 259 157 delread~ \$0-input-r 30;
#X obj 231 434 s \$1-duree;
#X obj 555 128 > 0;
#X connect 2 0 0 0;
#X connect 2 0 1 0;
#X connect 2 0 4 0;
#X connect 2 1 3 0;
#X connect 2 1 4 1;
#X connect 3 0 0 0;
#X connect 3 0 1 0;
#X connect 4 0 5 0;
#X connect 4 0 8 0;
#X connect 4 0 17 0;
#X connect 6 0 4 1;
#X connect 7 0 4 0;
#X connect 9 0 2 0;
#X connect 10 0 18 0;
#X connect 11 0 13 0;
#X connect 12 0 15 0;
#X connect 14 0 0 0;
#X connect 16 0 1 0;
#X connect 18 0 9 0;
#X restore 68 199 pd live_recording;
#X symbolatom 619 496 30 0 0 0 - - -, f 30;
#X obj 198 118 tgl 15 0 empty empty empty 17 7 0 10 -262144 -1 -1 0
1;
#X obj 227 118 tgl 15 0 empty empty empty 17 7 0 10 -262144 -1 -1 0
1;
#X obj 258 118 tgl 15 0 empty empty empty 17 7 0 10 -262144 -1 -1 0
1;
#X obj 287 118 tgl 15 0 empty empty empty 17 7 0 10 -262144 -1 -1 0
1;
#X obj 198 98 tgl 15 0 empty empty empty 17 7 0 10 -262144 -1 -1 0
1;
#X obj 227 98 tgl 15 0 empty empty empty 17 7 0 10 -262144 -1 -1 0
1;
#X obj 258 98 tgl 15 0 empty empty empty 17 7 0 10 -262144 -1 -1 0
1;
#X obj 287 98 tgl 15 0 empty empty empty 17 7 0 10 -262144 -1 -1 0
1;
#X text 252 156 TAP;
#X text 222 156 PLAY;
#X text 189 156 STOP;
#N canvas 0 50 450 250 (subpatch) 0;
#X coords 0 1 100 -1 90 20 1 0 0;
#X restore 189 115 graph;
#X text 162 70 REVERSE;
#X text 226 72 <- ->;
#X text 283 154 REC_LIVE;
#X text 284 70 RECPAD;
#X text 161 47 AKAI MPKmini;
#X text 194 83 113 114 115 118;
#X text 197 136 116 117 38 39;
#X obj 53 169 inlet~;
#X obj 113 169 inlet~;
#X obj 185 175 r \$1-rec;
#X obj 543 356 r \$1-next_file;
#X obj 466 381 r \$1-prev_file;
#X obj 758 255 inlet loadbank;
#X obj 467 430 FileSelect \$0-table \$1;
#N canvas 5 31 895 534 sample_player2 0;
#X obj 99 261 outlet~;
#X obj 262 264 outlet~;
#X obj 47 14 notein 1;
#X obj 45 36 pack f f;
#X msg 51 60 \$2 \$1;
#X obj 49 80 route 0;
#X msg 98 193 \$2 \$1;
#X msg 432 192 sustain \$1;
#X msg 157 191 \$1 0;
#X obj 357 106 hsl 128 15 0 1 0 1 empty empty empty -2 -8 0 10 -262144
-1 -1 0 1;
#X obj 158 170 r \$0-feedback;
#X obj 635 27 hsl 128 15 0 1 0 1 empty empty empty -2 -8 0 10 -262144
-1 -1 1400 1;
#X msg 558 200 offset \$1;
#X obj 349 54 / 127;
#X obj 624 -15 / 127;
#X obj 608 297 change;
#X msg 589 328 reverse \$1;
#X obj 546 130 * 2000;
#X obj 465 -5 r \$0-duree;
#X obj 154 31 inlet;
#X obj 515 29 t b b f f;
#X obj 611 263 > 20;
#X obj 709 114 / 127;
#X obj 712 140 hsl 128 15 0 1 0 1 empty empty empty -2 -8 0 10 -262144
-1 -1 6700 1;
#X text 719 63 fine;
#X obj 343 149 +;
#X text 370 1 sustain coarse;
#X obj 625 92 +;
#X obj 650 60 t b f;
#X obj 742 163 / 25;
#X obj 779 189 - 0.02;
#X floatatom 779 211 5 0 0 0 - - -, f 5;
#X obj 229 -36 / 127;
#X obj 232 -10 hsl 128 15 0 1 0 1 empty empty empty -2 -8 0 10 -262144
-1 -1 0 1;
#X obj 262 13 / 25;
#X obj 299 39 - 0.02;
#X floatatom 299 61 5 0 0 0 - - -, f 5;
#X text 239 -87 sustain fine;
#X obj 260 90 t b f;
#X obj 350 75 expr $f1*$f1;
#X obj 139 75 r FUNCTION_BUTTON;
#X obj 119 122 spigot 1;
#X obj 205 110 == 0;
#X obj 96 217 makepoly 16 1 samplayerUnit2 \$0-table \$0-feedback;
#X obj 454 163 *;
#X obj 234 -61 r \$0-ctlin_25_1;
#X obj 349 27 r \$0-ctlin_21_1;
#X obj 624 -42 r \$0-ctlin_20_1;
#X obj 709 87 r \$0-ctlin_24_1;
#X obj 435 137 r \$1-sustain;
#X obj 545 98 r \$1-offset;
#X obj 605 232 r \$0-ctlin_113_1;
#X obj 649 388 r \$1-reverse;
#X obj 652 426 >= 1;
#X connect 2 0 3 0;
#X connect 2 1 3 1;
#X connect 3 0 4 0;
#X connect 4 0 5 0;
#X connect 5 1 41 0;
#X connect 6 0 43 0;
#X connect 7 0 43 1;
#X connect 8 0 43 0;
#X connect 9 0 25 0;
#X connect 10 0 8 0;
#X connect 11 0 27 0;
#X connect 12 0 43 1;
#X connect 13 0 39 0;
#X connect 14 0 11 0;
#X connect 15 0 16 0;
#X connect 16 0 43 1;
#X connect 17 0 12 0;
#X connect 18 0 20 0;
#X connect 19 0 4 0;
#X connect 20 0 17 0;
#X connect 20 1 13 0;
#X connect 20 2 17 1;
#X connect 20 3 44 1;
#X connect 21 0 15 0;
#X connect 22 0 23 0;
#X connect 23 0 29 0;
#X connect 25 0 44 0;
#X connect 27 0 17 0;
#X connect 28 0 27 0;
#X connect 28 1 27 1;
#X connect 29 0 30 0;
#X connect 30 0 28 0;
#X connect 30 0 31 0;
#X connect 32 0 33 0;
#X connect 33 0 34 0;
#X connect 34 0 35 0;
#X connect 35 0 36 0;
#X connect 35 0 38 0;
#X connect 38 0 25 0;
#X connect 38 1 25 1;
#X connect 39 0 9 0;
#X connect 40 0 42 0;
#X connect 41 0 6 0;
#X connect 42 0 41 1;
#X connect 43 0 0 0;
#X connect 43 1 1 0;
#X connect 44 0 7 0;
#X connect 45 0 32 0;
#X connect 46 0 13 0;
#X connect 47 0 14 0;
#X connect 48 0 22 0;
#X connect 49 0 44 0;
#X connect 50 0 17 0;
#X connect 51 0 21 0;
#X connect 52 0 53 0;
#X connect 53 0 16 0;
#X restore 45 482 pd sample_player2;
#X obj 44 567 outlet~;
#X obj 112 564 outlet~;
#X obj 388 539 outlet;
#X obj 379 508 pack f s;
#X obj 453 497 symbol \$0-table;
#X obj 428 469 loadbang;
#X obj 339 27 ctlin 25 1;
#X obj 0 0 bng 15 250 50 0 empty empty empty 17 7 0 10 -262144 -1 -1
;
#X obj 340 54 s \$0-ctlin_25_1;
#X obj 490 28 ctlin 21 1;
#X obj 490 58 s \$0-ctlin_21_1;
#X obj 624 38 ctlin 20 1;
#X obj 769 35 ctlin 24 1;
#X obj 624 68 s \$0-ctlin_20_1;
#X obj 769 65 s \$0-ctlin_24_1;
#X obj 579 97 ctlin 114;
#X obj 710 101 ctlin 115;
#X obj 710 131 s \$0-ctlin_115_1;
#X obj 579 127 s \$0-ctli_114_1;
#X obj 435 92 ctlin 113 1;
#X obj 435 122 s \$0-ctlin_113_1;
#X obj 364 159 ctlin 22 1;
#X obj 360 195 ctlin 23 1;
#X obj 364 180 s \$0-ctlin_22_1;
#X obj 361 217 s \$0-ctlin_23_1;
#X obj 579 568 s \$1-samplename;
#X msg 641 543 label \$1;
#X text 487 168 Les parametres de filtre sont maintenant gérés depuis
u_dispatch \, donc les ctlin 22 et 23 sont désactivés \, tout comme
les prev_file et next_file (114/115), f 25;
#X connect 0 0 41 0;
#X connect 1 0 42 0;
#X connect 2 0 0 0;
#X connect 2 1 1 0;
#X connect 3 0 4 0;
#X connect 3 1 4 1;
#X connect 4 0 40 0;
#X connect 5 0 3 0;
#X connect 6 0 3 0;
#X connect 7 0 9 0;
#X connect 8 0 10 0;
#X connect 10 0 7 0;
#X connect 33 0 12 0;
#X connect 34 0 12 1;
#X connect 35 0 12 2;
#X connect 36 0 39 1;
#X connect 37 0 39 0;
#X connect 38 0 39 2;
#X connect 39 0 11 0;
#X connect 39 0 44 0;
#X connect 39 1 13 0;
#X connect 39 1 67 0;
#X connect 40 0 2 0;
#X connect 40 1 2 1;
#X connect 44 0 43 0;
#X connect 45 0 44 1;
#X connect 46 0 45 0;
#X connect 47 0 49 0;
#X connect 50 0 51 0;
#X connect 52 0 54 0;
#X connect 53 0 55 0;
#X connect 56 0 59 0;
#X connect 57 0 58 0;
#X connect 60 0 61 0;
#X connect 67 0 66 0;
