#N canvas 0 59 1119 606 10;
#X text 426 213 original gain \, original pitch \, start at 500 ms
;
#X msg 341 348 sr 44100;
#X msg 458 411 stop;
#X text 504 414 stop playing;
#X obj 457 44 route 0;
#X obj 504 102 unpack f f;
#X obj 573 250 mtof;
#X obj 591 282 / 261.6;
#X obj 507 262 dbtorms;
#X obj 319 299 loadbang;
#X obj 192 451 s_playtable2;
#X obj 603 379 list prepend \$1;
#X obj 345 30 inlet;
#X msg 359 74 \$2 \$1;
#X obj 98 506 outlet~;
#X obj 223 510 outlet~;
#X obj 1027 328 s \$2;
#X obj 938 261 f;
#X obj 739 15 inlet parameters;
#X obj 848 226 t b b;
#X obj 699 359 symbol;
#X obj 573 357 pack f f f f;
#X obj 747 40 dispatch \$0;
#X obj 705 336 r \$0-table;
#X obj 638 291 r \$0-offset;
#X msg 491 521 \$1 \$2 \$3 \$4 \$5;
#X obj 673 409 list prepend 0;
#X obj 671 430 route 0;
#X obj 799 364 r \$0-reverse;
#X obj 783 522 * -1;
#X obj 841 539 +;
#X obj 718 566 pack s f f f f;
#X obj 615 473 list;
#X obj 883 43 u_dispatch;
#X text 988 48 à remplacer ultérieurement;
#X obj 58 308 c_adsr;
#X msg 315 135 1;
#X msg 875 293 0;
#X obj 939 359 delay 100;
#X obj 938 328 t b;
#X msg 603 148 stop;
#X obj 788 190 delay;
#X obj 468 74 t l l b;
#X obj 222 183 switch~;
#X obj 563 317 s \$0-speed;
#N canvas 0 50 450 300 sustain 0;
#X obj 101 234 outlet;
#X obj 78 76 r \$0-sustain;
#X obj 192 133 r \$0-speed;
#X obj 115 188 / 1;
#X obj 155 160 t b f;
#X connect 1 0 3 0;
#X connect 2 0 4 0;
#X connect 3 0 0 0;
#X connect 4 0 3 0;
#X connect 4 1 3 1;
#X restore 845 142 pd sustain;
#X obj 752 152 t b f f;
#N canvas 0 50 450 300 sustain 0;
#X obj 101 234 outlet;
#X obj 78 76 r \$0-sustain;
#X obj 192 133 r \$0-speed;
#X obj 115 188 / 1;
#X obj 155 160 t b f;
#X connect 1 0 3 0;
#X connect 2 0 4 0;
#X connect 3 0 0 0;
#X connect 4 0 3 0;
#X connect 4 1 3 1;
#X restore 660 313 pd sustain;
#X obj 506 327 min 1.1;
#X obj 898 450 r \$0-sustain;
#X obj 737 475 unpack f s f f f f;
#X obj 506 297 max 0.2;
#X msg 248 392 fade 2 2;
#X obj 244 363 loadbang;
#X connect 1 0 10 1;
#X connect 2 0 10 1;
#X connect 4 1 42 0;
#X connect 5 0 8 0;
#X connect 5 1 46 0;
#X connect 6 0 7 0;
#X connect 7 0 21 1;
#X connect 7 0 44 0;
#X connect 8 0 51 0;
#X connect 9 0 1 0;
#X connect 10 0 14 0;
#X connect 10 1 15 0;
#X connect 11 0 26 0;
#X connect 12 0 13 0;
#X connect 13 0 4 0;
#X connect 17 0 16 0;
#X connect 17 0 39 0;
#X connect 18 0 22 0;
#X connect 19 0 2 0;
#X connect 19 1 17 0;
#X connect 20 0 11 1;
#X connect 21 0 11 0;
#X connect 23 0 20 0;
#X connect 24 0 21 2;
#X connect 25 0 10 0;
#X connect 26 0 27 0;
#X connect 27 0 32 0;
#X connect 27 1 50 0;
#X connect 28 0 26 1;
#X connect 29 0 31 2;
#X connect 30 0 31 3;
#X connect 31 0 10 0;
#X connect 32 0 25 0;
#X connect 36 0 43 0;
#X connect 37 0 43 0;
#X connect 38 0 37 0;
#X connect 39 0 38 0;
#X connect 40 0 38 0;
#X connect 41 0 19 0;
#X connect 42 0 5 0;
#X connect 42 1 36 0;
#X connect 42 2 40 0;
#X connect 45 0 41 1;
#X connect 46 0 41 0;
#X connect 46 1 6 0;
#X connect 46 2 17 1;
#X connect 47 0 21 3;
#X connect 48 0 21 0;
#X connect 49 0 30 1;
#X connect 50 1 31 0;
#X connect 50 2 31 1;
#X connect 50 3 29 0;
#X connect 50 4 30 0;
#X connect 50 5 31 4;
#X connect 51 0 48 0;
#X connect 52 0 10 1;
#X connect 53 0 52 0;
