#N canvas 148 210 1026 570 10;
#X obj 448 89 route threshold ratio response gain rmspeak lookahead
;
#N canvas 0 50 450 278 (subpatch) 0;
#X array \$0-curve 100 float 0;
#X coords 0 1 99 0 200 130 2 0 0;
#X restore 104 122 graph;
#X floatatom 308 116 5 -100 0 3 Thresh #0-rthreshUI #0-sthreshUI,
f 5;
#X floatatom 309 151 5 0 100 3 Ratio #0-rratioUI #0-sratioUI, f 5
;
#X floatatom 351 116 5 0 0 3 Response #0-rrespUI #0-srespUI, f 5;
#X floatatom 309 221 5 0 500 3 Lookahead #0-rlookUI #0-slookUI, f
5;
#X obj 309 186 hradio 15 1 0 2 \$0-srmsUI \$0-rrmsUI RMS/Peak 0 24
0 10 -262144 -1 -1 0;
#X floatatom 352 151 5 0 0 3 Gain #0-rgainUI #0-sgainUI, f 5;
#X obj 448 263 s \$0-rthreshUI;
#X obj 103 448 outlet;
#X obj 103 321 r \$0-sthreshUI;
#X msg 103 343 threshold \$1;
#X obj 204 321 r \$0-sratioUI;
#X msg 204 343 ratio \$1;
#X obj 292 322 r \$0-srespUI;
#X msg 292 344 response \$1;
#X obj 378 323 r \$0-sgainUI;
#X msg 378 345 gain \$1;
#X obj 464 323 r \$0-slookUI;
#X msg 464 345 lookahead \$1;
#X obj 559 323 r \$0-srmsUI;
#X msg 559 345 rmspeak \$1;
#X obj 500 244 s \$0-rratioUI;
#X obj 553 223 s \$0-rrespUI;
#X obj 605 200 s \$0-rgainUI;
#X obj 658 175 s \$0-rrmsUI;
#X obj 710 152 s \$0-rlookUI;
#X obj 448 43 inlet;
#X msg 448 111 set \$1;
#X msg 499 111 set \$1;
#X msg 553 111 set \$1;
#X msg 605 112 set \$1;
#X msg 711 110 set \$1;
#X msg 658 112 set \$1;
#X obj 369 221 bng 15 250 50 0 \$0-sdump \$0-rdump Get 0 23 0 10 -262144
-1 -1;
#X obj 649 322 r \$0-sdump;
#X msg 649 344 dump;
#X obj 649 366 symbol;
#N canvas 541 50 833 653 calculateGraph 0;
#X obj 95 406 -;
#X obj 95 454 *;
#X obj 95 507 +;
#X obj 95 546 /;
#X obj 75 597 *;
#X obj 72 647 tabwrite \$0-curve;
#X obj 76 363 t f f f;
#X obj 76 271 f;
#X obj 110 271 + 1;
#X obj 76 239 until;
#X msg 76 216 100;
#X msg 121 240 0;
#X obj 161 291 r \$0-sthreshUI;
#X obj 267 290 r \$0-sratioUI;
#X obj 76 325 / 100;
#X obj 76 293 t f f;
#X obj 174 511 t f;
#X obj 161 333 dbtorms;
#X obj 161 311 + 100;
#X obj 268 346 /;
#X obj 268 315 swap 1;
#X obj 76 186 t b b;
#X obj 76 33 r \$0-sthreshUI;
#X obj 179 33 r \$0-sratioUI;
#X obj 76 155 del 50;
#X obj 271 33 r \$0-rthreshUI;
#X obj 364 34 r \$0-rratioUI;
#X obj 364 56 route set;
#X obj 271 53 route set;
#X obj 95 569 clip 0 1;
#X obj 496 51 r \$0-sgainUI;
#X obj 494 106 route set;
#X obj 494 84 r \$0-rgainUI;
#X obj 441 333 dbtorms;
#X obj 441 311 + 100;
#X obj 75 619 * 1;
#X connect 0 0 1 0;
#X connect 1 0 2 0;
#X connect 2 0 3 0;
#X connect 3 0 29 0;
#X connect 4 0 35 0;
#X connect 6 0 4 0;
#X connect 6 1 0 0;
#X connect 6 2 3 1;
#X connect 7 0 8 0;
#X connect 7 0 15 0;
#X connect 8 0 7 1;
#X connect 9 0 7 0;
#X connect 10 0 9 0;
#X connect 11 0 7 1;
#X connect 12 0 18 0;
#X connect 13 0 20 0;
#X connect 14 0 6 0;
#X connect 15 0 14 0;
#X connect 15 1 16 0;
#X connect 16 0 5 1;
#X connect 17 0 0 1;
#X connect 17 0 2 1;
#X connect 18 0 17 0;
#X connect 19 0 1 1;
#X connect 20 0 19 0;
#X connect 20 1 19 1;
#X connect 21 0 10 0;
#X connect 21 1 11 0;
#X connect 22 0 24 0;
#X connect 23 0 24 0;
#X connect 24 0 21 0;
#X connect 25 0 28 0;
#X connect 26 0 27 0;
#X connect 27 0 20 0;
#X connect 27 0 24 0;
#X connect 28 0 18 0;
#X connect 28 0 24 0;
#X connect 29 0 4 1;
#X connect 30 0 24 0;
#X connect 31 0 24 1;
#X connect 31 0 34 0;
#X connect 32 0 31 0;
#X connect 33 0 35 1;
#X connect 34 0 33 0;
#X connect 35 0 5 0;
#X restore 105 276 pd calculateGraph;
#X obj 809 19 inlet~;
#X obj 814 49 env~;
#X obj 814 71 dbtorms;
#X obj 879 29 inlet~;
#X obj 884 59 env~;
#X obj 884 81 dbtorms;
#X obj 152 221 cnv 2 4 4 empty \$0-curseur empty 20 12 0 14 -258113
-66577 0;
#X obj 818 230 s \$0-curseur;
#X obj 814 137 pack f f;
#X msg 814 159 pos \$1 \$2;
#X obj 814 115 + 102;
#X obj 884 125 + 250;
#X obj 814 93 * 200;
#X obj 884 103 * -130;
#X obj 804 324 r \$0-sgainUI;
#X msg 804 346 gain \$1;
#X connect 0 0 28 0;
#X connect 0 1 29 0;
#X connect 0 2 30 0;
#X connect 0 3 31 0;
#X connect 0 4 33 0;
#X connect 0 5 32 0;
#X connect 10 0 11 0;
#X connect 11 0 9 0;
#X connect 12 0 13 0;
#X connect 13 0 9 0;
#X connect 14 0 15 0;
#X connect 15 0 9 0;
#X connect 16 0 17 0;
#X connect 17 0 9 0;
#X connect 18 0 19 0;
#X connect 19 0 9 0;
#X connect 20 0 21 0;
#X connect 21 0 9 0;
#X connect 27 0 0 0;
#X connect 28 0 8 0;
#X connect 29 0 22 0;
#X connect 30 0 23 0;
#X connect 31 0 24 0;
#X connect 32 0 26 0;
#X connect 33 0 25 0;
#X connect 35 0 36 0;
#X connect 36 0 37 0;
#X connect 37 0 9 0;
#X connect 39 0 40 0;
#X connect 40 0 41 0;
#X connect 41 0 51 0;
#X connect 42 0 43 0;
#X connect 43 0 44 0;
#X connect 44 0 52 0;
#X connect 47 0 48 0;
#X connect 48 0 46 0;
#X connect 49 0 47 0;
#X connect 50 0 47 1;
#X connect 51 0 49 0;
#X connect 52 0 50 0;
#X connect 53 0 54 0;
#X connect 54 0 9 0;
#X coords 0 -1 1 1 310 160 2 100 100;
