#N canvas 446 73 446 367 10;
#X obj 100 102 vsl 15 128 0 1 0 0 empty empty \$1 0 -9 0 10 -261682
-1 -1 0 1;
#X obj 190 43 r toGUI;
#X obj 200 95 route \$1;
#X obj 216 70 list trim;
#X msg 197 126 set \$1;
#X obj 61 249 list prepend \$1;
#X obj 60 283 list trim;
#X obj 64 312 s fromGUI;
#X connect 0 0 5 0;
#X connect 1 0 3 0;
#X connect 2 0 4 0;
#X connect 3 0 2 0;
#X connect 4 0 0 0;
#X connect 5 0 6 0;
#X connect 6 0 7 0;
#X coords 0 -1 1 1 15 133 2 100 100;
