#N canvas 473 125 1366 685 16;
#X obj 440 559 route key;
#X msg 461 594 \$2 \$1;
#X obj 501 318 spigot;
#X obj 497 337 unpack f f f f;
#X obj 400 141 vsl 50 395 0 1 0 1 empty my_speed SPEED 0 20 0 17 -262144
-1 -1 32100 1;
#X obj 485 394 +;
#X msg 824 662 \; fromSystem list /tilts 0 0;
#X obj 263 694 s fromGUI;
#X obj 276 557 tgl 15 0 empty empty empty 17 7 0 10 -262144 -1 -1 1
1;
#X obj 148 563 tgl 15 0 empty empty empty 17 7 0 10 -262144 -1 -1 1
1;
#X msg 262 659 /speed1 \$1;
#N canvas 0 50 450 300 || 0;
#X obj 159 64 inlet;
#X obj 276 63 inlet;
#X obj 203 114 t b f;
#X obj 177 149 ||;
#X obj 180 187 outlet;
#X obj 145 106 change;
#X obj 285 103 change;
#X connect 0 0 5 0;
#X connect 1 0 6 0;
#X connect 2 0 3 0;
#X connect 2 1 3 1;
#X connect 3 0 4 0;
#X connect 5 0 3 0;
#X connect 6 0 2 0;
#X restore 158 663 pd ||;
#N canvas 0 50 450 300 || 0;
#X obj 159 64 inlet;
#X obj 276 63 inlet;
#X obj 203 114 t b f;
#X obj 177 149 ||;
#X obj 172 213 outlet;
#X obj 145 106 change;
#X obj 285 103 change;
#X obj 178 183 change;
#X connect 0 0 5 0;
#X connect 1 0 6 0;
#X connect 2 0 3 0;
#X connect 2 1 3 1;
#X connect 3 0 7 0;
#X connect 5 0 3 0;
#X connect 6 0 2 0;
#X connect 7 0 4 0;
#X restore 155 686 pd ||;
#X obj 101 50 hradio 30 1 0 10 empty empty empty 0 -8 0 10 -262144
-4034 -1 7;
#X symbolatom 0 29 40 0 0 0 - - -, f 40;
#N canvas 128 75 734 466 gestion_fichiers 0;
#X obj 60 9 receive filemenu;
#X obj 208 46 t b f b f;
#X obj 118 400 s fromGUI;
#X msg 108 355 list /menu1 \$2 \$1;
#X obj 109 313 pack s f;
#X obj 259 22 inlet;
#X obj 394 215 makefilename ../sounds/%s.wav;
#X obj 402 305 soundfiler;
#X msg 436 271 read -resize \$1 sample;
#X obj 60 128 list split;
#X obj 65 177 list split 1;
#X obj 45 87 list append;
#X obj 111 231 t s s s;
#X connect 0 0 11 1;
#X connect 1 0 11 0;
#X connect 1 1 9 1;
#X connect 1 3 4 1;
#X connect 3 0 2 0;
#X connect 4 0 3 0;
#X connect 5 0 1 0;
#X connect 6 0 8 0;
#X connect 8 0 7 0;
#X connect 9 1 10 0;
#X connect 10 0 12 0;
#X connect 11 0 9 0;
#X connect 12 0 4 0;
#X connect 12 2 6 0;
#X restore -218 116 pd gestion_fichiers;
#N canvas 0 50 478 341 position 0;
#X obj 66 56 inlet;
#X obj 256 24 inlet key;
#X obj 332 141 select 1 0;
#X msg 274 228 /position1 touch 0 1 \$1 \$2;
#X msg 76 226 /position1 touch 0 0 \$1 \$2;
#X obj 48 270 s fromGUI;
#X obj 291 168 list append 0 0;
#X obj 279 194 list append 0 0;
#X obj 77 121 spigot;
#X msg 47 175 /position1 touch 0 2 \$1 \$2;
#X connect 0 0 8 0;
#X connect 0 0 6 1;
#X connect 0 0 7 1;
#X connect 1 0 8 1;
#X connect 1 0 2 0;
#X connect 2 0 6 0;
#X connect 2 1 7 0;
#X connect 3 0 5 0;
#X connect 4 0 5 0;
#X connect 6 0 3 0;
#X connect 7 0 4 0;
#X connect 8 0 9 0;
#X connect 9 0 5 0;
#X restore 50 739 pd position;
#N canvas 0 50 450 250 (subpatch) 0;
#X array sample 558464 float 0;
#X coords 0 1 558463 -1 400 60 1 0 0;
#X restore 1 80 graph;
#X obj 3 80 hsl 395 60 0 1 0 0 range-slider empty empty -2 -8 0 10
-262144 -262144 -262144 38700 0;
#X obj 176 80 cnv 5 216 60 empty sel-cnv empty 20 12 0 14 -228856 -228856
0;
#X obj 131 590 route 115 97 113 119 122;
#X obj 492 370 * 2;
#N canvas 0 50 814 410 raccourcis_selection_sample 0;
#X obj 59 22 inlet;
#X obj 60 240 outlet;
#X obj 94 183 moses 10;
#X obj 105 122 - 49;
#X obj 84 150 moses 0;
#X obj 225 149 select 38 233 34 39 40 45 232 95 231 224 48;
#X msg 219 184 0;
#X msg 252 182 1;
#X msg 289 186 2;
#X msg 328 186 3;
#X msg 370 186 4;
#X msg 403 184 5;
#X msg 440 188 6;
#X msg 479 188 7;
#X msg 445 233 8;
#X msg 484 234 9;
#X obj 152 257 f;
#X obj 114 55 list split 1;
#X obj 665 189 route float;
#X obj 664 221 list;
#X connect 0 0 17 0;
#X connect 2 0 16 0;
#X connect 3 0 4 0;
#X connect 4 1 2 0;
#X connect 5 0 6 0;
#X connect 5 1 7 0;
#X connect 5 2 8 0;
#X connect 5 3 9 0;
#X connect 5 4 10 0;
#X connect 5 5 11 0;
#X connect 5 6 12 0;
#X connect 5 7 13 0;
#X connect 5 8 14 0;
#X connect 5 9 15 0;
#X connect 5 10 15 0;
#X connect 5 11 18 0;
#X connect 6 0 16 0;
#X connect 7 0 16 0;
#X connect 8 0 16 0;
#X connect 9 0 16 0;
#X connect 10 0 16 0;
#X connect 11 0 16 0;
#X connect 12 0 16 0;
#X connect 13 0 16 0;
#X connect 14 0 16 0;
#X connect 15 0 16 0;
#X connect 16 0 1 0;
#X connect 17 0 5 0;
#X connect 18 0 19 0;
#X connect 19 0 3 0;
#X restore 394 742 pd raccourcis_selection_sample;
#X obj 822 629 loadbang;
#N canvas 0 50 450 300 || 0;
#X obj 159 64 inlet;
#X obj 276 63 inlet;
#X obj 203 114 t b f;
#X obj 177 149 ||;
#X obj 172 213 outlet;
#X obj 145 106 change;
#X obj 285 103 change;
#X obj 178 183 change;
#X connect 0 0 5 0;
#X connect 1 0 6 0;
#X connect 2 0 3 0;
#X connect 2 1 3 1;
#X connect 3 0 7 0;
#X connect 5 0 3 0;
#X connect 6 0 2 0;
#X connect 7 0 4 0;
#X restore 170 718 pd ||;
#X obj 243 80 cnv 1 25 60 empty pos-cnv empty 20 12 0 14 -258113 -258113
0;
#N canvas 344 77 600 598 selection 0;
#X obj 94 52 inlet;
#X obj 274 52 inlet key;
#X obj 141 98 spigot;
#X obj 104 142 unpack f f f f;
#X obj 99 244 moses;
#X obj 120 188 spigot 1;
#X msg 226 196 0;
#X obj 73 165 t f f;
#X obj 234 83 change;
#X msg 229 168 1;
#X obj 288 172 r 1-sample-duration-ms;
#X obj 293 221 * 44.1;
#X obj 205 329 *;
#X obj 125 331 *;
#X obj 137 388 pack f f;
#X obj 136 441 s fromGUI;
#X obj 135 415 list prepend /sample1-1 range;
#X obj 226 121 select 0;
#X obj 236 144 bng 15 250 50 0 empty empty empty 17 7 0 10 -262144
-1 -1;
#X obj 149 216 t f f b;
#X obj 92 306 f;
#X obj 133 279 t b f;
#X obj 28 436 pack f f;
#X obj 54 373 -;
#X obj 54 399 * -1;
#X obj 25 348 t f f;
#X obj 22 316 * 400;
#X obj 79 337 * 400;
#X obj 28 17 r range-slider;
#X obj 177 31 inlet button;
#X obj 177 56 change;
#X obj 9 570 s sel-cnv;
#X msg 10 540 pos \$1 80 \, vis_size \$2 60;
#X connect 0 0 2 0;
#X connect 1 0 8 0;
#X connect 2 0 3 0;
#X connect 3 0 7 0;
#X connect 4 0 20 0;
#X connect 4 1 21 0;
#X connect 5 0 19 0;
#X connect 6 0 5 1;
#X connect 7 0 4 0;
#X connect 7 1 5 0;
#X connect 8 0 2 1;
#X connect 8 0 17 0;
#X connect 9 0 5 1;
#X connect 10 0 11 0;
#X connect 11 0 12 1;
#X connect 11 0 13 1;
#X connect 12 0 14 1;
#X connect 13 0 14 0;
#X connect 14 0 16 0;
#X connect 16 0 15 0;
#X connect 17 0 9 0;
#X connect 17 0 18 0;
#X connect 19 0 4 1;
#X connect 19 1 20 0;
#X connect 19 2 6 0;
#X connect 20 0 13 0;
#X connect 20 0 26 0;
#X connect 21 0 20 0;
#X connect 21 1 12 0;
#X connect 21 1 27 0;
#X connect 22 0 32 0;
#X connect 23 0 24 0;
#X connect 24 0 22 1;
#X connect 25 0 22 0;
#X connect 25 1 23 0;
#X connect 26 0 25 0;
#X connect 27 0 23 1;
#X connect 28 0 3 0;
#X connect 29 0 30 0;
#X connect 30 0 17 0;
#X connect 32 0 31 0;
#X restore 41 622 pd selection;
#N canvas 0 50 450 300 affichage_position 0;
#X obj -101 -3161 r toGUI;
#X obj -97 -3130 list trim;
#X obj -100 -3098 route /myLCD-1;
#X obj -100 -3071 route paintrect;
#X obj -95 -3038 unpack f f f;
#X obj -46 -3003 -;
#X obj -95 -3001 t f f;
#X obj -44 -2978 * -1;
#X obj -42 -2956 * 400;
#X obj -104 -2953 * 400;
#X obj -80 -2917 pack f f;
#X obj 220 -3078 inlet;
#X obj 183 -3020 select 0;
#X obj -22 -2854 s pos-cnv;
#X msg -78 -2889 pos \$1 80 \, vis_size \$2 60;
#X msg 74 -2971 pos 0 80 \, vis_size 0 0;
#X connect 0 0 1 0;
#X connect 1 0 2 0;
#X connect 2 0 3 0;
#X connect 3 0 4 0;
#X connect 4 0 6 0;
#X connect 4 2 5 1;
#X connect 5 0 7 0;
#X connect 6 0 9 0;
#X connect 6 1 5 0;
#X connect 7 0 8 0;
#X connect 8 0 10 1;
#X connect 9 0 10 0;
#X connect 10 0 14 0;
#X connect 11 0 12 0;
#X connect 12 0 15 0;
#X connect 14 0 13 0;
#X connect 15 0 13 0;
#X restore 192 749 pd affichage_position;
#X text 696 338 simuler l'accélérometre qui n'existe pas sous OsX
/ win;
#X obj 562 386 route 1;
#X obj 579 697 s fromSystem;
#X obj 579 668 list prepend /tilts;
#X obj 581 607 line;
#X msg 582 562 0 200;
#X msg 581 637 \$1 0;
#X msg 723 562 0.9 200;
#X msg 633 565 0.6 200;
#X obj 400 82 vsl 50 55 0 1 0 0 \$0-inv.snd \$0-inv.rcv INV. 2 20 0
20 -233017 -233017 -128992 0 0;
#N canvas 850 86 599 384 toogle_invert 0;
#X obj -4854 272 s \$0-inv.rcv;
#X obj -4794 18 r \$0-inv.snd;
#X msg -4852 230 color 10 10 11;
#X msg -4649 183 color 19 19 -1;
#X obj -4781 105 v \$0-inv;
#X obj -4784 71 t b;
#X obj -4786 139 == 0;
#X obj -4965 176 v \$0-inv;
#X obj -4846 191 select 0 1;
#X obj -4635 340 s fromGUI;
#X obj -4684 288 list prepend /invert1;
#X obj -4901 147 t f f f;
#X connect 1 0 5 0;
#X connect 2 0 0 0;
#X connect 3 0 0 0;
#X connect 4 0 6 0;
#X connect 5 0 4 0;
#X connect 6 0 11 0;
#X connect 8 0 2 0;
#X connect 8 1 3 0;
#X connect 10 0 9 0;
#X connect 11 0 7 0;
#X connect 11 1 8 0;
#X connect 11 2 10 0;
#X restore 633 125 pd toogle_invert;
#X obj 798 568 t b;
#X obj 817 599 s \$0-inv.snd;
#X text 405 114 (x);
#X text 405 170 (s);
#X text 81 117 ZONE DE TRAVAIL (touche z);
#X text 644 95 Inversion de Marche;
#X obj 962 559 t b;
#X msg 958 590 0.5;
#X text 408 326 (c);
#X text 99 53 (1)(2)(3)(4)(5)(6)(7)(8)(9)(0);
#X obj 0 140 mcnv1 400 400;
#X msg 829 732 \; pd dsp 1;
#X obj 571 457 makefilename %c;
#X obj 552 498 select a q w x c;
#X obj 486 391 route Control_L Shift_L Shift_R Control_R Win_L ?? Caps_Lock
;
#X obj 400 2 vsl 50 75 1 0 0 1 empty empty VOL 0 20 0 17 -262144 -1
-1 4312 0;
#X msg 492 102 set \$1;
#X msg 586 228 \$1 40;
#X obj 549 150 t f f;
#X obj 569 185 *;
#X obj 627 180 sqrt;
#X text 435 0 a;
#X text 436 24 q;
#X text 436 48 w;
#X obj -257 183 route /menuLabel1;
#X obj -241 224 symbol;
#X obj -227 9 r toGUI;
#X obj -231 43 list trim;
#X obj 0 140 cnv 15 400 400 empty empty empty 20 12 0 14 -204786 -66577
0;
#X connect 0 0 1 0;
#X connect 0 0 29 0;
#X connect 1 0 20 0;
#X connect 2 0 3 0;
#X connect 3 3 21 0;
#X connect 4 0 5 1;
#X connect 4 0 10 0;
#X connect 5 0 4 0;
#X connect 10 0 7 0;
#X connect 11 0 12 0;
#X connect 12 0 24 0;
#X connect 13 0 15 0;
#X connect 20 0 2 1;
#X connect 20 1 11 0;
#X connect 20 2 11 1;
#X connect 20 3 12 1;
#X connect 20 4 26 2;
#X connect 20 5 22 0;
#X connect 21 0 5 0;
#X connect 22 0 13 0;
#X connect 23 0 6 0;
#X connect 23 0 50 0;
#X connect 24 0 16 1;
#X connect 24 0 27 0;
#X connect 29 0 53 0;
#X connect 31 0 30 0;
#X connect 32 0 34 0;
#X connect 32 0 57 0;
#X connect 33 0 32 0;
#X connect 34 0 31 0;
#X connect 35 0 32 0;
#X connect 36 0 32 0;
#X connect 39 0 40 0;
#X connect 45 0 46 0;
#X connect 46 0 4 0;
#X connect 49 0 2 0;
#X connect 49 0 16 0;
#X connect 49 0 26 0;
#X connect 49 1 9 0;
#X connect 49 2 8 0;
#X connect 49 2 26 1;
#X connect 49 2 24 1;
#X connect 49 3 0 0;
#X connect 51 0 52 0;
#X connect 52 0 33 0;
#X connect 52 1 36 0;
#X connect 52 2 35 0;
#X connect 52 3 39 0;
#X connect 52 4 45 0;
#X connect 53 7 51 0;
#X connect 54 0 59 0;
#X connect 55 0 54 0;
#X connect 56 0 32 0;
#X connect 57 0 58 0;
#X connect 57 1 58 1;
#X connect 58 0 55 0;
#X connect 59 0 56 0;
#X connect 63 0 64 0;
#X connect 64 0 14 0;
#X connect 65 0 66 0;
#X connect 66 0 63 0;
#X coords 0 -1 1 1 450 540 1 0 0;
