#N canvas 0 23 658 432 10;
#N canvas 613 111 207 227 autocorrelation 0;
#X obj 17 43 inlet~;
#X obj 17 100 rfft~;
#X obj 17 164 rifft~;
#X obj 17 129 *~;
#X obj 44 129 *~;
#X obj 17 74 /~ 1024;
#X text 74 128 make power spectrum;
#X obj 17 190 outlet~;
#X obj 107 44 block~ 1024;
#X connect 0 0 5 0;
#X connect 1 0 3 0;
#X connect 1 0 3 1;
#X connect 1 1 4 0;
#X connect 1 1 4 1;
#X connect 2 0 7 0;
#X connect 3 0 2 0;
#X connect 4 0 2 0;
#X connect 5 0 1 0;
#X restore 53 -216 pd autocorrelation;
#X obj 53 -191 env~;
#X obj 53 -245 inlet~;
#X obj 53 -165 dbtorms;
#X obj 53 -68 outlet;
#X text 11 -33 Balandino Di Donato - 2013;
#X text 14 -280 SPECTRAL IRREGULARITY;
#X obj 106 -101 max 0;
#X obj 106 -131 expr 1-($f1*2.5);
#X text 151 -106 not sure how this works \, I've taken these two objects
out for the moment;
#X connect 0 0 1 0;
#X connect 1 0 3 0;
#X connect 2 0 0 0;
#X connect 3 0 4 0;
#X connect 8 0 7 0;
