#N canvas 166 50 1031 522 10;
#X obj -3 96 unpack;
#X obj -3 118 *;
#X obj 40 96 unpack;
#X obj 40 118 *;
#X obj 85 96 unpack;
#X obj 85 118 *;
#X obj 128 96 unpack;
#X obj 128 118 *;
#X obj 117 57 route 1 2 3 4 5 6 7 8 9 10 11 12 13 14 15 16 17 18 19
20;
#X obj 171 96 unpack;
#X obj 171 118 *;
#X obj 214 96 unpack;
#X obj 214 118 *;
#X obj 259 96 unpack;
#X obj 259 118 *;
#X obj 302 96 unpack;
#X obj 302 118 *;
#X obj 345 96 unpack;
#X obj 345 118 *;
#X obj 388 96 unpack;
#X obj 388 118 *;
#X obj 433 96 unpack;
#X obj 433 118 *;
#X obj 476 96 unpack;
#X obj 476 118 *;
#X obj 519 96 unpack;
#X obj 519 118 *;
#X obj 562 96 unpack;
#X obj 562 118 *;
#X obj 607 96 unpack;
#X obj 607 118 *;
#X obj 650 96 unpack;
#X obj 650 118 *;
#X obj 694 96 unpack;
#X obj 694 118 *;
#X obj 737 96 unpack;
#X obj 737 118 *;
#X obj 782 96 unpack;
#X obj 782 118 *;
#X obj 825 96 unpack;
#X obj 825 118 *;
#X obj -3 146 expr $f1+$f2+$f3+$f4+$f5+$f6+$f7+$f9;
#X obj 227 146 expr $f1+$f2+$f3+$f4+$f5+$f6+$f7+$f9;
#X obj -3 175 expr $f1+$f2+$f3+$f4;
#X obj 477 146 expr $f1+$f2+$f3+$f4+$f5+$f6+$f7+$f9;
#X obj 707 146 expr $f1+$f2+$f3+$f4+$f5+$f6+$f7+$f9;
#X obj 477 175 expr $f1+$f2+$f3+$f4;
#X obj -3 197 /;
#X obj -3 309 outlet;
#X obj 0 10 inlet~;
#X text 395 297 Balandino Di Donato - 2013;
#X obj 0 35 fiddle~ 2048 1 20 20;
#X obj 735 13 inlet;
#X obj 796 57 switch~;
#X connect 0 0 1 0;
#X connect 0 1 1 1;
#X connect 0 1 44 0;
#X connect 1 0 41 0;
#X connect 2 0 3 0;
#X connect 2 1 3 1;
#X connect 2 1 44 1;
#X connect 3 0 41 1;
#X connect 4 0 5 0;
#X connect 4 1 5 1;
#X connect 4 1 44 2;
#X connect 5 0 41 2;
#X connect 6 0 7 0;
#X connect 6 1 7 1;
#X connect 6 1 44 3;
#X connect 7 0 41 3;
#X connect 8 0 0 0;
#X connect 8 1 2 0;
#X connect 8 2 4 0;
#X connect 8 3 6 0;
#X connect 8 4 9 0;
#X connect 8 5 11 0;
#X connect 8 6 13 0;
#X connect 8 7 15 0;
#X connect 8 8 17 0;
#X connect 8 9 19 0;
#X connect 8 10 21 0;
#X connect 8 11 23 0;
#X connect 8 12 25 0;
#X connect 8 13 27 0;
#X connect 8 14 29 0;
#X connect 8 15 31 0;
#X connect 8 16 33 0;
#X connect 8 17 35 0;
#X connect 8 18 37 0;
#X connect 8 19 39 0;
#X connect 9 0 10 0;
#X connect 9 1 10 1;
#X connect 9 1 44 4;
#X connect 10 0 41 4;
#X connect 11 0 12 0;
#X connect 11 1 12 1;
#X connect 11 1 44 5;
#X connect 12 0 41 5;
#X connect 13 0 14 0;
#X connect 13 1 14 1;
#X connect 13 1 44 6;
#X connect 14 0 41 6;
#X connect 15 0 16 0;
#X connect 15 1 16 1;
#X connect 15 1 44 7;
#X connect 16 0 41 7;
#X connect 17 0 18 0;
#X connect 17 1 18 1;
#X connect 17 1 44 8;
#X connect 18 0 41 8;
#X connect 19 0 20 0;
#X connect 19 1 20 1;
#X connect 19 1 45 0;
#X connect 20 0 42 0;
#X connect 21 0 22 0;
#X connect 21 1 22 1;
#X connect 21 1 45 1;
#X connect 22 0 42 1;
#X connect 23 0 24 0;
#X connect 23 1 24 1;
#X connect 23 1 45 2;
#X connect 24 0 42 2;
#X connect 25 0 26 0;
#X connect 25 1 26 1;
#X connect 25 1 45 3;
#X connect 26 0 42 3;
#X connect 27 0 28 0;
#X connect 27 1 28 1;
#X connect 27 1 45 4;
#X connect 28 0 42 4;
#X connect 29 0 30 0;
#X connect 29 1 30 1;
#X connect 29 1 45 5;
#X connect 30 0 42 5;
#X connect 31 0 32 0;
#X connect 31 1 32 1;
#X connect 31 1 45 6;
#X connect 32 0 42 6;
#X connect 33 0 34 0;
#X connect 33 1 34 1;
#X connect 33 1 45 7;
#X connect 34 0 42 7;
#X connect 35 0 36 0;
#X connect 35 1 36 1;
#X connect 35 1 45 8;
#X connect 36 0 42 8;
#X connect 37 0 38 0;
#X connect 37 1 38 1;
#X connect 37 1 46 2;
#X connect 38 0 43 2;
#X connect 39 0 40 0;
#X connect 39 1 40 1;
#X connect 39 1 46 3;
#X connect 40 0 43 3;
#X connect 41 0 43 0;
#X connect 42 0 43 1;
#X connect 43 0 47 0;
#X connect 44 0 46 0;
#X connect 45 0 46 1;
#X connect 46 0 47 1;
#X connect 47 0 48 0;
#X connect 49 0 51 0;
#X connect 51 4 8 0;
#X connect 52 0 53 0;
