#N canvas 145 82 948 610 12;
#X obj 85 77 inlet;
#X text 644 113 24 noire;
#X text 648 184 12 croche;
#X text 641 142 18 croche pointée;
#X text 649 167 16 triolet noire;
#X text 642 279 6 double;
#X text 645 232 9 double pointée;
#X text 642 252 8 triolet croche;
#X text 640 6 48 blanche;
#X text 639 39 36 noire pointée;
#X text 652 66 32 triolet blanche;
#X text 651 88 30 valeur de 5 double;
#X text 649 306 4 triolet double;
#X obj 352 70 s \$0-table;
#X obj 354 105 table \$0-table 12;
#X obj 133 -2 loadbang;
#X obj 375 217 tabread \$0-table;
#X obj 17 160 spigot;
#X obj 58 338 mod;
#X obj 54 435 select 0;
#X obj 20 35 inlet CLOCK;
#X obj 21 485 outlet CLOCK;
#X obj 337 384 tabread \$2.x;
#X obj 455 384 tabread \$2.y;
#X obj 181 125 select 1;
#X obj 184 162 v \$2.Perimeter;
#X obj 262 208 sqrt;
#X obj 266 281 /;
#X obj 262 230 t b f;
#X msg 263 255 1;
#X obj 351 178 * \$1;
#X obj 352 247 /;
#X obj 389 141 t f f;
#X obj 356 295 +;
#X obj 377 320 mod \$1;
#X obj 317 305 f;
#X obj 375 353 t f f;
#X obj 350 431 -;
#X obj 358 462 /;
#X obj 490 431 -;
#X obj 493 462 /;
#X obj 495 320 unpack f f f f;
#X obj 501 281 r BOUNDINGSRECT;
#X obj 358 489 * 127;
#X obj 357 513 min 127;
#X obj 360 537 max 0;
#X obj 488 489 * 127;
#X obj 487 513 min 127;
#X obj 490 537 max 0;
#X obj 199 466 s \$2;
#X obj 85 103 t f f f;
#X floatatom 104 141 5 0 0 0 - - -, f 5;
#X obj 258 185 / 50;
#N canvas 0 50 758 509 sound 0;
#X obj 87 215 mtof;
#X obj 284 276 *~;
#X obj 162 78 / 2;
#X obj 87 277 line~;
#X msg 70 253 \$1 5;
#X obj 164 145 int;
#X obj 149 10 inlet;
#X obj 316 227 osc~;
#X obj 181 240 phasor~;
#X obj 198 273 *~ 0.03;
#X obj 48 189 rj_dj/m_minorscale 1;
#X obj 156 111 + 0;
#X obj 165 40 t f b;
#X obj 214 151 r BASENOTE;
#X obj 493 230 vline~;
#X obj 280 22 inlet;
#X obj 442 -11 + 30;
#X obj 366 99 * 4;
#X obj 302 355 throw~ L;
#X obj 426 354 throw~ R;
#X obj 428 291 rj_dj/e_pan;
#X obj 466 268 / 127;
#X obj 245 73 mtof;
#X obj 264 306 *~;
#X obj 241 100 osc~;
#X obj 258 133 *~ 0.005;
#X obj 487 148 pack f f;
#X obj 494 16 t f b;
#X obj 555 121 dbtorms;
#X msg 431 187 \$2 10 \, 0 \$1 10;
#X floatatom 461 58 5 0 0 0 - - -, f 5;
#X obj 461 116 *;
#X obj 531 42 random 5;
#X obj 634 62 - 5;
#X obj 531 68 * 7;
#X obj 531 92 + 64;
#X obj 634 90 * -0.7;
#X connect 0 0 4 0;
#X connect 0 0 7 0;
#X connect 0 0 8 0;
#X connect 1 0 20 0;
#X connect 2 0 11 0;
#X connect 4 0 3 0;
#X connect 5 0 10 0;
#X connect 6 0 12 0;
#X connect 7 0 1 0;
#X connect 7 0 23 1;
#X connect 8 0 9 0;
#X connect 9 0 1 0;
#X connect 10 0 0 0;
#X connect 11 0 5 0;
#X connect 12 0 2 0;
#X connect 13 0 10 1;
#X connect 14 0 1 1;
#X connect 15 0 21 0;
#X connect 15 0 22 0;
#X connect 15 0 17 0;
#X connect 16 0 27 0;
#X connect 17 0 16 0;
#X connect 20 0 18 0;
#X connect 20 1 19 0;
#X connect 21 0 20 1;
#X connect 22 0 24 0;
#X connect 23 0 1 0;
#X connect 24 0 25 0;
#X connect 25 0 23 0;
#X connect 26 0 29 0;
#X connect 27 0 30 0;
#X connect 27 0 31 0;
#X connect 27 1 32 0;
#X connect 28 0 26 1;
#X connect 29 0 14 0;
#X connect 31 0 26 0;
#X connect 32 0 33 0;
#X connect 32 0 34 0;
#X connect 33 0 36 0;
#X connect 34 0 35 0;
#X connect 35 0 28 0;
#X connect 36 0 31 1;
#X restore 715 458 pd sound;
#X obj 326 562 hsl 128 15 0 127 0 0 empty empty empty -2 -8 0 10 -262144
-1 -1 0 1;
#X obj 464 443 vsl 15 128 0 127 0 0 empty empty empty 0 -9 0 10 -262144
-1 -1 0 1;
#X obj 217 431 pack f f;
#X obj 230 398 s \$2;
#X obj 463 243 r STEP;
#X obj 413 286 * 1;
#X obj 413 243 t b f, f 4;
#X floatatom 183 210 5 0 0 0 - - -, f 5;
#X obj 490 24 list length;
#X obj 430 165 min 0.99;
#X obj 431 191 * 12;
#X obj 299 41 list prepend 0;
#X msg 142 23 3 6 9 12 16 18 24 30 32 36 48;
#X obj 457 -2 r DIVISIONS;
#X connect 0 0 50 0;
#X connect 15 0 66 0;
#X connect 16 0 18 1;
#X connect 16 0 31 1;
#X connect 17 0 18 0;
#X connect 18 0 19 0;
#X connect 19 0 35 0;
#X connect 19 0 25 0;
#X connect 20 0 17 0;
#X connect 20 0 21 0;
#X connect 22 0 37 0;
#X connect 22 0 56 0;
#X connect 23 0 39 0;
#X connect 23 0 56 1;
#X connect 24 0 25 0;
#X connect 25 0 52 0;
#X connect 25 0 61 0;
#X connect 26 0 28 0;
#X connect 27 0 32 0;
#X connect 28 0 29 0;
#X connect 28 1 27 1;
#X connect 29 0 27 0;
#X connect 30 0 31 0;
#X connect 31 0 59 0;
#X connect 32 0 30 0;
#X connect 32 1 63 0;
#X connect 33 0 34 0;
#X connect 34 0 35 1;
#X connect 34 0 36 0;
#X connect 35 0 33 0;
#X connect 36 0 22 0;
#X connect 36 1 23 0;
#X connect 37 0 38 0;
#X connect 38 0 43 0;
#X connect 39 0 40 0;
#X connect 40 0 46 0;
#X connect 41 0 37 1;
#X connect 41 1 39 1;
#X connect 41 2 38 1;
#X connect 41 3 40 1;
#X connect 42 0 41 0;
#X connect 43 0 44 0;
#X connect 44 0 45 0;
#X connect 45 0 54 0;
#X connect 46 0 47 0;
#X connect 47 0 48 0;
#X connect 48 0 55 0;
#X connect 48 0 53 1;
#X connect 50 0 17 1;
#X connect 50 1 24 0;
#X connect 50 2 57 0;
#X connect 52 0 26 0;
#X connect 54 0 53 0;
#X connect 56 0 49 0;
#X connect 58 0 60 0;
#X connect 59 0 33 1;
#X connect 60 0 59 0;
#X connect 60 1 59 1;
#X connect 62 0 64 1;
#X connect 63 0 51 0;
#X connect 63 0 64 0;
#X connect 64 0 16 0;
#X connect 65 0 13 0;
#X connect 66 0 65 0;
#X connect 67 0 62 0;
#X connect 67 0 65 0;
#X coords 0 610 1 609 85 60 0;
