#N canvas 343 50 646 561 16;
#X obj 54 444 *~;
#X obj 140 412 line~;
#X obj 53 23 inlet;
#X obj 60 71 unpack f f;
#X obj 60 125 mtof;
#X text 135 123 conversion midi-fréquence;
#X text 177 187 oscillateur;
#X text 401 242 conversion vélocité;
#X text 491 278 / enveloppe;
#X obj 428 420 switch~;
#X msg 449 364 1;
#X msg 377 361 0;
#X obj 328 174 select 0;
#X obj 167 228 / 128;
#X obj 62 205 * 0.329222;
#X obj 254 336 / 48;
#X obj 255 373 min 0.5;
#X obj 254 407 max -0.5;
#X obj 254 441 + 0.5;
#X obj 331 443 - 0.5;
#X obj 330 479 * -1;
#X obj 108 482 *~ 0.5;
#X obj 232 484 *~ 0.5;
#X msg 165 278 0;
#X obj 11 291 tabosc4~ \$1;
#X obj 52 525 throw~ \$1-l;
#X obj 229 526 throw~ \$1-r;
#X msg 440 201 stop;
#X obj 269 80 +;
#X obj 305 45 r offset;
#X msg 255 285 0 100;
#X obj 372 308 delay 150;
#X msg 131 353 \$1 30;
#X connect 0 0 21 0;
#X connect 0 0 22 0;
#X connect 1 0 0 1;
#X connect 2 0 3 0;
#X connect 3 0 15 0;
#X connect 3 0 28 0;
#X connect 3 1 12 0;
#X connect 4 0 14 0;
#X connect 10 0 9 0;
#X connect 11 0 9 0;
#X connect 12 0 30 0;
#X connect 12 0 31 0;
#X connect 12 1 10 0;
#X connect 12 1 13 0;
#X connect 12 1 23 0;
#X connect 12 1 27 0;
#X connect 13 0 32 0;
#X connect 14 0 24 0;
#X connect 15 0 16 0;
#X connect 16 0 17 0;
#X connect 17 0 18 0;
#X connect 17 0 19 0;
#X connect 18 0 21 1;
#X connect 19 0 20 0;
#X connect 20 0 22 1;
#X connect 21 0 25 0;
#X connect 22 0 26 0;
#X connect 23 0 24 1;
#X connect 24 0 0 0;
#X connect 27 0 31 0;
#X connect 28 0 4 0;
#X connect 29 0 28 1;
#X connect 30 0 1 0;
#X connect 31 0 11 0;
#X connect 32 0 1 0;
