#N canvas 232 133 826 541 12;
#X text 490 248 float = absolute tolerance;
#X text 470 266 percent% = relative tolerance;
#X obj 98 495 print;
#X obj 447 514 gem/pix_blobtracker;
#X text 475 483 see also;
#X text 28 14 tracker : general purpose vector tracker;
#X text 248 98 [x y blob_size(;
#X text 178 76 example : [x y(;
#X text 249 122 [x y blob_size shape_descriptor(;
#X text 40 321 output : add <sid> [input_vector];
#X text 102 338 update <sid> [input_vector];
#X text 102 356 remove <sid>;
#X text 421 318 For each tracked vector there is an unique index (<sid>)
;
#X text 108 424 <- insert this :;
#X text 127 444 if you prefer addObject / updateObject / removeObject
output messages;
#N canvas 0 0 450 300 TUIOClient_Object_messages 0;
#X obj 106 102 list split 1;
#X obj 112 152 makefilename %sObject;
#X obj 114 184 list append;
#X obj 78 211 list trim;
#X obj 98 54 inlet;
#X obj 100 257 outlet;
#X connect 0 0 1 0;
#X connect 0 1 2 1;
#X connect 1 0 2 0;
#X connect 2 0 3 0;
#X connect 3 0 5 0;
#X connect 4 0 0 0;
#X restore 227 423 pd TUIOClient_Object_messages;
#X text 446 423 or;
#N canvas 0 0 450 300 TUIOClient_Cursor_messages 0;
#X obj 106 102 list split 1;
#X obj 114 184 list append;
#X obj 78 211 list trim;
#X obj 98 54 inlet;
#X obj 100 257 outlet;
#X obj 113 152 makefilename %sCursor;
#X connect 0 0 5 0;
#X connect 0 1 1 1;
#X connect 1 0 2 0;
#X connect 2 0 4 0;
#X connect 3 0 0 0;
#X connect 5 0 1 0;
#X restore 479 421 pd TUIOClient_Cursor_messages;
#X msg 311 216 tolerance 20 20 10%;
#X msg 18 104 20 30 100;
#X msg 119 104 20 40 120;
#X text 473 214 specify tolerance for a triplet tracking;
#X text 162 156 For each variable of input vector \, you must specify
tolerance policy using tolerance message. eg \, the tolerance message
must have same nb of parameters as the input vector:;
#X text 43 47 You can track one or more variables;
#X text 469 14 dependancies : pd 0.42 \; pool object;
#X text 203 269 argument : release time (ms);
#X obj 98 270 tracker 300;
#X connect 18 0 26 0;
#X connect 19 0 26 0;
#X connect 20 0 26 0;
#X connect 26 0 2 0;
