#N canvas 138 21 1017 632 12;
#X obj 102 62 inlet;
#X obj 102 113 route tolerance;
#N canvas 0 50 450 300 extract_tolerance_values 0;
#X obj 74 33 inlet;
#X obj 98 476 outlet;
#X obj 82 157 t b a;
#X obj 111 200 route float;
#X obj 71 125 list split 1;
#X obj 148 163 list append;
#X obj 257 359 list;
#X obj 110 418 list;
#X obj 96 84 t b a b;
#X obj 144 359 list prepend;
#X obj 168 314 * -0.01;
#X obj 162 288 float;
#X obj 149 226 iemlib/splitfilename %;
#X obj 152 256 zexy/symbol2list;
#X connect 0 0 8 0;
#X connect 2 0 5 0;
#X connect 2 1 3 0;
#X connect 3 0 9 0;
#X connect 3 1 12 0;
#X connect 4 0 2 0;
#X connect 4 1 5 1;
#X connect 5 0 4 0;
#X connect 6 0 9 1;
#X connect 7 0 1 0;
#X connect 8 0 7 0;
#X connect 8 1 4 0;
#X connect 8 2 9 1;
#X connect 9 0 6 0;
#X connect 9 0 7 1;
#X connect 10 0 9 0;
#X connect 11 0 10 0;
#X connect 12 0 13 0;
#X connect 13 0 11 0;
#X restore 272 149 pd extract_tolerance_values;
#N canvas 129 47 1267 725 compare_to_pool_items 1;
#X obj 44 53 inlet;
#X obj 225 57 inlet tolerance;
#X obj 90 154 pool \$0-tracker;
#X obj 104 337 -;
#X obj 148 415 list append;
#X obj 142 442 list split 1;
#X obj 107 394 t f b;
#X obj 167 468 moses 0;
#X obj 104 366 abs;
#X obj 170 496 *;
#X obj 168 524 abs;
#X obj 172 571 f;
#X obj 122 571 * 1;
#X msg 216 526 1;
#X obj 246 337 list append;
#X text 342 344 load tolerances;
#X obj 87 598 f;
#X obj 119 539 <=;
#X obj 100 307 t f f;
#X obj 90 247 t b l b b;
#X obj 65 717 list prepend;
#X obj 60 751 outlet result;
#X obj 75 85 t b l b;
#X msg 48 123 getall;
#X obj 49 209 spigot 1;
#X msg 109 181 1;
#X obj 119 654 select 1;
#X obj 86 628 t f f;
#X msg 608 284 0;
#N canvas 0 50 489 346 list-sync 0;
#X text 91 60 Drips two lists in sync \, as long as the first list
lasts.;
#X obj 106 283 outlet;
#X obj 106 97 inlet;
#X obj 199 280 outlet;
#X obj 267 282 outlet;
#X obj 363 135 inlet;
#X text 314 280 End;
#X obj 106 196 t a b;
#N canvas 0 50 450 300 list-drip 0;
#X obj 73 94 t a a;
#X obj 73 251 spigot;
#X obj 112 159 bang;
#X obj 112 178 1;
#X obj 233 159 route bang;
#X obj 193 160 bang;
#X obj 193 179 0;
#X obj 112 124 list split 2;
#X obj 242 389 list split;
#X obj 309 338 list length;
#X obj 309 360 >> 1;
#X obj 73 270 t a a a a;
#X obj 73 456 list split;
#X obj 140 408 list length;
#X obj 140 433 >> 1;
#X obj 41 29 inlet;
#X obj 300 185 outlet;
#X text 83 29 Copyright 2009 by Mathieu Bouchard;
#X obj 41 63 t b a;
#X obj 475 129 outlet;
#X text 530 131 signal end of list;
#X text 391 33 made compatible with [list-drip]: fbar 2009;
#X connect 0 0 1 0;
#X connect 0 1 7 0;
#X connect 1 0 11 0;
#X connect 2 0 3 0;
#X connect 3 0 1 1;
#X connect 4 1 16 0;
#X connect 5 0 6 0;
#X connect 6 0 1 1;
#X connect 7 0 2 0;
#X connect 7 2 4 0;
#X connect 7 2 5 0;
#X connect 8 0 0 0;
#X connect 9 0 10 0;
#X connect 10 0 8 1;
#X connect 11 0 12 0;
#X connect 11 1 13 0;
#X connect 11 2 8 0;
#X connect 11 3 9 0;
#X connect 12 1 0 0;
#X connect 13 0 14 0;
#X connect 14 0 12 1;
#X connect 15 0 18 0;
#X connect 18 0 19 0;
#X connect 18 1 0 0;
#X restore 104 153 pd list-drip;
#N canvas 0 50 450 300 list-dripslow 0;
#X obj 158 196 list split 1;
#X obj 158 171 list append;
#X obj 158 247 outlet;
#X obj 158 47 inlet;
#X obj 239 247 outlet;
#X obj 232 45 inlet;
#X obj 158 82 b;
#X text 275 46 list;
#X text 113 47 bang;
#X text 283 247 EOL;
#X text 99 246 element;
#X obj 239 217 b;
#X connect 0 0 2 0;
#X connect 0 1 1 1;
#X connect 0 2 11 0;
#X connect 1 0 0 0;
#X connect 3 0 6 0;
#X connect 5 0 1 1;
#X connect 6 0 1 0;
#X connect 11 0 4 0;
#X restore 194 240 pd list-dripslow;
#X obj 282 193 list append;
#X obj 164 112 t l b;
#X connect 2 0 11 0;
#X connect 5 0 10 1;
#X connect 7 0 1 0;
#X connect 7 1 9 0;
#X connect 8 0 7 0;
#X connect 8 1 4 0;
#X connect 9 0 3 0;
#X connect 10 0 9 1;
#X connect 11 0 8 0;
#X connect 11 1 10 0;
#X restore 101 279 pd list-sync;
#X connect 0 0 22 0;
#X connect 1 0 14 1;
#X connect 2 0 24 0;
#X connect 2 1 20 1;
#X connect 3 0 8 0;
#X connect 4 0 5 0;
#X connect 5 0 7 0;
#X connect 5 1 4 1;
#X connect 6 0 17 0;
#X connect 6 1 4 0;
#X connect 7 0 9 0;
#X connect 7 1 10 0;
#X connect 8 0 6 0;
#X connect 9 0 10 0;
#X connect 10 0 17 1;
#X connect 11 0 12 1;
#X connect 12 0 11 0;
#X connect 12 0 16 1;
#X connect 13 0 12 1;
#X connect 14 0 4 1;
#X connect 16 0 27 0;
#X connect 17 0 12 0;
#X connect 18 0 3 0;
#X connect 18 1 9 1;
#X connect 19 0 16 0;
#X connect 19 1 29 0;
#X connect 19 2 13 0;
#X connect 19 3 14 0;
#X connect 20 0 21 0;
#X connect 22 0 23 0;
#X connect 22 1 29 1;
#X connect 22 2 25 0;
#X connect 23 0 2 0;
#X connect 24 0 19 0;
#X connect 25 0 24 1;
#X connect 26 0 28 0;
#X connect 27 0 20 0;
#X connect 27 1 26 0;
#X connect 28 0 24 1;
#X connect 29 0 18 0;
#X connect 29 1 3 1;
#X restore 131 204 pd compare_to_pool_items;
#N canvas 121 50 744 525 time_life-destruction_timer 0;
#X obj 94 19 inlet;
#X obj 149 440 outlet;
#X obj 26 274 route bang;
#X obj 91 83 unpack f f f;
#X text 255 46 ticket time sid;
#X obj 83 112 swap;
#X obj 37 145 pipe f f 10;
#X text 143 142 sid ticket;
#X obj 98 324 select;
#X msg 23 213 get \$1;
#X obj 97 298 list split 1;
#X obj 136 360 list append;
#X obj 95 356 f;
#X obj 70 196 t f f;
#X msg 82 445 clr \$1;
#X text 260 295 si le ticket correspond \, on renvoie tout;
#X obj 150 393 list trim;
#X text 273 343 sinon \, on ne fait rien;
#X obj 21 240 pool \$0-scheduler;
#X connect 0 0 3 0;
#X connect 2 1 10 0;
#X connect 3 0 5 0;
#X connect 3 1 6 2;
#X connect 3 2 5 1;
#X connect 5 0 6 0;
#X connect 5 1 6 1;
#X connect 6 0 13 0;
#X connect 6 1 8 1;
#X connect 8 0 11 0;
#X connect 8 0 12 0;
#X connect 9 0 18 0;
#X connect 10 0 8 0;
#X connect 10 1 11 1;
#X connect 11 0 16 0;
#X connect 12 0 14 0;
#X connect 13 0 9 0;
#X connect 13 1 12 1;
#X connect 14 0 18 0;
#X connect 16 0 1 0;
#X connect 18 0 2 0;
#X restore 446 559 pd time_life-destruction_timer;
#X msg 393 401 \$2 \$1;
#X obj 390 426 route stop;
#X msg 320 450 clr \$1;
#X obj 469 452 + 1;
#X obj 427 477 list append;
#X obj 514 421 t b l;
#X obj 504 448 value \$0.scheduler;
#X obj 289 559 pool \$0-scheduler;
#X msg 374 508 set \$3 \$1 clr \$3;
#X obj 168 269 unpack f f;
#X obj 169 309 spigot;
#X obj 60 497 f;
#X msg 79 462 0;
#X obj 251 367 select 0;
#X obj 134 492 v \$0-instance;
#X obj 175 527 + 1;
#X obj 179 553 v \$0-instance;
#X obj 46 527 select 0;
#X obj 179 596 list append;
#X obj 211 658 list trim;
#X obj 213 698 pool \$0-tracker;
#X obj 246 417 list append;
#X obj 116 163 t b l b l l;
#X obj 571 658 list trim;
#X obj 520 622 list prepend update;
#X obj 415 694 outlet;
#X obj 138 369 pack f \$1;
#X obj 417 602 route clr;
#X msg 406 647 remove \$1;
#X obj 174 624 list prepend set;
#X obj 315 639 list trim;
#X obj 284 603 list prepend add;
#X obj 569 232 t l l;
#X msg 557 273 get \$1;
#X obj 651 409 -;
#N canvas 0 50 450 300 list-sync 0;
#X text 91 60 Drips two lists in sync \, as long as the first list
lasts.;
#X obj 106 283 outlet;
#X obj 106 97 inlet;
#X obj 199 280 outlet;
#X obj 267 282 outlet;
#X obj 363 135 inlet;
#X text 314 280 End;
#X obj 106 196 t a b;
#N canvas 0 50 450 300 list-drip 0;
#X obj 73 94 t a a;
#X obj 73 251 spigot;
#X obj 112 159 bang;
#X obj 112 178 1;
#X obj 233 159 route bang;
#X obj 193 160 bang;
#X obj 193 179 0;
#X obj 112 124 list split 2;
#X obj 242 389 list split;
#X obj 309 338 list length;
#X obj 309 360 >> 1;
#X obj 73 270 t a a a a;
#X obj 73 456 list split;
#X obj 140 408 list length;
#X obj 140 433 >> 1;
#X obj 41 29 inlet;
#X obj 300 185 outlet;
#X text 83 29 Copyright 2009 by Mathieu Bouchard;
#X obj 41 63 t b a;
#X obj 475 129 outlet;
#X text 530 131 signal end of list;
#X text 391 33 made compatible with [list-drip]: fbar 2009;
#X connect 0 0 1 0;
#X connect 0 1 7 0;
#X connect 1 0 11 0;
#X connect 2 0 3 0;
#X connect 3 0 1 1;
#X connect 4 1 16 0;
#X connect 5 0 6 0;
#X connect 6 0 1 1;
#X connect 7 0 2 0;
#X connect 7 2 4 0;
#X connect 7 2 5 0;
#X connect 8 0 0 0;
#X connect 9 0 10 0;
#X connect 10 0 8 1;
#X connect 11 0 12 0;
#X connect 11 1 13 0;
#X connect 11 2 8 0;
#X connect 11 3 9 0;
#X connect 12 1 0 0;
#X connect 13 0 14 0;
#X connect 14 0 12 1;
#X connect 15 0 18 0;
#X connect 18 0 19 0;
#X connect 18 1 0 0;
#X restore 104 153 pd list-drip;
#N canvas 0 50 450 300 list-dripslow 0;
#X obj 158 196 list split 1;
#X obj 158 171 list append;
#X obj 158 247 outlet;
#X obj 158 47 inlet;
#X obj 239 247 outlet;
#X obj 232 45 inlet;
#X obj 158 82 b;
#X text 275 46 list;
#X text 113 47 bang;
#X text 283 247 EOL;
#X text 99 246 element;
#X obj 239 217 b;
#X connect 0 0 2 0;
#X connect 0 1 1 1;
#X connect 0 2 11 0;
#X connect 1 0 0 0;
#X connect 3 0 6 0;
#X connect 5 0 1 1;
#X connect 6 0 1 0;
#X connect 11 0 4 0;
#X restore 194 240 pd list-dripslow;
#X obj 282 193 list append;
#X obj 164 112 t l b;
#X connect 2 0 11 0;
#X connect 5 0 10 1;
#X connect 7 0 1 0;
#X connect 7 1 9 0;
#X connect 8 0 7 0;
#X connect 8 1 4 0;
#X connect 9 0 3 0;
#X connect 10 0 9 1;
#X connect 11 0 8 0;
#X connect 11 1 10 0;
#X restore 647 365 pd list-sync;
#X obj 645 279 list split 1;
#X obj 510 315 pool \$0-tracker;
#X connect 0 0 1 0;
#X connect 1 0 2 0;
#X connect 1 1 27 0;
#X connect 2 0 3 1;
#X connect 3 0 14 0;
#X connect 4 0 25 0;
#X connect 4 0 32 0;
#X connect 5 0 6 0;
#X connect 6 0 7 0;
#X connect 6 1 10 0;
#X connect 7 0 12 0;
#X connect 8 0 9 0;
#X connect 8 0 11 0;
#X connect 9 0 13 0;
#X connect 9 0 4 0;
#X connect 10 0 11 0;
#X connect 10 1 9 1;
#X connect 11 0 8 0;
#X connect 13 0 12 0;
#X connect 14 0 15 0;
#X connect 14 1 15 1;
#X connect 14 1 18 0;
#X connect 15 0 26 0;
#X connect 15 0 31 0;
#X connect 16 0 22 0;
#X connect 17 0 16 1;
#X connect 18 1 16 1;
#X connect 19 0 20 0;
#X connect 19 0 23 0;
#X connect 19 0 31 0;
#X connect 20 0 21 0;
#X connect 22 0 19 0;
#X connect 23 0 34 0;
#X connect 23 0 36 0;
#X connect 24 0 25 0;
#X connect 26 0 29 0;
#X connect 26 0 34 0;
#X connect 26 0 37 0;
#X connect 27 0 16 0;
#X connect 27 1 3 0;
#X connect 27 2 17 0;
#X connect 27 3 23 1;
#X connect 27 4 26 1;
#X connect 28 0 30 0;
#X connect 29 0 28 0;
#X connect 31 0 5 0;
#X connect 32 0 33 0;
#X connect 33 0 30 0;
#X connect 34 0 24 0;
#X connect 35 0 30 0;
#X connect 36 0 35 0;
#X connect 37 0 38 0;
#X connect 37 1 41 0;
#X connect 38 0 42 0;
#X connect 40 0 39 0;
#X connect 40 1 39 1;
#X connect 41 1 40 1;
#X connect 42 0 40 0;
